<svg width="227" height="221" viewBox="0 0 227 221" fill="none" xmlns="http://www.w3.org/2000/svg">
<g opacity="0.1">
<path opacity="0.6" d="M170.858 125.493C173.081 156.545 153.809 183.573 127.2 187.88C128.693 187.881 130.199 187.826 131.713 187.712C164.272 185.271 188.776 156.892 186.445 124.324C184.113 91.7575 155.828 67.3348 123.268 69.7748C121.754 69.8883 120.257 70.0586 118.779 70.2818C145.718 70.5747 168.634 94.4396 170.857 125.492L170.858 125.493Z" fill="#FEE0AB"/>
<path opacity="0.5" d="M128.846 125.731C120.894 134.941 107.041 135.953 97.9096 128.069C88.7787 120.185 87.76 106.332 95.7124 97.1221C103.665 87.9121 117.518 86.9004 126.649 94.7844C135.78 102.668 136.799 116.521 128.846 125.731Z" stroke="white" stroke-width="15.7406"/>
<path opacity="0.2" d="M98.6601 169.006C67.6153 171.334 40.6639 152.141 36.4469 125.533C36.4415 127.027 36.4913 128.533 36.5997 130.048C38.9317 162.616 67.2169 187.037 99.7765 184.597C132.335 182.156 156.84 153.776 154.508 121.209C154.4 119.695 154.235 118.197 154.017 116.719C153.635 143.672 129.706 166.678 98.6608 169.006L98.6601 169.006Z" fill="#FEE0AB"/>
<path opacity="0.4" d="M55.3754 100.562C53.1519 69.5096 72.4244 42.4814 99.0338 38.1744C97.5403 38.1739 96.0346 38.2288 94.5207 38.3422C61.9612 40.7837 37.4575 69.1629 39.7887 101.73C42.1206 134.297 70.4059 158.72 102.965 156.28C104.479 156.166 105.977 155.996 107.454 155.773C80.5155 155.48 57.5997 131.615 55.3762 100.563L55.3754 100.562Z" fill="#FEE0AB"/>
<path opacity="0.8" d="M125.647 55.5527C156.692 53.2255 183.643 72.4181 187.861 99.0264C187.866 97.5322 187.816 96.0259 187.708 94.5116C185.376 61.9434 157.09 37.5222 124.531 39.9622C91.9721 42.4029 67.4677 70.7828 69.7989 103.35C69.9073 104.865 70.0726 106.362 70.2908 107.84C70.6726 80.8867 94.6017 57.8807 125.647 55.5535L125.647 55.5527Z" fill="#FEE0AB"/>
</g>
</svg>
