<svg width="200" height="286" viewBox="0 0 200 286" fill="none" xmlns="http://www.w3.org/2000/svg">
<g opacity="0.2" clip-path="url(#clip0_85_264)">
<path d="M134.173 210.075H65.8275C52.6019 210.075 41.8457 199.294 41.8457 186.038C41.8457 172.781 52.6019 162 65.8275 162H124.308V172.11H65.8275C58.1673 172.11 51.9323 178.36 51.9323 186.038C51.9323 193.716 58.1673 199.965 65.8275 199.965H134.173C141.833 199.965 148.068 193.716 148.068 186.038C148.068 178.36 141.833 172.11 134.173 172.11V162C147.399 162 158.155 172.781 158.155 186.038C158.155 199.294 147.399 210.075 134.173 210.075Z" fill="#FEE0AB"/>
<path d="M155.421 248.035H44.5785C31.3529 248.035 20.5967 237.253 20.5967 223.997C20.5967 210.74 31.3529 199.959 44.5785 199.959H155.415C168.64 199.959 179.396 210.74 179.396 223.997C179.396 237.253 168.64 248.035 155.415 248.035H155.421ZM44.5846 210.069C36.9245 210.069 30.6894 216.319 30.6894 223.997C30.6894 231.675 36.9245 237.925 44.5846 237.925H155.421C163.081 237.925 169.316 231.675 169.316 223.997C169.316 216.319 163.081 210.069 155.421 210.069H44.5785H44.5846Z" fill="#FEE0AB"/>
<path d="M176.018 286H70.8766V275.89H176.018C183.678 275.89 189.913 269.64 189.913 261.962C189.913 254.284 183.678 248.035 176.018 248.035H23.9818C16.3216 248.035 10.0866 254.284 10.0866 261.962C10.0866 269.64 16.3216 275.89 23.9818 275.89H58.855V286H23.9818C10.7562 286 0 275.219 0 261.962C0 248.706 10.7562 237.924 23.9818 237.924H176.018C189.244 237.924 200 248.706 200 261.962C200 275.219 189.244 286 176.018 286Z" fill="#FEE0AB"/>
</g>
<g opacity="0.5" clip-path="url(#clip1_85_264)">
<path d="M103.018 70.8618C95.8939 70.8618 90.1104 65.0183 90.1104 57.837C90.1104 50.6558 95.8939 44.8123 103.018 44.8123C110.141 44.8123 115.925 50.6558 115.925 57.837C115.925 65.0183 110.141 70.8618 103.018 70.8618ZM103.018 50.2334C98.8562 50.2334 95.506 53.648 95.506 57.837C95.506 62.0261 98.8915 65.4407 103.018 65.4407C107.144 65.4407 110.529 62.0261 110.529 57.837C110.529 53.648 107.144 50.2334 103.018 50.2334Z" fill="#FEE0AB"/>
<path d="M103.017 162C101.536 162 100.302 160.803 100.302 159.289V121.658C100.302 120.18 101.501 118.948 103.017 118.948C104.534 118.948 105.733 120.145 105.733 121.658V159.289C105.733 160.768 104.534 162 103.017 162Z" fill="#FEE0AB"/>
<path d="M114.408 162H91.5913C90.1102 162 88.8759 160.803 88.8759 159.289V91.7718C72.3363 88.4276 60.9103 78.219 55.6557 69.4889C53.434 65.7927 54.3156 61.0052 57.7364 58.3651C61.1219 55.7249 65.9532 56.0065 68.9508 58.9987C79.3542 69.3833 89.9339 73.6428 92.0498 74.4172H113.95C116.066 73.6428 126.645 69.3833 137.049 58.9987C140.046 56.0065 144.878 55.7249 148.263 58.3651C151.684 61.0052 152.566 65.7927 150.344 69.4889C145.089 78.219 133.698 88.4276 117.124 91.7718V159.289C117.124 160.768 115.925 162 114.408 162ZM94.2715 156.614H111.693V89.5189C111.693 88.1812 112.645 87.0548 113.985 86.8435C129.925 84.309 140.822 74.7692 145.689 66.7079C146.5 65.3351 146.182 63.6102 144.913 62.6245C143.679 61.6741 141.915 61.7445 140.857 62.8005C128.338 75.2973 115.784 79.4863 115.255 79.6623C114.972 79.7679 114.69 79.8031 114.408 79.8031H91.5913C91.3092 79.8031 91.0271 79.7679 90.745 79.6623C90.216 79.4863 77.6614 75.2973 65.1421 62.8005C64.0842 61.7445 62.3209 61.6388 61.0866 62.6245C59.8523 63.6102 59.4996 65.3703 60.3108 66.7079C65.1774 74.8044 76.0745 84.3442 92.0145 86.8435C93.3194 87.0548 94.3068 88.1812 94.3068 89.5189V156.614H94.2715Z" fill="#FEE0AB"/>
<path d="M156.763 77.1982C153.06 77.1982 149.709 75.2621 147.805 71.9179L146.218 69.1721C146.218 69.1721 146.077 68.9609 146.042 68.9257C145.548 68.1512 145.478 67.2008 145.83 66.3559C146.43 65.0182 146.042 63.5046 144.913 62.6245C143.679 61.674 141.916 61.7444 140.858 62.8005C139.447 64.2086 138.001 65.5463 136.414 66.884C135.85 67.3768 135.109 67.6232 134.369 67.5176C130.525 67.0952 127.245 64.5254 125.835 60.794C124.424 57.0978 125.2 53.1199 127.915 50.163L130.067 47.8044C131.548 46.1851 131.795 43.8266 130.701 41.9257L129.114 39.1799C126.822 35.2021 127.351 30.4146 130.454 27C133.558 23.5854 138.283 22.6349 142.48 24.5358L145.372 25.8383C147.382 26.7536 149.674 26.2607 151.155 24.6414L153.307 22.2829C156.41 18.8683 161.135 17.9179 165.332 19.8188C169.529 21.7197 171.927 25.8735 171.398 30.4498L171.045 33.618C170.798 35.8005 171.997 37.8422 173.972 38.7575L176.864 40.06C181.061 41.9609 183.459 46.1147 182.93 50.691C182.436 55.2673 179.191 58.8227 174.677 59.7379L171.574 60.3716C169.423 60.8292 167.836 62.5541 167.589 64.7366L167.236 67.9048C166.743 72.4811 163.498 76.0365 158.984 76.9517C158.244 77.0926 157.503 77.163 156.798 77.163L156.763 77.1982ZM151.261 67.1304L152.46 69.2425C153.8 71.5658 156.128 72.0235 157.856 71.6714C159.584 71.3194 161.523 69.9817 161.841 67.3064L162.193 64.1382C162.687 59.6323 166.002 56.0065 170.446 55.0913L173.549 54.4576C176.194 53.9296 177.322 51.8527 177.534 50.0926C177.71 48.3325 177.076 46.0795 174.607 44.9531L171.715 43.6506C167.589 41.7849 165.156 37.5254 165.649 33.0195L166.002 29.8514C166.284 27.176 164.697 25.4511 163.075 24.7119C161.453 23.9726 159.09 23.9022 157.292 25.9087L155.14 28.2673C152.072 31.6115 147.276 32.5971 143.115 30.7314L140.223 29.4289C137.754 28.3377 135.638 29.3233 134.439 30.6258C133.24 31.9283 132.465 34.146 133.805 36.5046L135.392 39.2503C137.649 43.1929 137.084 48.086 134.052 51.4302L131.9 53.7888C130.031 55.8305 130.56 58.0482 130.878 58.8931C131.442 60.3364 132.535 61.4628 133.91 61.9205C135.004 60.9348 136.026 59.9843 137.049 58.9635C140.047 55.9713 144.878 55.6897 148.264 58.3298C150.979 60.442 152.108 63.8566 151.296 67.0952L151.261 67.1304Z" fill="#FEE0AB"/>
<path d="M49.2375 77.1982C48.4969 77.1982 47.7916 77.1278 47.051 76.987C42.537 76.0717 39.2926 72.5163 38.7989 67.94L38.4462 64.7718C38.1994 62.5893 36.6124 60.8644 34.4612 60.4068L31.3578 59.7731C26.8438 58.8579 23.5994 55.3025 23.1057 50.7262C22.612 46.1499 24.9748 41.9961 29.1714 40.0952L32.0632 38.7927C34.038 37.8774 35.2371 35.8357 34.9902 33.6532L34.6375 30.485C34.1438 25.9087 36.5066 21.7549 40.7032 19.854C44.8998 17.9531 49.6254 18.9387 52.7288 22.3181L54.88 24.6767C56.3611 26.296 58.6887 26.7888 60.6635 25.8735L63.5553 24.5711C67.7519 22.6701 72.4775 23.6558 75.5809 27.0352C78.6843 30.4498 79.2132 35.2021 76.921 39.2151L75.334 41.9609C74.2408 43.8618 74.5229 46.2203 75.9688 47.8396L78.12 50.1982C80.8002 53.1551 81.576 57.133 80.2007 60.8292C78.7901 64.5606 75.5104 67.1304 71.6664 67.5528C70.9258 67.6232 70.1853 67.412 69.621 66.9192C68.0341 65.5463 66.5882 64.2086 65.1775 62.8357C64.1196 61.7797 62.3563 61.674 61.122 62.6597C59.9935 63.5398 59.6056 65.0887 60.2051 66.3911C60.593 67.236 60.4872 68.2216 59.9935 68.9609C59.9935 68.9609 59.8524 69.1721 59.8172 69.2073L58.2655 71.9531C56.3611 75.2973 52.9757 77.2334 49.308 77.2334L49.2375 77.1982ZM45.0762 24.2894C44.3003 24.2894 43.5597 24.4654 42.925 24.7471C41.3027 25.4863 39.7158 27.2112 39.9979 29.8866L40.3506 33.0548C40.8443 37.5606 38.411 41.8201 34.2849 43.6858L31.3931 44.9883C28.9245 46.0795 28.2545 48.3677 28.4661 50.1278C28.6777 51.8879 29.8062 53.9648 32.4511 54.4928L35.5544 55.1265C39.9979 56.0417 43.3129 59.6675 43.8066 64.1734L44.1593 67.3416C44.4414 70.0169 46.4163 71.3546 48.1443 71.7066C49.8723 72.0587 52.1998 71.601 53.5399 69.2777L54.7389 67.1656C53.9278 63.927 55.0563 60.4772 57.7718 58.4003C61.1573 55.7601 65.9887 56.0417 68.9862 59.0339C69.9737 60.0196 71.0316 61.0052 72.1249 61.9909C73.5002 61.498 74.5935 60.4068 75.1577 58.9635C75.4751 58.1186 76.0393 55.9361 74.135 53.8592L71.9838 51.5006C68.9157 48.1565 68.3867 43.2634 70.6437 39.3207L72.2307 36.575C73.5708 34.2516 72.7596 31.9987 71.5959 30.6962C70.3969 29.3937 68.2457 28.4081 65.8123 29.4993L62.9205 30.8018C58.7945 32.6675 53.9631 31.6819 50.895 28.3377L48.7438 25.9791C47.6505 24.7823 46.3105 24.3246 45.1114 24.3246L45.0762 24.2894Z" fill="#FEE0AB"/>
<path d="M114.585 131.585C113.351 131.585 112.222 130.705 111.94 129.438C111.623 127.995 112.575 126.552 114.021 126.235C138.566 121.095 156.48 99.1643 156.551 74.1004C156.551 72.6219 157.75 71.425 159.266 71.425C160.783 71.425 161.982 72.6571 161.982 74.1356C161.876 101.734 142.198 125.883 115.149 131.55C114.973 131.585 114.761 131.621 114.585 131.621V131.585Z" fill="#FEE0AB"/>
<path d="M91.5918 131.621C91.4155 131.621 91.2392 131.621 91.0276 131.55C64.0847 126.023 44.3007 102.016 44.0186 74.5228C44.0186 73.0443 45.1823 71.8123 46.6987 71.8123C48.2152 71.8123 49.4142 73.0091 49.4142 74.4876C49.6963 99.4811 67.6465 121.271 92.1208 126.305C93.5667 126.622 94.5189 128.03 94.2368 129.473C93.9899 130.741 92.8614 131.621 91.5918 131.621Z" fill="#FEE0AB"/>
<path d="M134.369 29.9218C133.84 29.9218 133.311 29.781 132.853 29.4641C124.001 23.515 113.668 20.382 102.983 20.382C92.2971 20.382 82.1759 23.4446 73.3947 29.2881C72.1604 30.0978 70.4677 29.781 69.6566 28.5489C68.8455 27.3168 69.1629 25.6271 70.3972 24.8175C80.0599 18.4107 91.3449 15.0313 102.983 15.0313C114.62 15.0313 126.117 18.4811 135.85 25.0287C137.084 25.8735 137.402 27.528 136.591 28.7601C136.062 29.5345 135.215 29.957 134.334 29.957L134.369 29.9218Z" fill="#FEE0AB"/>
<path d="M154.929 27.2464C154.224 27.2464 153.518 26.9648 152.989 26.4016C152.037 25.4159 151.05 24.4302 150.027 23.4798C148.934 22.4589 148.863 20.7692 149.886 19.678C150.909 18.5867 152.602 18.5163 153.695 19.5372C154.788 20.558 155.846 21.6141 156.869 22.6701C157.891 23.7614 157.856 25.4511 156.763 26.472C156.234 26.9648 155.564 27.2112 154.894 27.2112L154.929 27.2464Z" fill="#FEE0AB"/>
<path d="M139.588 15.0313C139.129 15.0313 138.636 14.9257 138.213 14.6441C136.097 13.3768 133.91 12.2503 131.688 11.2295C130.348 10.5958 129.749 9.01175 130.348 7.63887C130.983 6.30119 132.57 5.70275 133.945 6.30119C136.344 7.39245 138.706 8.65973 140.999 9.9974C142.268 10.7719 142.691 12.4263 141.951 13.6936C141.457 14.5385 140.54 14.9961 139.623 14.9961L139.588 15.0313ZM66.4118 15.0313C65.4949 15.0313 64.578 14.5737 64.0843 13.7288C63.3085 12.4616 63.7317 10.8071 65.0365 10.0326C67.3287 8.69493 69.6915 7.42765 72.0896 6.33639C73.4297 5.70275 75.0519 6.33639 75.6867 7.67407C76.3215 9.01175 75.6867 10.631 74.3466 11.2647C72.1249 12.2855 69.9031 13.4472 67.7872 14.6793C67.364 14.9257 66.8703 15.0665 66.4118 15.0665V15.0313ZM118.252 6.65321C118.076 6.65321 117.864 6.65321 117.688 6.5828C115.29 6.05477 112.857 5.66755 110.388 5.42113C108.907 5.24512 107.814 3.94265 107.99 2.46416C108.166 0.985672 109.471 -0.0703909 110.952 0.0704174C113.597 0.352034 116.242 0.774459 118.817 1.33769C120.262 1.65451 121.215 3.0978 120.897 4.54108C120.615 5.80836 119.487 6.65321 118.252 6.65321ZM87.7475 6.65321C86.5132 6.65321 85.3847 5.77315 85.1026 4.54108C84.7852 3.0978 85.7021 1.65451 87.1833 1.33769C89.7577 0.774459 92.4026 0.352034 95.0475 0.0704174C96.5287 -0.0703909 97.8687 0.985672 98.0098 2.46416C98.1509 3.94265 97.0929 5.28033 95.6117 5.42113C93.1784 5.66755 90.7098 6.05477 88.3118 6.5828C88.1354 6.618 87.9238 6.65321 87.7475 6.65321Z" fill="#FEE0AB"/>
<path d="M51.0718 27.2464C50.4018 27.2464 49.7317 27 49.2027 26.5072C48.1095 25.4863 48.0742 23.7614 49.0969 22.7053C50.1196 21.6141 51.1776 20.5932 52.2708 19.5723C53.3641 18.5515 55.0568 18.6219 56.0795 19.7132C57.1022 20.8044 57.0317 22.4941 55.9385 23.515C54.9158 24.4654 53.9283 25.4159 52.9761 26.4368C52.4472 27 51.7418 27.2816 51.0365 27.2816L51.0718 27.2464Z" fill="#FEE0AB"/>
<path d="M114.408 147.286C113.104 147.286 111.94 146.335 111.728 145.033C111.481 143.554 112.504 142.181 113.985 141.935C115.361 141.724 116.736 141.442 118.076 141.16C119.522 140.844 120.968 141.759 121.285 143.202C121.603 144.645 120.686 146.089 119.24 146.405C117.794 146.722 116.313 147.004 114.832 147.25C114.691 147.25 114.549 147.25 114.408 147.25V147.286Z" fill="#FEE0AB"/>
<path d="M133.417 141.442C132.394 141.442 131.442 140.879 130.983 139.893C130.349 138.555 130.948 136.936 132.288 136.302C134.545 135.246 136.767 134.05 138.883 132.747C140.153 131.973 141.81 132.36 142.586 133.662C143.362 134.93 142.974 136.584 141.669 137.359C139.377 138.767 136.979 140.034 134.545 141.196C134.193 141.372 133.769 141.442 133.417 141.442ZM152.637 128.276C151.931 128.276 151.226 127.995 150.697 127.432C149.674 126.34 149.709 124.651 150.767 123.63C152.566 121.905 154.294 120.074 155.916 118.173C156.868 117.047 158.596 116.871 159.725 117.857C160.853 118.807 161.03 120.532 160.042 121.658C158.314 123.7 156.445 125.707 154.506 127.537C153.977 128.03 153.307 128.276 152.637 128.276ZM166.637 109.69C166.214 109.69 165.791 109.584 165.403 109.373C164.098 108.669 163.569 107.05 164.274 105.747C165.438 103.529 166.461 101.241 167.378 98.9179C167.907 97.545 169.493 96.8409 170.869 97.4042C172.244 97.9322 172.95 99.5163 172.385 100.889C171.398 103.389 170.269 105.853 169.035 108.246C168.541 109.162 167.624 109.69 166.637 109.69ZM173.902 87.618C173.902 87.618 173.62 87.618 173.478 87.618C171.997 87.4068 171.01 85.9987 171.221 84.5554C171.609 82.0913 171.856 79.5919 171.962 77.0926C172.033 75.6141 173.302 74.4172 174.783 74.5228C176.264 74.5932 177.428 75.8605 177.358 77.339C177.252 80.0143 176.97 82.7249 176.547 85.3651C176.335 86.7027 175.207 87.6532 173.866 87.6532L173.902 87.618Z" fill="#FEE0AB"/>
<path d="M173.655 64.3142C172.35 64.3142 171.221 63.399 171.01 62.0965C170.763 60.7236 170.481 59.3859 170.163 58.013C169.811 56.5698 170.728 55.1265 172.174 54.7745C173.655 54.4224 175.065 55.3377 175.418 56.781C175.771 58.2243 176.053 59.7027 176.3 61.1812C176.547 62.6597 175.559 64.0326 174.113 64.3142C173.972 64.3142 173.796 64.3494 173.655 64.3494V64.3142Z" fill="#FEE0AB"/>
<path d="M32.3454 64.3142C32.3454 64.3142 32.028 64.3142 31.887 64.279C30.4058 64.0326 29.4184 62.6245 29.7005 61.146C29.9473 59.6675 30.2647 58.2242 30.5821 56.7458C30.9348 55.3025 32.3807 54.3872 33.8266 54.7392C35.2725 55.0913 36.1894 56.5345 35.8367 57.9778C35.5193 59.3155 35.2372 60.6884 34.9903 62.0613C34.7787 63.3637 33.615 64.279 32.3454 64.279V64.3142Z" fill="#FEE0AB"/>
<path d="M72.5485 141.442C72.1605 141.442 71.7726 141.372 71.42 141.196C68.9866 140.069 66.5886 138.767 64.2963 137.359C63.0268 136.584 62.6036 134.93 63.3794 133.662C64.1553 132.395 65.8127 131.973 67.0823 132.747C69.1982 134.05 71.42 135.246 73.677 136.302C75.0171 136.936 75.6166 138.555 74.9818 139.893C74.5233 140.879 73.5359 141.442 72.5485 141.442ZM53.364 128.276C52.6939 128.276 52.0239 128.03 51.4949 127.537C49.5553 125.671 47.6862 123.7 45.9582 121.658C45.006 120.532 45.1471 118.807 46.2756 117.857C47.4041 116.906 49.1321 117.047 50.0843 118.173C51.6712 120.074 53.3992 121.905 55.1978 123.63C56.291 124.651 56.3263 126.375 55.2683 127.432C54.7393 127.995 54.034 128.276 53.3287 128.276H53.364ZM39.3635 109.69C38.3761 109.69 37.4592 109.162 36.9655 108.246C35.7312 105.853 34.6027 103.389 33.6153 100.889C33.0863 99.5163 33.7563 97.9322 35.1669 97.4042C36.5423 96.8761 38.1292 97.545 38.6582 98.9531C39.5751 101.276 40.5978 103.565 41.7616 105.782C42.4669 107.12 41.9379 108.739 40.6331 109.408C40.2452 109.619 39.822 109.725 39.3988 109.725L39.3635 109.69ZM32.0988 87.5828C30.794 87.5828 29.6302 86.6323 29.4186 85.2947C28.9955 82.6545 28.7486 79.9439 28.6075 77.2686C28.537 75.7901 29.7008 74.5228 31.1819 74.4524C32.6983 74.382 33.9326 75.5437 34.0032 77.0222C34.109 79.5215 34.3558 82.0209 34.7437 84.485C34.9553 85.9635 33.9679 87.3364 32.4868 87.5476C32.3457 87.5476 32.2046 87.5476 32.0636 87.5476L32.0988 87.5828Z" fill="#FEE0AB"/>
<path d="M91.5919 147.286C91.5919 147.286 91.3098 147.286 91.1687 147.286C89.6876 147.039 88.2064 146.757 86.7605 146.441C85.3147 146.124 84.3978 144.681 84.7151 143.237C85.0325 141.794 86.4784 140.879 87.9243 141.196C89.2644 141.512 90.6398 141.759 92.0151 141.97C93.4963 142.216 94.4837 143.589 94.2721 145.068C94.0605 146.405 92.8968 147.321 91.5919 147.321V147.286Z" fill="#FEE0AB"/>
<path d="M145.23 162H60.7692C59.288 162 58.0537 160.803 58.0537 159.289C58.0537 157.776 59.2527 156.579 60.7692 156.579H145.266C146.747 156.579 147.981 157.776 147.981 159.289C147.981 160.803 146.782 162 145.266 162H145.23Z" fill="#FEE0AB"/>
</g>
<defs>
<clipPath id="clip0_85_264">
<rect width="200" height="124" fill="white" transform="translate(0 162)"/>
</clipPath>
<clipPath id="clip1_85_264">
<rect width="160" height="162" fill="white" transform="translate(23)"/>
</clipPath>
</defs>
</svg>
