<svg width="53" height="53" viewBox="0 0 53 53" fill="none" xmlns="http://www.w3.org/2000/svg">
<path d="M38.0938 14.9062H26.5C26.0607 14.9062 25.6395 14.7318 25.3289 14.4211C25.0182 14.1105 24.8438 13.6893 24.8438 13.25C24.8438 12.8107 25.0182 12.3895 25.3289 12.0789C25.6395 11.7682 26.0607 11.5938 26.5 11.5938H36.4375V4.96875H26.5C26.0607 4.96875 25.6395 4.79425 25.3289 4.48365C25.0182 4.17304 24.8438 3.75176 24.8438 3.3125C24.8438 2.87324 25.0182 2.45196 25.3289 2.14135C25.6395 1.83075 26.0607 1.65625 26.5 1.65625H38.0938C38.533 1.65625 38.9543 1.83075 39.2649 2.14135C39.5755 2.45196 39.75 2.87324 39.75 3.3125V13.25C39.75 13.6893 39.5755 14.1105 39.2649 14.4211C38.9543 14.7318 38.533 14.9062 38.0938 14.9062Z" fill="#FFD17E"/>
<path d="M48.0312 19.875H34.7812C34.342 19.875 33.9207 19.7005 33.6101 19.3899C33.2995 19.0793 33.125 18.658 33.125 18.2188V13.25C33.125 12.8107 33.2995 12.3895 33.6101 12.0789C33.9207 11.7682 34.342 11.5938 34.7812 11.5938C35.2205 11.5938 35.6418 11.7682 35.9524 12.0789C36.263 12.3895 36.4375 12.8107 36.4375 13.25V16.5625H45.734L44.8032 13.7734C44.6901 13.4336 44.6901 13.0664 44.8032 12.7266L45.734 9.9375H38.0938C37.6545 9.9375 37.2332 9.763 36.9226 9.4524C36.612 9.14179 36.4375 8.72051 36.4375 8.28125C36.4375 7.84199 36.612 7.42071 36.9226 7.1101C37.2332 6.7995 37.6545 6.625 38.0938 6.625H48.0312C48.2937 6.62494 48.5524 6.68724 48.786 6.80677C49.0197 6.9263 49.2215 7.09964 49.375 7.3125C49.5285 7.52536 49.6293 7.77165 49.6689 8.03108C49.7085 8.2905 49.686 8.55564 49.603 8.80463L48.1207 13.25L49.6113 17.6954C49.6945 17.945 49.7169 18.2109 49.6769 18.471C49.6368 18.731 49.5353 18.9778 49.3809 19.1909C49.2265 19.4039 49.0235 19.5771 48.7888 19.6961C48.5541 19.815 48.2944 19.8764 48.0312 19.875Z" fill="#FFD17E"/>
<path d="M51.3434 53H21.5309C21.0917 53 20.6704 52.8255 20.3598 52.5149C20.0492 52.2043 19.8747 51.783 19.8747 51.3437C19.8747 50.9045 20.0492 50.4832 20.3598 50.1726C20.6704 49.862 21.0917 49.6875 21.5309 49.6875H47.9266L26.4997 22.5482L5.07278 49.6875H14.9059C15.3452 49.6875 15.7665 49.862 16.0771 50.1726C16.3877 50.4832 16.5622 50.9045 16.5622 51.3437C16.5622 51.783 16.3877 52.2043 16.0771 52.5149C15.7665 52.8255 15.3452 53 14.9059 53H1.65593C1.34474 53.0001 1.03981 52.9126 0.776078 52.7474C0.512349 52.5822 0.300495 52.346 0.164793 52.066C0.0290912 51.7859 -0.0249682 51.4733 0.0088101 51.164C0.0425884 50.8546 0.162838 50.561 0.355778 50.3169L25.1995 18.8481C25.3608 18.6613 25.5604 18.5115 25.7847 18.4088C26.0091 18.306 26.2529 18.2529 26.4997 18.2529C26.7464 18.2529 26.9903 18.306 27.2147 18.4088C27.439 18.5115 27.6386 18.6613 27.7998 18.8481L52.6436 50.3169C52.8365 50.561 52.9568 50.8546 52.9906 51.164C53.0243 51.4733 52.9703 51.7859 52.8346 52.066C52.6989 52.346 52.487 52.5822 52.2233 52.7474C51.9596 52.9126 51.6546 53.0001 51.3434 53Z" fill="#FEE0AB"/>
<path d="M26.5 21.5312C26.0607 21.5312 25.6395 21.3568 25.3289 21.0461C25.0182 20.7355 24.8438 20.3143 24.8438 19.875V1.65625C24.8438 1.21699 25.0182 0.795712 25.3289 0.485104C25.6395 0.174497 26.0607 0 26.5 0C26.9393 0 27.3605 0.174497 27.6711 0.485104C27.9818 0.795712 28.1562 1.21699 28.1562 1.65625V19.875C28.1562 20.3143 27.9818 20.7355 27.6711 21.0461C27.3605 21.3568 26.9393 21.5312 26.5 21.5312Z" fill="#FEE0AB"/>
<path d="M26.5002 33.8653C23.3878 33.8647 20.3341 33.0179 17.6657 31.4157C17.474 31.3066 17.3061 31.1602 17.1717 30.9852C17.0373 30.8102 16.9393 30.6102 16.8833 30.3968C16.8273 30.1834 16.8145 29.961 16.8457 29.7426C16.8769 29.5242 16.9513 29.3142 17.0648 29.125C17.1782 28.9358 17.3283 28.7711 17.5062 28.6407C17.6841 28.5103 17.8863 28.4167 18.1009 28.3655C18.3155 28.3143 18.5382 28.3065 18.7558 28.3425C18.9735 28.3785 19.1817 28.4576 19.3684 28.5753C21.5222 29.8691 23.9875 30.5527 26.5002 30.5527C29.0128 30.5527 31.4781 29.8691 33.632 28.5753C33.8186 28.4576 34.0269 28.3785 34.2445 28.3425C34.4622 28.3065 34.6848 28.3143 34.8994 28.3655C35.114 28.4167 35.3162 28.5103 35.4941 28.6407C35.6721 28.7711 35.8222 28.9358 35.9356 29.125C36.049 29.3142 36.1235 29.5242 36.1546 29.7426C36.1858 29.961 36.173 30.1834 36.117 30.3968C36.061 30.6102 35.963 30.8102 35.8286 30.9852C35.6943 31.1602 35.5263 31.3066 35.3346 31.4157C32.6663 33.0179 29.6126 33.8647 26.5002 33.8653Z" fill="#FEE0AB"/>
</svg>
