<svg width="172" height="172" viewBox="0 0 172 172" fill="none" xmlns="http://www.w3.org/2000/svg">
<g opacity="0.2" clip-path="url(#clip0_47_450)">
<path d="M85.9987 171.512C104.664 171.512 119.795 133.227 119.795 86.0001C119.795 38.7732 104.664 0.488281 85.9987 0.488281C67.3334 0.488281 52.2021 38.7732 52.2021 86.0001C52.2021 133.227 67.3334 171.512 85.9987 171.512Z" stroke="#FFCF77" stroke-miterlimit="10"/>
<path d="M118.691 94.576C106.708 140.258 82.356 173.452 64.3023 168.713C46.2486 163.977 41.3243 123.106 53.308 77.4242C65.2917 31.7424 89.6432 -1.44822 107.697 3.28725C125.751 8.02272 130.675 48.8942 118.691 94.576Z" stroke="#FFCF77" stroke-miterlimit="10"/>
<path d="M110.012 109.782C76.7748 143.337 39.0823 159.886 25.8228 146.754C12.5632 133.618 28.752 95.7705 61.9888 62.2154C95.2255 28.6603 132.918 12.1106 146.178 25.243C159.44 38.3786 143.248 76.2265 110.012 109.782Z" stroke="#FFCF77" stroke-miterlimit="10"/>
<path d="M102.916 115.259C62.0306 138.897 21.3114 144.964 11.9704 128.805C2.62624 112.646 28.195 80.3826 69.0803 56.7443C109.966 33.1027 150.685 27.0394 160.026 43.1986C169.37 59.3577 143.798 91.6208 102.916 115.259Z" stroke="#FFCF77" stroke-miterlimit="10"/>
<path d="M94.9849 118.579C49.4552 131.132 8.52437 126.722 3.56424 108.727C-1.39589 90.7321 31.4894 65.9677 77.0158 53.4146C122.546 40.8616 163.476 45.2716 168.437 63.2664C173.397 81.2611 140.511 106.022 94.9849 118.579Z" stroke="#FFCF77" stroke-miterlimit="10"/>
<path d="M85.7839 119.796C38.5585 119.497 0.371382 104.122 0.48855 85.4566C0.608973 66.7913 38.9881 51.9047 86.2135 52.2041C133.442 52.5036 171.629 67.8784 171.509 86.5436C171.392 105.209 133.009 120.095 85.7839 119.796Z" stroke="#FFCF77" stroke-miterlimit="10"/>
<path d="M115.336 102.781C91.8864 143.776 59.7432 169.494 43.5414 160.228C27.3396 150.959 33.2143 110.214 56.6643 69.2225C80.1142 28.2241 112.257 2.50609 128.459 11.772C144.661 21.0411 138.786 61.7857 115.34 102.778L115.336 102.781Z" stroke="#FFCF77" stroke-miterlimit="10"/>
<path d="M53.308 94.576C65.2917 140.258 89.6432 173.452 107.697 168.713C125.751 163.977 130.675 123.106 118.691 77.4242C106.708 31.7424 82.356 -1.44822 64.3023 3.28725C46.2486 8.02272 41.3243 48.8942 53.308 94.576Z" stroke="#FFCF77" stroke-miterlimit="10"/>
<path d="M61.9881 109.782C95.2249 143.337 132.917 159.887 146.177 146.754C159.436 133.619 143.248 95.7706 110.011 62.2155C76.7774 28.6636 39.085 12.1107 25.8221 25.2463C12.5593 38.3819 28.7514 76.2299 61.9881 109.785V109.782Z" stroke="#FFCF77" stroke-miterlimit="10"/>
<path d="M69.0801 115.259C109.965 138.897 150.685 144.964 160.026 128.805C169.37 112.645 143.798 80.3823 102.916 56.744C62.0305 33.1025 21.3144 27.0359 11.9703 43.1951C2.62608 59.3542 28.1981 91.6173 69.0801 115.256V115.259Z" stroke="#FFCF77" stroke-miterlimit="10"/>
<path d="M77.0158 118.579C122.546 131.132 163.473 126.722 168.437 108.727C173.397 90.732 140.511 65.9676 94.9849 53.4146C49.4552 40.8648 8.52437 45.2748 3.56424 63.2696C-1.39589 81.2643 31.4894 106.029 77.0158 118.582V118.579Z" stroke="#FFCF77" stroke-miterlimit="10"/>
<path d="M56.6644 102.781C80.1144 143.776 112.258 169.494 128.459 160.228C144.661 150.959 138.786 110.214 115.337 69.2225C91.8866 28.2241 59.7434 2.50609 43.5416 11.772C27.3398 21.0411 33.2145 61.7857 56.6612 102.778L56.6644 102.781Z" stroke="#FFCF77" stroke-miterlimit="10"/>
</g>
<defs>
<clipPath id="clip0_47_450">
<rect width="172" height="172" fill="white"/>
</clipPath>
</defs>
</svg>
