<svg width="60" height="44" viewBox="0 0 60 44" fill="none" xmlns="http://www.w3.org/2000/svg">
<g clip-path="url(#clip0_39_34)">
<path fill-rule="evenodd" clip-rule="evenodd" d="M21.0656 0.933594C22.7952 0.933594 24.4747 1.14279 26.082 1.53467L26.1114 1.54204L26.1409 1.5494L26.1689 1.55677L26.1954 1.56266H26.1969L26.2543 1.57739L26.2823 1.58476L26.328 1.59654L26.3398 1.59949L26.3678 1.60686L26.3958 1.61422L26.4237 1.62159L26.4517 1.62896H26.4576L26.4797 1.63632L26.5077 1.64369L26.6212 1.67463L26.6492 1.68199L26.6771 1.68936L26.7051 1.69672L26.7199 1.70114L26.7346 1.70556L26.7626 1.7144L26.7906 1.72177L26.904 1.75418L26.932 1.76155L26.96 1.77039L26.9821 1.77628H26.988L27.016 1.78659L27.044 1.79543L27.072 1.80427L27.1 1.81311L27.2694 1.86467L27.2974 1.87351L27.3254 1.88235L27.3534 1.89119L27.3725 1.89708L27.3813 1.90003L27.4093 1.90887L27.4373 1.91771L27.4653 1.92655L27.5213 1.94423L27.5493 1.95306L27.5773 1.9619L27.6053 1.97074L27.6318 1.97958L27.6598 1.9899L27.6878 1.99873L27.7158 2.00757L27.7438 2.01641L27.76 2.02231L27.7983 2.03557L27.8263 2.04588L27.8542 2.05472L27.8822 2.06503C28.4848 2.27128 29.0756 2.50552 29.6501 2.76039L29.656 2.76334L29.6604 2.76628L29.6663 2.76923L29.6722 2.77218H29.6766L29.6825 2.7766L29.6884 2.77954L29.6943 2.78249L29.6987 2.78544L29.7046 2.78838L29.7105 2.79133L29.7149 2.79428L29.7208 2.79722L29.7267 2.80017H29.7326L29.7385 2.80459L29.7429 2.80753L29.7488 2.81048H29.7547L29.7606 2.8149L29.765 2.81785L29.7709 2.82079L29.7768 2.82374H29.7827L29.7886 2.82816L29.793 2.83111L29.7989 2.83405L29.8048 2.837L29.8092 2.83995L29.8151 2.84289L29.821 2.84584H29.8254L29.8313 2.85026L29.8357 2.8532L29.8416 2.85615L29.8475 2.8591L29.8519 2.86204L29.8578 2.86499L29.8637 2.86794H29.8696V2.86941L29.874 2.87236L29.8785 2.8753L29.8844 2.87825L29.8888 2.8812H29.8947L29.9006 2.88562L29.905 2.88856L29.9109 2.89151L29.9153 2.89446L29.9212 2.8974L29.9271 2.90035L29.9315 2.90329L29.9374 2.90624L29.9418 2.90919H29.9477L29.9521 2.91361L29.958 2.91655L29.9639 2.9195L29.9698 2.92245L29.9757 2.92539L29.9801 2.92834L29.986 2.93129L29.9919 2.93423H29.9978H30.0037L30.0096 2.93129L30.0155 2.92834L30.0199 2.92539L30.0258 2.92245L30.0317 2.9195L30.0376 2.91655L30.0435 2.91361L30.0479 2.91066H30.0538L30.0582 2.90624L30.0641 2.90329L30.0685 2.90035L30.0744 2.8974L30.0803 2.89446L30.0847 2.89151L30.0906 2.88856L30.095 2.88562L30.1009 2.88267H30.1068L30.1112 2.87825L30.1171 2.8753L30.1215 2.87236L30.126 2.86941H30.1319L30.1363 2.86499L30.1422 2.86204L30.1466 2.8591L30.1525 2.85615L30.1584 2.8532L30.1628 2.85026L30.1687 2.84731H30.1731L30.179 2.84289L30.1849 2.83995L30.1893 2.837L30.1952 2.83405L30.2011 2.83111L30.2055 2.82816L30.2114 2.82521H30.2173L30.2232 2.82079L30.2291 2.81785L30.2335 2.8149L30.2394 2.81195H30.2453L30.2497 2.80753L30.2541 2.80459L30.26 2.80164H30.2659L30.2718 2.79722L30.2777 2.79428L30.2836 2.79133L30.2895 2.78838L30.2954 2.78544L30.2998 2.78249L30.3057 2.77954L30.3116 2.7766L30.3175 2.77365H30.3219L30.3278 2.76923L30.3337 2.76628L30.3381 2.76334L30.344 2.76039C32.9663 1.57739 35.8715 0.933594 38.9344 0.933594C44.7521 0.933594 50.0189 3.29223 53.8301 7.10346C57.6428 10.9162 60 16.1829 60 21.9992C60 27.8155 57.6428 33.0838 53.8301 36.895C50.0189 40.7077 44.7507 43.0649 38.9344 43.0649C37.2048 43.0649 35.5253 42.8557 33.9166 42.4638L33.8886 42.4564L33.8591 42.449L33.8311 42.4417L33.8061 42.4358H33.8031L33.7751 42.427L33.7471 42.4196L33.7192 42.4122L33.6912 42.4049L33.675 42.4019L33.6617 42.399L33.6322 42.3916L33.6042 42.3842L33.5763 42.3769L33.5483 42.3695H33.5438L33.5203 42.3621L33.4923 42.3548L33.4643 42.3474L33.4363 42.34L33.4127 42.3341H33.4083L33.3803 42.3253L33.3523 42.3179L33.3243 42.3106L33.2963 42.3032L33.2831 42.3003L33.2683 42.2958L33.2404 42.287L33.2124 42.2796L33.1844 42.2708L33.1564 42.2634H33.1534L33.1284 42.2561L33.1004 42.2472L33.0724 42.2384L33.0444 42.2295L33.0238 42.2236L33.0164 42.2207L32.9884 42.2119L32.9604 42.203L32.9325 42.1942L32.9045 42.1853L32.8941 42.1824L32.8765 42.1765L32.8485 42.1677L32.8205 42.1588L32.7925 42.15L32.7645 42.1411L32.7365 42.1323L32.7085 42.1235L32.6805 42.1146L32.6525 42.1058L32.6334 42.0999L32.6231 42.097L32.5951 42.0881L32.5671 42.0793L32.5391 42.0704L32.5111 42.0616L32.5037 42.0586L32.4831 42.0527L32.4551 42.0439L32.4271 42.0351L32.3991 42.0262L32.3726 42.0189H32.3712L32.3432 42.0086L32.3152 41.9997L32.2872 41.9909L32.2592 41.982L32.243 41.9761L32.2312 41.9717L32.2032 41.9629L32.1752 41.9526L32.1472 41.9437L32.1192 41.9349C31.5167 41.7286 30.9274 41.4959 30.3514 41.2381L30.3455 41.2351L30.3411 41.2322L30.3352 41.2292H30.3293L30.3248 41.2248L30.319 41.2219L30.3131 41.2189L30.3072 41.216L30.3027 41.213H30.2969L30.291 41.2086H30.2851L30.2792 41.2042L30.2733 41.2012L30.2674 41.1983L30.2615 41.1953L30.2571 41.1924L30.2527 41.1894L30.2468 41.1865L30.2409 41.1835L30.2365 41.1806L30.2306 41.1777L30.2247 41.1747H30.2188L30.2129 41.1703L30.2085 41.1673L30.2026 41.1644L30.1967 41.1615L30.1923 41.1585L30.1864 41.1556L30.1805 41.1526L30.1761 41.1497L30.1702 41.1467H30.1657L30.1598 41.1423L30.154 41.1394L30.1495 41.1364L30.1436 41.1335L30.1392 41.1305L30.1333 41.1276H30.1274L30.123 41.1231L30.1171 41.1202L30.1127 41.1173H30.1068L30.1009 41.1128L30.0965 41.1099L30.0906 41.1069L30.0862 41.104L30.0803 41.1011L30.0744 41.0981L30.07 41.0952L30.0641 41.0922L30.0597 41.0893L30.0538 41.0863L30.0494 41.0834L30.0435 41.0804L30.0376 41.0775L30.0317 41.0745L30.0258 41.0716L30.0214 41.0686H30.0155L30.0096 41.0642L30.0037 41.0613L29.9978 41.0642L29.9919 41.0672H29.986L29.9816 41.0716L29.9757 41.0745L29.9698 41.0775L29.9639 41.0804L29.958 41.0834L29.9536 41.0863L29.9477 41.0893L29.9433 41.0922L29.9374 41.0952L29.933 41.0981L29.9271 41.1011L29.9212 41.104L29.9168 41.1069L29.9109 41.1099L29.9065 41.1128L29.9006 41.1158H29.8947L29.8902 41.1202L29.8844 41.1231L29.8799 41.1261H29.8755V41.1276L29.8696 41.1305L29.8637 41.1335L29.8578 41.1364L29.8534 41.1394L29.8475 41.1423L29.8416 41.1452H29.8372L29.8313 41.1497L29.8269 41.1526L29.821 41.1556L29.8151 41.1585L29.8107 41.1615L29.8048 41.1644L29.7989 41.1673L29.7945 41.1703L29.7886 41.1732H29.7827L29.7768 41.1777L29.7709 41.1806L29.7665 41.1835L29.7606 41.1865L29.7547 41.1894L29.7488 41.1924L29.7444 41.1953L29.7385 41.1983L29.7326 41.2012L29.7267 41.2042L29.7208 41.2071H29.7164L29.7105 41.2115H29.7046L29.7002 41.216L29.6943 41.2189L29.6884 41.2219L29.6825 41.2248L29.6781 41.2277H29.6722L29.6663 41.2322L29.6619 41.2351L29.656 41.2381C27.0307 42.4211 24.1255 43.0649 21.0627 43.0649C15.2449 43.0649 9.97815 40.7062 6.16692 36.895C2.35863 33.0838 0 27.817 0 21.9992C0 16.1815 2.35863 10.9147 6.16986 7.10346C9.98257 3.29075 15.2493 0.933594 21.0656 0.933594ZM19.6499 23.7347H23.4832C23.4493 23.1616 23.4316 22.5826 23.4316 21.9992C23.4316 21.4158 23.4493 20.8383 23.4832 20.2638H19.6499C19.5983 20.8354 19.5733 21.4144 19.5733 21.9992C19.5733 22.5841 19.5998 23.1631 19.6499 23.7347ZM24.1668 23.7347H29.659V20.2652H24.1668C24.1329 20.8383 24.1152 21.4173 24.1152 22.0007C24.1152 22.5841 24.1329 23.1631 24.1668 23.7362V23.7347ZM30.3411 23.7347H35.8332C35.8671 23.1616 35.8848 22.5841 35.8848 21.9992C35.8848 21.4144 35.8671 20.8369 35.8332 20.2638H30.3411V23.7332V23.7347ZM36.5168 23.7347H40.3501C40.4017 23.1631 40.4267 22.5841 40.4267 21.9992C40.4267 21.4144 40.4002 20.8354 40.3501 20.2638H36.5168C36.5507 20.8369 36.5684 21.4158 36.5684 21.9992C36.5684 22.5826 36.5507 23.1616 36.5168 23.7347ZM40.2779 24.4168H36.4682C36.3518 25.8222 36.1352 27.1923 35.8288 28.5182H39.3027C39.7697 27.21 40.1012 25.8384 40.2779 24.4168ZM35.7846 24.4168H30.3411V28.5182H35.1276C35.4428 27.1953 35.6653 25.8237 35.7831 24.4168H35.7846ZM29.659 24.4168H24.2154C24.3332 25.8237 24.5557 27.1938 24.871 28.5182H29.659V24.4168ZM23.5318 24.4168H19.7221C19.8988 25.837 20.2303 27.21 20.6973 28.5182H24.1712C23.8648 27.1938 23.6482 25.8222 23.5318 24.4168ZM39.0449 29.2003H35.6623C35.2852 30.6603 34.7946 32.0628 34.2053 33.3902H36.7245C37.6615 32.1041 38.4438 30.6986 39.0449 29.2003ZM34.9581 29.2003H30.3425V33.3902H33.4584C34.0654 32.0658 34.5692 30.6633 34.9581 29.2003ZM29.6604 29.2003H25.0448C25.4337 30.6633 25.9376 32.0658 26.5446 33.3902H29.6604V29.2003ZM24.3391 29.2003H20.9566C21.5577 30.6986 22.34 32.1055 23.2769 33.3902H25.7962C25.2069 32.0613 24.7163 30.6603 24.3391 29.2003ZM36.203 34.0723H33.8915C33.121 35.6811 32.2017 37.1749 31.1557 38.5273C32.4669 37.7259 33.6764 36.7712 34.7578 35.6899C35.269 35.1787 35.7522 34.638 36.2045 34.0723H36.203ZM33.1328 34.0723H30.3425V38.4566C31.4077 37.1337 32.3461 35.6634 33.1328 34.0723ZM29.6604 34.0723H26.8687C27.6554 35.6634 28.5953 37.1351 29.6604 38.4566V34.0723ZM26.1114 34.0723H23.7999C24.2522 34.638 24.734 35.1787 25.2452 35.6899C26.3265 36.7712 27.5346 37.7244 28.8472 38.5273C27.8012 37.1764 26.8819 35.6811 26.1114 34.0723ZM19.725 19.5831H23.5333C23.6497 18.1777 23.8648 16.8076 24.1727 15.4817H20.7003C20.2333 16.7899 19.9018 18.1615 19.725 19.5831ZM24.2183 19.5831H29.6619V15.4817H24.8739C24.5586 16.8046 24.3377 18.1762 24.2183 19.5831ZM30.344 19.5831H35.7876C35.6682 18.1762 35.4472 16.8046 35.132 15.4817H30.3455V19.5831H30.344ZM36.4711 19.5831H40.2809C40.1041 18.163 39.7726 16.7899 39.3056 15.4817H35.8318C36.1397 16.8061 36.3562 18.1777 36.4711 19.5831ZM20.9581 14.7996H24.3406C24.7178 13.3396 25.2083 11.9371 25.7976 10.6097H23.2784C22.3414 11.8959 21.5592 13.3013 20.9581 14.7996ZM25.0448 14.7996H29.6604V10.6083H26.5446C25.9376 11.9327 25.4337 13.3352 25.0448 14.7996ZM30.3425 14.7996H34.9581C34.5692 13.3352 34.0654 11.9342 33.4584 10.6097H30.3425V14.7996ZM35.6623 14.7996H39.0449C38.4438 13.3013 37.6615 11.8944 36.7245 10.6097H34.2053C34.7946 11.9386 35.2852 13.3396 35.6623 14.7996ZM23.7985 9.92615H26.11C26.8804 8.31592 27.8012 6.82207 28.8472 5.46965C27.5346 6.27109 26.325 7.22573 25.2437 8.30855C24.7325 8.81976 24.2493 9.36044 23.7985 9.92615ZM26.8687 9.92615H29.6604V5.54184C28.5953 6.86479 27.6568 8.33507 26.8687 9.92615ZM30.3425 9.92615H33.1328C32.3446 8.33507 31.4077 6.86479 30.3425 5.54184V9.92615ZM33.8915 9.92615H36.2045C35.7522 9.36044 35.2705 8.81976 34.7578 8.30855C33.6764 7.22573 32.4669 6.27256 31.1543 5.46965C32.2003 6.82207 33.121 8.31592 33.8915 9.92615ZM31.9292 3.94486C33.4009 4.83174 34.7548 5.89394 35.9643 7.10198C39.7771 10.9147 42.1342 16.1815 42.1342 21.9978C42.1342 27.814 39.7756 33.0823 35.9643 36.8935C34.7563 38.1016 33.4024 39.1638 31.9292 40.0506C34.1022 40.8948 36.4652 41.3574 38.9358 41.3574C44.2822 41.3574 49.1217 39.1903 52.6265 35.687C56.1298 32.1836 58.297 27.3426 58.297 21.9963C58.297 16.6499 56.1298 11.8089 52.6265 8.30561C49.1232 4.80228 44.2822 2.63517 38.9358 2.63517C36.4652 2.63517 34.1022 3.09776 31.9292 3.94192V3.94486ZM28.0738 40.0521C26.602 39.1652 25.2466 38.103 24.0386 36.895C20.2259 33.0823 17.8687 27.817 17.8687 21.9992C17.8687 16.1815 20.2259 10.9147 24.0386 7.10346C25.2466 5.89541 26.602 4.83322 28.0738 3.94634C25.9008 3.10218 23.5377 2.63959 21.0671 2.63959C15.7208 2.63959 10.8798 4.8067 7.37643 8.31003C3.87311 11.8134 1.70599 16.6544 1.70599 22.0007C1.70599 27.347 3.87311 32.188 7.37643 35.6914C10.8798 39.1947 15.7208 41.3618 21.0671 41.3618C23.5377 41.3618 25.9008 40.8992 28.0738 40.0551V40.0521Z" fill="#464646"/>
</g>
<defs>
<clipPath id="clip0_39_34">
<rect width="60" height="42.1327" fill="white" transform="translate(0 0.933594)"/>
</clipPath>
</defs>
</svg>
