<svg width="60" height="60" viewBox="0 0 60 60" fill="none" xmlns="http://www.w3.org/2000/svg">
<path d="M29.8311 25.1064C30.6005 25.1064 31.3528 24.8783 31.9926 24.4508C32.6324 24.0233 33.1311 23.4156 33.4255 22.7047C33.72 21.9938 33.797 21.2115 33.6469 20.4568C33.4968 19.7021 33.1263 19.0088 32.5821 18.4647C32.038 17.9206 31.3448 17.5501 30.5901 17.4C29.8354 17.2498 29.0531 17.3269 28.3422 17.6214C27.6313 17.9158 27.0236 18.4145 26.5961 19.0543C26.1686 19.6941 25.9404 20.4463 25.9404 21.2158C25.9404 22.2477 26.3503 23.2373 27.08 23.9669C27.8096 24.6965 28.7992 25.1064 29.8311 25.1064ZM29.8311 19.2002C30.2297 19.2002 30.6194 19.3184 30.9509 19.5399C31.2823 19.7614 31.5407 20.0762 31.6932 20.4445C31.8458 20.8128 31.8857 21.2181 31.808 21.6091C31.7302 22 31.5382 22.3592 31.2563 22.6411C30.9744 22.923 30.6153 23.1149 30.2243 23.1927C29.8333 23.2705 29.428 23.2306 29.0597 23.078C28.6914 22.9255 28.3766 22.6671 28.1551 22.3356C27.9336 22.0042 27.8154 21.6145 27.8154 21.2158C27.8154 20.6812 28.0278 20.1686 28.4058 19.7906C28.7838 19.4126 29.2965 19.2002 29.8311 19.2002Z" fill="#464646"/>
<path d="M29.8313 28.5097C31.8807 28.5005 33.8657 27.7921 35.4579 26.5017C37.0501 25.2112 38.1541 23.4159 38.5875 21.4128C38.6154 21.283 38.6154 21.1488 38.5875 21.0191C38.1644 19.0114 37.0639 17.2102 35.4705 15.9175C33.8771 14.6249 31.8877 13.9194 29.8359 13.9194C27.7842 13.9194 25.7948 14.6249 24.2014 15.9175C22.608 17.2102 21.5074 19.0114 21.0844 21.0191C21.0565 21.1488 21.0565 21.283 21.0844 21.4128C21.5158 23.4152 22.6181 25.2102 24.2087 26.5008C25.7993 27.7914 27.7829 28.5001 29.8313 28.5097ZM29.8313 15.7972C34.8938 15.7972 36.3938 20.2034 36.7031 21.2159C36.4219 22.2378 34.9219 26.6347 29.8313 26.6347C24.7406 26.6347 23.2688 22.2191 22.9688 21.2159C23.3374 19.673 24.215 18.2992 25.46 17.3162C26.7051 16.3331 28.2449 15.798 29.8313 15.7972Z" fill="#464646"/>
<path d="M19.9782 53.4376C21.3142 53.444 22.644 53.2545 23.925 52.8751C29.3344 51.1783 30.3282 51.1783 35.7375 52.8751C37.0198 53.2635 38.3541 53.4532 39.6938 53.4376C45.375 53.4376 47.8032 50.3439 48.8438 47.747C49.725 45.5533 48.5907 43.772 47.2875 41.7095C46.35 40.2939 43.8188 35.2126 43.8188 30.5814V20.5501C43.8138 19.9227 43.7668 19.2963 43.6782 18.6751L45.1125 17.3626C45.8306 16.7082 46.3542 15.8682 46.6255 14.9353C46.8967 14.0023 46.9052 13.0126 46.65 12.0751L46.125 10.1439C46.0284 9.73535 45.8037 9.36839 45.4838 9.09658C45.1639 8.82477 44.7654 8.66235 44.3466 8.63304C43.9278 8.60372 43.5106 8.70904 43.1559 8.93363C42.8012 9.15821 42.5276 9.49029 42.375 9.88139C42.1988 10.2867 41.9296 10.6447 41.5892 10.9265C41.2488 11.2083 40.8467 11.4059 40.4157 11.5033C39.107 9.96363 37.4792 8.7269 35.6451 7.87875C33.811 7.0306 31.8145 6.59131 29.7938 6.59131C27.7731 6.59131 25.7766 7.0306 23.9425 7.87875C22.1084 8.7269 20.4806 9.96363 19.1719 11.5033C18.7409 11.4059 18.3388 11.2083 17.9984 10.9265C17.658 10.6447 17.3887 10.2867 17.2125 9.88139C17.0542 9.50339 16.7813 9.18456 16.4322 8.96976C16.0832 8.75497 15.6756 8.65503 15.2668 8.68401C14.858 8.71299 14.4686 8.86943 14.1533 9.13131C13.8381 9.39319 13.6129 9.74733 13.5094 10.1439L12.9844 12.0751C12.727 13.0125 12.7345 14.0028 13.0059 14.9362C13.2773 15.8696 13.802 16.7095 14.5219 17.3626L15.9563 18.6751C15.8645 19.2961 15.8144 19.9225 15.8063 20.5501V30.5814C15.8063 36.6283 14.2782 39.3564 12.9938 40.5845C12.1991 41.368 11.5974 42.3255 11.2362 43.3814C10.875 44.4374 10.7642 45.5628 10.9125 46.6689C11.6532 49.8189 13.3219 53.4376 19.9782 53.4376ZM47.1094 47.0439C45.9375 50.0439 43.4157 51.5626 39.6938 51.5626C38.5448 51.5775 37.4002 51.4163 36.3 51.0845C34.2278 50.2911 32.0462 49.82 29.8313 49.6876C29.2632 49.6905 28.6961 49.7343 28.1344 49.8189C29.7586 48.3287 30.8625 46.3573 31.2844 44.1939C31.5834 42.8154 32.2727 41.552 33.2702 40.5546C34.2676 39.5572 35.5309 38.8679 36.9094 38.5689C40.4813 37.7251 43.725 39.5064 45.7313 42.6564C47.0719 44.8689 47.5782 45.8626 47.1094 47.0439ZM44.1375 10.5939C44.1437 10.5751 44.1556 10.5588 44.1716 10.5472C44.1876 10.5356 44.2069 10.5294 44.2266 10.5294C44.2463 10.5294 44.2656 10.5356 44.2816 10.5472C44.2976 10.5588 44.3095 10.5751 44.3157 10.5939L44.8407 12.5251C45.0067 13.1302 45.0017 13.7695 44.8262 14.3719C44.6508 14.9743 44.3118 15.5163 43.8469 15.9376L43.2188 16.5095C42.8537 15.2869 42.3171 14.1222 41.625 13.0501C42.7493 12.5881 43.6502 11.7074 44.1375 10.5939ZM15.825 15.9376C15.3584 15.5176 15.0181 14.9757 14.8426 14.3728C14.667 13.77 14.6631 13.1301 14.8313 12.5251L15.3563 10.5939C15.3563 10.5715 15.3652 10.5501 15.381 10.5342C15.3968 10.5184 15.4183 10.5095 15.4407 10.5095C15.463 10.5095 15.4845 10.5184 15.5003 10.5342C15.5161 10.5501 15.525 10.5715 15.525 10.5939C16.0104 11.711 16.9115 12.5953 18.0375 13.0595C17.3529 14.1356 16.8168 15.2992 16.4438 16.5189L15.825 15.9376ZM14.325 41.9345C16.575 39.7876 17.7188 35.9626 17.7188 30.572V20.5501C17.7188 17.3377 18.9949 14.2568 21.2665 11.9853C23.538 9.71378 26.6189 8.43764 29.8313 8.43764C33.0437 8.43764 36.1246 9.71378 38.3961 11.9853C40.6677 14.2568 41.9438 17.3377 41.9438 20.5501V30.5814C42.0102 33.0815 42.5048 35.5517 43.4063 37.8845C41.3184 36.6276 38.8205 36.2404 36.45 36.8064C34.7289 37.1881 33.1537 38.0564 31.9121 39.308C30.6705 40.5596 29.8148 42.1416 29.4469 43.8658C28.3594 49.4345 22.2375 51.2533 21.3844 51.4783C20.9179 51.5355 20.4482 51.5637 19.9782 51.5626C14.4282 51.5626 13.4157 48.9376 12.7782 46.2564C12.7041 45.4681 12.8043 44.6732 13.0716 43.928C13.3389 43.1827 13.7668 42.5054 14.325 41.9439V41.9345Z" fill="#464646"/>
<path d="M35.5125 28.9221C33.7946 29.9479 31.8321 30.4919 29.8312 30.4971C27.8322 30.5001 25.8706 29.9554 24.1594 28.9221C23.9467 28.7945 23.6921 28.7564 23.4513 28.8162C23.2106 28.8759 23.0034 29.0286 22.875 29.2409C22.8104 29.3466 22.7673 29.464 22.7483 29.5865C22.7294 29.7089 22.7349 29.8339 22.7645 29.9542C22.7942 30.0745 22.8474 30.1878 22.921 30.2874C22.9947 30.387 23.0874 30.471 23.1937 30.5346C25.1991 31.7367 27.4932 32.3717 29.8312 32.3717C32.1693 32.3717 34.4634 31.7367 36.4687 30.5346C36.5759 30.4718 36.6694 30.3883 36.744 30.2891C36.8186 30.1898 36.8728 30.0767 36.9033 29.9563C36.9338 29.836 36.9401 29.7107 36.9219 29.5879C36.9036 29.4651 36.8611 29.3471 36.7969 29.2409C36.6685 29.0286 36.4612 28.8759 36.2205 28.8162C35.9798 28.7564 35.7252 28.7945 35.5125 28.9221Z" fill="#464646"/>
<path d="M24.1593 14.0625C25.8745 13.0348 27.8364 12.4919 29.8359 12.4919C31.8354 12.4919 33.7973 13.0348 35.5125 14.0625C35.7239 14.1581 35.9634 14.1718 36.1844 14.101C36.4054 14.0303 36.5924 13.88 36.709 13.6794C36.8257 13.4788 36.8638 13.242 36.8159 13.0149C36.768 12.7878 36.6377 12.5865 36.45 12.45C34.437 11.27 32.1458 10.6479 29.8125 10.6479C27.4791 10.6479 25.1879 11.27 23.175 12.45C23.051 12.5011 22.9395 12.5781 22.8479 12.676C22.7563 12.7738 22.6867 12.8901 22.6439 13.0171C22.6011 13.1441 22.586 13.2788 22.5996 13.4121C22.6132 13.5455 22.6553 13.6743 22.7229 13.79C22.7906 13.9057 22.8823 14.0055 22.9918 14.0828C23.1013 14.1601 23.2261 14.2129 23.3578 14.2379C23.4895 14.2628 23.625 14.2592 23.7552 14.2274C23.8854 14.1955 24.0072 14.1361 24.1125 14.0531L24.1593 14.0625Z" fill="#464646"/>
</svg>
