<svg width="57" height="64" viewBox="0 0 57 64" fill="none" xmlns="http://www.w3.org/2000/svg">
<mask id="mask0_13_157" style="mask-type:alpha" maskUnits="userSpaceOnUse" x="5" y="4" width="47" height="45">
<path fill-rule="evenodd" clip-rule="evenodd" d="M5.78906 4.45312H51.8789V43.6406H46.6129C46.6351 43.8231 46.6465 44.0088 46.6465 44.1973C46.6465 46.7181 44.6029 48.7617 42.082 48.7617C39.5611 48.7617 37.5176 46.7181 37.5176 44.1973C37.5176 44.0088 37.529 43.8231 37.5512 43.6406H18.3355C18.3577 43.8231 18.3691 44.0088 18.3691 44.1973C18.3691 46.7181 16.3256 48.7617 13.8047 48.7617C11.2838 48.7617 9.24023 46.7181 9.24023 44.1973C9.24023 44.0088 9.25165 43.8231 9.27383 43.6406H5.78906V4.45312Z" fill="#D9D9D9"/>
</mask>
<g mask="url(#mask0_13_157)">
<path d="M47.9179 21.856C48.8086 20.588 50.2725 17.5888 47.9179 13.8259C47.4433 13.0446 46.793 12.3848 46.0187 11.8988C45.8483 11.0082 45.1793 8.86405 42.5207 7.01043C39.9669 5.23252 36.2396 5.51418 35.5627 5.58432C34.9827 5.39956 34.3815 5.28957 33.7737 5.25701C31.8622 5.16684 30.3926 5.69008 29.345 6.82117C29 7.20748 28.7151 7.64359 28.5001 8.11481C28.285 7.64332 27.9998 7.20716 27.654 6.82117C26.6075 5.69008 25.109 5.16684 23.2276 5.25701C22.6198 5.29012 22.0187 5.4001 21.4385 5.58432C20.765 5.51418 17.0333 5.23252 14.4727 7.01377C11.812 8.8685 11.1429 11.0216 10.9737 11.9033C10.2022 12.3901 9.55429 13.0494 9.0811 13.8293C6.72874 17.5922 8.19716 20.5914 9.0811 21.8605C7.99565 22.789 5.97727 24.9643 6.51388 27.9457C6.87903 29.9719 8.05466 31.5293 9.70677 32.2452C10.2924 32.7206 13.4619 34.985 20.4366 35.054V40.6616H17.9651C17.7807 39.7642 17.2699 38.9672 16.5315 38.425C15.7931 37.8827 14.8798 37.6338 13.9684 37.7265C13.057 37.8191 12.2124 38.2467 11.5983 38.9265C10.9841 39.6062 10.6441 40.4897 10.6441 41.4058C10.6441 42.3219 10.9841 43.2054 11.5983 43.8852C12.2124 44.5649 13.057 44.9925 13.9684 45.0852C14.8798 45.1778 15.7931 44.9289 16.5315 44.3867C17.2699 43.8444 17.7807 43.0474 17.9651 42.15H21.1836C21.2819 42.1506 21.3794 42.1317 21.4703 42.0944C21.5613 42.0571 21.6439 42.0021 21.7135 41.9326C21.7831 41.8632 21.8382 41.7806 21.8756 41.6897C21.9131 41.5988 21.9322 41.5013 21.9317 41.403V35.0373H21.9629C21.9896 35.0373 22.0119 35.0228 22.0375 35.0195C22.2708 35.0609 22.5066 35.0877 22.7433 35.0996C25.2526 35.0996 26.7801 34.3404 27.7197 33.2226V44.4456C26.8245 44.6402 26.0334 45.16 25.4996 45.9044C24.9658 46.6489 24.7272 47.5649 24.8302 48.4752C24.9331 49.3854 25.3702 50.225 26.0567 50.8315C26.7433 51.4379 27.6305 51.7679 28.5465 51.7577C29.4625 51.7474 30.3421 51.3976 31.0149 50.7759C31.6877 50.1542 32.1058 49.305 32.1883 48.3927C32.2708 47.4803 32.0118 46.5699 31.4614 45.8376C30.9111 45.1053 30.1085 44.6033 29.2092 44.4289V33.1169C30.1399 34.2914 31.6796 35.0996 34.2646 35.0996C34.5021 35.0877 34.7386 35.0609 34.9727 35.0195C34.9983 35.0195 35.0206 35.0362 35.0473 35.0373H35.0684V41.403C35.0684 41.5008 35.0877 41.5976 35.1251 41.6879C35.1626 41.7782 35.2175 41.8602 35.2866 41.9293C35.3558 41.9984 35.4379 42.0531 35.5283 42.0904C35.6186 42.1277 35.7155 42.1468 35.8132 42.1467H39.0306C39.215 43.0441 39.7258 43.8411 40.4642 44.3833C41.2025 44.9256 42.1159 45.1745 43.0273 45.0818C43.9387 44.9892 44.7833 44.5616 45.3974 43.8818C46.0116 43.2021 46.3516 42.3186 46.3516 41.4025C46.3516 40.4864 46.0116 39.6029 45.3974 38.9231C44.7833 38.2434 43.9387 37.8158 43.0273 37.7231C42.1159 37.6305 41.2025 37.8794 40.4642 38.4216C39.7258 38.9639 39.215 39.7609 39.0306 40.6582H36.5613V35.0506C43.5316 34.9816 46.7011 32.7194 47.29 32.243C48.9433 31.5282 50.1178 29.9685 50.4829 27.9423C51.0218 24.961 49.0034 22.7856 47.9179 21.856ZM14.3425 43.6118C13.9053 43.612 13.4779 43.4826 13.1143 43.2398C12.7507 42.9971 12.4673 42.652 12.2999 42.2481C12.1325 41.8443 12.0887 41.3998 12.1739 40.9711C12.2591 40.5423 12.4696 40.1484 12.7787 39.8393C13.0879 39.5302 13.4817 39.3197 13.9105 39.2345C14.3393 39.1492 14.7837 39.1931 15.1875 39.3605C15.5914 39.5279 15.9365 39.8113 16.1793 40.1749C16.422 40.5385 16.5514 40.9659 16.5512 41.403C16.5503 41.9886 16.3173 42.5498 15.9033 42.9639C15.4893 43.3779 14.928 43.6109 14.3425 43.6118ZM42.6566 39.1932C43.0937 39.1929 43.521 39.3224 43.8846 39.5651C44.2481 39.8077 44.5316 40.1528 44.699 40.5566C44.8664 40.9604 44.9103 41.4047 44.8252 41.8335C44.7401 42.2622 44.5297 42.6561 44.2207 42.9652C43.9117 43.2744 43.5179 43.485 43.0892 43.5704C42.6605 43.6557 42.2161 43.612 41.8122 43.4448C41.4084 43.2776 41.0632 42.9943 40.8203 42.6309C40.5774 42.2674 40.4478 41.8401 40.4478 41.403C40.4481 40.8172 40.6809 40.2555 41.095 39.8411C41.5091 39.4268 42.0707 39.1938 42.6566 39.1932ZM44.2352 11.1841C42.5296 10.8034 40.7194 11.1285 39.3267 11.6294C39.359 10.4282 39.1831 8.64696 38.1021 7.25647C38.0442 7.18188 37.9674 7.12844 37.9062 7.0583C39.1052 7.15627 40.5558 7.45018 41.6735 8.22948C43.152 9.26371 43.8723 10.3659 44.2352 11.1841ZM15.3288 8.2317C16.4421 7.45241 17.8894 7.16295 19.094 7.06387C19.0327 7.13289 18.957 7.18522 18.9002 7.25981C17.8181 8.6503 17.6422 10.4304 17.6756 11.6317C16.284 11.1285 14.4727 10.8045 12.765 11.1864C13.1268 10.367 13.8471 9.26483 15.3288 8.2317ZM22.7388 33.6145C21.4118 33.6145 20.4856 33.1191 20.1315 32.2196C19.7886 31.3479 20.0436 30.2157 20.7249 29.58C21.3272 29.0233 22.1288 28.9554 23.0405 29.393C23.2186 29.4786 23.4233 29.49 23.6098 29.4246C23.7962 29.3593 23.9491 29.2225 24.0347 29.0445C24.1203 28.8665 24.1317 28.6617 24.0664 28.4752C24.001 28.2888 23.8643 28.136 23.6862 28.0503C23.2166 27.8299 22.7099 27.6992 22.1922 27.6651C22.4149 27.2703 22.5699 26.8409 22.6509 26.3949C22.6655 26.2982 22.661 26.1997 22.6375 26.1048C22.614 26.0099 22.5721 25.9206 22.5141 25.8419C22.4561 25.7633 22.3832 25.6968 22.2995 25.6463C22.2158 25.5958 22.123 25.5623 22.0263 25.5477C21.9297 25.5331 21.8311 25.5376 21.7363 25.5611C21.6414 25.5846 21.5521 25.6265 21.4734 25.6845C21.3947 25.7425 21.3282 25.8154 21.2778 25.8991C21.2273 25.9828 21.1938 26.0756 21.1791 26.1722C21.0578 26.9727 20.1772 28.0336 19.8521 28.3754C19.8454 28.3832 19.8432 28.3932 19.8354 28.4021C19.7964 28.4355 19.7486 28.4511 19.7096 28.4867C18.5874 29.5299 18.1833 31.3278 18.7455 32.7617C18.8647 33.0354 19.0188 33.2925 19.2042 33.5266C16.5713 33.3841 14.6074 32.9042 13.227 32.4021C14.031 32.1351 14.7498 31.6595 15.3099 31.0239C15.4304 30.8749 15.4887 30.6852 15.4727 30.4943C15.4568 30.3034 15.3677 30.126 15.2242 29.9991C15.0807 29.8722 14.8937 29.8056 14.7023 29.8132C14.5108 29.8208 14.3297 29.9019 14.1966 30.0398C13.7788 30.5155 13.2341 30.8625 12.6262 31.0399C12.0184 31.2174 11.3726 31.218 10.7644 31.0417C9.33159 30.6432 8.29401 29.384 7.98118 27.6752C7.57372 25.4152 9.2481 23.674 10.0875 22.9593C10.525 23.34 11.2008 23.8577 11.9523 24.1461C12.0379 24.1788 12.1288 24.1957 12.2206 24.1962C12.3943 24.1958 12.5624 24.1348 12.6959 24.0236C12.8294 23.9124 12.9198 23.7581 12.9515 23.5873C12.9832 23.4165 12.9542 23.24 12.8695 23.0883C12.7848 22.9366 12.6498 22.8193 12.4877 22.7567C11.5593 22.4015 10.6876 21.4864 10.6764 21.4731C10.6653 21.4597 10.6675 21.4731 10.6642 21.4642C10.6624 21.4606 10.6601 21.4572 10.6575 21.4541C10.5462 21.3428 7.86317 18.583 10.3425 14.6153C12.7828 10.7099 17.9707 13.365 18.1922 13.4797C18.3169 13.545 18.4574 13.5735 18.5977 13.5622C18.7379 13.5508 18.8721 13.5 18.9846 13.4155C19.0971 13.3311 19.1835 13.2164 19.2335 13.085C19.2836 12.9535 19.2954 12.8105 19.2676 12.6726C19.2676 12.6447 18.7266 9.90608 20.0748 8.1727C20.7572 7.29655 21.8415 6.81672 23.3033 6.74436C24.7105 6.66643 25.8249 7.03826 26.563 7.82869C27.4981 8.83733 27.7208 10.3536 27.7486 11.3745C27.7313 11.4287 27.7201 11.4848 27.7152 11.5415C27.7152 12.8908 27.3389 13.8204 26.6275 14.2301C25.9907 14.5997 25.1458 14.5073 24.6748 14.2301C23.9434 13.807 23.5259 13.3572 23.468 12.9309C23.4068 12.4733 23.7697 12.0859 23.7887 12.067C23.9273 11.9282 24.0056 11.7404 24.0066 11.5443C24.0076 11.3482 23.9312 11.1596 23.794 11.0194C23.6568 10.8793 23.4699 10.7989 23.2738 10.7958C23.0777 10.7926 22.8883 10.867 22.7466 11.0027C22.6531 11.0939 21.8438 11.9189 21.9885 13.1034C22.0998 14.0263 22.7555 14.839 23.9289 15.5181C24.4627 15.8108 25.0625 15.9618 25.6712 15.9568C26.2675 15.9605 26.8543 15.8069 27.3723 15.5114C27.4916 15.442 27.6062 15.3646 27.7152 15.2799V22.3047C27.5515 22.1188 27.3763 21.9434 27.1909 21.7792C25.61 20.4155 23.3322 19.8377 20.3998 20.0648C19.4727 20.1228 18.5728 20.401 17.7747 20.8764C17.7347 20.8644 17.6937 20.8558 17.6523 20.8507C17.6333 20.8507 15.8087 20.8051 14.6687 18.9103C14.0653 17.9083 14.7021 16.4611 14.7076 16.4455C14.7621 16.2717 14.751 16.084 14.6764 15.9179C14.6019 15.7517 14.4691 15.6187 14.303 15.5438C14.137 15.469 13.9494 15.4575 13.7755 15.5117C13.6016 15.5658 13.4536 15.6818 13.3594 15.8376C13.3205 15.9256 12.3875 18.0097 13.3984 19.6874C14.0676 20.8365 15.1383 21.6974 16.4043 22.1043C15.1674 23.6629 14.8457 25.7525 14.918 27.1018C14.9288 27.2915 15.0117 27.47 15.1498 27.6006C15.2878 27.7311 15.4706 27.804 15.6606 27.8043H15.6973C15.795 27.799 15.8908 27.7745 15.979 27.7322C16.0672 27.6899 16.1462 27.6306 16.2115 27.5577C16.2767 27.4848 16.327 27.3997 16.3593 27.3073C16.3916 27.215 16.4054 27.1171 16.3998 27.0194C16.3876 26.8113 16.166 21.8983 20.519 21.5588C27.1886 21.0411 27.6918 25.374 27.7208 25.639V26.7689C27.7208 30.9014 27.369 33.6112 22.7388 33.6112V33.6145ZM30.7099 48.0582C30.7095 48.4952 30.5795 48.9222 30.3364 49.2854C30.0933 49.6485 29.748 49.9314 29.3442 50.0983C28.9404 50.2652 28.4961 50.3087 28.0676 50.2231C27.6391 50.1376 27.2455 49.927 26.9367 49.6178C26.6278 49.3087 26.4176 48.9149 26.3325 48.4863C26.2474 48.0577 26.2913 47.6135 26.4586 47.2098C26.626 46.8061 26.9092 46.4611 27.2726 46.2184C27.6359 45.9757 28.0631 45.8461 28.5001 45.8461C29.0858 45.8467 29.6474 46.0796 30.0616 46.4936C30.4759 46.9077 30.709 47.4692 30.7099 48.0549V48.0582ZM49.0178 27.6852C48.7106 29.393 47.6719 30.651 46.2402 31.0506C45.6318 31.2263 44.986 31.2254 44.3781 31.048C43.7702 30.8706 43.2253 30.524 42.8069 30.0487C42.6738 29.9108 42.4927 29.8297 42.3012 29.8221C42.1098 29.8145 41.9228 29.8811 41.7793 30.008C41.6357 30.1349 41.5467 30.3123 41.5308 30.5032C41.5148 30.6941 41.5731 30.8838 41.6936 31.0328C42.2542 31.6615 42.9702 32.1318 43.7698 32.3966C42.3883 32.8976 40.4244 33.3774 37.796 33.5199C37.9812 33.2864 38.135 33.0296 38.2535 32.7562C38.8168 31.3223 38.4127 29.5277 37.2894 28.4812C37.2516 28.4455 37.2037 28.43 37.1647 28.3966C37.1569 28.3877 37.1547 28.3776 37.1469 28.3698C36.8185 28.0281 35.9412 26.9671 35.821 26.1667C35.7892 25.9727 35.683 25.7987 35.525 25.6817C35.3671 25.5647 35.1698 25.5138 34.9749 25.5399C34.7796 25.5693 34.604 25.675 34.4866 25.8339C34.3693 25.9928 34.3199 26.1918 34.3493 26.3871C34.4298 26.8331 34.5845 27.2624 34.8068 27.6573C34.2894 27.6909 33.7829 27.8216 33.3139 28.0425C33.1351 28.1276 32.9974 28.2801 32.9312 28.4667C32.8649 28.6532 32.8754 28.8585 32.9604 29.0373C33.0455 29.216 33.198 29.3537 33.3846 29.42C33.5711 29.4863 33.7764 29.4758 33.9551 29.3907C34.8658 28.9532 35.6685 29.0167 36.2697 29.5778C36.9521 30.2101 37.207 31.3456 36.863 32.2173C36.5101 33.1169 35.5839 33.6123 34.2557 33.6123C29.6278 33.6123 29.2816 30.9026 29.2816 26.7701V25.6456C29.4375 24.5852 29.9698 23.6163 30.7812 22.9159C32.0503 21.8204 33.9618 21.3651 36.4745 21.5588C40.8085 21.8928 40.6048 26.8124 40.5936 27.0217C40.5839 27.2182 40.6525 27.4106 40.7844 27.5567C40.9163 27.7028 41.1007 27.7906 41.2972 27.801H41.3384C41.5283 27.8007 41.711 27.7278 41.8488 27.5971C41.9867 27.4665 42.0694 27.2881 42.0799 27.0985C42.1545 25.7492 41.8305 23.6573 40.5925 22.101C41.8586 21.6943 42.9294 20.8333 43.5984 19.684C44.6093 18.0063 43.6763 15.9222 43.6374 15.8343C43.5549 15.6553 43.4048 15.5163 43.22 15.4477C43.0352 15.3792 42.8307 15.3867 42.6514 15.4686C42.4722 15.5505 42.3326 15.7001 42.2635 15.8847C42.1943 16.0693 42.2012 16.2737 42.2825 16.4533C42.2892 16.4678 42.9237 17.9195 42.3226 18.9159C41.1959 20.7828 39.4091 20.8541 39.3379 20.8563C39.2959 20.8611 39.2545 20.8701 39.2143 20.883C38.4165 20.4068 37.5165 20.1282 36.5892 20.0703C33.6635 19.8421 31.3857 20.421 29.8048 21.7848C29.6183 21.949 29.4425 22.1249 29.2783 22.3114V15.2821C29.389 15.3676 29.505 15.446 29.6256 15.517C30.1436 15.8124 30.7304 15.966 31.3267 15.9623C31.9357 15.9672 32.5359 15.8162 33.0701 15.5237C34.2424 14.8446 34.8936 14.0319 35.0094 13.109C35.1542 11.9245 34.3415 11.1051 34.2513 11.0082C34.1096 10.8705 33.9189 10.7947 33.7213 10.7975C33.5237 10.8003 33.3353 10.8815 33.1976 11.0233C33.0598 11.165 32.984 11.3556 32.9868 11.5532C32.9897 11.7508 33.0709 11.9392 33.2126 12.077C33.2126 12.077 33.5867 12.4711 33.5299 12.9264C33.4775 13.3561 33.0601 13.8081 32.3242 14.2356C31.851 14.5084 31.0072 14.5997 30.3704 14.2356C29.659 13.8259 29.2827 12.8997 29.2827 11.5471C29.2782 11.4875 29.2662 11.4288 29.2471 11.3723C29.2783 10.3703 29.4953 8.84846 30.4383 7.83537C31.1731 7.04383 32.2863 6.672 33.6969 6.74992C35.153 6.82117 36.2363 7.30657 36.9165 8.1727C38.2624 9.89494 37.7359 12.6514 37.7303 12.6793C37.7032 12.817 37.7155 12.9596 37.7659 13.0906C37.8162 13.2217 37.9025 13.3359 38.0148 13.4201C38.1272 13.5043 38.261 13.555 38.4009 13.5666C38.5408 13.5781 38.6811 13.5499 38.8057 13.4853C39.0284 13.3739 44.2129 10.711 46.6555 14.6208C49.1336 18.5886 46.4551 21.3439 46.3415 21.4564C46.3415 21.4564 46.3415 21.4664 46.3326 21.4697C46.3237 21.4731 46.3248 21.4697 46.3215 21.4786C46.0799 21.7358 45.2861 22.465 44.5091 22.7645C44.347 22.8271 44.212 22.9444 44.1273 23.0961C44.0426 23.2478 44.0136 23.4243 44.0453 23.5951C44.077 23.7659 44.1674 23.9202 44.3009 24.0314C44.4344 24.1426 44.6025 24.2036 44.7762 24.2039C44.868 24.2035 44.9589 24.1866 45.0445 24.1539C45.7927 23.8655 46.4718 23.3478 46.9082 22.9671C47.7509 23.6763 49.4298 25.4174 49.0178 27.6785V27.6852Z" fill="#F7D28F"/>
</g>
<g clip-path="url(#clip0_13_157)">
<path d="M28.849 63.951V63.4667L28.8482 63.951C23.2908 63.951 18.7689 59.4294 18.7686 53.8717C18.7686 48.3141 23.2902 43.7925 28.8478 43.7925C34.4056 43.7925 38.9271 48.3141 38.9271 53.8717C38.9273 59.4294 34.4062 63.951 28.849 63.951ZM28.8478 44.7611C23.8243 44.7611 19.7372 48.8482 19.7372 53.8717C19.7376 58.8953 23.8249 62.9824 28.8482 62.9824H28.849C33.8722 62.9824 37.9585 58.8953 37.9585 53.8717C37.9587 48.8482 33.8716 44.7611 28.8478 44.7611Z" fill="#F7D28F"/>
<path d="M28.8487 59.6465C27.0174 59.6465 25.5273 58.2426 25.5273 56.5171C25.5273 56.2496 25.7441 56.0328 26.0116 56.0328C26.2792 56.0328 26.496 56.2496 26.496 56.5171C26.496 57.7085 27.5514 58.6779 28.8487 58.6779C30.146 58.6779 31.201 57.7085 31.201 56.5171C31.201 55.3257 30.1458 54.3564 28.8487 54.3564C27.0174 54.3564 25.5273 52.9525 25.5273 51.227C25.5273 49.5015 27.0174 48.0977 28.8487 48.0977C29.8321 48.0977 30.7588 48.5045 31.3915 49.2139C31.5695 49.4136 31.5518 49.7196 31.3523 49.8977C31.1528 50.0759 30.8466 50.0581 30.6685 49.8585C30.2197 49.3551 29.5564 49.0662 28.8487 49.0662C27.5516 49.0662 26.496 50.0354 26.496 51.227C26.496 52.4184 27.5514 53.3877 28.8487 53.3877C30.68 53.3877 32.1696 54.7916 32.1696 56.5171C32.1698 58.2426 30.6799 59.6465 28.8487 59.6465Z" fill="#F7D28F"/>
<path d="M28.7597 61.0934C28.4922 61.0934 28.2754 60.8766 28.2754 60.6091V47.1347C28.2754 46.8672 28.4922 46.6504 28.7597 46.6504C29.0273 46.6504 29.244 46.8672 29.244 47.1347V60.6091C29.244 60.8766 29.0273 61.0934 28.7597 61.0934Z" fill="#F7D28F"/>
</g>
<defs>
<clipPath id="clip0_13_157">
<rect width="20.1585" height="20.1585" fill="white" transform="translate(18.7686 43.7925)"/>
</clipPath>
</defs>
</svg>
