<svg width="29" height="63" viewBox="0 0 29 63" fill="none" xmlns="http://www.w3.org/2000/svg">
<path d="M20.6085 40.4534H8.42895C7.84897 40.4534 7.34149 39.9459 7.34149 39.3659V9.49712C7.34149 9.27963 7.41399 9.06214 7.55898 8.84465L13.6487 0.434983C14.0837 -0.144994 15.0262 -0.144994 15.3887 0.434983L21.4784 8.84465C21.6234 9.06214 21.6959 9.27963 21.6959 9.49712V39.3659C21.6959 39.9459 21.2609 40.4534 20.6085 40.4534ZM9.5164 38.2785H19.5935V9.85961L14.5187 2.89988L9.5164 9.85961V38.2785ZM26.4807 49.298H2.55668C2.0492 49.298 1.54172 48.9356 1.46923 48.3556L0.0192833 39.5109C-0.0532138 39.2209 0.0917799 38.8585 0.236774 38.641C0.454265 38.4235 0.744254 38.2785 1.03424 38.2785H27.8582C28.1482 38.2785 28.5107 38.4235 28.6556 38.641C28.8006 38.8585 28.9456 39.2209 28.8731 39.5109L27.4232 48.3556C27.4957 48.9356 27.0607 49.298 26.4807 49.298ZM3.49914 47.1231H25.6108L26.6982 40.4534H2.41169L3.49914 47.1231ZM18.2886 57.7077H10.7489C10.1689 57.7077 9.6614 57.2002 9.6614 56.6203V48.2831C9.6614 47.9931 9.8064 47.7031 9.95139 47.4856C10.1689 47.2681 10.4589 47.1956 10.7489 47.1956H18.2886C18.5785 47.1956 18.8685 47.3406 19.086 47.4856C19.3035 47.7031 19.376 47.9931 19.376 48.2831V56.6203C19.376 57.2002 18.8685 57.7077 18.2886 57.7077ZM11.8363 55.5328H17.1286V49.3705H11.8363V55.5328ZM16.1861 40.4534H12.8513C12.2713 40.4534 11.7638 39.9459 11.7638 39.3659V27.1864C11.7638 25.664 12.9963 24.4315 14.5187 24.4315C16.0411 24.4315 17.2736 25.664 17.2736 27.1864V39.3659C17.2736 39.9459 16.7661 40.4534 16.1861 40.4534ZM13.9387 38.2785H15.0987V27.1864C15.0987 26.8964 14.8087 26.6064 14.5187 26.6064C14.2287 26.6064 13.9387 26.8964 13.9387 27.1864V38.2785ZM18.2886 63H10.7489C10.1689 63 9.6614 62.4925 9.6614 61.9125V56.6203C9.6614 56.0403 10.1689 55.5328 10.7489 55.5328H18.2161C18.796 55.5328 19.3035 56.0403 19.3035 56.6203V61.985C19.376 62.4925 18.8685 63 18.2886 63ZM11.8363 60.8251H17.1286V57.6352H11.8363V60.8251Z" fill="#F7D28F"/>
</svg>
