<svg width="66" height="50" viewBox="0 0 66 50" fill="none" xmlns="http://www.w3.org/2000/svg">
<path d="M59.8652 17.3519C59.1326 16.779 58.3456 16.2725 57.525 15.8442L56.5195 17.7714C57.2217 18.1377 57.8978 18.5725 58.5261 19.0638L59.8652 17.3519Z" fill="#F7D28F"/>
<path d="M61.4816 18.8135L59.9131 20.3189C62.2533 22.758 63.5435 25.9646 63.5435 29.3483H65.7174C65.7174 25.4004 64.2131 21.6591 61.4816 18.8135Z" fill="#F7D28F"/>
<path d="M15.9718 2.65748L15.462 0.544434C6.65327 2.66944 0.5 10.4901 0.5 19.5651H2.67392C2.67392 11.4988 8.1424 4.54661 15.9718 2.65748Z" fill="#F7D28F"/>
<path d="M20.0656 2.17392V0C19.2982 0 18.5243 0.0456524 17.7656 0.133696L18.0178 2.2924C18.6928 2.21413 19.3819 2.17392 20.0656 2.17392Z" fill="#F7D28F"/>
<path d="M17.5733 28.5795L16.0361 30.1167L30.1666 44.2472L31.7038 42.71L17.5733 28.5795Z" fill="#F7D28F"/>
<path d="M14.3116 25.3178L12.7744 26.855L14.4046 28.4852L15.9418 26.948L14.3116 25.3178Z" fill="#F7D28F"/>
<path d="M54.5264 19.861C54.6057 15.8088 53.0623 11.8958 50.1807 9.01425C44.6122 3.44685 35.7024 3.20772 29.847 8.29686C23.9916 3.20663 15.0818 3.44685 9.51328 9.01425C3.69479 14.8327 3.69479 24.2991 9.51328 30.1165L29.0785 49.6817C29.2905 49.8937 29.5687 50.0002 29.847 50.0002C30.1253 50.0002 30.4035 49.8937 30.6155 49.6817L36.9122 43.385L43.209 49.6817C43.4209 49.8937 43.6992 50.0002 43.9775 50.0002C44.2557 50.0002 44.534 49.8937 44.7459 49.6817L57.7894 36.6382C61.809 32.6186 61.809 26.0773 57.7894 22.0577C56.8242 21.0925 55.7123 20.3632 54.5264 19.861ZM29.847 47.3763L11.0502 28.5795C6.07958 23.6088 6.07958 15.5219 11.0502 10.5512C16.0209 5.58164 24.1079 5.58164 29.0785 10.5512C29.5035 10.9762 30.1905 10.9762 30.6155 10.5512C35.5861 5.58164 43.6731 5.58164 48.6438 10.5512C50.9644 12.873 52.284 15.9751 52.371 19.223C49.4677 18.6904 46.3807 19.3969 43.9785 21.3621C39.9318 18.0534 33.9394 18.2849 30.1666 22.0577C26.147 26.0773 26.147 32.6186 30.1666 36.6382L35.3764 41.848L29.847 47.3763ZM56.2525 35.1012L43.9775 47.3763L31.7024 35.1012C28.5307 31.9295 28.5307 26.7675 31.7024 23.5947C33.2883 22.0088 35.372 21.2154 37.4557 21.2154C39.5394 21.2154 41.622 22.0088 43.209 23.5947C43.634 24.0197 44.3209 24.0197 44.7459 23.5947C47.9188 20.423 53.0796 20.423 56.2525 23.5947C59.4242 26.7665 59.4242 31.9295 56.2525 35.1012Z" fill="#F7D28F"/>
</svg>
