<svg width="12" height="8" viewBox="0 0 12 8" fill="none" xmlns="http://www.w3.org/2000/svg">
<path d="M4.77922 7.52951C4.6721 7.53011 4.56591 7.51033 4.46673 7.47132C4.36756 7.43231 4.27736 7.37482 4.2013 7.30216L0.945435 4.16634C0.792162 4.01872 0.706055 3.8185 0.706055 3.60973C0.706055 3.40097 0.792162 3.20075 0.945435 3.05313C1.09871 2.9055 1.30659 2.82257 1.52335 2.82257C1.74011 2.82257 1.948 2.9055 2.10127 3.05313L4.77922 5.64018L9.89908 0.701258C10.0524 0.553636 10.2602 0.470703 10.477 0.470703C10.6938 0.470703 10.9016 0.553636 11.0549 0.701258C11.2082 0.848879 11.2943 1.0491 11.2943 1.25787C11.2943 1.46664 11.2082 1.66685 11.0549 1.81447L5.35714 7.30216C5.28108 7.37482 5.19088 7.43231 5.09171 7.47132C4.99254 7.51033 4.88635 7.53011 4.77922 7.52951Z" fill="#2E2E2E"/>
</svg>
