<svg width="63" height="69" viewBox="0 0 63 69" fill="none" xmlns="http://www.w3.org/2000/svg">
<g clip-path="url(#clip0_127_180)">
<path d="M1.10426 69.0001C0.501935 69.0001 0 68.5083 0 67.8865V59.9466C0 59.3392 0.487594 58.833 1.10426 58.833H26.6743C27.2766 58.833 27.7785 59.3247 27.7785 59.9466C27.7785 60.5685 27.2909 61.0602 26.6743 61.0602H2.19417V67.8865C2.19417 68.4939 1.70658 69.0001 1.08992 69.0001H1.10426Z" fill="#FEE0AB"/>
<path d="M26.6743 63.8078C26.072 63.8078 25.5701 63.316 25.5701 62.6942V52.7874C25.5701 52.18 26.0577 51.6738 26.6743 51.6738H38.8785C39.4808 51.6738 39.9828 52.1655 39.9828 52.7874C39.9828 53.4093 39.4952 53.901 38.8785 53.901H27.7642V62.7086C27.7642 63.316 27.2766 63.8222 26.66 63.8222L26.6743 63.8078Z" fill="#FEE0AB"/>
<path d="M38.8784 56.6348C38.2761 56.6348 37.7742 56.143 37.7742 55.5211V40.6683C37.7742 40.0609 38.2618 39.5547 38.8784 39.5547H61.8957C62.498 39.5547 63 40.0464 63 40.6683C63 41.2902 62.5124 41.7819 61.8957 41.7819H39.9827V55.5211C39.9827 56.1286 39.4951 56.6348 38.8784 56.6348Z" fill="#FEE0AB"/>
<path opacity="0.5" d="M13.8821 60.6843C13.2798 60.6843 12.7778 60.1925 12.7778 59.5707V44.1248C12.7778 43.5174 13.2654 43.0112 13.8821 43.0112C14.4988 43.0112 14.9863 43.503 14.9863 44.1248V59.5707C14.9863 60.1781 14.4988 60.6843 13.8821 60.6843Z" fill="#FEE0AB"/>
<path d="M7.14185 39.9308C6.53953 39.9308 6.0376 39.4391 6.0376 38.8172V25.8734C6.0376 25.2659 6.52519 24.7598 7.14185 24.7598C7.75852 24.7598 8.24611 25.2515 8.24611 25.8734V38.8172C8.24611 39.4246 7.75852 39.9308 7.14185 39.9308Z" fill="#FEE0AB"/>
<path d="M20.6367 39.9308C20.0344 39.9308 19.5325 39.4391 19.5325 38.8172V25.8734C19.5325 25.2659 20.0201 24.7598 20.6367 24.7598C21.2534 24.7598 21.741 25.2515 21.741 25.8734V38.8172C21.741 39.4246 21.2534 39.9308 20.6367 39.9308Z" fill="#FEE0AB"/>
<path d="M7.14187 34.0299H2.22291C1.62059 34.0299 1.11865 33.5382 1.11865 32.9163C1.11865 32.2945 1.60625 31.8027 2.22291 31.8027H7.12753C7.72985 31.8027 8.23179 32.2945 8.23179 32.9163C8.23179 33.5382 7.74419 34.0299 7.12753 34.0299H7.14187Z" fill="#FEE0AB"/>
<path d="M20.6368 60.6843H7.14193C6.53961 60.6843 6.03768 60.1926 6.03768 59.5707V39.9164C3.31289 39.8007 1.13306 37.3565 1.13306 34.3628V21.9252C1.13306 18.6567 3.58537 15.9956 6.58264 15.9956H21.1961C24.2077 15.9956 26.6457 18.6567 26.6457 21.9252V34.3628C26.6457 37.3565 24.4659 39.8007 21.7411 39.9164V59.5707C21.7411 60.1782 21.2535 60.6843 20.6368 60.6843ZM8.23185 58.4716H19.5326V38.8317C19.5326 38.2243 20.0201 37.7181 20.6368 37.7181H21.526C23.1321 37.7181 24.4515 36.214 24.4515 34.3773V21.9396C24.4515 19.9004 22.9887 18.2373 21.1961 18.2373H6.58264C4.79001 18.2373 3.32723 19.9004 3.32723 21.9396V34.3773C3.32723 36.214 4.63226 37.7181 6.25279 37.7181H7.14193C7.74426 37.7181 8.24619 38.2098 8.24619 38.8317V58.4716H8.23185Z" fill="#FEE0AB"/>
<path d="M7.14187 34.0299H2.22291C1.62059 34.0299 1.11865 33.5382 1.11865 32.9163C1.11865 32.2945 1.60625 31.8027 2.22291 31.8027H7.12753C7.72985 31.8027 8.23179 32.2945 8.23179 32.9163C8.23179 33.5382 7.74419 34.0299 7.12753 34.0299H7.14187Z" fill="#FEE0AB"/>
<path d="M25.5413 34.0299H20.6367C20.0344 34.0299 19.5325 33.5382 19.5325 32.9163C19.5325 32.2945 20.0201 31.8027 20.6367 31.8027H25.5413C26.1437 31.8027 26.6456 32.2945 26.6456 32.9163C26.6456 33.5382 26.158 34.0299 25.5413 34.0299Z" fill="#FEE0AB"/>
<path d="M25.5413 34.0299H20.6367C20.0344 34.0299 19.5325 33.5382 19.5325 32.9163C19.5325 32.2945 20.0201 31.8027 20.6367 31.8027H25.5413C26.1437 31.8027 26.6456 32.2945 26.6456 32.9163C26.6456 33.5382 26.158 34.0299 25.5413 34.0299Z" fill="#FEE0AB"/>
<path d="M20.6367 38.2965H7.14185C6.53953 38.2965 6.0376 37.8048 6.0376 37.1829C6.0376 36.5611 6.52519 36.0693 7.14185 36.0693H20.6367C21.2391 36.0693 21.741 36.5611 21.741 37.1829C21.741 37.8048 21.2534 38.2965 20.6367 38.2965Z" fill="#FEE0AB"/>
<path opacity="0.5" d="M57.1632 41.7818H43.2954C42.6931 41.7818 42.1912 41.29 42.1912 40.6682V36.8646C42.1912 32.3957 45.7908 28.7656 50.2221 28.7656C54.6535 28.7656 58.2531 32.3957 58.2531 36.8646V40.6682C58.2531 41.2756 57.7655 41.7818 57.1488 41.7818H57.1632ZM44.3853 39.569H56.0589V36.879C56.0589 33.6394 53.4345 30.9928 50.2221 30.9928C47.0097 30.9928 44.3853 33.6394 44.3853 36.879V39.569Z" fill="#FEE0AB"/>
<path d="M50.2222 30.9927C49.6199 30.9927 49.1179 30.501 49.1179 29.8791V7.2889C49.1179 6.68148 49.6055 6.17529 50.2222 6.17529C50.8388 6.17529 51.3264 6.66701 51.3264 7.2889V29.8791C51.3264 30.4865 50.8388 30.9927 50.2222 30.9927Z" fill="#FEE0AB"/>
<path d="M61.8957 19.51H50.2222C49.6199 19.51 49.1179 19.0183 49.1179 18.3964C49.1179 17.7745 49.6055 17.2828 50.2222 17.2828H60.0027L58.4969 14.6217C58.3105 14.2746 58.3105 13.8697 58.4969 13.5226L60.0027 10.8615H50.2222C49.6199 10.8615 49.1179 10.3698 49.1179 9.74788C49.1179 9.126 49.6055 8.63428 50.2222 8.63428H61.8957C62.283 8.63428 62.6558 8.85121 62.8423 9.18385C63.043 9.53094 63.043 9.95035 62.8423 10.283L60.7054 14.0577L62.8423 17.8323C63.043 18.1794 63.0287 18.5989 62.8423 18.9315C62.6415 19.2786 62.283 19.4811 61.8957 19.4811V19.51Z" fill="#FEE0AB"/>
<path d="M13.882 14.043C10.0959 14.043 6.99829 10.8902 6.99829 7.01425C6.99829 3.13834 10.0959 0 13.882 0C17.668 0 20.7656 3.1528 20.7656 7.02872C20.7656 10.9046 17.6823 14.0574 13.882 14.0574V14.043ZM13.882 2.21274C11.3006 2.21274 9.2068 4.36764 9.2068 7.01425C9.2068 9.66087 11.3006 11.8158 13.882 11.8158C16.4634 11.8158 18.5571 9.66087 18.5571 7.01425C18.5571 4.36764 16.4634 2.21274 13.882 2.21274Z" fill="#FEE0AB"/>
<path d="M40.671 18.6133C40.0687 18.6133 39.5667 18.1216 39.5667 17.4997V14.8242C39.5667 14.8242 39.4377 14.7808 39.366 14.7374C38.8354 14.4482 38.6346 13.7829 38.9214 13.2333L39.6958 11.7726C39.9396 11.3243 40.4415 11.0929 40.9291 11.223C41.4167 11.3532 41.7609 11.7871 41.7609 12.2933V17.4853C41.7609 18.0927 41.2733 18.5989 40.6567 18.5989L40.671 18.6133Z" fill="#FEE0AB"/>
<path d="M40.6712 18.613C40.0688 18.613 39.5669 18.1213 39.5669 17.4994V12.3074C39.5669 11.8012 39.9111 11.3529 40.3987 11.2372C40.8863 11.107 41.4025 11.3384 41.632 11.7868L42.4064 13.2475C42.6932 13.7826 42.4925 14.4623 41.9618 14.7516C41.9045 14.7805 41.8328 14.8094 41.7611 14.8383V17.5139C41.7611 18.1213 41.2735 18.6275 40.6568 18.6275L40.6712 18.613Z" fill="#FEE0AB"/>
<path d="M34.2176 35.3028C33.6153 35.3028 33.1134 34.8111 33.1134 34.1892V31.5136C33.1134 31.5136 32.9843 31.4702 32.9126 31.4269C32.382 31.1376 32.1812 30.4723 32.468 29.9228L33.2424 28.4621C33.4862 28.0137 33.9882 27.7823 34.4758 27.9125C34.9634 28.0427 35.3075 28.4765 35.3075 28.9827V34.1747C35.3075 34.7821 34.82 35.2883 34.2033 35.2883L34.2176 35.3028Z" fill="#FEE0AB"/>
<path d="M34.2175 35.3025C33.6152 35.3025 33.1133 34.8108 33.1133 34.1889V28.9969C33.1133 28.4907 33.4575 28.0424 33.9451 27.9267C34.4327 27.7965 34.9489 28.0279 35.1784 28.4762L35.9528 29.9369C36.2396 30.472 36.0388 31.1518 35.5082 31.441C35.4509 31.4699 35.3792 31.4989 35.3075 31.5278V34.2033C35.3075 34.8108 34.8199 35.3169 34.2032 35.3169L34.2175 35.3025Z" fill="#FEE0AB"/>
</g>
<defs>
<clipPath id="clip0_127_180">
<rect width="63" height="69" fill="white"/>
</clipPath>
</defs>
</svg>
