<svg width="620" height="526" viewBox="0 0 620 526" fill="none" xmlns="http://www.w3.org/2000/svg">
<g opacity="0.1">
<path opacity="0.6" d="M468.211 249.893C474.304 334.987 421.491 409.054 348.572 420.857C352.665 420.858 356.791 420.708 360.939 420.397C450.164 413.706 517.312 335.937 510.924 246.691C504.534 157.447 427.022 90.5203 337.798 97.2068C333.649 97.5178 329.546 97.9845 325.497 98.5961C399.318 99.3988 462.116 164.797 468.209 249.891L468.211 249.893Z" fill="#FEE0AB"/>
<path opacity="0.5" d="M363.452 259.498C336.745 290.43 290.137 293.897 259.357 267.32C228.577 240.743 225.212 194.128 251.92 163.196C278.627 132.265 325.235 128.798 356.015 155.375C386.796 181.951 390.16 228.567 363.452 259.498Z" stroke="white" stroke-width="15.7406"/>
<path opacity="0.2" d="M270.364 369.136C185.291 375.514 111.434 322.919 99.8784 250.003C99.8636 254.098 100 258.226 100.297 262.375C106.688 351.624 184.199 418.546 273.423 411.86C362.646 405.171 429.796 327.401 423.408 238.154C423.111 234.004 422.658 229.901 422.06 225.852C421.014 299.712 355.44 362.757 270.366 369.134L270.364 369.136Z" fill="#FEE0AB"/>
<path opacity="0.4" d="M151.747 181.575C145.654 96.4803 198.467 22.4139 271.386 10.6111C267.294 10.6098 263.168 10.76 259.019 11.0711C169.795 17.7616 102.646 95.5302 109.034 184.777C115.424 274.021 192.936 340.947 282.16 334.261C286.309 333.95 290.413 333.483 294.461 332.872C220.64 332.069 157.842 266.671 151.749 181.577L151.747 181.575Z" fill="#FEE0AB"/>
<path opacity="0.8" d="M344.317 58.2336C429.391 51.8563 503.247 104.451 514.803 177.366C514.818 173.272 514.681 169.144 514.384 164.994C507.993 75.7462 430.482 8.82364 341.258 15.5101C252.035 22.1985 184.885 99.9693 191.273 189.216C191.57 193.365 192.023 197.469 192.621 201.518C193.668 127.658 259.241 64.6131 344.315 58.2358L344.317 58.2336Z" fill="#FEE0AB"/>
</g>
</svg>
