<svg width="60" height="60" viewBox="0 0 60 60" fill="none" xmlns="http://www.w3.org/2000/svg">
<g clip-path="url(#clip0_48_608)">
<path d="M1.00505 31.0052C1.55714 31.0052 2.00522 30.5581 2.00522 30.005C2.00522 14.5634 14.5683 2.00033 30.0099 2.00033C36.3379 2.00033 42.3899 4.11569 47.3148 8.00133H42.0119C41.4598 8.00133 41.0117 8.44841 41.0117 9.0015C41.0117 9.55459 41.4598 10.0017 42.0119 10.0017H49.9282C49.9942 10.0077 50.0562 10.0087 50.1212 10.0017H51.0124V1.00017C51.0124 0.447075 50.5643 0 50.0122 0C49.4601 0 49.0121 0.447075 49.0121 1.00017V6.81113C43.6552 2.4084 36.992 0 30.0099 0C13.4651 0 0.00488281 13.4602 0.00488281 30.005C0.00488281 30.5581 0.452957 31.0052 1.00505 31.0052Z" fill="#FEE0AB"/>
<path d="M30.0095 8.00146C17.8765 8.00146 8.00586 17.8721 8.00586 30.0051C8.00586 42.1382 17.8765 52.0088 30.0095 52.0088C42.1425 52.0088 52.0132 42.1382 52.0132 30.0051C52.0132 17.8721 42.1425 8.00146 30.0095 8.00146ZM30.0095 50.0085C18.9797 50.0085 10.0062 41.035 10.0062 30.0051C10.0062 18.9753 18.9797 10.0018 30.0095 10.0018C41.0394 10.0018 50.0129 18.9753 50.0129 30.0051C50.0129 41.035 41.0394 50.0085 30.0095 50.0085Z" fill="#FEE0AB"/>
<path d="M30.0098 15.002C30.5618 15.002 31.0098 14.555 31.0098 14.002V12.002C31.0098 11.449 30.5618 11.002 30.0098 11.002C29.4578 11.002 29.0098 11.449 29.0098 12.002V14.002C29.0098 14.555 29.4578 15.002 30.0098 15.002Z" fill="#FEE0AB"/>
<path d="M30.0098 45.0073C29.4578 45.0073 29.0098 45.4543 29.0098 46.0073V48.0073C29.0098 48.5603 29.4578 49.0073 30.0098 49.0073C30.5618 49.0073 31.0098 48.5603 31.0098 48.0073V46.0073C31.0098 45.4543 30.5618 45.0073 30.0098 45.0073Z" fill="#FEE0AB"/>
<path d="M46.0127 31.0049H48.0127C48.5647 31.0049 49.0127 30.5579 49.0127 30.0049C49.0127 29.4519 48.5647 29.0049 48.0127 29.0049H46.0127C45.4607 29.0049 45.0127 29.4519 45.0127 30.0049C45.0127 30.5579 45.4607 31.0049 46.0127 31.0049Z" fill="#FEE0AB"/>
<path d="M14.0068 29.0049H12.0068C11.4548 29.0049 11.0068 29.4519 11.0068 30.0049C11.0068 30.5579 11.4548 31.0049 12.0068 31.0049H14.0068C14.5588 31.0049 15.0068 30.5579 15.0068 30.0049C15.0068 29.4519 14.5588 29.0049 14.0068 29.0049Z" fill="#FEE0AB"/>
<path d="M31.0102 25.146V20.0031C31.0102 19.45 30.5622 19.0029 30.0101 19.0029C29.458 19.0029 29.0099 19.45 29.0099 20.0031V25.146C27.2896 25.593 26.0094 27.1453 26.0094 29.0046C26.0094 29.7447 26.2244 30.4288 26.5765 31.0239L18.3011 39.2993C17.91 39.6904 17.91 40.3225 18.3011 40.7135C18.4961 40.9086 18.7522 41.0066 19.0082 41.0066C19.2643 41.0066 19.5203 40.9086 19.7153 40.7135L27.9907 32.4382C28.5858 32.7902 29.2699 33.0053 30.0101 33.0053C32.2164 33.0053 34.0107 31.211 34.0107 29.0046C34.0107 27.1453 32.7305 25.593 31.0102 25.146ZM30.0101 31.0049C28.9069 31.0049 28.0097 30.1078 28.0097 29.0046C28.0097 27.9014 28.9069 27.0043 30.0101 27.0043C31.1132 27.0043 32.0104 27.9014 32.0104 29.0046C32.0104 30.1078 31.1132 31.0049 30.0101 31.0049Z" fill="#FEE0AB"/>
<path d="M11.8955 52.6685C11.5655 53.1075 11.6555 53.7375 12.1055 54.0675C12.2755 54.1975 12.4855 54.2575 12.6955 54.2575C13.0055 54.2575 13.3055 54.1275 13.5055 53.8575C13.8255 53.4185 13.7355 52.7885 13.2955 52.4585C12.8555 52.1285 12.2265 52.2185 11.8955 52.6685Z" fill="#FEE0AB"/>
<path d="M7.23587 46.2779C6.91587 45.8389 6.28587 45.7279 5.83587 46.0489C5.38587 46.3789 5.28587 46.9989 5.60587 47.4479C5.80587 47.7189 6.10587 47.8679 6.42587 47.8679C6.62587 47.8679 6.82587 47.8079 7.00587 47.6789C7.45487 47.3579 7.55587 46.7279 7.23587 46.2779Z" fill="#FEE0AB"/>
<path d="M7.62524 48.4582C7.21524 48.8272 7.17524 49.4582 7.54524 49.8672C7.73524 50.0972 8.01524 50.2082 8.29524 50.2082C8.52524 50.2082 8.76524 50.1282 8.95524 49.9582C9.36524 49.5882 9.40524 48.9582 9.03524 48.5482C8.67624 48.1282 8.04624 48.0982 7.62524 48.4582Z" fill="#FEE0AB"/>
<path d="M11.0669 50.6083C10.6669 50.2383 10.0269 50.2683 9.65686 50.6693C9.27686 51.0783 9.30686 51.7093 9.71686 52.0893C9.90686 52.2593 10.1469 52.3493 10.3869 52.3493C10.6569 52.3493 10.9269 52.2393 11.1269 52.0293C11.4969 51.6193 11.4769 50.9893 11.0669 50.6193C11.0669 50.6083 11.0669 50.6083 11.0669 50.6083Z" fill="#FEE0AB"/>
<path d="M5.676 43.847C5.666 43.847 5.666 43.847 5.666 43.847C5.396 43.367 4.786 43.197 4.306 43.477C3.826 43.748 3.656 44.357 3.936 44.837C4.116 45.156 4.456 45.337 4.806 45.337C4.966 45.337 5.146 45.297 5.296 45.207C5.776 44.937 5.946 44.326 5.676 43.847Z" fill="#FEE0AB"/>
<path d="M58.9548 32.1252C58.9748 32.1252 58.9848 32.1252 58.9948 32.1252C59.5348 32.1252 59.9748 31.6942 59.9948 31.1652C60.0148 30.6042 59.5848 30.1442 59.0348 30.1252C58.4848 30.1042 58.0148 30.5352 57.9948 31.0852C57.9748 31.6352 58.4038 32.1052 58.9548 32.1252Z" fill="#FEE0AB"/>
<path d="M1.26514 33.9955C1.81514 33.9345 2.21514 33.4445 2.15514 32.8945C2.09514 32.3445 1.60514 31.9445 1.05514 32.0045C0.505138 32.0545 0.105138 32.5545 0.165138 33.0945C0.215138 33.6145 0.655138 33.9945 1.15514 33.9945C1.19514 33.9955 1.22514 33.9955 1.26514 33.9955Z" fill="#FEE0AB"/>
<path d="M1.82469 36.936C2.36469 36.826 2.71469 36.296 2.59469 35.756C2.48469 35.216 1.95469 34.865 1.41469 34.985C0.874691 35.095 0.524691 35.626 0.644691 36.166C0.734691 36.636 1.15469 36.956 1.61469 36.956C1.68369 36.956 1.75469 36.956 1.82469 36.936Z" fill="#FEE0AB"/>
<path d="M4.36566 41.2566C4.14566 40.7566 3.55566 40.5266 3.04566 40.7466C2.54566 40.9666 2.31566 41.5566 2.53566 42.0656C2.70566 42.4356 3.06566 42.6666 3.45566 42.6666C3.58566 42.6666 3.72566 42.6366 3.85566 42.5756C4.35466 42.3566 4.58466 41.7666 4.36566 41.2566Z" fill="#FEE0AB"/>
<path d="M3.33435 38.5565C3.17435 38.0265 2.60435 37.7365 2.08435 37.9065C1.55435 38.0765 1.26435 38.6365 1.43435 39.1675C1.57435 39.5875 1.96435 39.8565 2.38435 39.8565C2.48435 39.8565 2.59435 39.8465 2.69435 39.8165C3.21535 39.6465 3.50535 39.0755 3.33435 38.5565Z" fill="#FEE0AB"/>
<path d="M29.4694 57.9997C28.9194 57.9887 28.4594 58.4297 28.4494 58.9787C28.4394 59.5397 28.8794 59.9887 29.4294 59.9997C29.4394 59.9997 29.4494 59.9997 29.4494 59.9997C29.9994 59.9997 30.4394 59.5687 30.4494 59.0197C30.4584 58.4697 30.0194 58.0097 29.4694 57.9997Z" fill="#FEE0AB"/>
<path d="M52.1439 47.148C51.8039 47.578 51.8839 48.209 52.3139 48.548C52.5039 48.688 52.7139 48.758 52.9339 48.758C53.2239 48.758 53.5239 48.628 53.7239 48.367C54.0639 47.937 53.9839 47.307 53.5439 46.968C53.1039 46.629 52.4839 46.708 52.1439 47.148Z" fill="#FEE0AB"/>
<path d="M45.8414 53.0889C45.3914 53.3989 45.2714 54.0279 45.5914 54.4789C45.7814 54.7589 46.0914 54.9089 46.4114 54.9089C46.6114 54.9089 46.8014 54.8589 46.9814 54.7389C47.4314 54.4289 47.5514 53.7999 47.2314 53.3489C46.9214 52.8889 46.3024 52.7789 45.8414 53.0889Z" fill="#FEE0AB"/>
<path d="M48.1426 51.3276C47.7226 51.6876 47.6726 52.3176 48.0326 52.7376C48.2326 52.9676 48.5126 53.0886 48.7926 53.0886C49.0226 53.0886 49.2526 53.0086 49.4426 52.8486C49.8626 52.4886 49.9126 51.8586 49.5526 51.4386C49.1916 51.0186 48.5626 50.9686 48.1426 51.3276Z" fill="#FEE0AB"/>
<path d="M55.1724 44.4462C54.7024 44.1562 54.0824 44.3062 53.7924 44.7662C53.5024 45.2362 53.6424 45.8562 54.1124 46.1462C54.2824 46.2472 54.4624 46.2962 54.6424 46.2962C54.9724 46.2962 55.3024 46.1362 55.4924 45.8252C55.7834 45.3572 55.6434 44.7362 55.1724 44.4462Z" fill="#FEE0AB"/>
<path d="M50.2532 49.338C49.8632 49.737 49.8832 50.367 50.2832 50.748C50.4732 50.937 50.7232 51.027 50.9732 51.027C51.2332 51.027 51.5032 50.927 51.6932 50.717C52.0732 50.317 52.0632 49.687 51.6632 49.307C51.2632 48.927 50.6322 48.938 50.2532 49.338Z" fill="#FEE0AB"/>
<path d="M58.8633 33.1147C58.3233 33.0357 57.8133 33.4257 57.7333 33.9657C57.6533 34.5157 58.0333 35.0157 58.5833 35.0957C58.6333 35.1057 58.6833 35.1057 58.7233 35.1057C59.2133 35.1057 59.6433 34.7467 59.7133 34.2467C59.7943 33.7057 59.4143 33.1947 58.8633 33.1147Z" fill="#FEE0AB"/>
<path d="M58.3948 36.0752C57.8548 35.9452 57.3148 36.2752 57.1748 36.8052C57.0448 37.3452 57.3748 37.8852 57.9048 38.0252C57.9848 38.0462 58.0648 38.0552 58.1448 38.0552C58.5948 38.0552 59.0048 37.7452 59.1148 37.2952C59.2548 36.7562 58.9238 36.2162 58.3948 36.0752Z" fill="#FEE0AB"/>
<path d="M15.7066 54.0691C15.2266 53.7901 14.6166 53.9391 14.3366 54.4201C14.0466 54.8901 14.2066 55.5101 14.6766 55.7901C14.8366 55.8901 15.0166 55.9301 15.1866 55.9301C15.5266 55.9301 15.8566 55.7601 16.0466 55.4401C16.3366 54.9691 16.1776 54.3591 15.7066 54.0691Z" fill="#FEE0AB"/>
<path d="M57.6136 38.9765C57.0936 38.7875 56.5136 39.0565 56.3336 39.5765C56.1436 40.0975 56.4036 40.6675 56.9236 40.8565C57.0336 40.8965 57.1536 40.9175 57.2636 40.9175C57.6736 40.9175 58.0636 40.6675 58.2036 40.2575C58.3946 39.7355 58.1336 39.1665 57.6136 38.9765Z" fill="#FEE0AB"/>
<path d="M56.5342 41.7771C56.0442 41.5381 55.4342 41.7371 55.1942 42.2371C54.9542 42.7371 55.1642 43.3381 55.6542 43.5771C55.7942 43.6471 55.9442 43.6781 56.0942 43.6781C56.4642 43.6781 56.8242 43.4681 56.9942 43.1171C57.2342 42.6161 57.0342 42.0171 56.5342 41.7771Z" fill="#FEE0AB"/>
<path d="M26.5791 57.7996C26.0291 57.7296 25.5391 58.1186 25.4691 58.6696C25.3991 59.2196 25.7891 59.7196 26.3391 59.7786V59.7896C26.3791 59.7896 26.4191 59.7896 26.4591 59.7896C26.9591 59.7896 27.3891 59.4196 27.4491 58.9086C27.5191 58.3596 27.1281 57.8686 26.5791 57.7996Z" fill="#FEE0AB"/>
<path d="M20.9486 56.5096C20.4286 56.3286 19.8586 56.5996 19.6786 57.1296C19.4986 57.6496 19.7786 58.2196 20.2986 58.3996C20.4086 58.4296 20.5186 58.4496 20.6286 58.4496C21.0386 58.4496 21.4286 58.1896 21.5686 57.7796C21.7486 57.2496 21.4686 56.6796 20.9486 56.5096Z" fill="#FEE0AB"/>
<path d="M23.729 57.2995C23.189 57.1795 22.659 57.5095 22.529 58.0495C22.409 58.5895 22.749 59.1295 23.279 59.2495C23.359 59.2695 23.429 59.2695 23.509 59.2695C23.959 59.2695 24.379 58.9595 24.479 58.4995C24.608 57.9595 24.269 57.4195 23.729 57.2995Z" fill="#FEE0AB"/>
<path d="M18.2678 55.4291C17.7578 55.1891 17.1678 55.4081 16.9378 55.9081C16.7078 56.4081 16.9178 57.0091 17.4178 57.2381C17.5578 57.2991 17.6978 57.3281 17.8378 57.3281C18.2178 57.3281 18.5778 57.1181 18.7478 56.7491C18.9778 56.2491 18.7678 55.6581 18.2678 55.4291Z" fill="#FEE0AB"/>
<path d="M35.2307 57.5195C34.6907 57.6195 34.3307 58.1495 34.4307 58.6895C34.5207 59.1695 34.9507 59.5005 35.4207 59.5005C35.4807 59.5005 35.5407 59.5005 35.6007 59.4895C36.1407 59.3805 36.5007 58.8595 36.4007 58.3195C36.3007 57.7695 35.7707 57.4195 35.2307 57.5195Z" fill="#FEE0AB"/>
<path d="M38.0412 56.8395C37.5112 56.9885 37.2112 57.5495 37.3712 58.0785C37.5012 58.5095 37.9012 58.7895 38.3312 58.7895C38.4212 58.7895 38.5212 58.7785 38.6212 58.7495C39.1512 58.5895 39.4512 58.0285 39.2912 57.4995C39.1302 56.9795 38.5712 56.6795 38.0412 56.8395Z" fill="#FEE0AB"/>
<path d="M40.7712 55.8592C40.2612 56.0692 40.0212 56.6592 40.2312 57.1702C40.3912 57.5502 40.7612 57.7792 41.1512 57.7792C41.2812 57.7792 41.4112 57.7592 41.5412 57.7102C42.0512 57.4892 42.2912 56.9092 42.0812 56.3992C41.8602 55.8892 41.2812 55.6492 40.7712 55.8592Z" fill="#FEE0AB"/>
<path d="M32.3594 57.9085C31.8094 57.9595 31.3994 58.4385 31.4494 58.9885C31.4894 59.5095 31.9294 59.9085 32.4494 59.9085C32.4694 59.9085 32.4994 59.9085 32.5294 59.9085V59.8985C33.0794 59.8585 33.4894 59.3785 33.4394 58.8285C33.3994 58.2795 32.9104 57.8685 32.3594 57.9085Z" fill="#FEE0AB"/>
<path d="M43.381 54.609C42.891 54.869 42.711 55.479 42.981 55.96C43.161 56.3 43.501 56.489 43.861 56.489C44.021 56.489 44.181 56.449 44.331 56.359C44.821 56.099 45.001 55.489 44.731 55.009C44.472 54.519 43.861 54.339 43.381 54.609Z" fill="#FEE0AB"/>
</g>
<defs>
<clipPath id="clip0_48_608">
<rect width="60" height="60" fill="white"/>
</clipPath>
</defs>
</svg>
