<svg width="43" height="55" viewBox="0 0 43 55" fill="none" xmlns="http://www.w3.org/2000/svg">
<g clip-path="url(#clip0_82_185)">
<path d="M21.5057 44.0301C12.5468 44.0301 5.26562 34.4256 5.26562 22.611C5.26562 21.3497 5.35882 20.0421 5.54522 18.7113C5.60347 18.2716 5.98792 17.9476 6.43062 17.9476H36.5807C37.0234 17.9476 37.4079 18.2716 37.4661 18.7113C37.6525 20.0652 37.7457 21.3381 37.7457 22.611C37.7457 34.4256 30.4645 44.0301 21.5057 44.0301ZM7.21117 19.7181C7.10632 20.7017 7.04807 21.6737 7.04807 22.611C7.04807 33.442 13.5371 42.2596 21.5057 42.2596C29.4742 42.2596 35.9633 33.442 35.9633 22.611C35.9633 21.6621 35.905 20.7132 35.8002 19.7181H7.21117Z" fill="#FEE0AB"/>
<path d="M36.8487 30.6533C36.4642 30.6533 36.0565 30.5723 35.6254 30.4218C35.1827 30.2714 34.9381 29.8085 35.0662 29.3573C35.6604 27.1586 35.9633 24.8906 35.9633 22.611C35.9633 21.8125 35.9167 20.9562 35.8002 19.9264C35.7769 19.6834 35.8468 19.4404 36.0099 19.2552C36.173 19.0701 36.3943 18.9543 36.639 18.9428C36.6739 18.9312 36.7671 18.9196 36.8487 18.9196C39.365 18.9196 41.4154 21.5464 41.4154 24.7865C41.4154 28.0265 39.365 30.6533 36.8487 30.6533ZM37.6758 20.8984C37.7224 21.5117 37.7457 22.0671 37.7457 22.611C37.7457 24.717 37.5011 26.8231 37.0234 28.8712C38.4563 28.7324 39.633 26.9272 39.633 24.7865C39.633 22.9928 38.7942 21.4191 37.6758 20.8868V20.8984Z" fill="#FEE0AB"/>
<path d="M6.15077 30.6533C3.63438 30.6533 1.58398 28.0265 1.58398 24.7865C1.58398 21.5464 3.63438 18.9196 6.15077 18.9196C6.24397 18.9196 6.32552 18.9196 6.40707 18.9428C6.65172 18.9543 6.84977 19.0701 7.01287 19.2552C7.17596 19.4404 7.22256 19.6834 7.19926 19.9148C7.09441 20.9447 7.03617 21.7894 7.03617 22.5994C7.03617 24.879 7.33906 27.1471 7.93321 29.3457C8.04971 29.797 7.80506 30.2598 7.37401 30.4103C6.93132 30.5607 6.53522 30.6417 6.15077 30.6417V30.6533ZM5.32362 20.8984C4.20523 21.4307 3.36643 23.0044 3.36643 24.798C3.36643 26.9272 4.54307 28.744 5.97602 28.8828C5.49837 26.8346 5.25372 24.7286 5.25372 22.6226C5.25372 22.0787 5.27702 21.5233 5.32362 20.91V20.8984Z" fill="#FEE0AB"/>
<path d="M21.506 50.0936C17.9411 50.0936 15.25 48.4852 15.25 46.356V41.8315C15.25 41.519 15.4131 41.2413 15.6694 41.0793C15.9373 40.9173 16.2635 40.9057 16.5431 41.0446C19.7818 42.6646 23.2302 42.6646 26.4806 41.0446C26.7602 40.9057 27.0864 40.9173 27.3543 41.0793C27.6223 41.2413 27.7737 41.5306 27.7737 41.8315V46.356C27.7737 48.4852 25.0826 50.0936 21.5177 50.0936H21.506ZM17.0324 43.1969V46.356C17.0324 47.1776 18.7333 48.3232 21.506 48.3232C24.2787 48.3232 25.9796 47.1776 25.9796 46.356V43.1969C23.0438 44.3194 19.9566 44.3194 17.0324 43.1969Z" fill="#FEE0AB"/>
<path d="M42.1145 55C41.6252 55 41.2175 54.6066 41.2175 54.109C41.2175 50.3135 38.107 47.2239 34.2858 47.2239H27.5987C26.9696 48.9018 24.558 50.0821 21.4941 50.0821C18.4302 50.0821 16.0303 48.9018 15.4012 47.2239H8.7141C4.89291 47.2239 1.78238 50.3135 1.78238 54.109C1.78238 54.595 1.38628 55 0.885328 55C0.38438 55 -0.0117188 54.6066 -0.0117188 54.109C-0.0117188 49.3415 3.89102 45.4534 8.70245 45.4534H16.1235C16.6128 45.4534 17.0205 45.8468 17.0205 46.3444C17.0205 47.166 18.7214 48.3116 21.4941 48.3116C24.2668 48.3116 25.9677 47.166 25.9677 46.3444C25.9677 45.8584 26.3638 45.4534 26.8647 45.4534H34.2858C39.0855 45.4534 42.9999 49.3299 42.9999 54.109C42.9999 54.595 42.6038 55 42.1029 55H42.1145Z" fill="#FEE0AB"/>
<path d="M26.341 19.7181H16.6599C16.3686 19.7181 16.1007 19.5792 15.9376 19.3478C15.7745 19.1164 15.7279 18.8271 15.8094 18.5493L16.3337 16.964C16.3919 16.7905 16.3337 16.6053 16.1822 16.5012L13.6775 14.696C12.8969 14.129 12.5824 13.1685 12.8736 12.2544C13.1765 11.3402 13.992 10.7501 14.959 10.7501H18.0462C18.221 10.7501 18.3841 10.6343 18.4423 10.4723L19.3976 7.55628C19.7005 6.64213 20.516 6.05197 21.483 6.05197C22.4499 6.05197 23.2771 6.64213 23.5683 7.55628L24.5236 10.4723C24.5819 10.6459 24.7333 10.7501 24.9197 10.7501H28.0069C28.9739 10.7501 29.801 11.3402 30.0923 12.2544C30.3952 13.1685 30.0806 14.129 29.2884 14.696L26.7837 16.5012C26.6439 16.6053 26.574 16.7905 26.6323 16.964L27.1565 18.5493C27.2497 18.8155 27.2031 19.1164 27.0283 19.3478C26.8652 19.5792 26.5973 19.7181 26.3061 19.7181H26.341ZM17.8948 17.9476H25.1178L24.978 17.5195C24.6867 16.6169 25.0013 15.6333 25.7818 15.0779L28.2865 13.2727C28.4962 13.1222 28.4729 12.9255 28.438 12.8098C28.403 12.7057 28.3098 12.5321 28.0419 12.5321H24.9547C23.9994 12.5321 23.1606 11.9304 22.8693 11.0278L21.914 8.11172C21.8325 7.86872 21.6344 7.834 21.5179 7.834C21.4014 7.834 21.2034 7.86872 21.1218 8.11172L20.1665 11.0278C19.8753 11.9304 19.0365 12.5321 18.0812 12.5321H14.9939C14.7376 12.5321 14.6328 12.7057 14.5978 12.8098C14.5629 12.914 14.5396 13.1107 14.7493 13.2727L17.254 15.0779C18.0229 15.6333 18.3491 16.6169 18.0579 17.5195L17.9181 17.9476H17.8948Z" fill="#FFD17E"/>
<path d="M35.2299 19.7181H7.7709C7.37481 19.7181 7.01366 19.4519 6.90881 19.0701C6.53601 17.7278 6.34961 16.3739 6.34961 15.0547C6.34961 6.75784 13.1415 0 21.5062 0C29.8709 0 36.6628 6.75784 36.6628 15.0547C36.6628 16.3854 36.4764 17.7393 36.1036 19.0701C35.9988 19.4519 35.6493 19.7181 35.2415 19.7181H35.2299ZM8.45825 17.9476H34.5309C34.7522 16.9756 34.8687 16.0036 34.8687 15.0547C34.8687 7.72986 28.869 1.77046 21.4946 1.77046C14.1201 1.77046 8.13205 7.72986 8.13205 15.0547C8.13205 16.0152 8.24855 16.9756 8.4699 17.9476H8.45825Z" fill="#FEE0AB"/>
<path d="M30.7095 55C30.2202 55 29.8125 54.6066 29.8125 54.109V51.9682C29.8125 51.4822 30.2086 51.0772 30.7095 51.0772C31.2105 51.0772 31.6066 51.4707 31.6066 51.9682V54.109C31.6066 54.595 31.2105 55 30.7095 55Z" fill="#FEE0AB"/>
<path d="M12.3023 55C11.813 55 11.4053 54.6066 11.4053 54.109V51.9682C11.4053 51.4822 11.8014 51.0772 12.3023 51.0772C12.8033 51.0772 13.1994 51.4707 13.1994 51.9682V54.109C13.1994 54.595 12.8033 55 12.3023 55Z" fill="#FEE0AB"/>
</g>
<defs>
<clipPath id="clip0_82_185">
<rect width="43" height="55" fill="white"/>
</clipPath>
</defs>
</svg>
