<svg width="106" height="115" viewBox="0 0 106 115" fill="none" xmlns="http://www.w3.org/2000/svg">
<g opacity="0.8">
<path opacity="0.5" d="M21.0181 74.0773L20.8439 74.1719C20.076 74.5117 19.1673 73.9555 19.1673 73.0729V62.2917H5.99023C5.32864 62.2917 4.79232 61.7554 4.79232 61.0938V53.9063L4.81162 53.6909C4.91305 53.1321 5.40215 52.7084 5.99023 52.7084H19.1673L19.1673 41.9271C19.1673 40.9766 20.2212 40.4047 21.0181 40.9227L44.9764 56.4956C45.7032 56.968 45.7032 58.032 44.9764 58.5044L21.0181 74.0773ZM42.1266 57.5L21.5631 44.1361L21.5631 53.9063L21.5438 54.1216C21.4424 54.6804 20.9533 55.1042 20.3652 55.1042H7.18815V59.8959H20.3652L20.5806 59.9152C21.1394 60.0166 21.5631 60.5057 21.5631 61.0938V70.8664L42.1266 57.5Z" fill="#FEE0AB"/>
<path d="M57.5 50.3125C53.5305 50.3125 50.3125 53.5305 50.3125 57.5C50.3125 61.4695 53.5305 64.6875 57.5 64.6875C61.4695 64.6875 64.6875 61.4695 64.6875 57.5C64.6875 53.5305 61.4695 50.3125 57.5 50.3125ZM57.5 52.7083C60.1464 52.7083 62.2917 54.8536 62.2917 57.5C62.2917 60.1464 60.1464 62.2917 57.5 62.2917C54.8536 62.2917 52.7083 60.1464 52.7083 57.5C52.7083 54.8536 54.8536 52.7083 57.5 52.7083Z" fill="#FEE0AB"/>
<path opacity="0.5" d="M40.923 93.981L40.8285 94.1552C40.4887 94.9231 41.0448 95.8318 41.9274 95.8318L52.7087 95.8309V109.009C52.7087 109.67 53.245 110.207 53.9066 110.207H61.0941L61.3094 110.187C61.8683 110.086 62.292 109.597 62.292 109.009V95.8309L73.0733 95.8318C74.0237 95.8318 74.5956 94.7779 74.0776 93.981L58.5047 70.0227C58.0323 69.2959 56.9684 69.2959 56.496 70.0227L40.923 93.981ZM57.5003 72.8717L70.8643 93.4351L61.0941 93.4359L60.8788 93.4552C60.3199 93.5567 59.8962 94.0458 59.8962 94.6339V107.81H55.1045V94.6339L55.0852 94.4185C54.9838 93.8597 54.4947 93.4359 53.9066 93.4359L44.134 93.4351L57.5003 72.8717Z" fill="#FEE0AB"/>
<path opacity="0.5" d="M40.923 21.0159L40.8285 20.8416C40.4887 20.0738 41.0448 19.1651 41.9274 19.1651L52.7087 19.1659V5.988C52.7087 5.32641 53.245 4.79009 53.9066 4.79009H61.0941L61.3094 4.80939C61.8683 4.91082 62.292 5.39992 62.292 5.988V19.1659L73.0733 19.1651C74.0237 19.1651 74.5956 20.2189 74.0776 21.0159L58.5047 44.9742C58.0323 45.7009 56.9684 45.7009 56.496 44.9742L40.923 21.0159ZM57.5003 42.1252L70.8643 21.5618L61.0941 21.5609L60.8788 21.5416C60.3199 21.4402 59.8962 20.9511 59.8962 20.363V7.18676H55.1045V20.363L55.0852 20.5783C54.9838 21.1372 54.4947 21.5609 53.9066 21.5609L44.134 21.5618L57.5003 42.1252Z" fill="#FEE0AB"/>
<path opacity="0.2" d="M69.3927 32.5097L65.9217 37.9112L65.5037 38.5722C65.1321 39.1645 65.3447 39.9479 65.9648 40.2711C70.0188 42.3842 72.6344 45.0539 74.7295 49.0383C75.0594 49.6655 75.8587 49.8709 76.45 49.4803L81.1171 46.458L81.7612 46.0314L82.5054 45.5188C82.9793 45.1807 83.1415 44.5508 82.8899 44.0258C80.7324 39.5253 76.0041 34.6884 70.958 32.081C70.4042 31.7948 69.7234 31.9812 69.3927 32.5097ZM70.8141 34.7396L71.1603 34.941C74.8208 37.1623 78.193 40.5932 80.1137 43.9012L80.2537 44.1552L76.2071 46.7738L76.0038 46.4238C74.1057 43.2945 71.7687 40.9253 68.5968 39.0031L68.2099 38.7766L70.5845 35.1042L70.8141 34.7396Z" fill="#FEE0AB"/>
<path opacity="0.2" d="M45.6288 32.5097L46.455 33.8129L48.8702 37.5517L49.5177 38.5722C49.8894 39.1645 49.6768 39.9479 49.0567 40.2711C45.0026 42.3842 42.3871 45.0539 40.292 49.0383C39.9621 49.6655 39.1628 49.8709 38.5715 49.4803L33.9043 46.458L32.9857 45.8458L32.5161 45.5188C32.0422 45.1807 31.88 44.5508 32.1316 44.0258C34.2891 39.5253 39.0173 34.6884 44.0634 32.081C44.6173 31.7948 45.2981 31.9812 45.6288 32.5097ZM44.2054 34.7396L43.8612 34.941C40.2007 37.1623 36.8285 40.5932 34.9078 43.9012L34.7682 44.1552L38.8148 46.7738L39.0177 46.4238C40.9158 43.2945 43.2528 40.9253 46.4247 39.0031L46.8121 38.7766L44.2054 34.7396Z" fill="#FEE0AB"/>
<path opacity="0.2" d="M69.3927 82.4902L65.9217 77.0887L65.5037 76.4278C65.1321 75.8355 65.3447 75.0521 65.9648 74.7289C70.0188 72.6158 72.6344 69.9461 74.7295 65.9617C75.0594 65.3344 75.8587 65.1291 76.45 65.5197L81.4561 68.7652L82.5054 69.4811C82.9793 69.8193 83.1415 70.4492 82.8899 70.9741C80.7324 75.4747 76.0041 80.3116 70.958 82.919C70.4042 83.2052 69.7234 83.0187 69.3927 82.4902ZM70.8141 80.2604L71.1603 80.059C74.8208 77.8377 78.193 74.4068 80.1137 71.0987L80.2537 70.8448L76.2071 68.2261L76.0038 68.5762C74.1057 71.7054 71.7687 74.0747 68.5968 75.9969L68.2099 76.2234L70.5845 79.8957L70.8141 80.2604Z" fill="#FEE0AB"/>
<path opacity="0.2" d="M45.6288 82.4902L46.455 81.1871L48.8702 77.4482L49.5177 76.4278C49.8894 75.8355 49.6768 75.0521 49.0567 74.7289C45.0026 72.6158 42.3871 69.9461 40.292 65.9617C39.9621 65.3344 39.1628 65.1291 38.5715 65.5197L33.5654 68.7652L32.5161 69.4811C32.0422 69.8193 31.88 70.4492 32.1316 70.9741C34.2891 75.4747 39.0173 80.3116 44.0634 82.919C44.6173 83.2052 45.2981 83.0187 45.6288 82.4902ZM44.2054 80.2604L43.8612 80.059C40.2007 77.8377 36.8285 74.4068 34.9078 71.0987L34.7682 70.8448L38.8148 68.2261L39.0177 68.5762C40.9158 71.7054 43.2528 74.0747 46.4247 75.9969L46.8121 76.2234L44.2054 80.2604Z" fill="#FEE0AB"/>
</g>
</svg>
