<svg width="60" height="47" viewBox="0 0 60 47" fill="none" xmlns="http://www.w3.org/2000/svg">
<path d="M9.59982 21.5237C12.2508 21.5237 14.3998 19.3822 14.3998 16.7406C14.3998 14.099 12.2508 11.9575 9.59982 11.9575C6.94885 11.9575 4.7998 14.099 4.7998 16.7406C4.7998 19.3822 6.94885 21.5237 9.59982 21.5237Z" stroke="#FEE0AB" stroke-width="2" stroke-miterlimit="10"/>
<path d="M14.2286 40.3146H4.45717C2.91431 40.3146 1.88574 39.1188 1.88574 37.5814V32.7984C1.88574 29.0402 4.80001 26.1362 8.57144 26.1362H14.5714" stroke="#FEE0AB" stroke-width="2" stroke-miterlimit="10"/>
<path d="M30.1718 17.0823C34.3377 17.0823 37.7146 13.7172 37.7146 9.56606C37.7146 5.41495 34.3377 2.0498 30.1718 2.0498C26.0061 2.0498 22.6289 5.41495 22.6289 9.56606C22.6289 13.7172 26.0061 17.0823 30.1718 17.0823Z" stroke="#FEE0AB" stroke-width="2" stroke-miterlimit="10"/>
<path d="M41.3148 43.0474H18.3433C15.9433 43.0474 14.0576 41.1684 14.0576 38.7768V31.4314C14.0576 25.6234 19.029 20.8403 25.029 20.8403H34.8005C40.8005 20.8403 45.7719 25.6234 45.7719 31.4314V38.7768C45.6005 41.1684 43.7148 43.0474 41.3148 43.0474Z" stroke="#FEE0AB" stroke-width="2" stroke-miterlimit="10"/>
<path d="M49.7141 21.5237C52.365 21.5237 54.5141 19.3822 54.5141 16.7406C54.5141 14.099 52.365 11.9575 49.7141 11.9575C47.0631 11.9575 44.9141 14.099 44.9141 16.7406C44.9141 19.3822 47.0631 21.5237 49.7141 21.5237Z" stroke="#FEE0AB" stroke-width="2" stroke-miterlimit="10"/>
<path d="M45.086 40.3146H54.8574C56.4003 40.3146 57.4289 39.1188 57.4289 37.5814V32.7984C57.4289 29.0402 54.5146 26.1362 50.7432 26.1362H44.7432" stroke="#FEE0AB" stroke-width="2" stroke-miterlimit="10"/>
</svg>
