<svg width="73" height="73" viewBox="0 0 73 73" fill="none" xmlns="http://www.w3.org/2000/svg">
<g opacity="0.5">
<path d="M43.3433 57.3051C43.2631 57.3105 43.1826 57.3105 43.1024 57.3051C42.8253 57.268 42.5603 57.1678 42.3281 57.0121C42.0958 56.8564 41.9024 56.6495 41.7629 56.4072L37.4814 48.9904L33.2146 48.3297C31.0574 48.0221 29.0583 47.0229 27.5176 45.4821C25.9768 43.9413 24.9775 41.9422 24.6699 39.7851L24.0385 35.5146L16.6217 31.2368C16.3794 31.0972 16.1724 30.9038 16.0167 30.6716C15.8611 30.4393 15.7608 30.1744 15.7238 29.8972C15.687 29.6196 15.7147 29.3373 15.8046 29.0721C15.8944 28.8069 16.0441 28.5659 16.2421 28.3679L22.6953 21.9001C23.0373 21.5589 23.5006 21.3673 23.9837 21.3672H36.1346L45.172 12.3261C46.4031 11.091 47.8928 10.1443 49.5338 9.55416C51.1748 8.96404 52.9262 8.74519 54.662 8.91338L61.7649 9.58133C62.188 9.62111 62.584 9.80732 62.8845 10.1078C63.185 10.4084 63.3712 10.8043 63.411 11.2275L64.079 18.3304C64.2474 20.0661 64.0287 21.8177 63.4385 23.4587C62.8484 25.0997 61.9016 26.5894 60.6662 27.8204L51.6179 36.8651V49.0159C51.6178 49.499 51.4261 49.9624 51.085 50.3044L44.6318 56.7576C44.4636 56.9291 44.2632 57.0658 44.0421 57.1598C43.821 57.2537 43.5835 57.3031 43.3433 57.3051ZM20.5053 29.2658L26.6446 32.799C26.8831 32.9364 27.0874 33.126 27.2423 33.3535C27.3971 33.5811 27.4985 33.8407 27.5388 34.113L28.298 39.2558C28.4939 40.6385 29.1338 41.9201 30.1212 42.9076C31.1087 43.8951 32.3903 44.535 33.773 44.7308L38.9159 45.49C39.1882 45.5303 39.4478 45.6317 39.6753 45.7866C39.9029 45.9415 40.0925 46.1458 40.2299 46.3843L43.7631 52.5053L47.9971 48.2677V36.1095C47.9981 35.6259 48.1911 35.1625 48.5336 34.8211L58.1076 25.2471C58.962 24.3944 59.6169 23.363 60.0252 22.227C60.4336 21.091 60.5851 19.8787 60.4691 18.6771L59.9399 13.078L54.3116 12.5597C53.1101 12.4442 51.8979 12.596 50.762 13.0043C49.6261 13.4126 48.5946 14.0673 47.7416 14.9213L38.1786 24.4952C37.8371 24.8377 37.3737 25.0307 36.8901 25.0318H24.7429L20.5053 29.2658Z" fill="#FEE0AB"/>
<path d="M10.6986 64.1268C10.3375 64.1268 9.98455 64.0195 9.68439 63.8188C9.38423 63.618 9.15037 63.3327 9.01243 62.999C8.87448 62.6653 8.83864 62.2981 8.90945 61.944C8.98025 61.5899 9.15452 61.2648 9.41019 61.0097L22.3056 48.1143C22.474 47.94 22.6754 47.8009 22.898 47.7053C23.1207 47.6096 23.3602 47.5593 23.6025 47.5572C23.8448 47.5551 24.0851 47.6013 24.3094 47.693C24.5337 47.7848 24.7375 47.9203 24.9088 48.0917C25.0802 48.263 25.2157 48.4668 25.3074 48.6911C25.3992 48.9153 25.4454 49.1557 25.4433 49.398C25.4412 49.6403 25.3908 49.8798 25.2952 50.1024C25.1995 50.3251 25.0605 50.5265 24.8862 50.6948L11.9907 63.5903C11.8212 63.7603 11.6199 63.8952 11.3981 63.9873C11.1764 64.0794 10.9387 64.1268 10.6986 64.1268Z" fill="#FEE0AB"/>
<path d="M10.5522 49.3224C10.1915 49.3223 9.83891 49.2153 9.53898 49.015C9.23904 48.8147 9.00518 48.53 8.86693 48.1969C8.72868 47.8638 8.69224 47.4972 8.76221 47.1433C8.83218 46.7895 9.00542 46.4644 9.26005 46.2089L16.9579 38.5074C17.3001 38.1647 17.7644 37.972 18.2487 37.9717C18.733 37.9713 19.1976 38.1634 19.5403 38.5056C19.883 38.8478 20.0757 39.3121 20.076 39.7964C20.0764 40.2807 19.8843 40.7453 19.5421 41.088L11.8406 48.7895C11.4986 49.1306 11.0352 49.3223 10.5522 49.3224Z" fill="#FEE0AB"/>
<path d="M25.3529 64.127C24.9918 64.1269 24.6388 64.0197 24.3387 63.8189C24.0385 63.6182 23.8047 63.3329 23.6667 62.9991C23.5288 62.6654 23.4929 62.2983 23.5637 61.9441C23.6345 61.59 23.8088 61.2649 24.0645 61.0099L31.755 53.312C31.9234 53.1377 32.1248 52.9987 32.3474 52.903C32.5701 52.8074 32.8096 52.7571 33.0519 52.755C33.2942 52.7528 33.5345 52.799 33.7588 52.8908C33.9831 52.9825 34.1868 53.1181 34.3582 53.2894C34.5296 53.4608 34.6651 53.6645 34.7568 53.8888C34.8486 54.1131 34.8948 54.3534 34.8927 54.5957C34.8906 54.8381 34.8402 55.0775 34.7446 55.3002C34.6489 55.5229 34.5099 55.7242 34.3356 55.8926L26.645 63.5904C26.4755 63.7605 26.2742 63.8954 26.0524 63.9874C25.8307 64.0795 25.593 64.1269 25.3529 64.127Z" fill="#FEE0AB"/>
<path d="M51.4655 26.6448C50.4548 26.6448 49.4668 26.3451 48.6265 25.7836C47.7862 25.2221 47.1312 24.424 46.7444 23.4903C46.3577 22.5566 46.2565 21.5291 46.4537 20.5379C46.6508 19.5467 47.1375 18.6361 47.8522 17.9215C48.5668 17.2068 49.4773 16.7202 50.4686 16.523C51.4598 16.3258 52.4873 16.427 53.421 16.8138C54.3547 17.2005 55.1528 17.8555 55.7143 18.6958C56.2758 19.5362 56.5755 20.5241 56.5755 21.5348C56.5755 22.8901 56.0371 24.1898 55.0788 25.1481C54.1205 26.1064 52.8207 26.6448 51.4655 26.6448ZM51.4655 20.0748C51.1767 20.0748 50.8944 20.1604 50.6543 20.3209C50.4142 20.4813 50.2271 20.7093 50.1166 20.9761C50.0061 21.2429 49.9772 21.5364 50.0335 21.8196C50.0899 22.1029 50.2289 22.363 50.4331 22.5672C50.6373 22.7714 50.8974 22.9104 51.1806 22.9668C51.4639 23.0231 51.7574 22.9942 52.0242 22.8837C52.291 22.7732 52.519 22.586 52.6794 22.3459C52.8398 22.1058 52.9255 21.8236 52.9255 21.5348C52.9255 21.1476 52.7717 20.7762 52.4978 20.5024C52.224 20.2286 51.8527 20.0748 51.4655 20.0748Z" fill="#FEE0AB"/>
</g>
</svg>
