<svg width="413" height="426" viewBox="0 0 413 426" fill="none" xmlns="http://www.w3.org/2000/svg">
<path opacity="0.2" d="M260.696 112.388L260.517 112.283L260.513 112.284C175.004 62.8308 71.8503 78.8793 20.4829 146.746C21.7948 144.212 23.1685 141.694 24.6047 139.197C77.2772 47.6171 194.073 16.3218 285.475 69.2967C376.88 122.276 408.279 239.462 355.61 331.045C354.175 333.541 352.691 335.992 351.161 338.399C384.049 259.754 346.241 161.968 260.696 112.388Z" stroke="#A2A2A2"/>
<path opacity="0.1" d="M286.263 317.277L286.367 317.098L286.366 317.095C321.361 256.534 310.418 183.586 262.998 146.527C264.312 147.227 265.62 147.951 266.919 148.698C332.262 186.281 354.592 269.616 316.794 334.833C278.992 400.051 195.378 422.456 130.032 384.876C128.734 384.129 127.452 383.364 126.188 382.581C182.17 404.983 251.142 377.874 286.263 317.277Z" stroke="#C6C6C6"/>
<path opacity="0.1" d="M213.798 309.794L213.978 309.69L213.978 309.688C256.494 285.133 275.755 237.231 260.807 197.798C261.071 198.239 261.333 198.682 261.591 199.128C288.409 245.402 272.566 304.529 226.204 331.193C179.84 357.857 120.513 341.961 93.6921 295.687C93.4347 295.243 93.1812 294.797 92.9317 294.351C119.776 327.007 171.157 334.317 213.798 309.794Z" stroke="#C6C6C6"/>
</svg>
