<svg width="142" height="100" viewBox="0 0 142 100" fill="none" xmlns="http://www.w3.org/2000/svg">
<g clip-path="url(#clip0_63_1075)">
<path opacity="0.5" d="M141.346 45.6672C140.566 42.1235 138.554 39.0663 135.68 37.0572C132.757 35.0151 129.301 34.2967 125.942 35.0361C123.787 35.5105 121.813 36.5813 120.207 38.1069C117.742 28.0271 112.15 18.8855 104.197 12.0542C95.1471 4.28163 83.5824 0 71.6351 0C70.7872 0 69.9423 0.0240964 69.1004 0.0662651C69.0944 0.064759 69.0884 0.063253 69.0824 0.061747C68.6682 -0.0466867 68.2511 -0.00753012 67.8836 0.143072C57.1923 0.945783 47.0071 5.16416 38.8715 12.2289C30.9092 19.1416 25.3565 28.3614 22.9649 38.5151C21.2495 36.8825 19.1381 35.7334 16.8309 35.2259C13.2465 34.4367 9.55226 35.2033 6.43027 37.3855C3.35647 39.5331 1.20436 42.8042 0.370026 46.5949C-0.464311 50.3855 0.115508 54.2575 2.00256 57.4985C3.91973 60.7892 6.94985 63.0361 10.5342 63.8253C11.4514 64.0271 12.373 64.125 13.2887 64.125C16.7495 64.125 20.105 62.7214 22.6863 60.2304C24.8715 70.7169 30.4001 80.2756 38.5086 87.4518C47.6502 95.5422 59.4137 99.9985 71.6336 99.9985C83.8535 99.9985 96.1697 95.3343 105.409 86.866C113.557 79.3976 118.948 69.5497 120.859 58.7937C123.215 60.8901 126.186 62.0633 129.25 62.0633C130.106 62.0633 130.971 61.9714 131.829 61.7816C135.186 61.0422 138.024 58.9382 139.817 55.8584C141.582 52.8283 142.125 49.2093 141.343 45.6657L141.346 45.6672ZM136.546 53.9533C135.292 56.1084 133.328 57.5753 131.016 58.0843C127.262 58.9111 123.349 57.009 121.277 53.3509C120.76 52.4413 119.605 52.1205 118.695 52.637C118.302 52.8599 118.021 53.2003 117.867 53.5904C117.75 53.8087 117.673 54.0527 117.649 54.3148C115.438 78.1988 95.6562 96.2108 71.6351 96.2108C47.614 96.2108 28.7857 78.9277 25.8098 56.009C25.7616 55.6385 25.6095 55.3102 25.3866 55.0437C25.2255 54.7108 24.9649 54.4217 24.6185 54.2244C23.7074 53.7093 22.5523 54.0286 22.0372 54.9383C19.7646 58.9488 15.4694 61.0316 11.3489 60.125C8.80978 59.5663 6.65316 57.9563 5.27665 55.5904C3.86852 53.1747 3.44081 50.2681 4.07033 47.4081C4.69985 44.5482 6.30979 42.0904 8.60045 40.4895C10.8444 38.9217 13.477 38.366 16.0161 38.9247C18.6622 39.5075 20.873 41.2139 22.2405 43.7289C22.6818 44.5407 23.6291 44.8991 24.4785 44.628C25.2194 44.4623 25.8188 43.8584 25.9378 43.0633C29.1622 21.6491 47.2721 5.27259 68.6878 3.88554C73.3986 5.23645 77.7495 7.9759 80.989 11.6506C83.0989 14.0452 84.2977 16.3946 84.5492 18.6355C84.8023 20.887 84.0372 23.1747 82.5523 24.6084C81.0432 26.0663 78.7209 26.6054 76.9032 25.9202C75.102 25.241 73.8279 23.2349 74.0658 21.4503C74.3008 19.6883 76.0959 18.2078 77.7616 18.4036C78.7977 18.5256 79.742 17.7831 79.864 16.744C79.986 15.7048 79.2435 14.7636 78.2044 14.6416C74.5101 14.2048 70.8143 17.1521 70.3098 20.9503C69.8384 24.497 72.0974 28.1566 75.5643 29.4639C76.5252 29.8268 77.5492 30.0015 78.5794 30.0015C80.9649 30.0015 83.3896 29.0617 85.1818 27.3328C87.5282 25.0663 88.6983 21.6566 88.3113 18.2108C87.9709 15.1837 86.4619 12.134 83.8279 9.14458C82.1953 7.29217 80.3158 5.6506 78.2646 4.25602C98.0628 7.06777 113.972 22.3087 117.25 42.5557C117.417 43.5889 118.39 44.2907 119.421 44.1235C119.463 44.116 119.506 44.1069 119.546 44.0964C120.173 44.0542 120.765 43.7048 121.085 43.1129C122.331 40.8208 124.344 39.2666 126.754 38.7364C129.064 38.2274 131.463 38.7349 133.507 40.1626C135.599 41.625 137.069 43.869 137.644 46.4819C138.219 49.0949 137.828 51.7485 136.543 53.9548L136.546 53.9533Z" fill="#FEE0AB"/>
<path d="M60.7938 47.7425C60.0182 47.7425 59.3902 47.1145 59.3902 46.3389C59.3902 41.8479 55.7366 38.1943 51.2456 38.1943C46.7546 38.1943 43.2712 41.634 43.107 46.0271C43.0784 46.8027 42.4278 47.4066 41.6507 47.378C40.8751 47.3494 40.2712 46.6973 40.2998 45.9217C40.5212 40.0136 45.3299 35.3855 51.2456 35.3855C57.1612 35.3855 62.1989 40.2997 62.1989 46.3389C62.1989 47.1145 61.5709 47.7425 60.7953 47.7425H60.7938Z" fill="#FEE0AB"/>
<path d="M108 47.7425C107.224 47.7425 106.596 47.1145 106.596 46.3389C106.596 41.8479 102.943 38.1943 98.4516 38.1943C93.9607 38.1943 90.4772 41.634 90.3131 46.0271C90.2845 46.8027 89.6339 47.4066 88.8568 47.378C88.0812 47.3494 87.4772 46.6973 87.5059 45.9217C87.7272 40.0136 92.536 35.3855 98.4516 35.3855C104.367 35.3855 109.405 40.2997 109.405 46.3389C109.405 47.1145 108.777 47.7425 108.001 47.7425H108Z" fill="#FEE0AB"/>
<path d="M74.4997 79.3946C66.9334 79.3946 59.4726 75.7545 54.8506 69.7515C54.212 68.9232 54.3671 67.7334 55.1955 67.0949C56.0253 66.4563 57.2135 66.6114 57.8521 67.4398C61.9229 72.7274 68.5976 75.8509 75.2632 75.5919C81.9319 75.3328 88.34 71.7018 91.9906 66.116C92.5629 65.2395 93.7361 64.994 94.6126 65.5663C95.4876 66.1386 95.7346 67.3117 95.1623 68.1883C90.8521 74.7846 83.2843 79.0723 75.4108 79.378C75.1081 79.3901 74.8039 79.3961 74.5012 79.3961L74.4997 79.3946Z" fill="#FEE0AB"/>
<path d="M104.662 58.5873C107.282 58.5873 109.405 57.7391 109.405 56.6928C109.405 55.6464 107.282 54.7982 104.662 54.7982C102.043 54.7982 99.9199 55.6464 99.9199 56.6928C99.9199 57.7391 102.043 58.5873 104.662 58.5873Z" fill="#FFD17E"/>
<path d="M43.6038 58.5873C46.223 58.5873 48.3463 57.7391 48.3463 56.6928C48.3463 55.6464 46.223 54.7982 43.6038 54.7982C40.9846 54.7982 38.8613 55.6464 38.8613 56.6928C38.8613 57.7391 40.9846 58.5873 43.6038 58.5873Z" fill="#FFD17E"/>
</g>
<defs>
<clipPath id="clip0_63_1075">
<rect width="141.694" height="100" fill="white"/>
</clipPath>
</defs>
</svg>
