<svg width="98" height="100" viewBox="0 0 98 100" fill="none" xmlns="http://www.w3.org/2000/svg">
<g clip-path="url(#clip0_62_871)">
<path d="M48.6253 100C47.6605 100 46.8887 99.2282 46.8887 98.2634V72.6001C46.8887 71.6353 47.6605 70.8635 48.6253 70.8635C49.5901 70.8635 50.3619 71.6353 50.3619 72.6001V98.2634C50.3619 99.2282 49.5901 100 48.6253 100Z" fill="#FEE0AB"/>
<path d="M48.6257 23.2996C42.2098 23.2996 37 18.0897 37 11.6739C37 5.25807 42.2098 0.048233 48.6257 0.048233C55.0415 0.048233 60.2513 5.25807 60.2513 11.6739C60.2513 18.0897 55.0415 23.2996 48.6257 23.2996ZM48.6257 3.47322C44.0912 3.47322 40.425 7.13941 40.425 11.6739C40.425 16.2084 44.0912 19.8746 48.6257 19.8746C53.1602 19.8746 56.8263 16.2084 56.8263 11.6739C56.8263 7.13941 53.1602 3.47322 48.6257 3.47322Z" fill="#FEE0AB"/>
<path d="M48.6255 100H36.0833C35.1185 100 34.3467 99.2282 34.3467 98.2634V53.3526C34.3467 52.3878 35.1185 51.616 36.0833 51.616C37.0481 51.616 37.8199 52.3878 37.8199 53.3526V96.575H46.9371V65.1712C46.9371 64.2065 47.709 63.4346 48.6737 63.4346C49.6385 63.4346 50.4104 64.2065 50.4104 65.1712V98.2634C50.4104 99.2282 49.6385 100 48.6737 100H48.6255Z" fill="#FEE0AB"/>
<path d="M48.8663 56.2952C48.8663 56.2952 48.4804 56.2952 48.3357 56.2952L34.1051 54.9445C29.0882 54.4621 25.2773 50.2653 25.2773 45.2484V39.0738C25.2773 31.645 31.3073 25.6151 38.7361 25.6151H58.5624C65.9913 25.6151 72.0212 31.645 72.0212 39.0738V45.2484C72.0212 50.3136 68.2103 54.4621 63.1934 54.9445L50.7959 56.1505C50.7959 56.1505 50.5547 56.1505 50.41 56.1505C49.9276 56.2952 49.397 56.3435 48.9146 56.3435L48.8663 56.2952ZM38.7361 28.9918C33.1886 28.9918 28.7023 33.4781 28.7023 39.0256V45.2002C28.7023 48.4805 31.1625 51.1819 34.4428 51.5195L48.6734 52.8702C49.9276 52.9667 51.0371 52.0984 51.1818 50.8442C51.3265 49.59 50.4582 48.4805 49.204 48.2875L35.8417 46.2615C34.9252 46.1167 34.2981 45.2967 34.3946 44.3319L35.4558 35.89C35.5523 34.9252 36.4206 34.2981 37.3854 34.3946C38.3019 34.4911 38.9773 35.3594 38.8808 36.3242L38.0608 43.0777L49.7829 44.8625C52.8702 45.3449 54.9927 48.1428 54.6551 51.2301C54.6551 51.616 54.5103 51.9537 54.4139 52.3396L62.904 51.5195C66.1842 51.1819 68.6444 48.4805 68.6444 45.2002V39.0256C68.6444 33.4781 64.1582 28.9918 58.6107 28.9918H38.7843H38.7361Z" fill="#FEE0AB"/>
<path d="M48.6251 48.1428C47.805 48.1428 47.0815 47.5157 46.9367 46.6956C46.792 45.7791 47.4191 44.8625 48.3839 44.766L59.286 43.1259L58.4659 36.3724C58.3694 35.4076 58.9966 34.5876 59.9613 34.4428C60.9261 34.2981 61.7462 34.9735 61.8909 35.9383L62.9522 44.3801C63.0487 45.2967 62.4215 46.165 61.505 46.3097L48.9628 48.191C48.9628 48.191 48.7698 48.191 48.7216 48.191L48.6251 48.1428Z" fill="#FEE0AB"/>
<path d="M61.1675 100H48.6253C47.6605 100 46.8887 99.2282 46.8887 98.2634V65.1712C46.8887 64.2065 47.6605 63.4346 48.6253 63.4346C49.5901 63.4346 50.3619 64.2065 50.3619 65.1712V96.575H59.4791V53.3526C59.4791 52.3878 60.2509 51.616 61.2157 51.616C62.1805 51.616 62.9523 52.3878 62.9523 53.3526V98.2634C62.9523 99.2282 62.1805 100 61.2157 100H61.1675Z" fill="#FEE0AB"/>
<path d="M70.285 100H26.9661C26.0013 100 25.2295 99.2282 25.2295 98.2634C25.2295 97.2986 26.0013 96.5268 26.9661 96.5268H70.285C71.2498 96.5268 72.0216 97.2986 72.0216 98.2634C72.0216 99.2282 71.2498 100 70.285 100Z" fill="#FEE0AB"/>
<path d="M45.8275 18.0415C45.8275 18.0415 45.5381 18.0415 45.3451 17.9932C44.4286 17.7521 43.898 16.7873 44.1392 15.8707C44.5733 14.2788 46.3582 13.2176 48.5772 13.2176C50.7962 13.2176 52.581 14.2788 53.0152 15.8707C53.2564 16.7873 52.7257 17.7521 51.8092 17.9932C50.9409 18.2344 50.0726 17.7521 49.7349 16.932C49.5902 16.8355 49.156 16.6425 48.5772 16.6425C47.9983 16.6425 47.5641 16.8355 47.4194 16.932C47.1782 17.6073 46.5029 18.0415 45.8275 18.0415Z" fill="#FEE0AB"/>
<path opacity="0.5" d="M91.1718 39.0256C90.6412 39.0256 90.1105 38.7844 89.7729 38.302C83.8877 29.7636 86.0584 18.0897 94.5968 12.2045C95.3686 11.6739 96.4299 11.8669 96.9605 12.6387C97.4911 13.4105 97.2982 14.4718 96.5264 15.0024C89.5799 19.7781 87.7951 29.3777 92.619 36.3242C93.1496 37.096 92.9567 38.1573 92.1848 38.6879C91.8954 38.8808 91.5577 38.9773 91.22 38.9773L91.1718 39.0256Z" fill="#FEE0AB"/>
<path opacity="0.5" d="M85.914 42.6435C85.3834 42.6435 84.8527 42.4023 84.5151 41.9199C76.6521 30.4872 79.5464 14.8095 90.9309 6.94645C91.7027 6.41582 92.764 6.60878 93.2946 7.38061C93.8253 8.15244 93.6323 9.2137 92.8605 9.74433C83.0197 16.5461 80.5112 30.1013 87.313 39.9421C87.8436 40.7139 87.6506 41.7752 86.8788 42.3058C86.5894 42.4988 86.2517 42.5953 85.914 42.5953V42.6435Z" fill="#FEE0AB"/>
<path opacity="0.5" d="M80.6564 46.2615C80.1258 46.2615 79.5952 46.0203 79.2575 45.5379C69.3684 31.2108 72.9864 11.5292 87.3135 1.68837C88.0853 1.15774 89.1465 1.35069 89.6772 2.12252C90.2078 2.89435 90.0149 3.95561 89.243 4.48624C76.4596 13.2658 73.2758 30.8249 82.0554 43.5601C82.586 44.3319 82.3931 45.3931 81.6212 45.9238C81.3318 46.1167 80.9941 46.2132 80.6564 46.2132V46.2615Z" fill="#FEE0AB"/>
<path opacity="0.5" d="M6.07796 39.0256C5.74029 39.0256 5.40261 38.9291 5.11318 38.7361C4.34135 38.2055 4.14839 37.1442 4.67903 36.3724C9.45471 29.426 7.7181 19.8263 0.771645 15.0507C-0.000183452 14.52 -0.193141 13.4588 0.337491 12.6869C0.868123 11.9151 1.92939 11.7221 2.70122 12.2528C11.2396 18.138 13.3621 29.8601 7.52514 38.3502C7.18747 38.8326 6.65684 39.0738 6.1262 39.0738L6.07796 39.0256Z" fill="#FEE0AB"/>
<path opacity="0.5" d="M11.3363 42.6435C10.9986 42.6435 10.6609 42.547 10.3715 42.3541C9.59965 41.8234 9.40669 40.7622 9.93732 39.9903C13.2176 35.2147 14.4718 29.4259 13.4106 23.7337C12.3493 18.0415 9.1655 13.0728 4.38981 9.79256C3.61798 9.26193 3.42502 8.20067 3.95566 7.42884C4.48629 6.65701 5.54755 6.46406 6.31938 6.99469C11.8669 10.8056 15.5813 16.5461 16.7873 23.1548C17.9933 29.7636 16.5943 36.4689 12.7834 41.9682C12.4458 42.4505 11.9151 42.6917 11.3845 42.6917L11.3363 42.6435Z" fill="#FEE0AB"/>
<path opacity="0.5" d="M16.5946 46.2615C16.2569 46.2615 15.9192 46.165 15.6298 45.972C14.8579 45.4414 14.665 44.3801 15.1956 43.6083C23.9752 30.8249 20.7431 13.314 8.00797 4.53449C7.23614 4.00386 7.04319 2.9426 7.57382 2.17077C8.10445 1.39894 9.16572 1.20598 9.93754 1.73662C24.2646 11.6257 27.8826 31.3073 17.9935 45.5861C17.6558 46.0685 17.1252 46.3097 16.5946 46.3097V46.2615Z" fill="#FEE0AB"/>
</g>
<defs>
<clipPath id="clip0_62_871">
<rect width="97.2504" height="100" fill="white"/>
</clipPath>
</defs>
</svg>
