<svg width="93" height="93" viewBox="0 0 93 93" fill="none" xmlns="http://www.w3.org/2000/svg">
<g clip-path="url(#clip0_63_1172)">
<path d="M44.8389 62.5923V64.8841C44.8389 65.7975 45.5862 66.5448 46.4996 66.5448C47.413 66.5448 48.1603 65.7975 48.1603 64.8841V62.5923C48.1603 61.6789 47.413 60.9316 46.4996 60.9316C45.5862 60.9316 44.8389 61.6789 44.8389 62.5923Z" fill="#FFD17E"/>
<path d="M92.9669 45.0221C92.9835 44.9224 93.0001 44.8062 93.0001 44.6899V36.3199C93.0001 36.2037 92.9835 36.0874 92.9669 35.9878C92.7012 32.218 87.6526 29.1622 77.954 26.9369C78.2198 24.7281 78.6183 22.536 79.0999 20.3605L83.2019 2.02617C83.4012 1.12939 82.8531 0.24921 81.9564 0.0499243C81.0596 -0.149361 80.1628 0.415282 79.9635 1.31207L75.8615 19.6464C75.2471 22.3699 74.7987 25.1267 74.4998 27.9001C74.4832 28.0164 74.4665 28.1326 74.4665 28.2322C74.1676 30.989 74.0182 33.7624 74.0514 36.5358C74.0514 38.7114 74.151 40.8703 74.3669 43.0292C67.176 44.4408 57.7099 45.404 46.5001 45.404C36.1373 45.404 26.3557 44.5571 18.6333 43.0624C18.9987 39.1597 19.0651 35.2239 18.7994 31.3046C18.6167 28.3817 18.2514 25.4422 17.7033 22.536C17.7199 22.536 17.7199 22.4862 17.7033 22.453C17.7033 22.4197 17.7033 22.4031 17.6867 22.3699C17.6867 22.3367 17.6867 22.3035 17.6535 22.2703C17.5207 21.3901 17.338 20.5099 17.1387 19.6464L16.5242 16.873C21.0912 15.8433 26.8871 15.013 33.9617 14.4981H34.078C34.078 14.4981 34.1942 14.4815 34.2607 14.4649C34.3271 14.4649 34.3769 14.4151 34.4433 14.3985C34.5264 14.3653 34.6094 14.3487 34.6924 14.3155C34.8087 14.249 34.9083 14.1826 35.0246 14.0996C35.0744 14.0664 35.1242 14.0331 35.174 13.9833C35.174 13.9833 35.174 13.9833 35.1907 13.9667C35.2571 13.9003 35.3235 13.8172 35.3733 13.7176C35.3899 13.6844 35.4065 13.6346 35.4232 13.6014C35.4564 13.5349 35.4896 13.4685 35.5062 13.4021C35.5726 13.2194 35.6224 13.0367 35.6224 12.8374V12.7212V4.46742V4.35117C35.6224 4.35117 35.6058 4.23492 35.5892 4.1851C35.5892 4.10207 35.5394 4.01903 35.5062 3.936C35.4896 3.88617 35.473 3.83635 35.4564 3.78653C35.3899 3.63707 35.3069 3.50421 35.1907 3.37135C35.174 3.33814 35.1574 3.33814 35.1242 3.30492C35.1242 3.30492 35.1076 3.28832 35.091 3.27171C35.091 3.27171 35.091 3.27171 35.0744 3.2551C34.9914 3.18867 34.9249 3.12225 34.8253 3.07242C34.7921 3.05582 34.7589 3.03921 34.7257 3.0226C34.6426 2.97278 34.5762 2.93957 34.4932 2.90635C34.3437 2.85653 34.1776 2.80671 33.9949 2.80671C33.9783 2.80671 33.9617 2.80671 33.9451 2.80671H33.8455C26.9867 3.28832 19.9121 4.21832 14.0165 5.67975L13.0367 1.31207C12.8374 0.415282 11.9407 -0.149361 11.0439 0.0499243C10.1471 0.24921 9.59905 1.12939 9.79833 2.02617L10.8114 6.55992C4.58369 8.45314 0.282439 11.0605 0.033332 14.4483C0.0167249 14.548 0.000117759 14.6642 0.000117759 14.7805V23.1505C0.000117759 23.2667 0.0167249 23.383 0.033332 23.4826C0.299046 27.3189 5.51369 30.4078 15.5444 32.6331C15.7105 35.8715 15.644 39.1265 15.3617 42.3483C12.3724 41.6342 9.79833 40.8205 7.73905 39.9071H7.70583C7.67262 39.9071 7.6394 39.8905 7.60619 39.8739C7.53976 39.8406 7.48994 39.824 7.42351 39.8074C7.37369 39.8074 7.32387 39.8074 7.25744 39.8074C7.1744 39.8074 7.10798 39.7576 7.02494 39.7576C6.95851 39.7576 6.90869 39.7908 6.85887 39.7908C6.02851 39.8905 5.38083 40.5547 5.38083 41.4183V49.7883C5.38083 50.1205 5.49708 50.4028 5.66315 50.6519C5.74619 50.7847 5.84583 50.9176 5.96208 51.0172C5.96208 51.0172 5.96208 51.0339 5.97869 51.0505C6.04512 51.1169 6.12815 51.1501 6.21119 51.1999C6.27762 51.2331 6.31083 51.283 6.37726 51.3162C8.3369 52.1797 10.7283 52.9603 13.4519 53.6578C13.0201 55.4015 12.5053 57.1453 11.9407 58.8558C9.83155 65.2164 7.29065 71.2115 4.35119 76.6587C3.40458 78.4356 2.59083 80.3787 1.92655 82.4712C1.87672 82.5542 1.84351 82.6373 1.8269 82.7369C1.8269 82.7535 1.8103 82.7867 1.8103 82.8033C0.996546 85.3442 0.398689 88.1342 0.000117759 91.1069C-0.116132 92.0203 0.514939 92.8506 1.42833 92.9669C1.49476 92.9669 1.5778 92.9669 1.64423 92.9669C2.47458 92.9669 3.17208 92.369 3.28833 91.5221C3.60387 89.0974 4.06887 87.0049 4.56708 85.1615C8.02137 85.9587 12.7378 86.6728 18.3676 87.2042C18.4174 87.2042 18.4673 87.2042 18.5337 87.2042C19.3807 87.2042 20.1114 86.5565 20.1778 85.693C20.2608 84.7796 19.5965 83.9658 18.6832 83.8828C13.3357 83.368 8.88494 82.7203 5.61333 81.973C6.19458 80.4285 6.77583 79.1664 7.30726 78.2031C7.80548 77.2731 8.28708 76.3265 8.76869 75.3467C15.644 77.6219 30.0258 79.0833 46.3507 79.0833C62.6755 79.0833 77.4226 77.5721 84.1817 75.2637C84.6799 76.2601 85.1782 77.2399 85.693 78.2031C86.2078 79.1497 86.789 80.3787 87.3703 81.8899C79.1498 83.8164 63.4394 85.0453 46.334 85.0453C39.9901 85.0453 33.8289 84.8792 28.033 84.5637C27.1196 84.5139 26.339 85.2114 26.2892 86.1248C26.2394 87.0381 26.9369 87.8187 27.8503 87.8685C33.7126 88.2006 39.9237 88.3501 46.334 88.3501C63.8214 88.3501 79.9635 87.0714 88.3999 85.0453C88.8982 86.9053 89.3632 89.0476 89.6953 91.4889C89.8115 92.3358 90.509 92.9337 91.3394 92.9337C91.4058 92.9337 91.4889 92.9337 91.5553 92.9337C92.4687 92.8174 93.0998 91.9871 92.9835 91.0737C92.5849 88.0512 91.9705 85.2446 91.1401 82.6705C91.1401 82.6539 91.1401 82.6207 91.1401 82.604C91.1069 82.521 91.0737 82.438 91.0405 82.3549C90.3762 80.2956 89.579 78.3858 88.649 76.6421C87.9515 75.3467 87.2707 74.0181 86.623 72.6564C86.623 72.6564 86.623 72.6231 86.5898 72.6065C86.5898 72.5733 86.5898 72.5235 86.5565 72.4737C86.5399 72.4405 86.5067 72.4073 86.4735 72.374C86.4735 72.3408 86.4403 72.3076 86.4237 72.2744C84.3976 68.0396 82.604 63.539 81.043 58.8392C80.4783 57.1287 79.9635 55.3849 79.5317 53.6412C87.4201 51.6317 92.7012 48.7255 92.9669 44.9889V45.0221ZM13.9003 20.3605C13.9003 20.3605 13.9003 20.4435 13.9335 20.4767C12.0569 19.9951 10.4792 19.4803 9.16726 18.9987C10.363 18.5337 11.7414 18.0853 13.3024 17.6701L13.9003 20.3605ZM11.5421 9.79832C12.5219 9.49939 13.5848 9.20046 14.7307 8.91814C19.2146 7.80546 25.0437 6.84225 32.301 6.261V11.293C26.6048 11.7414 20.8421 12.5219 15.7935 13.6346C14.6808 13.8837 13.6014 14.1494 12.5717 14.4317C9.76512 15.1956 7.27405 16.0758 5.28119 17.0889C4.56708 17.4542 3.9028 17.8362 3.32155 18.2347V14.7971C3.32155 13.4187 5.9953 11.5089 11.5421 9.79832ZM3.32155 23.1671C3.32155 22.5028 3.93601 21.7222 5.21476 20.8753C7.55637 22.071 10.6951 23.1505 14.631 24.0639C14.9133 25.7578 15.1458 27.4683 15.2953 29.1955C5.89565 26.9535 3.32155 24.313 3.32155 23.1671ZM89.6787 36.3199C89.6787 37.0506 89.0476 37.8312 87.8187 38.6117C85.2778 37.2997 81.7903 36.1539 77.3728 35.1906C77.3894 33.5465 77.4558 31.9024 77.6053 30.2749C87.1046 32.5169 89.6787 35.1574 89.6787 36.3199ZM77.406 38.5951C80.0465 39.2096 82.1557 39.8572 83.833 40.5049C82.1224 41.1526 80.0465 41.7671 77.6385 42.3317C77.5223 41.0862 77.4392 39.8406 77.406 38.5951ZM77.8876 59.9187C79.3158 64.2199 80.9433 68.3551 82.7535 72.291C76.3266 74.3835 61.9448 75.8117 46.3673 75.8117C30.7898 75.8117 16.8065 74.4499 10.2301 72.374C12.0569 68.4215 13.701 64.2532 15.1292 59.9187C15.7271 58.0919 16.2751 56.2485 16.7235 54.4051C24.8942 56.1322 35.4232 57.1121 46.5167 57.1121C57.6103 57.1121 67.8569 56.2153 76.3099 54.4217C76.7749 56.2651 77.3064 58.1085 77.9042 59.9187H77.8876ZM78.801 50.4194C77.788 50.6851 76.6919 50.9342 75.546 51.1667C68.2389 52.7112 58.3244 53.7906 46.5001 53.7906C35.6058 53.7906 25.326 52.844 17.4376 51.1833C16.3083 50.9508 15.2123 50.7017 14.1992 50.436C12.1233 49.9046 10.2799 49.3233 8.68565 48.6922V43.8596C10.529 44.5239 12.6548 45.1383 14.9964 45.6697C16.0426 45.9189 17.1221 46.1347 18.2514 46.3506C20.4601 46.7658 22.8349 47.1478 25.326 47.4633V49.0576C25.326 49.971 26.0733 50.7183 26.9867 50.7183C27.9001 50.7183 28.6474 49.971 28.6474 49.0576V47.8453C33.7126 48.3601 39.1764 48.6756 44.8394 48.7089V49.7883C44.8394 50.7017 45.5867 51.449 46.5001 51.449C47.4135 51.449 48.1608 50.7017 48.1608 49.7883V48.7089C53.6744 48.6756 59.188 48.3767 64.3528 47.8453V49.0576C64.3528 49.971 65.0835 50.7183 66.0135 50.7183C66.9435 50.7183 67.6742 49.971 67.6742 49.0576V47.4799C70.1487 47.1644 72.5235 46.799 74.7489 46.3672C75.8782 46.1514 76.9576 45.9189 78.0039 45.6864C81.8733 44.773 85.1948 43.6935 87.719 42.3981C88.4332 42.0328 89.0974 41.6508 89.6787 41.2522V44.6899C89.6787 46.4835 85.7926 48.6424 78.801 50.4194Z" fill="#FEE0AB"/>
</g>
<defs>
<clipPath id="clip0_63_1172">
<rect width="93" height="93" fill="white"/>
</clipPath>
</defs>
</svg>
