<svg width="103" height="112" viewBox="0 0 103 112" fill="none" xmlns="http://www.w3.org/2000/svg">
<g clip-path="url(#clip0_63_1438)">
<path d="M1.80537 112C0.820624 112 0 111.202 0 110.192V97.3045C0 96.3186 0.797177 95.4969 1.80537 95.4969H43.6103C44.595 95.4969 45.4157 96.2951 45.4157 97.3045C45.4157 98.314 44.6185 99.1121 43.6103 99.1121H3.5873V110.192C3.5873 111.178 2.79012 112 1.78193 112H1.80537Z" fill="#FEE0AB"/>
<path d="M43.6101 103.572C42.6253 103.572 41.8047 102.774 41.8047 101.765V85.6843C41.8047 84.6983 42.6019 83.8767 43.6101 83.8767H63.5629C64.5477 83.8767 65.3683 84.6749 65.3683 85.6843C65.3683 86.6937 64.5711 87.4919 63.5629 87.4919H45.392V101.788C45.392 102.774 44.5948 103.596 43.5866 103.596L43.6101 103.572Z" fill="#FEE0AB"/>
<path d="M63.5632 91.9288C62.5784 91.9288 61.7578 91.1306 61.7578 90.1212V66.0122C61.7578 65.0262 62.555 64.2046 63.5632 64.2046H101.195C102.179 64.2046 103 65.0027 103 66.0122C103 67.0216 102.203 67.8198 101.195 67.8198H65.3686V90.1212C65.3686 91.1071 64.5714 91.9288 63.5632 91.9288Z" fill="#FEE0AB"/>
<path opacity="0.5" d="M22.696 98.5018C21.7112 98.5018 20.8906 97.7037 20.8906 96.6942V71.6228C20.8906 70.6368 21.6878 69.8152 22.696 69.8152C23.7042 69.8152 24.5014 70.6133 24.5014 71.6228V96.6942C24.5014 97.6802 23.7042 98.5018 22.696 98.5018Z" fill="#FEE0AB"/>
<path d="M11.6765 64.8149C10.6917 64.8149 9.87109 64.0167 9.87109 63.0073V41.997C9.87109 41.0111 10.6683 40.1895 11.6765 40.1895C12.6847 40.1895 13.4818 40.9876 13.4818 41.997V63.0073C13.4818 63.9933 12.6847 64.8149 11.6765 64.8149Z" fill="#FEE0AB"/>
<path d="M33.739 64.8149C32.7542 64.8149 31.9336 64.0167 31.9336 63.0073V41.997C31.9336 41.0111 32.7308 40.1895 33.739 40.1895C34.7472 40.1895 35.5443 40.9876 35.5443 41.997V63.0073C35.5443 63.9933 34.7472 64.8149 33.739 64.8149Z" fill="#FEE0AB"/>
<path d="M11.6766 55.237H3.63447C2.64973 55.237 1.8291 54.4388 1.8291 53.4294C1.8291 52.42 2.62628 51.6218 3.63447 51.6218H11.6531C12.6379 51.6218 13.4585 52.42 13.4585 53.4294C13.4585 54.4388 12.6613 55.237 11.6531 55.237H11.6766Z" fill="#FEE0AB"/>
<path d="M33.7396 98.5017H11.6766C10.6918 98.5017 9.8712 97.7036 9.8712 96.6942V64.7914C5.41639 64.6036 1.85254 60.6363 1.85254 55.777V35.5883C1.85254 30.2829 5.86187 25.9635 10.7622 25.9635H34.654C39.5778 25.9635 43.5637 30.2829 43.5637 35.5883V55.777C43.5637 60.6363 39.9998 64.6036 35.545 64.7914V96.6942C35.545 97.6801 34.7478 98.5017 33.7396 98.5017ZM13.4585 94.91H31.9343V63.0308C31.9343 62.0448 32.7314 61.2232 33.7396 61.2232H35.1933C37.8193 61.2232 39.9764 58.7818 39.9764 55.8004V35.6118C39.9764 32.3018 37.5848 29.6021 34.654 29.6021H10.7622C7.83137 29.6021 5.43984 32.3018 5.43984 35.6118V55.8004C5.43984 58.7818 7.57346 61.2232 10.2229 61.2232H11.6766C12.6613 61.2232 13.4819 62.0214 13.4819 63.0308V94.91H13.4585Z" fill="#FEE0AB"/>
<path d="M11.6766 55.237H3.63447C2.64973 55.237 1.8291 54.4388 1.8291 53.4294C1.8291 52.42 2.62628 51.6218 3.63447 51.6218H11.6531C12.6379 51.6218 13.4585 52.42 13.4585 53.4294C13.4585 54.4388 12.6613 55.237 11.6531 55.237H11.6766Z" fill="#FEE0AB"/>
<path d="M41.7576 55.237H33.739C32.7542 55.237 31.9336 54.4388 31.9336 53.4294C31.9336 52.42 32.7308 51.6218 33.739 51.6218H41.7576C42.7424 51.6218 43.563 52.42 43.563 53.4294C43.563 54.4388 42.7658 55.237 41.7576 55.237Z" fill="#FEE0AB"/>
<path d="M41.7576 55.237H33.739C32.7542 55.237 31.9336 54.4388 31.9336 53.4294C31.9336 52.42 32.7308 51.6218 33.739 51.6218H41.7576C42.7424 51.6218 43.563 52.42 43.563 53.4294C43.563 54.4388 42.7658 55.237 41.7576 55.237Z" fill="#FEE0AB"/>
<path d="M33.7395 62.1623H11.6765C10.6917 62.1623 9.87109 61.3641 9.87109 60.3547C9.87109 59.3453 10.6683 58.5471 11.6765 58.5471H33.7395C34.7243 58.5471 35.5449 59.3453 35.5449 60.3547C35.5449 61.3641 34.7477 62.1623 33.7395 62.1623Z" fill="#FEE0AB"/>
<path opacity="0.5" d="M93.4575 67.8198H70.7849C69.8001 67.8198 68.9795 67.0216 68.9795 66.0122V59.8382C68.9795 52.5844 74.8645 46.6921 82.1095 46.6921C89.3544 46.6921 95.2395 52.5844 95.2395 59.8382V66.0122C95.2395 66.9982 94.4423 67.8198 93.4341 67.8198H93.4575ZM72.5668 64.2281H91.6522V59.8617C91.6522 54.6033 87.3615 50.3073 82.1095 50.3073C76.8575 50.3073 72.5668 54.6033 72.5668 59.8617V64.2281Z" fill="#FEE0AB"/>
<path d="M82.1091 50.3073C81.1243 50.3073 80.3037 49.5091 80.3037 48.4997V11.8315C80.3037 10.8456 81.1009 10.0239 82.1091 10.0239C83.1173 10.0239 83.9145 10.8221 83.9145 11.8315V48.4997C83.9145 49.4857 83.1173 50.3073 82.1091 50.3073Z" fill="#FEE0AB"/>
<path d="M101.194 31.668H82.1091C81.1243 31.668 80.3037 30.8698 80.3037 29.8604C80.3037 28.851 81.1009 28.0528 82.1091 28.0528H98.0995L95.6377 23.7334C95.3329 23.17 95.3329 22.5127 95.6377 21.9493L98.0995 17.6298H82.1091C81.1243 17.6298 80.3037 16.8317 80.3037 15.8222C80.3037 14.8128 81.1009 14.0146 82.1091 14.0146H101.194C101.827 14.0146 102.437 14.3668 102.742 14.9067C103.07 15.4701 103.07 16.1509 102.742 16.6908L99.2484 22.8178L102.742 28.9449C103.07 29.5083 103.047 30.189 102.742 30.729C102.414 31.2924 101.827 31.621 101.194 31.621V31.668Z" fill="#FEE0AB"/>
<path d="M22.6957 22.7944C16.5058 22.7944 11.4414 17.6768 11.4414 11.3855C11.4414 5.09411 16.5058 0 22.6957 0C28.8855 0 33.9499 5.11759 33.9499 11.4089C33.9499 17.7003 28.909 22.8179 22.6957 22.8179V22.7944ZM22.6957 3.5917C18.4753 3.5917 15.0522 7.0895 15.0522 11.3855C15.0522 15.6814 18.4753 19.1792 22.6957 19.1792C26.916 19.1792 30.3392 15.6814 30.3392 11.3855C30.3392 7.0895 26.916 3.5917 22.6957 3.5917Z" fill="#FEE0AB"/>
<path d="M66.4943 30.2125C65.5096 30.2125 64.689 29.4143 64.689 28.4049V24.062C64.689 24.062 64.478 23.9916 64.3607 23.9212C63.4932 23.4517 63.165 22.3718 63.6339 21.4797L64.9 19.1088C65.2986 18.381 66.1192 18.0054 66.9164 18.2167C67.7136 18.428 68.2763 19.1322 68.2763 19.9539V28.3814C68.2763 29.3674 67.4791 30.189 66.4709 30.189L66.4943 30.2125Z" fill="#FEE0AB"/>
<path d="M66.4938 30.2126C65.5091 30.2126 64.6885 29.4144 64.6885 28.405V19.9774C64.6885 19.1558 65.2512 18.4281 66.0484 18.2403C66.8455 18.029 67.6896 18.4046 68.0648 19.1323L69.3309 21.5033C69.7998 22.3719 69.4715 23.4752 68.604 23.9447C68.5102 23.9917 68.393 24.0386 68.2758 24.0856V28.4285C68.2758 29.4144 67.4786 30.2361 66.4704 30.2361L66.4938 30.2126Z" fill="#FEE0AB"/>
<path d="M55.9436 57.3028C54.9588 57.3028 54.1382 56.5047 54.1382 55.4952V51.1523C54.1382 51.1523 53.9272 51.0819 53.8099 51.0115C52.9424 50.542 52.6142 49.4621 53.0831 48.5701L54.3492 46.1991C54.7478 45.4714 55.5684 45.0958 56.3656 45.307C57.1628 45.5183 57.7255 46.2226 57.7255 47.0442V55.4718C57.7255 56.4577 56.9283 57.2794 55.9201 57.2794L55.9436 57.3028Z" fill="#FEE0AB"/>
<path d="M55.9431 57.3029C54.9583 57.3029 54.1377 56.5048 54.1377 55.4953V47.0677C54.1377 46.2461 54.7004 45.5184 55.4976 45.3306C56.2948 45.1193 57.1388 45.4949 57.514 46.2226L58.7801 48.5936C59.249 49.4622 58.9208 50.5655 58.0532 51.0351C57.9595 51.082 57.8422 51.129 57.725 51.1759V55.5188C57.725 56.5048 56.9278 57.3264 55.9196 57.3264L55.9431 57.3029Z" fill="#FEE0AB"/>
</g>
<defs>
<clipPath id="clip0_63_1438">
<rect width="103" height="112" fill="white"/>
</clipPath>
</defs>
</svg>
