<svg width="105" height="103" viewBox="0 0 105 103" fill="none" xmlns="http://www.w3.org/2000/svg">
<g clip-path="url(#clip0_63_1259)">
<path d="M51.1572 103C50.2623 103 49.5166 102.272 49.5166 101.351V79.3856C49.5166 78.4864 50.241 77.7371 51.1572 77.7371C52.0734 77.7371 52.7979 78.465 52.7979 79.3856V101.351C52.7979 102.251 52.0734 103 51.1572 103Z" fill="#FEE0AB"/>
<path d="M51.1572 37.3163C45.5961 37.3163 41.0791 32.7776 41.0791 27.1898C41.0791 21.6019 45.5961 17.0632 51.1572 17.0632C56.7183 17.0632 61.2353 21.6019 61.2353 27.1898C61.2353 32.7776 56.7183 37.3163 51.1572 37.3163ZM51.1572 20.3174C47.3859 20.3174 44.339 23.4003 44.339 27.1683C44.339 30.9364 47.4072 34.0193 51.1572 34.0193C54.9072 34.0193 57.9754 30.9364 57.9754 27.1683C57.9754 23.4003 54.9072 20.3174 51.1572 20.3174Z" fill="#FEE0AB"/>
<path d="M51.1581 103H40.4834C39.5885 103 38.8428 102.272 38.8428 101.352V62.9005C38.8428 62.0013 39.5672 61.252 40.4834 61.252C41.3996 61.252 42.124 61.9799 42.124 62.9005V99.703H49.5388V73.0056C49.5388 72.1064 50.2632 71.3571 51.1794 71.3571C52.0956 71.3571 52.82 72.085 52.82 73.0056V101.352C52.82 102.251 52.0956 103 51.1794 103H51.1581Z" fill="#FEE0AB"/>
<path d="M51.3497 65.5766C51.2006 65.5766 51.0301 65.5766 50.8596 65.5552L38.7574 64.3777C34.3895 63.9495 31.0869 60.3099 31.0869 55.8996V50.6115C31.0869 44.1673 36.3071 38.9221 42.7204 38.9221H59.6167C66.0301 38.9221 71.2503 44.1673 71.2503 50.6115V55.8996C71.2503 60.3099 67.9477 63.9709 63.5798 64.3777L52.9903 65.4053C52.8838 65.4053 52.7559 65.4053 52.6494 65.4053C52.2233 65.5124 51.7971 65.5766 51.3497 65.5766ZM42.7204 42.1977C38.1182 42.1977 34.3469 45.9657 34.3469 50.6115V55.8996C34.3469 58.6186 36.371 60.8666 39.0557 61.1235L51.1579 62.301C52.1381 62.408 53.0116 61.6801 53.1395 60.6953C53.246 59.7105 52.5855 58.8327 51.6054 58.6828L40.2275 56.9487C39.354 56.8202 38.7361 56.0067 38.8426 55.1289L39.7375 47.9139C39.844 47.0148 40.675 46.3725 41.5486 46.4795C42.4434 46.5866 43.0827 47.4001 42.9761 48.2993L42.273 53.93L52.0954 55.4286C54.8227 55.8354 56.6977 58.3189 56.3781 61.0592C56.3568 61.2947 56.3142 61.5517 56.2503 61.7872L63.2602 61.1021C65.9449 60.8452 67.969 58.5972 67.969 55.8782V50.5901C67.969 45.9443 64.219 42.1763 59.5954 42.1763H42.6991L42.7204 42.1977Z" fill="#FEE0AB"/>
<path d="M51.158 58.5972C50.3697 58.5972 49.6666 58.0191 49.5387 57.2055C49.4109 56.3064 50.0075 55.4714 50.9023 55.3429L60.0004 53.9513L59.2972 48.3207C59.1907 47.4215 59.8299 46.608 60.7248 46.5009C61.6197 46.3939 62.4293 47.0361 62.5359 47.9353L63.4308 55.1503C63.5373 56.028 62.9407 56.8416 62.0458 56.97L51.3711 58.5972C51.3711 58.5972 51.2006 58.5972 51.1154 58.5972H51.158Z" fill="#FEE0AB"/>
<path d="M61.8319 103H51.1572C50.2623 103 49.5166 102.272 49.5166 101.352V73.0056C49.5166 72.1064 50.241 71.3571 51.1572 71.3571C52.0734 71.3571 52.7979 72.085 52.7979 73.0056V99.703H60.2126V62.9005C60.2126 62.0013 60.9371 61.252 61.8533 61.252C62.7694 61.252 63.4939 61.9799 63.4939 62.9005V101.352C63.4939 102.251 62.7694 103 61.8533 103H61.8319Z" fill="#FEE0AB"/>
<path d="M69.6095 103H32.7061C31.8112 103 31.0654 102.272 31.0654 101.352C31.0654 100.431 31.7899 99.703 32.7061 99.703H69.5882C70.483 99.703 71.2288 100.431 71.2288 101.352C71.2288 102.272 70.5043 103 69.5882 103H69.6095Z" fill="#FEE0AB"/>
<path opacity="0.5" d="M61.8328 93.1946C61.1083 93.1946 60.4478 92.7022 60.2561 91.9742C60.0217 91.0965 60.533 90.1973 61.4066 89.9618C62.2163 89.7477 63.0259 89.4908 63.8143 89.2339C64.6666 88.9341 65.6041 89.4051 65.8811 90.2615C66.158 91.1179 65.7106 92.0599 64.8583 92.3382C64.0061 92.6379 63.1325 92.8948 62.2589 93.1303C62.1097 93.1732 61.9819 93.1946 61.8328 93.1946Z" fill="#FEE0AB"/>
<path opacity="0.5" d="M75.1496 86.8788C74.6382 86.8788 74.1481 86.6433 73.8285 86.1937C73.2959 85.4658 73.4663 84.4382 74.2121 83.9029C75.7888 82.7682 77.3015 81.5051 78.7078 80.1349C79.347 79.514 80.391 79.514 81.0089 80.1777C81.6268 80.82 81.6268 81.869 80.9663 82.4899C79.4535 83.9671 77.8129 85.3373 76.1084 86.5577C75.8101 86.7718 75.4905 86.8574 75.1496 86.8574V86.8788ZM87.2305 73.2839C86.9535 73.2839 86.6979 73.2197 86.4422 73.0698C85.6538 72.6202 85.3768 71.6354 85.803 70.8433C86.7405 69.1305 87.5714 67.3322 88.2533 65.5124C88.5729 64.656 89.5104 64.2278 90.3626 64.5489C91.2149 64.8701 91.641 65.8121 91.3214 66.6685C90.5757 68.6595 89.6808 70.5864 88.6581 72.449C88.3598 72.9842 87.8058 73.2839 87.2305 73.2839Z" fill="#FEE0AB"/>
<path opacity="0.5" d="M92.3437 55.7711C91.3423 55.7069 90.6604 54.9362 90.7031 54.037C90.7457 53.202 90.7883 52.3671 90.7883 51.5107C90.7883 50.6115 91.5127 49.8622 92.4289 49.8622C93.3451 49.8622 94.0695 50.5901 94.0695 51.5107C94.0695 52.4313 94.0482 53.3305 93.9843 54.2297C93.9204 55.1075 93.2173 55.7711 92.365 55.7711H92.3437Z" fill="#FEE0AB"/>
<path d="M48.5366 11.7537C47.6843 11.7537 46.9598 11.09 46.9172 10.2122C46.8533 9.31305 47.5351 8.52091 48.4513 8.47809C49.3462 8.41387 50.2624 8.39246 51.1573 8.39246C52.0522 8.39246 52.7979 9.12037 52.7979 10.041C52.7979 10.9616 52.0735 11.6895 51.1573 11.6895C50.305 11.6895 49.4741 11.7109 48.6431 11.7751C48.6005 11.7751 48.5792 11.7751 48.5366 11.7751V11.7537Z" fill="#FEE0AB"/>
<path opacity="0.5" d="M29.0409 88.1419C28.7426 88.1419 28.4443 88.0563 28.1673 87.885C26.7185 86.9644 25.3335 85.9582 24.0125 84.8663C23.3094 84.2883 23.2028 83.2606 23.7781 82.5541C24.3534 81.8476 25.3761 81.7406 26.0793 82.3186C27.2937 83.3249 28.5935 84.2669 29.9145 85.1018C30.6815 85.5942 30.8946 86.6005 30.4258 87.3712C30.1062 87.8636 29.5949 88.1205 29.0409 88.1205V88.1419ZM18.217 78.101C17.727 78.101 17.2369 77.8869 16.9173 77.4587C15.8946 76.0885 14.9358 74.6541 14.0835 73.1769C13.6361 72.3847 13.8918 71.3999 14.6801 70.9289C15.4685 70.4793 16.4486 70.7362 16.9173 71.5283C17.7057 72.8985 18.6006 74.2259 19.5381 75.4891C20.092 76.217 19.9429 77.2446 19.2185 77.7799C18.9202 77.9939 18.5793 78.101 18.2383 78.101H18.217ZM11.5693 64.8915C10.8662 64.8915 10.2057 64.4205 10.0139 63.714C9.52386 62.0654 9.14034 60.3741 8.86335 58.6828C8.7142 57.7836 9.31079 56.9486 10.2057 56.7988C11.0793 56.6489 11.9315 57.2484 12.0807 58.1475C12.3364 59.7104 12.6986 61.2733 13.146 62.7934C13.4017 63.6711 12.9116 64.5703 12.0381 64.8272C11.8889 64.8701 11.7185 64.8915 11.5693 64.8915ZM9.99261 50.1619C9.99261 50.1619 9.90738 50.1619 9.88608 50.1619C8.99119 50.0977 8.30937 49.3055 8.37329 48.4063C8.50113 46.6936 8.7142 44.9808 9.0338 43.2895C9.20426 42.3903 10.0565 41.8337 10.9514 41.9835C11.8463 42.1548 12.4216 43.0112 12.2511 43.9104C11.9528 45.4519 11.7398 47.0575 11.6332 48.6418C11.5693 49.4982 10.8449 50.1619 10.0139 50.1619H9.99261ZM13.6361 35.8177C13.4017 35.8177 13.1673 35.7749 12.9543 35.6678C12.1446 35.2824 11.7824 34.319 12.1446 33.4841C12.8477 31.9212 13.6787 30.4011 14.5736 28.9453C15.0423 28.1746 16.0437 27.9391 16.8108 28.4101C17.5778 28.8811 17.8122 29.8873 17.3435 30.658C16.5125 32.0068 15.7668 33.4198 15.1062 34.8543C14.8293 35.4537 14.2327 35.8177 13.6148 35.8177H13.6361ZM22.0736 23.7C21.6474 23.7 21.2426 23.5288 20.923 23.2076C20.2838 22.5653 20.2838 21.5163 20.923 20.8954C22.1375 19.6965 23.4372 18.5404 24.7795 17.4913C25.4827 16.9347 26.5267 17.0632 27.0807 17.7697C27.6347 18.4762 27.5068 19.5252 26.8037 20.0819C25.5679 21.0453 24.3747 22.1157 23.2455 23.229C22.9258 23.5502 22.521 23.7 22.0949 23.7H22.0736ZM34.2185 15.3076C33.6006 15.3076 33.004 14.9436 32.727 14.3442C32.3648 13.5092 32.727 12.5458 33.5366 12.1818C35.092 11.4753 36.7114 10.8545 38.3307 10.3406C39.183 10.0837 40.0991 10.5547 40.3761 11.4111C40.6531 12.2675 40.1631 13.1881 39.3108 13.4664C37.8193 13.9374 36.3278 14.5155 34.879 15.1577C34.6659 15.2648 34.4315 15.3076 34.2185 15.3076Z" fill="#FEE0AB"/>
<path opacity="0.5" d="M40.4616 93.1946C40.3124 93.1946 40.1846 93.1946 40.0355 93.1303C39.1619 92.8948 38.2883 92.6379 37.436 92.3382C36.5837 92.0385 36.115 91.1179 36.4133 90.2615C36.7116 89.4051 37.6278 88.9341 38.4801 89.2339C39.2684 89.5122 40.0781 89.7477 40.8877 89.9618C41.7613 90.1973 42.2727 91.0965 42.0383 91.9742C41.8465 92.7022 41.186 93.1946 40.4616 93.1946Z" fill="#FEE0AB"/>
<path d="M89.0834 36.7811C88.4442 36.7811 87.8476 36.4172 87.5919 35.7963C81.3277 21.1524 67.0308 11.6895 51.1572 11.6895C50.2623 11.6895 49.5166 10.9616 49.5166 10.041C49.5166 9.12037 50.241 8.39246 51.1572 8.39246C68.3305 8.39246 83.7993 18.6261 90.5962 34.4904C90.9584 35.3253 90.5748 36.2887 89.7439 36.6527C89.5308 36.7383 89.3177 36.7811 89.1047 36.7811H89.0834Z" fill="#FEE0AB"/>
<path opacity="0.5" d="M33.0685 27.7036C32.5571 27.7036 32.0671 27.4681 31.7475 27.0185C31.2148 26.2906 31.3853 25.263 32.131 24.7277C32.8767 24.1925 33.6438 23.6787 34.4321 23.2077C35.1992 22.7367 36.2006 22.9936 36.6694 23.7857C37.1381 24.5564 36.8824 25.5627 36.0941 26.0337C35.391 26.4619 34.6878 26.9115 34.0273 27.4039C33.7503 27.618 33.4094 27.7036 33.0685 27.7036Z" fill="#FEE0AB"/>
<path opacity="0.5" d="M30.32 76.3455C29.9365 76.3455 29.5316 76.1956 29.2333 75.9173C28.0188 74.8254 26.8896 73.6265 25.8669 72.3848C25.2916 71.6783 25.3981 70.6506 26.1012 70.0726C26.8044 69.4945 27.8271 69.6016 28.4024 70.2867C29.3186 71.4214 30.3413 72.4918 31.4279 73.4766C32.0884 74.0761 32.1524 75.1252 31.5558 75.7888C31.2362 76.1528 30.7887 76.3241 30.3413 76.3241L30.32 76.3455ZM22.3725 65.02C21.7333 65.02 21.1154 64.6346 20.8598 63.9923C20.2419 62.4723 19.7305 60.9094 19.347 59.3251C19.1339 58.4473 19.6666 57.5481 20.5402 57.3341C21.4137 57.12 22.3086 57.6552 22.5217 58.533C22.8626 59.946 23.3313 61.359 23.8853 62.7292C24.2262 63.5642 23.8214 64.5276 22.9904 64.8701C22.7774 64.9558 22.5856 64.9986 22.3725 64.9986V65.02ZM20.0927 51.3609C19.0913 51.318 18.4095 50.5259 18.4521 49.6267C18.5373 47.9996 18.7504 46.3725 19.0913 44.7668C19.2831 43.889 20.1353 43.311 21.0302 43.5037C21.9038 43.6963 22.4791 44.5527 22.2873 45.4519C21.989 46.8863 21.7973 48.3422 21.712 49.8194C21.6694 50.6972 20.945 51.3609 20.0927 51.3609ZM23.9066 38.0443C23.6296 38.0443 23.374 37.9801 23.1183 37.8302C22.3299 37.402 22.0529 36.3958 22.4791 35.6036C23.2674 34.1692 24.1623 32.799 25.1424 31.5145C25.6964 30.7866 26.7191 30.6581 27.4223 31.2147C28.1467 31.7714 28.2745 32.799 27.7206 33.5055C26.8257 34.6616 26.016 35.9034 25.3129 37.1879C25.0146 37.7232 24.4606 38.0443 23.8853 38.0443H23.9066Z" fill="#FEE0AB"/>
<path opacity="0.5" d="M40.4619 82.4899C40.2702 82.4899 40.0784 82.4471 39.908 82.3829C39.0557 82.0617 38.2034 81.7192 37.3725 81.3338C36.5628 80.9484 36.2006 79.985 36.5841 79.1501C36.9676 78.3365 37.9264 77.9725 38.7574 78.3579C39.5031 78.7005 40.2702 79.0216 41.0372 79.2999C41.8895 79.6211 42.3156 80.5631 42.0173 81.398C41.783 82.0617 41.1438 82.4685 40.4833 82.4685L40.4619 82.4899Z" fill="#FEE0AB"/>
<path d="M69.6942 78.2509C69.2042 78.2509 68.6928 78.0154 68.3732 77.5872C67.8406 76.8593 67.9897 75.8316 68.7141 75.2964C76.2781 69.6443 80.6246 60.9736 80.6246 51.5107C80.6246 41.1272 75.1062 31.3646 66.2212 26.0551C65.4542 25.5841 65.1985 24.5778 65.646 23.8071C66.1147 23.0364 67.1161 22.7794 67.8832 23.229C77.7482 29.138 83.8846 39.9711 83.8846 51.5107C83.8846 61.8728 78.9414 71.7425 70.6531 77.9297C70.3548 78.1438 70.0139 78.2509 69.6729 78.2509H69.6942Z" fill="#FEE0AB"/>
<path d="M100.696 50.3974C100.206 50.3974 99.7369 50.1833 99.4173 49.7765L95.7313 45.1521C95.1773 44.4456 95.2838 43.418 95.9869 42.8399C96.6901 42.2619 97.7128 42.3903 98.2881 43.0968L100.397 45.7302L101.91 42.7115C102.315 41.8979 103.295 41.5768 104.105 41.9836C104.915 42.3903 105.234 43.3752 104.829 44.1887L102.166 49.4768C101.91 49.9692 101.42 50.3118 100.888 50.376C100.824 50.376 100.781 50.376 100.717 50.376L100.696 50.3974Z" fill="#FEE0AB"/>
<path d="M89.0833 36.7811C88.7637 36.7811 88.4441 36.6955 88.1671 36.5028L83.2879 33.163C82.5421 32.6491 82.3504 31.6429 82.8617 30.8936C83.3731 30.1443 84.3958 29.9516 85.1203 30.4654L87.9115 32.3708L88.4867 29.031C88.6359 28.1318 89.4882 27.5537 90.3617 27.6822C91.2566 27.8321 91.8532 28.6884 91.6828 29.5662L90.6813 35.4109C90.5961 35.9676 90.2126 36.4172 89.7012 36.6527C89.4882 36.7383 89.2751 36.7811 89.062 36.7811H89.0833Z" fill="#FEE0AB"/>
<path d="M69.6946 78.2509C69.2685 78.2509 68.8424 78.0796 68.5441 77.7799C68.1605 77.3945 67.9901 76.8165 68.0966 76.2812L69.3324 70.4793C69.5242 69.6015 70.3978 69.0235 71.2714 69.2162C72.1449 69.4089 72.7202 70.2866 72.5285 71.1644L71.8253 74.4614L75.1066 73.7335C76.0015 73.5408 76.8537 74.0975 77.0455 74.9967C77.2373 75.8745 76.6833 76.7522 75.7884 76.9449L70.0356 78.2081C69.929 78.2295 69.8012 78.2509 69.6946 78.2509Z" fill="#FEE0AB"/>
<path opacity="0.5" d="M73.5938 97.6263C72.9972 97.6263 72.4219 97.3052 72.1449 96.7271C71.7401 95.9135 72.0597 94.9287 72.8693 94.5219C73.6151 94.1366 74.3608 93.7298 75.0852 93.3016C75.8736 92.852 76.8537 93.1089 77.3225 93.9011C77.7699 94.6932 77.5142 95.678 76.7259 96.149C75.9588 96.5986 75.1492 97.0268 74.3608 97.4336C74.1264 97.5621 73.8707 97.6049 73.6151 97.6049L73.5938 97.6263Z" fill="#FEE0AB"/>
<path opacity="0.5" d="M83.501 90.9466C83.0322 90.9466 82.5848 90.7539 82.2652 90.3685C81.6686 89.6834 81.7538 88.6558 82.4356 88.0563C83.5649 87.0715 84.6728 86.0224 85.7169 84.9306C86.3348 84.2669 87.3788 84.2669 88.018 84.8878C88.6572 85.5086 88.6785 86.5577 88.0606 87.2C86.9527 88.3561 85.7808 89.4693 84.5663 90.5184C84.268 90.7753 83.8845 90.9252 83.501 90.9252V90.9466ZM92.7055 80.3918C92.4072 80.3918 92.0876 80.3062 91.8106 80.1135C91.0649 79.6211 90.8518 78.5934 91.3419 77.8441C92.1728 76.581 92.9399 75.275 93.643 73.9262C94.0692 73.1341 95.0493 72.8129 95.8376 73.2411C96.626 73.6693 96.9456 74.6541 96.5194 75.4463C95.7737 76.8593 94.9427 78.2723 94.0692 79.6211C93.7495 80.0921 93.2382 80.3704 92.7055 80.3704V80.3918Z" fill="#FEE0AB"/>
<path opacity="0.5" d="M98.6506 67.6533C98.5014 67.6533 98.331 67.6319 98.1818 67.589C97.3295 67.3321 96.8395 66.4115 97.0952 65.5338C97.3295 64.7202 97.5639 63.9067 97.7557 63.0931C97.9687 62.2153 98.8636 61.6801 99.7372 61.8942C100.611 62.1083 101.143 63.0075 100.93 63.8852C100.717 64.763 100.483 65.6408 100.206 66.4972C99.9929 67.2037 99.3537 67.6533 98.6506 67.6533Z" fill="#FEE0AB"/>
<path d="M17.0669 16.9133C16.6408 16.9133 16.1934 16.7421 15.8738 16.3995C15.2559 15.7358 15.2772 14.7082 15.9377 14.0873C16.5982 13.4664 17.2587 12.867 17.9405 12.2889C18.6223 11.7109 19.6451 11.7751 20.2417 12.4816C20.8169 13.1667 20.753 14.2158 20.0499 14.7938C19.4107 15.3505 18.7715 15.9071 18.1749 16.4851C17.8553 16.7849 17.4505 16.9347 17.0456 16.9347L17.0669 16.9133Z" fill="#FEE0AB"/>
<path opacity="0.5" d="M17.621 89.8761C17.2375 89.8761 16.8327 89.7263 16.5131 89.4479C15.1495 88.1848 13.8284 86.836 12.5926 85.423C11.996 84.7379 12.06 83.7103 12.7418 83.1108C13.4236 82.5113 14.4463 82.5756 15.0429 83.2607C16.1935 84.588 17.4293 85.8512 18.7077 87.0287C19.3682 87.6496 19.4108 88.6772 18.8142 89.3409C18.4946 89.6834 18.0472 89.8761 17.621 89.8761ZM7.60684 77.052C7.03156 77.052 6.47758 76.7522 6.17929 76.1956C5.2844 74.5471 4.47474 72.8343 3.75031 71.1002C3.4094 70.2652 3.79292 69.3018 4.6452 68.9593C5.47616 68.6167 6.43497 69.0021 6.77588 69.8585C7.43639 71.4856 8.20343 73.0698 9.0344 74.6113C9.46054 75.4035 9.18355 76.4097 8.3952 76.8379C8.13951 76.9663 7.88383 77.0306 7.60684 77.0306V77.052ZM2.25883 61.6587C1.47048 61.6587 0.788661 61.1021 0.66082 60.2885C0.341218 58.4473 0.12815 56.5633 0.0216158 54.7007C-0.0423047 53.8015 0.66082 53.0094 1.55571 52.9665C2.4719 52.9023 3.23895 53.6088 3.28156 54.508C3.38809 56.2636 3.60116 58.0191 3.89946 59.7533C4.0486 60.6525 3.45201 61.4874 2.57843 61.6587C2.49321 61.6587 2.38667 61.6801 2.30145 61.6801L2.25883 61.6587ZM2.13099 45.3448C2.13099 45.3448 1.96054 45.3448 1.87531 45.3448C0.980423 45.195 0.383832 44.36 0.511673 43.4608C0.809968 41.6196 1.19349 39.757 1.68355 37.9586C1.91792 37.0809 2.81281 36.567 3.68639 36.8025C4.55997 37.0381 5.07133 37.9372 4.83696 38.815C4.38951 40.5063 4.00599 42.2405 3.75031 43.9747C3.62247 44.7882 2.91934 45.3663 2.13099 45.3663V45.3448ZM7.24463 29.8659C6.98895 29.8659 6.73326 29.8017 6.47758 29.6733C5.68923 29.2451 5.36963 28.2602 5.79576 27.4467C6.66934 25.7982 7.62815 24.1711 8.67219 22.6082C9.18355 21.8589 10.185 21.6662 10.9307 22.18C11.6764 22.6938 11.8682 23.7001 11.3568 24.4494C10.3767 25.9052 9.46054 27.4253 8.65088 28.9668C8.35258 29.5234 7.7986 29.8445 7.20201 29.8445L7.24463 29.8659Z" fill="#FEE0AB"/>
<path d="M28.7002 97.6049C28.4445 97.6049 28.1888 97.5406 27.9545 97.4336C27.1448 97.0268 26.3565 96.5986 25.5894 96.149C24.8011 95.6995 24.5454 94.6932 24.9928 93.9011C25.4403 93.1089 26.4417 92.852 27.23 93.3016C27.9545 93.7298 28.7002 94.1366 29.446 94.5005C30.2556 94.9073 30.5752 95.8921 30.1704 96.7057C29.8721 97.2837 29.3181 97.6049 28.7215 97.6049H28.7002Z" fill="#FEE0AB"/>
<path d="M100.696 50.269C99.844 50.269 99.1196 49.5839 99.077 48.7275C97.6494 23.2505 76.5983 3.27562 51.1579 3.27562C39.7588 3.27562 28.7219 7.36479 20.0713 14.7724C19.3895 15.3504 18.3454 15.2862 17.7702 14.5797C17.1949 13.8946 17.2588 12.8456 17.9619 12.2675C27.2091 4.36749 38.9917 0 51.1579 0C78.3241 0 100.803 21.3236 102.337 48.5348C102.38 49.434 101.698 50.2047 100.803 50.269C100.782 50.269 100.739 50.269 100.718 50.269H100.696Z" fill="#FEE0AB"/>
</g>
<defs>
<clipPath id="clip0_63_1259">
<rect width="105" height="103" fill="white"/>
</clipPath>
</defs>
</svg>
