<svg width="108" height="100" viewBox="0 0 108 100" fill="none" xmlns="http://www.w3.org/2000/svg">
<g clip-path="url(#clip0_62_754)">
<path d="M60.5473 41.6024C49.0778 41.6024 39.7461 32.2707 39.7461 20.8012C39.7461 9.33175 49.0778 0 60.5473 0C72.0167 0 81.3484 9.33175 81.3484 20.8012C81.3484 32.2707 72.0167 41.6024 60.5473 41.6024ZM60.5473 3.707C51.1216 3.707 43.4531 11.3755 43.4531 20.8012C43.4531 30.2269 51.1216 37.8954 60.5473 37.8954C69.9729 37.8954 77.6414 30.2269 77.6414 20.8012C77.6414 11.3755 69.9729 3.707 60.5473 3.707Z" fill="#FEE0AB"/>
<path d="M18.2775 84.0748C11.9434 84.0748 6.53124 81.0894 3.81031 78.2078C0.580282 74.79 -0.704808 70.0154 0.37269 65.4384C0.375162 65.4286 0.377633 65.4187 0.380104 65.4063L10.4087 25.8675C12.1362 18.8242 16.8268 12.8584 23.2769 9.51219L26.6874 7.74271C34.2052 3.84295 42.6472 2.02405 51.1041 2.4763C52.1272 2.53067 52.9106 3.40552 52.8563 4.42618C52.8019 5.44931 51.9295 6.23026 50.9064 6.17836C43.1094 5.75823 35.3271 7.43874 28.3975 11.0321L24.9871 12.8015C19.4859 15.6559 15.4849 20.7444 14.0095 26.7621L3.9833 66.2985C3.19989 69.6545 4.14394 73.1539 6.509 75.6599C8.49841 77.7679 11.6914 79.4039 15.045 80.0415C17.9512 80.5927 22.4021 80.6594 27.1001 77.8346C27.9774 77.3058 29.1167 77.59 29.6431 78.4673C30.1695 79.3446 29.8877 80.4839 29.0104 81.0103C25.3504 83.2098 21.6829 84.0698 18.2824 84.0698L18.2775 84.0748Z" fill="#FEE0AB"/>
<path d="M26.0917 69.395C23.6402 69.395 21.2998 68.2928 19.7379 66.3775C18.05 64.3065 17.4792 61.5386 18.2057 58.9709L26.3166 27.8815C26.5761 26.8905 27.5869 26.2974 28.5779 26.5569C29.5689 26.8164 30.162 27.8272 29.9025 28.8182L21.7867 59.9273C21.7842 59.9421 21.7793 59.9545 21.7743 59.9693C21.3641 61.4002 21.6705 62.883 22.6096 64.0371C23.5512 65.1912 24.9426 65.7893 26.4254 65.6781L69.4586 62.4382C70.8079 62.3369 71.9052 61.3335 72.1251 59.9965L72.8987 55.3035C73.257 53.1237 71.8459 51.0626 69.681 50.6153L68.6257 50.3954C66.7376 50.0024 64.8594 50.9539 64.0563 52.7061L62.3362 56.46C62.052 57.0779 61.4539 57.4931 60.7743 57.5375L33.1078 59.3836C32.5122 59.4232 31.9339 59.1736 31.5558 58.7139C31.1753 58.2542 31.0418 57.6389 31.1925 57.063L35.8436 39.4078C36.1031 38.4168 37.1188 37.8262 38.1073 38.0881C39.0983 38.3476 39.689 39.3634 39.427 40.3519L35.4333 55.5135L59.425 53.9121L60.6854 51.1615C62.2126 47.8277 65.7887 46.0187 69.377 46.765L70.4323 46.9849C74.547 47.84 77.2358 51.7596 76.5538 55.9065L75.7802 60.5995C75.281 63.6269 72.7949 65.903 69.7354 66.1328L26.7021 69.3727C26.497 69.3876 26.2919 69.395 26.0868 69.395H26.0917Z" fill="#FEE0AB"/>
<path d="M46.5422 58.4668C46.3915 58.4668 46.2358 58.447 46.0826 58.4075C45.0916 58.1554 44.491 57.1446 44.7456 56.1536L46.347 49.8863C46.7375 48.3615 46.4063 46.7749 45.44 45.5318C44.4737 44.2887 43.0181 43.577 41.4464 43.577H37.8086C36.7854 43.577 35.9551 42.7466 35.9551 41.7235C35.9551 40.7004 36.7854 39.87 37.8086 39.87H41.4464C44.1722 39.87 46.6955 41.1057 48.3686 43.2582C50.0416 45.4107 50.6125 48.1613 49.9378 50.8032L48.3364 57.0705C48.1214 57.9082 47.3677 58.4668 46.5422 58.4668Z" fill="#FEE0AB"/>
<path d="M43.8462 100H31.0224C28.6994 100 26.537 98.9596 25.0838 97.1456C23.6332 95.3316 23.0944 92.9913 23.6035 90.7251C23.6085 90.6979 23.6159 90.6707 23.6233 90.6435L29.898 67.717C30.1674 66.7309 31.188 66.1477 32.1741 66.4195C33.1626 66.6889 33.7434 67.7096 33.4715 68.6956L27.2092 91.5777C26.9621 92.7269 27.2413 93.9106 27.9753 94.83C28.7192 95.7592 29.8288 96.293 31.0175 96.293H43.8412C45.2474 96.293 46.3892 95.1488 46.3892 93.745C46.3892 92.3413 45.2449 91.1971 43.8412 91.1971H38.3845C37.8062 91.1971 37.2625 90.9277 36.9116 90.4705C36.5607 90.0109 36.4445 89.4153 36.5953 88.8592L42.7687 66.1403C43.038 65.1517 44.0537 64.5685 45.0423 64.8379C46.0308 65.1072 46.614 66.1254 46.3447 67.1115L40.8064 87.4926H43.8387C47.2887 87.4926 50.0937 90.3 50.0937 93.7475C50.0937 97.195 47.2862 100.002 43.8387 100.002L43.8462 100Z" fill="#FEE0AB"/>
<path d="M46.2079 84.9941C46.0349 84.9941 45.857 84.9694 45.6815 84.9175C44.7004 84.6283 44.1394 83.5978 44.4286 82.6142L49.4256 65.6781C49.7147 64.697 50.7453 64.136 51.7289 64.4252C52.71 64.7143 53.271 65.7449 52.9818 66.7285L47.9848 83.6645C47.7476 84.4702 47.0086 84.9941 46.2079 84.9941Z" fill="#FEE0AB"/>
<path d="M62.788 94.6644H53.7158C52.6927 94.6644 51.8623 93.834 51.8623 92.8109C51.8623 91.7878 52.6927 90.9574 53.7158 90.9574H62.788C64.1942 90.9574 65.336 89.8132 65.336 88.4094C65.336 87.0057 64.1918 85.8615 62.788 85.8615H57.3314C56.7382 85.8615 56.1797 85.5773 55.8313 85.0979C55.4828 84.6184 55.3839 83.9981 55.5693 83.4346L61.7649 64.4375C62.0812 63.4638 63.1291 62.9325 64.1028 63.2488C65.0765 63.5651 65.6078 64.613 65.2915 65.5867L59.8892 82.157H62.793C66.243 82.157 69.0479 84.9644 69.0479 88.4119C69.0479 91.8594 66.2405 94.6669 62.793 94.6669L62.788 94.6644Z" fill="#FEE0AB"/>
<path d="M101.154 87.6878C100.232 87.6878 99.3026 87.4802 98.4377 87.0428L72.3652 73.8558C72.0785 73.71 71.8338 73.4925 71.6559 73.2256L69.5479 70.0425C68.9819 69.1899 69.2167 68.0382 70.0693 67.4748C70.9219 66.9088 72.0736 67.1436 72.637 67.9962L74.4757 70.7715L100.111 83.7386C101.203 84.2922 102.56 83.9067 103.202 82.8638C103.553 82.2929 103.647 81.6207 103.464 80.9757C103.281 80.3307 102.849 79.8067 102.251 79.5052L80.1449 68.3694C79.8681 68.231 79.6309 68.0234 79.4554 67.7689L77.1299 64.4128C76.5467 63.5726 76.7567 62.416 77.597 61.8327C78.4397 61.2495 79.5938 61.4596 80.177 62.2998L82.2357 65.2679L103.919 76.1936C105.434 76.9573 106.568 78.3313 107.03 79.9624C107.493 81.5935 107.25 83.358 106.361 84.8038C105.226 86.6498 103.215 87.6928 101.156 87.6928L101.154 87.6878Z" fill="#FEE0AB"/>
</g>
<defs>
<clipPath id="clip0_62_754">
<rect width="107.258" height="100" fill="white"/>
</clipPath>
</defs>
</svg>
