<svg width="110" height="109" viewBox="0 0 110 109" fill="none" xmlns="http://www.w3.org/2000/svg">
<g clip-path="url(#clip0_65_1519)">
<path d="M96.8653 47.9947H95.2371C93.1243 41.4647 89.4077 35.5635 84.3079 30.7937C77.7678 24.6756 69.4389 20.8504 60.4401 19.7493C61.6626 18.8953 62.7545 17.8573 63.6257 16.6133C66.2804 12.8156 66.7324 6.57119 62.8879 2.69383C61.1644 0.955611 58.8745 0 56.4376 0C54.0007 0 51.7109 0.955611 49.9874 2.69383C46.4314 6.28012 46.4314 12.1154 49.9874 15.7017C50.6245 16.3442 51.6592 16.3442 52.299 15.7017C52.9361 15.0591 52.9361 14.0156 52.299 13.3703C50.0173 11.0692 50.0173 7.3236 52.299 5.02245C53.4045 3.90757 54.8748 3.29246 56.4376 3.29246C58.0005 3.29246 59.4708 3.90757 60.5762 5.02245C63.0866 7.55427 62.798 12.0769 60.9547 14.7131C59.0842 17.3905 55.7733 18.8486 52.6012 19.4802C42.4998 20.0156 33.0572 23.9397 25.801 30.6702C20.6386 35.4592 16.873 41.4043 14.7411 47.9947H13.1319C5.88936 47.9947 0 53.9371 0 61.2387C0 68.5403 5.89208 74.4827 13.1319 74.4827H13.3007C16.6198 94.5697 33.9285 109 55 109C76.0715 109 93.3802 94.5725 96.6993 74.4827H96.8681C104.111 74.4827 110 68.5403 110 61.2387C110 53.9371 104.108 47.9947 96.8681 47.9947H96.8653ZM95.2889 71.1902C94.4693 71.1902 93.775 71.8026 93.6688 72.6236C91.1693 91.7935 74.9062 105.708 54.9973 105.708C35.0884 105.708 18.8252 91.7935 16.3257 72.6236C16.2196 71.8026 15.5252 71.1902 14.7057 71.1902H13.1292C7.68911 71.1902 3.2646 66.728 3.2646 61.2414C3.2646 55.7549 7.68911 51.2927 13.1292 51.2927H13.8235C13.2436 53.7696 12.8842 56.3179 12.7616 58.9183C12.7181 59.8273 13.4151 60.5989 14.3163 60.6428C15.2149 60.6867 15.9827 59.9838 16.0262 59.0748C16.0262 59.0501 16.029 59.0282 16.0317 59.0034C16.1624 56.3398 16.5545 53.7641 17.1807 51.2927C17.3223 50.738 17.472 50.1888 17.6381 49.6451C17.8069 49.0904 17.9839 48.5412 18.1772 47.9975C22.8196 34.8413 34.4104 25.288 48.8493 23.1626C50.1045 23.1598 51.4985 23.0335 52.9307 22.7644C53.6141 22.7314 54.3003 22.715 54.9918 22.715C72.2896 22.715 86.546 33.0125 91.8146 48.0002C92.0052 48.5439 92.1849 49.0931 92.351 49.6478C92.5144 50.1915 92.6668 50.7407 92.8057 51.2954C93.4564 53.8739 93.854 56.5677 93.9656 59.3549C93.9656 59.3797 93.9656 59.4016 93.9683 59.4263C94.001 60.3133 94.7252 61.0108 95.5993 61.0108C95.621 61.0108 95.6428 61.0108 95.6646 61.0108C96.5658 60.9751 97.2683 60.2089 97.2329 59.3C97.1295 56.5705 96.7646 53.8931 96.1574 51.2954H96.8653C102.305 51.2954 106.73 55.7577 106.73 61.2442C106.73 66.7307 102.305 71.193 96.8653 71.193H95.2889V71.1902Z" fill="#FEE0AB"/>
<path d="M55.2044 66.3381C46.7583 66.3381 38.9222 70.5806 34.2418 77.6846C31.8784 81.2709 32.8504 86.1285 36.4064 88.5121C39.9623 90.8956 44.7789 89.9153 47.1422 86.329C48.9447 83.594 51.9588 81.9601 55.2044 81.9601C58.4499 81.9601 61.464 83.594 63.2665 86.329C64.7069 88.5148 67.1192 89.8164 69.7222 89.8164C71.2469 89.8164 72.7281 89.3661 74.0024 88.5093C75.7259 87.356 76.8994 85.5931 77.3078 83.5473C77.7163 81.5015 77.3106 79.4201 76.167 77.6818C71.4865 70.5779 63.6504 66.3353 55.2017 66.3353L55.2044 66.3381ZM72.1945 85.7688C71.4566 86.2631 70.6017 86.524 69.7222 86.524C68.2165 86.524 66.8197 85.7688 65.9866 84.5056C63.5769 80.848 59.5445 78.6649 55.2017 78.6649C50.8588 78.6649 46.8264 80.848 44.4168 84.5056C43.0499 86.5789 40.2672 87.1473 38.2088 85.7688C36.1531 84.3903 35.5922 81.5839 36.9564 79.5079C41.0296 73.3239 47.8502 69.6333 55.1989 69.6333C62.5477 69.6333 69.3682 73.3239 73.4415 79.5079C74.1031 80.513 74.3373 81.7157 74.1004 82.8992C73.8635 84.0828 73.1856 85.1015 72.189 85.7688H72.1945Z" fill="#FEE0AB"/>
<path d="M34.9391 56.0762C36.1262 55.3403 37.5284 55.1179 38.8844 55.4446C40.0606 55.7302 41.0762 56.4002 41.8032 57.3531C41.9148 57.4986 42.021 57.6524 42.1163 57.8117C42.5873 58.5888 43.5948 58.8305 44.3626 58.3554C45.1331 57.8803 45.3727 56.8643 44.9017 56.0899C42.4566 52.067 37.2208 50.8011 33.2319 53.267C31.168 54.5439 29.744 56.6721 29.3165 59.0611C29.273 59.3028 29.2376 59.5444 29.2158 59.7916C29.1341 60.6977 29.7958 61.4996 30.6943 61.582C30.746 61.5874 30.795 61.5902 30.844 61.5902C31.6799 61.5902 32.3906 60.9476 32.4695 60.0936C32.4859 59.9069 32.5131 59.7229 32.5485 59.5417C32.5784 59.3852 32.6165 59.2314 32.6601 59.0803C33.0195 57.8364 33.8146 56.7764 34.9391 56.0817V56.0762Z" fill="#FEE0AB"/>
<path d="M78.5654 59.2808C78.1896 56.8039 76.7384 54.5824 74.6092 53.267C70.6203 50.8011 65.3844 52.067 62.9394 56.0899C62.4684 56.8671 62.708 57.8803 63.4785 58.3554C64.2491 58.8305 65.2538 58.5888 65.7248 57.8117C65.8228 57.6524 65.9263 57.4986 66.0379 57.3531C67.6416 55.2469 70.6067 54.6565 72.902 56.0762C74.081 56.8067 74.9033 57.9408 75.2327 59.2671C75.2545 59.3577 75.2763 59.4456 75.2926 59.5389C75.328 59.7202 75.3552 59.9041 75.3716 60.0909C75.4478 60.9449 76.1612 61.5902 76.9971 61.5902C77.0461 61.5902 77.0978 61.5902 77.1468 61.582C78.0453 61.4996 78.707 60.6977 78.6253 59.7916C78.609 59.6213 78.5899 59.4511 78.5627 59.2835L78.5654 59.2808Z" fill="#FEE0AB"/>
</g>
<defs>
<clipPath id="clip0_65_1519">
<rect width="110" height="109" fill="white"/>
</clipPath>
</defs>
</svg>
