<svg width="104" height="111" viewBox="0 0 104 111" fill="none" xmlns="http://www.w3.org/2000/svg">
<g clip-path="url(#clip0_63_1089)">
<path d="M91.9104 13.8068C76.3434 0 59.7391 0 53.4875 0C50.1165 0 42.1907 1.21759 34.1831 4.57509C27.1817 7.50798 17.8945 13.0363 13.396 22.7208C13.3707 22.7742 13.3509 22.8248 13.3312 22.8811C13.241 23.1398 11.144 29.2558 11.144 33.2573C11.144 34.3708 11.2285 35.4984 11.3103 36.5923C11.5048 39.1821 11.6908 41.6285 10.7381 43.2932C9.01314 46.3048 4.99384 52.0328 3.18713 53.4754C2.20345 54.2571 -0.0796006 56.383 0.00213828 59.1415C0.0359612 60.3 0.523576 61.9957 2.63751 63.4832C4.04116 64.473 5.21933 65.162 6.079 65.6681C6.63708 65.9943 7.25716 66.3599 7.5362 66.5876C7.38682 66.9813 7.01477 67.659 6.77237 68.0948C5.92398 69.6302 5.0474 71.2161 6.0339 72.5265C6.4736 73.1114 7.38964 73.7835 8.44661 74.3431C7.5052 75.2682 7.44319 75.9121 7.41501 76.199C7.34736 76.9188 7.63767 77.5965 8.21548 78.0577L8.30568 78.1308C8.99623 78.6819 11.1017 80.3579 10.7832 81.5249C10.7297 81.7245 10.6507 81.9748 10.5634 82.2672C9.78825 84.8064 8.34232 89.5334 10.3294 92.919C11.2511 94.4881 12.7478 95.5088 14.78 95.9503C21.7193 97.466 35.9672 95.2276 36.5732 95.132C36.655 95.118 36.7367 95.1011 36.8156 95.0758C37.0637 94.997 39.2565 94.37 39.9499 96.3271C41.1647 99.7577 43.8536 110.89 43.8818 111.003L45.525 110.609L47.1683 110.215C47.0555 109.751 44.4089 98.8016 43.1377 95.2051C41.8411 91.5439 38.1714 91.1699 35.9278 91.8167C34.5918 92.022 21.5248 93.9679 15.5015 92.6547C14.4135 92.4185 13.6779 91.946 13.2467 91.2149C12.0065 89.1031 13.2156 85.1523 13.7963 83.2542C13.8977 82.9252 13.9823 82.6412 14.0443 82.4134C14.763 79.7842 12.8267 77.5853 11.3807 76.3002C11.8345 75.9768 12.4321 75.6056 12.9902 75.3104C13.6779 74.9476 14.0302 74.1659 13.8442 73.4123C13.6582 72.6587 12.9789 72.13 12.2038 72.13C11.4963 72.13 9.93482 71.3849 9.14561 70.8421C9.31191 70.4907 9.55995 70.0407 9.7347 69.7258C10.4563 68.421 11.1355 67.1894 10.9411 66.014C10.6817 64.4561 9.40774 63.7082 7.79551 62.7633C6.94148 62.2628 5.8817 61.6414 4.59079 60.7331C3.80722 60.1819 3.40135 59.6139 3.38444 59.0459C3.35907 58.2136 4.11163 57.0606 5.29825 56.113C7.70814 54.1896 12.0318 47.8374 13.6723 44.972C15.1379 42.4131 14.9068 39.3283 14.6813 36.3448C14.5996 35.2678 14.5235 34.2499 14.5235 33.2629C14.5235 30.0488 16.2625 24.7735 16.4993 24.0649C23.8135 8.46968 46.4834 3.37437 53.4875 3.37437C59.9421 3.37437 75.0553 3.37437 89.664 16.3292C97.3249 23.1229 99.7123 32.5149 100.369 39.1962C101.158 47.2609 99.7094 53.5204 98.971 54.7717C98.1649 56.1355 95.7522 59.3355 93.1957 62.7212C90.1911 66.7001 86.7891 71.2105 84.7569 74.3656C80.7855 80.5266 83.6435 86.2518 84.227 87.2922L91.1494 105.573L91.3016 105.978L92.8828 105.382L94.4641 104.786L87.3387 85.9706C87.302 85.8694 87.2541 85.7738 87.1978 85.6838C87.1696 85.6388 84.4384 81.0946 87.598 76.1905C89.5625 73.1423 92.9279 68.6826 95.8959 64.7514C98.6243 61.1352 100.981 58.0139 101.883 56.4842C104.476 52.0891 107.559 27.6895 91.9104 13.8096V13.8068Z" fill="#FEE0AB"/>
<path d="M87.3621 60.4884L86.167 57.3306L87.6101 54.5327L90.8825 53.6666C91.5731 53.4838 92.0748 52.8849 92.134 52.1734L92.6216 46.2936C92.6808 45.5822 92.2834 44.9101 91.6323 44.6176L88.5487 43.2285L87.5848 40.231L89.2844 37.3121C89.6452 36.6963 89.5747 35.9202 89.1125 35.3747L85.2905 30.8727C84.8282 30.3272 84.0728 30.1331 83.402 30.3862L80.2368 31.5785L77.4323 30.1388L76.5641 26.8769C76.3809 26.1879 75.7806 25.6874 75.0675 25.6284L69.1738 25.1419C68.4579 25.0828 67.7871 25.4793 67.4939 26.1289L66.1016 29.2052L63.097 30.1669L60.1713 28.4713C59.554 28.1113 58.7733 28.1816 58.2293 28.6428L53.7167 32.4558C53.1699 32.917 52.9754 33.6706 53.2291 34.3399L54.4242 37.4977L52.9811 40.2956L51.0222 40.813C51.2533 40.6612 51.4506 40.4531 51.5859 40.1972L53.3785 36.8172C53.7139 36.1873 53.6124 35.414 53.1305 34.8882L51.8255 33.471L51.9692 31.9637L53.5166 30.8136C54.0916 30.3862 54.334 29.6467 54.1226 28.9634L52.9952 25.3078C52.7838 24.6245 52.1665 24.1493 51.4506 24.1183L49.5227 24.0368L48.5559 22.8698L48.8349 20.9661C48.9392 20.2603 48.5841 19.5657 47.9527 19.2311L44.5648 17.4427C43.9334 17.1081 43.1583 17.2065 42.6312 17.6901L41.2107 18.9921L39.6999 18.8487L38.5471 17.3049C38.1187 16.7313 37.3774 16.4894 36.6925 16.7003L33.0283 17.8251C32.3434 18.036 31.8671 18.6518 31.8361 19.3661L31.7543 21.2895L30.5846 22.254L28.6764 21.9756C27.969 21.8716 27.2728 22.2259 26.9374 22.8558L25.1448 26.2358C24.8094 26.8656 24.9108 27.6389 25.3928 28.1648L26.6978 29.582L26.5541 31.0892L25.0067 32.2393C24.4317 32.6667 24.1893 33.4063 24.4007 34.0896L25.5281 37.7452C25.7395 38.4285 26.3568 38.9037 27.0727 38.9346L29.0006 39.019L29.9674 40.186L29.6883 42.0897C29.584 42.7955 29.9392 43.49 30.5705 43.8247L33.9585 45.6131C34.5898 45.9477 35.3649 45.8465 35.892 45.3656L37.3126 44.0637L38.8233 44.2071L39.9761 45.7509C40.3003 46.1867 40.8076 46.4314 41.3319 46.4314C41.4982 46.4314 41.6645 46.4061 41.8279 46.3554L45.4921 45.2307C46.177 45.0198 46.6534 44.4039 46.6844 43.6897L46.7661 41.7663L47.9358 40.8018L49.844 41.0802C49.8919 41.0858 49.937 41.0858 49.9849 41.0886L49.7087 41.1617C49.0181 41.3445 48.5164 41.9435 48.4572 42.6549L47.9696 48.5347C47.9104 49.2462 48.3079 49.9182 48.959 50.2107L52.0425 51.5998L53.0064 54.5974L51.3068 57.5162C50.9461 58.132 51.0165 58.9109 51.4788 59.4536L55.3008 63.9556C55.763 64.5011 56.5184 64.6952 57.1892 64.4421L60.3545 63.2498L63.159 64.6895L64.0271 67.9514C64.2103 68.6404 64.8107 69.1409 65.5238 69.2L71.4174 69.6864C71.4653 69.6892 71.5104 69.692 71.5583 69.692C72.2179 69.692 72.8239 69.3068 73.1001 68.6994L74.4925 65.6231L77.4971 64.6614L80.4228 66.357C81.04 66.717 81.818 66.6467 82.3648 66.1855L86.8773 62.3725C87.4241 61.9113 87.6186 61.1577 87.3649 60.4884H87.3621ZM43.4204 40.8693L43.3556 42.3512L41.9745 42.7758L41.0867 41.5863C40.802 41.2039 40.3651 40.9593 39.8888 40.9143L36.8813 40.6303C36.8278 40.6246 36.7742 40.6218 36.7235 40.6218C36.3035 40.6218 35.8948 40.7793 35.5792 41.0661L34.4827 42.07L33.2031 41.3951L33.4173 39.9273C33.4878 39.4549 33.3525 38.9768 33.0481 38.6085L31.123 36.2858C30.8186 35.9174 30.3704 35.6952 29.8941 35.6756L28.4087 35.6109L27.9831 34.233L29.1753 33.3472C29.5587 33.0632 29.8039 32.6274 29.849 32.1521L30.1337 29.1518C30.1788 28.6765 30.0209 28.2041 29.6968 27.8526L28.6905 26.7588L29.367 25.4821L30.8383 25.6958C31.3118 25.7633 31.7938 25.6312 32.1602 25.3275L34.4855 23.4069C34.8548 23.1032 35.0774 22.6561 35.0972 22.1809L35.162 20.699L36.5431 20.2744L37.431 21.4638C37.7156 21.8463 38.1525 22.0909 38.6289 22.1359L41.6363 22.4199C42.1098 22.4649 42.5861 22.3074 42.9385 21.984L44.0349 20.9802L45.3145 21.655L45.1003 23.1229C45.0299 23.5953 45.1651 24.0733 45.4696 24.4417L47.3946 26.7644C47.699 27.1328 48.1472 27.3549 48.6235 27.3746L50.1089 27.4393L50.5345 28.8171L49.3423 29.7029C48.959 29.9869 48.7137 30.4228 48.6686 30.898L48.384 33.8984C48.3389 34.3736 48.4967 34.846 48.8208 35.1975L49.8271 36.2914L49.1506 37.568L47.6793 37.3543C47.2058 37.2868 46.7238 37.419 46.3574 37.7227L44.0321 39.6433C43.6628 39.947 43.4402 40.3941 43.4204 40.8693ZM78.54 61.3686C78.1256 61.1296 77.6296 61.0762 77.1729 61.2196L72.7365 62.6368C72.2799 62.783 71.9078 63.1148 71.7105 63.5479L70.4985 66.2221L66.9838 65.9324L66.2312 63.0951C66.1072 62.634 65.7943 62.2459 65.3687 62.0266L61.2254 59.9007C60.7998 59.6814 60.3009 59.6533 59.8528 59.822L57.1018 60.8596L54.8216 58.1742L56.2985 55.635C56.5381 55.2216 56.5917 54.7267 56.4479 54.2712L55.0274 49.8451C54.8808 49.3896 54.5482 49.0184 54.1141 48.8216L51.4337 47.6124L51.724 44.1059L54.5679 43.3551C55.0302 43.2342 55.4191 42.922 55.639 42.4974L57.7698 38.3638C57.9897 37.9392 58.0179 37.4415 57.8488 36.9944L56.8087 34.2499L59.5005 31.975L62.0428 33.4485C62.4571 33.6875 62.9532 33.7409 63.4098 33.5975L67.8463 32.1775C68.3029 32.0312 68.6749 31.6994 68.8722 31.2664L70.0842 28.5922L73.599 28.8818L74.3516 31.7191C74.4756 32.1803 74.7856 32.5683 75.2112 32.7877L79.3545 34.9135C79.7801 35.1328 80.279 35.161 80.7272 34.9922L83.4781 33.9546L85.7584 36.6401L84.2814 39.1793C84.0418 39.5926 83.9883 40.0875 84.132 40.5431L85.5526 44.9691C85.6992 45.4247 86.0317 45.7959 86.4658 45.9927L89.1463 47.2019L88.856 50.7084L86.012 51.4592C85.5498 51.5801 85.1608 51.8922 84.941 52.3168L82.8101 56.4504C82.5903 56.8751 82.5621 57.3728 82.7312 57.8199L83.7712 60.5644L81.0795 62.8393L78.5343 61.3658L78.54 61.3686Z" fill="#FFD17E"/>
<path d="M67.1132 37.5174C61.6451 39.2665 58.6208 45.1294 60.374 50.5847C61.7889 54.991 65.8927 57.8058 70.2982 57.8058C71.3495 57.8058 72.4178 57.6455 73.4691 57.3081C78.9371 55.5591 81.9615 49.6961 80.2083 44.2408C78.4552 38.7856 72.5812 35.7684 67.1104 37.5174H67.1132ZM72.4403 54.094C68.748 55.275 64.7794 53.2392 63.5956 49.5527C62.4118 45.869 64.4525 41.9097 68.1476 40.7287C71.84 39.5477 75.8085 41.5835 76.9923 45.27C77.5645 47.0556 77.4095 48.9565 76.5498 50.6212C75.6901 52.2887 74.2301 53.5204 72.4431 54.094H72.4403Z" fill="#FEE0AB"/>
<path d="M44.9228 26.8516C43.6713 25.3444 41.9069 24.4108 39.9536 24.228C38.0003 24.0452 36.0922 24.6301 34.5786 25.8786C33.0678 27.1272 32.1321 28.8875 31.9488 30.8362C31.5683 34.8601 34.5391 38.4426 38.5725 38.8222C38.8065 38.8447 39.0376 38.8559 39.2687 38.8559C43.0118 38.8559 46.2193 36.0046 46.5773 32.214C46.7605 30.2653 46.1742 28.3616 44.9228 26.8516ZM38.8882 35.4619C36.7123 35.2566 35.1085 33.3219 35.3142 31.1511C35.4129 30.0994 35.9174 29.149 36.7348 28.4741C37.4535 27.8808 38.3358 27.5658 39.2546 27.5658C39.3814 27.5658 39.5083 27.5714 39.6351 27.5827C40.6893 27.6811 41.642 28.1845 42.3156 28.9999C42.9921 29.8126 43.3077 30.8418 43.2091 31.8935C43.0033 34.0643 41.067 35.6643 38.8882 35.459V35.4619Z" fill="#FEE0AB"/>
<path d="M50.1795 18.0585C49.6045 18.4859 49.3621 19.2255 49.5735 19.9088L50.3627 22.4705C50.5741 23.1538 51.1914 23.629 51.9073 23.66L53.0347 23.7078L53.4265 24.1802L53.263 25.2937C53.1587 25.9995 53.5139 26.6941 54.1452 27.0287L56.5213 28.2829C57.1527 28.6175 57.9278 28.5191 58.4549 28.0354L59.2863 27.2762L59.898 27.3324L60.5716 28.2351C60.8957 28.6709 61.4031 28.9156 61.9274 28.9156C62.0936 28.9156 62.2599 28.8903 62.4234 28.8396L64.9911 28.0523C65.6761 27.8414 66.1524 27.2256 66.1834 26.5113L66.2313 25.3865L66.7048 24.9957L67.821 25.1588C68.5285 25.26 69.2247 24.9085 69.5601 24.2786L70.8172 21.9081C71.1526 21.2782 71.0511 20.5049 70.5691 19.9791L69.8053 19.1496L69.8645 18.5394L70.7692 17.8673C71.3442 17.4399 71.5866 16.7003 71.3752 16.017L70.586 13.4553C70.3746 12.772 69.7574 12.2968 69.0414 12.2658L67.914 12.218L67.5222 11.7456L67.6857 10.6321C67.79 9.92628 67.4349 9.23173 66.8035 8.8971L64.4274 7.64296C63.7961 7.30833 63.021 7.40675 62.4939 7.89041L61.6624 8.64965L61.0508 8.59059L60.3771 7.68795C59.9487 7.11431 59.2074 6.87248 58.5225 7.08337L55.9548 7.87073C55.2699 8.08163 54.7935 8.69745 54.7625 9.41169L54.7146 10.5365L54.2411 10.9273L53.1249 10.7643C52.4175 10.663 51.7213 11.0145 51.3859 11.6444L50.1288 14.0149C49.7934 14.6448 49.892 15.4181 50.3768 15.9439L51.1378 16.7734L51.0814 17.3836L50.1767 18.0557L50.1795 18.0585ZM58.0631 11.4363L58.0913 10.753L58.3788 10.6658L58.7875 11.2142C59.0721 11.5966 59.509 11.8412 59.9853 11.8862L62.0936 12.0859C62.57 12.1281 63.0435 11.9734 63.3958 11.65L63.9004 11.1889L64.1653 11.3295L64.0667 12.0071C63.9962 12.4796 64.1315 12.9604 64.4359 13.326L65.786 14.9541C66.0904 15.3225 66.5385 15.5446 67.0149 15.5643L67.6998 15.5924L67.7872 15.8792L67.2376 16.287C66.8542 16.571 66.609 17.0068 66.5639 17.4821L66.3638 19.5854C66.3187 20.0607 66.4765 20.5331 66.8007 20.8846L67.2657 21.3879L67.1248 21.6522L66.4455 21.5538C65.972 21.4863 65.49 21.6185 65.1236 21.9222L63.4917 23.2691C63.1224 23.5728 62.8998 24.0199 62.88 24.4951L62.849 25.1784L62.5615 25.2656L62.1528 24.7173C61.8682 24.3349 61.4313 24.0902 60.9549 24.0452L58.8466 23.8456C58.7931 23.8399 58.7395 23.8371 58.6888 23.8371C58.2688 23.8371 57.8601 23.9946 57.5445 24.2814L57.0399 24.7426L56.775 24.602L56.8736 23.9243C56.9441 23.4519 56.8088 22.9739 56.5044 22.6055L55.1543 20.9774C54.8499 20.609 54.4017 20.3868 53.9254 20.3672L53.2405 20.339L53.1531 20.0522L53.7027 19.6445C54.0861 19.3605 54.3313 18.9246 54.3764 18.4494L54.5765 16.346C54.6216 15.8708 54.4637 15.3984 54.1396 15.0469L53.6745 14.5436L53.8155 14.2792L54.4948 14.3776C54.9683 14.4479 55.4474 14.313 55.8167 14.0093L57.4486 12.6623C57.8179 12.3586 58.0405 11.9115 58.0603 11.4363H58.0631Z" fill="#FFD17E"/>
<path d="M60.1399 21.4976C60.2527 21.5088 60.3654 21.5144 60.4782 21.5144C62.2905 21.5144 63.8464 20.1338 64.0183 18.2975C64.2015 16.3488 62.764 14.611 60.8108 14.4283C58.8547 14.2483 57.1184 15.6796 56.9324 17.6283C56.8422 18.5731 57.1269 19.4954 57.7329 20.2265C58.3389 20.9577 59.1929 21.4104 60.1399 21.4976Z" fill="#FEE0AB"/>
</g>
<defs>
<clipPath id="clip0_63_1089">
<rect width="104" height="111" fill="white"/>
</clipPath>
</defs>
</svg>
