<svg width="100" height="113" viewBox="0 0 100 113" fill="none" xmlns="http://www.w3.org/2000/svg">
<g clip-path="url(#clip0_63_1243)">
<path d="M63.4147 79.1425C62.9906 79.1425 62.5134 78.983 62.1422 78.6641C60.2864 77.0164 58.8018 74.5715 57.7414 71.3292C52.7573 73.2427 47.1899 73.2427 42.2058 71.3292C41.1454 74.5715 39.6608 77.0696 37.805 78.6641C37.0096 79.3551 35.8432 79.302 35.1539 78.5047C34.4646 77.7074 34.5176 76.5381 35.3129 75.8471C36.9566 74.3589 38.2822 71.8076 39.1836 68.2465C39.3426 67.7149 39.7138 67.2366 40.244 67.024C40.7742 66.8114 41.3575 66.8114 41.8877 67.024C47.0309 69.5752 53.0224 69.5752 58.1125 67.024C58.6427 66.7582 59.226 66.7582 59.7562 67.024C60.2864 67.2366 60.6576 67.7149 60.8166 68.2465C61.718 71.8076 63.0436 74.3589 64.6873 75.8471C65.4826 76.5381 65.5356 77.7606 64.8463 78.5047C64.4752 78.9299 63.945 79.1425 63.4147 79.1425Z" fill="#FEE0AB"/>
<path d="M72.5871 50.2281C71.4206 50.2281 70.2541 49.9092 69.1937 49.3246C68.6104 49.0057 68.2393 48.3678 68.2393 47.6769V33.9106C68.2393 33.2197 68.6104 32.5819 69.1937 32.263C70.3071 31.6783 71.4206 31.3594 72.5871 31.3594C77.041 31.3594 80.6465 35.6115 80.6465 40.8203C80.6465 46.0292 77.041 50.2813 72.5871 50.2813V50.2281ZM71.9508 46.4012C74.4959 46.9327 76.8289 44.222 76.8289 40.8203C76.8289 37.4186 74.4959 34.6548 71.9508 35.2394V46.4544V46.4012Z" fill="#FEE0AB"/>
<path d="M27.4129 50.2281C22.959 50.2281 19.3535 45.976 19.3535 40.7672C19.3535 35.5583 22.959 31.3062 27.4129 31.3062C28.5794 31.3062 29.7459 31.6251 30.8063 32.2098C31.3896 32.5287 31.7607 33.1665 31.7607 33.8575V47.6237C31.7607 48.3147 31.3896 48.9525 30.8063 49.2714C29.6929 49.8561 28.5794 50.175 27.4129 50.175V50.2281ZM27.4129 35.08C25.0799 35.08 23.1181 37.6312 23.1181 40.7672C23.1181 44.1689 25.4511 46.9327 27.9961 46.3481V35.1331C27.9961 35.1331 27.572 35.08 27.3599 35.08H27.4129Z" fill="#FEE0AB"/>
<path d="M50 72.7112C37.911 72.7112 28.0488 62.825 28.0488 50.7065V29.1802C28.0488 28.1171 28.8972 27.2667 29.9576 27.2667H70.0955C71.1559 27.2667 72.0043 28.1171 72.0043 29.1802V50.7065C72.0043 62.825 62.1421 72.7112 50.0531 72.7112H50ZM31.8134 31.0936V50.7065C31.8134 60.7521 39.9788 68.9375 50 68.9375C60.0213 68.9375 68.1867 60.7521 68.1867 50.7065V31.0936H31.8134Z" fill="#FEE0AB"/>
<path d="M44.3795 44.2752C44.3795 42.5743 43.0009 41.2455 41.3572 41.2455C39.7135 41.2455 38.335 42.6275 38.335 44.2752C38.335 45.9229 39.7135 47.3048 41.3572 47.3048C43.0009 47.3048 44.3795 45.9229 44.3795 44.2752Z" fill="#FEE0AB"/>
<path d="M61.6647 44.2752C61.6647 42.5743 60.2861 41.2455 58.6424 41.2455C56.9987 41.2455 55.6201 42.6275 55.6201 44.2752C55.6201 45.9229 56.9987 47.3048 58.6424 47.3048C60.2861 47.3048 61.6647 45.9229 61.6647 44.2752Z" fill="#FEE0AB"/>
<path d="M56.0448 64.1006C54.9843 64.1006 54.136 63.2502 54.136 62.1872C54.136 61.7088 52.5453 60.5395 50.0002 60.5395C47.4551 60.5395 45.8645 61.6557 45.8645 62.1872C45.8645 63.2502 45.0161 64.1006 43.9557 64.1006C42.8952 64.1006 42.0469 63.2502 42.0469 62.1872C42.0469 59.1044 45.4403 56.7657 50.0002 56.7657C54.5601 56.7657 57.9536 59.1044 57.9536 62.1872C57.9536 63.2502 57.1052 64.1006 56.0448 64.1006Z" fill="#FEE0AB"/>
<path d="M94.9625 113H5.03673C3.97629 113 3.12793 112.15 3.12793 111.087V108.801C3.12793 90.3575 15.6942 75.3156 31.1767 75.3156H36.7971C37.5394 75.3156 38.1756 75.7408 38.4938 76.3786C38.8119 77.0165 38.7589 77.8137 38.2817 78.3452C37.4864 79.3551 37.1152 80.4182 37.1152 81.5343C37.1152 84.2451 39.5012 86.7432 43.2658 87.9657C44.4323 88.3377 45.7048 88.4972 47.4015 88.4972H52.5977C54.2414 88.4972 55.5669 88.3377 56.7334 87.9657C60.445 86.7432 62.884 84.2451 62.884 81.5343C62.884 80.4182 62.5129 79.3551 61.7175 78.3452C61.2934 77.7606 61.1873 77.0165 61.5054 76.3786C61.8236 75.7408 62.4598 75.3156 63.2022 75.3156H68.8225C84.305 75.3156 96.8713 90.3043 96.8713 108.801V111.087C96.8713 112.15 96.0229 113 94.9625 113ZM6.89251 109.226H93.0537V108.801C93.0537 92.4304 82.1841 79.0894 68.7695 79.0894H66.2244C66.4895 79.8866 66.5956 80.7371 66.5956 81.5343C66.5956 85.8928 63.1491 89.826 57.8469 91.58C56.3093 92.0583 54.6125 92.3241 52.5447 92.3241H47.3485C45.2806 92.3241 43.5839 92.0583 42.0463 91.58C36.744 89.826 33.2976 85.8928 33.2976 81.5343C33.2976 80.6839 33.4036 79.8866 33.6688 79.0894H31.1237C17.7091 79.0894 6.83949 92.4304 6.83949 108.801V109.226H6.89251Z" fill="#FEE0AB"/>
<path opacity="0.5" d="M35.7898 24.1839C35.3126 24.1839 34.8354 24.0244 34.5173 23.6524C33.775 22.9614 33.722 21.7389 34.4643 20.9948C35.1005 20.357 35.0475 19.8786 34.1461 18.0183C33.2978 16.2112 32.0252 13.4473 34.4643 10.7897C35.1005 10.1519 35.0475 9.67354 34.1461 7.81324C33.2978 6.00609 32.0252 3.24222 34.4643 0.584645C35.1536 -0.159476 36.3731 -0.212627 37.1154 0.531493C37.8577 1.27561 37.9107 2.44495 37.1684 3.18907C36.5321 3.82688 36.5852 4.30525 37.4865 6.16555C38.3349 7.9727 39.6604 10.7366 37.1684 13.3941C36.5321 14.032 36.5852 14.5103 37.4865 16.3706C38.3349 18.1778 39.6604 20.9417 37.1684 23.5992C36.7972 23.9713 36.32 24.1839 35.7898 24.1839Z" fill="#FEE0AB"/>
<path opacity="0.5" d="M45.281 24.1839C44.8038 24.1839 44.3266 24.0245 44.0085 23.6524C43.2662 22.9615 43.2132 21.739 43.9555 20.9949C44.5387 20.357 44.5387 19.8787 43.6373 18.0184C42.789 16.2112 41.5165 13.4473 43.9555 10.7898C44.5917 10.152 44.5387 9.6736 43.6373 7.76014C42.789 5.95299 41.5165 3.18912 43.9555 0.531544C44.6448 -0.212576 45.8643 -0.265728 46.6066 0.478393C47.3489 1.16936 47.4019 2.39184 46.6596 3.13597C46.0233 3.77378 46.0764 4.25215 46.9777 6.11245C47.8261 7.9196 49.1517 10.6835 46.6596 13.341C46.0233 13.9789 46.0764 14.4572 46.9777 16.3175C47.8261 18.1247 49.1517 20.8885 46.6596 23.5461C46.2885 23.9182 45.8113 24.1308 45.281 24.1308V24.1839Z" fill="#FEE0AB"/>
<path opacity="0.5" d="M54.7188 24.1839C54.2416 24.1839 53.7644 24.0244 53.4463 23.6524C52.704 22.9614 52.651 21.7389 53.3402 20.9948C53.9765 20.357 53.9235 19.8786 53.0221 18.0183C52.1738 16.2112 50.9012 13.4473 53.3402 10.7897C53.9765 10.1519 53.9235 9.67354 53.0221 7.81324C52.1738 6.00609 50.9012 3.24222 53.3402 0.584645C54.0826 -0.159476 55.249 -0.212627 55.9914 0.531493C56.7337 1.27561 56.7867 2.44495 56.0444 3.18907C55.4081 3.82688 55.4611 4.30525 56.3625 6.16555C57.2109 7.9727 58.4834 10.7366 56.0444 13.3941C55.4081 14.032 55.4611 14.5103 56.3625 16.3706C57.2109 18.1778 58.4834 20.9417 56.0444 23.5992C55.6732 23.9713 55.196 24.1839 54.6658 24.1839H54.7188Z" fill="#FEE0AB"/>
<path opacity="0.5" d="M64.2097 24.1839C63.7325 24.1839 63.2553 24.0245 62.9372 23.6524C62.1949 22.9615 62.1419 21.739 62.8842 20.9949C63.5205 20.357 63.4674 19.8787 62.5661 18.0184C61.7177 16.2112 60.4452 13.4473 62.8842 10.7898C63.5205 10.152 63.4674 9.6736 62.5661 7.76014C61.7177 5.95299 60.4452 3.18912 62.8842 0.531544C63.6265 -0.212576 64.793 -0.265728 65.5353 0.478393C66.2776 1.16936 66.3306 2.39184 65.5883 3.13597C64.9521 3.77378 65.0051 4.25215 65.9065 6.11245C66.7548 7.9196 68.0804 10.6835 65.5883 13.341C64.9521 13.9789 65.0051 14.4572 65.9065 16.3175C66.7548 18.1247 68.0804 20.8885 65.5883 23.5461C65.2172 23.9182 64.74 24.1308 64.2097 24.1308V24.1839Z" fill="#FEE0AB"/>
<path d="M71.9508 113C70.8903 113 70.042 112.15 70.042 111.087V107.1C70.042 106.037 70.8903 105.187 71.9508 105.187C73.0112 105.187 73.8596 106.037 73.8596 107.1V111.087C73.8596 112.15 73.0112 113 71.9508 113Z" fill="#FEE0AB"/>
<path d="M28.0485 113C26.988 113 26.1396 112.15 26.1396 111.087V107.1C26.1396 106.037 26.988 105.187 28.0485 105.187C29.1089 105.187 29.9573 106.037 29.9573 107.1V111.087C29.9573 112.15 29.1089 113 28.0485 113Z" fill="#FEE0AB"/>
<path d="M98.1442 113H1.9088C0.848356 113 0 112.15 0 111.087C0 110.024 0.848356 109.173 1.9088 109.173H98.1442C99.2047 109.173 100.053 110.024 100.053 111.087C100.053 112.15 99.2047 113 98.1442 113Z" fill="#FEE0AB"/>
</g>
<defs>
<clipPath id="clip0_63_1243">
<rect width="100" height="113" fill="white"/>
</clipPath>
</defs>
</svg>
