<svg width="87" height="100" viewBox="0 0 87 100" fill="none" xmlns="http://www.w3.org/2000/svg">
<g clip-path="url(#clip0_58_286)">
<path d="M36.989 99.2677C38.3266 92.6071 39.0152 85.8178 39.0399 79.0264V79.0284C32.1571 83.4282 14.3381 85.9337 7.80251 79.0009C4.65839 75.6667 7.09019 57.3815 5.8634 56.9618C-1.07979 54.588 0.698059 51.5015 0.698059 51.5015L0.907799 51.1918C5.51615 44.3828 8.77701 36.7943 10.8348 28.848C15.0573 12.5406 29.9558 0.491455 47.6868 0.491455C68.7014 0.491455 85.7368 17.4171 85.7368 38.2963C85.7368 52.6692 75.3349 62.2905 72.2541 75.7542C70.6998 82.5455 70.2863 92.5471 70.1072 99.5095" stroke="#FEE0AB" stroke-width="3" stroke-linecap="round" stroke-linejoin="round"/>
<path d="M61.1467 50.5421V19.4824C61.1467 16.3035 58.5527 13.7261 55.3531 13.7261C52.1536 13.7261 49.5596 16.3035 49.5596 19.4824V50.5421C46.6915 52.4166 44.7969 55.6417 44.7969 59.3082C44.7969 65.1008 49.523 69.7964 55.3531 69.7964C61.1833 69.7964 65.9094 65.1008 65.9094 59.3082C65.9094 55.6417 64.0148 52.4176 61.1467 50.5421Z" stroke="#FEE0AB" stroke-width="3" stroke-linecap="round" stroke-linejoin="round"/>
<path d="M60.9072 60.6078C61.6312 57.5597 59.7312 54.5055 56.6634 53.7861C53.5955 53.0667 50.5215 54.9545 49.7974 58.0026C49.0733 61.0507 50.9733 64.1049 54.0412 64.8243C57.1091 65.5437 60.1831 63.6559 60.9072 60.6078Z" stroke="#FEE0AB" stroke-width="3" stroke-linecap="round" stroke-linejoin="round"/>
<path d="M55.3535 53.6374V20.1577" stroke="#FEE0AB" stroke-width="3" stroke-linecap="round" stroke-linejoin="round"/>
<path d="M39.7168 10.2051L39.7188 46.9867" stroke="#FEE0AB" stroke-width="3" stroke-linecap="round" stroke-linejoin="round"/>
<path d="M39.7175 10.2051L34.9014 14.9902" stroke="#FEE0AB" stroke-width="3" stroke-linecap="round" stroke-linejoin="round"/>
<path d="M44.5329 14.9902L39.7168 10.2051" stroke="#FEE0AB" stroke-width="3" stroke-linecap="round" stroke-linejoin="round"/>
</g>
<defs>
<clipPath id="clip0_58_286">
<rect width="86.2319" height="100" fill="white"/>
</clipPath>
</defs>
</svg>
