<svg width="128" height="100" viewBox="0 0 128 100" fill="none" xmlns="http://www.w3.org/2000/svg">
<g clip-path="url(#clip0_61_351)">
<path d="M19.8237 21.7456C13.829 21.7456 8.95215 16.8687 8.95215 10.8741C8.95215 4.87942 13.829 0 19.8237 0C25.8183 0 30.6952 4.87687 30.6952 10.8715C30.6952 16.8661 25.8183 21.743 19.8237 21.743V21.7456ZM19.8237 3.828C15.9395 3.828 12.7801 6.98737 12.7801 10.8715C12.7801 14.7556 15.9395 17.915 19.8237 17.915C23.7078 17.915 26.8672 14.7556 26.8672 10.8715C26.8672 6.98737 23.7078 3.828 19.8237 3.828Z" fill="#FEE0AB"/>
<path d="M6.16562 64.9407H5.90022C2.64642 64.9407 0 62.2049 0 58.8439V43.68C0 41.5899 0.21692 39.4972 0.645655 37.4556L2.89652 25.2163C2.89907 25.201 2.90162 25.1831 2.90672 25.1678C3.40436 22.8046 5.08868 20.8549 7.30126 20.074L15.2737 17.2668C16.2715 16.9146 17.3638 17.4403 17.7134 18.4356C18.0656 19.4334 17.5399 20.5257 16.5446 20.8753L8.57216 23.6825C7.62026 24.0168 6.88784 24.8794 6.65816 25.9334L4.4073 38.1702C4.40475 38.1855 4.40219 38.2034 4.39709 38.2187C4.0194 40.0076 3.828 41.8451 3.828 43.68V58.8439C3.828 60.0944 4.75692 61.1127 5.90022 61.1127H6.16562C7.30892 61.1127 8.23785 60.0944 8.23785 58.8439V53.398C8.23785 52.3414 9.09532 51.484 10.1518 51.484C11.2084 51.484 12.0658 52.3414 12.0658 53.398V58.8439C12.0658 62.2049 9.41942 64.9407 6.16562 64.9407Z" fill="#FEE0AB"/>
<path d="M33.421 64.9407C30.1672 64.9407 27.5208 62.205 27.5208 58.844V53.398C27.5208 52.3415 28.3783 51.484 29.4348 51.484C30.4913 51.484 31.3488 52.3415 31.3488 53.398V58.844C31.3488 60.0945 32.2777 61.1127 33.421 61.1127C34.5643 61.1127 35.4932 60.0945 35.4932 58.844V43.68C35.4932 41.8477 35.3018 40.0102 34.9241 38.2213C34.9216 38.206 34.9165 38.1881 34.9139 38.1728L32.6631 25.936C32.4334 24.882 31.701 24.022 30.7491 23.6851L22.7766 20.8779C21.7788 20.5257 21.2557 19.4335 21.6078 18.4382C21.96 17.4404 23.0523 16.9172 24.0475 17.2694L32.02 20.0766C34.2326 20.8549 35.9143 22.8072 36.4145 25.1704C36.4171 25.1857 36.4222 25.2035 36.4247 25.2189L38.6756 37.4582C39.1043 39.4998 39.3212 41.595 39.3212 43.6826V58.8465C39.3212 62.2075 36.6748 64.9432 33.421 64.9432V64.9407Z" fill="#FEE0AB"/>
<path d="M10.1523 100C9.09575 100 8.23828 99.1425 8.23828 98.086V33.1096C8.23828 32.0531 9.09575 31.1956 10.1523 31.1956C11.2088 31.1956 12.0663 32.0531 12.0663 33.1096V98.086C12.0663 99.1425 11.2088 100 10.1523 100Z" fill="#FEE0AB"/>
<path d="M29.4345 100C28.378 100 27.5205 99.1425 27.5205 98.086V33.1096C27.5205 32.0531 28.378 31.1956 29.4345 31.1956C30.491 31.1956 31.3485 32.0531 31.3485 33.1096V98.086C31.3485 99.1425 30.491 100 29.4345 100Z" fill="#FEE0AB"/>
<path d="M19.7935 100C18.742 100 17.8871 99.1527 17.8795 98.0988L17.586 57.448C17.5783 56.3915 18.4281 55.5289 19.4872 55.5212H19.5C20.5514 55.5212 21.4063 56.3685 21.414 57.4225L21.7075 98.0732C21.7151 99.1298 20.8653 99.9923 19.8062 100H19.7935Z" fill="#FEE0AB"/>
<path d="M107.539 21.7456C101.544 21.7456 96.667 16.8687 96.667 10.8741C96.667 4.87942 101.544 0 107.539 0C113.533 0 118.41 4.87687 118.41 10.8715C118.41 16.8661 113.533 21.743 107.539 21.743V21.7456ZM107.539 3.828C103.654 3.828 100.495 6.98737 100.495 10.8715C100.495 14.7556 103.654 17.915 107.539 17.915C111.423 17.915 114.582 14.7556 114.582 10.8715C114.582 6.98737 111.423 3.828 107.539 3.828Z" fill="#FEE0AB"/>
<path d="M93.8805 64.9407H93.6151C90.3613 64.9407 87.7148 62.2049 87.7148 58.844V43.68C87.7148 41.5899 87.9318 39.4947 88.3605 37.4557L90.6114 25.2163C90.6139 25.201 90.6165 25.1831 90.6216 25.1678C91.1192 22.8047 92.8035 20.8524 95.0161 20.074L102.989 17.2668C103.986 16.9172 105.079 17.4404 105.428 18.4356C105.78 19.4335 105.255 20.5257 104.259 20.8754L96.287 23.6826C95.3351 24.0169 94.6027 24.8794 94.373 25.9334L92.1221 38.1702C92.1196 38.1856 92.117 38.2034 92.1119 38.2187C91.7342 40.0077 91.5428 41.8451 91.5428 43.6774V58.8414C91.5428 60.0919 92.4718 61.1101 93.6151 61.1101H93.8805C95.0238 61.1101 95.9527 60.0919 95.9527 58.8414V53.3954C95.9527 52.3389 96.8102 51.4814 97.8667 51.4814C98.9232 51.4814 99.7807 52.3389 99.7807 53.3954V58.8414C99.7807 62.2024 97.1343 64.9381 93.8805 64.9381V64.9407Z" fill="#FEE0AB"/>
<path d="M121.136 64.9407C117.882 64.9407 115.236 62.205 115.236 58.844V53.398C115.236 52.3415 116.093 51.484 117.15 51.484C118.206 51.484 119.064 52.3415 119.064 53.398V58.844C119.064 60.0945 119.993 61.1127 121.136 61.1127C122.279 61.1127 123.208 60.0945 123.208 58.844V43.68C123.208 41.8477 123.017 40.0102 122.639 38.2213C122.636 38.206 122.631 38.1881 122.629 38.1728L120.378 25.936C120.148 24.882 119.416 24.022 118.464 23.6851L110.491 20.8779C109.494 20.5257 108.97 19.4335 109.323 18.4382C109.675 17.4404 110.767 16.9172 111.762 17.2694L119.735 20.0766C121.947 20.8549 123.629 22.8072 124.129 25.1704C124.132 25.1857 124.137 25.2035 124.14 25.2189L126.39 37.4582C126.819 39.4998 127.036 41.595 127.036 43.6826V58.8465C127.036 62.2075 124.39 64.9432 121.136 64.9432V64.9407Z" fill="#FEE0AB"/>
<path d="M97.8671 100C96.8106 100 95.9531 99.1425 95.9531 98.086V33.1096C95.9531 32.0531 96.8106 31.1956 97.8671 31.1956C98.9236 31.1956 99.7811 32.0531 99.7811 33.1096V98.086C99.7811 99.1425 98.9236 100 97.8671 100Z" fill="#FEE0AB"/>
<path d="M117.149 100C116.093 100 115.235 99.1425 115.235 98.086V33.1096C115.235 32.0531 116.093 31.1956 117.149 31.1956C118.206 31.1956 119.063 32.0531 119.063 33.1096V98.086C119.063 99.1425 118.206 100 117.149 100Z" fill="#FEE0AB"/>
<path d="M107.508 100C106.457 100 105.602 99.1527 105.594 98.0988L105.301 57.448C105.293 56.3915 106.143 55.5289 107.202 55.5212H107.215C108.266 55.5212 109.121 56.3685 109.129 57.4225L109.422 98.0732C109.43 99.1298 108.58 99.9923 107.521 100H107.508Z" fill="#FEE0AB"/>
<path d="M55.302 53.3469H50.0117C45.9795 53.3469 42.7002 49.94 42.7002 45.7547V45.7011C42.7002 41.5133 45.9795 38.1089 50.0117 38.1089H55.302C56.3304 38.1089 57.3231 38.3259 58.2572 38.7546C59.2167 39.1961 59.6404 40.3317 59.1989 41.2938C58.7574 42.2534 57.6217 42.6745 56.6622 42.2355C56.2334 42.039 55.7766 41.9395 55.3045 41.9395H50.0142C48.0926 41.9395 46.5307 43.6289 46.5307 45.7037V45.7573C46.5307 47.8346 48.0926 49.5215 50.0142 49.5215H55.3045C57.29 49.5215 58.788 48.0209 58.788 46.0303C58.788 44.9738 59.6455 44.1163 60.702 44.1163C61.7585 44.1163 62.616 44.9738 62.616 46.0303C62.616 50.134 59.403 53.3495 55.3045 53.3495L55.302 53.3469Z" fill="#FEE0AB"/>
<path d="M77.025 53.3469H71.7347C70.7956 53.3469 69.8794 53.1632 69.0143 52.8033C68.0394 52.3976 67.5775 51.2773 67.9833 50.2998C68.389 49.325 69.5119 48.8631 70.4868 49.2688C70.8849 49.4347 71.3034 49.5189 71.7373 49.5189H77.0275C78.9492 49.5189 80.511 47.8295 80.511 45.7547V45.7011C80.511 43.6238 78.9492 41.9369 77.0275 41.9369H71.7373C69.7518 41.9369 68.2538 43.4375 68.2538 45.4281C68.2538 46.4846 67.3963 47.3421 66.3398 47.3421C65.2833 47.3421 64.4258 46.4846 64.4258 45.4281C64.4258 41.3245 67.6387 38.1089 71.7373 38.1089H77.0275C81.0597 38.1089 84.339 41.5159 84.339 45.7011V45.7547C84.339 49.9426 81.0597 53.3469 77.0275 53.3469H77.025Z" fill="#FEE0AB"/>
<path d="M69.8998 47.6407H57.1347C56.0782 47.6407 55.2207 46.7832 55.2207 45.7267C55.2207 44.6702 56.0782 43.8127 57.1347 43.8127H69.8998C70.9563 43.8127 71.8138 44.6702 71.8138 45.7267C71.8138 46.7832 70.9563 47.6407 69.8998 47.6407Z" fill="#FEE0AB"/>
<path d="M66.1786 76.468C66.1786 75.4109 65.3217 74.554 64.2646 74.554C63.2075 74.554 62.3506 75.4109 62.3506 76.468V88.6461C62.3506 89.7032 63.2075 90.5601 64.2646 90.5601C65.3217 90.5601 66.1786 89.7032 66.1786 88.6461V76.468Z" fill="#FEE0AB"/>
<path d="M43.2511 85.52C42.9193 85.52 42.5825 85.4332 42.2737 85.2494C41.3652 84.7084 41.0666 83.5345 41.6076 82.626L47.5435 72.6477C48.0846 71.7392 49.2585 71.4406 50.167 71.9816C51.0755 72.5226 51.3741 73.6966 50.8331 74.6051L44.8971 84.5834C44.5398 85.1857 43.9044 85.52 43.2511 85.52Z" fill="#FEE0AB"/>
<path d="M84.0675 85.52C83.4142 85.52 82.7788 85.1857 82.4215 84.5834L76.4855 74.6051C75.9445 73.6966 76.2431 72.5226 77.1516 71.9816C78.0601 71.4406 79.234 71.7392 79.7751 72.6477L85.711 82.626C86.252 83.5345 85.9534 84.7084 85.0449 85.2494C84.7387 85.4332 84.4018 85.52 84.0675 85.52Z" fill="#FEE0AB"/>
<path d="M66.1786 2.80462C66.1786 1.74755 65.3217 0.890625 64.2646 0.890625C63.2075 0.890625 62.3506 1.74755 62.3506 2.80462V14.9828C62.3506 16.0398 63.2075 16.8967 64.2646 16.8967C65.3217 16.8967 66.1786 16.0398 66.1786 14.9828V2.80462Z" fill="#FEE0AB"/>
<path d="M49.1896 19.7397C48.5363 19.7397 47.9008 19.4054 47.5435 18.8031L41.6076 8.8248C41.0666 7.91629 41.3652 6.74237 42.2737 6.20135C43.1822 5.66032 44.3561 5.95891 44.8971 6.86742L50.8331 16.8457C51.3741 17.7542 51.0755 18.9282 50.167 19.4692C49.8608 19.6529 49.5239 19.7397 49.1896 19.7397Z" fill="#FEE0AB"/>
<path d="M78.129 19.7397C77.7973 19.7397 77.4604 19.6529 77.1516 19.4692C76.2431 18.9282 75.9445 17.7542 76.4855 16.8457L82.4215 6.86742C82.9625 5.95891 84.1364 5.66032 85.0449 6.20135C85.9534 6.74237 86.252 7.91629 85.711 8.8248L79.7751 18.8031C79.4178 19.4054 78.7798 19.7397 78.129 19.7397Z" fill="#FEE0AB"/>
</g>
<defs>
<clipPath id="clip0_61_351">
<rect width="127.036" height="100" fill="white"/>
</clipPath>
</defs>
</svg>
