<svg width="90" height="100" viewBox="0 0 90 100" fill="none" xmlns="http://www.w3.org/2000/svg">
<g clip-path="url(#clip0_62_911)">
<path d="M25.8786 97.1021H17.0225V100H25.8786V97.1021Z" fill="#FFD17E"/>
<path d="M45.7364 57.5299L45.1787 54.6866C57.1658 52.3341 63.5017 47.5601 65.8878 45.7616C67.3827 44.6356 68.6234 42.9025 69.7194 41.3724C70.6901 40.0152 71.4578 38.9439 72.3261 38.395C73.8298 37.4438 87.0629 31.7167 88.5666 31.0672L89.7155 33.7269C84.1155 36.1466 74.864 40.2199 73.8757 40.8429C73.4857 41.0882 72.7373 42.1348 72.0773 43.0578C70.9213 44.6727 69.4847 46.6811 67.6333 48.0754C63.6606 51.0686 57.067 55.3044 45.7382 57.5281L45.7364 57.5299Z" fill="#FEE0AB"/>
<path d="M10.0455 67.2473C9.74196 67.2473 9.46664 67.2155 9.21955 67.1661C6.54576 66.6349 5.19562 63.7899 5.18327 63.7617C4.84441 63.0081 4.7844 62.8722 8.81539 50.811C9.42428 48.9896 9.98198 47.3218 10.3667 46.1287C11.8086 41.6724 19.7383 28.7093 20.8148 26.9568C22.5091 21.0092 27.5532 20.4779 30.0787 21.048C39.3249 22.2181 56.1831 19.3978 59.667 18.5683C61.8642 18.0442 72.7994 11.6412 79.1777 7.72665L80.6938 10.1957C78.9659 11.2564 63.7085 20.5838 60.3394 21.3868C56.7408 22.2446 39.2579 25.1619 29.6375 23.9124C29.5863 23.9053 29.5369 23.8965 29.4875 23.8842C29.0233 23.78 24.867 22.9929 23.5592 27.9134C23.5239 28.051 23.4657 28.1816 23.3916 28.3017C23.3033 28.4446 14.5336 42.6678 13.1252 47.02C12.737 48.2201 12.1757 49.8968 11.5651 51.7287C10.3526 55.3573 8.383 61.2467 8.00178 62.8651C8.31946 63.3416 9.00071 64.1782 9.80373 64.3282C10.3967 64.4394 11.0709 64.1394 11.8139 63.4405L13.7994 65.5513C12.3858 66.8802 11.0691 67.2473 10.0473 67.2473H10.0455Z" fill="#FEE0AB"/>
<path d="M27.835 71.236C27.482 71.236 27.1255 71.2007 26.7725 71.1283C25.3924 70.8459 24.2046 70.0447 23.4298 68.871L21.3543 65.7331C20.3695 64.2453 20.7808 62.2333 22.2685 61.2485L27.1026 58.0523C27.8244 57.5758 28.6874 57.4063 29.5346 57.5811C30.3817 57.754 31.1106 58.2464 31.5871 58.9665L33.6626 62.1045C34.4392 63.2781 34.7127 64.6847 34.4321 66.0648C34.1497 67.445 33.3502 68.631 32.1748 69.4075L30.7329 70.3606C29.8593 70.9377 28.8586 71.2377 27.8368 71.2377L27.835 71.236ZM28.8851 60.4119C28.8304 60.4119 28.7651 60.4261 28.6998 60.4684L23.8658 63.6646C23.7687 63.7281 23.7334 63.8182 23.7193 63.8799C23.7069 63.9417 23.7052 64.037 23.7687 64.1341L25.8442 67.272C26.1936 67.7997 26.7284 68.1615 27.3496 68.2886C27.9709 68.4139 28.6045 68.2921 29.1322 67.9427L30.5741 66.9897C31.6648 66.2678 31.9648 64.7924 31.2447 63.7017L29.1692 60.5637C29.1057 60.4666 29.0157 60.4313 28.9539 60.4172C28.9345 60.4137 28.9098 60.4102 28.8851 60.4102V60.4119Z" fill="#FEE0AB"/>
<path d="M37.1823 67.1979C35.668 67.1979 34.2084 66.5449 33.2748 65.2901L26.9918 56.8698C26.4182 56.0968 26.6265 55.4014 26.743 55.1385C27.1507 54.219 28.0878 54.1272 28.7091 54.0672C28.912 54.0478 29.2897 54.0107 29.4097 53.9542L32.6289 51.554C33.303 51.0528 34.122 50.8163 34.9373 50.9027C35.7898 50.9875 36.5645 51.4216 37.064 52.0905L41.7674 59.0512C42.5316 60.0748 42.8264 61.4197 42.5634 62.7822C42.3075 64.0952 41.5574 65.2742 40.4473 66.1001C39.4554 66.8379 38.3047 67.1961 37.1823 67.1961V67.1979ZM30.451 56.6598L35.5992 63.5587C36.2698 64.4606 37.6694 64.5576 38.7177 63.7776C39.2454 63.384 39.6019 62.8351 39.7184 62.2315C39.8261 61.6774 39.7149 61.1426 39.4042 60.7278L34.7008 53.7671C34.7202 53.7954 34.6655 53.7883 34.6479 53.7848C34.6002 53.7813 34.4873 53.7813 34.3584 53.8766L31.0952 56.3051C30.8887 56.4586 30.6698 56.5715 30.4492 56.658L30.451 56.6598Z" fill="#FEE0AB"/>
<path d="M12.7139 78.4755C12.5162 78.4755 12.3185 78.4349 12.1332 78.3537L6.71151 75.9817C5.97908 75.6605 5.64552 74.8081 5.96496 74.0757L11.4043 61.6068C11.5579 61.2538 11.8456 60.9785 12.2038 60.8373C12.5603 60.6978 12.961 60.7031 13.3139 60.8584L16.8349 62.3992L18.7357 63.2322C19.4681 63.5534 19.8016 64.4059 19.4822 65.1383L14.0428 77.6072C13.8893 77.9602 13.6016 78.2355 13.2433 78.3767C13.0739 78.4437 12.8939 78.4773 12.7156 78.4773L12.7139 78.4755ZM9.19823 73.9062L11.9673 75.1169L16.2472 65.3024L13.4798 64.0917L9.19823 73.9045V73.9062Z" fill="#FEE0AB"/>
<path d="M18.1514 66.0066C17.9555 66.0066 17.7578 65.9678 17.569 65.8848L12.1473 63.5128C11.609 63.2781 11.2666 62.7398 11.2807 62.1503C11.4907 53.3153 22.7595 31.6726 29.459 19.5584C34.3777 10.6617 38.6558 3.63037 40.5495 0.861269C41.0949 0.0653066 42.1044 -0.217074 43.008 0.176494C43.9098 0.570063 44.3917 1.50369 44.1781 2.44613C42.2703 10.8576 28.2712 56.7374 19.1627 65.5989C18.8873 65.8672 18.522 66.0084 18.1531 66.0084L18.1514 66.0066ZM14.2475 61.2679L17.7966 62.821C24.9444 54.556 35.7402 22.1157 39.9318 7.23426C37.8175 10.7023 35.0342 15.4674 31.9951 20.9615C21.5276 39.8934 14.9922 54.7625 14.2475 61.2697V61.2679Z" fill="#FEE0AB"/>
<path d="M1.44854 94.8395C1.06379 94.8395 0.687874 94.686 0.412552 94.4036C0.0507514 94.0329 -0.0869095 93.5 0.0525163 93.0023C0.483148 91.4545 0.830829 89.8855 1.08321 88.3359C1.33912 86.7704 1.50325 85.1803 1.57208 83.6131C1.59326 83.1171 1.60561 82.6495 1.6162 82.2065C1.67091 79.9686 1.71857 78.0361 3.10223 76.2235C3.8576 75.2352 4.89359 74.4463 6.18195 73.878C7.20735 73.4279 8.40041 73.112 9.73113 72.9426C9.83702 72.9285 9.94292 72.9285 10.047 72.9373L10.9736 73.0238C11.4272 73.0661 11.8331 73.3168 12.0731 73.705L12.9891 75.1858C13.3174 75.6393 13.6174 76.1053 13.8768 76.573C14.7328 78.1031 15.197 79.6686 15.2623 81.2217C15.5076 87.1375 9.97468 92.7199 1.80681 94.7971C1.68856 94.8271 1.56855 94.8413 1.4503 94.8413L1.44854 94.8395ZM9.94292 75.8388C8.95282 75.9764 8.08097 76.2094 7.34854 76.5306C6.51375 76.8977 5.85898 77.3866 5.40364 77.9813C4.62533 78.9997 4.56532 80.0939 4.51237 82.2753C4.50178 82.7359 4.48943 83.2213 4.46649 83.7384C4.39236 85.4186 4.21587 87.1217 3.94232 88.8001C3.80995 89.6101 3.65464 90.4255 3.47462 91.2409C8.97223 89.1848 12.532 85.3215 12.3661 81.3381C12.3202 80.2421 11.9778 79.1126 11.346 77.9831C11.1342 77.6019 10.8871 77.2207 10.6153 76.8483C10.5942 76.8183 10.573 76.7865 10.5536 76.7547L9.94292 75.837V75.8388Z" fill="#FFD17E"/>
<path d="M22.2481 65.2477C22.1457 65.2477 22.0469 65.2442 21.948 65.2389C19.5354 65.0977 17.5129 63.804 16.3975 61.6932C15.3368 59.683 15.2962 57.3093 16.2969 55.645C17.6805 53.3401 22.7493 48.2431 27.8339 44.0409C29.2017 42.9114 30.4459 41.5753 31.5313 40.0717C32.0749 39.3181 32.6785 38.5874 33.2609 37.8814C34.2034 36.7413 35.0946 35.663 35.5076 34.7611L38.1426 35.9683C37.5708 37.2161 36.563 38.4374 35.4953 39.7275C34.9429 40.3964 34.3693 41.09 33.8822 41.766C32.652 43.4691 31.2384 44.9869 29.68 46.2735C24.4842 50.5674 19.8478 55.3573 18.7801 57.1363C18.3124 57.9129 18.3883 59.2595 18.9583 60.3396C19.3289 61.042 20.2326 62.2351 22.1157 62.3445C23.247 62.4168 26.685 61.7127 34.2863 53.8166C34.7258 53.3595 35.114 52.9129 35.49 52.4806C36.6566 51.141 37.862 49.7556 40.0434 48.6808C41.75 47.8407 42.6695 47.7718 44.5032 47.6342C45.8392 47.5336 47.8583 47.3836 51.3474 46.8488C58.8499 45.6999 62.8103 40.4811 65.4312 37.0272L65.4912 36.9478C68.2391 33.3263 72.9019 30.4689 73.0978 30.3507L74.6033 32.8268C74.5609 32.8533 70.2087 35.5236 67.7997 38.7004L67.7397 38.778C65.0129 42.3713 60.4489 48.386 51.7869 49.7115C48.1865 50.2639 46.1004 50.4192 44.7203 50.5215C42.9907 50.6504 42.5266 50.6857 41.3247 51.2769C39.6657 52.094 38.7885 53.1036 37.6767 54.3796C37.2743 54.842 36.8577 55.322 36.3759 55.8215C30.3577 62.0745 25.6066 65.2424 22.2481 65.2424V65.2477Z" fill="#FEE0AB"/>
<path d="M66.0435 100H29.5616V97.1021H66.0435C67.0707 97.1021 67.9408 95.8172 67.9408 94.2959C67.9408 92.7746 67.0724 91.4915 66.0435 91.4915H40.7404C38.979 91.4915 37.546 89.8466 37.546 87.8241C37.546 85.8015 38.979 84.1549 40.7404 84.1549H46.1162C47.1434 84.1549 48.0135 82.8701 48.0135 81.3505C48.0135 79.8309 47.1451 78.5461 46.1162 78.5461H20.2236V75.6482H46.1162C48.76 75.6482 50.9114 78.2055 50.9114 81.3505C50.9114 84.4955 48.76 87.0528 46.1162 87.0528H40.7404C40.6663 87.0811 40.4439 87.3564 40.4439 87.8241C40.4439 88.2918 40.6663 88.5653 40.7545 88.5971H66.0435C68.6873 88.5953 70.8387 91.1527 70.8387 94.2977C70.8387 97.4427 68.6873 100.002 66.0435 100.002V100Z" fill="#FFD17E"/>
</g>
<defs>
<clipPath id="clip0_62_911">
<rect width="89.716" height="100" fill="white"/>
</clipPath>
</defs>
</svg>
