<svg width="116" height="103" viewBox="0 0 116 103" fill="none" xmlns="http://www.w3.org/2000/svg">
<g clip-path="url(#clip0_63_1436)">
<path d="M100.739 35.2035C100.581 34.5707 100.581 33.9378 100.897 33.384C101.213 32.8303 101.688 32.4347 102.32 32.1974C103.586 31.8018 104.93 32.5138 105.325 33.7796C105.483 34.4124 105.404 35.0453 105.167 35.6782C104.851 36.2319 104.376 36.6275 103.744 36.8648C103.506 36.8648 103.269 36.9439 103.032 36.9439C102.004 36.9439 101.055 36.2319 100.739 35.2035ZM103.19 41.7696C102.083 41.1367 100.502 41.5323 99.8691 42.6398C99.7109 42.8771 99.6319 43.0353 99.4737 43.2727L98.7621 44.3802C97.1806 46.7535 96.3108 49.5223 96.3108 52.3702C96.3108 55.2181 97.1806 57.9869 98.7621 60.4393L99.0784 60.8349C99.5528 61.5468 100.264 61.8633 101.055 61.8633C101.53 61.8633 102.004 61.7051 102.399 61.4677C103.506 60.6766 103.744 59.2527 103.032 58.1452L102.716 57.6705C101.688 56.0883 101.134 54.2688 101.134 52.2911C101.134 50.3134 101.688 48.573 102.716 46.9908L103.427 45.8833C103.427 45.8833 103.823 45.2504 103.981 44.9339C104.693 43.7473 104.218 42.3233 103.111 41.6114L103.19 41.7696ZM115.605 45.9624C116.316 44.8548 116.079 43.3518 114.972 42.6398C113.865 41.9278 112.363 42.1651 111.651 43.2727L110.939 44.3802C107.618 49.2849 107.618 55.5346 110.939 60.4393L111.256 60.914C111.73 61.626 112.521 61.9424 113.232 61.9424C113.707 61.9424 114.181 61.7842 114.577 61.5468C115.684 60.8349 116 59.3318 115.209 58.2243L114.893 57.7496C112.679 54.5061 112.679 50.3134 114.893 47.0699L115.605 45.9624ZM87.3756 28.1628C86.2685 28.8748 85.9523 30.3779 86.743 31.4854L87.4546 32.5929C89.6687 35.8364 89.6687 40.0292 87.4546 43.2727L86.743 44.3802C83.4219 49.2849 83.4219 55.5346 86.743 60.4393L87.0593 60.914C87.5337 61.626 88.3244 61.9424 89.0361 61.9424C89.5105 61.9424 89.985 61.7842 90.3803 61.5468C91.4874 60.8349 91.8037 59.3318 91.0129 58.2243L90.6966 57.7496C88.4826 54.5061 88.4826 50.3134 90.6966 47.0699L91.4083 45.9624C94.7294 41.0576 94.7294 34.808 91.4083 29.9032L90.6966 28.7957C89.985 27.6882 88.4826 27.3717 87.3756 28.1628ZM103.744 100.548C103.744 101.892 102.637 103 101.292 103C99.9482 103 98.8411 101.892 98.8411 100.548C98.8411 94.4562 88.7198 89.5515 68.7934 86.0707H63.8909V88.2857C63.8909 88.9977 63.5746 89.7097 63.0211 90.1843C58.9884 93.4278 54.8766 95.01 50.6857 95.01C46.4949 95.01 42.3831 93.4278 38.4294 90.1843C37.8759 89.7097 37.5596 88.9977 37.5596 88.2857V86.0707H34.8711C14.9448 89.6306 4.82342 94.4562 4.82342 100.548C4.82342 101.892 3.7164 103 2.37216 103C1.02792 103 -0.0791016 101.892 -0.0791016 100.548C-0.0791016 87.3364 24.5917 82.9063 33.9223 81.3241H34.1595C34.1595 81.3241 34.4758 81.245 34.5548 81.245H37.4015V77.5269C30.1268 71.9101 25.3033 61.7051 25.3033 50.1551C25.3033 50.076 25.3033 49.9178 25.3033 49.8387C24.1963 49.6014 23.3265 48.6521 23.3265 47.4654V39.3963C23.3265 36.0737 24.1963 32.9885 25.7777 30.2197C27.4383 27.2926 29.8895 24.8402 32.8152 23.179C35.5037 21.6759 38.6666 20.7266 41.9877 20.7266H55.0347C58.593 20.7266 61.9932 21.5968 64.9979 23.179C69.0306 25.2358 72.2726 28.5584 74.4076 32.5929C75.91 35.5991 76.8589 38.9217 76.8589 42.5607V47.4654C76.8589 48.1774 76.5426 48.8103 76.0681 49.2058C76.0681 49.5223 76.0681 49.8387 76.0681 50.1551C76.0681 56.7212 74.4867 62.7335 71.8773 67.8756L77.8868 69.2204C79.152 69.5369 80.0218 70.8026 79.7055 72.0684C79.4683 73.1759 78.4403 73.967 77.3333 73.967C77.1752 73.967 77.017 73.967 76.7798 73.967L69.1097 72.2266C67.6073 74.2834 65.8677 76.1029 63.97 77.5269V81.245H69.1097C69.1097 81.245 69.426 81.245 69.5051 81.245H69.7423C79.0729 82.9063 103.744 87.3364 103.744 100.548ZM59.1465 83.6183V80.4539C58.5139 80.7703 57.8023 81.0077 57.1697 81.245C55.1138 81.8779 52.9788 82.2734 50.8439 82.2734C48.7089 82.2734 46.4949 81.957 44.518 81.245C43.8064 81.0077 43.1738 80.7703 42.5412 80.4539V87.0991C48.2345 91.2919 53.6114 91.2919 59.3047 87.0991V83.6183H59.1465ZM71.0075 36.8648C70.1377 34.4124 68.6353 32.1183 66.8166 30.3779C63.8118 27.4508 59.621 25.6313 55.1138 25.6313H44.518V32.9885C44.518 39.6336 49.9741 45.0922 56.6162 45.0922H72.0354V42.5607C72.0354 40.5829 71.6401 38.6843 71.0075 36.8648ZM39.6946 29.1912V25.8687C33.2897 26.9762 28.3872 32.672 28.3872 39.3963V45.0922H31.0756C35.82 45.0922 39.6946 41.2158 39.6946 36.4693V29.2704V29.1912ZM30.2849 50.1551C30.2849 58.6198 33.2106 66.1352 37.7178 71.119C38.4294 71.9101 39.2201 72.6221 40.0109 73.255C40.8016 73.8879 41.5923 74.4416 42.4621 74.9954C44.9925 76.4985 47.8391 77.3687 50.8439 77.3687C53.8486 77.3687 56.6162 76.4985 59.2256 74.9954C60.0954 74.5207 60.8861 73.967 61.6769 73.255C62.4676 72.6221 63.2583 71.9101 63.97 71.119C63.97 71.119 63.97 71.0399 64.0491 70.9608H63.8909L57.5651 69.5369L55.1929 68.9831C53.9277 68.6667 53.0579 67.4009 53.3742 66.1352C53.6905 64.8694 54.9557 63.9992 56.2208 64.3157L67.0538 66.768C69.7423 62.1797 71.3238 56.4048 71.3238 50.1551C71.3238 50.076 71.3238 49.9969 71.3238 49.8387H56.6162C53.4533 49.8387 50.5276 48.9685 47.9182 47.3863C45.9413 46.1997 44.2017 44.6175 42.8575 42.7189C42.5412 42.3233 42.304 41.9278 42.0668 41.5323V42.6398C42.0668 43.0353 42.0668 43.4309 42.2249 43.8264C42.2249 43.9055 42.1459 43.9846 42.0668 44.0637C41.197 45.3295 40.0109 46.5161 38.7457 47.3863C36.5317 48.8894 33.9223 49.8387 30.9966 49.8387H30.2849C30.2849 49.8387 30.2849 49.9969 30.2849 50.1551ZM85.2406 14.3978C85.715 14.8725 86.3476 15.1098 86.9802 15.1098C87.6128 15.1098 88.2454 14.8725 88.7198 14.3978C89.6687 13.4485 89.6687 11.9455 88.7198 10.9962L86.9802 9.25576C86.0313 8.30645 84.5289 8.30645 83.5801 9.25576C82.6312 10.2051 82.6312 11.7081 83.5801 12.6574L85.3197 14.3978H85.2406ZM76.7007 5.85407C77.1752 6.32872 77.8077 6.56605 78.4403 6.56605C79.0729 6.56605 79.7055 6.32872 80.1799 5.85407C81.1288 4.90476 81.1288 3.40169 80.1799 2.45238L78.4403 0.711981C77.4915 -0.237327 75.9891 -0.237327 75.0402 0.711981C74.0913 1.66129 74.0913 3.16436 75.0402 4.11367L76.7798 5.85407H76.7007ZM85.2406 6.56605C85.8732 6.56605 86.5058 6.32872 86.9802 5.85407L88.7198 4.11367C89.6687 3.16436 89.6687 1.66129 88.7198 0.711981C87.7709 -0.237327 86.2685 -0.237327 85.3197 0.711981L83.5801 2.45238C82.6312 3.40169 82.6312 4.90476 83.5801 5.85407C84.0545 6.32872 84.6871 6.56605 85.3197 6.56605H85.2406ZM76.7007 15.1098C77.3333 15.1098 77.9659 14.8725 78.4403 14.3978L80.1799 12.6574C81.1288 11.7081 81.1288 10.2051 80.1799 9.25576C79.2311 8.30645 77.7287 8.30645 76.7798 9.25576L75.0402 10.9962C74.0913 11.9455 74.0913 13.4485 75.0402 14.3978C75.5146 14.8725 76.1472 15.1098 76.7798 15.1098H76.7007ZM15.182 26.5015C15.6564 26.9762 16.289 27.2135 16.9216 27.2135C17.5542 27.2135 18.1867 26.9762 18.6612 26.5015C19.6101 25.5522 19.6101 24.0492 18.6612 23.0998L16.9216 21.3594C15.9727 20.4101 14.4703 20.4101 13.5214 21.3594C12.5726 22.3088 12.5726 23.8118 13.5214 24.7611L15.261 26.5015H15.182ZM6.6421 17.9578C7.11654 18.4324 7.74912 18.6697 8.3817 18.6697C9.01429 18.6697 9.64687 18.4324 10.1213 17.9578C11.0702 17.0084 11.0702 15.5054 10.1213 14.5561L8.3817 12.8157C7.43283 11.8664 5.93044 11.8664 4.98157 12.8157C4.03269 13.765 4.03269 15.268 4.98157 16.2174L6.72117 17.9578H6.6421ZM15.182 18.6697C15.8146 18.6697 16.4471 18.4324 16.9216 17.9578L18.6612 16.2174C19.6101 15.268 19.6101 13.765 18.6612 12.8157C17.7123 11.8664 16.2099 11.8664 15.261 12.8157L13.5214 14.5561C12.5726 15.5054 12.5726 17.0084 13.5214 17.9578C13.9959 18.4324 14.6285 18.6697 15.261 18.6697H15.182ZM6.6421 27.2135C7.27468 27.2135 7.90726 26.9762 8.3817 26.5015L10.1213 24.7611C11.0702 23.8118 11.0702 22.3088 10.1213 21.3594C9.17243 20.4101 7.67005 20.4101 6.72117 21.3594L4.98157 23.0998C4.03269 24.0492 4.03269 25.5522 4.98157 26.5015C5.456 26.9762 6.08859 27.2135 6.72117 27.2135H6.6421ZM19.2938 69.6951C18.3449 68.7458 16.8425 68.7458 15.8936 69.6951C14.9448 70.6444 14.9448 72.1475 15.8936 73.0968L17.6332 74.8372C18.1077 75.3118 18.7403 75.5491 19.3728 75.5491C20.0054 75.5491 20.638 75.3118 21.1124 74.8372C22.0613 73.8879 22.0613 72.3848 21.1124 71.4355L19.3728 69.6951H19.2938ZM7.35375 61.1513C6.40488 62.1006 6.40488 63.6037 7.35375 64.553L9.09336 66.2934C9.5678 66.768 10.2004 67.0054 10.833 67.0054C11.4655 67.0054 12.0981 66.768 12.5726 66.2934C13.5214 65.3441 13.5214 63.841 12.5726 62.8917L10.833 61.1513C9.88409 60.202 8.3817 60.202 7.43283 61.1513H7.35375ZM17.6332 61.1513L15.8936 62.8917C14.9448 63.841 14.9448 65.3441 15.8936 66.2934C16.3681 66.768 17.0007 67.0054 17.6332 67.0054C18.2658 67.0054 18.8984 66.768 19.3728 66.2934L21.1124 64.553C22.0613 63.6037 22.0613 62.1006 21.1124 61.1513C20.1636 60.202 18.6612 60.202 17.7123 61.1513H17.6332ZM9.09336 69.6951L7.35375 71.4355C6.40488 72.3848 6.40488 73.8879 7.35375 74.8372C7.82819 75.3118 8.46078 75.5491 9.09336 75.5491C9.72594 75.5491 10.3585 75.3118 10.833 74.8372L12.5726 73.0968C13.5214 72.1475 13.5214 70.6444 12.5726 69.6951C11.6237 68.7458 10.1213 68.7458 9.17243 69.6951H9.09336ZM108.725 76.9731C107.776 76.0238 106.274 76.0238 105.325 76.9731C104.376 77.9224 104.376 79.4255 105.325 80.3748L107.065 82.1152C107.539 82.5899 108.172 82.8272 108.804 82.8272C109.437 82.8272 110.069 82.5899 110.544 82.1152C111.493 81.1659 111.493 79.6628 110.544 78.7135L108.804 76.9731H108.725ZM98.4458 73.5714C98.9202 74.0461 99.5528 74.2834 100.185 74.2834C100.818 74.2834 101.451 74.0461 101.925 73.5714C102.874 72.6221 102.874 71.119 101.925 70.1697L100.185 68.4293C99.2365 67.48 97.7341 67.48 96.7852 68.4293C95.8364 69.3786 95.8364 70.8817 96.7852 71.831L98.5249 73.5714H98.4458ZM106.986 68.4293L105.246 70.1697C104.297 71.119 104.297 72.6221 105.246 73.5714C105.72 74.0461 106.353 74.2834 106.986 74.2834C107.618 74.2834 108.251 74.0461 108.725 73.5714L110.465 71.831C111.414 70.8817 111.414 69.3786 110.465 68.4293C109.516 67.48 108.014 67.48 107.065 68.4293H106.986ZM98.4458 82.8272C99.0784 82.8272 99.7109 82.5899 100.185 82.1152L101.925 80.3748C102.874 79.4255 102.874 77.9224 101.925 76.9731C100.976 76.0238 99.4737 76.0238 98.5249 76.9731L96.7852 78.7135C95.8364 79.6628 95.8364 81.1659 96.7852 82.1152C97.2597 82.5899 97.8923 82.8272 98.5249 82.8272H98.4458Z" fill="#FEE0AB"/>
</g>
<defs>
<clipPath id="clip0_63_1436">
<rect width="116" height="103" fill="white"/>
</clipPath>
</defs>
</svg>
