<svg width="102" height="106" viewBox="0 0 102 106" fill="none" xmlns="http://www.w3.org/2000/svg">
<g clip-path="url(#clip0_63_1490)">
<path d="M31.9798 77.8892C30.9347 77.8892 30.0986 77.0578 30.0986 76.0186V70.5107C30.0986 69.4715 30.9347 68.6401 31.9798 68.6401C33.0249 68.6401 33.8609 69.4715 33.8609 70.5107V76.0186C33.8609 77.0578 33.0249 77.8892 31.9798 77.8892Z" fill="#FEE0AB"/>
<path d="M50.9997 42.5558C41.6462 42.5558 34.0693 35.0215 34.0693 25.7205C34.0693 16.4196 41.6462 8.88525 50.9997 8.88525C60.3531 8.88525 67.93 16.4196 67.93 25.7205C67.93 35.0215 60.3531 42.5558 50.9997 42.5558ZM50.9997 12.5745C43.7363 12.5745 37.7794 18.446 37.7794 25.7205C37.7794 32.9951 43.6841 38.8666 50.9997 38.8666C58.3152 38.8666 64.22 32.9951 64.22 25.7205C64.22 18.446 58.3152 12.5745 50.9997 12.5745Z" fill="#FEE0AB"/>
<path d="M36.9436 78.2529C28.8965 78.2529 22.2602 76.9019 17.5573 75.499C16.7735 75.2392 16.251 74.5637 16.251 73.7323V66.0421C16.251 55.2343 25.0819 46.4529 35.9508 46.4529H66.1014C76.9702 46.4529 85.8012 55.2343 85.8012 66.0421V71.0823C85.8012 72.0696 85.0696 72.849 84.0768 72.9009C78.2243 73.3686 65.7879 74.5637 48.5963 77.3176C44.4682 77.9931 40.6014 78.2529 36.9959 78.2529H36.9436ZM19.961 72.3294C26.3883 74.096 36.1075 75.5509 47.9692 73.6803C63.8022 71.1343 75.6116 69.9392 82.0389 69.3676V66.0421C82.0389 57.2607 74.8801 50.1421 66.0491 50.1421H35.8985C27.0676 50.1421 19.9088 57.2607 19.9088 66.0421V72.3294H19.961Z" fill="#FEE0AB"/>
<path d="M92.7508 106C91.7057 106 90.8696 105.169 90.8696 104.129V72.4853C84.1811 72.7451 68.7139 74.148 48.5438 77.3177C30.6729 80.1755 17.4003 75.8108 11.9137 73.5245V104.129C11.9137 105.169 11.0776 106 10.0325 106C8.98743 106 8.15137 105.169 8.15137 104.129V70.6147C8.15137 69.9392 8.51715 69.3677 9.09194 69.0039C9.66674 68.6922 10.346 68.6402 10.9208 69.0039C11.0776 69.1078 25.97 77.2137 47.9167 73.7324C70.4905 70.1471 87.3686 68.7961 92.6985 68.7961C93.7436 68.7961 94.5797 69.6275 94.5797 70.6667V104.181C94.5797 105.221 93.7436 106.052 92.6985 106.052L92.7508 106Z" fill="#FEE0AB"/>
<path d="M36.8392 85.6833C20.1701 85.6833 9.66705 79.9157 9.14451 79.6039C8.25619 79.0843 7.94267 77.9931 8.41295 77.1098C8.93549 76.2265 10.0328 75.9147 10.9211 76.3824C11.0779 76.4863 25.9703 84.5922 47.917 81.0588C70.4908 77.4735 87.3689 76.1226 92.6988 76.1226C93.7439 76.1226 94.58 76.9539 94.58 77.9931C94.58 79.0324 93.7439 79.8637 92.6988 79.8637C87.4734 79.8637 70.9089 81.2147 48.4918 84.748C44.3115 85.4235 40.3925 85.6833 36.7869 85.6833H36.8392Z" fill="#FEE0AB"/>
<path opacity="0.5" d="M82.614 56.4814H79.6877C78.6426 56.4814 77.8066 55.65 77.8066 54.6108C77.8066 53.5716 78.6426 52.7402 79.6877 52.7402H82.614C85.6969 52.7402 88.2051 50.2461 88.2051 47.1804V25.8245C88.2051 22.7589 85.6969 20.2647 82.614 20.2647H64.1683C63.1232 20.2647 62.2871 19.4334 62.2871 18.3941C62.2871 17.3549 63.1232 16.5236 64.1683 16.5236H82.614C87.7349 16.5236 91.9152 20.6804 91.9152 25.7726V47.1285C91.9152 52.2206 87.7349 56.3775 82.614 56.3775V56.4814Z" fill="#FEE0AB"/>
<path opacity="0.5" d="M100.171 89.4765C99.126 89.4765 98.2899 88.6451 98.2899 87.6059V13.8216C98.2899 8.26176 93.7439 3.74118 88.1527 3.74118H13.8996C8.3084 3.74118 3.7623 8.26176 3.7623 13.8216V87.6578C3.7623 88.6971 2.92623 89.5284 1.88115 89.5284C0.836066 89.5284 0 88.6971 0 87.6578V13.8216C0 6.18333 6.21824 0 13.8996 0H88.1527C95.7818 0 102.052 6.18333 102.052 13.8216V87.6578C102.052 88.6971 101.216 89.5284 100.171 89.5284V89.4765Z" fill="#FEE0AB"/>
<path opacity="0.5" d="M22.3124 56.4814H19.3862C14.2653 56.4814 10.085 52.3245 10.085 47.2323V25.8765C10.085 20.7843 14.2653 16.6274 19.3862 16.6274H37.8319C38.877 16.6274 39.713 17.4588 39.713 18.498C39.713 19.5372 38.877 20.3686 37.8319 20.3686H19.3862C16.3032 20.3686 13.795 22.8627 13.795 25.9284V47.2843C13.795 50.35 16.3032 52.8441 19.3862 52.8441H22.3124C23.3575 52.8441 24.1936 53.6755 24.1936 54.7147C24.1936 55.7539 23.3575 56.5853 22.3124 56.5853V56.4814Z" fill="#FEE0AB"/>
<path d="M54.2395 35.3334C53.8215 35.3334 53.4034 35.1775 53.0376 34.8657C51.47 33.5147 49.8501 34.6579 49.5366 34.8657C48.7528 35.4892 47.551 35.3853 46.9239 34.6059C46.2969 33.8265 46.4014 32.6834 47.1852 32.0079C48.6483 30.8128 52.2538 29.3059 55.4413 32.0079C56.2251 32.6834 56.3297 33.8265 55.6503 34.6059C55.2846 35.0216 54.762 35.2294 54.2395 35.2294V35.3334Z" fill="#FEE0AB"/>
</g>
<defs>
<clipPath id="clip0_63_1490">
<rect width="102" height="106" fill="white"/>
</clipPath>
</defs>
</svg>
