<svg width="100" height="100" viewBox="0 0 100 100" fill="none" xmlns="http://www.w3.org/2000/svg">
<g clip-path="url(#clip0_63_1065)">
<path opacity="0.2" d="M70.7117 0H29.2896L0 29.2896V70.7117L29.2896 100.001H70.7117L100.001 70.7117V29.2896L70.7117 0ZM96.0391 69.0701L69.0701 96.0391H30.9312L3.96225 69.0701V30.9312L30.9312 3.96225H69.0701L96.0391 30.9312V69.0701Z" fill="#FFD17E"/>
<path d="M65.642 54.9113V27.806C65.642 24.4242 62.8907 21.6743 59.5103 21.6743H59.4239C58.5302 21.6743 57.6608 21.866 56.8616 22.2359V20.705C56.8616 17.3246 54.1103 14.5733 50.7299 14.5733H50.6421C47.714 14.5733 45.2489 16.6253 44.6495 19.3995C43.8138 18.9864 42.8958 18.7718 41.9495 18.7718H41.8617C38.4813 18.7718 35.73 21.5217 35.73 24.9035V27.3915C34.9322 27.0216 34.0628 26.8299 33.1677 26.8299H33.0799C29.6995 26.8299 26.9482 29.5799 26.9482 32.9616V68.0023C26.9482 77.2646 34.4839 84.8003 43.7463 84.8003H54.5666C58.7637 84.8003 62.6976 83.6461 65.9444 81.4631C69.2303 79.2532 71.8155 75.9821 73.4193 72.0077L79.605 57.0997C79.9871 56.1776 80.4191 55.2677 80.8902 54.3916C81.5531 53.1563 82.4225 51.5201 82.7978 50.7452C84.3611 47.5146 83.4553 45.279 82.7749 44.2328C81.7516 42.6587 79.9169 41.7029 77.9796 41.7636C73.4301 41.9135 69.8567 46.3199 68.5647 49.2467C67.4253 51.8265 66.5276 53.5086 65.6393 54.9099L65.642 54.9113ZM71.8331 50.6898C72.7916 48.519 75.3687 45.4221 78.0998 45.333H78.1687C78.8247 45.333 79.443 45.657 79.7832 46.1808C80.249 46.8977 80.1788 47.9655 79.5862 49.19C79.3107 49.757 78.6735 50.9733 77.7447 52.7054C77.2196 53.6828 76.7363 54.702 76.3083 55.7335L70.128 70.6294L70.1064 70.682C67.3956 77.3875 61.7337 81.2323 54.5666 81.2323H43.7463C36.4523 81.2323 30.5176 75.2977 30.5176 68.0036V32.9616C30.5176 31.5495 31.6665 30.3993 33.0799 30.3993H33.1677C34.5798 30.3993 35.73 31.5482 35.73 32.9616V52.3031C35.73 53.2872 36.5306 54.0878 37.5147 54.0878C38.4989 54.0878 39.2994 53.2872 39.2994 52.3031V24.9035C39.2994 23.4914 40.4483 22.3412 41.8617 22.3412H41.9495C43.3616 22.3412 44.5104 23.49 44.5104 24.9035V50.189C44.5104 51.1731 45.311 51.9737 46.2951 51.9737C47.2793 51.9737 48.0798 51.1731 48.0798 50.189V20.705C48.0798 19.2929 49.2287 18.1427 50.6408 18.1427H50.7285C52.1406 18.1427 53.2908 19.2915 53.2908 20.705V49.2318C53.2908 50.216 54.0914 51.0165 55.0755 51.0165C56.0597 51.0165 56.8602 50.216 56.8602 49.2318V27.806C56.8602 26.3925 58.0091 25.2437 59.4225 25.2437H59.5089C60.9224 25.2437 62.0712 26.3925 62.0712 27.806V60.3788C62.0712 61.1402 62.5545 61.8193 63.2754 62.0663C63.4631 62.1311 63.6575 62.1635 63.8559 62.1635C64.4094 62.1635 64.9224 61.9138 65.264 61.475C67.8573 58.15 69.4233 56.1425 71.8317 50.6885L71.8331 50.6898Z" fill="#FEE0AB"/>
</g>
<defs>
<clipPath id="clip0_63_1065">
<rect width="100" height="100" fill="white"/>
</clipPath>
</defs>
</svg>
