<svg width="34" height="24" viewBox="0 0 34 24" fill="none" xmlns="http://www.w3.org/2000/svg">
<path d="M3.41092 21.7672C3.74004 21.9266 4.10941 22.0161 4.49967 22.0161H29.4997C29.8899 22.0161 30.2593 21.9266 30.5884 21.7672L20.7407 12.4987L17.5294 15.1433C17.2217 15.3967 16.7776 15.3967 16.4699 15.1433L13.2586 12.4987L3.41092 21.7672ZM2.23817 20.5831C2.24588 20.5752 2.25379 20.5675 2.26188 20.5599L11.9617 11.4306L2.30326 3.47665C2.2822 3.45931 2.2622 3.44114 2.24329 3.42225C2.08713 3.7486 1.99967 4.11411 1.99967 4.50004V19.5161C1.99967 19.8978 2.08521 20.2595 2.23817 20.5831ZM31.7612 20.5831C31.9141 20.2595 31.9997 19.8978 31.9997 19.5161V4.50004C31.9997 4.11411 31.9122 3.7486 31.7561 3.42225C31.7371 3.44115 31.7172 3.45931 31.6961 3.47665L22.0377 11.4306L31.7375 20.5599C31.7456 20.5675 31.7535 20.5752 31.7612 20.5831ZM30.5737 2.24187C30.2483 2.08682 29.8841 2.00004 29.4997 2.00004H4.49967C4.11522 2.00004 3.75103 2.08682 3.42563 2.24187L16.9997 13.4205L30.5737 2.24187ZM4.49967 0.333374H29.4997C31.8009 0.333374 33.6663 2.19885 33.6663 4.50004V19.5161C33.6663 21.8172 31.8009 23.6827 29.4997 23.6827H4.49967C2.19849 23.6827 0.333008 21.8172 0.333008 19.5161V4.50004C0.333008 2.19885 2.19849 0.333374 4.49967 0.333374Z" fill="#F9F9F9"/>
</svg>
