<svg width="30" height="30" viewBox="0 0 30 30" fill="none" xmlns="http://www.w3.org/2000/svg">
<path d="M22.0845 9.35272L19.5873 21.1293C19.3989 21.9605 18.9076 22.1672 18.2095 21.7758L14.4046 18.972L12.5688 20.7377C12.3656 20.9409 12.1956 21.1108 11.8041 21.1108L12.0774 17.2358L19.1293 10.8636C19.436 10.5902 19.0628 10.4388 18.6528 10.7121L9.9349 16.2014L6.18179 15.0268C5.36541 14.7718 5.35071 14.2104 6.35171 13.8188L21.0317 8.16324C21.7113 7.9084 22.3061 8.3147 22.0845 9.35272Z" fill="#FEE0AB"/>
<path d="M29 15C29 7.26801 22.732 1 15 1C7.26801 1 1 7.26801 1 15C1 22.732 7.26801 29 15 29C22.732 29 29 22.732 29 15Z" stroke="#FEE0AB"/>
</svg>
