<svg width="28" height="28" viewBox="0 0 28 28" fill="none" xmlns="http://www.w3.org/2000/svg">
<g clip-path="url(#clip0_111_221)">
<path d="M14.0035 27.125C11.494 27.125 9.06325 26.4154 6.95975 25.0714L2.28025 26.5667C2.12362 26.6166 1.95125 26.5746 1.83487 26.4574C1.71937 26.3401 1.67913 26.1669 1.7325 26.0111L3.24187 21.5084C1.69312 19.3034 0.875 16.7125 0.875 14C0.875 10.4335 2.2855 7.09538 4.84663 4.60075C5.019 4.43275 5.29637 4.43625 5.46525 4.60863C5.63325 4.78188 5.62975 5.05925 5.4565 5.22725C3.06687 7.5565 1.75 10.6715 1.75 14C1.75 16.6023 2.55675 19.0846 4.08187 21.1785C4.165 21.2931 4.18775 21.441 4.14225 21.5758L2.83675 25.4713L6.89062 24.1754C7.01662 24.1343 7.15487 24.1544 7.266 24.227C9.26538 25.55 11.5955 26.25 14.0035 26.25C20.7568 26.25 26.25 20.755 26.25 14C26.25 7.24588 20.7568 1.75 14.0035 1.75H14.0009C12.1047 1.75 10.2926 2.17087 8.60738 3.00037C8.39038 3.10625 8.12875 3.01787 8.022 2.80175C7.91525 2.58562 8.00362 2.32225 8.2215 2.2155C10.0275 1.3265 11.9718 0.875 13.9965 0.875C21.238 0.875 27.125 6.76288 27.125 14C27.125 21.2371 21.238 27.125 14.0035 27.125Z" fill="#FEE0AB"/>
<path d="M18.0269 21.4316C17.1423 21.4316 15.9077 21.0903 14.1428 20.3588C11.8389 19.4051 9.55516 17.4066 7.71153 14.7335L7.64591 14.6398C7.03691 13.8077 6.05078 12.2135 6.05078 10.5492C6.05078 8.59885 7.02641 7.60922 7.44378 7.1866C7.83666 6.78322 8.42378 6.56885 9.08353 6.56885C9.24978 6.56885 9.39853 6.57672 9.53416 6.5846C10.0898 6.60647 10.4118 6.74647 10.718 7.47885L11.0357 8.24885C11.3717 9.06347 11.7855 10.0688 11.8503 10.2045C11.922 10.3523 12.1399 10.8065 11.8975 11.279C11.768 11.5555 11.6412 11.7016 11.467 11.9028C11.3445 12.0437 11.2632 12.1312 11.18 12.2187C11.0838 12.322 10.9858 12.4235 10.8878 12.5468C10.7189 12.7446 10.7189 12.7446 10.7758 12.8435C11.0995 13.3903 11.7882 14.4403 12.7472 15.2935C13.9914 16.4003 14.9968 16.8072 15.4798 17.0032L15.5997 17.0522C15.7265 17.1047 15.8867 17.1423 16.0065 17.0155C16.2235 16.7818 16.4983 16.3977 16.7888 15.9908L16.9629 15.7467C17.2683 15.3153 17.6445 15.2243 17.9062 15.2243C18.0593 15.2243 18.2185 15.255 18.3813 15.3162C18.7882 15.458 20.9293 16.5246 20.9512 16.5351L21.1568 16.6357C21.463 16.7827 21.7045 16.8991 21.8428 17.1423C22.0432 17.4906 21.9644 18.4041 21.6599 19.266C21.295 20.2976 19.9388 21.1035 18.8485 21.338C18.6315 21.3835 18.3734 21.4316 18.0269 21.4316ZM9.08266 7.44385C8.66966 7.44385 8.29341 7.5681 8.09916 7.76672C7.69578 8.17622 6.92491 8.9576 6.92491 10.5492C6.92491 11.5826 7.43678 12.875 8.32928 14.0938L8.43078 14.2382C10.179 16.774 12.3263 18.6613 14.4762 19.5512C16.1325 20.2381 17.2604 20.5575 18.026 20.5575C18.2885 20.5575 18.4837 20.5207 18.6622 20.4831C19.5135 20.2993 20.5854 19.6702 20.8313 18.9746C21.0973 18.2247 21.092 17.6481 21.0605 17.5335C21.0588 17.5606 20.9013 17.4862 20.7744 17.425L20.5565 17.3182C19.9432 17.0111 18.3577 16.2367 18.0803 16.1396C18.0068 16.1116 17.9508 16.1002 17.9035 16.1002C17.8642 16.1002 17.7828 16.1002 17.6725 16.256L17.4975 16.501C17.1904 16.9315 16.9008 17.3375 16.6435 17.614C16.3137 17.9666 15.7475 18.0646 15.2602 17.8616L15.149 17.8161C14.6617 17.6192 13.5198 17.1572 12.1627 15.9497C11.1162 15.017 10.3698 13.8821 10.018 13.288C9.64791 12.6501 10.0233 12.2108 10.2035 12C10.3182 11.8573 10.4302 11.7392 10.5422 11.6202C10.6157 11.5423 10.6892 11.4645 10.7644 11.377C10.9613 11.1503 11.026 11.0751 11.1109 10.894C11.1363 10.8441 11.1503 10.7732 11.0593 10.5842C10.9928 10.4442 10.5675 9.41697 10.2254 8.58397L9.90866 7.8166C9.76428 7.4701 9.76428 7.4701 9.48953 7.4596C9.36353 7.45085 9.23053 7.44385 9.08266 7.44385Z" fill="#FEE0AB"/>
<path d="M6.5625 3.9375C6.80412 3.9375 7 3.74162 7 3.5C7 3.25838 6.80412 3.0625 6.5625 3.0625C6.32088 3.0625 6.125 3.25838 6.125 3.5C6.125 3.74162 6.32088 3.9375 6.5625 3.9375Z" fill="#FEE0AB"/>
</g>
<defs>
<clipPath id="clip0_111_221">
<rect width="28" height="28" fill="white"/>
</clipPath>
</defs>
</svg>
