<svg width="43" height="43" viewBox="0 0 43 43" fill="none" xmlns="http://www.w3.org/2000/svg">
<g opacity="0.2" clip-path="url(#clip0_51_154)">
<path opacity="0.6" d="M34.6809 13.6087C40.454 19.4011 41.2622 28.0837 36.7109 33.5083C37.008 33.252 37.2979 32.9826 37.5794 32.7002C43.6341 26.625 43.6341 16.7756 37.5794 10.7005C31.5248 4.62556 21.708 4.62556 15.6531 10.7005C15.3716 10.9829 15.1031 11.2739 14.8477 11.5719C20.2542 7.00535 28.9076 7.81625 34.6807 13.6087H34.6809Z" fill="#B6B6B6"/>
<path opacity="0.5" d="M27.9362 20.8688C27.9362 24.926 24.6586 28.2122 20.619 28.2122C16.5794 28.2122 13.3018 24.926 13.3018 20.8688C13.3018 16.8116 16.5794 13.5254 20.619 13.5254C24.6586 13.5254 27.9362 16.8116 27.9362 20.8688Z" stroke="#B6B6B6"/>
<path opacity="0.2" d="M27.7962 34.6558C22.0231 40.4482 13.3694 41.2591 7.96289 36.6925C8.21834 36.9906 8.48683 37.2815 8.76836 37.564C14.8233 43.6391 24.6398 43.6389 30.6947 37.564C36.7493 31.4891 36.7493 21.6394 30.6947 15.5643C30.4131 15.2818 30.1232 15.0124 29.8262 14.7561C34.3775 20.1807 33.5693 28.8631 27.7962 34.6555V34.6558Z" fill="#B6B6B6"/>
<path opacity="0.4" d="M7.43948 28.4778C1.66638 22.6854 0.858193 14.0027 5.4095 8.57812C5.11247 8.83443 4.82251 9.10382 4.54098 9.38629C-1.51366 15.4615 -1.51366 25.3108 4.54098 31.386C10.5956 37.4609 20.4124 37.4609 26.4673 31.386C26.7488 31.1035 27.0173 30.8126 27.2728 30.5146C21.8663 35.0811 13.2129 34.2702 7.43976 28.4778H7.43948Z" fill="#B6B6B6"/>
<path opacity="0.8" d="M13.6846 7.46448C19.4577 1.67206 28.1114 0.861168 33.5179 5.4277C33.2624 5.12968 32.9939 4.83875 32.7124 4.55628C26.6575 -1.5189 16.841 -1.51862 10.7861 4.55628C4.73146 10.6312 4.73146 20.4808 10.7861 26.556C11.0676 26.8385 11.3576 27.1078 11.6546 27.3641C7.10331 21.9395 7.9115 13.2572 13.6846 7.46476V7.46448Z" fill="#B6B6B6"/>
</g>
<defs>
<clipPath id="clip0_51_154">
<rect width="42.1205" height="42.1205" fill="white"/>
</clipPath>
</defs>
</svg>
