<svg width="40" height="66" viewBox="0 0 40 66" fill="none" xmlns="http://www.w3.org/2000/svg">
<g clip-path="url(#clip0_57_342)">
<g opacity="0.2" clip-path="url(#clip1_57_342)">
<path d="M94.9563 76.9416C69.6862 95.0514 35.5217 75.1953 24.1138 50.2284C20.0514 41.343 19.0368 31.3655 20.3648 21.7121" stroke="#FEE0AB" stroke-width="3.11" stroke-linecap="round" stroke-linejoin="round"/>
<path d="M54.991 80.3169C54.991 80.3169 43.85 88.8097 26.0303 79.7588C26.8896 79.2691 41.1333 72.5775 54.991 80.3169Z" fill="#FEE0AB"/>
<path d="M38.4452 69.8992C38.4452 69.8992 25.1825 74.3709 11.2329 60.0645C12.206 59.8757 27.8248 58.1088 38.4452 69.8992Z" fill="#FEE0AB"/>
<path d="M25.7419 54.1407C25.7419 54.1407 11.7784 54.8995 2.18547 37.3642C3.17029 37.4439 18.6761 39.9258 25.7419 54.1407Z" fill="#FEE0AB"/>
<path d="M20.3023 39.3732C20.3023 39.3732 7.6575 34.9822 5.35054 16.4352C6.19798 16.8603 19.0631 24.5976 20.3023 39.3732Z" fill="#FEE0AB"/>
<path d="M64.727 83.3384C64.727 83.3384 65.6124 67.9884 47.0348 57.2201C47.1061 58.3049 49.2155 74.8975 64.727 83.3384Z" fill="#FEE0AB"/>
<path d="M42.6198 72.6814C42.6198 72.6814 46.3928 59.4775 32.5736 44.8115C32.3736 45.8277 30.4822 60.3208 42.6198 72.6814Z" fill="#FEE0AB"/>
<path d="M21.9074 35.391C22.6096 31.2197 24.2179 27.2337 26.2898 23.5399C26.8741 24.1472 27.3802 24.8247 27.7938 25.5582C28.3048 26.4689 28.6738 27.4494 28.9862 28.4438C31.4959 36.3879 30.9416 46.7981 26.1083 53.878C25.4646 53.1891 25.0318 51.8374 24.5698 50.9905C21.9014 46.108 20.9808 40.9315 21.9074 35.391Z" fill="#FEE0AB"/>
<path d="M19.4409 19.5627C20.2619 12.439 23.5951 5.61916 28.7136 0.582521C30.4133 2.06504 29.7555 5.63253 29.4659 7.56308C28.8109 11.9819 27.4256 15.9232 25.1363 19.8242C23.7297 22.2254 21.9863 24.7553 19.9938 26.7117C19.9332 26.7714 19.862 26.8345 19.7809 26.8235C19.6609 26.8087 19.6199 26.6601 19.5997 26.547C19.4563 25.6171 19.525 24.6673 19.417 23.7307C19.2567 22.3345 19.2692 20.964 19.4338 19.5626L19.4409 19.5627Z" fill="#FEE0AB"/>
</g>
</g>
<defs>
<clipPath id="clip0_57_342">
<rect width="40" height="66" fill="white"/>
</clipPath>
<clipPath id="clip1_57_342">
<rect width="57.4881" height="106.764" fill="white" transform="translate(-15.8154 37.2915) rotate(-44.5778)"/>
</clipPath>
</defs>
</svg>
