<svg width="60" height="60" viewBox="0 0 60 60" fill="none" xmlns="http://www.w3.org/2000/svg">
<g clip-path="url(#clip0_39_21)">
<path d="M33.2693 6.29145C33.6916 5.69248 33.9411 4.98903 33.9908 4.25788C34.0405 3.52673 33.8883 2.79599 33.551 2.14542C33.2136 1.49486 32.704 0.949476 32.0778 0.568807C31.4516 0.188139 30.7328 -0.0131836 30 -0.0131836C29.2672 -0.0131836 28.5484 0.188139 27.9222 0.568807C27.296 0.949476 26.7864 1.49486 26.449 2.14542C26.1117 2.79599 25.9595 3.52673 26.0092 4.25788C26.0589 4.98903 26.3084 5.69248 26.7306 6.29145C22.0619 7.06814 17.8195 9.47414 14.7565 13.0823C11.6936 16.6904 10.0083 21.2672 10 26.0001V56.0001C10 56.1858 10.0517 56.3679 10.1494 56.5259C10.247 56.6839 10.3866 56.8116 10.5527 56.8947C14.7905 59.0128 20.9697 60.0001 30 60.0001C39.0303 60.0001 45.2095 59.0128 49.4473 56.8947C49.6133 56.8116 49.753 56.6839 49.8506 56.5259C49.9483 56.3679 50 56.1858 50 56.0001V26.0001C49.9917 21.2672 48.3064 16.6904 45.2435 13.0823C42.1805 9.47414 37.9381 7.06814 33.2693 6.29145ZM48 26.0001V51.3647C45.7655 52.3255 43.4105 52.9773 41 53.302V24.0001C41 16.7331 39.3046 12.6439 36.4703 9.22279C39.8598 10.5306 42.7746 12.8326 44.8322 15.8267C46.8898 18.8209 47.9941 22.3672 48 26.0001ZM27.1689 8.24524C27.7756 8.14915 28.3867 8.08424 29 8.05077V53.9934C26.3278 53.9867 23.6576 53.8436 21 53.5645V24.0001C21 15.983 23.0928 12.3219 26.707 8.70713L27.1689 8.24524ZM31 8.05077C31.6133 8.08424 32.2244 8.14914 32.8311 8.24523L33.293 8.70714C36.9072 12.3219 39 15.983 39 24.0001V53.5645C36.3424 53.8436 33.6722 53.9867 31 53.9934V8.05077ZM28 4.00013C28 3.60457 28.1173 3.21789 28.3371 2.88899C28.5568 2.56009 28.8692 2.30375 29.2346 2.15237C29.6001 2.001 30.0022 1.96139 30.3902 2.03856C30.7781 2.11573 31.1345 2.30621 31.4142 2.58592C31.6939 2.86562 31.8844 3.22199 31.9616 3.60995C32.0387 3.99791 31.9991 4.40005 31.8478 4.7655C31.6964 5.13095 31.44 5.44331 31.1111 5.66307C30.7822 5.88283 30.3956 6.00013 30 6.00013C29.4697 5.9996 28.9613 5.78872 28.5864 5.41376C28.2114 5.0388 28.0005 4.5304 28 4.00013ZM23.5297 9.22277C20.6954 12.6439 19 16.7331 19 24.0001V53.302C16.5895 52.9773 14.2345 52.3255 12 51.3647V26.0001C12.0059 22.3672 13.1102 18.8209 15.1678 15.8267C17.2254 12.8326 20.1402 10.5306 23.5297 9.22277ZM30 58.0001C21.689 58.0001 15.9404 57.1622 12 55.3693V53.5391C16.1636 55.212 21.9452 56.0001 30 56.0001C38.0548 56.0001 43.8364 55.212 48 53.5391V55.3693C44.0596 57.1622 38.311 58.0001 30 58.0001Z" fill="#464646"/>
</g>
<defs>
<clipPath id="clip0_39_21">
<rect width="60" height="60" fill="white"/>
</clipPath>
</defs>
</svg>
