<svg width="350" height="394" viewBox="0 0 350 394" fill="none" xmlns="http://www.w3.org/2000/svg">
<g clip-path="url(#clip0_74_389)">
<g opacity="0.5">
<path opacity="0.2" d="M77.2027 260.521L77.3062 260.701L77.3097 260.702C128.978 350.355 231.012 389.772 313.113 354.959C310.524 356.622 307.884 358.234 305.196 359.792C209.527 415.238 87.2833 382.482 32.1572 286.632C-22.9685 190.777 9.896 68.1247 105.564 12.6747C108.251 11.1175 110.96 9.63 113.688 8.21118C42.5574 62.215 25.5674 170.74 77.2027 260.521Z" stroke="#A2A2A2"/>
<path opacity="0.1" d="M161.234 61.4791L161.054 61.5826L161.054 61.5852C97.5607 98.2068 69.3207 170.191 93.0827 228.625C92.2085 227.23 91.355 225.814 90.5231 224.379C50.9604 156.114 74.3327 68.8876 142.727 29.5525C211.124 -9.78258 298.643 13.668 338.209 81.9319C339.04 83.3657 339.843 84.8083 340.619 86.2588C301.663 36.4959 224.854 24.8898 161.234 61.4791Z" stroke="#C6C6C6"/>
<path opacity="0.1" d="M222.983 106.183L222.775 106.183L222.774 106.184C171.296 106.188 128.715 139.65 121.756 183.326C121.744 182.702 121.737 182.076 121.736 181.45C121.644 125.465 166.952 80.1564 222.936 80.2499C278.922 80.3446 324.383 125.806 324.478 181.792C324.479 182.416 324.474 183.04 324.464 183.662C317.35 139.905 274.553 106.269 222.983 106.183Z" stroke="#C6C6C6"/>
</g>
</g>
<defs>
<clipPath id="clip0_74_389">
<rect width="350" height="394" fill="white"/>
</clipPath>
</defs>
</svg>
