<svg width="77" height="104" viewBox="0 0 77 104" fill="none" xmlns="http://www.w3.org/2000/svg">
<g clip-path="url(#clip0_98_671)">
<path d="M11.3574 22.8537C5.09201 22.8537 0 17.7306 0 11.4269C0 5.12315 5.09201 0 11.3574 0C17.6228 0 22.7148 5.12315 22.7148 11.4269C22.7148 17.7306 17.6228 22.8537 11.3574 22.8537ZM11.3574 3.43028C6.97384 3.43028 3.38729 7.01649 3.38729 11.4491C3.38729 15.8818 6.9517 19.468 11.3574 19.468C15.7631 19.468 19.3275 15.8818 19.3275 11.4491C19.3275 7.01649 15.7631 3.43028 11.3574 3.43028Z" fill="#FFD17E"/>
<path d="M24.7737 103.799H8.01434C7.08449 103.799 6.30962 103.042 6.30962 102.084V67.581C3.94073 66.7346 2.14746 64.2621 2.14746 61.5223V33.6568C2.14746 29.4469 5.55689 25.9944 9.76333 25.9944H12.3536C15.8073 25.9944 18.619 28.8233 18.619 32.2981V34.4142L27.0097 41.8539H40.7139C43.9462 41.8539 46.5808 44.5046 46.5808 47.7566C46.5808 51.0087 43.9462 53.6594 40.7139 53.6594H24.7958C23.3568 53.6594 21.9841 53.1248 20.9215 52.1893L18.619 50.14V92.3726H19.3939C23.3125 92.3726 26.5005 95.5802 26.5005 99.5228V102.084C26.5005 103.02 25.7478 103.799 24.7958 103.799H24.7737ZM9.69691 100.391H23.069V99.5228C23.069 97.4512 21.4085 95.7806 19.3496 95.7806H16.87C15.9402 95.7806 15.1653 95.0233 15.1653 94.0655V46.3533C15.1653 45.6851 15.5638 45.0837 16.1615 44.7941C16.7593 44.5268 17.4899 44.6159 17.977 45.0614L23.0911 49.6054C23.5339 50.0064 24.1316 50.2291 24.7294 50.2291H40.6475C42.0201 50.2291 43.127 49.1154 43.127 47.7344C43.127 46.3533 42.0201 45.2396 40.6475 45.2396H26.3013C25.8806 45.2396 25.4821 45.0837 25.1722 44.8164L15.7188 36.4412C15.3645 36.107 15.1431 35.6616 15.1431 35.1715V32.2981C15.1431 30.7166 13.8591 29.4024 12.2651 29.4024H9.67478C7.35016 29.4024 5.46834 31.2957 5.46834 33.6346V61.5001C5.46834 63.2152 6.95166 64.4403 7.94792 64.4626C8.87777 64.4626 9.6305 65.2199 9.6305 66.1777V100.391H9.69691Z" fill="#FFD17E"/>
<path d="M16.914 48.0686C16.5155 48.0686 16.117 47.935 15.7849 47.6454L11.2685 43.636C10.5601 43.0123 10.4937 41.9431 11.1136 41.2303C11.7334 40.5175 12.7961 40.4507 13.5046 41.0744L18.021 45.0838C18.7294 45.7075 18.7958 46.7767 18.1759 47.4895C17.8439 47.8681 17.3789 48.0686 16.914 48.0686Z" fill="#FFD17E"/>
<path d="M61.6576 31.8304C61.414 31.8304 61.1484 31.7858 60.927 31.6522C60.3292 31.3626 59.975 30.7612 59.975 30.1152V26.529H54.9273C53.9974 26.529 53.2225 25.7717 53.2225 24.8139C53.2225 23.8561 53.9753 23.0987 54.9273 23.0987H61.6797C62.6096 23.0987 63.3844 23.8561 63.3844 24.8139V26.5513L72.6165 19.0893L63.3844 11.6273V13.3648C63.3844 14.3003 62.6317 15.0799 61.6797 15.0799H28.6481C27.7182 15.0799 26.9434 14.3226 26.9434 13.3648C26.9434 12.4069 27.6961 11.6496 28.6481 11.6496H59.9971V8.06341C59.9971 7.39517 60.3735 6.81603 60.9713 6.52646C61.569 6.23689 62.2553 6.32599 62.7645 6.72693L76.4022 17.7528C76.8008 18.087 77.0443 18.5547 77.0443 19.0893C77.0443 19.6239 76.8008 20.0917 76.4022 20.4258L62.7645 31.4517C62.4546 31.6967 62.0782 31.8304 61.7018 31.8304H61.6576Z" fill="#FEE0AB"/>
<path d="M26.6114 26.5289H23.8883C22.9585 26.5289 22.1836 25.7716 22.1836 24.8138C22.1836 23.856 22.9363 23.0986 23.8883 23.0986H26.6114C27.5413 23.0986 28.3161 23.856 28.3161 24.8138C28.3161 25.7716 27.5634 26.5289 26.6114 26.5289Z" fill="#FEE0AB"/>
<path d="M41.9761 26.5289H36.8619C35.9321 26.5289 35.1572 25.7716 35.1572 24.8138C35.1572 23.856 35.91 23.0986 36.8619 23.0986H41.9761C42.9059 23.0986 43.6808 23.856 43.6808 24.8138C43.6808 25.7716 42.9281 26.5289 41.9761 26.5289Z" fill="#FEE0AB"/>
<path d="M54.9269 26.5289H52.2037C51.2739 26.5289 50.499 25.7716 50.499 24.8138C50.499 23.856 51.2518 23.0986 52.2037 23.0986H54.9269C55.8567 23.0986 56.6316 23.856 56.6316 24.8138C56.6316 25.7716 55.8788 26.5289 54.9269 26.5289Z" fill="#FEE0AB"/>
<path d="M61.6577 61.9234C61.4142 61.9234 61.1485 61.8788 60.9271 61.7452C60.3294 61.4556 59.9751 60.8542 59.9751 60.2083V56.622H47.0016C46.0717 56.622 45.2969 55.8647 45.2969 54.9069C45.2969 53.9491 46.0496 53.1918 47.0016 53.1918H61.6577C62.5876 53.1918 63.3624 53.9491 63.3624 54.9069V56.6443L72.5945 49.1823L63.3624 41.7204V43.4578C63.3624 44.3933 62.6097 45.1729 61.6577 45.1729H50.3225C49.3926 45.1729 48.6177 44.4156 48.6177 43.4578C48.6177 42.5 49.3705 41.7426 50.3225 41.7426H59.953V38.1564C59.953 37.4882 60.3294 36.909 60.9271 36.6195C61.5249 36.3299 62.2112 36.419 62.7204 36.8199L76.3581 47.8459C76.7566 48.18 77.0002 48.67 77.0002 49.1823C77.0002 49.6947 76.7566 50.1847 76.3581 50.5188L62.7204 61.5447C62.4104 61.7897 62.0341 61.9234 61.6577 61.9234Z" fill="#FEE0AB"/>
<path opacity="0.5" d="M40.7361 75.288H35.9762C35.0464 75.288 34.2715 74.5306 34.2715 73.5728C34.2715 72.615 35.0242 71.8577 35.9762 71.8577H40.7361C41.666 71.8577 42.4408 72.615 42.4408 73.5728C42.4408 74.5306 41.6881 75.288 40.7361 75.288Z" fill="#FEE0AB"/>
<path opacity="0.5" d="M26.4562 75.288H23.733C22.8032 75.288 22.0283 74.5306 22.0283 73.5728C22.0283 72.615 22.7811 71.8577 23.733 71.8577H26.4562C27.386 71.8577 28.1609 72.615 28.1609 73.5728C28.1609 74.5306 27.4081 75.288 26.4562 75.288Z" fill="#FEE0AB"/>
<path opacity="0.5" d="M61.6571 92.0386C61.4136 92.0386 61.1479 91.9941 60.9265 91.8604C60.3288 91.5709 59.9524 90.9695 59.9524 90.3235V86.7373H23.6442C22.7143 86.7373 21.9395 85.9799 21.9395 85.0221C21.9395 84.0643 22.6922 83.307 23.6442 83.307H61.6571C62.587 83.307 63.3618 84.0643 63.3618 85.0221V86.7596L72.5939 79.2976L63.3618 71.8356V73.573C63.3618 74.5085 62.6091 75.2882 61.6571 75.2882H52.9564C52.0266 75.2882 51.2517 74.5308 51.2517 73.573C51.2517 72.6152 52.0044 71.8579 52.9564 71.8579H59.9524V68.2717C59.9524 67.6034 60.3288 67.0243 60.9044 66.7347C61.5021 66.4451 62.1884 66.5342 62.6976 66.9352L76.3354 77.9611C76.7339 78.2952 76.9774 78.763 76.9774 79.2976C76.9774 79.8322 76.7339 80.2999 76.3354 80.6341L62.6976 91.66C62.3877 91.905 62.0113 92.0386 61.635 92.0386H61.6571Z" fill="#FEE0AB"/>
<path d="M75.2952 104H3.85218C2.92233 104 2.14746 103.243 2.14746 102.285C2.14746 101.327 2.90019 100.57 3.85218 100.57H75.2952C76.2251 100.57 77 101.327 77 102.285C77 103.243 76.2472 104 75.2952 104Z" fill="#FEE0AB"/>
</g>
<defs>
<clipPath id="clip0_98_671">
<rect width="77" height="104" fill="white"/>
</clipPath>
</defs>
</svg>
