<svg width="87" height="116" viewBox="0 0 87 116" fill="none" xmlns="http://www.w3.org/2000/svg">
<g clip-path="url(#clip0_98_494)">
<path d="M43.4998 57.0793C38.4113 57.0793 34.2549 52.8418 34.2549 47.6207C34.2549 42.3995 38.4113 38.1621 43.4998 38.1621C48.5882 38.1621 52.7446 42.3995 52.7446 47.6207C52.7446 52.8418 48.5882 57.0793 43.4998 57.0793ZM43.4998 42.0212C40.5273 42.0212 38.109 44.5435 38.109 47.6207C38.109 50.6979 40.5273 53.2202 43.4998 53.2202C46.4722 53.2202 48.8905 50.6979 48.8905 47.6207C48.8905 44.5435 46.4722 42.0212 43.4998 42.0212Z" fill="#FFD17E"/>
<path d="M56.1459 47.9234C55.0879 47.9234 54.2062 47.0658 54.2062 45.9812C54.2062 40.0286 49.3948 35.1606 43.5003 35.1606C37.6057 35.1606 32.7944 40.0034 32.7944 45.9812C32.7944 47.0406 31.9379 47.9234 30.8547 47.9234C29.7715 47.9234 28.915 47.0658 28.915 45.9812C28.915 37.8847 35.4394 31.3015 43.4751 31.3015C51.5108 31.3015 58.0351 37.8847 58.0351 45.9812C58.0351 47.0406 57.1787 47.9234 56.0955 47.9234H56.1459Z" fill="#FEE0AB"/>
<path d="M43.5002 116C42.4422 116 41.5605 115.142 41.5605 114.058V91.8364C41.5605 90.7771 42.417 89.8943 43.5002 89.8943C44.5834 89.8943 45.4399 90.7519 45.4399 91.8364V114.058C45.4399 115.117 44.5834 116 43.5002 116Z" fill="#FFD17E"/>
<path d="M51.6866 116H35.338C34.28 116 33.3984 115.142 33.3984 114.058V70.3466C21.5337 67.9504 13.372 60.6106 9.61863 54.3301C8.03164 51.6817 8.6614 48.2514 11.1049 46.3344C13.5231 44.4427 16.9742 44.6445 19.1154 46.7884C26.597 54.2796 34.1541 57.3316 35.6655 57.8865H51.3591C52.8705 57.3316 60.4528 54.2544 67.9092 46.7884C70.0504 44.6445 73.5015 44.4427 75.9197 46.3344C78.3632 48.2262 78.993 51.6565 77.406 54.3301C73.6274 60.6106 65.4657 67.9504 53.6262 70.3466V114.058C53.6262 115.117 52.7698 116 51.6866 116ZM37.2525 112.141H49.7469V68.7576C49.7469 67.7991 50.4271 66.992 51.3843 66.8406C62.8207 65.0246 70.6046 58.164 74.106 52.3627C74.6854 51.379 74.4587 50.1179 73.5518 49.4116C72.6702 48.7054 71.4107 48.781 70.6298 49.5377C61.662 58.5171 52.669 61.5438 52.2912 61.6699C52.0896 61.7456 51.8881 61.7708 51.6866 61.7708H35.338C35.1365 61.7708 34.935 61.7456 34.7335 61.6699C34.3556 61.5438 25.3626 58.5171 16.3948 49.5377C15.6139 48.7558 14.3796 48.7054 13.4728 49.4116C12.5659 50.1179 12.3392 51.379 12.9186 52.3627C16.42 58.164 24.2039 65.0246 35.6403 66.8406C36.5723 66.992 37.2777 67.7991 37.2777 68.7576V112.141H37.2525Z" fill="#FFD17E"/>
<path d="M81.2603 41.6683C80.2023 41.6683 79.3206 40.8107 79.3206 39.7261C79.3206 29.8387 62.9217 21.5152 43.4999 21.5152C24.0781 21.5152 7.67912 29.864 7.67912 39.7261C7.67912 40.7855 6.82265 41.6683 5.73946 41.6683C4.65628 41.6683 3.7998 40.8107 3.7998 39.7261C3.7998 27.3417 21.2316 17.6309 43.4747 17.6309C65.7178 17.6309 83.1495 27.3417 83.1495 39.7261C83.1495 40.7855 82.2931 41.6683 81.2099 41.6683H81.2603Z" fill="#FEE0AB"/>
<path d="M43.5002 32.815C42.4422 32.815 41.5605 31.9574 41.5605 30.8728V1.94216C41.5605 0.882801 42.417 0 43.5002 0C44.5834 0 45.4399 0.857578 45.4399 1.94216V30.898C45.4399 31.9574 44.5834 32.8402 43.5002 32.8402V32.815Z" fill="#FEE0AB"/>
<path d="M81.2601 41.6683H54.8606C53.8026 41.6683 52.9209 40.8107 52.9209 39.7261C52.9209 38.6415 53.7774 37.7839 54.8606 37.7839H81.2601C82.3181 37.7839 83.1998 38.6415 83.1998 39.7261C83.1998 40.8107 82.3433 41.6683 81.2601 41.6683Z" fill="#FEE0AB"/>
<path d="M32.4919 41.6683H5.76486C4.70686 41.6683 3.8252 40.8107 3.8252 39.7261C3.8252 38.6415 4.68167 37.7839 5.76486 37.7839H32.5171C33.5751 37.7839 34.4567 38.6415 34.4567 39.7261C34.4567 40.8107 33.6002 41.6683 32.5171 41.6683H32.4919Z" fill="#FEE0AB"/>
<path d="M67.0785 116H19.9221C18.8641 116 17.9824 115.142 17.9824 114.058C17.9824 112.973 18.8389 112.116 19.9221 112.116H67.0533C68.1113 112.116 68.993 112.973 68.993 114.058C68.993 115.142 68.1365 116 67.0533 116H67.0785Z" fill="#FEE0AB"/>
<path d="M63.4504 46.7128C63.4504 46.7128 63.3496 46.7128 63.2993 46.7128C62.2413 46.6371 61.4352 45.7038 61.5107 44.6445C61.6367 42.9798 61.6871 41.3151 61.6871 39.726C61.6871 20.2792 53.349 3.8591 43.4996 3.8591C33.6502 3.8591 25.3121 20.2792 25.3121 39.726C25.3121 41.3151 25.3625 42.9798 25.4885 44.6445C25.564 45.7038 24.758 46.6371 23.7 46.7128C22.6168 46.7884 21.7099 45.9813 21.6343 44.9219C21.5084 43.1563 21.458 41.416 21.458 39.726C21.458 17.4542 31.1311 0 43.4996 0C55.8681 0 65.5664 17.4542 65.5664 39.726C65.5664 41.416 65.4908 43.1563 65.3901 44.9219C65.3145 45.9309 64.4832 46.7128 63.4756 46.7128H63.4504Z" fill="#FEE0AB"/>
<path d="M80.9834 46.2083C80.9834 46.2083 80.8322 46.2083 80.7567 46.2083C79.6987 46.0822 78.943 45.1237 79.0689 44.0644C79.2452 42.5762 79.346 41.1385 79.346 39.726C79.346 19.9513 63.2745 3.8591 43.5253 3.8591C23.776 3.8591 7.67933 19.9513 7.67933 39.726C7.67933 41.1385 7.7549 42.551 7.95642 44.0644C8.08237 45.1237 7.32666 46.0822 6.26866 46.2083C5.21067 46.3344 4.25343 45.5777 4.12748 44.5184C3.92596 42.8789 3.8252 41.2646 3.8252 39.726C3.8252 17.8326 21.6348 0 43.5001 0C65.3653 0 83.1749 17.8326 83.1749 39.726C83.1749 41.2646 83.0742 42.8789 82.8727 44.5184C82.7467 45.5021 81.9154 46.2083 80.9582 46.2083H80.9834Z" fill="#FEE0AB"/>
<path d="M66.7756 95.2416C65.7176 95.2416 64.8359 94.384 64.8359 93.2994V90.7771C64.8359 89.7178 65.6924 88.835 66.7756 88.835C67.8588 88.835 68.7153 89.6925 68.7153 90.7771V93.2994C68.7153 94.3588 67.8588 95.2416 66.7756 95.2416Z" fill="#FEE0AB"/>
<path d="M66.7756 104.902C65.7176 104.902 64.8359 104.044 64.8359 102.96V100.438C64.8359 99.3782 65.6924 98.4954 66.7756 98.4954C67.8588 98.4954 68.7153 99.3529 68.7153 100.438V102.96C68.7153 104.019 67.8588 104.902 66.7756 104.902Z" fill="#FEE0AB"/>
<path d="M72.8464 98.7979H70.3274C69.2694 98.7979 68.3877 97.9403 68.3877 96.8557C68.3877 95.7712 69.2442 94.9136 70.3274 94.9136H72.8464C73.9044 94.9136 74.7861 95.7712 74.7861 96.8557C74.7861 97.9403 73.9296 98.7979 72.8464 98.7979Z" fill="#FEE0AB"/>
<path d="M63.1989 98.7979H60.6799C59.6219 98.7979 58.7402 97.9403 58.7402 96.8557C58.7402 95.7712 59.5967 94.9136 60.6799 94.9136H63.1989C64.2569 94.9136 65.1386 95.7712 65.1386 96.8557C65.1386 97.9403 64.2821 98.7979 63.1989 98.7979Z" fill="#FEE0AB"/>
<path opacity="0.5" d="M78.4895 73.4742C77.4315 73.4742 76.5498 72.6167 76.5498 71.5321V69.0098C76.5498 67.9504 77.4063 67.0676 78.4895 67.0676C79.5726 67.0676 80.4291 67.9252 80.4291 69.0098V71.5321C80.4291 72.5914 79.5726 73.4742 78.4895 73.4742Z" fill="#FEE0AB"/>
<path opacity="0.5" d="M78.4895 83.1346C77.4315 83.1346 76.5498 82.2771 76.5498 81.1925V78.6702C76.5498 77.6108 77.4063 76.728 78.4895 76.728C79.5726 76.728 80.4291 77.5856 80.4291 78.6702V81.1925C80.4291 82.2518 79.5726 83.1346 78.4895 83.1346Z" fill="#FEE0AB"/>
<path opacity="0.5" d="M84.5857 77.056H82.0666C81.0086 77.056 80.127 76.1984 80.127 75.1138C80.127 74.0292 80.9834 73.1716 82.0666 73.1716H84.5857C85.6437 73.1716 86.5253 74.0292 86.5253 75.1138C86.5253 76.1984 85.6688 77.056 84.5857 77.056Z" fill="#FEE0AB"/>
<path opacity="0.5" d="M74.9372 77.056H72.4182C71.3602 77.056 70.4785 76.1984 70.4785 75.1138C70.4785 74.0292 71.335 73.1716 72.4182 73.1716H74.9372C75.9952 73.1716 76.8769 74.0292 76.8769 75.1138C76.8769 76.1984 76.0204 77.056 74.9372 77.056Z" fill="#FEE0AB"/>
<path d="M20.2492 95.2416C19.1912 95.2416 18.3096 94.384 18.3096 93.2994V90.7771C18.3096 89.7178 19.166 88.835 20.2492 88.835C21.3324 88.835 22.1889 89.6925 22.1889 90.7771V93.2994C22.1889 94.3588 21.3324 95.2416 20.2492 95.2416Z" fill="#FEE0AB"/>
<path d="M20.2492 104.902C19.1912 104.902 18.3096 104.044 18.3096 102.96V100.438C18.3096 99.3782 19.166 98.4954 20.2492 98.4954C21.3324 98.4954 22.1889 99.3529 22.1889 100.438V102.96C22.1889 104.019 21.3324 104.902 20.2492 104.902Z" fill="#FEE0AB"/>
<path d="M16.6726 98.7979H14.1535C13.0955 98.7979 12.2139 97.9403 12.2139 96.8557C12.2139 95.7712 13.0703 94.9136 14.1535 94.9136H16.6726C17.7306 94.9136 18.6122 95.7712 18.6122 96.8557C18.6122 97.9403 17.7558 98.7979 16.6726 98.7979Z" fill="#FEE0AB"/>
<path d="M26.32 98.7979H23.801C22.743 98.7979 21.8613 97.9403 21.8613 96.8557C21.8613 95.7712 22.7178 94.9136 23.801 94.9136H26.32C27.378 94.9136 28.2597 95.7712 28.2597 96.8557C28.2597 97.9403 27.4032 98.7979 26.32 98.7979Z" fill="#FEE0AB"/>
<path opacity="0.5" d="M8.51095 73.4742C7.45295 73.4742 6.57129 72.6167 6.57129 71.5321V69.0098C6.57129 67.9504 7.42776 67.0676 8.51095 67.0676C9.59414 67.0676 10.4506 67.9252 10.4506 69.0098V71.5321C10.4506 72.5914 9.59414 73.4742 8.51095 73.4742Z" fill="#FEE0AB"/>
<path opacity="0.5" d="M8.51095 83.1346C7.45295 83.1346 6.57129 82.2771 6.57129 81.1925V78.6702C6.57129 77.6108 7.42776 76.728 8.51095 76.728C9.59414 76.728 10.4506 77.5856 10.4506 78.6702V81.1925C10.4506 82.2518 9.59414 83.1346 8.51095 83.1346Z" fill="#FEE0AB"/>
<path opacity="0.5" d="M4.93331 77.056H2.41427C1.35627 77.056 0.474609 76.1984 0.474609 75.1138C0.474609 74.0292 1.33108 73.1716 2.41427 73.1716H4.93331C5.99131 73.1716 6.87297 74.0292 6.87297 75.1138C6.87297 76.1984 6.0165 77.056 4.93331 77.056Z" fill="#FEE0AB"/>
<path opacity="0.5" d="M14.5817 77.056H12.0627C11.0047 77.056 10.123 76.1984 10.123 75.1138C10.123 74.0292 10.9795 73.1716 12.0627 73.1716H14.5817C15.6397 73.1716 16.5214 74.0292 16.5214 75.1138C16.5214 76.1984 15.6649 77.056 14.5817 77.056Z" fill="#FEE0AB"/>
</g>
<defs>
<clipPath id="clip0_98_494">
<rect width="86" height="116" fill="white" transform="translate(0.5)"/>
</clipPath>
</defs>
</svg>
