<svg width="118" height="106" viewBox="0 0 118 106" fill="none" xmlns="http://www.w3.org/2000/svg">
<g clip-path="url(#clip0_98_627)">
<path d="M33.1295 104.263C33.107 104.263 33.0827 104.263 33.0593 104.259L24.8936 103.626C20.0165 103.255 16.3472 99.5259 16.1708 94.7618C15.8099 86.0261 24.7226 84.8975 33.3419 83.8043C35.843 83.4873 38.4296 83.1585 40.8614 82.6577C43.0223 82.2138 44.6855 80.5229 45.0968 78.3536L45.1562 78.0366C45.248 77.5466 45.7205 77.2215 46.2083 77.3166C46.697 77.4108 47.0174 77.8845 46.9247 78.3763L46.8653 78.6933C46.3163 81.5871 44.1014 83.8396 41.2223 84.4338C38.7239 84.9464 36.1022 85.2797 33.5678 85.6013C25.0403 86.6818 17.6774 87.6165 17.9699 94.6902C18.1121 98.5224 21.0821 101.519 25.0331 101.819L33.1997 102.454C33.6956 102.491 34.0655 102.926 34.0277 103.425C33.9917 103.901 33.5966 104.262 33.1313 104.262L33.1295 104.263Z" fill="#FFD17E"/>
<path d="M45.3191 63.2435C44.8871 63.2435 44.5046 62.9283 44.4326 62.4845L43.2788 55.4425C43.1978 54.9488 43.529 54.4833 44.0195 54.4018C44.5163 54.3148 44.9735 54.6545 45.0545 55.1481L46.2083 62.1901C46.2893 62.6838 45.9581 63.1493 45.4676 63.2308C45.4172 63.2399 45.3686 63.2435 45.32 63.2435H45.3191Z" fill="#FFD17E"/>
<path d="M72.3944 63.7035C72.3368 63.7035 72.2783 63.6981 72.2207 63.6872C71.7338 63.5921 71.4143 63.1157 71.5088 62.6239L72.9506 55.1589C72.9506 54.6598 73.3457 54.3311 73.8434 54.3311C74.3411 54.3311 74.7344 54.8138 74.7344 55.3147V55.3328L73.2773 62.9717C73.1927 63.4037 72.8165 63.7044 72.3953 63.7044L72.3944 63.7035Z" fill="#FFD17E"/>
<path d="M68.483 106C56.0711 106 43.8815 104.755 39.5165 104.257C39.2681 104.229 39.0422 104.098 38.8937 103.895C38.7452 103.693 38.6867 103.437 38.7335 103.191C40.8062 92.0735 46.5194 92.2293 55.9874 92.4748C59.9411 92.5825 64.424 92.6976 69.7853 92.0944C70.2686 92.0373 70.7258 92.3951 70.7798 92.8941C70.8347 93.3914 70.4792 93.8388 69.9851 93.8949C64.5005 94.5127 59.7566 94.3886 55.9397 94.2862C46.8983 94.0471 42.5918 93.9294 40.6955 102.567C47.6867 103.33 67.1132 105.145 81.9893 103.565C82.4924 103.504 82.9262 103.872 82.9793 104.371C83.0324 104.87 82.6733 105.315 82.1792 105.367C77.8529 105.827 73.1513 106.002 68.4821 106.002L68.483 106Z" fill="#FFD17E"/>
<path d="M91.9377 103.548C91.5489 103.548 91.1907 103.294 91.0746 102.899C90.9342 102.42 91.2051 101.915 91.683 101.774C97.0956 100.161 99.9045 97.7761 100.031 94.6912C100.266 88.3674 96.5061 87.4653 83.4264 85.3124C81.5139 84.9972 79.4331 84.6557 77.1777 84.2563C74.3724 83.7609 72.1242 81.6415 71.4474 78.8573C71.3277 78.3709 71.6247 77.8809 72.1071 77.7622C72.5976 77.6454 73.0773 77.9425 73.1952 78.4261C73.7037 80.5138 75.3894 82.1025 77.4918 82.4738C79.7382 82.8705 81.8127 83.212 83.718 83.5263C95.9805 85.5442 102.137 86.5568 101.832 94.7627C101.669 98.7108 98.4258 101.653 92.1942 103.512C92.1096 103.537 92.0241 103.549 91.9395 103.549L91.9377 103.548Z" fill="#FFD17E"/>
<path d="M58.9932 41.2107C52.5294 41.2107 47.2725 35.9194 47.2725 29.4172C47.2725 27.056 47.9646 24.7753 49.275 22.8226C49.554 22.4069 50.112 22.2954 50.5251 22.5789C50.9373 22.8588 51.0453 23.4213 50.7681 23.8352C49.6602 25.489 49.0734 27.4191 49.0734 29.4181C49.0734 34.9231 53.5239 39.4001 58.9941 39.4001C64.4643 39.4001 68.913 34.9231 68.913 29.4181C68.913 23.9131 64.4643 19.4343 58.9941 19.4343C58.1571 19.4343 57.3237 19.5402 56.5128 19.7495C56.0322 19.8753 55.5417 19.581 55.4175 19.0964C55.2942 18.6119 55.5849 18.1182 56.0664 17.9942C57.0222 17.7487 58.0068 17.6228 58.9941 17.6228C65.4561 17.6228 70.713 22.9141 70.713 29.4181C70.713 35.9221 65.4552 41.2116 58.9941 41.2116L58.9932 41.2107Z" fill="#FFD17E"/>
<path d="M39.8042 69.1678C39.1391 69.1678 38.5055 68.858 38.0906 68.3137C37.5848 67.6471 37.4957 66.7622 37.8584 66.0032L43.3601 54.8917C43.5824 54.4443 44.1215 54.2604 44.5679 54.4851C45.0125 54.7079 45.1934 55.2513 44.972 55.6987L39.4748 66.7993C39.383 66.9941 39.4748 67.1535 39.5198 67.2114C39.5819 67.2929 39.6962 67.3862 39.8798 67.3491L51.0542 65.3022V65.0295C51.0542 60.6195 54.6191 57.032 59.0012 57.032C59.4989 57.032 59.9012 57.4368 59.9012 57.9377C59.9012 58.4386 59.4989 58.8434 59.0012 58.8434C55.6118 58.8434 52.8542 61.6186 52.8542 65.0295V66.0575C52.8542 66.4959 52.5428 66.8709 52.1153 66.9488L40.2065 69.1298C40.0733 69.1542 39.9383 69.1669 39.806 69.1669L39.8042 69.1678Z" fill="#FFD17E"/>
<path d="M35.8834 77.0114C33.6883 77.0114 31.6129 75.9834 30.2629 74.1701C28.6609 72.019 28.4071 69.1904 29.6014 66.7884L39.1738 47.4466C40.5508 44.666 43.3246 42.937 46.4125 42.937H52.9528C53.4505 42.937 53.8528 43.3419 53.8528 43.8427C53.8528 44.3436 53.4505 44.7485 52.9528 44.7485H46.4125C44.0122 44.7485 41.8558 46.0908 40.7857 48.2527L31.2124 67.5963C30.3106 69.4096 30.4951 71.4602 31.7038 73.0841C32.9197 74.719 34.8403 75.478 36.8356 75.113L58.0999 71.2247V64.7587C58.0999 64.2578 58.5022 63.853 58.9999 63.853C59.4976 63.853 59.8999 64.2578 59.8999 64.7587V71.9801C59.8999 72.4184 59.5885 72.7943 59.161 72.8713L37.1569 76.8955C36.7312 76.9733 36.3055 77.0105 35.8843 77.0105L35.8834 77.0114Z" fill="#FFD17E"/>
<path d="M82.1136 77.0113C81.6933 77.0113 81.2685 76.9742 80.8446 76.8963L71.103 75.1237C71.0436 75.1129 70.9869 75.0957 70.9329 75.0739L63.1497 73.6556C62.6592 73.565 62.3361 73.0949 62.4234 72.6031C62.5134 72.1077 62.9877 71.7925 63.4692 71.8722L71.4234 73.3232C71.4828 73.334 71.5395 73.3512 71.5935 73.373L81.165 75.1138C83.1513 75.4752 85.0638 74.7207 86.2788 73.0904C87.4902 71.4646 87.6747 69.4131 86.7729 67.5999L77.1978 48.2544C76.1268 46.0925 73.9722 44.7502 71.571 44.7502H65.4519C64.9542 44.7502 64.5519 44.3453 64.5519 43.8444C64.5519 43.3436 64.9542 42.9387 65.4519 42.9387H71.571C74.6598 42.9387 77.4336 44.6668 78.8079 47.4483L88.383 66.792C89.5782 69.194 89.3235 72.0243 87.7206 74.1773C86.3724 75.9887 84.3015 77.0131 82.1145 77.0131L82.1136 77.0113Z" fill="#FFD17E"/>
<path d="M78.1724 69.166C78.0401 69.166 77.9087 69.1533 77.7755 69.1307L65.8874 66.9497C65.4581 66.8718 65.1476 66.4968 65.1476 66.0584V65.0304C65.1476 61.6195 62.39 58.8443 59.0006 58.8443C58.5029 58.8443 58.1006 58.4395 58.1006 57.9386C58.1006 57.4377 58.5029 57.0329 59.0006 57.0329C63.3827 57.0329 66.9476 60.6205 66.9476 65.0304V65.3031L78.0995 67.3482C78.3002 67.3872 78.419 67.2739 78.4721 67.2015C78.5252 67.1308 78.6008 66.9859 78.509 66.802L73.0298 55.7368C72.9668 55.6109 72.9353 55.4732 72.9353 55.3337C72.9353 54.8329 73.3376 54.4189 73.8353 54.4189C74.2295 54.4189 74.5652 54.668 74.6858 55.0222L80.1191 65.9932C80.4899 66.7396 80.4107 67.6208 79.9121 68.2893C79.4936 68.8499 78.8519 69.1669 78.1733 69.1669L78.1724 69.166Z" fill="#FFD17E"/>
<path d="M59.5016 13.4057C59.0039 13.4057 58.6016 13.0008 58.6016 12.4999V0.905728C58.6016 0.40486 59.0039 0 59.5016 0C59.9993 0 60.4016 0.40486 60.4016 0.905728V12.4999C60.4016 13.0008 59.9993 13.4057 59.5016 13.4057Z" fill="#FEE0AB"/>
<path d="M91.9383 27.3449C91.7079 27.3449 91.4775 27.2561 91.302 27.0795C90.9501 26.7254 90.9501 26.1529 91.302 25.7988L99.4479 17.6011C99.7998 17.2469 100.369 17.2469 100.721 17.6011C101.072 17.9552 101.072 18.5276 100.721 18.8818L92.5746 27.0795C92.3991 27.2561 92.1687 27.3449 91.9383 27.3449Z" fill="#FEE0AB"/>
<path d="M116.6 60.2824H105.079C104.581 60.2824 104.179 59.8775 104.179 59.3767C104.179 58.8758 104.581 58.4709 105.079 58.4709H116.6C117.097 58.4709 117.5 58.8758 117.5 59.3767C117.5 59.8775 117.097 60.2824 116.6 60.2824Z" fill="#FEE0AB"/>
<path d="M12.92 59.2753H1.4C0.9023 59.2753 0.5 58.8705 0.5 58.3696C0.5 57.8687 0.9023 57.4639 1.4 57.4639H12.92C13.4177 57.4639 13.82 57.8687 13.82 58.3696C13.82 58.8705 13.4177 59.2753 12.92 59.2753Z" fill="#FEE0AB"/>
<path d="M26.7698 26.632C26.5394 26.632 26.309 26.5432 26.1335 26.3666L17.9876 18.1689C17.6357 17.8147 17.6357 17.2423 17.9876 16.8882C18.3395 16.534 18.9083 16.534 19.2602 16.8882L27.4061 25.0859C27.758 25.44 27.758 26.0134 27.4061 26.3666C27.2306 26.5432 27.0002 26.632 26.7698 26.632Z" fill="#FEE0AB"/>
<path d="M76.9293 20.9524C76.8114 20.9524 76.6935 20.9298 76.5792 20.8818C76.1202 20.687 75.906 20.1545 76.0995 19.6943L80.469 9.2821C80.6643 8.81837 81.1953 8.61186 81.6489 8.79935C82.1079 8.99408 82.3221 9.52665 82.1286 9.98676L77.7591 20.399C77.6133 20.7459 77.2794 20.9524 76.9293 20.9524Z" fill="#FEE0AB"/>
<path d="M100.811 45.8562C100.456 45.8562 100.118 45.6443 99.9772 45.2919C99.7891 44.8282 100.01 44.2993 100.471 44.1118L110.878 39.8576C111.337 39.6628 111.864 39.8911 112.051 40.3548C112.239 40.8185 112.017 41.3475 111.557 41.535L101.151 45.7892C101.04 45.8354 100.924 45.8562 100.811 45.8562H100.811Z" fill="#FEE0AB"/>
<path d="M110.547 84.8569C110.429 84.8569 110.311 84.8343 110.197 84.7863L99.8488 80.3881C99.3898 80.1933 99.1756 79.6608 99.3691 79.2016C99.5644 78.7378 100.097 78.5295 100.549 78.7188L110.897 83.1161C111.356 83.3108 111.57 83.8434 111.377 84.3035C111.231 84.6504 110.897 84.8569 110.547 84.8569Z" fill="#FEE0AB"/>
<path d="M6.78155 83.2284C6.42695 83.2284 6.09035 83.0165 5.94725 82.6642C5.76005 82.2004 5.98235 81.6715 6.44315 81.484L16.8498 77.2298C17.3061 77.0405 17.8353 77.2615 18.0225 77.727C18.2097 78.1908 17.9874 78.7197 17.5266 78.9072L7.11995 83.1614C7.00925 83.2076 6.89495 83.2284 6.78155 83.2284Z" fill="#FEE0AB"/>
<path d="M17.8001 44.3717C17.6831 44.3717 17.5643 44.349 17.4491 44.301L7.1018 39.9019C6.6437 39.7072 6.4295 39.1746 6.623 38.7145C6.8165 38.2526 7.3412 38.0424 7.802 38.2317L18.1493 42.6309C18.6074 42.8256 18.8216 43.3582 18.6281 43.8183C18.4832 44.1652 18.1502 44.3717 17.7992 44.3717H17.8001Z" fill="#FEE0AB"/>
<path d="M42.5451 20.3382C42.1896 20.3382 41.853 20.1263 41.7108 19.774L37.4844 9.30013C37.2972 8.8364 37.5195 8.30745 37.9803 8.11997C38.4375 7.92886 38.9649 8.15348 39.153 8.61721L43.3794 19.0919C43.5666 19.5557 43.3443 20.0846 42.8835 20.2721C42.7728 20.3183 42.6585 20.3391 42.5451 20.3391V20.3382Z" fill="#FEE0AB"/>
</g>
<defs>
<clipPath id="clip0_98_627">
<rect width="117" height="106" fill="white" transform="translate(0.5)"/>
</clipPath>
</defs>
</svg>
