<svg width="123" height="122" viewBox="0 0 123 122" fill="none" xmlns="http://www.w3.org/2000/svg">
<g clip-path="url(#clip0_98_457)">
<path d="M69.2315 96.7199H53.7682C52.6484 96.7199 51.7153 95.8132 51.7153 94.6666V72.6666H48.1427C47.023 72.6666 46.0898 71.7599 46.0898 70.6132V53.6799C46.0898 48.5599 50.2489 44.3999 55.3678 44.3999H67.6051C72.724 44.3999 76.8831 48.5599 76.8831 53.6799V70.6132C76.8831 71.7332 75.9766 72.6666 74.8302 72.6666H71.2577V94.6666C71.2577 95.7866 70.3512 96.7199 69.2048 96.7199H69.2315ZM55.821 92.6399H67.2052V70.6399C67.2052 69.5199 68.1117 68.5866 69.2581 68.5866H72.8307V53.6799C72.8307 50.8266 70.5112 48.4799 67.6318 48.4799H55.3945C52.5418 48.4799 50.1956 50.7999 50.1956 53.6799V68.5866H53.7682C54.8879 68.5866 55.821 69.4932 55.821 70.6399V92.6399Z" fill="#FFD17E"/>
<path d="M61.5001 96.72C60.3804 96.72 59.4473 95.8133 59.4473 94.6666V74.4266C59.4473 73.3066 60.3537 72.3733 61.5001 72.3733C62.6466 72.3733 63.553 73.28 63.553 74.4266V94.6666C63.553 95.7866 62.6466 96.72 61.5001 96.72Z" fill="#FFD17E"/>
<path d="M53.7687 72.6932C52.649 72.6932 51.7158 71.7866 51.7158 70.6399V55.5199C51.7158 54.3999 52.6223 53.4666 53.7687 53.4666C54.9151 53.4666 55.8216 54.3732 55.8216 55.5199V70.6399C55.8216 71.7599 54.9151 72.6932 53.7687 72.6932Z" fill="#FFD17E"/>
<path d="M69.2316 72.6932C68.1118 72.6932 67.1787 71.7866 67.1787 70.6399V55.5199C67.1787 54.3999 68.0852 53.4666 69.2316 53.4666C70.378 53.4666 71.2845 54.3732 71.2845 55.5199V70.6399C71.2845 71.7599 70.378 72.6932 69.2316 72.6932Z" fill="#FFD17E"/>
<path d="M61.5 42.1066C56.9943 42.1066 53.3418 38.4533 53.3418 33.9466C53.3418 29.44 56.9943 25.7866 61.5 25.7866C66.0057 25.7866 69.6582 29.44 69.6582 33.9466C69.6582 38.4533 66.0057 42.1066 61.5 42.1066ZM61.5 29.8666C59.2605 29.8666 57.4209 31.7066 57.4209 33.9466C57.4209 36.1866 59.2605 38.0266 61.5 38.0266C63.7395 38.0266 65.5791 36.1866 65.5791 33.9466C65.5791 31.7066 63.7395 29.8666 61.5 29.8666Z" fill="#FFD17E"/>
<path d="M61.5001 22.4532C60.3804 22.4532 59.4473 21.5466 59.4473 20.3999V18.6932C59.4473 17.5732 60.3537 16.6399 61.5001 16.6399C62.6466 16.6399 63.553 17.5466 63.553 18.6932V20.3999C63.553 21.5199 62.6466 22.4532 61.5001 22.4532Z" fill="#FEE0AB"/>
<path d="M85.7085 38.8267C85.1753 38.8267 84.6687 38.6401 84.2688 38.2401C83.469 37.4401 83.469 36.1601 84.2688 35.3601L89.9476 29.6801C90.7474 28.8801 92.0271 28.8801 92.8269 29.6801C93.6268 30.4801 93.6268 31.7601 92.8269 32.5601L87.1482 38.2401C86.7483 38.6401 86.2151 38.8267 85.7085 38.8267Z" fill="#FEE0AB"/>
<path d="M103.784 63.0666H93.1994C92.0796 63.0666 91.1465 62.16 91.1465 61.0133C91.1465 59.8666 92.053 58.96 93.1994 58.96H103.784C104.903 58.96 105.837 59.8666 105.837 61.0133C105.837 62.16 104.93 63.0666 103.784 63.0666Z" fill="#FEE0AB"/>
<path d="M91.4136 92.96C90.8804 92.96 90.3739 92.7734 89.9739 92.3734L84.2952 86.6934C83.4954 85.8934 83.4954 84.6134 84.2952 83.8134C85.095 83.0134 86.3747 83.0134 87.1745 83.8134L92.8533 89.4934C93.6531 90.2934 93.6531 91.5734 92.8533 92.3734C92.4534 92.7734 91.9202 92.96 91.4136 92.96Z" fill="#FEE0AB"/>
<path d="M61.5001 105.36C60.3804 105.36 59.4473 104.453 59.4473 103.307V102.027C59.4473 100.907 60.3537 99.9734 61.5001 99.9734C62.6466 99.9734 63.553 100.88 63.553 102.027V103.307C63.553 104.427 62.6466 105.36 61.5001 105.36Z" fill="#FEE0AB"/>
<path d="M31.5864 92.96C31.0532 92.96 30.5467 92.7734 30.1467 92.3734C29.3469 91.5734 29.3469 90.2934 30.1467 89.4934L35.8255 83.8134C36.6253 83.0134 37.905 83.0134 38.7049 83.8134C39.5047 84.6134 39.5047 85.8934 38.7049 86.6934L33.0261 92.3734C32.6262 92.7734 32.093 92.96 31.5864 92.96Z" fill="#FEE0AB"/>
<path d="M29.8003 63.0666H19.216C18.0962 63.0666 17.1631 62.16 17.1631 61.0133C17.1631 59.8666 18.0696 58.96 19.216 58.96H29.8003C30.9201 58.96 31.8532 59.8666 31.8532 61.0133C31.8532 62.16 30.9467 63.0666 29.8003 63.0666Z" fill="#FEE0AB"/>
<path d="M37.2916 38.8267C36.7583 38.8267 36.2518 38.6401 35.8519 38.2401L30.1731 32.5601C29.3733 31.7601 29.3733 30.4801 30.1731 29.6801C30.9729 28.8801 32.2527 28.8801 33.0525 29.6801L38.7312 35.3601C39.5311 36.1601 39.5311 37.4401 38.7312 38.2401C38.3313 38.6401 37.7981 38.8267 37.2916 38.8267Z" fill="#FEE0AB"/>
<path d="M61.5001 113.147C60.3803 113.147 59.4472 112.24 59.4472 111.093C59.4472 109.947 60.3537 109.04 61.5001 109.04C74.3239 109.04 86.4013 104.053 95.466 94.9601C114.209 76.2134 114.209 45.7334 95.466 26.9867C86.1613 17.6801 73.7641 12.7201 60.6469 12.9067C59.5005 12.9067 58.594 12.0267 58.5674 10.9067C58.5674 9.78674 59.4472 8.85341 60.5669 8.82674C74.8038 8.58674 88.2676 14.0001 98.3454 24.0801C118.661 44.4001 118.661 77.4934 98.3454 97.8134C88.5075 107.653 75.417 113.093 61.4734 113.093L61.5001 113.147Z" fill="#FEE0AB"/>
<path d="M61.4999 113.147C60.3801 113.147 59.2337 113.12 58.1139 113.04C56.9942 112.96 56.141 112 56.221 110.88C56.301 109.76 57.2341 108.88 58.3805 108.987C59.4203 109.067 60.4601 109.093 61.4999 109.093C62.6196 109.093 63.5527 110 63.5527 111.147C63.5527 112.293 62.6463 113.2 61.4999 113.2V113.147Z" fill="#FEE0AB"/>
<path d="M45.477 110.533C45.2637 110.533 45.0504 110.507 44.8371 110.427C42.7043 109.707 40.5981 108.853 38.5718 107.84C37.5587 107.333 37.1322 106.107 37.6387 105.093C38.1453 104.08 39.3717 103.68 40.3848 104.16C42.251 105.067 44.1973 105.867 46.1702 106.533C47.2366 106.88 47.8232 108.053 47.4499 109.12C47.1566 109.973 46.3568 110.507 45.5037 110.507L45.477 110.533ZM28.6274 100.853C28.1475 100.853 27.6676 100.693 27.2943 100.347C26.3878 99.5734 25.508 98.7201 24.6282 97.8667C23.8817 97.1201 23.1619 96.3467 22.4687 95.5734C21.7222 94.7201 21.8022 93.4401 22.6287 92.6934C23.4818 91.9467 24.7615 92.0267 25.508 92.8534C26.1479 93.5734 26.8144 94.2667 27.5076 94.9601C28.3074 95.7601 29.1339 96.5334 29.9604 97.2534C30.8135 98.0001 30.8935 99.2801 30.1737 100.133C29.7738 100.587 29.2139 100.827 28.6274 100.827V100.853ZM16.71 85.5201C15.9635 85.5201 15.2436 85.1201 14.8704 84.4001C13.8572 82.3734 12.9774 80.2934 12.2309 78.1601C11.8577 77.0934 12.4176 75.9201 13.484 75.5734C14.5504 75.2001 15.7235 75.7601 16.0701 76.8267C16.7633 78.8001 17.5631 80.7201 18.4962 82.5867C19.0028 83.6001 18.6029 84.8267 17.5898 85.3334C17.2965 85.4934 16.9766 85.5467 16.6833 85.5467L16.71 85.5201ZM11.5378 66.8001C10.4713 66.8001 9.59151 65.9734 9.51153 64.9067C9.40488 63.6267 9.37822 62.3201 9.35156 61.0134C9.35156 60.0534 9.37822 59.0934 9.43154 58.1334C9.48487 57.0134 10.4713 56.1601 11.5911 56.2134C12.7108 56.2667 13.5906 57.2267 13.5107 58.3734C13.4573 59.2534 13.4307 60.1334 13.4307 61.0401C13.4307 62.2401 13.484 63.4401 13.564 64.6401C13.644 65.7601 12.8175 66.7467 11.6711 66.8267C11.6177 66.8267 11.5644 66.8267 11.5111 66.8267L11.5378 66.8001ZM13.8572 47.5201C13.644 47.5201 13.4307 47.4934 13.2174 47.4134C12.151 47.0667 11.5644 45.9201 11.911 44.8267C12.6042 42.6934 13.4573 40.5601 14.4171 38.5334C14.897 37.5201 16.1234 37.0934 17.1365 37.5734C18.1496 38.0534 18.5762 39.2801 18.0963 40.2934C17.1898 42.1601 16.4167 44.1067 15.7768 46.0801C15.4836 46.9334 14.6837 47.4934 13.8306 47.4934L13.8572 47.5201ZM23.3485 30.5867C22.8686 30.5867 22.4154 30.4267 22.0155 30.1067C21.1623 29.3601 21.0557 28.0801 21.8022 27.2267C22.7086 26.1867 23.6418 25.1467 24.6282 24.1867C25.2414 23.5734 25.8813 22.9601 26.5478 22.3734C27.3743 21.6267 28.6807 21.6801 29.4272 22.5067C30.1737 23.3334 30.1204 24.6401 29.2939 25.3867C28.7073 25.9201 28.1208 26.4801 27.5343 27.0667C26.6278 27.9734 25.7746 28.9067 24.9482 29.8667C24.5482 30.3467 23.9617 30.5867 23.4018 30.5867H23.3485ZM38.5718 18.5067C37.8253 18.5067 37.1055 18.1067 36.7589 17.3867C36.2524 16.3734 36.6256 15.1467 37.6387 14.6401C39.6383 13.6001 41.7445 12.6934 43.8507 11.9467C44.9171 11.5734 46.0902 12.1334 46.4635 13.1734C46.8367 14.2401 46.3035 15.4134 45.2371 15.7867C43.2908 16.4801 41.3712 17.3334 39.505 18.2667C39.2117 18.4267 38.8918 18.4801 38.5718 18.4801V18.5067Z" fill="#FEE0AB"/>
<path d="M57.3409 13.1199C56.3011 13.1199 55.3947 12.3199 55.3147 11.2532C55.208 10.1332 56.0612 9.14655 57.1809 9.03988C58.3007 8.95988 59.4471 8.87988 60.5669 8.87988C61.7133 8.87988 62.6197 9.75988 62.6464 10.8799C62.6464 11.9999 61.7666 12.9332 60.6468 12.9599C59.6071 12.9599 58.5673 13.0399 57.5275 13.1199C57.4742 13.1199 57.4209 13.1199 57.3676 13.1199H57.3409Z" fill="#FEE0AB"/>
<path opacity="0.6" d="M61.5 122C45.8767 122 30.2535 116.053 18.3628 104.16C6.84528 92.64 0.5 77.3067 0.5 61.0133C0.5 44.72 6.84528 29.3867 18.3628 17.8667C29.8802 6.34667 45.2102 0 61.5 0C62.6198 0 63.5529 0.906667 63.5529 2.05333C63.5529 3.2 62.6464 4.10667 61.5 4.10667C46.3033 4.10667 32.0131 10.0267 21.2688 20.7733C10.4978 31.52 4.57911 45.8133 4.57911 61.0133C4.57911 76.2133 10.4978 90.5067 21.2421 101.28C43.424 123.467 79.5494 123.467 101.731 101.28C112.476 90.5333 118.394 76.24 118.394 61.0133C118.394 45.7867 112.476 31.52 101.731 20.7733C100.931 19.9733 100.931 18.6933 101.731 17.8933C102.531 17.0933 103.811 17.0933 104.611 17.8933C116.128 29.4133 122.473 44.7467 122.473 61.04C122.473 77.3333 116.128 92.6667 104.611 104.187C93.0931 115.707 77.0966 122.027 61.4733 122.027L61.5 122Z" fill="#FEE0AB"/>
<path d="M87.6807 10.1866C87.3874 10.1866 87.0675 10.1066 86.7742 9.97325C84.5081 8.85325 82.1086 7.86658 79.6824 7.03992C78.616 6.69325 78.0295 5.51992 78.4027 4.45325C78.7493 3.38658 79.9224 2.79992 80.9888 3.17325C83.5749 4.05325 86.1344 5.09325 88.5872 6.31992C89.6003 6.82658 90.0002 8.05325 89.5203 9.06658C89.1737 9.78658 88.4272 10.2132 87.6807 10.2132V10.1866Z" fill="#FEE0AB"/>
</g>
<defs>
<clipPath id="clip0_98_457">
<rect width="122" height="122" fill="white" transform="translate(0.5)"/>
</clipPath>
</defs>
</svg>
