<svg width="92" height="114" viewBox="0 0 92 114" fill="none" xmlns="http://www.w3.org/2000/svg">
<g clip-path="url(#clip0_98_655)">
<path d="M60.7446 114H24.0004C23.3725 114 22.7911 113.676 22.4655 113.143C22.1399 112.611 22.1167 111.939 22.419 111.407C23.6981 108.975 24.7911 106.034 25.6283 102.677C27.2097 96.4242 27.3957 89.8941 26.2097 83.2713C26.0469 82.2987 26.6748 81.3956 27.6515 81.2104C28.6283 81.0251 29.5353 81.6735 29.7213 82.6461C31.0004 89.7551 30.7678 96.7948 29.0702 103.533C28.4422 106.057 27.6748 108.373 26.7911 110.434H58.9539V95.4054C58.9539 94.4328 59.7446 93.6223 60.7446 93.6223H72.0934C76.9306 93.6223 80.8841 89.7088 80.8841 84.8691V83.6881L79.5353 82.6692C79.3492 82.5303 79.1864 82.345 79.0702 82.1366C77.9771 80.1915 78.605 77.76 80.512 76.6022L83.3957 74.8423V71.4614C83.3957 69.7247 84.8143 68.3121 86.5585 68.3121H87.7213C88.0934 68.3121 88.2795 68.0806 88.3492 67.9416C88.419 67.8027 88.512 67.5248 88.326 67.2006L81.7911 57.3127C81.5353 56.9422 81.4422 56.4791 81.512 56.0391C81.8376 54.1634 81.9771 52.473 81.9771 50.8752C81.9771 50.551 81.9771 50.2268 81.9771 49.9026C81.9539 48.93 82.7213 48.0964 83.6981 48.0732C84.7213 48.0732 85.512 48.8374 85.5353 49.7868C85.5353 50.1573 85.5353 50.5047 85.5353 50.8752C85.5353 52.473 85.3957 54.1403 85.1167 55.9465L91.2795 65.2554C92.1399 66.5754 92.2329 68.2426 91.4655 69.632C90.7213 71.0214 89.2795 71.8782 87.6981 71.8782H86.9539V75.838C86.9539 76.4632 86.6283 77.019 86.0934 77.3432L82.3492 79.6125C82.1632 79.7283 82.0702 79.9367 82.0702 80.1452L83.7213 81.3956C84.1632 81.7198 84.419 82.2524 84.419 82.8082V84.8691C84.419 91.654 78.8841 97.1653 72.0702 97.1653H62.4888V112.194C62.4888 113.166 61.6981 113.977 60.6981 113.977L60.7446 114Z" fill="#FEE0AB"/>
<path d="M60.7445 97.2114H49.3259C48.3491 97.2114 47.5352 96.4241 47.5352 95.4283C47.5352 94.4326 48.3259 93.6453 49.3259 93.6453H60.7445C61.7212 93.6453 62.5352 94.4326 62.5352 95.4283C62.5352 96.4241 61.7445 97.2114 60.7445 97.2114Z" fill="#FEE0AB"/>
<path d="M63.9769 114H20.8141C19.8374 114 19.0234 113.213 19.0234 112.217C19.0234 111.221 19.8141 110.434 20.8141 110.434H63.9769C64.9537 110.434 65.7676 111.221 65.7676 112.217C65.7676 113.213 64.9769 114 63.9769 114Z" fill="#FEE0AB"/>
<path d="M69.4655 54.256C69.2329 54.256 69.0004 54.2096 68.7911 54.117C67.8841 53.7465 67.4422 52.7045 67.8376 51.8014C69.326 48.2352 70.0934 44.4607 70.0934 40.5704C70.0934 35.7075 68.8608 30.8678 66.5353 26.6301C66.0701 25.7733 66.3725 24.685 67.2562 24.2218C68.1167 23.7587 69.2097 24.0597 69.6748 24.9397C72.2794 29.71 73.6515 35.1286 73.6515 40.5936C73.6515 44.947 72.8143 49.1847 71.1399 53.1908C70.8608 53.8623 70.1864 54.2791 69.4887 54.2791L69.4655 54.256Z" fill="#FFD17E"/>
<path d="M78.4651 32.6043C77.6744 32.6043 76.9535 32.0717 76.7442 31.2843C73.8837 20.2618 65.8837 10.9992 55.3488 6.50677C54.4418 6.11311 54.0232 5.07106 54.4186 4.16795C54.8139 3.26484 55.8605 2.84802 56.7674 3.24169C68.3256 8.15089 77.093 18.3166 80.2093 30.3812C80.4651 31.3307 79.8837 32.3032 78.9302 32.5348C78.7907 32.5811 78.6279 32.5811 78.4884 32.5811L78.4651 32.6043Z" fill="#FFD17E"/>
<path d="M64.9998 72.7118C64.4649 72.7118 63.9532 72.4802 63.6044 72.0403C62.9998 71.2761 63.116 70.1646 63.8835 69.5394C72.2323 62.9166 77.3253 53.0519 77.8835 42.4693C77.93 41.4967 78.7905 40.7557 79.7439 40.7788C80.7207 40.8252 81.4881 41.6588 81.4416 42.6314C80.8602 54.2328 75.2556 65.0238 66.116 72.295C65.7905 72.5497 65.3951 72.6887 64.9998 72.6887V72.7118Z" fill="#FFD17E"/>
<path d="M40.7438 81.1407C28.9763 81.1407 17.7903 76.0694 10.0461 67.2468C9.39491 66.5057 9.46468 65.3942 10.2089 64.7458C10.9531 64.0974 12.0693 64.1669 12.7205 64.9079C19.7903 72.9664 29.9996 77.5978 40.7438 77.5978C45.1158 77.5978 49.3949 76.8567 53.4414 75.3747C54.3717 75.0505 55.3949 75.5137 55.7205 76.4399C56.0461 77.3662 55.581 78.3851 54.6507 78.7093C50.2089 80.3302 45.5112 81.1407 40.7205 81.1407H40.7438Z" fill="#FFD17E"/>
<path d="M4.02326 55.3441C3.27907 55.3441 2.60465 54.881 2.34884 54.1631C0.790698 49.8097 0 45.2478 0 40.5702C0 28.5751 5.27907 17.2746 14.4884 9.54032C15.2326 8.91509 16.3721 9.00772 17 9.74873C17.6279 10.4897 17.5349 11.6244 16.7907 12.2496C8.37209 19.3124 3.55814 29.6403 3.55814 40.5702C3.55814 44.831 4.27907 48.9992 5.69767 52.959C6.02326 53.8852 5.53488 54.9041 4.60465 55.2283C4.4186 55.2978 4.2093 55.3209 4 55.3209L4.02326 55.3441Z" fill="#FFD17E"/>
<path d="M24.3257 7.15519C23.6512 7.15519 23.0001 6.78468 22.6977 6.1363C22.2791 5.25634 22.6745 4.19114 23.5582 3.77432C28.9536 1.27341 34.721 0.0229492 40.721 0.0229492C41.6977 0.0229492 42.5117 0.810274 42.5117 1.80601C42.5117 2.80174 41.721 3.58907 40.721 3.58907C35.2559 3.58907 29.9768 4.7469 25.0698 7.01625C24.8373 7.13203 24.5815 7.17834 24.3257 7.17834V7.15519Z" fill="#FFD17E"/>
<path d="M40.7438 73.314C39.6042 73.314 38.4414 73.2445 37.3252 73.1287C36.3484 73.0361 35.6275 72.1561 35.7438 71.1836C35.8368 70.211 36.7205 69.4931 37.6972 69.6089C38.6972 69.7015 39.7205 69.771 40.7438 69.771C48.6972 69.771 56.1391 66.6449 61.6972 60.9947C62.3949 60.3 63.5112 60.2768 64.2089 60.9715C64.9066 61.6662 64.9298 62.7777 64.2321 63.4724C57.9996 69.8173 49.6507 73.314 40.7205 73.314H40.7438Z" fill="#FFD17E"/>
<path d="M24.3255 68.6595C23.9999 68.6595 23.6743 68.5669 23.3952 68.3816C13.651 62.3609 7.86035 51.9404 7.86035 40.5474C7.86035 36.4718 8.60454 32.512 10.0697 28.7375C10.4185 27.8344 11.4417 27.3713 12.372 27.7186C13.279 28.066 13.7441 29.108 13.3952 30.0111C12.0929 33.3688 11.4417 36.9118 11.4417 40.5474C11.4417 50.7131 16.6278 59.9989 25.3022 65.3713C26.1394 65.8807 26.3952 66.9922 25.8836 67.8259C25.5348 68.3585 24.9534 68.6595 24.372 68.6595H24.3255Z" fill="#FFD17E"/>
<path d="M16.9769 22.3463C16.5815 22.3463 16.1629 22.2074 15.8373 21.9295C15.0931 21.3043 15.0001 20.1696 15.628 19.4286C21.9071 12.0417 31.0466 7.82715 40.7443 7.82715C48.5815 7.82715 56.1629 10.6059 62.1164 15.6772C62.8606 16.3025 62.9536 17.4371 62.3025 18.1782C61.6745 18.9192 60.535 19.0118 59.7908 18.3634C54.4885 13.8479 47.7211 11.3701 40.7443 11.3701C32.0931 11.3701 23.9304 15.1446 18.349 21.7211C18.0001 22.1379 17.4885 22.3463 17.0001 22.3463H16.9769Z" fill="#FFD17E"/>
<path d="M40.7446 56.5718C31.8841 56.5718 24.6748 49.3932 24.6748 40.5706C24.6748 31.7479 31.8841 24.5693 40.7446 24.5693C43.1167 24.5693 45.3957 25.0788 47.5353 26.0514C48.419 26.4682 48.8143 27.5102 48.3957 28.4133C47.9771 29.2933 46.9306 29.6869 46.0236 29.2701C44.3725 28.506 42.5818 28.1123 40.7446 28.1123C33.8609 28.1123 28.2329 33.693 28.2329 40.5706C28.2329 47.4481 33.8376 53.0288 40.7446 53.0288C47.6515 53.0288 53.2562 47.4481 53.2562 40.5706C53.2562 39.598 54.0469 38.7875 55.0469 38.7875C56.0469 38.7875 56.8376 39.5748 56.8376 40.5706C56.8376 49.3932 49.6283 56.5718 40.7678 56.5718H40.7446Z" fill="#FFD17E"/>
<path d="M40.744 46.3133C37.558 46.3133 34.9766 43.7429 34.9766 40.5705C34.9766 37.398 37.558 34.8276 40.744 34.8276C43.9301 34.8276 46.5114 37.398 46.5114 40.5705C46.5114 43.7429 43.9301 46.3133 40.744 46.3133ZM40.744 38.3474C39.5347 38.3474 38.5347 39.3432 38.5347 40.5473C38.5347 41.7515 39.5347 42.7472 40.744 42.7472C41.9533 42.7472 42.9533 41.7515 42.9533 40.5473C42.9533 39.3432 41.9533 38.3474 40.744 38.3474Z" fill="#FFD17E"/>
</g>
<defs>
<clipPath id="clip0_98_655">
<rect width="92" height="114" fill="white"/>
</clipPath>
</defs>
</svg>
