<svg width="102" height="121" viewBox="0 0 102 121" fill="none" xmlns="http://www.w3.org/2000/svg">
<g clip-path="url(#clip0_98_479)">
<path d="M42.82 121H26.0898C25.0504 121 24.1842 120.161 24.1842 119.099V85.1097C21.833 84.1964 20.0264 81.7033 20.0264 78.9634V51.3916C20.0264 47.0966 23.516 43.6162 27.8223 43.6162H32.6483C34.9499 43.6162 36.8308 45.4922 36.8308 47.7878V50.577C36.8308 51.6138 35.9894 52.4777 34.9252 52.4777C33.861 52.4777 33.0195 51.6384 33.0195 50.577V47.7878C33.0195 47.5656 32.8463 47.3928 32.6235 47.3928H27.7975C25.5949 47.3928 23.7882 49.1947 23.7882 51.3916V78.9634C23.7882 80.5185 25.1741 81.6786 26.0651 81.6786C27.1045 81.6786 27.946 82.5426 27.946 83.5793V117.199H40.8896V116.557C40.8896 114.632 39.3305 113.076 37.4 113.076H34.9252C33.8857 113.076 33.0195 112.237 33.0195 111.176V64.0791C33.0195 63.0424 33.861 62.1784 34.9252 62.1784C35.9894 62.1784 36.8308 63.0177 36.8308 64.0791V109.3H37.4C41.4094 109.3 44.701 112.558 44.701 116.582V119.124C44.701 120.161 43.8595 121.025 42.7953 121.025L42.82 121Z" fill="#FFD17E"/>
<path d="M29.407 40.9257C23.0465 40.9257 17.874 35.7668 17.874 29.4231C17.874 23.0793 23.0465 17.9204 29.407 17.9204C35.7674 17.9204 40.9399 23.0793 40.9399 29.4231C40.9399 35.7668 35.7674 40.9257 29.407 40.9257ZM29.407 21.697C25.1502 21.697 21.6606 25.1528 21.6606 29.4231C21.6606 33.6934 25.1254 37.1491 29.407 37.1491C33.6885 37.1491 37.1534 33.6934 37.1534 29.4231C37.1534 25.1528 33.6885 21.697 29.407 21.697Z" fill="#FFD17E"/>
<path d="M29.6545 62.055C28.813 62.055 28.0458 61.4872 27.8231 60.648C27.5508 59.6359 28.1695 58.5992 29.1843 58.3524L46.8797 53.7612C47.3746 53.6378 47.7954 53.3416 48.0676 52.9466L56.1605 42.6535C56.7297 41.8142 56.4822 40.5554 55.5665 39.9136C54.6261 39.2718 53.3639 39.5186 52.7204 40.4319L45.469 49.5156C45.2215 49.8365 44.8503 50.0586 44.4543 50.182L31.5601 53.4156C31.5601 53.4156 31.3869 53.465 31.2879 53.4897C30.3227 53.8846 29.209 53.4156 28.8378 52.4283C28.4418 51.4656 28.9368 50.3548 29.902 49.9846C30.1495 49.8858 30.3969 49.8118 30.6444 49.7377L42.8951 46.6523L49.6763 38.1857C51.4087 35.6433 55.0468 34.9768 57.6949 36.8034C60.343 38.63 61.0112 42.2585 59.2046 44.8997L51.1117 55.1929C50.3693 56.2543 49.1813 57.0935 47.7954 57.4391L30.1247 62.0303C29.9762 62.0796 29.803 62.1043 29.6545 62.1043V62.055Z" fill="#FFD17E"/>
<path d="M79.2757 28.0408C78.5085 28.0408 77.8156 27.6212 77.4691 26.9301L73.9795 19.9199L66.2084 21.0553C65.3421 21.1787 64.5007 20.7344 64.1047 19.9445C63.7087 19.1547 63.882 18.2167 64.5007 17.5996L70.1187 12.1198L66.6291 5.10957C66.2331 4.31969 66.4063 3.38171 67.0251 2.76461C67.6438 2.14752 68.609 1.99941 69.3762 2.41904L76.3306 6.04756L81.9486 0.567754C82.5921 -0.0493406 83.5325 -0.17276 84.2998 0.222181C85.067 0.617122 85.4877 1.48106 85.364 2.34499L84.0523 10.071L91.0067 13.6995C91.7986 14.1192 92.2194 14.9584 92.0709 15.8223C91.9224 16.6863 91.2294 17.3527 90.3632 17.4762L82.5921 18.6116L81.2804 26.3376C81.1319 27.2016 80.4637 27.868 79.5727 27.9915C79.4737 27.9915 79.3747 27.9915 79.2757 27.9915V28.0408ZM74.9942 15.9458C75.7614 15.9458 76.4544 16.3654 76.8009 17.0812L78.4343 20.3888L79.053 16.7603C79.2262 15.8717 79.8945 15.2299 80.7607 15.1065L84.4235 14.5635L81.1567 12.8603C80.3894 12.4653 79.9687 11.6261 80.0924 10.7622L80.7112 7.10896L78.063 9.67608C77.4443 10.2932 76.5039 10.4166 75.7119 10.0217L72.4203 8.29378L74.0537 11.6014C74.4497 12.416 74.2765 13.354 73.633 13.9464L71.0096 16.5135L74.6725 15.9704C74.6725 15.9704 74.8704 15.9704 74.9694 15.9704L74.9942 15.9458Z" fill="#FFD17E"/>
<path d="M63.7082 34.8042C63.2874 34.8042 62.8667 34.6561 62.5202 34.3846C61.7035 33.7181 61.5798 32.5333 62.248 31.7187L67.5937 25.2022C68.262 24.3876 69.4499 24.2642 70.2666 24.9307C71.0833 25.5972 71.2071 26.782 70.5388 27.5965L65.1931 34.1131C64.8219 34.5821 64.2774 34.8042 63.7329 34.8042H63.7082Z" fill="#FEE0AB"/>
<path d="M55.6652 32.7307C55.2445 32.7307 54.8237 32.5826 54.4772 32.3111C53.6605 31.6446 53.5368 30.4598 54.205 29.6452L59.5508 23.1287C60.219 22.3142 61.4069 22.1907 62.2236 22.8572C63.0403 23.5237 63.1641 24.7085 62.4959 25.5231L57.1501 32.0396C56.7789 32.5086 56.2344 32.7307 55.6899 32.7307H55.6652Z" fill="#FEE0AB"/>
<path d="M68.1388 41.9624C67.7181 41.9624 67.2974 41.8143 66.9509 41.5428C66.1342 40.8763 66.0104 39.6915 66.6786 38.8769L72.0244 32.3604C72.6926 31.5458 73.8806 31.4224 74.6973 32.0889C75.514 32.7554 75.6377 33.9402 74.9695 34.7547L69.6238 41.2713C69.2525 41.7403 68.7081 41.9624 68.1636 41.9624H68.1388Z" fill="#FEE0AB"/>
<path d="M83.2355 121H15.8939C14.8545 121 13.9883 120.161 13.9883 119.099C13.9883 118.038 14.8297 117.199 15.8939 117.199H83.2108C84.2502 117.199 85.1164 118.038 85.1164 119.099C85.1164 120.161 84.275 121 83.2108 121H83.2355Z" fill="#FEE0AB"/>
<path d="M32.376 14.8596C31.6336 14.8596 30.9159 14.4153 30.6189 13.6994C30.2229 12.7368 30.6684 11.626 31.6336 11.231C37.796 8.66393 44.3297 7.38037 51.0614 7.38037C54.5757 7.38037 58.0653 7.75063 61.4807 8.44177C62.4954 8.66393 63.1636 9.65128 62.9408 10.688C62.7181 11.7 61.7034 12.3665 60.6887 12.1443C57.5456 11.4779 54.3035 11.157 51.0614 11.157C44.8247 11.157 38.786 12.3665 33.0938 14.7361C32.8463 14.8349 32.5988 14.8842 32.376 14.8842V14.8596Z" fill="#FEE0AB"/>
<path opacity="0.5" d="M18.3934 95.6744C17.9479 95.6744 17.4777 95.5016 17.1312 95.1807C6.56346 85.6527 0.5 72.0273 0.5 57.8094C0.5 46.2574 4.31132 35.3965 11.5132 26.3869C12.1567 25.5724 13.3694 25.449 14.1861 26.0907C15.0028 26.7325 15.1513 27.942 14.4831 28.7566C7.82565 37.0997 4.31132 47.146 4.31132 57.8341C4.31132 70.9659 9.90456 83.5793 19.6803 92.4161C20.4476 93.1072 20.5218 94.3168 19.8041 95.082C19.4329 95.5016 18.9131 95.6991 18.3934 95.6991V95.6744Z" fill="#FEE0AB"/>
<path d="M91.5754 32.7555C90.9567 32.7555 90.3627 32.4593 89.9915 31.9162C89.447 31.1017 88.8778 30.3118 88.3085 29.5466C87.6651 28.7073 87.8383 27.5225 88.655 26.9054C89.4965 26.2636 90.6844 26.4364 91.3031 27.251C91.9466 28.0902 92.5406 28.9295 93.1346 29.8181C93.7285 30.682 93.4811 31.8669 92.6148 32.4346C92.2931 32.6567 91.9219 32.7555 91.5506 32.7555H91.5754Z" fill="#FEE0AB"/>
<path d="M58.8335 107.646C57.9178 107.646 57.1011 106.98 56.9526 106.042C56.7793 105.005 57.497 104.042 58.5365 103.87C60.5659 103.549 62.6201 103.08 64.6 102.487C65.6147 102.166 66.6541 102.759 66.9511 103.746C67.2481 104.758 66.6789 105.795 65.6889 106.091C63.5358 106.733 61.3331 107.251 59.1305 107.597C59.0315 107.597 58.9325 107.597 58.8335 107.597V107.646ZM76.9249 100.858C76.3062 100.858 75.6874 100.537 75.3162 99.9695C74.7717 99.0809 75.0192 97.9208 75.9102 97.353C77.6673 96.2423 79.375 95.0327 80.9589 93.6998C81.7756 93.0334 82.9636 93.1321 83.6318 93.9467C84.3 94.7612 84.201 95.946 83.3843 96.6125C81.6519 98.0442 79.8205 99.3524 77.9396 100.562C77.6179 100.759 77.2714 100.858 76.9249 100.858ZM90.9327 87.5782C90.5615 87.5782 90.1655 87.4795 89.8438 87.2327C88.9776 86.6403 88.7796 85.4554 89.3735 84.5915C90.5615 82.8883 91.6504 81.1111 92.6156 79.2845C93.1106 78.3465 94.2491 78.0009 95.1648 78.4699C96.1052 78.9636 96.4517 80.099 95.9815 81.0123C94.942 82.9871 93.7788 84.9371 92.4919 86.7637C92.1207 87.282 91.5267 87.5782 90.9327 87.5782ZM98.6791 69.9046C98.5554 69.9046 98.4069 69.9046 98.2831 69.8553C97.2684 69.6331 96.6002 68.6211 96.8229 67.609C97.2437 65.585 97.5654 63.5362 97.7139 61.4628C97.7881 60.4261 98.6791 59.6115 99.7433 59.7349C100.783 59.809 101.575 60.7223 101.476 61.759C101.302 63.9805 100.981 66.2267 100.511 68.3989C100.313 69.2875 99.5453 69.9046 98.6544 69.9046H98.6791ZM98.9018 50.6266C98.0109 50.6266 97.2189 49.9848 97.0457 49.0962C96.6497 47.0474 96.13 45.0234 95.4865 43.0733C95.1648 42.086 95.6845 40.9999 96.6744 40.679C97.6644 40.3581 98.7534 40.8765 99.0751 41.8638C99.7928 43.9866 100.362 46.1588 100.783 48.3804C100.981 49.4171 100.313 50.4044 99.2731 50.6019C99.1493 50.6019 99.0256 50.6266 98.9266 50.6266H98.9018Z" fill="#FEE0AB"/>
<path d="M45.8395 107.967C45.8395 107.967 45.7158 107.967 45.6416 107.967C44.6021 107.844 43.5379 107.72 42.5232 107.523C41.4838 107.35 40.7908 106.363 40.964 105.326C41.1373 104.289 42.1272 103.623 43.1667 103.771C44.1071 103.944 45.0723 104.067 46.0623 104.166C47.1017 104.289 47.869 105.202 47.7452 106.239C47.6462 107.202 46.8295 107.918 45.8643 107.918L45.8395 107.967Z" fill="#FEE0AB"/>
<path d="M51.087 89.1086C48.0923 89.1086 45.1472 88.689 42.3011 87.8744C41.2864 87.5782 40.7172 86.5415 41.0142 85.5295C41.3112 84.5174 42.3506 83.9497 43.3653 84.2459C45.8649 84.9617 48.4636 85.332 51.087 85.332C66.2827 85.332 78.6572 72.9901 78.6572 57.8342C78.6572 53.3911 77.5682 48.9727 75.5141 45.0727C75.0191 44.1594 75.3903 42.9993 76.306 42.5303C77.2217 42.0366 78.3849 42.4069 78.8551 43.3202C81.2063 47.7632 82.4437 52.7987 82.4437 57.8589C82.4437 75.1129 68.3616 89.158 51.0622 89.158L51.087 89.1086Z" fill="#FEE0AB"/>
</g>
<defs>
<clipPath id="clip0_98_479">
<rect width="101" height="121" fill="white" transform="translate(0.5)"/>
</clipPath>
</defs>
</svg>
