<svg width="115" height="104" viewBox="0 0 115 104" fill="none" xmlns="http://www.w3.org/2000/svg">
<g clip-path="url(#clip0_98_796)">
<path d="M77.1766 52.5285H37.8229C36.7669 52.5285 35.9141 51.6747 35.9141 50.6176V36.774C35.9141 29.8217 41.5592 24.1704 48.504 24.1704H66.5361C73.4809 24.1704 79.126 29.8217 79.126 36.774V50.6176C79.126 51.6747 78.2732 52.5285 77.2172 52.5285H77.1766ZM39.7317 48.6864H75.2678V36.7537C75.2678 31.9155 71.3487 27.9921 66.5158 27.9921H48.4837C43.6508 27.9921 39.7317 31.9155 39.7317 36.7537V48.6864Z" fill="#FEE0AB"/>
<path d="M46.108 51.8577C45.0521 51.8577 44.1992 51.004 44.1992 49.9469V39.4778C44.1992 38.4207 45.0521 37.5669 46.108 37.5669C47.1639 37.5669 48.0168 38.4207 48.0168 39.4778V49.9469C48.0168 51.004 47.1639 51.8577 46.108 51.8577Z" fill="#FEE0AB"/>
<path d="M68.8922 51.8577C67.8363 51.8577 66.9834 51.004 66.9834 49.9469V39.4778C66.9834 38.4207 67.8363 37.5669 68.8922 37.5669C69.9481 37.5669 70.801 38.4207 70.801 39.4778V49.9469C70.801 51.004 69.9481 51.8577 68.8922 51.8577Z" fill="#FEE0AB"/>
<path d="M89.016 78.2645H25.985C24.929 78.2645 24.0762 77.4107 24.0762 76.3536V63.4858C24.0762 62.4287 24.929 61.5749 25.985 61.5749H31.955V50.6179C31.955 49.5608 32.8079 48.707 33.8638 48.707H81.1168C82.1727 48.707 83.0256 49.5608 83.0256 50.6179V61.5749H88.9957C90.0516 61.5749 90.9045 62.4287 90.9045 63.4858V76.3536C90.9045 77.4107 90.0516 78.2645 88.9957 78.2645H89.016ZM27.9141 74.4224H87.1072V65.3763H81.1371C80.0812 65.3763 79.2283 64.5225 79.2283 63.4654V52.5084H35.8133V63.4654C35.8133 64.5225 34.9604 65.3763 33.9045 65.3763H27.9344V74.4224H27.9141Z" fill="#FFD17E"/>
<path d="M105.525 104H9.49571C8.43978 104 7.58691 103.146 7.58691 102.089V89.2214C7.58691 88.1643 8.43978 87.3105 9.49571 87.3105H15.7907V76.3535C15.7907 75.2964 16.6436 74.4426 17.6995 74.4426H97.3208C98.3767 74.4426 99.2296 75.2964 99.2296 76.3535V87.3105H105.525C106.581 87.3105 107.433 88.1643 107.433 89.2214V102.089C107.433 103.146 106.581 104 105.525 104ZM11.4045 100.158H103.595V91.1322H97.3005C96.2446 91.1322 95.3917 90.2784 95.3917 89.2214V78.2644H19.6083V89.2214C19.6083 90.2784 18.7554 91.1322 17.6995 91.1322H11.4045V100.158Z" fill="#FFD17E"/>
<path d="M112.591 104H2.4088C1.35287 104 0.5 103.146 0.5 102.089C0.5 101.032 1.35287 100.178 2.4088 100.178H112.571C113.627 100.178 114.48 101.032 114.48 102.089C114.48 103.146 113.627 104 112.571 104H112.591Z" fill="#FFD17E"/>
<path d="M97.3007 91.132H39.9352C38.8792 91.132 38.0264 90.2782 38.0264 89.2212C38.0264 88.1641 38.8792 87.3103 39.9352 87.3103H97.3007C98.3566 87.3103 99.2095 88.1641 99.2095 89.2212C99.2095 90.2782 98.3566 91.132 97.3007 91.132Z" fill="#FFD17E"/>
<path d="M63.4495 65.3964H33.8834C32.8275 65.3964 31.9746 64.5426 31.9746 63.4856C31.9746 62.4285 32.8275 61.5747 33.8834 61.5747H63.4495C64.5054 61.5747 65.3583 62.4285 65.3583 63.4856C65.3583 64.5426 64.5054 65.3964 63.4495 65.3964Z" fill="#FFD17E"/>
<path d="M57.4998 21.8937C51.4688 21.8937 46.5547 16.9742 46.5547 10.957C46.5547 4.9398 51.4688 0 57.4998 0C63.5308 0 68.445 4.91947 68.445 10.957C68.445 16.9945 63.5308 21.8937 57.4998 21.8937ZM57.4998 3.84206C53.5807 3.84206 50.3926 7.03362 50.3926 10.957C50.3926 14.8804 53.5807 18.0719 57.4998 18.0719C61.419 18.0719 64.6071 14.8804 64.6071 10.957C64.6071 7.03362 61.419 3.84206 57.4998 3.84206Z" fill="#FEE0AB"/>
<path d="M81.1159 65.3964H74.9225C73.8665 65.3964 73.0137 64.5426 73.0137 63.4856C73.0137 62.4285 73.8665 61.5747 74.9225 61.5747H81.1159C82.1719 61.5747 83.0247 62.4285 83.0247 63.4856C83.0247 64.5426 82.1719 65.3964 81.1159 65.3964Z" fill="#FFD17E"/>
<path d="M23.4871 91.132H17.6998C16.6439 91.132 15.791 90.2782 15.791 89.2212C15.791 88.1641 16.6439 87.3103 17.6998 87.3103H23.4871C24.5431 87.3103 25.3959 88.1641 25.3959 89.2212C25.3959 90.2782 24.5431 91.132 23.4871 91.132Z" fill="#FFD17E"/>
</g>
<defs>
<clipPath id="clip0_98_796">
<rect width="114" height="104" fill="white" transform="translate(0.5)"/>
</clipPath>
</defs>
</svg>
