<svg width="58" height="58" viewBox="0 0 58 58" fill="none" xmlns="http://www.w3.org/2000/svg">
<path d="M11.3281 12.2344C8.07922 12.2344 5.4375 9.59266 5.4375 6.34375C5.4375 3.09484 8.07922 0.453125 11.3281 0.453125C14.577 0.453125 17.2188 3.09484 17.2188 6.34375C17.2188 9.59266 14.577 12.2344 11.3281 12.2344ZM11.3281 3.17188C9.57906 3.17188 8.15625 4.59469 8.15625 6.34375C8.15625 8.09281 9.57906 9.51562 11.3281 9.51562C13.0772 9.51562 14.5 8.09281 14.5 6.34375C14.5 4.59469 13.0772 3.17188 11.3281 3.17188Z" fill="#FEE0AB"/>
<path d="M48.0312 34.8906C45.5345 34.8906 43.5 32.8561 43.5 30.3594C43.5 27.8627 45.5345 25.8281 48.0312 25.8281C50.528 25.8281 52.5625 27.8627 52.5625 30.3594C52.5625 32.8561 50.528 34.8906 48.0312 34.8906ZM48.0312 28.5469C47.0298 28.5469 46.2188 29.358 46.2188 30.3594C46.2188 31.3608 47.0298 32.1719 48.0312 32.1719C49.0327 32.1719 49.8438 31.3608 49.8438 30.3594C49.8438 29.358 49.0327 28.5469 48.0312 28.5469Z" fill="#FEE0AB"/>
<path d="M29 12.2344C25.7511 12.2344 23.1094 9.59266 23.1094 6.34375C23.1094 3.09484 25.7511 0.453125 29 0.453125C32.2489 0.453125 34.8906 3.09484 34.8906 6.34375C34.8906 9.59266 32.2489 12.2344 29 12.2344ZM29 3.17188C27.2509 3.17188 25.8281 4.59469 25.8281 6.34375C25.8281 8.09281 27.2509 9.51562 29 9.51562C30.7491 9.51562 32.1719 8.09281 32.1719 6.34375C32.1719 4.59469 30.7491 3.17188 29 3.17188Z" fill="#FEE0AB"/>
<path d="M57.0712 48.6928L56.2737 44.3111C55.5578 40.3825 52.4131 37.4145 48.4483 36.9342C43.5953 36.3452 39.8525 32.5389 39.3495 27.6769L38.8556 22.9508C38.3254 17.8758 34.0797 14.0469 28.9684 14.0469C26.8569 14.0469 24.8404 14.6994 23.1367 15.9364C22.5295 16.3759 22.3936 17.2278 22.8331 17.835C23.2726 18.4422 24.1245 18.5781 24.7317 18.1386C25.9687 17.2414 27.4323 16.7656 28.9684 16.7656C32.6795 16.7656 35.7653 19.5478 36.1504 23.2362L36.6444 27.9623C37.0522 31.8683 39.1184 35.2259 42.1408 37.3466V44.4062C42.1408 46.0511 42.8204 47.5373 43.9125 48.6067L44.4109 56.2691C44.4562 56.9895 45.0544 57.5423 45.7658 57.5423C45.7929 57.5423 45.8247 57.5423 45.8519 57.5378C46.5995 57.4925 47.1704 56.8445 47.1251 56.0969L46.7536 50.1473C47.1659 50.238 47.5964 50.2923 48.0359 50.2923H49.3092L48.9467 56.0969C48.9014 56.8445 49.4678 57.4925 50.22 57.5378C50.2472 57.5378 50.2789 57.5423 50.3061 57.5423C51.0175 57.5423 51.6156 56.9895 51.6609 56.2691L52.114 49.0191C52.1367 48.643 52.0053 48.2759 51.747 48.0041C51.4887 47.7322 51.1262 47.5781 50.7501 47.5781H48.0314C46.2823 47.5781 44.8595 46.1553 44.8595 44.4062V38.8147C45.8881 39.218 46.9801 39.4989 48.122 39.6348C50.8997 39.9702 53.1019 42.0455 53.6003 44.7959L54.3978 49.1777C54.5156 49.8347 55.0911 50.2923 55.7345 50.2923C55.8161 50.2923 55.8976 50.2833 55.9792 50.2697C56.7178 50.1428 57.2072 49.4314 57.0712 48.6928Z" fill="#FEE0AB"/>
<path d="M34.8906 33.9844C34.1384 33.9844 33.5312 34.5916 33.5312 35.3438V43.0469H24.4688C24.4688 42.2947 23.8616 41.6875 23.1094 41.6875C22.3572 41.6875 21.75 42.2947 21.75 43.0469C21.75 44.5467 22.9689 45.7656 24.4688 45.7656H24.5684L25.3795 56.2917C25.4339 57.0031 26.0275 57.5469 26.7344 57.5469C26.7706 57.5469 26.8023 57.5469 26.8386 57.5423C27.5862 57.4834 28.1481 56.8309 28.0892 56.0833L27.2963 45.7656H30.7038L29.9108 56.0833C29.8519 56.8309 30.4137 57.4834 31.1614 57.5423C31.1977 57.5469 31.2339 57.5469 31.2656 57.5469C31.968 57.5469 32.5661 57.0031 32.6205 56.2917L33.4316 45.7656H33.5312C35.0311 45.7656 36.25 44.5467 36.25 43.0469V35.3438C36.25 34.5916 35.6428 33.9844 34.8906 33.9844Z" fill="#FEE0AB"/>
<path d="M21.6367 22.9553C21.1066 17.8758 16.8608 14.0469 11.7495 14.0469C6.27125 14.0469 1.8125 18.5056 1.8125 23.9884V37.1562C1.8125 38.928 2.94984 40.4414 4.53125 41.0033V53.4688C4.53125 55.7163 6.36188 57.5469 8.60938 57.5469C9.65609 57.5469 10.6077 57.1481 11.3281 56.5002C12.0486 57.1481 13.0002 57.5469 14.0469 57.5469C16.2944 57.5469 18.125 55.7163 18.125 53.4688V41.6875C18.125 40.9353 17.5178 40.3281 16.7656 40.3281C16.0134 40.3281 15.4063 40.9353 15.4063 41.6875V53.4688C15.4063 54.2164 14.7945 54.8281 14.0469 54.8281C13.2992 54.8281 12.6875 54.2164 12.6875 53.4688V37.1562C12.6875 36.4041 12.0803 35.7969 11.3281 35.7969C10.5759 35.7969 9.96875 36.4041 9.96875 37.1562V53.4688C9.96875 54.2164 9.35703 54.8281 8.60938 54.8281C7.86172 54.8281 7.25 54.2164 7.25 53.4688V39.875C7.25 39.1228 6.64281 38.5156 5.89063 38.5156C5.14297 38.5156 4.53125 37.9039 4.53125 37.1562V23.9884C4.53125 20.0055 7.77109 16.7656 11.7495 16.7656C15.438 16.7656 18.5102 19.5161 18.9225 23.1728V37.1562C18.9225 37.9084 19.5297 38.5156 20.2819 38.5156C21.0341 38.5156 21.6413 37.9084 21.6413 37.1562V23.0958C21.6458 23.0505 21.6413 23.0052 21.6367 22.9553Z" fill="#FEE0AB"/>
</svg>
