<svg width="51" height="63" viewBox="0 0 51 63" fill="none" xmlns="http://www.w3.org/2000/svg">
<path d="M25.4 56.7101C35.931 56.7101 44.468 48.1538 44.468 37.5991C44.468 27.0444 35.931 18.4882 25.4 18.4882C14.8691 18.4882 6.33203 27.0444 6.33203 37.5991C6.33203 48.1538 14.8691 56.7101 25.4 56.7101Z" stroke="#FEE0AB" stroke-width="2" stroke-miterlimit="10"/>
<path d="M4.09543 49.5347C7.1624 55.0277 12.2317 59.1178 18.2408 60.9478C24.25 62.7777 30.7327 62.2055 36.3303 59.351C41.9278 56.4966 46.2058 51.5815 48.2676 45.6358C50.3295 39.69 50.0151 33.1752 47.3905 27.4566C44.7659 21.738 40.0347 17.2596 34.1884 14.9598C28.3422 12.66 21.8347 12.7174 16.0297 15.1199C10.2247 17.5224 5.57288 22.0837 3.04905 27.8476C0.525214 33.6116 0.325302 40.131 2.49121 46.0394" stroke="#FEE0AB" stroke-width="2" stroke-miterlimit="10"/>
<path d="M25.4004 18.4882V22.3829" stroke="#FEE0AB" stroke-width="2" stroke-miterlimit="10"/>
<path d="M25.4004 52.8153V56.7101" stroke="#FEE0AB" stroke-width="2" stroke-miterlimit="10"/>
<path d="M44.468 37.5991H40.582" stroke="#FEE0AB" stroke-width="2" stroke-miterlimit="10"/>
<path d="M10.2164 37.5991H6.33203" stroke="#FEE0AB" stroke-width="2" stroke-miterlimit="10"/>
<path d="M38.8835 51.1126L36.1367 48.3596" stroke="#FEE0AB" stroke-width="2" stroke-miterlimit="10"/>
<path d="M14.6638 26.8385L11.917 24.0856" stroke="#FEE0AB" stroke-width="2" stroke-miterlimit="10"/>
<path d="M11.917 51.1126L14.6638 48.3596" stroke="#FEE0AB" stroke-width="2" stroke-miterlimit="10"/>
<path d="M36.1367 26.8385L38.8835 24.0856" stroke="#FEE0AB" stroke-width="2" stroke-miterlimit="10"/>
<path d="M25.4003 40.3953C26.9411 40.3953 28.1903 39.1434 28.1903 37.5991C28.1903 36.0548 26.9411 34.8029 25.4003 34.8029C23.8595 34.8029 22.6104 36.0548 22.6104 37.5991C22.6104 39.1434 23.8595 40.3953 25.4003 40.3953Z" stroke="#FEE0AB" stroke-width="2" stroke-miterlimit="10"/>
<path d="M23.1826 12.909V8.17041H27.62V12.909" stroke="#FEE0AB" stroke-width="2" stroke-miterlimit="10"/>
<path d="M34.5678 1H16.2322C15.0463 1 14.085 1.96353 14.085 3.15211V6.01825C14.085 7.20682 15.0463 8.17036 16.2322 8.17036H34.5678C35.7537 8.17036 36.7151 7.20682 36.7151 6.01825V3.15211C36.7151 1.96353 35.7537 1 34.5678 1Z" stroke="#FEE0AB" stroke-width="2" stroke-miterlimit="10"/>
<path d="M19.46 1V8.17036" stroke="#FEE0AB" stroke-width="2" stroke-miterlimit="10"/>
<path d="M25.4004 1V8.17036" stroke="#FEE0AB" stroke-width="2" stroke-miterlimit="10"/>
<path d="M31.3408 1V8.17036" stroke="#FEE0AB" stroke-width="2" stroke-miterlimit="10"/>
<path d="M25.4004 29.0389V34.8029" stroke="#FEE0AB" stroke-width="2" stroke-miterlimit="10"/>
<path d="M20.7831 28.8358H20.6951C19.3504 28.8358 18.0608 29.3712 17.11 30.3242C16.1592 31.2771 15.625 32.5696 15.625 33.9173" stroke="#FEE0AB" stroke-width="2" stroke-miterlimit="10"/>
</svg>
