<svg width="70" height="52" viewBox="0 0 70 52" fill="none" xmlns="http://www.w3.org/2000/svg">
<path d="M10.9727 0.957136C10.7031 0.95323 10.4414 1.0587 10.25 1.2501C9.85938 1.64073 9.85938 2.27745 10.25 2.66807C10.6406 3.05479 11.2734 3.05479 11.6641 2.66807C12.0547 2.27745 12.0547 1.64073 11.6641 1.2501C11.4805 1.06651 11.2344 0.964949 10.9727 0.957136ZM59.0547 0.957136C58.7852 0.957136 58.5234 1.0626 58.332 1.2501C57.9453 1.64073 57.9453 2.27745 58.332 2.66807C58.7227 3.05479 59.3594 3.05479 59.75 2.66807C60.1367 2.27745 60.1367 1.64073 59.75 1.2501C59.5625 1.06651 59.3164 0.961043 59.0547 0.957136ZM61.9883 4.29698C61.9648 4.29698 61.9414 4.30089 61.9219 4.30089C61.7188 4.3126 61.5234 4.38292 61.3633 4.50401C60.9258 4.84385 60.8438 5.46885 61.1836 5.90635C61.5195 6.34776 62.1445 6.42979 62.582 6.09385C63.0234 5.75401 63.1055 5.12901 62.7656 4.6876C62.582 4.44932 62.2969 4.30479 61.9883 4.29698ZM8.01172 4.30089C7.70703 4.30479 7.42188 4.44932 7.23438 4.69151C6.89844 5.12901 6.98047 5.75792 7.41797 6.09385C7.85547 6.42979 8.48438 6.34776 8.82031 5.91026C9.15625 5.47276 9.07422 4.84385 8.63672 4.50792C8.45703 4.3712 8.23828 4.29698 8.01172 4.30089ZM15.0039 5.00401C9.46484 10.2853 6 17.7423 6 26.0001C6 34.2579 9.46484 41.7149 15.0039 46.9962L16.3867 45.547C11.2227 40.629 8 33.6993 8 26.0001C8 18.3009 11.2227 11.3712 16.3867 6.45323L15.0039 5.00401ZM54.9961 5.00401L53.6133 6.45323C58.7773 11.3712 62 18.3009 62 26.0001C62 33.6993 58.7773 40.629 53.6133 45.547L54.9961 46.9962C60.5352 41.7149 64 34.2579 64 26.0001C64 17.7423 60.5352 10.2853 54.9961 5.00401ZM64.4219 8.0001C64.2539 8.00401 64.0898 8.05089 63.9414 8.13292C63.7148 8.26573 63.5469 8.48448 63.4766 8.74229C63.4102 8.9962 63.4453 9.26964 63.5781 9.5001C63.8555 9.97667 64.4648 10.1407 64.9414 9.86339C65.4219 9.58995 65.5859 8.97667 65.3086 8.5001C65.125 8.1837 64.7852 7.99229 64.4219 8.0001ZM5.50781 8.0001C5.16797 8.01964 4.85938 8.20714 4.6875 8.5001C4.41406 8.97667 4.57813 9.58995 5.05469 9.86339C5.28516 10.0001 5.55859 10.0353 5.8125 9.96495C6.07031 9.89854 6.28906 9.73057 6.42188 9.5001C6.69922 9.02354 6.53125 8.41026 6.05469 8.13682C5.89063 8.03917 5.69922 7.99229 5.50781 8.0001ZM20.875 10.8595C20.6016 10.8517 20.3398 10.9571 20.1523 11.1524C19.7617 11.5392 19.7617 12.1759 20.1523 12.5626C20.5391 12.9532 21.1758 12.9532 21.5625 12.5626C21.9531 12.1759 21.9531 11.5392 21.5625 11.1524C21.3789 10.9649 21.1328 10.8634 20.875 10.8595ZM49.1562 10.8595C48.8867 10.8556 48.625 10.961 48.4336 11.1524C48.043 11.5392 48.043 12.1759 48.4336 12.5626C48.8242 12.9532 49.457 12.9532 49.8477 12.5626C50.2383 12.1759 50.2383 11.5392 49.8477 11.1524C49.6641 10.9689 49.4141 10.8634 49.1562 10.8595ZM3.60938 11.9884C3.19922 11.9806 2.82422 12.2228 2.66406 12.6056C2.45312 13.1173 2.69531 13.6993 3.20703 13.9103C3.71875 14.1251 4.30078 13.8829 4.51562 13.3712C4.61328 13.1251 4.61328 12.8517 4.51172 12.6056C4.41016 12.3595 4.21484 12.1642 3.96875 12.0626C3.85547 12.0157 3.73438 11.9923 3.60938 11.9884ZM66.4219 11.9884C66.2852 11.9884 66.1523 12.0118 66.0312 12.0626C65.5195 12.2774 65.2773 12.8595 65.4883 13.3712C65.6992 13.8829 66.2852 14.1251 66.7969 13.9103C67.3047 13.6993 67.5469 13.1173 67.3359 12.6056C67.1836 12.2345 66.8203 11.9923 66.4219 11.9884ZM51.6406 13.8868C51.4375 13.8829 51.2422 13.9415 51.0742 14.0548C50.8516 14.2032 50.6992 14.4298 50.6484 14.6915C50.5977 14.9532 50.6523 15.2228 50.7969 15.4415C51.1055 15.9024 51.7266 16.0274 52.1875 15.7189C52.6445 15.4103 52.7695 14.7931 52.4609 14.3321C52.2773 14.0587 51.9727 13.8907 51.6406 13.8868ZM18.3906 13.8907C18.0469 13.8829 17.7266 14.0509 17.5391 14.3321C17.2344 14.7931 17.3555 15.4142 17.8164 15.7189C18.2773 16.0274 18.8945 15.9024 19.2031 15.4415C19.5117 14.9845 19.3867 14.3634 18.9258 14.0587C18.7695 13.9493 18.582 13.8907 18.3906 13.8907ZM23.9727 14.422C20.918 17.336 19 21.4454 19 26.0001C19 30.5548 20.918 34.6642 23.9727 37.5782L25.3555 36.129C22.6758 33.5782 21 29.9923 21 26.0001C21 22.0079 22.6719 18.4259 25.3555 15.8712L23.9727 14.422ZM46.0273 14.422L44.6445 15.8712C47.3281 18.4259 49 22.0079 49 26.0001C49 29.9923 47.3242 33.5782 44.6445 36.129L46.0273 37.5782C49.082 34.6642 51 30.5548 51 26.0001C51 21.4454 49.082 17.336 46.0273 14.422ZM2.14844 16.1993C1.69922 16.2032 1.30859 16.5079 1.19531 16.9415C1.05078 17.4767 1.36719 18.0235 1.89844 18.1681C2.43359 18.3087 2.98047 17.9923 3.125 17.4571C3.26953 16.9259 2.95313 16.379 2.41797 16.2345C2.33203 16.211 2.24219 16.1993 2.14844 16.1993ZM67.8477 16.2032C67.8242 16.1993 67.8008 16.2032 67.7812 16.2032C67.7109 16.2071 67.6484 16.2189 67.582 16.2345C67.0469 16.379 66.7305 16.9259 66.875 17.461C67.0195 17.9962 67.5664 18.3126 68.0977 18.1681C68.6328 18.0235 68.9492 17.4767 68.8086 16.9415C68.6914 16.5079 68.3008 16.2071 67.8477 16.2032ZM16.543 17.3439C16.1289 17.336 15.7539 17.5821 15.5977 17.9649C15.3867 18.4728 15.6289 19.0587 16.1406 19.2696C16.6484 19.4806 17.2344 19.2384 17.4453 18.7306C17.6562 18.2189 17.4141 17.6329 16.9062 17.422C16.7891 17.3751 16.668 17.3478 16.543 17.3439ZM53.4844 17.3439C53.3516 17.3439 53.2188 17.3712 53.0938 17.422C52.5859 17.6329 52.3438 18.2149 52.5547 18.7267C52.6562 18.9728 52.8516 19.1681 53.0938 19.2696C53.3398 19.3712 53.6172 19.3712 53.8594 19.2696C54.3711 19.0587 54.6133 18.4728 54.4023 17.9649C54.25 17.5939 53.8867 17.3478 53.4844 17.3439ZM1.25 20.5626C0.761719 20.5821 0.359375 20.9493 0.296875 21.4337C0.226563 21.9806 0.609375 22.4806 1.15625 22.5509C1.70703 22.6251 2.20703 22.2423 2.28125 21.6915C2.31641 21.4298 2.24609 21.1642 2.08203 20.9532C1.92187 20.7423 1.68359 20.6056 1.42188 20.5704C1.36328 20.5626 1.30859 20.5587 1.25 20.5626ZM68.6758 20.5626C68.6445 20.5665 68.6094 20.5665 68.5781 20.5743C68.3164 20.6056 68.0781 20.7462 67.9141 20.9571C67.7539 21.1642 67.6836 21.4337 67.7188 21.6954C67.7891 22.2423 68.293 22.6251 68.8398 22.5548C69.3867 22.4845 69.7695 21.9806 69.6992 21.4337C69.6328 20.9259 69.1914 20.5509 68.6758 20.5626ZM35 21.0001C32.25 21.0001 30 23.2501 30 26.0001C30 28.7501 32.25 31.0001 35 31.0001C37.75 31.0001 40 28.7501 40 26.0001C40 23.2501 37.75 21.0001 35 21.0001ZM54.6211 21.0978C54.5547 21.0978 54.4883 21.1056 54.4219 21.1173C53.8789 21.2267 53.5273 21.7501 53.6367 22.2931C53.7461 22.836 54.2695 23.1876 54.8125 23.0782C55.3555 22.9689 55.707 22.4454 55.5977 21.9024C55.5039 21.4376 55.0977 21.1017 54.6211 21.0978ZM15.4102 21.0978C14.9219 21.086 14.5 21.4259 14.4062 21.9064C14.2969 22.4454 14.6484 22.9728 15.1875 23.0782C15.7305 23.1876 16.2578 22.836 16.3633 22.297C16.4727 21.754 16.1211 21.2267 15.5781 21.1212C15.5234 21.1095 15.4688 21.1017 15.4102 21.0978ZM35 23.0001C36.668 23.0001 38 24.3321 38 26.0001C38 27.6681 36.668 29.0001 35 29.0001C33.332 29.0001 32 27.6681 32 26.0001C32 25.7931 32.0195 25.5899 32.0625 25.3907C32.3398 24.0196 33.5391 23.0001 35 23.0001ZM1 25.0001C0.449219 25.0001 0 25.4493 0 26.0001C0 26.5509 0.449219 27.0001 1 27.0001C1.55078 27.0001 2 26.5509 2 26.0001C2 25.4493 1.55078 25.0001 1 25.0001ZM15 25.0001C14.4492 25.0001 14 25.4493 14 26.0001C14 26.5509 14.4492 27.0001 15 27.0001C15.5508 27.0001 16 26.5509 16 26.0001C16 25.4493 15.5508 25.0001 15 25.0001ZM55 25.0001C54.4492 25.0001 54 25.4493 54 26.0001C54 26.5509 54.4492 27.0001 55 27.0001C55.5508 27.0001 56 26.5509 56 26.0001C56 25.4493 55.5508 25.0001 55 25.0001ZM69 25.0001C68.4492 25.0001 68 25.4493 68 26.0001C68 26.5509 68.4492 27.0001 69 27.0001C69.5508 27.0001 70 26.5509 70 26.0001C70 25.4493 69.5508 25.0001 69 25.0001ZM54.6406 28.9024C54.1562 28.8868 53.7305 29.2267 53.6367 29.7032C53.5859 29.9649 53.6406 30.2345 53.7852 30.4571C53.9336 30.6759 54.1641 30.8282 54.4219 30.879C54.9648 30.9884 55.4922 30.6368 55.5977 30.0939C55.6523 29.836 55.5977 29.5665 55.4492 29.3439C55.3008 29.1251 55.0742 28.9728 54.8125 28.922C54.7578 28.9103 54.6992 28.9024 54.6406 28.9024ZM15.3906 28.9024C15.3203 28.9024 15.2539 28.9103 15.1875 28.922C14.6484 29.0314 14.2969 29.5548 14.4062 30.0978C14.5117 30.6407 15.0391 30.9923 15.5781 30.8829C16.1211 30.7735 16.4727 30.2501 16.3633 29.7071C16.2734 29.2423 15.8633 28.9064 15.3906 28.9024ZM1.25781 29.4376C1.22656 29.4415 1.19141 29.4415 1.16016 29.4493C0.613281 29.5196 0.226563 30.0196 0.296875 30.5665C0.371094 31.1173 0.871094 31.5001 1.42188 31.4298C1.96875 31.3595 2.35156 30.8556 2.28125 30.3087C2.21484 29.8009 1.77344 29.4259 1.25781 29.4376ZM68.668 29.4415C68.1836 29.461 67.7812 29.8282 67.7188 30.3126C67.6836 30.5743 67.7539 30.8399 67.9141 31.0509C68.0781 31.2618 68.3164 31.3985 68.5781 31.4337C68.8398 31.4689 69.1094 31.3985 69.3164 31.2345C69.5273 31.0743 69.668 30.836 69.7031 30.5743C69.7734 30.0235 69.3867 29.5235 68.8398 29.4532C68.7812 29.4454 68.7266 29.4415 68.668 29.4415ZM53.5 32.6524C53.0859 32.6446 52.7109 32.8868 52.5547 33.2696C52.3438 33.7814 52.5859 34.3634 53.0938 34.5782C53.6055 34.7892 54.1914 34.547 54.4023 34.0353C54.6133 33.5235 54.3711 32.9415 53.8594 32.7306C53.7461 32.6798 53.625 32.6564 53.5 32.6524ZM16.5312 32.6564C16.3945 32.6524 16.2656 32.6798 16.1406 32.7306C15.6289 32.9415 15.3867 33.5274 15.5977 34.0353C15.8125 34.547 16.3945 34.7892 16.9062 34.5782C17.418 34.3673 17.6602 33.7814 17.4492 33.2696C17.293 32.8985 16.9297 32.6564 16.5312 32.6564ZM2.19531 33.8009C2.09766 33.797 1.99609 33.8087 1.89844 33.8321C1.64453 33.9024 1.42578 34.0704 1.29297 34.3009C1.16016 34.5274 1.12109 34.8009 1.19141 35.0587C1.26172 35.3165 1.42969 35.5353 1.65625 35.6681C1.88672 35.8009 2.16016 35.836 2.41797 35.7657C2.95313 35.6212 3.26953 35.0743 3.125 34.5431C3.01172 34.1173 2.63672 33.8165 2.19531 33.8009ZM67.832 33.8009C67.3828 33.8048 66.9922 34.1095 66.875 34.5431C66.8047 34.8009 66.8398 35.0743 66.9727 35.3048C67.1055 35.5314 67.3242 35.6993 67.582 35.7696C67.8398 35.8399 68.1133 35.8009 68.3398 35.6681C68.5703 35.5353 68.7383 35.3165 68.8086 35.0626C68.9492 34.5274 68.6328 33.9806 68.0977 33.836C68.0117 33.8126 67.9219 33.8009 67.832 33.8009ZM18.3828 36.1095C18.1797 36.1095 17.9844 36.1681 17.8164 36.2814C17.3594 36.586 17.2344 37.2071 17.543 37.6681C17.8477 38.1251 18.4688 38.2501 18.9258 37.9415C19.3867 37.6329 19.5117 37.0157 19.2031 36.5548C19.0195 36.2814 18.7148 36.1134 18.3828 36.1095ZM51.6484 36.1095C51.3086 36.1017 50.9883 36.2696 50.7969 36.5548C50.4922 37.0157 50.6172 37.6329 51.0742 37.9415C51.5352 38.2501 52.1523 38.1251 52.4609 37.6681C52.6094 37.4454 52.6641 37.1759 52.6094 36.9142C52.5586 36.6524 52.4062 36.4259 52.1875 36.2774C52.0273 36.172 51.8398 36.1134 51.6484 36.1095ZM66.4336 38.0079C66.0195 38.0001 65.6445 38.2423 65.4883 38.6251C65.2773 39.1368 65.5195 39.7189 66.0312 39.9337C66.5391 40.1446 67.125 39.9024 67.3359 39.3907C67.5469 38.879 67.3047 38.297 66.7969 38.0821C66.6797 38.0353 66.5586 38.0118 66.4336 38.0079ZM3.59375 38.0118C3.46094 38.0118 3.33203 38.0353 3.20703 38.0899C2.69531 38.297 2.45312 38.8829 2.66406 39.3907C2.76562 39.6368 2.96094 39.8321 3.20312 39.9337C3.44922 40.0353 3.72656 40.0353 3.96875 39.9376C4.48047 39.7228 4.72266 39.1407 4.51172 38.629C4.35937 38.2579 3.99609 38.0157 3.59375 38.0118ZM20.8711 39.1407C20.6016 39.1368 20.3398 39.2423 20.1523 39.4337C19.9609 39.6212 19.8555 39.8751 19.8555 40.1407C19.8555 40.4064 19.9609 40.6603 20.1523 40.8478C20.5391 41.2384 21.1758 41.2384 21.5625 40.8478C21.7539 40.6603 21.8594 40.4064 21.8594 40.1407C21.8594 39.8751 21.7539 39.6212 21.5625 39.4337C21.3789 39.2501 21.1328 39.1446 20.8711 39.1407ZM49.1562 39.1407C48.8867 39.1368 48.625 39.2423 48.4336 39.4376C48.043 39.8243 48.043 40.461 48.4336 40.8478C48.8242 41.2384 49.457 41.2384 49.8477 40.8478C50.2383 40.461 50.2383 39.8243 49.8477 39.4376C49.6641 39.2501 49.418 39.1485 49.1562 39.1407ZM5.53125 42.0001C5.36328 42.004 5.19922 42.047 5.05469 42.1329C4.57813 42.4103 4.41406 43.0196 4.6875 43.5001C4.96484 43.9767 5.57813 44.1407 6.05469 43.8634C6.28516 43.7345 6.45313 43.5157 6.51953 43.2579C6.58984 43.0001 6.55469 42.7267 6.42188 42.5001C6.23828 42.1798 5.89844 41.9884 5.53125 42.0001ZM64.3945 42.004C64.0586 42.0196 63.75 42.2071 63.5781 42.5001C63.3008 42.9806 63.4648 43.5899 63.9414 43.8673C64.1719 44.0001 64.4453 44.0353 64.7031 43.9689C64.9609 43.8985 65.1797 43.7306 65.3125 43.5001C65.5859 43.0235 65.4219 42.4142 64.9414 42.1368C64.7773 42.0392 64.5859 41.9962 64.3945 42.004ZM61.957 45.6915C61.6523 45.6993 61.3672 45.8439 61.1836 46.0821C60.8438 46.5235 60.9297 47.1524 61.3672 47.4845C61.8047 47.8243 62.4336 47.7423 62.7695 47.3009C63.1055 46.8634 63.0234 46.2345 62.582 45.9024C62.4062 45.7618 62.1836 45.6915 61.957 45.6915ZM8.04688 45.6954C8.01953 45.6954 7.99609 45.6954 7.97266 45.6993C7.77344 45.7071 7.57812 45.7814 7.42188 45.9024C6.98047 46.2384 6.89844 46.8673 7.23438 47.3048C7.57031 47.7423 8.19922 47.8282 8.63672 47.4884C9.07422 47.1564 9.16016 46.5274 8.82422 46.0899C8.63672 45.8439 8.35156 45.6993 8.04688 45.6954ZM59.0547 49.0431C58.7852 49.0392 58.5234 49.1446 58.332 49.3321C57.9453 49.7228 57.9453 50.3595 58.332 50.7501C58.7227 51.1368 59.3594 51.1368 59.75 50.7501C60.1367 50.3595 60.1367 49.7228 59.75 49.3321C59.5625 49.1485 59.3164 49.0431 59.0547 49.0431ZM10.9727 49.0431C10.7031 49.0392 10.4414 49.1446 10.25 49.3321C10.0625 49.5235 9.95703 49.7774 9.95703 50.0431C9.95703 50.3087 10.0625 50.5626 10.25 50.7501C10.4375 50.9376 10.6914 51.0431 10.957 51.0431C11.2227 51.0431 11.4766 50.9376 11.668 50.7501C11.8555 50.5626 11.9609 50.3087 11.9609 50.0431C11.9609 49.7774 11.8555 49.5235 11.668 49.3321C11.4805 49.1524 11.2344 49.047 10.9727 49.0431Z" fill="#FEE0AB"/>
</svg>
