<svg width="112" height="85" viewBox="0 0 112 85" fill="none" xmlns="http://www.w3.org/2000/svg">
<g clip-path="url(#clip0_98_775)">
<path d="M65.72 85H46.2614C45.2847 85 44.4958 84.2095 44.4958 83.2307V54.6966H39.1991C38.2225 54.6966 37.4336 53.9061 37.4336 52.9274V31.5644C37.4336 25.5602 42.317 20.6665 48.3087 20.6665H63.6915C69.6831 20.6665 74.5666 25.5602 74.5666 31.5644V52.9274C74.5666 53.9061 73.7777 54.6966 72.801 54.6966H67.5044V83.2307C67.5044 84.2095 66.7155 85 65.7388 85H65.72ZM48.0269 81.4426H63.9357V52.9085C63.9357 51.9298 64.7246 51.1393 65.7012 51.1393H70.9979V31.5456C70.9979 27.4989 67.711 24.1862 63.654 24.1862H48.2711C44.2329 24.1862 40.9271 27.4801 40.9271 31.5456V51.1393H46.2238C47.2005 51.1393 47.9894 51.9298 47.9894 52.9085V81.4426H48.0269Z" fill="#FFD17E"/>
<path d="M55.9902 85.0001C55.0135 85.0001 54.2246 84.2096 54.2246 83.2308V57.7082C54.2246 56.7295 55.0135 55.939 55.9902 55.939C56.9669 55.939 57.7557 56.7295 57.7557 57.7082V83.2308C57.7557 84.2096 56.9669 85.0001 55.9902 85.0001Z" fill="#FFD17E"/>
<path d="M46.2616 54.6967C45.285 54.6967 44.4961 53.9062 44.4961 52.9274V33.8796C44.4961 32.9009 45.285 32.1104 46.2616 32.1104C47.2383 32.1104 48.0272 32.9009 48.0272 33.8796V52.9274C48.0272 53.9062 47.2383 54.6967 46.2616 54.6967Z" fill="#FFD17E"/>
<path d="M65.7197 54.6967C64.743 54.6967 63.9541 53.9062 63.9541 52.9274V33.8796C63.9541 32.9009 64.743 32.1104 65.7197 32.1104C66.6963 32.1104 67.4852 32.9009 67.4852 33.8796V52.9274C67.4852 53.9062 66.6963 54.6967 65.7197 54.6967Z" fill="#FFD17E"/>
<path d="M72.8007 49.7277H65.7197C64.743 49.7277 63.9541 48.9372 63.9541 47.9585C63.9541 46.9797 64.743 46.1892 65.7197 46.1892H72.8007C73.7773 46.1892 74.5662 46.9797 74.5662 47.9585C74.5662 48.9372 73.7773 49.7277 72.8007 49.7277Z" fill="#FFD17E"/>
<path d="M46.2616 49.7277H39.1806C38.2039 49.7277 37.415 48.9372 37.415 47.9585C37.415 46.9797 38.2039 46.1892 39.1806 46.1892H46.2616C47.2383 46.1892 48.0271 46.9797 48.0271 47.9585C48.0271 48.9372 47.2383 49.7277 46.2616 49.7277Z" fill="#FFD17E"/>
<path d="M55.9908 18.9914C50.7693 18.9914 46.5244 14.7376 46.5244 9.48627C46.5244 4.23494 50.7693 0 55.9908 0C61.2123 0 65.4572 4.25376 65.4572 9.48627C65.4572 14.7188 61.2123 18.9914 55.9908 18.9914ZM55.9908 3.55735C52.7226 3.55735 50.0555 6.23007 50.0555 9.50509C50.0555 12.7801 52.7226 15.4528 55.9908 15.4528C59.2589 15.4528 61.9261 12.7801 61.9261 9.50509C61.9261 6.23007 59.2589 3.55735 55.9908 3.55735Z" fill="#FFD17E"/>
<path d="M99.8662 32.3174C99.8662 32.3174 99.7347 32.3174 99.6784 32.3174C84.2768 30.6234 81.3842 13.4578 81.3655 13.2884C81.2903 12.8178 81.403 12.3473 81.6848 11.952C81.9665 11.5756 82.3985 11.3121 82.8681 11.2556C83.3564 11.1803 94.7762 9.69339 100.561 18.8973C101.087 19.7255 100.843 20.8172 100.016 21.3442C99.1901 21.8712 98.1007 21.6265 97.5748 20.7984C94.269 15.547 88.3901 14.7377 85.3286 14.7C86.4555 18.7468 90.0805 27.7248 100.092 28.8165C101.068 28.9294 101.763 29.7953 101.669 30.774C101.575 31.6775 100.805 32.355 99.9038 32.355L99.8662 32.3174Z" fill="#FEE0AB"/>
<path d="M95.2086 63.4489C94.7578 63.4489 94.3071 63.2795 93.9502 62.9407C79.3562 48.3725 84.2209 34.2372 84.4275 33.6538C84.7092 32.8444 85.5356 32.3739 86.3809 32.5056C86.8504 32.5809 98.026 34.5384 100.336 48.5796C100.505 49.5395 99.8479 50.4618 98.8712 50.6123C97.9133 50.7629 96.993 50.123 96.8427 49.1442C95.4152 40.4861 90.0622 37.437 87.3575 36.4394C86.6438 40.2038 86.0803 50.0665 96.4483 60.4186C97.1432 61.115 97.1432 62.2443 96.4483 62.9219C96.1102 63.2607 95.6406 63.4489 95.1898 63.4489H95.2086Z" fill="#FEE0AB"/>
<path d="M82.8868 82.7225C82.1919 82.7225 81.5533 82.3273 81.2528 81.6497C75.7119 68.7002 79.5811 57.1623 79.7502 56.6729C79.9192 56.2024 80.2573 55.8259 80.7081 55.6189C81.1589 55.4119 81.6848 55.4119 82.1355 55.6189C82.5488 55.7883 92.1278 60.0985 92.5786 70.8835C92.6162 71.8623 91.8649 72.6904 90.8882 72.7281C89.8927 72.7845 89.0851 72.0128 89.0475 71.0341C88.7845 65.0487 84.9529 61.5478 82.5675 59.9291C81.7975 63.6182 80.8583 71.6552 84.5209 80.238C84.9154 81.1415 84.4834 82.1767 83.5818 82.572C83.3564 82.6661 83.1122 82.7225 82.8868 82.7225Z" fill="#FEE0AB"/>
<path d="M87.5073 77.6406C86.6057 77.6406 85.8356 76.9442 85.7417 76.0407C85.6478 75.062 86.3615 74.1962 87.3382 74.1021C100.185 72.8975 103.303 65.1428 104.036 61.6984C98.2508 61.6984 94.6258 67.5709 94.5883 67.6273C94.0811 68.4743 92.9917 68.7378 92.1465 68.2296C91.3013 67.7214 91.0384 66.6298 91.5455 65.7828C91.7709 65.4063 97.2741 56.5224 106.384 58.3857C107.229 58.5551 107.83 59.3268 107.792 60.1926C107.792 60.3432 106.966 75.8149 87.6387 77.6218C87.5824 77.6218 87.526 77.6218 87.4697 77.6218L87.5073 77.6406Z" fill="#FEE0AB"/>
<path d="M97.8197 54.5836C97.1435 54.5836 96.5049 54.2072 96.2044 53.5484C95.7911 52.6638 96.2044 51.6098 97.0684 51.1957C106.272 46.9607 108.056 37.7756 108.394 33.3901C103.21 35.7428 101.332 39.7143 101.313 39.7707C100.9 40.6554 99.8482 41.0506 98.9654 40.6366C98.0826 40.2225 97.6882 39.1684 98.1014 38.2838C98.2329 38.0203 101.219 31.6397 109.709 29.1175C110.216 28.9669 110.78 29.061 111.212 29.3622C111.662 29.6633 111.925 30.1527 111.963 30.6986C111.963 30.868 113.015 47.7701 98.5522 54.4331C98.308 54.546 98.0638 54.6025 97.8197 54.6025V54.5836Z" fill="#FEE0AB"/>
<path d="M99.604 26.7837C99.0406 26.7837 98.4959 26.5202 98.139 26.012C97.5755 25.2027 97.7821 24.0922 98.5898 23.5463C105.953 18.4268 104.863 8.94049 103.924 4.68672C101.088 6.88889 99.3223 10.1451 99.3035 10.1827C98.834 11.0485 97.7634 11.3685 96.8994 10.9168C96.0354 10.4462 95.7161 9.37339 96.1668 8.52641C96.2983 8.30054 99.266 2.78571 104.206 0.33885C104.657 0.112987 105.182 0.0941647 105.652 0.282384C106.122 0.470604 106.478 0.865865 106.647 1.33641C106.892 2.01401 112.432 18.2385 100.6 26.4826C100.299 26.6896 99.9421 26.8025 99.5853 26.8025L99.604 26.7837Z" fill="#FEE0AB"/>
<path d="M80.0131 84.9999H31.9675C31.6482 84.9999 31.3101 84.9058 31.0471 84.7364C29.7887 83.9647 0.281409 64.9922 13.8799 2.74796C14.0865 1.78804 15.0257 1.18573 15.9836 1.39277C16.9415 1.59982 17.5425 2.54091 17.3359 3.50083C5.16486 59.2703 29.1689 78.9957 32.5309 81.4426H79.4684C82.8117 79.0146 106.834 59.2891 94.6634 3.50083C94.4568 2.54091 95.0579 1.59982 96.0158 1.39277C96.9737 1.18573 97.9128 1.78804 98.1194 2.74796C111.699 64.9922 82.2106 83.9647 80.9522 84.7364C80.6705 84.9058 80.3512 84.9999 80.0319 84.9999H80.0131Z" fill="#FEE0AB"/>
<path d="M12.1337 32.3172C11.2322 32.3172 10.4809 31.6396 10.3682 30.7362C10.2555 29.7574 10.9692 28.8916 11.9459 28.7787C21.8443 27.687 25.5256 18.6901 26.6901 14.6434C23.6286 14.6622 17.7872 15.4715 14.4627 20.7605C13.9368 21.5887 12.8474 21.8334 12.021 21.3063C11.1946 20.7793 10.9504 19.6877 11.4763 18.8595C17.2613 9.65555 28.6811 11.1425 29.1694 11.2178C29.639 11.2931 30.071 11.5377 30.3527 11.9142C30.6345 12.2906 30.7472 12.78 30.672 13.2505C30.6532 13.4199 27.7607 30.6044 12.3591 32.2796C12.3028 32.2796 12.2276 32.2796 12.1713 32.2796L12.1337 32.3172Z" fill="#FEE0AB"/>
<path d="M16.7918 63.4489C16.341 63.4489 15.8903 63.2795 15.5334 62.9219C14.8384 62.2255 14.8384 61.0962 15.5334 60.4186C25.8825 50.0853 25.3379 40.2226 24.6241 36.4394C21.9382 37.437 16.5852 40.4861 15.139 49.1442C14.9699 50.1042 14.0684 50.7629 13.1105 50.6123C12.1525 50.4429 11.4952 49.5395 11.6454 48.5796C13.9744 34.5384 25.1312 32.5809 25.6008 32.5056C26.446 32.3739 27.2537 32.8444 27.5542 33.6538C27.7608 34.2561 32.6255 48.3725 18.0315 62.9407C17.6934 63.2795 17.2426 63.4489 16.773 63.4489H16.7918Z" fill="#FEE0AB"/>
<path d="M29.113 82.7226C28.8876 82.7226 28.6435 82.685 28.4181 82.5721C27.5165 82.1768 27.1033 81.1416 27.479 80.2381C31.1603 71.6177 30.2024 63.5995 29.4323 59.9292C27.047 61.5291 23.1966 65.0488 22.9524 71.0342C22.9148 72.0129 22.1072 72.7846 21.1117 72.7282C20.135 72.6905 19.3837 71.8624 19.4213 70.8836C19.8908 60.0986 29.4699 55.7884 29.8643 55.619C30.3151 55.4308 30.841 55.412 31.2918 55.619C31.7426 55.8261 32.0995 56.2025 32.2497 56.673C32.4188 57.1624 36.288 68.7003 30.7471 81.6498C30.4654 82.3274 29.808 82.7226 29.113 82.7226Z" fill="#FEE0AB"/>
<path d="M24.4923 77.6406C24.4923 77.6406 24.3796 77.6406 24.3232 77.6406C5.01485 75.8337 4.18842 60.362 4.16964 60.2114C4.13207 59.3456 4.73311 58.5739 5.57832 58.4045C14.6878 56.5412 20.1911 65.4251 20.4165 65.8016C20.9236 66.6486 20.6607 67.7402 19.8155 68.2484C18.989 68.7566 17.8996 68.4931 17.3737 67.6649C17.2047 67.3826 13.6548 61.736 8.02005 61.736C8.715 65.1804 11.8705 72.9351 24.6238 74.1397C25.6005 74.2338 26.3142 75.0996 26.2203 76.0784C26.1264 77.0006 25.3563 77.6782 24.4547 77.6782L24.4923 77.6406Z" fill="#FEE0AB"/>
<path d="M14.1805 54.5837C13.9364 54.5837 13.6734 54.5272 13.448 54.4143C-1.03329 47.7701 -0.000247627 30.8492 0.0185349 30.6798C0.0560998 30.1339 0.337837 29.6445 0.769835 29.3434C1.22061 29.0422 1.76531 28.9481 2.27243 29.0987C10.7621 31.6209 13.7485 37.9827 13.88 38.265C14.2932 39.1496 13.88 40.2037 13.016 40.6178C12.1332 41.0318 11.0814 40.6178 10.6682 39.7519C10.5743 39.5449 8.69605 35.6676 3.56843 33.3525C3.85016 37.738 5.61572 46.9043 14.9131 51.1769C15.7958 51.591 16.1903 52.645 15.777 53.5296C15.4765 54.1884 14.8379 54.5648 14.1618 54.5648L14.1805 54.5837Z" fill="#FEE0AB"/>
<path d="M12.3964 26.7837C12.0395 26.7837 11.7014 26.6896 11.3821 26.4638C-0.469615 18.2197 5.09 1.99521 5.33418 1.31762C5.50322 0.847066 5.86009 0.451805 6.32965 0.263586C6.79921 0.0753658 7.32512 0.0941878 7.7759 0.320051C12.7345 2.76691 15.7021 8.26292 15.8148 8.50761C16.2656 9.37342 15.9463 10.4463 15.0823 10.9168C14.2183 11.3685 13.1477 11.0486 12.6781 10.1828C12.6593 10.1451 10.8938 6.90774 8.05764 4.70557C7.11851 8.97816 6.04791 18.4644 13.3731 23.5652C14.1807 24.1298 14.3686 25.2403 13.8239 26.0309C13.4858 26.5202 12.9223 26.8026 12.3588 26.8026L12.3964 26.7837Z" fill="#FEE0AB"/>
</g>
<defs>
<clipPath id="clip0_98_775">
<rect width="112" height="85" fill="white"/>
</clipPath>
</defs>
</svg>
