<svg width="82" height="103" viewBox="0 0 82 103" fill="none" xmlns="http://www.w3.org/2000/svg">
<g clip-path="url(#clip0_98_755)">
<path d="M11.3341 22.672C5.07925 22.672 0 17.5919 0 11.336C0 5.08012 5.07925 0 11.3341 0C17.5889 0 22.6681 5.08012 22.6681 11.336C22.6681 17.5919 17.5889 22.672 11.3341 22.672ZM11.3341 3.39414C6.96457 3.39414 3.39356 6.96576 3.39356 11.336C3.39356 15.7062 6.96457 19.2778 11.3341 19.2778C15.7035 19.2778 19.2745 15.7062 19.2745 11.336C19.2745 6.96576 15.7035 3.39414 11.3341 3.39414Z" fill="#FEE0AB"/>
<path d="M24.7527 103H8.00664C7.07508 103 6.29877 102.246 6.29877 101.292V67.0619C3.94768 66.2189 2.12891 63.7565 2.12891 61.0279V33.3867C2.12891 29.1939 5.54465 25.7998 9.7367 25.7998H12.3096C15.7475 25.7998 18.5644 28.595 18.5644 32.0557V34.141L26.9485 41.5282H40.6115C43.8498 41.5282 46.467 44.1681 46.467 47.3848C46.467 50.6014 43.8276 53.2413 40.6115 53.2413H24.7305C23.3109 53.2413 21.9136 52.7311 20.8489 51.7772L18.5644 49.7585V91.6417H19.3407C23.2444 91.6417 26.4383 94.8362 26.4383 98.7406V101.292C26.4383 102.223 25.6842 103 24.7305 103H24.7527ZM9.71452 99.6057H23.0448V98.7628C23.0448 96.7218 21.3813 95.058 19.3407 95.058H16.8787C15.9471 95.058 15.1708 94.3038 15.1708 93.3499V46.0094C15.1708 45.3438 15.5701 44.7449 16.1689 44.4565C16.7678 44.1903 17.4997 44.279 17.9877 44.7227L23.0891 49.226C23.5327 49.6253 24.1094 49.8472 24.7083 49.8472H40.5893C41.9423 49.8472 43.0513 48.738 43.0513 47.3848C43.0513 46.0316 41.9423 44.9224 40.5893 44.9224H26.2831C25.8617 44.9224 25.4624 44.7671 25.1519 44.5009L15.7253 36.1819C15.3483 35.8491 15.1487 35.4054 15.1487 34.9174V32.0557C15.1487 30.4806 13.8622 29.1939 12.2874 29.1939H9.71452C7.40778 29.1939 5.52247 31.0796 5.52247 33.3867V61.0279C5.52247 62.7139 7.00854 63.9562 8.00664 63.9562C8.93821 63.9562 9.69234 64.7326 9.69234 65.6643V99.5836L9.71452 99.6057Z" fill="#FEE0AB"/>
<path d="M16.8789 47.7177C16.4797 47.7177 16.0805 47.5845 15.7478 47.2962L11.2452 43.3252C10.5354 42.7041 10.4689 41.6393 11.0899 40.9294C11.711 40.2195 12.7756 40.1529 13.4854 40.7741L17.9879 44.745C18.6977 45.3662 18.7643 46.431 18.1432 47.1409C17.8105 47.518 17.3447 47.7177 16.8789 47.7177Z" fill="#FEE0AB"/>
<path d="M70.6661 22.672C64.4113 22.672 59.332 17.5919 59.332 11.336C59.332 5.08012 64.4113 0 70.6661 0C76.9209 0 82.0001 5.08012 82.0001 11.336C82.0001 17.5919 76.9209 22.672 70.6661 22.672ZM70.6661 3.39414C66.2966 3.39414 62.7256 6.96576 62.7256 11.336C62.7256 15.7062 66.2966 19.2778 70.6661 19.2778C75.0356 19.2778 78.6066 15.7062 78.6066 11.336C78.6066 6.96576 75.0356 3.39414 70.6661 3.39414Z" fill="#FEE0AB"/>
<path d="M65.1208 47.7177C64.655 47.7177 64.1892 47.518 63.8565 47.1409C63.2355 46.431 63.302 45.3662 64.0118 44.745L68.5144 40.7741C69.2241 40.1529 70.2888 40.2195 70.9098 40.9294C71.5309 41.6393 71.4643 42.7041 70.7545 43.3252L66.252 47.2962C65.9193 47.5845 65.52 47.7177 65.1208 47.7177Z" fill="#FEE0AB"/>
<path d="M73.9925 103H57.2687C56.3371 103 55.5608 102.246 55.5608 101.292V98.7408C55.5608 94.8364 58.7547 91.6419 62.6584 91.6419H63.4126V49.7587L61.128 51.7774C60.0634 52.7313 58.6882 53.2415 57.2465 53.2415H41.3655C41.2102 53.2415 41.055 53.2415 40.8997 53.1972C40.0347 53.0863 39.3471 52.332 39.3693 51.4668C39.3693 50.6017 39.9903 49.8918 40.8553 49.803C42.1418 49.6921 43.0955 48.6495 43.0955 47.3628C43.0955 46.0761 42.1196 45.0557 40.8553 44.9226C39.9903 44.8338 39.3027 44.1018 39.3027 43.2366C39.3027 42.3492 39.9681 41.6172 40.8332 41.5506C41.055 41.5284 41.2102 41.5062 41.3655 41.5062H55.0285L63.4126 34.119V32.0337C63.4126 28.5952 66.2073 25.7778 69.6674 25.7778H72.2403C76.4323 25.7778 79.8259 29.1942 79.8259 33.3647V61.0059C79.8259 63.7345 78.0071 66.197 75.656 67.0399V101.27C75.656 102.201 74.9019 102.978 73.9481 102.978L73.9925 103ZM58.9543 99.606H72.2846V65.6867C72.2846 64.755 73.0387 64.0008 73.9703 63.9786C74.9684 63.9786 76.4545 62.7363 76.4545 61.0503V33.4091C76.4545 31.102 74.5692 29.2163 72.2624 29.2163H69.6895C68.1147 29.2163 66.8283 30.503 66.8283 32.0781V34.9398C66.8283 35.4278 66.6287 35.8937 66.2516 36.2043L56.8251 44.5233C56.5145 44.7895 56.1153 44.9448 55.6939 44.9448H45.9568C46.3117 45.699 46.4891 46.5198 46.4891 47.4072C46.4891 48.2945 46.2895 49.1153 45.9568 49.8696H57.2687C57.8675 49.8696 58.4442 49.6477 58.8878 49.2484L63.9892 44.7451C64.4994 44.3014 65.2091 44.1905 65.808 44.4789C66.4069 44.7451 66.8061 45.3662 66.8061 46.0318V93.3723C66.8061 94.304 66.052 95.0804 65.0982 95.0804H62.6363C60.5957 95.0804 58.9322 96.7442 58.9322 98.7852V99.6281L58.9543 99.606Z" fill="#FEE0AB"/>
<path d="M78.1403 103H3.83678C2.90521 103 2.12891 102.246 2.12891 101.292C2.12891 100.338 2.88303 99.5837 3.83678 99.5837H78.1403C79.0718 99.5837 79.8481 100.338 79.8481 101.292C79.8481 102.246 79.094 103 78.1403 103Z" fill="#FEE0AB"/>
<path d="M40.989 80.5943C37.9503 80.5943 35.4883 78.1319 35.4883 75.0927C35.4883 72.0535 37.9503 69.5911 40.989 69.5911C44.0276 69.5911 46.4896 72.0535 46.4896 75.0927C46.4896 78.1319 44.0276 80.5943 40.989 80.5943ZM40.989 72.963C39.8356 72.963 38.8818 73.9169 38.8818 75.0705C38.8818 76.2241 39.8356 77.178 40.989 77.178C42.1423 77.178 43.0961 76.2241 43.0961 75.0705C43.0961 73.9169 42.1423 72.963 40.989 72.963Z" fill="#FFD17E"/>
<path d="M40.9891 72.9629C40.0576 72.9629 39.2812 72.2086 39.2812 71.2547V61.161C39.2812 60.2293 40.0354 59.4529 40.9891 59.4529C41.9429 59.4529 42.697 60.2071 42.697 61.161V71.2547C42.697 72.1865 41.9429 72.9629 40.9891 72.9629Z" fill="#FFD17E"/>
<path d="M40.989 24.6685C37.9503 24.6685 35.4883 22.2061 35.4883 19.1669C35.4883 16.1277 37.9503 13.6653 40.989 13.6653C44.0276 13.6653 46.4896 16.1277 46.4896 19.1669C46.4896 22.2061 44.0276 24.6685 40.989 24.6685ZM40.989 17.0372C39.8356 17.0372 38.8818 17.9912 38.8818 19.1447C38.8818 20.2983 39.8356 21.2522 40.989 21.2522C42.1423 21.2522 43.0961 20.2983 43.0961 19.1447C43.0961 17.9912 42.1423 17.0372 40.989 17.0372Z" fill="#FFD17E"/>
<path d="M40.9891 34.7622C40.0576 34.7622 39.2812 34.008 39.2812 33.054V22.9604C39.2812 22.0286 40.0354 21.2522 40.9891 21.2522C41.9429 21.2522 42.697 22.0065 42.697 22.9604V33.054C42.697 33.9858 41.9429 34.7622 40.9891 34.7622Z" fill="#FFD17E"/>
<path d="M57.247 72.0979C56.9143 72.0979 56.6038 72.0535 56.2711 71.987C55.0733 71.7208 54.0309 71.0109 53.3655 69.9904C52.7 68.9478 52.4782 67.7277 52.7222 66.5297C52.9884 65.3318 53.6982 64.2892 54.7184 63.6236C55.7609 62.9581 56.9808 62.7363 58.1785 62.9803C59.3763 63.2465 60.4187 63.9564 61.0841 64.9769C62.4593 67.1065 61.8604 69.9682 59.7312 71.3436C58.977 71.8317 58.112 72.0757 57.247 72.0757V72.0979ZM57.247 66.2857C57.0252 66.2857 56.7812 66.3523 56.6038 66.4854C56.3376 66.6628 56.138 66.929 56.0714 67.2396C56.0049 67.5502 56.0714 67.883 56.2489 68.1492C56.4263 68.4154 56.6925 68.615 57.003 68.6816C57.3135 68.7481 57.6462 68.6816 57.9124 68.5263C58.1785 68.3488 58.3782 68.0826 58.4447 67.772C58.5112 67.4615 58.4447 67.1287 58.2673 66.8625C58.0898 66.5963 57.8237 66.3966 57.5131 66.3301C57.4244 66.3301 57.3357 66.3079 57.2692 66.3079L57.247 66.2857Z" fill="#FFD17E"/>
<path d="M55.6501 66.7514C55.0956 66.7514 54.5411 66.4852 54.2306 65.975L50.0607 59.5195C49.5506 58.743 49.7724 57.6782 50.5709 57.168C51.3472 56.6577 52.4118 56.8796 52.922 57.6782L57.0918 64.1337C57.602 64.9102 57.3802 65.975 56.5817 66.4852C56.2934 66.6627 55.9828 66.7514 55.6501 66.7514Z" fill="#FFD17E"/>
<path d="M24.7531 72.0979C23.8881 72.0979 23.023 71.8538 22.2467 71.3658C20.1174 69.9904 19.4964 67.1287 20.8937 64.999C22.2689 62.8693 25.1301 62.2704 27.2594 63.6458C29.3887 65.0212 30.0098 67.8829 28.6124 70.0126C27.7252 71.3658 26.2392 72.12 24.7309 72.12L24.7531 72.0979ZM24.7531 66.2857C24.3538 66.2857 23.9768 66.4853 23.7328 66.8403C23.3779 67.3949 23.5332 68.1491 24.0877 68.5041C24.6422 68.859 25.3963 68.7037 25.7512 68.1491C26.1061 67.5945 25.9508 66.8403 25.3963 66.4853C25.1967 66.3522 24.9749 66.2857 24.7309 66.2857H24.7531Z" fill="#FFD17E"/>
<path d="M26.3505 66.7514C26.0399 66.7514 25.7072 66.6627 25.4189 66.4852C24.6426 65.975 24.3986 64.9323 24.9087 64.1337L29.0786 57.6782C29.5888 56.8796 30.6312 56.6577 31.4297 57.168C32.206 57.6782 32.45 58.7208 31.9398 59.5195L27.77 65.975C27.4373 66.4852 26.905 66.7514 26.3505 66.7514Z" fill="#FFD17E"/>
<path d="M57.2248 30.5916C56.3376 30.5916 55.4948 30.3476 54.7407 29.8595C53.6982 29.194 52.9884 28.1514 52.7445 26.9534C52.4783 25.7555 52.7223 24.5132 53.3877 23.4927C54.0531 22.4501 55.0955 21.7402 56.2933 21.4962C57.491 21.2521 58.7331 21.474 59.7534 22.1395C60.7958 22.805 61.5056 23.8477 61.7496 25.0456C62.0158 26.2435 61.7718 27.4858 61.1064 28.5063C60.441 29.5489 59.3985 30.2588 58.2008 30.5028C57.8681 30.5694 57.5575 30.6138 57.2248 30.6138V30.5916ZM57.2248 24.7794C57.2248 24.7794 57.0474 24.7794 56.9809 24.8016C56.6703 24.8681 56.4042 25.0456 56.2267 25.334C56.0493 25.6002 55.9828 25.933 56.0493 26.2435C56.1158 26.5541 56.2933 26.8203 56.5816 26.9978C56.8478 27.1753 57.1805 27.2418 57.491 27.1753C57.8015 27.1087 58.0677 26.9312 58.2451 26.6428C58.4226 26.3766 58.4891 26.0439 58.4226 25.7333C58.356 25.4227 58.1786 25.1565 57.8902 24.979C57.6906 24.8459 57.4688 24.7794 57.247 24.7794H57.2248Z" fill="#FFD17E"/>
<path d="M51.4803 36.5813C51.1698 36.5813 50.8371 36.4925 50.5488 36.3151C49.7725 35.8048 49.5285 34.7622 50.0386 33.9636L54.2085 27.508C54.7186 26.7094 55.7611 26.4876 56.5596 26.9978C57.3359 27.508 57.5799 28.5507 57.0697 29.3493L52.8999 35.8048C52.5672 36.315 52.0348 36.5813 51.4803 36.5813Z" fill="#FFD17E"/>
<path d="M24.7753 30.5917C23.267 30.5917 21.781 29.8597 20.8938 28.4842C20.2284 27.4416 20.0066 26.2215 20.2505 25.0236C20.5167 23.8256 21.2265 22.783 22.2468 22.1175C24.3761 20.7421 27.2373 21.341 28.6125 23.4707C29.9876 25.6003 29.3888 28.4621 27.2595 29.8375C26.4832 30.3477 25.6181 30.5695 24.7531 30.5695L24.7753 30.5917ZM24.7753 24.7795C24.5535 24.7795 24.3317 24.8461 24.1321 24.9792C23.8659 25.1567 23.6663 25.4229 23.5998 25.7334C23.5332 26.044 23.5998 26.3768 23.755 26.643C23.9325 26.9092 24.1986 27.1088 24.5091 27.1754C24.8197 27.2419 25.1524 27.1754 25.4185 26.9979C25.973 26.643 26.1283 25.8887 25.7734 25.3341C25.5516 24.9792 25.1524 24.7795 24.7531 24.7795H24.7753Z" fill="#FFD17E"/>
<path d="M30.5203 36.5813C29.9658 36.5813 29.4112 36.315 29.1007 35.8048L24.9309 29.3493C24.4207 28.5507 24.6425 27.508 25.441 26.9978C26.2173 26.4876 27.282 26.7094 27.7921 27.508L31.962 33.9636C32.4721 34.7622 32.2503 35.8048 31.4518 36.3151C31.1635 36.4925 30.853 36.5813 30.5203 36.5813Z" fill="#FFD17E"/>
</g>
<defs>
<clipPath id="clip0_98_755">
<rect width="82" height="103" fill="white"/>
</clipPath>
</defs>
</svg>
