<svg width="249" height="59" viewBox="0 0 249 59" fill="none" xmlns="http://www.w3.org/2000/svg">
<g clip-path="url(#clip0_110_123)">
<path opacity="0.6" d="M48.7096 19.0604C56.7953 27.1731 57.9272 39.3338 51.5528 46.9313C51.9688 46.5724 52.3749 46.1951 52.7692 45.7994C61.2492 37.2907 61.2492 23.496 52.7692 14.9872C44.2892 6.47887 30.5401 6.47887 22.0598 14.9872C21.6655 15.3829 21.2894 15.7903 20.9316 16.2077C28.5039 9.81194 40.6236 10.9477 48.7093 19.0604H48.7096Z" fill="#FFD17E"/>
<path opacity="0.5" d="M39.2633 29.2284C39.2633 34.9108 34.6728 39.5134 29.015 39.5134C23.3572 39.5134 18.7667 34.9108 18.7667 29.2284C18.7667 23.546 23.3572 18.9435 29.015 18.9435C34.6728 18.9435 39.2633 23.546 39.2633 29.2284Z" stroke="#FFD17E" stroke-width="1.40058"/>
<path opacity="0.2" d="M39.0671 48.5375C30.9814 56.6502 18.8613 57.7859 11.2891 51.3901C11.6468 51.8075 12.0229 52.215 12.4172 52.6106C20.8975 61.1194 34.6463 61.119 43.1266 52.6106C51.6066 44.1023 51.6066 30.3071 43.1266 21.7984C42.7323 21.4028 42.3262 21.0255 41.9102 20.6665C48.2847 28.2641 47.1527 40.4244 39.0671 48.5371V48.5375Z" fill="#FFD17E"/>
<path opacity="0.4" d="M10.5563 39.8851C2.47061 31.7724 1.33868 19.6117 7.71313 12.0142C7.29712 12.3731 6.89101 12.7504 6.4967 13.1461C-1.98327 21.6548 -1.98327 35.4496 6.4967 43.9583C14.9767 52.4666 28.7258 52.4666 37.2062 43.9583C37.6005 43.5627 37.9765 43.1552 38.3343 42.7378C30.7621 49.1336 18.6423 47.9978 10.5567 39.8851H10.5563Z" fill="#FFD17E"/>
<path opacity="0.8" d="M19.3033 10.4546C27.389 2.34185 39.5091 1.20613 47.0813 7.60191C46.7236 7.18451 46.3475 6.77704 45.9532 6.38141C37.4729 -2.12733 23.7241 -2.12695 15.2438 6.38141C6.7638 14.8898 6.7638 28.6849 15.2438 37.1936C15.6381 37.5893 16.0442 37.9666 16.4602 38.3255C10.0858 30.728 11.2177 18.5677 19.3033 10.455V10.4546Z" fill="#FFD17E"/>
</g>
<path d="M77.9416 12.2966V13.3206H71.9736L71.9896 23.4966H70.8216V12.2966H77.9416ZM77.784 23.4966V15.0806H78.92V21.7686L84.536 15.0806H85.544V23.4966H84.408V16.8086L78.808 23.4966H77.784ZM88.7996 15.0806H96.3516V23.4966H95.2156V16.0886H89.9356V23.4966H88.7996V15.0806ZM99.5808 23.4966V15.0806H100.717V18.8086H106.013V15.0806H107.149V23.4966H106.013V19.7846H100.717V23.4966H99.5808ZM113.85 23.5766C111.386 23.5766 109.562 21.7846 109.562 19.2886C109.562 16.7926 111.386 15.0166 113.85 15.0166C116.314 15.0166 118.122 16.7926 118.122 19.2886C118.122 21.7846 116.314 23.5766 113.85 23.5766ZM113.85 22.5686C115.642 22.5686 116.97 21.2566 116.97 19.2886C116.97 17.3206 115.642 16.0086 113.85 16.0086C112.058 16.0086 110.714 17.3206 110.714 19.2886C110.714 21.2566 112.058 22.5686 113.85 22.5686ZM124.081 19.6566V18.6646H128.273V19.6566H124.081ZM141.194 23.4966L138.09 19.7526H136.17V23.4966H135.034V15.0806H136.17V18.7766H138.106L141.066 15.0806H142.298L138.986 19.1606L142.538 23.4966H141.194ZM147.506 23.5766C145.042 23.5766 143.218 21.7846 143.218 19.2886C143.218 16.7926 145.042 15.0166 147.506 15.0166C149.97 15.0166 151.778 16.7926 151.778 19.2886C151.778 21.7846 149.97 23.5766 147.506 23.5766ZM147.506 22.5686C149.298 22.5686 150.626 21.2566 150.626 19.2886C150.626 17.3206 149.298 16.0086 147.506 16.0086C145.714 16.0086 144.37 17.3206 144.37 19.2886C144.37 21.2566 145.714 22.5686 147.506 22.5686ZM160.003 15.0806H161.123L156.915 24.5046C156.211 26.1526 155.315 26.6806 154.115 26.6806C153.331 26.6806 152.579 26.4246 152.067 25.9126L152.595 25.0646C153.011 25.4806 153.523 25.7046 154.131 25.7046C154.883 25.7046 155.395 25.3526 155.875 24.2966L156.243 23.4806L152.483 15.0806H153.667L156.835 22.2326L160.003 15.0806ZM168.109 15.0806H169.245V23.4966H168.109V19.9926C167.165 20.4086 166.189 20.6326 165.245 20.6326C163.277 20.6326 162.029 19.7526 162.029 17.8486V15.0806H163.165V17.7846C163.165 19.0646 164.045 19.7046 165.453 19.7046C166.269 19.7046 167.165 19.4806 168.109 19.0806V15.0806Z" fill="#F9F9F9"/>
<path d="M81.3936 46.4966L80.1536 43.4966H73.6536L72.4136 46.4966H69.0936L75.3336 32.4966H78.5336L84.7936 46.4966H81.3936ZM74.6936 41.0366H79.1336L76.9136 35.6766L74.6936 41.0366ZM86.4102 46.4966V35.7366H89.5102V39.9366H94.1902V35.7366H97.3102V46.4966H94.1902V42.4766H89.5102V46.4966H86.4102ZM110.817 43.9366H112.357V48.8166H109.457V46.4966H101.897V48.8166H98.9969V43.9366H99.4369C100.917 43.8966 101.177 41.7966 101.297 39.4566L101.437 35.7366H110.817V43.9366ZM104.117 39.6766C104.057 41.4966 103.917 43.1366 103.157 43.9366H107.697V38.2966H104.177L104.117 39.6766ZM120.66 35.5766C123.68 35.5766 126.02 37.7366 126.02 41.1166C126.02 44.4966 123.68 46.6566 120.66 46.6566C119.32 46.6566 118.22 46.2366 117.42 45.3566V50.3766H114.3V35.7366H117.28V36.9766C118.06 36.0366 119.22 35.5766 120.66 35.5766ZM120.12 44.0966C121.68 44.0966 122.86 42.9766 122.86 41.1166C122.86 39.2566 121.68 38.1366 120.12 38.1366C118.56 38.1366 117.38 39.2566 117.38 41.1166C117.38 42.9766 118.56 44.0966 120.12 44.0966ZM138.667 41.1566C138.667 41.3966 138.627 41.7366 138.607 41.9966H130.467C130.767 43.3366 131.907 44.1566 133.547 44.1566C134.687 44.1566 135.507 43.8166 136.247 43.1166L137.907 44.9166C136.907 46.0566 135.407 46.6566 133.467 46.6566C129.747 46.6566 127.327 44.3166 127.327 41.1166C127.327 37.8966 129.787 35.5766 133.067 35.5766C136.227 35.5766 138.667 37.6966 138.667 41.1566ZM133.087 37.9366C131.667 37.9366 130.647 38.7966 130.427 40.1766H135.727C135.507 38.8166 134.487 37.9366 133.087 37.9366ZM146.459 34.5766C144.119 34.5766 142.939 33.5566 142.919 31.4766H144.959C144.979 32.3966 145.459 32.9566 146.439 32.9566C147.399 32.9566 147.939 32.3966 147.939 31.4766H150.019C149.999 33.5566 148.799 34.5766 146.459 34.5766ZM141.059 46.4966V35.7366H144.159V42.1366L149.399 35.7366H152.259V46.4966H149.159V40.0966L143.939 46.4966H141.059ZM170.222 46.4966L166.582 40.8566H164.342V46.4966H161.122V32.4966H164.342V38.1566H166.662L170.342 32.4966H173.762L169.182 39.2566L173.902 46.4966H170.222ZM182.745 35.7366H185.745L180.885 47.1566C179.845 49.7566 178.365 50.5366 176.425 50.5366C175.325 50.5366 174.125 50.1766 173.425 49.5566L174.565 47.3366C175.045 47.7566 175.705 48.0166 176.325 48.0166C177.185 48.0166 177.665 47.6366 178.085 46.6766L178.125 46.5766L173.465 35.7366H176.685L179.705 43.0366L182.745 35.7366ZM187.608 35.7366H196.808V46.4966H193.688V38.2966H190.288L190.188 40.1966C190.028 44.0366 189.408 46.7166 186.748 46.7166C186.268 46.7166 185.748 46.6366 185.128 46.4766L185.288 43.9166C185.448 43.9366 185.608 43.9566 185.748 43.9566C187.228 43.9566 187.348 42.0966 187.448 40.0566L187.608 35.7366ZM203.989 35.5766C207.269 35.5766 209.169 37.0966 209.169 40.3566V46.4966H206.249V45.1566C205.669 46.1366 204.549 46.6566 202.969 46.6566C200.449 46.6566 198.949 45.2566 198.949 43.3966C198.949 41.4966 200.289 40.1766 203.569 40.1766H206.049C206.049 38.8366 205.249 38.0566 203.569 38.0566C202.429 38.0566 201.249 38.4366 200.469 39.0566L199.349 36.8766C200.529 36.0366 202.269 35.5766 203.989 35.5766ZM203.749 44.5566C204.789 44.5566 205.689 44.0766 206.049 43.0966V41.9966H203.909C202.449 41.9966 201.989 42.5366 201.989 43.2566C201.989 44.0366 202.649 44.5566 203.749 44.5566ZM220.499 35.7366V38.2966H214.979V46.4966H211.879V35.7366H220.499ZM222.152 46.4966V35.7366H225.252V42.1366L230.492 35.7366H233.352V46.4966H230.252V40.0966L225.032 46.4966H222.152ZM236.352 46.4966V35.7366H239.452V39.9366H244.132V35.7366H247.252V46.4966H244.132V42.4766H239.452V46.4966H236.352Z" fill="#FFD17E"/>
<defs>
<clipPath id="clip0_110_123">
<rect width="58.9929" height="58.9929" fill="white" transform="translate(0.136719)"/>
</clipPath>
</defs>
</svg>
