<svg width="271" height="213" viewBox="0 0 271 213" fill="none" xmlns="http://www.w3.org/2000/svg">
<g opacity="0.5">
<g opacity="0.1" clip-path="url(#clip0_113_1193)">
<path d="M267.599 222.18C264.065 209.879 257.224 199.468 249.812 189.202C242.917 179.648 236.708 169.877 231.658 159.209C222.147 139.111 216.057 117.626 208.449 96.7813C200.906 76.116 191.765 55.6853 177.162 38.9874C163.366 23.2104 144.895 11.7773 124.991 5.51056C105.047 -0.767796 83.3649 -1.8306 63.0081 3.07509C50.9845 5.97391 39.6799 11.201 28.6179 16.6309C16.8196 22.4227 5.07614 28.1769 -7.26215 32.7467C-17.8159 36.6562 -28.6037 39.888 -39.5531 42.4683C-40.0151 42.3611 -40.5233 42.3467 -41.0719 42.448C-64.6397 46.8209 -80.4141 66.9041 -92.9429 85.7536C-99.8296 96.1181 -106.399 106.801 -114.888 115.958C-123.088 124.805 -132.718 132.12 -142.056 139.69C-151.317 147.196 -160.178 155.082 -167.388 164.644C-174.163 173.627 -179.311 183.746 -183.076 194.342C-190.665 215.723 -192.426 239.11 -189.954 261.577C-185.092 305.745 -164.593 347.82 -133.01 378.98C-116.202 395.562 -96.3069 408.238 -75.3494 418.877C-53.3322 430.055 -30.3881 439.27 -8.39116 450.486C-2.96266 453.255 2.4052 456.142 7.672 459.206C13.1092 462.368 18.3442 465.863 23.7871 469.017C34.9213 475.463 46.9247 478.782 59.8318 477.824C85.802 475.892 107.158 460.309 127.059 444.859C163.092 416.885 199.688 388.314 228.063 352.19C242.068 334.363 253.875 314.853 261.902 293.582C270.368 271.153 274.324 245.606 267.596 222.183L267.599 222.18ZM263.505 257.175C261.385 279.969 252.313 301.847 240.791 321.406C218.246 359.682 184.647 389.953 150.453 417.562C141.739 424.6 132.914 431.498 124.076 438.372C114.296 445.977 104.438 453.588 93.6242 459.678C82.9982 465.661 71.2779 470.103 59.0204 470.865C53 471.238 46.9767 470.766 41.1584 469.13C35.1726 467.448 29.7383 464.473 24.4513 461.256C14.114 454.966 3.82875 448.795 -6.99072 443.353C-17.6716 437.982 -28.5632 433.05 -39.4433 428.106C-61.0909 418.275 -82.8713 408.35 -102.599 394.931C-138.245 370.683 -164.637 333.789 -176.732 292.372C-188.64 251.594 -187.893 201.863 -160.551 167.161C-145.934 148.61 -124.552 137.217 -108.862 119.737C-93.1682 102.257 -83.7318 79.8488 -66.3953 63.7678C-59.9504 57.7906 -52.5353 52.9747 -44.1875 50.4292C-43.763 50.4987 -43.301 50.4929 -42.8044 50.3857C-30.0994 47.6404 -17.5936 44.0205 -5.3997 39.5087C6.7047 35.0287 18.3124 29.5206 29.874 23.8099C40.7512 18.438 51.7555 13.1732 63.5567 10.1643C73.3222 7.67381 83.3938 6.70368 93.4568 7.08015C113.606 7.83309 133.495 14.152 150.436 25.113C168.102 36.5432 180.98 52.9921 190.355 71.6881C199.959 90.8447 206.063 111.495 213.161 131.651C216.791 141.961 220.68 152.198 225.32 162.096C230.131 172.356 235.955 181.881 242.57 191.064C249.682 200.939 256.78 210.788 260.418 222.557C263.877 233.75 264.59 245.551 263.51 257.175H263.505Z" fill="#B6B6B6"/>
<path d="M238.34 188.388C231.982 179.544 226.521 170.257 221.971 160.35C213.184 141.214 207.438 120.864 200.086 101.166C192.807 81.6649 183.859 62.4042 169.707 46.8965C156.448 32.3677 138.984 21.8844 120.241 16.1853C101.241 10.405 80.6535 9.54203 61.3362 14.2855C49.8179 17.112 38.958 22.1132 28.3031 27.2303C17.2209 32.553 6.16469 37.7859 -5.41707 41.9474C-15.4338 45.547 -25.6642 48.5095 -36.039 50.8552C-36.4693 50.7654 -36.937 50.7539 -37.4424 50.8436C-59.6299 54.8921 -74.6795 73.5766 -86.5616 91.2938C-93.1509 101.117 -99.3821 111.276 -107.401 120.024C-115.148 128.475 -124.304 135.431 -133.203 142.589C-142.163 149.797 -150.782 157.332 -157.764 166.541C-164.533 175.47 -169.626 185.573 -173.253 196.167C-181.101 219.105 -181.858 244.065 -178.023 267.858C-171.347 309.261 -149.812 348.231 -118.63 376.134C-84.1361 406.998 -39.3221 420.54 0.767944 442.045C5.85571 444.776 10.8713 447.643 15.7801 450.686C20.8505 453.831 25.843 457.144 31.2368 459.719C42.0621 464.888 53.7882 466.136 65.5865 464.387C89.6019 460.828 109.214 445.262 127.861 430.832C161.986 404.424 196.286 377.196 222.687 342.674C235.753 325.588 246.696 306.655 253.678 286.236C261.036 264.725 263.877 240.217 256.055 218.413C252.056 207.264 245.177 197.904 238.334 188.385L238.34 188.388ZM253.719 252.148C252.532 273.717 244.525 294.535 234.04 313.199C213.453 349.847 181.953 378.83 149.673 405.006C141.528 411.612 133.27 418.072 124.98 424.493C115.771 431.619 106.601 438.874 96.6647 444.973C77.3242 456.849 53.4533 463.755 32.2042 452.566C26.9489 449.797 22.0228 446.455 16.9466 443.38C12.1274 440.461 7.20706 437.707 2.22324 435.077C-7.65779 429.862 -17.7814 425.13 -27.9396 420.488C-48.2993 411.183 -68.9219 402.211 -87.9996 390.393C-123.045 368.685 -150.038 335.588 -163.695 296.525C-170.851 276.059 -174.428 254.25 -173.236 232.554C-171.991 209.945 -165.33 186.804 -151.031 168.925C-137.099 151.506 -116.927 140.756 -102.053 124.29C-86.9341 107.549 -77.8731 85.9885 -61.0274 70.7299C-54.981 65.2508 -48.0395 60.878 -40.2779 58.5613C-39.9054 58.6076 -39.5069 58.5931 -39.0853 58.5062C-26.9088 55.9897 -14.9141 52.6333 -3.21391 48.4053C8.27257 44.2554 19.2999 39.1325 30.2926 33.8359C40.523 28.907 50.8719 24.0564 61.8992 21.1981C71.1508 18.8003 80.691 17.8186 90.24 18.1053C109.133 18.6758 127.821 24.3402 143.884 34.3195C160.79 44.823 173.342 60.0469 182.475 77.6164C191.831 95.6146 197.75 115.127 204.435 134.211C211.275 153.75 219.049 172.944 231.075 189.917C237.768 199.364 245.157 208.555 249.229 219.537C253.092 229.962 254.331 241.08 253.722 252.145L253.719 252.148Z" fill="#B6B6B6"/>
<path d="M228.606 189.987C222.617 181.646 217.503 172.846 213.224 163.504C204.937 145.419 199.474 126.207 192.48 107.615C185.541 89.174 177.018 70.976 163.599 56.3168C150.883 42.428 134.127 32.4487 116.166 27.0652C98.134 21.6614 78.6376 20.8766 60.3193 25.3247C49.3381 27.9919 38.9489 32.6803 28.7445 37.447C18.1329 42.402 7.54735 47.27 -3.52333 51.1216C-12.9857 54.4113 -22.6415 57.0987 -32.4301 59.2128C-32.8777 59.1462 -33.3454 59.1491 -33.8132 59.233C-55.0537 63.0383 -69.4421 80.8945 -80.839 97.8125C-87.0962 107.1 -93.0387 116.685 -100.688 124.915C-108.083 132.876 -116.791 139.427 -125.24 146.195C-133.755 153.015 -141.889 160.17 -148.508 168.91C-155.12 177.647 -160.023 187.624 -163.427 198.026C-170.557 219.809 -171.024 243.405 -167.158 265.866C-160.387 305.189 -139.455 342.066 -109.497 368.277C-76.4471 397.196 -33.8854 410.01 4.12276 430.583C8.942 433.192 13.6862 435.937 18.335 438.842C23.1081 441.825 27.8291 444.938 32.9342 447.333C43.3523 452.221 54.6482 453.31 65.9499 451.561C88.6832 448.039 107.282 433.29 125.008 419.665C157.472 394.714 190.063 368.911 215.046 336.089C227.327 319.953 237.597 302.03 244.062 282.737C250.854 262.483 253.328 239.472 245.91 219.024C241.995 208.231 235.232 199.216 228.606 189.987ZM243.67 250.002C242.835 270.519 235.36 290.365 225.467 308.14C206.138 342.865 176.351 370.281 145.789 394.966C138.005 401.253 130.107 407.395 122.178 413.494C113.449 420.204 104.758 427.038 95.3735 432.815C76.9022 444.188 54.0217 450.947 33.6734 440.264C28.9033 437.759 24.4248 434.747 19.8394 431.929C15.1819 429.068 10.4233 426.378 5.59827 423.809C-3.76012 418.828 -13.3524 414.311 -22.9822 409.894C-42.2938 401.039 -61.8739 392.559 -80.0623 381.485C-113.809 360.939 -140.007 329.585 -153.341 292.201C-160.124 273.184 -163.635 252.935 -162.798 232.722C-161.9 211.031 -155.752 188.828 -142.198 171.566C-128.991 154.743 -109.521 144.584 -95.2419 128.842C-81.0209 113.161 -72.4046 93.0168 -56.6822 78.627C-50.7715 73.2203 -43.9714 68.9054 -36.334 66.6842C-36.025 66.7074 -35.7016 66.6929 -35.358 66.6263C-23.9611 64.3878 -12.7258 61.3789 -1.7533 57.565C9.1297 53.7829 19.6026 49.0799 30.0236 44.1916C40.0404 39.4944 50.1582 34.8204 60.9083 32.0635C69.6661 29.8192 78.6925 28.8954 87.7245 29.156C105.685 29.6773 123.478 35 138.781 44.4465C154.689 54.2636 166.588 68.4508 175.282 84.9025C184.337 102.038 190.043 120.664 196.45 138.888C203.02 157.573 210.458 175.927 221.988 192.147C228.265 200.98 235.232 209.589 239.128 219.829C242.792 229.464 244.088 239.739 243.673 250.008L243.67 250.002Z" fill="#B6B6B6"/>
<path d="M219.238 192.098C213.547 184.195 208.696 175.849 204.628 166.993C196.762 149.869 191.556 131.686 184.883 114.093C178.282 96.6974 170.18 79.542 157.481 65.7256C145.318 52.497 129.29 43.0302 112.13 37.9624C94.8854 32.8685 76.2581 32.1937 58.7743 36.497C48.4341 39.0426 38.6137 43.398 28.9406 47.7767C18.9383 52.3059 8.95335 56.7424 -1.46475 60.2378C-10.4564 63.2553 -19.63 65.6966 -28.9162 67.5963C-29.3262 67.5442 -29.7565 67.5529 -30.1838 67.6282C-50.2086 71.138 -63.8925 87.8185 -74.7062 103.729C-80.6516 112.474 -86.2735 121.521 -93.4923 129.3C-100.477 136.826 -108.715 143.003 -116.725 149.368C-124.796 155.78 -132.537 162.496 -138.826 170.729C-145.043 178.869 -149.677 188.139 -152.92 197.846C-159.847 218.587 -160.271 241.131 -156.518 262.538C-150.006 299.646 -130.12 334.348 -101.866 359.111C-70.4471 386.649 -29.9615 398.901 6.21021 418.449C10.7696 420.913 15.2596 423.499 19.6573 426.242C24.2022 429.077 28.6779 432.068 33.5029 434.417C43.4734 439.27 54.3015 440.492 65.2105 438.905C86.8956 435.752 104.674 421.834 121.609 408.924C152.439 385.421 183.39 361.072 207.042 329.981C218.693 314.668 228.418 297.613 234.435 279.265C240.724 260.085 242.841 238.311 235.567 219.088C231.782 209.082 225.438 200.699 219.247 192.101L219.238 192.098ZM233.595 248.313C233.003 267.678 226.079 286.432 216.804 303.232C198.581 336.239 170.243 362.201 141.184 385.51C133.818 391.421 126.339 397.19 118.831 402.915C110.556 409.228 102.306 415.648 93.4098 421.072C75.8423 431.781 54.1687 437.993 34.9149 427.843C30.1823 425.347 25.7499 422.329 21.1906 419.538C16.969 416.954 12.6609 414.516 8.29788 412.182C-0.650482 407.398 -9.82985 403.065 -19.0468 398.829C-37.4257 390.384 -56.0587 382.31 -73.3895 371.795C-105.265 352.456 -130.175 323.019 -143.004 287.817C-149.585 269.761 -153.035 250.491 -152.285 231.245C-151.488 210.814 -145.724 189.842 -132.91 173.613C-120.389 157.755 -101.982 148.204 -88.4334 133.386C-74.8448 118.521 -66.627 99.3472 -51.534 85.7856C-45.964 80.7786 -39.5538 76.8285 -32.3957 74.8014C-32.1444 74.8014 -31.8875 74.7811 -31.6334 74.7348C-20.8255 72.7337 -10.1619 70.0086 0.261963 66.5104C10.527 63.0671 20.4196 58.7551 30.2718 54.278C39.737 49.9776 49.2946 45.6742 59.3835 43.0534C67.688 40.8988 76.2408 39.9837 84.8109 40.1865C101.937 40.5919 118.93 45.5584 133.566 54.4923C148.731 63.7506 160.097 77.1731 168.407 92.785C185.729 125.329 190.854 163.225 212.43 193.688C218.323 202.008 224.947 210.047 228.828 219.583C232.527 228.682 233.901 238.522 233.601 248.305L233.595 248.313Z" fill="#B6B6B6"/>
<path d="M209.97 194.345C204.64 186.972 200.074 179.194 196.243 170.937C188.758 154.813 183.801 137.666 177.48 121.078C171.185 104.554 163.47 88.2529 151.371 75.146C139.83 62.6443 124.633 53.7162 108.379 48.9408C92.1975 44.1857 74.757 43.5197 58.3242 47.4002C48.3162 49.7633 38.7874 53.8813 29.3915 57.9848C19.9147 62.123 10.4466 66.1773 0.591583 69.3484C-7.9381 72.0937 -16.6324 74.2917 -25.4306 75.9771C-25.8002 75.9395 -26.1813 75.9511 -26.5625 76.0148C-45.5045 79.2582 -58.5069 94.9367 -68.7864 109.94C-74.4112 118.15 -79.73 126.635 -86.5445 133.933C-93.2897 141.153 -101.268 147.034 -108.986 153.142C-116.603 159.168 -123.863 165.519 -129.739 173.312C-135.542 181.006 -139.845 189.767 -142.833 198.921C-149.215 218.459 -149.457 239.672 -145.776 259.767C-139.351 294.839 -120.213 327.508 -93.3099 350.739C-63.5225 376.461 -25.3844 388.062 8.70256 406.523C13.0771 408.892 17.3853 411.38 21.6039 414.021C25.9149 416.72 30.1538 419.564 34.7276 421.805C43.8665 426.285 53.8804 427.637 63.9289 426.308C84.4215 423.6 101.204 411.003 117.255 398.89C146.451 376.852 175.843 354.049 198.302 324.821C209.375 310.405 218.635 294.367 224.379 277.052C230.364 259.008 232.403 238.525 225.669 220.379C222.077 210.698 215.956 202.627 209.97 194.345ZM223.478 247.948C222.845 266.3 216.169 284.055 207.261 299.91C189.902 330.815 163.08 355.037 135.64 376.802C128.684 382.322 121.621 387.706 114.535 393.057C106.612 399.04 98.6973 405.104 90.1156 410.123C81.84 414.959 72.8484 418.776 63.2907 420.053C53.6147 421.345 44.1611 419.781 35.5707 415.115C31.3059 412.799 27.2865 410.068 23.1516 407.528C19.0109 404.986 14.7807 402.588 10.4957 400.297C2.09019 395.805 -6.52899 391.728 -15.1828 387.743C-32.4414 379.8 -49.9339 372.212 -66.2512 362.401C-81.7166 353.102 -95.5304 341.571 -107.066 327.641C-117.955 314.491 -126.724 299.412 -132.687 283.395C-138.97 266.523 -142.354 248.504 -141.8 230.472C-141.202 211.063 -135.84 191.07 -123.626 175.675C-111.801 160.77 -94.4303 151.853 -81.6329 137.944C-68.7864 123.983 -60.9815 105.944 -46.7028 93.2368C-41.3638 88.4846 -35.2192 84.7662 -28.3672 82.91C-28.217 82.9013 -28.0697 82.8839 -27.9196 82.8607C-17.5881 81.0797 -7.38368 78.5979 2.5955 75.369C12.4217 72.1893 21.8898 68.1495 31.3435 64.0112C40.3207 60.0814 49.4105 56.1575 58.9422 53.7828C66.7702 51.8309 74.8263 51.0317 82.8853 51.2604C98.986 51.7209 114.945 56.4036 128.716 64.7902C143.171 73.5967 153.955 86.4169 161.841 101.299C169.912 116.529 175.054 133.064 180.826 149.244C186.743 165.826 193.439 182.107 203.736 196.491C209.32 204.292 215.551 211.897 219.12 220.915C222.525 229.516 223.79 238.739 223.472 247.954L223.478 247.948Z" fill="#B6B6B6"/>
<path d="M199.979 195.593C194.946 188.597 190.716 181.146 187.129 173.306C180.208 158.167 175.545 142.123 169.521 126.627C163.515 111.175 156.103 95.9564 144.579 83.837C133.624 72.3199 119.354 64.1332 104.137 59.7777C88.8042 55.3904 72.3223 54.846 56.7962 58.5614C47.6977 60.7392 38.9746 64.3648 30.3669 67.9732C21.2395 71.7987 12.1208 75.5605 2.64981 78.4651C-5.42075 80.9411 -13.6357 82.8929 -21.943 84.3612C-22.2664 84.338 -22.5985 84.3525 -22.9306 84.4075C-40.7897 87.3816 -53.1107 102.058 -62.8589 116.158C-68.2701 123.989 -73.3896 132.092 -79.9933 138.993C-86.2563 145.537 -93.5848 150.907 -100.685 156.478C-107.866 162.111 -114.713 168.056 -120.248 175.371C-125.757 182.655 -129.832 190.96 -132.63 199.648C-138.532 217.985 -138.656 237.859 -135.093 256.671C-128.812 289.809 -110.41 320.547 -84.8097 342.318C-56.5093 366.383 -20.4762 377.321 11.6732 394.862C15.6984 397.057 19.663 399.365 23.5466 401.803C27.6209 404.366 31.6288 407.065 35.9513 409.199C44.8564 413.595 54.5988 414.832 64.3903 413.483C83.5258 410.841 99.2915 399.023 114.35 387.767C141.963 367.13 169.709 345.695 190.785 318.065C201.113 304.526 209.712 289.384 214.893 273.097C220.367 255.892 221.86 236.446 214.907 219.433C211.306 210.623 205.482 203.253 199.976 195.596L199.979 195.593ZM213.408 245.754C213.14 262.961 207.082 279.645 198.847 294.562C182.72 323.773 157.417 346.567 131.53 366.951C124.921 372.158 118.205 377.226 111.468 382.265C104.093 387.778 96.7217 393.365 88.7608 398.015C80.9155 402.597 72.4118 406.214 63.3566 407.442C54.1051 408.698 45.0499 407.193 36.8436 402.71C32.8155 400.509 29.0156 397.917 25.1088 395.508C21.2135 393.104 17.2375 390.839 13.2065 388.676C5.30054 384.431 -2.80757 380.576 -10.9532 376.817C-27.3773 369.236 -44.0382 362.022 -59.5874 352.709C-74.1433 343.992 -87.163 333.213 -98.0806 320.182C-108.349 307.929 -116.673 293.869 -122.373 278.912C-128.431 263.019 -131.758 246 -131.278 228.954C-130.77 210.817 -125.798 192.084 -114.331 177.726C-103.324 163.944 -87.2554 155.679 -75.2376 142.937C-62.8762 129.83 -55.4756 112.672 -41.8581 100.674C-36.7126 96.1418 -30.7817 92.6377 -24.1722 90.9639C-14.3345 89.4059 -4.61226 87.1789 4.90205 84.228C13.9544 81.4189 22.6948 77.8338 31.4266 74.1675C39.9159 70.6055 48.4975 67.0117 57.4459 64.7587C64.9101 62.8763 72.588 62.0944 80.2802 62.2943C95.2866 62.6852 110.195 66.9248 123.113 74.6048C136.65 82.6526 146.895 94.3782 154.411 108.142C170.073 136.821 174.684 170.477 193.768 197.456C199.095 204.988 205.144 212.181 208.826 220.73C212.21 228.595 213.541 237.222 213.408 245.751V245.754Z" fill="#B6B6B6"/>
<path d="M190.924 198.136C186.205 191.632 182.209 184.722 178.828 177.43C172.239 163.226 167.809 148.144 162.109 133.58C156.412 119.025 149.401 104.685 138.501 93.2892C128.172 82.4903 114.737 74.8363 100.423 70.7647C85.9831 66.6583 70.4772 66.1486 55.8463 69.5831C47.2588 71.5987 38.9861 74.9145 30.8116 78.1811C22.2098 81.6157 13.6137 85.001 4.70865 87.5784C-2.91146 89.7851 -10.6644 91.4908 -18.4924 92.7476C-18.761 92.7389 -19.0324 92.7534 -19.3038 92.7968C-19.9593 92.904 -20.6061 93.0256 -21.2471 93.1646C-21.5185 93.2052 -21.7899 93.2486 -22.0614 93.2863C-22.3126 93.321 -22.5465 93.4079 -22.7601 93.5237C-37.703 97.4187 -48.3665 110.1 -56.9337 122.37C-62.0186 129.653 -66.8292 137.188 -73.02 143.6C-78.9047 149.693 -85.7885 154.68 -92.45 159.861C-99.3222 165.206 -105.831 170.856 -111.083 177.859C-116.139 184.598 -119.858 192.306 -122.405 200.328C-127.851 217.469 -127.848 236.046 -124.397 253.581C-118.299 284.568 -100.824 313.191 -76.7824 333.474C-50.1279 355.961 -16.321 366.296 13.8736 382.768C17.6447 384.824 21.3608 386.979 24.9962 389.264C28.8857 391.705 32.6914 394.303 36.7888 396.388C44.8131 400.468 53.724 401.96 62.655 400.937C80.8405 398.852 95.8064 388.187 110.149 377.605C136.119 358.443 162.334 338.545 182.172 312.748C191.876 300.127 199.967 286.056 204.864 270.841C210.027 254.803 211.459 236.617 205.035 220.715C201.656 212.352 196.173 205.367 190.924 198.133V198.136ZM203.299 245.348C203.005 261.195 197.432 276.549 189.838 290.284C174.652 317.752 150.669 339.054 126.203 358.054C120.053 362.833 113.807 367.484 107.541 372.108C100.669 377.182 93.7794 382.299 86.344 386.524C78.877 390.764 70.688 394.106 62.0862 394.992C53.5045 395.875 45.3444 394.332 37.7936 390.124C33.9561 387.987 30.3294 385.493 26.5901 383.191C23.0905 381.036 19.5215 379.001 15.9093 377.049C8.33246 372.957 0.553535 369.253 -7.25715 365.639C-22.5003 358.587 -37.9571 351.877 -52.435 343.303C-66.1679 335.168 -78.4947 325.151 -88.8752 312.979C-98.6523 301.517 -106.63 288.341 -112.111 274.287C-117.84 259.596 -121.071 243.845 -120.773 228.042C-120.453 211.115 -115.957 193.691 -105.38 180.207C-95.0978 167.095 -79.7912 159.429 -68.4029 147.457C-56.798 135.257 -49.8102 119.26 -37.0186 108.119C-31.9597 103.712 -26.0923 100.387 -19.5579 98.9507C-10.6269 97.6359 -1.78535 95.7449 6.88004 93.2052C15.3924 90.7089 23.6275 87.4857 31.8598 84.1931C39.9246 80.9699 48.0645 77.6946 56.5104 75.6009C63.527 73.8633 70.7429 73.148 77.9645 73.342C92.0497 73.7243 106.037 77.6599 118.185 84.836C130.921 92.3567 140.566 103.35 147.657 116.262C162.427 143.163 166.871 174.728 184.909 199.995C189.927 207.026 195.581 213.765 199.029 221.772C202.217 229.18 203.45 237.315 203.302 245.345L203.299 245.348Z" fill="#B6B6B6"/>
<path d="M181.846 200.649C177.35 194.501 173.527 187.983 170.302 181.082C164.163 167.94 159.999 153.99 154.683 140.516C149.298 126.864 142.686 113.398 132.406 102.736C122.75 92.7185 110.245 85.6235 96.9188 81.8212C83.3158 77.9377 68.7108 77.4396 54.9115 80.6078C38.5826 84.3551 23.455 92.1393 7.30525 96.5527C-0.057869 98.5654 -7.55383 100.097 -15.1133 101.146C-15.301 101.149 -15.4916 101.166 -15.6821 101.195C-15.8872 101.227 -16.0893 101.267 -16.2943 101.302C-16.7043 101.357 -17.1143 101.415 -17.5244 101.467C-17.9546 101.522 -18.3704 101.638 -18.7458 101.815C-32.8223 105.319 -42.9084 117.12 -51.0136 128.593C-55.6711 135.187 -60.0803 142.007 -65.6936 147.848C-71.1019 153.472 -77.4429 158.036 -83.6019 162.774C-90.0786 167.758 -96.2838 172.959 -101.271 179.492C-106.023 185.715 -109.54 192.819 -111.949 200.264C-117.108 216.203 -117.091 233.515 -113.846 249.837C-108.091 278.764 -91.6089 305.392 -69.1702 324.311C-44.2453 345.327 -12.6734 355.103 15.5953 370.44C19.144 372.366 22.6465 374.382 26.074 376.516C29.7325 378.795 33.287 381.256 37.084 383.301C44.5453 387.318 52.8209 389.038 61.2668 388.323C78.3377 386.875 92.5616 377.156 106.04 367.365C130.33 349.723 154.986 331.368 173.544 307.445C182.747 295.581 190.436 282.372 195.016 268.003C199.769 253.095 200.958 236.249 194.947 221.515C191.796 213.791 186.72 207.327 181.84 200.655L181.846 200.649ZM181 285.697C166.955 311.25 144.542 331.015 121.702 348.509C115.832 353.004 109.878 357.388 103.901 361.738C97.3548 366.502 90.78 371.292 83.6623 375.166C76.741 378.934 69.1757 381.804 61.2755 382.473C53.1992 383.159 45.657 381.485 38.6231 377.466C35.0426 375.418 31.6411 373.07 28.127 370.909C24.8353 368.888 21.48 366.971 18.0814 365.138C11.033 361.333 3.8027 357.881 -3.46224 354.513C-17.868 347.835 -32.4816 341.484 -46.1684 333.375C-58.9311 325.814 -70.4032 316.527 -80.1052 305.262C-89.2643 294.625 -96.7891 282.396 -101.975 269.329C-107.427 255.585 -110.531 240.822 -110.236 225.997C-109.927 210.368 -105.712 194.154 -95.741 181.835C-86.0014 169.802 -71.7603 162.759 -61.1949 151.593C-50.5602 140.354 -43.9999 125.732 -32.1727 115.564C-27.1831 111.276 -21.3561 108.128 -14.8765 106.958C-7.14957 105.898 0.510956 104.424 8.05022 102.402C16.1294 100.236 23.9632 97.3665 31.7826 94.4126C39.4576 91.5138 47.1816 88.5281 55.1569 86.5502C61.6076 84.9517 68.2315 84.2566 74.8727 84.3783C88.1004 84.6186 101.293 88.1661 112.771 94.7891C124.642 101.638 133.737 111.661 140.442 123.563C154.55 148.595 158.697 178.212 175.557 201.857C180.2 208.37 185.438 214.559 188.811 221.879C191.929 228.644 193.223 236.18 193.208 243.596C193.182 258.432 188.074 272.83 181.003 285.697H181Z" fill="#B6B6B6"/>
<path d="M172.354 202.598C168.239 196.992 164.748 191.032 161.78 184.739C156.016 172.518 152.101 159.536 147.085 147.008C142.041 134.405 135.853 122.002 126.313 112.173C117.237 102.822 105.474 96.2457 92.9852 92.7416C80.338 89.1941 66.8043 88.7597 53.978 91.6209C38.7349 95.0207 24.4735 101.884 9.32859 105.683C1.73447 107.589 -5.9896 108.93 -13.7743 109.744C-14.3143 109.799 -14.8254 109.969 -15.2643 110.233C-28.0645 113.479 -37.3825 124.081 -44.8698 134.509C-49.2848 140.658 -53.437 147.04 -58.7356 152.484C-63.8204 157.709 -69.786 161.916 -75.5639 166.315C-81.5324 170.859 -87.2381 175.62 -91.8205 181.612C-96.2817 187.45 -99.5677 194.119 -101.777 201.124C-106.48 216.024 -106.267 232.195 -103.015 247.366C-97.2952 274.061 -81.7258 298.505 -60.7741 315.8C-37.4633 335.046 -8.29383 344.197 17.9449 358.431C21.2511 360.223 24.5139 362.1 27.7075 364.089C30.9877 366.131 34.1669 368.338 37.5279 370.24C44.4464 374.159 52.0809 376.07 60.036 375.641C75.949 374.784 89.399 366.027 102.009 357.049C124.699 340.893 147.802 323.998 165.127 301.873C173.659 290.976 180.78 278.845 185.039 265.608C189.509 251.716 190.548 236.003 184.874 222.296C181.854 214.999 176.991 208.914 172.36 202.601L172.354 202.598ZM171.927 281.53C158.872 305.183 137.938 323.335 116.657 339.367C111.139 343.523 105.546 347.574 99.9239 351.591C93.8024 355.966 87.626 360.342 80.9299 363.8C74.5168 367.113 67.5204 369.516 60.2785 369.948C52.8057 370.394 45.9478 368.61 39.5058 364.834C33.0696 361.057 26.9394 356.844 20.3617 353.293C13.8648 349.786 7.20627 346.598 0.513046 343.491C-12.833 337.293 -26.3725 331.415 -39.0861 323.961C-51.0173 316.964 -61.8252 308.43 -70.9786 298.019C-79.4938 288.335 -86.5393 277.212 -91.4943 265.283C-96.6975 252.759 -99.7727 239.209 -99.7381 225.612C-99.7005 211.04 -96.0045 195.868 -86.7934 184.305C-77.7642 172.97 -64.3287 166.524 -54.3899 156.139C-44.5002 145.806 -38.3498 132.329 -27.3398 123.01C-22.5061 118.918 -16.8351 115.993 -10.5461 115.058C-10.5461 115.058 -10.5432 115.058 -10.5403 115.058C-3.68828 114.229 3.11757 113.045 9.82523 111.409C17.2808 109.59 24.5255 107.131 31.7587 104.586C39.041 102.02 46.3463 99.3443 53.8452 97.4851C59.8801 95.988 66.0737 95.3306 72.2876 95.4232C84.6548 95.6115 97.0046 98.852 107.769 104.988C118.747 111.249 127.214 120.412 133.482 131.341C146.733 154.448 150.652 181.913 166.27 203.812C170.671 209.983 175.683 215.81 178.92 222.728C181.857 229 183.101 236 183.101 242.898C183.104 256.518 178.441 269.732 171.927 281.532V281.53Z" fill="#B6B6B6"/>
<path d="M162.687 204.31C158.916 199.161 155.734 193.659 153.014 187.885C147.704 176.608 144.048 164.648 139.33 153.125C134.58 141.527 128.739 130.117 119.79 121.18C111.246 112.646 100.291 106.686 88.6745 103.567C76.9628 100.422 64.4917 100.089 52.6529 102.724C38.6254 105.846 25.34 111.681 11.3068 114.826C4.27283 116.405 -2.85064 117.438 -10.0319 118.02C-10.6411 118.07 -11.21 118.281 -11.6748 118.617C-23.4472 121.62 -32.0692 131.292 -39.0426 140.855C-43.1948 146.551 -47.1102 152.459 -52.1229 157.451C-56.9104 162.218 -62.492 166.035 -67.8656 170.092C-73.4038 174.271 -78.6186 178.699 -82.8055 184.282C-86.8422 189.666 -89.7788 195.86 -91.7106 202.3C-95.857 216.114 -95.4152 231.057 -92.1524 245.004C-86.4005 269.578 -71.5934 291.874 -52.0017 307.576C-30.2299 325.024 -3.31841 333.5 20.8846 346.746C27.0985 350.149 32.8591 354.261 39.0066 357.759C45.4139 361.402 52.4941 363.209 59.8688 362.879C74.5546 362.225 87.0546 354.316 98.7663 346.144C119.773 331.49 141.189 316.07 157.137 295.726C172.848 275.683 185.325 247.396 174.427 222.227C171.56 215.607 166.911 210.073 162.687 204.304V204.31ZM163.048 277.015C151.154 298.677 131.88 315.186 112.317 329.689C107.195 333.489 101.995 337.184 96.7739 340.847C91.1086 344.82 85.3856 348.779 79.1977 351.901C73.1888 354.93 66.6284 357.076 59.8717 357.371C52.9417 357.675 46.6411 355.909 40.7015 352.373C34.837 348.88 29.2382 345.026 23.235 341.759C17.2464 338.498 11.1018 335.533 4.92542 332.652C-7.39844 326.903 -19.91 321.482 -31.7083 314.682C-42.7068 308.343 -52.7466 300.686 -61.3254 291.283C-69.5432 282.274 -76.2884 271.921 -81.1712 260.731C-91.1388 237.894 -93.9426 207.722 -77.917 186.883C-69.754 176.266 -57.1992 170.44 -47.8956 161.013C-38.569 151.564 -32.8229 139.062 -22.5434 130.49C-18.0475 126.74 -12.7721 124.105 -6.95666 123.282C-6.87003 123.271 -6.7834 123.25 -6.70255 123.227C-0.494431 122.61 5.68194 121.681 11.7803 120.357C18.7161 118.852 25.4757 116.746 32.2238 114.566C39.0008 112.376 45.7778 110.062 52.6991 108.368C58.2258 107.013 63.8882 106.402 69.5765 106.457C80.9533 106.573 92.3416 109.417 102.324 114.925C112.658 120.63 120.671 129.068 126.602 139.239C138.874 160.284 142.581 185.394 156.77 205.451C160.827 211.182 165.531 216.528 168.687 222.85C171.52 228.52 172.854 234.862 172.995 241.178C173.272 253.799 169.065 266.074 163.056 277.018L163.048 277.015Z" fill="#B6B6B6"/>
<path d="M153.031 206.039C149.656 201.42 146.82 196.462 144.372 191.29C139.495 180.986 136.09 170.069 131.701 159.56C127.275 148.963 121.815 138.57 113.533 130.461C105.601 122.692 95.4662 117.302 84.771 114.502C73.8937 111.655 62.3495 111.389 51.3683 113.816C38.4901 116.662 26.1287 121.501 13.1581 123.995C6.73625 125.228 0.245171 125.949 -6.28347 126.303C-7.03711 126.343 -7.62617 126.636 -8.04774 127.067C-18.6333 129.923 -26.3949 138.069 -32.912 146.809C-36.7697 151.984 -40.3849 157.376 -45.002 161.923C-49.4429 166.301 -54.6375 169.765 -59.6243 173.469C-64.7525 177.274 -69.5486 181.328 -73.4034 186.463C-77.0994 191.389 -79.7675 197.096 -81.4826 203.007C-85.1469 215.625 -84.578 229.227 -81.4335 241.888C-75.8462 264.386 -61.914 284.643 -43.7921 298.876C-23.5247 314.795 1.32219 322.649 23.6628 334.974C29.4378 338.16 34.7797 342.017 40.494 345.284C46.2488 348.573 52.5898 350.273 59.2252 350.137C72.6781 349.865 84.309 342.868 95.1227 335.527C114.596 322.302 134.505 308.268 149.177 289.566C163.611 271.168 174.699 245.096 163.99 222.233C161.203 216.285 156.872 211.295 153.029 206.036L153.031 206.039ZM154.394 272.089C143.676 291.958 125.958 306.944 107.984 320.017C103.251 323.457 98.4491 326.805 93.624 330.109C88.4496 333.651 83.2204 337.178 77.584 339.949C72.1641 342.614 66.2592 344.484 60.1983 344.768C53.8545 345.063 47.9986 343.523 42.5384 340.3C37.0781 337.079 31.9095 333.431 26.351 330.364C20.9139 327.364 15.3352 324.636 9.71616 321.995C-1.56819 316.689 -13.046 311.737 -23.9319 305.624C-34.2171 299.849 -43.6853 292.937 -51.8222 284.348C-59.5232 276.222 -65.9103 266.868 -70.6083 256.692C-80.1486 236.035 -83.3364 208.611 -68.9422 189.35C-61.709 179.672 -50.3409 174.445 -41.7477 166.203C-32.8571 157.677 -27.5153 146.073 -17.975 138.156C-14.0306 134.883 -9.21429 132.297 -4.08897 131.614C-3.86375 131.585 -3.64429 131.533 -3.43351 131.469C2.35304 131.061 8.11649 130.357 13.8193 129.294C20.091 128.124 26.2269 126.424 32.3513 124.652C43.6125 121.394 54.7958 117.488 66.6432 117.505C77.1566 117.519 87.7278 119.998 97.0197 124.974C106.413 130.004 113.822 137.446 119.337 146.539C130.887 165.589 134.349 188.539 147.141 206.937C150.782 212.175 155.082 216.974 158.186 222.578C161.007 227.672 162.523 233.42 162.835 239.226C163.45 250.758 159.811 262.043 154.391 272.089H154.394Z" fill="#B6B6B6"/>
<path d="M143.999 208.628C140.837 204.368 138.169 199.801 135.873 195.017C131.34 185.574 128.132 175.562 124.034 165.931C119.969 156.368 114.849 146.983 107.267 139.746C99.9787 132.793 90.7733 127.994 81.0598 125.489C71.1615 122.938 60.6943 122.689 50.6891 124.774C38.8879 127.232 27.436 131.185 15.502 133.074C9.53352 134.018 3.49577 134.449 -2.53911 134.582C-3.36782 134.6 -3.98864 134.936 -4.40444 135.431C-13.8177 137.962 -20.8632 145.034 -26.7826 152.766C-30.3457 157.42 -33.6692 162.288 -37.8821 166.394C-41.9073 170.318 -46.6255 173.391 -51.1588 176.674C-55.8221 180.054 -60.2198 183.662 -63.7281 188.273C-67.0776 192.672 -69.5002 197.742 -71.0595 203.042C-74.4119 214.429 -73.8113 226.751 -70.8689 238.155C-65.5934 258.612 -52.6661 276.862 -36.1207 289.757C-17.5916 304.196 5.02326 311.459 25.4234 322.64C30.6152 325.487 35.4633 328.815 40.4962 331.922C45.6735 335.119 51.2521 337.08 57.3534 337.346C69.6282 337.882 80.6758 331.977 90.6434 325.444C108.586 313.68 126.994 301.176 140.551 284.267C153.819 267.719 163.775 244.277 154.148 223.545C151.596 218.049 147.585 213.453 144.004 208.628H143.999ZM145.119 268.301C135.304 286.242 118.993 299.577 102.549 311.149C98.2404 314.181 93.8716 317.121 89.4797 320.025C84.7009 323.188 79.847 326.298 74.5976 328.629C69.4867 330.897 63.9369 332.278 58.3323 332.2C52.5833 332.122 47.5099 330.219 42.6791 327.193C37.8772 324.184 33.2139 321.027 28.2416 318.291C23.2232 315.531 18.0776 313.014 12.8975 310.579C2.6353 305.751 -7.78858 301.228 -17.6956 295.685C-27.0771 290.438 -35.7454 284.188 -43.2269 276.427C-50.2435 269.147 -56.1138 260.789 -60.4797 251.656C-69.2663 233.284 -72.6389 208.504 -59.5499 191.255C-52.8913 182.481 -42.4241 177.879 -34.5701 170.382C-26.6468 162.82 -21.7496 152.583 -13.1824 145.633C-9.55862 142.694 -5.14941 140.415 -0.480316 139.838C-0.223335 139.807 0.0249939 139.749 0.261772 139.67C5.48814 139.462 10.6943 138.996 15.8716 138.22C21.56 137.368 27.1473 136.033 32.723 134.64C43.1469 132.034 53.4957 128.527 64.3441 128.541C73.8555 128.553 83.4391 130.708 91.9024 135.112C100.562 139.621 107.431 146.34 112.557 154.634C123.174 171.821 126.463 192.599 138.102 209.245C141.423 213.991 145.338 218.327 148.237 223.363C150.882 227.955 152.378 233.151 152.722 238.439C153.403 248.928 150.103 259.191 145.119 268.301Z" fill="#B6B6B6"/>
<path d="M133.893 209.76C131.141 205.975 128.857 201.875 126.85 197.65C122.816 189.153 119.882 180.184 116.054 171.598C112.283 163.136 107.481 154.868 100.539 148.619C93.713 142.474 85.2353 138.309 76.3245 136.227C67.2346 134.102 57.6857 134.023 48.5698 136.036C38.247 138.315 27.9415 141.087 17.405 142.213C12.0256 142.786 6.61444 142.952 1.20904 142.865C0.313914 142.85 -0.332874 143.23 -0.728462 143.786C-9.09932 146.018 -15.5096 152.163 -20.8601 159.004C-24.1288 163.182 -27.2126 167.552 -31.0992 171.195C-34.8183 174.682 -39.164 177.378 -43.3018 180.323C-47.5464 183.344 -51.4734 186.619 -54.6063 190.821C-57.6209 194.864 -59.7432 199.593 -61.0252 204.464C-63.7453 214.793 -62.853 225.862 -59.8587 236.026C-54.4244 254.488 -42.141 270.462 -26.8517 281.866C-9.82987 294.559 10.7407 301.051 29.111 311.375C33.8407 314.034 38.2239 317.199 42.8699 319.988C47.6343 322.849 52.8635 324.468 58.4306 324.607C69.227 324.873 78.9492 319.855 87.8369 314.231C104.036 303.982 120.714 292.995 132.804 277.841C144.796 262.811 153.302 241.242 143.332 222.908C140.745 218.15 137.063 214.119 133.895 209.76H133.893ZM136.679 262.961C128.187 279.144 113.51 290.988 98.7084 301.124C94.8333 303.776 90.8977 306.342 86.9389 308.87C82.625 311.627 78.2591 314.37 73.5525 316.411C69.0884 318.349 64.272 319.579 59.3922 319.608C54.1514 319.64 49.4043 318.126 44.9518 315.401C40.5455 312.702 36.3499 309.716 31.8425 307.173C27.3496 304.639 22.7325 302.331 18.0778 300.113C8.85516 295.714 -0.540783 291.66 -9.54401 286.806C-18.1257 282.179 -26.1876 276.769 -33.1984 269.946C-39.7444 263.575 -45.3201 256.252 -49.5734 248.152C-58.132 231.85 -62.1109 209.63 -50.5754 193.723C-44.7859 185.742 -35.2716 181.716 -28.0962 175.224C-20.7619 168.583 -16.2921 159.29 -8.44963 153.154C-5.1088 150.542 -1.12982 148.546 3.11769 148.071C3.38912 148.04 3.65476 147.979 3.90308 147.889C13.5589 147.834 22.9952 146.661 32.4922 144.744C37.6118 143.71 42.714 142.575 47.796 141.365C52.0781 140.345 56.3545 139.685 60.7609 139.598C69.4118 139.424 78.2042 141.121 86.0236 144.9C93.8978 148.706 100.34 154.463 105.142 161.778C115.083 176.918 118.182 195.463 128.32 210.502C131.196 214.77 134.681 218.59 137.49 222.908C140.124 226.953 141.874 231.471 142.466 236.281C143.609 245.551 140.955 254.818 136.676 262.973L136.679 262.961Z" fill="#B6B6B6"/>
<path d="M124.557 211.955C122.097 208.59 120.053 204.941 118.245 201.185C114.604 193.615 111.913 185.631 108.376 178.015C104.893 170.515 100.435 163.208 94.0942 157.79C87.8399 152.441 80.2024 148.87 72.1896 147.121C63.9978 145.335 55.4566 145.335 47.2619 147.11C38.1374 149.088 28.8107 150.822 19.4697 151.309C14.6302 151.561 9.7821 151.445 4.94843 151.141C3.98689 151.08 3.32565 151.506 2.95893 152.125C-4.44461 154.069 -10.208 159.371 -15.0562 165.363C-18.013 169.014 -20.811 172.837 -24.3279 175.982C-27.6688 178.965 -31.5553 181.247 -35.2254 183.787C-38.9358 186.355 -42.3575 189.176 -45.0804 192.807C-47.7715 196.395 -49.6484 200.609 -50.7312 204.956C-53.0008 214.075 -52.0162 223.797 -49.172 232.673C-43.9254 249.043 -32.6179 263.013 -18.8301 273.007C-3.47152 284.142 14.8699 290.023 31.2969 299.27C35.4289 301.596 39.2895 304.286 43.2771 306.84C47.5073 309.551 52.0233 311.294 57.0418 311.746C66.7438 312.623 75.8106 308.52 83.9475 303.672C98.5179 294.99 113.585 285.48 124.433 272.182C135.267 258.898 142.503 239.66 133.127 223.568C130.696 219.395 127.393 215.836 124.554 211.952L124.557 211.955ZM127.604 258.8C120.145 273.036 106.975 283.206 93.8055 291.825C90.3029 294.118 86.7455 296.328 83.1679 298.5C79.3015 300.848 75.3601 303.174 71.1126 304.767C66.9893 306.313 62.6753 307.202 58.2603 306.993C53.5566 306.773 49.4188 305.059 45.5005 302.525C41.663 300.046 37.9294 297.463 33.9476 295.213C29.9484 292.954 25.8424 290.889 21.7046 288.906C13.507 284.976 5.15922 281.359 -2.87669 277.096C-10.5719 273.013 -17.8657 268.295 -24.25 262.33C-30.1924 256.775 -35.3322 250.39 -39.3025 243.277C-47.1161 229.281 -51.3896 209.815 -41.3151 195.808C-36.2735 188.797 -27.8449 185.379 -21.4375 179.868C-14.8454 174.201 -10.8029 166.069 -3.85267 160.776C-0.771706 158.427 2.84056 156.675 6.72714 156.296C6.9899 156.27 7.244 156.212 7.48366 156.125C11.4771 156.316 15.4791 156.362 19.4725 156.154C23.9308 155.922 28.3458 155.317 32.7608 154.674C37.2913 154.014 41.8074 153.243 46.2859 152.282C50.1898 151.445 54.0215 150.756 58.0236 150.637C73.5265 150.179 88.9429 156.351 97.9721 169.339C107.18 182.585 110.1 199.051 119.031 212.453C121.586 216.287 124.71 219.693 127.332 223.475C129.859 227.121 131.577 231.062 132.305 235.453C133.633 243.48 131.317 251.725 127.607 258.802L127.604 258.8Z" fill="#B6B6B6"/>
<path d="M115.237 214.179C113.062 211.223 111.246 208.02 109.632 204.724C106.381 198.084 103.929 191.081 100.678 184.441C97.4495 177.85 93.2973 171.49 87.5049 166.883C81.857 162.391 75.1233 159.438 68.0663 158.03C60.8158 156.585 53.3978 156.666 46.1588 158.134C38.1027 159.771 29.6683 160.558 21.4447 160.405C17.1799 160.327 12.9295 159.93 8.69642 159.42C7.93701 159.328 7.24111 159.785 6.81087 160.416C0.458374 161.995 -4.63229 166.313 -8.92889 171.346C-11.5912 174.467 -14.086 177.766 -17.2073 180.456C-20.2046 183.042 -23.7129 184.959 -26.9989 187.143C-30.3599 189.379 -33.4149 191.884 -35.8173 195.156C-38.1504 198.333 -39.7241 202.115 -40.5354 205.966C-42.2304 214.003 -41.0206 222.436 -38.185 230.066C-32.8692 244.372 -22.3384 256.335 -9.82401 264.814C3.90317 274.116 19.8508 279.352 34.1873 287.559C37.8399 289.65 41.2558 292.065 44.7757 294.364C48.4313 296.753 52.3352 298.364 56.678 298.908C65.1326 299.968 73.1772 296.843 80.4594 292.832C93.3925 285.703 106.9 277.655 116.415 266.103C120.951 260.595 124.687 254.169 126.327 247.161C128.146 239.388 127.208 231.048 122.903 224.234C120.645 220.657 117.731 217.573 115.231 214.176L115.237 214.179ZM118.65 254.415C112.303 266.708 100.707 275.208 89.2172 282.303C82.8849 286.215 76.3101 290.516 69.2155 292.873C65.4733 294.115 61.581 294.715 57.6424 294.344C53.6836 293.973 50.21 292.357 46.924 290.194C43.6178 288.019 40.3983 285.752 36.9679 283.771C33.4423 281.735 29.8185 279.876 26.1571 278.095C19.1318 274.681 11.9622 271.562 5.0033 268.006C-1.87762 264.49 -8.54485 260.528 -14.4151 255.463C-19.8927 250.737 -24.7408 245.27 -28.5639 239.113C-35.8577 227.364 -40.7636 210.461 -32.1877 198.072C-27.8333 191.782 -20.1901 188.959 -14.4469 184.218C-8.7181 179.489 -5.11738 172.582 0.949253 168.23C3.73569 166.231 6.88306 164.789 10.3307 164.517C10.5964 164.497 10.8361 164.439 11.0555 164.355C18.3753 165.096 25.5969 165.18 32.9687 164.604C36.9044 164.297 40.8343 163.851 44.7237 163.159C48.3649 162.51 51.8992 161.789 55.6125 161.665C69.0047 161.213 82.6944 166.072 90.8833 177.091C99.3235 188.449 102.061 202.853 109.848 214.585C114.177 221.106 120.298 226.328 122.039 234.274C123.547 241.143 121.817 248.267 118.647 254.409L118.65 254.415Z" fill="#B6B6B6"/>
<path d="M105.535 215.897C103.702 213.348 102.16 210.6 100.771 207.788C97.967 202.115 95.7609 196.158 92.7897 190.566C89.778 184.899 85.9203 179.715 80.7315 175.887C75.7621 172.22 69.7561 169.95 63.7039 168.907C57.1868 167.787 50.8805 168.166 44.401 169.261C37.7453 170.384 30.6045 170.245 23.9055 169.545C20.2557 169.162 16.6463 168.485 13.0456 167.787C12.0292 167.59 11.2236 168.027 10.7385 168.69C5.19449 169.947 0.678442 173.532 -3.19081 177.804C-5.63074 180.497 -7.93207 183.419 -10.886 185.576C-13.6176 187.572 -16.6437 189.104 -19.4734 190.945C-25.387 194.797 -29.3256 200.363 -30.3362 207.438C-31.3353 214.414 -29.7414 221.37 -26.9491 227.753C-21.665 239.823 -11.7667 249.712 -0.710438 256.593C11.4459 264.16 25.1356 268.794 37.4536 276.068C43.708 279.763 49.2087 285.022 56.644 286.103C63.9147 287.16 70.8043 284.996 77.2665 281.793C88.4469 276.256 100.286 269.764 108.405 260.036C112.24 255.443 115.384 249.967 116.522 244.031C117.839 237.17 116.444 230.185 112.367 224.489C110.236 221.509 107.678 218.868 105.538 215.897H105.535ZM110.037 249.33C105.062 259.793 95.1401 266.714 85.3977 272.321C79.8681 275.503 74.0931 278.938 67.9514 280.765C64.7809 281.709 61.5008 282.129 58.2003 281.793C54.7296 281.44 51.6428 280.05 48.7582 278.142C45.8765 276.236 43.1045 274.2 40.1333 272.428C37.1938 270.676 34.1677 269.069 31.1069 267.543C24.9768 264.487 18.6964 261.745 12.5518 258.716C0.990297 253.014 -9.82917 245.867 -17.4637 235.241C-24.1945 225.876 -30.0445 211.588 -23.282 200.716C-19.8488 195.197 -13.4472 193.045 -8.43739 189.335C-3.13883 185.414 0.248201 179.428 5.70269 175.724C8.18016 174.042 10.932 172.918 13.9407 172.75C14.1631 172.739 14.3681 172.695 14.5558 172.637C20.4058 173.677 26.2328 174.375 32.2071 174.471C35.4382 174.523 38.6722 174.473 41.8888 174.12C45.1315 173.764 48.3135 173.02 51.5706 172.785C63.0542 171.963 75.2886 175.215 83.0848 184.117C91.0572 193.222 93.6704 205.561 99.9882 215.682C103.502 221.312 109.199 225.815 111.408 232.195C113.378 237.88 112.586 243.964 110.037 249.33Z" fill="#B6B6B6"/>
<path d="M95.7139 217.469C94.2673 215.381 93.0285 213.154 91.8879 210.887C89.4855 206.117 87.4874 201.139 84.727 196.555C81.9232 191.898 78.3369 187.734 73.7054 184.838C69.1835 182.011 63.986 180.424 58.7308 179.729C56.0021 179.37 53.2532 179.246 50.5043 179.379C47.7236 179.515 45.0036 180.094 42.2345 180.288C36.7685 180.673 31.0685 179.845 25.7584 178.568C22.7323 177.841 19.7553 176.932 16.7696 176.06C15.6839 175.745 14.8523 176.243 14.4221 176.998C9.91181 177.948 6.10609 180.644 2.78547 183.978C0.674706 186.095 -1.30323 188.385 -3.81824 190.039C-6.26973 191.652 -8.97821 192.819 -11.4701 194.368C-16.555 197.531 -19.5378 202.459 -19.9825 208.451C-20.3925 213.974 -18.6023 219.519 -16.0786 224.364C-10.8811 234.341 -1.98468 242.255 7.63935 247.818C18.1412 253.888 29.671 257.942 40.066 264.209C45.3097 267.369 49.9268 271.869 56.0685 273.192C61.9879 274.469 67.9275 273.262 73.4397 270.971C83.0522 266.978 93.554 262.043 100.421 253.932C103.698 250.06 106.109 245.435 106.721 240.347C107.44 234.361 105.118 228.969 101.42 224.399C99.5369 222.074 97.4233 219.931 95.7168 217.469H95.7139ZM101.165 244.662C97.5705 253.433 88.7348 258.788 80.6729 262.865C75.8681 265.295 70.8467 267.855 65.5424 268.947C59.9262 270.102 54.6594 268.906 49.9672 265.669C45.2288 262.396 40.5309 259.298 35.3911 256.671C30.2976 254.065 25.0625 251.748 19.9026 249.286C9.93492 244.531 0.495678 238.98 -6.74328 230.451C-9.71163 226.953 -12.3104 222.963 -13.9389 218.651C-15.7725 213.797 -16.7167 207.956 -14.1872 203.163C-11.5741 198.214 -6.03007 196.676 -1.63819 193.786C2.95583 190.766 5.97903 185.898 10.6828 183.051C12.7906 181.777 15.0776 181.033 17.5464 180.975C17.6965 180.972 17.8351 180.954 17.9679 180.925C22.536 182.231 27.0896 183.407 31.8251 184.05C34.4671 184.406 37.115 184.719 39.7859 184.716C42.5348 184.71 45.1913 184.206 47.9142 183.92C57.3996 182.915 68.1469 184.719 75.3079 191.501C82.6826 198.486 85.2987 208.662 90.3807 217.171C91.7551 219.473 93.349 221.601 95.0902 223.634C96.9728 225.835 99.0201 227.961 100.461 230.492C102.973 234.902 103.074 240.011 101.168 244.665L101.165 244.662Z" fill="#B6B6B6"/>
<path d="M86.3446 219.745C85.129 218.014 84.0808 216.172 83.0875 214.304C81.0432 210.458 79.2212 206.47 76.6831 202.911C74.0959 199.283 70.9023 196.181 66.9089 194.148C62.9732 192.144 58.6737 191.093 54.2963 190.673C52.0267 190.453 49.7398 190.43 47.4673 190.58C45.088 190.737 42.7578 191.154 40.3641 191.006C36.0791 190.74 31.6756 189.231 27.7544 187.551C25.4848 186.578 23.2557 185.521 20.9861 184.551C19.9524 184.111 18.7858 184.247 18.1535 185.278C14.5556 185.935 11.4169 187.864 8.5785 190.331C6.73339 191.936 5.00377 193.578 2.82082 194.719C0.689847 195.831 -1.62304 196.592 -3.67894 197.852C-12.405 203.198 -9.58676 214.292 -4.78773 221.353C0.429978 229.027 8.07607 234.816 16.2073 239.09C24.8236 243.619 34.0058 247.034 42.3276 252.127C46.6531 254.774 50.4299 258.504 55.3098 260.117C59.8692 261.623 64.8039 261.316 69.3777 260.045C73.7378 258.834 78.0719 257.135 82.1491 255.177C85.7411 253.454 89.287 251.296 92.007 248.34C94.5942 245.528 96.4278 241.977 96.6963 238.12C97.0486 233.09 94.3632 228.899 91.1466 225.317C89.5093 223.493 87.7566 221.761 86.3446 219.748V219.745ZM92.0994 240.234C89.9598 247.161 82.3512 250.81 76.1489 253.271C72.1526 254.858 67.9051 256.57 63.5825 256.903C59.0491 257.253 55.0586 255.985 51.3828 253.341C47.6233 250.639 43.8955 248.067 39.801 245.887C35.7325 243.718 31.5312 241.812 27.3501 239.875C19.2189 236.107 11.1657 232.14 4.59086 225.908C1.85062 223.313 -0.62107 220.426 -2.51238 217.145C-4.44412 213.794 -6.05246 209.615 -4.92922 205.732C-3.67893 201.411 0.926619 200.317 4.49557 198.536C8.54673 196.514 11.2841 192.755 15.2371 190.618C17.0851 189.619 19.0543 189.159 21.1507 189.202C21.1969 189.202 21.2402 189.202 21.2835 189.199C28.4272 192.362 35.8914 195.88 43.8493 195.121C51.9343 194.348 60.3081 194.522 67.316 199.222C74.1305 203.795 76.8765 212.019 80.8266 218.819C83.102 222.734 86.131 225.841 89.0676 229.244C91.7385 232.337 93.3555 236.162 92.0965 240.234H92.0994Z" fill="#B6B6B6"/>
<path d="M79.4433 224.946C74.5894 220.11 72.4065 213.308 67.5295 208.469C62.023 203.001 53.5713 200.01 45.8819 201.272C43.8808 201.6 42.0935 202.486 40.0376 201.996C38.282 201.579 36.7574 200.627 35.201 199.749C31.5223 197.676 28.2566 195.058 24.6876 192.819C23.6192 192.147 22.5942 192.637 22.0773 193.468C19.2678 193.801 16.7124 195.026 14.2869 196.656C12.8922 197.595 11.5351 198.481 9.92672 199.008C8.10471 199.607 6.12389 199.966 4.46646 200.986C-2.31339 205.159 2.64445 213.612 6.59744 217.863C17.1744 229.241 32.9199 232.395 45.5643 240.642C49.087 242.939 52.0929 245.968 56.0805 247.474C59.6812 248.835 63.5794 248.939 67.3533 248.412C70.775 247.931 74.2516 247.233 77.5087 246.064C80.1276 245.122 82.8043 243.834 84.6032 241.633C86.3935 239.438 87.1674 236.556 86.3415 233.794C85.2356 230.098 82.0652 227.561 79.4404 224.946H79.4433ZM72.906 243.257C69.6431 244.074 66.2416 244.795 62.8633 244.72C59.2857 244.639 56.0776 243.454 53.2104 241.326C50.2853 239.151 47.4498 236.985 44.2735 235.175C41.1781 233.411 37.9615 231.874 34.7246 230.391C28.2508 227.425 21.6529 224.689 15.8086 220.553C13.0106 218.573 10.3714 216.285 8.19135 213.623C6.60611 211.689 4.16905 208.266 5.37025 205.66C6.0979 204.084 8.16824 203.716 9.64953 203.279C11.4542 202.746 13.1867 202.127 14.7922 201.125C16.2966 200.183 17.6999 199.071 19.3169 198.318C20.9368 197.563 22.6173 197.305 24.3787 197.409C26.6887 199.002 28.8976 200.745 31.3173 202.167C33.8237 203.638 36.5148 205.379 39.3937 205.952C42.7287 206.615 45.6769 205.052 48.9773 204.985C52.1016 204.921 55.2518 205.636 58.1076 206.893C60.9691 208.153 63.5274 209.946 65.6266 212.271C67.7056 214.576 69.2273 217.304 70.8097 219.957C72.392 222.609 74.0754 225.21 76.2526 227.42C78.4413 229.638 81.8659 231.986 82.5878 235.207C83.7283 240.306 76.4663 242.371 72.9089 243.26L72.906 243.257Z" fill="#B6B6B6"/>
<path d="M72.2305 228.813C71.0495 227.973 69.831 227.095 68.7857 226.085C67.0215 224.379 65.6557 222.326 64.0935 220.443C62.413 218.419 60.4668 216.65 58.1857 215.329C55.5552 213.806 52.6186 212.801 49.6098 212.402C48.0419 212.193 46.4942 212.161 44.9263 212.364C43.6385 212.529 42.29 213.123 40.9878 212.871C38.7499 212.436 36.8673 210.319 35.3138 208.782C33.3965 206.885 31.843 204.672 30.0326 202.683C29.92 202.483 29.7641 202.309 29.5562 202.167C29.3021 201.901 29.0451 201.637 28.7765 201.385C27.8294 200.485 26.6225 200.824 25.9641 201.594C24.246 201.597 22.5684 201.91 20.833 202.431C19.4239 202.854 18.1707 203.022 16.701 203.013C15.3728 203.004 13.9434 202.993 12.8231 203.812C10.4871 205.521 11.8673 208.33 13.4352 210.007C14.8703 211.544 16.6635 212.79 18.4191 213.928C27.9998 220.128 39.5238 222.517 48.8187 229.224C51.3135 231.025 53.4444 233.272 56.2309 234.648C58.665 235.853 61.2782 236.551 63.9521 236.962C66.545 237.359 69.2275 237.784 71.8609 237.718C73.5386 237.674 75.5627 237.388 76.4751 235.772C77.4194 234.098 76.4867 232.094 75.2508 230.869C74.3586 229.983 73.2325 229.528 72.2305 228.813ZM73.2873 233.689C73.2729 233.687 73.2556 233.687 73.2383 233.687C73.2094 233.681 73.2094 233.675 73.2873 233.689ZM69.5856 233.797C64.8414 233.437 59.7681 232.76 55.8006 229.925C53.6639 228.399 51.7726 226.565 49.5839 225.094C47.476 223.678 45.2468 222.447 42.9715 221.324C38.3572 219.051 33.5178 217.316 28.8429 215.182C24.5723 213.23 19.8975 210.991 16.5018 207.658C16.3372 207.496 16.1351 207.174 15.9329 206.905C17.1543 207.059 18.6703 206.865 19.8311 206.659C22.5222 206.184 24.7225 205.086 27.4743 205.521C30.1568 208.396 32.4119 211.628 35.5073 214.139C37.1763 215.491 39.0416 216.601 41.2303 216.76C42.3882 216.844 43.4566 216.525 44.5769 216.288C45.7059 216.047 46.8725 216.016 48.0217 216.079C52.6273 216.343 57.1404 218.512 60.2763 221.88C61.7806 223.496 63.0309 225.317 64.4429 227.009C66.0022 228.874 67.8444 230.162 69.7155 231.68C70.5962 232.392 71.7483 232.766 72.5481 233.579C72.6261 233.658 72.6867 233.733 72.7416 233.811C72.7098 233.82 72.6781 233.826 72.6521 233.831C71.653 233.97 70.5904 233.872 69.5913 233.794L69.5856 233.797ZM73.0188 234.222C73.0188 234.254 73.0332 234.248 73.0188 234.222V234.222ZM73.3422 233.689C73.3682 233.652 73.3884 233.629 73.3884 233.632C73.3942 233.666 73.3711 233.684 73.3422 233.689Z" fill="#B6B6B6"/>
</g>
</g>
<defs>
<clipPath id="clip0_113_1193">
<rect width="462" height="477.986" fill="white" transform="translate(-191)"/>
</clipPath>
</defs>
</svg>
