<svg width="17" height="20" viewBox="0 0 17 20" fill="none" xmlns="http://www.w3.org/2000/svg">
<g clip-path="url(#clip0_119_439)">
<path d="M5.71224 12.0251H1.15527V3.41748H6.72489" stroke="#2E2E2E" stroke-linecap="round" stroke-linejoin="round"/>
<path d="M14.8812 6.03018C13.9952 6.03018 13.2812 5.31119 13.2812 4.43018" stroke="#2E2E2E" stroke-linecap="round" stroke-linejoin="round"/>
<path d="M2.51758 9.36182C3.42897 9.36182 4.16821 10.1011 4.16821 11.0124" stroke="#2E2E2E" stroke-linecap="round" stroke-linejoin="round"/>
<path d="M2.51758 6.03018C3.40365 6.03018 4.11758 5.31119 4.11758 4.43018" stroke="#2E2E2E" stroke-linecap="round" stroke-linejoin="round"/>
<path d="M14.8821 9.36182C13.9707 9.36182 13.2314 10.1011 13.2314 11.0124" stroke="#2E2E2E" stroke-linecap="round" stroke-linejoin="round"/>
<path d="M7.2309 8.9871V16.0757H5.71191L9.25622 19.62L12.8005 16.0757H11.2815V4.46558C11.2815 3.8833 11.7524 3.41748 12.3296 3.41748H16.3448V12.0251H11.2815" stroke="#2E2E2E" stroke-linecap="round" stroke-linejoin="round"/>
<path opacity="0.5" d="M9.25684 13.038V9.49365" stroke="#2E2E2E" stroke-linecap="round" stroke-linejoin="round"/>
<path opacity="0.5" d="M9.25684 7.97454V5.94922" stroke="#2E2E2E" stroke-linecap="round" stroke-linejoin="round"/>
<path opacity="0.5" d="M9.25684 4.43061V2.91162" stroke="#2E2E2E" stroke-linecap="round" stroke-linejoin="round"/>
<path opacity="0.5" d="M9.25684 1.39254V0.379883" stroke="#2E2E2E" stroke-linecap="round" stroke-linejoin="round"/>
</g>
<defs>
<clipPath id="clip0_119_439">
<rect width="15.9494" height="20" fill="white" transform="translate(0.775391)"/>
</clipPath>
</defs>
</svg>
