<svg width="26" height="20" viewBox="0 0 26 20" fill="none" xmlns="http://www.w3.org/2000/svg">
<g clip-path="url(#clip0_120_450)">
<path d="M12.0095 13.8094H1.25V0.476074H22.1361V4.2856" stroke="#2E2E2E" stroke-linecap="round" stroke-linejoin="round"/>
<path d="M14.0478 18.6159L13.2883 18.7747C13.0352 18.5207 12.9592 18.4445 12.7061 18.1905L12.8643 17.4286C13.0858 16.3747 13.6048 15.4032 14.3643 14.6413L22.2567 6.72388C22.9339 6.04451 24.0352 6.04451 24.7124 6.72388C25.0542 7.06674 25.2187 7.51118 25.2187 7.95562C25.2187 8.40007 25.0478 8.85086 24.7124 9.18737L16.82 17.1048C16.0605 17.8667 15.0921 18.3937 14.0415 18.6096L14.0478 18.6159Z" stroke="#2E2E2E" stroke-linecap="round" stroke-linejoin="round"/>
<path d="M21.8135 7.1748L24.2755 9.6383" stroke="#2E2E2E" stroke-linecap="round" stroke-linejoin="round"/>
<path d="M17.4844 11.5239L19.9401 13.9874" stroke="#2E2E2E" stroke-linecap="round" stroke-linejoin="round"/>
<path d="M22.7687 11.1494L23.7814 10.1335C24.1295 9.78428 24.6928 9.78428 25.0345 10.1335C25.3826 10.4827 25.3826 11.0478 25.0345 11.3906L21.3193 15.1176" stroke="#2E2E2E" stroke-linecap="round" stroke-linejoin="round"/>
<path d="M12.9965 18.4888L11.9648 19.5237" stroke="#2E2E2E" stroke-linecap="round" stroke-linejoin="round"/>
<path d="M7.57872 3.65088H4.73062C4.2053 3.65088 3.78125 4.07628 3.78125 4.60326C3.78125 5.13024 4.2053 5.55564 4.73062 5.55564H6.62935C7.15467 5.55564 7.57872 5.98104 7.57872 6.50802C7.57872 7.03501 7.15467 7.4604 6.62935 7.4604H3.78125" stroke="#2E2E2E" stroke-linecap="round" stroke-linejoin="round"/>
<path d="M5.68066 8.73029V7.46045" stroke="#2E2E2E" stroke-linecap="round" stroke-linejoin="round"/>
<path d="M5.68066 3.6507V2.38086" stroke="#2E2E2E" stroke-linecap="round" stroke-linejoin="round"/>
<path d="M10.1104 6.19043H19.604" stroke="#2E2E2E" stroke-linecap="round" stroke-linejoin="round"/>
<path d="M10.1104 3.65088H15.8066" stroke="#2E2E2E" stroke-linecap="round" stroke-linejoin="round"/>
<path d="M10.1104 8.72998H16.4395" stroke="#2E2E2E" stroke-linecap="round" stroke-linejoin="round"/>
</g>
<defs>
<clipPath id="clip0_120_450">
<rect width="25" height="20" fill="white" transform="translate(0.775391)"/>
</clipPath>
</defs>
</svg>
