<svg width="155" height="204" viewBox="0 0 155 204" fill="none" xmlns="http://www.w3.org/2000/svg">
<g opacity="0.1" clip-path="url(#clip0_171_2010)">
<path d="M231.225 75.0229C229.443 68.8203 225.994 63.5712 222.257 58.395C218.78 53.5781 215.65 48.6517 213.104 43.2726C208.308 33.1393 205.238 22.3067 201.401 11.7968C197.599 1.37736 192.989 -8.92378 185.627 -17.3428C178.671 -25.2976 169.358 -31.0621 159.322 -34.2218C149.267 -37.3874 138.334 -37.9232 128.071 -35.4498C122.008 -33.9882 116.309 -31.3527 110.731 -28.615C104.782 -25.6947 98.8613 -22.7935 92.6404 -20.4894C87.3192 -18.5182 81.88 -16.8887 76.3594 -15.5878C76.1264 -15.6418 75.8702 -15.6491 75.5936 -15.598C63.7107 -13.3932 55.7573 -3.26728 49.4402 6.23664C45.968 11.4624 42.6559 16.8488 38.3756 21.4657C34.2409 25.9264 29.3856 29.6146 24.6773 33.4314C20.0083 37.216 15.5402 41.1919 11.9049 46.0132C8.48942 50.5425 5.8936 55.6442 3.99514 60.9867C0.169101 71.7668 -0.718982 83.5587 0.527246 94.8863C2.97894 117.156 13.3142 138.37 29.2385 154.081C37.7132 162.442 47.7441 168.833 58.3109 174.197C69.4119 179.833 80.9803 184.479 92.0711 190.134C94.8082 191.53 97.5147 192.986 100.17 194.531C102.912 196.125 105.551 197.888 108.295 199.478C113.909 202.728 119.961 204.401 126.469 203.918C139.563 202.944 150.331 195.087 160.365 187.297C178.533 173.193 196.984 158.787 211.291 140.573C218.352 131.585 224.305 121.748 228.353 111.024C232.621 99.715 234.616 86.8338 231.224 75.0243L231.225 75.0229ZM229.161 92.667C228.092 104.16 223.518 115.191 217.709 125.052C206.341 144.351 189.401 159.613 172.16 173.534C167.766 177.082 163.317 180.56 158.861 184.027C153.93 187.861 148.959 191.698 143.507 194.769C138.15 197.785 132.24 200.025 126.06 200.409C123.024 200.598 119.988 200.36 117.054 199.535C114.036 198.686 111.296 197.187 108.63 195.564C103.418 192.393 98.2324 189.282 92.7772 186.538C87.392 183.83 81.9004 181.343 76.4147 178.851C65.5 173.893 54.5183 168.89 44.5718 162.123C26.599 149.898 13.2923 131.296 7.19369 110.413C1.18967 89.8533 1.56674 64.7787 15.3524 47.2821C22.722 37.9285 33.5028 32.1844 41.414 23.3711C49.3267 14.5579 54.0845 3.25945 62.8255 -4.84859C66.0751 -7.86228 69.8137 -10.2905 74.0227 -11.5739C74.2367 -11.5389 74.4696 -11.5418 74.72 -11.5958C81.1259 -12.98 87.4313 -14.8051 93.5794 -17.08C99.6825 -19.3388 105.535 -22.116 111.364 -24.9953C116.849 -27.7038 122.397 -30.3583 128.347 -31.8754C133.271 -33.1311 138.349 -33.6202 143.423 -33.4304C153.582 -33.0508 163.61 -29.8648 172.151 -24.3383C181.059 -18.5752 187.552 -10.2817 192.279 -0.855162C197.121 8.80353 200.199 19.2156 203.777 29.3781C205.607 34.5761 207.569 39.7376 209.908 44.7283C212.334 49.9015 215.27 54.7038 218.606 59.3339C222.191 64.3129 225.77 69.2788 227.604 75.2127C229.348 80.856 229.708 86.806 229.164 92.667H229.161Z" fill="#B6B6B6"/>
<path d="M216.472 57.9851C213.266 53.5259 210.513 48.8433 208.219 43.8483C203.788 34.1998 200.891 23.9395 197.185 14.0078C193.514 4.17535 189.003 -5.5359 181.867 -13.3548C175.182 -20.6803 166.377 -25.9659 156.927 -28.8394C147.347 -31.7538 136.967 -32.1889 127.227 -29.7972C121.419 -28.3722 115.944 -25.8505 110.572 -23.2705C104.984 -20.5868 99.4096 -17.9484 93.57 -15.8502C88.5196 -14.0353 83.3615 -12.5416 78.1305 -11.3589C77.9136 -11.4041 77.6777 -11.41 77.4229 -11.3647C66.236 -9.32345 58.648 0.0972373 52.6571 9.03025C49.3348 13.983 46.193 19.1051 42.15 23.5161C38.2439 27.7767 33.6274 31.2839 29.1404 34.8933C24.6228 38.5276 20.277 42.3268 16.7567 46.97C13.3441 51.4715 10.776 56.5659 8.94738 61.907C4.99032 73.4726 4.60888 86.0574 6.54228 98.0537C9.90826 118.929 20.7662 138.578 36.4881 152.646C53.88 168.208 76.4752 175.036 96.6885 185.878C99.2538 187.255 101.783 188.701 104.258 190.235C106.814 191.821 109.331 193.491 112.051 194.79C117.509 197.396 123.421 198.025 129.37 197.143C141.478 195.349 151.367 187.501 160.769 180.225C177.974 166.91 195.269 153.182 208.58 135.776C215.168 127.161 220.685 117.615 224.206 107.32C227.915 96.4739 229.348 84.1169 225.404 73.1236C223.387 67.5022 219.92 62.7831 216.469 57.9837L216.472 57.9851ZM224.226 90.1326C223.628 101.008 219.59 111.504 214.304 120.915C203.924 139.393 188.042 154.005 171.766 167.203C167.659 170.534 163.496 173.792 159.316 177.029C154.673 180.622 150.049 184.28 145.04 187.355C135.288 193.343 123.252 196.825 112.539 191.183C109.889 189.787 107.405 188.102 104.846 186.552C102.416 185.08 99.9351 183.691 97.4223 182.365C92.4403 179.736 87.336 177.35 82.2142 175.009C71.9489 170.318 61.551 165.794 51.9321 159.836C34.2621 148.891 20.6526 132.203 13.7663 112.507C10.1587 102.189 8.35484 91.1926 8.95612 80.2534C9.5836 68.8543 12.9423 57.1864 20.1518 48.1717C27.1764 39.3891 37.3471 33.9691 44.8463 25.6668C52.4693 17.2259 57.0378 6.35531 65.5314 -1.33806C68.58 -4.1006 72.0799 -6.30539 75.9933 -7.47348C76.1811 -7.45012 76.382 -7.45742 76.5946 -7.50122C82.734 -8.77007 88.7817 -10.4623 94.6809 -12.5941C100.472 -14.6865 106.032 -17.2694 111.575 -19.94C116.733 -22.4251 121.951 -24.8708 127.511 -26.3119C132.175 -27.5209 136.986 -28.0159 141.8 -27.8713C151.326 -27.5837 160.748 -24.7277 168.847 -19.6961C177.372 -14.4003 183.7 -6.72444 188.305 2.1341C193.022 11.2087 196.007 21.047 199.377 30.6692C202.826 40.5206 206.745 50.1983 212.809 58.7561C216.184 63.519 219.909 68.1534 221.962 73.6902C223.91 78.9466 224.535 84.552 224.227 90.1311L224.226 90.1326Z" fill="#B6B6B6"/>
<path d="M211.565 58.7913C208.546 54.5862 205.968 50.1489 203.81 45.4385C199.632 36.3201 196.877 26.6337 193.351 17.2597C189.853 7.96165 185.555 -1.21373 178.789 -8.60485C172.378 -15.6076 163.929 -20.6392 154.874 -23.3535C145.782 -26.0781 135.952 -26.4738 126.716 -24.2311C121.179 -22.8863 115.941 -20.5223 110.796 -18.119C105.445 -15.6207 100.108 -13.1663 94.5263 -11.2243C89.7554 -9.56561 84.887 -8.21062 79.9516 -7.14474C79.7259 -7.17832 79.4901 -7.17686 79.2542 -7.13452C68.5448 -5.21592 61.2902 3.78718 55.5439 12.3172C52.389 16.9998 49.3928 21.8328 45.5362 25.9824C41.8077 29.9963 37.4168 33.2991 33.1569 36.7114C28.8635 40.15 24.7623 43.7579 21.4255 48.1646C18.0915 52.5698 15.6194 57.5999 13.903 62.8446C10.3084 73.8276 10.0725 85.7247 12.022 97.0494C15.436 116.876 25.9896 135.469 41.0943 148.685C57.7582 163.266 79.2178 169.727 98.3815 180.099C100.811 181.415 103.203 182.799 105.547 184.264C107.954 185.768 110.334 187.337 112.908 188.545C118.161 191.009 123.856 191.559 129.555 190.677C141.017 188.901 150.394 181.465 159.332 174.595C175.7 162.014 192.132 149.005 204.729 132.456C210.921 124.32 216.099 115.283 219.359 105.556C222.783 95.344 224.031 83.7418 220.291 73.4319C218.316 67.9901 214.907 63.4447 211.565 58.7913ZM219.161 89.0508C218.74 99.3958 214.971 109.402 209.983 118.364C200.237 135.872 185.219 149.695 169.81 162.141C165.885 165.311 161.903 168.408 157.905 171.483C153.504 174.866 149.122 178.312 144.39 181.225C135.077 186.959 123.54 190.367 113.281 184.981C110.876 183.718 108.618 182.199 106.306 180.778C103.957 179.336 101.558 177.979 99.1254 176.684C94.4069 174.173 89.5705 171.895 84.7152 169.668C74.9783 165.203 65.106 160.928 55.9355 155.345C38.9207 144.985 25.7115 129.176 18.9883 110.328C15.5685 100.739 13.7981 90.5299 14.2203 80.3383C14.6731 69.402 17.7727 58.2073 24.6065 49.5035C31.2657 41.0217 41.0827 35.8996 48.282 27.9624C55.4521 20.0558 59.7965 9.89924 67.7237 2.6439C70.7039 -0.082138 74.1324 -2.25772 77.9832 -3.37763C78.139 -3.36595 78.3021 -3.37325 78.4753 -3.40683C84.2217 -4.5355 89.8865 -6.05257 95.4188 -7.97554C100.906 -9.88246 106.186 -12.2537 111.441 -14.7184C116.491 -17.0867 121.592 -19.4433 127.013 -20.8334C131.428 -21.9649 135.979 -22.4307 140.533 -22.2993C149.589 -22.0365 158.56 -19.3528 166.276 -14.5899C174.297 -9.64008 180.296 -2.48696 184.68 5.80798C189.245 14.4475 192.122 23.839 195.353 33.0275C198.665 42.4482 202.415 51.7024 208.229 59.8806C211.394 64.3339 214.907 68.6749 216.871 73.8378C218.718 78.6957 219.372 83.8762 219.162 89.0538L219.161 89.0508Z" fill="#B6B6B6"/>
<path d="M206.842 59.8557C203.972 55.871 201.527 51.663 199.475 47.1979C195.51 38.5642 192.885 29.3962 189.52 20.5259C186.192 11.755 182.107 3.10525 175.704 -3.86098C169.572 -10.5308 161.49 -15.3039 152.838 -17.8591C144.143 -20.4275 134.752 -20.7677 125.936 -18.598C120.723 -17.3145 115.771 -15.1185 110.894 -12.9108C105.851 -10.6272 100.817 -8.39027 95.5638 -6.62791C91.0302 -5.10646 86.4049 -3.87558 81.7228 -2.91774C81.516 -2.94402 81.2991 -2.93964 81.0836 -2.90168C70.9872 -1.13202 64.0878 7.27827 58.6355 15.3002C55.6379 19.7097 52.8033 24.2711 49.1636 28.193C45.6419 31.9879 41.4882 35.1023 37.4497 38.3116C33.3805 41.5443 29.4773 44.9304 26.3064 49.0815C23.1719 53.1859 20.8352 57.8597 19.2003 62.754C15.7076 73.2114 15.4936 84.5784 17.3863 95.3716C20.6692 114.082 30.6959 131.578 44.9416 144.064C60.7829 157.948 81.1957 164.126 99.4335 173.982C101.732 175.224 103.996 176.528 106.213 177.911C108.505 179.34 110.762 180.848 113.194 182.033C118.222 184.48 123.681 185.096 129.181 184.296C140.115 182.706 149.079 175.688 157.617 169.179C173.162 157.329 188.767 145.052 200.692 129.376C206.567 121.655 211.47 113.057 214.504 103.805C217.675 94.1349 218.742 83.1563 215.075 73.464C213.166 68.4193 209.968 64.1923 206.846 59.8572L206.842 59.8557ZM214.081 88.1995C213.782 97.9634 210.291 107.419 205.615 115.889C196.427 132.532 182.139 145.622 167.487 157.374C163.773 160.354 160.002 163.263 156.217 166.149C152.044 169.333 147.885 172.57 143.399 175.304C134.542 180.704 123.614 183.836 113.906 178.718C111.52 177.46 109.285 175.938 106.987 174.531C104.858 173.228 102.686 171.999 100.486 170.822C95.9743 168.41 91.3461 166.225 86.6989 164.089C77.4323 159.832 68.0376 155.761 59.2994 150.459C43.228 140.708 30.6682 125.866 24.1997 108.117C20.8818 99.0132 19.142 89.2975 19.5206 79.5936C19.9224 69.2925 22.8283 58.7183 29.2895 50.5358C35.6021 42.5402 44.8833 37.7247 51.7143 30.2532C58.5656 22.7585 62.7091 13.091 70.3189 6.25327C73.1273 3.72872 76.3593 1.73712 79.9684 0.715033C80.0951 0.715033 80.2247 0.704815 80.3528 0.681453C85.8021 -0.32749 91.1787 -1.70146 96.4344 -3.46529C101.61 -5.20137 106.598 -7.37549 111.565 -9.63283C116.338 -11.8011 121.157 -13.9708 126.243 -15.2923C130.43 -16.3786 134.743 -16.84 139.064 -16.7378C147.699 -16.5334 156.266 -14.0292 163.646 -9.52478C171.293 -4.85678 177.023 1.91087 181.213 9.78237C189.947 26.1912 192.531 45.2983 203.409 60.6573C206.381 64.8522 209.72 68.9055 211.677 73.7137C213.542 78.3014 214.235 83.2629 214.084 88.1952L214.081 88.1995Z" fill="#B6B6B6"/>
<path d="M202.169 60.9888C199.482 57.2713 197.18 53.3494 195.248 49.1866C191.475 41.0567 188.975 32.4113 185.788 24.0478C182.614 15.7163 178.724 7.4973 172.624 0.8888C166.805 -5.41453 159.142 -9.91608 150.947 -12.3238C142.789 -14.7213 133.995 -15.0572 125.71 -13.1006C120.664 -11.9091 115.859 -9.83285 111.122 -7.76387C106.344 -5.67736 101.57 -3.63319 96.6011 -2.03436C92.3004 -0.650164 87.9168 0.458064 83.4807 1.30785C83.2944 1.28887 83.1022 1.29471 82.91 1.32684C73.3595 2.96217 66.8037 10.8673 61.6208 18.4321C58.7848 22.5716 56.103 26.8497 52.6672 30.5292C49.2663 34.1693 45.2437 37.1348 41.3521 40.2142C37.5115 43.2527 33.8515 46.4547 30.8888 50.3839C27.9625 54.2635 25.7932 58.6803 24.2864 63.2958C21.0689 73.1472 20.9466 83.8426 22.8028 93.9743C26.0422 111.658 35.6917 128.129 49.2561 139.843C64.2749 152.811 83.504 158.661 100.691 167.969C102.896 169.163 105.068 170.417 107.195 171.749C109.369 173.11 111.506 174.544 113.812 175.674C118.42 177.933 123.469 178.615 128.536 177.944C138.868 176.579 147.33 170.228 155.423 164.12C170.143 153.008 184.962 141.511 196.286 126.774C201.869 119.506 206.538 111.42 209.434 102.69C212.452 93.5918 213.48 83.2643 210.085 74.1152C208.274 69.2341 205.187 65.1647 202.169 60.9888ZM208.98 88.0156C208.661 97.2684 205.295 106.22 200.804 114.214C192.051 129.797 178.527 142.009 164.692 152.984C161.185 155.767 157.624 158.481 154.051 161.179C150.056 164.196 146.066 167.253 141.739 169.784C137.566 172.222 133.033 174.147 128.214 174.79C123.335 175.442 118.569 174.653 114.238 172.301C112.087 171.133 110.061 169.756 107.976 168.475C105.888 167.193 103.755 165.984 101.595 164.83C97.3567 162.565 93.0109 160.509 88.6476 158.5C79.9459 154.495 71.1262 150.669 62.8991 145.722C55.1014 141.034 48.1365 135.22 42.3203 128.197C36.8302 121.566 32.4087 113.963 29.4023 105.887C26.2343 97.3808 24.5281 88.2959 24.8076 79.2038C25.1089 69.418 27.8125 59.3374 33.9709 51.5754C39.9327 44.0601 48.6912 39.5644 55.1436 32.5515C61.6208 25.5122 65.556 16.4172 72.7553 10.0102C75.4472 7.61411 78.5453 5.73932 82.0001 4.80338C82.0758 4.799 82.1501 4.79024 82.2258 4.77856C87.4349 3.88059 92.58 2.62926 97.6115 1.00123C102.566 -0.601979 107.34 -2.63885 112.106 -4.72536C116.632 -6.70674 121.216 -8.6852 126.021 -9.8825C129.968 -10.8666 134.03 -11.2696 138.093 -11.1543C146.211 -10.9221 154.258 -8.56109 161.201 -4.33259C168.489 0.107637 173.927 6.57158 177.903 14.0751C181.972 21.7539 184.565 30.0912 187.475 38.2489C190.458 46.6095 193.835 54.8183 199.026 62.0707C201.842 66.0043 204.984 69.8385 206.783 74.3854C208.5 78.7219 209.137 83.3724 208.977 88.0185L208.98 88.0156Z" fill="#B6B6B6"/>
<path d="M197.131 61.6181C194.594 58.0904 192.461 54.3335 190.653 50.381C187.163 42.7475 184.812 34.6584 181.775 26.8453C178.747 19.0541 175.009 11.3812 169.199 5.27058C163.675 -0.536313 156.48 -4.66407 148.808 -6.86009C141.077 -9.07217 132.767 -9.34667 124.939 -7.47334C120.351 -6.37533 115.953 -4.54726 111.613 -2.72795C107.011 -0.799134 102.414 1.09756 97.6384 2.56206C93.5692 3.81046 89.4272 4.79458 85.2387 5.53486C85.0756 5.52318 84.9082 5.53048 84.7408 5.55823C75.7362 7.05777 69.524 14.4577 64.6089 21.567C61.8806 25.5151 59.2994 29.6006 55.9698 33.08C52.812 36.3799 49.117 39.087 45.537 41.8962C41.9162 44.7362 38.4644 47.7338 35.6735 51.422C32.8956 55.0942 30.8414 59.2819 29.4307 63.6622C26.4549 72.9077 26.3923 82.9285 28.1888 92.4134C31.3553 109.122 40.6336 124.619 53.5414 135.596C67.8104 147.73 85.9783 153.245 102.188 162.089C104.217 163.196 106.216 164.359 108.175 165.589C110.229 166.881 112.25 168.242 114.429 169.318C118.919 171.534 123.831 172.158 128.768 171.477C138.416 170.146 146.365 164.187 153.957 158.512C167.88 148.107 181.869 137.299 192.496 123.368C197.703 116.542 202.039 108.907 204.651 100.695C207.411 92.0207 208.164 82.216 204.658 73.6378C202.843 69.1961 199.906 65.4801 197.13 61.6195L197.131 61.6181ZM203.903 86.9088C203.767 95.5848 200.713 103.997 196.561 111.518C188.43 126.246 175.672 137.738 162.62 148.016C159.287 150.642 155.901 153.197 152.504 155.737C148.786 158.517 145.069 161.334 141.055 163.679C137.1 165.989 132.812 167.813 128.247 168.432C123.582 169.065 119.016 168.306 114.879 166.046C112.848 164.936 110.932 163.629 108.962 162.414C106.998 161.203 104.993 160.061 102.961 158.97C98.9749 156.83 94.8868 154.886 90.7797 152.991C82.4987 149.168 74.0983 145.531 66.2584 140.835C58.9194 136.44 52.3549 131.006 46.8502 124.435C41.6731 118.258 37.4758 111.169 34.6019 103.627C31.5475 95.614 29.8703 87.0329 30.112 78.4386C30.3682 69.2939 32.8753 59.8484 38.6565 52.6091C44.2063 45.6604 52.3083 41.4932 58.3676 35.0687C64.6002 28.4602 68.3316 19.809 75.1975 13.7597C77.7919 11.4746 80.7823 9.70788 84.1147 8.86393C89.0749 8.07839 93.9768 6.95556 98.7739 5.4677C103.338 4.05138 107.745 2.24375 112.148 0.395242C116.428 -1.40071 120.755 -3.21271 125.266 -4.34869C129.03 -5.29776 132.901 -5.69199 136.78 -5.59125C144.346 -5.39413 151.862 -3.25652 158.376 0.615721C165.201 4.67339 170.367 10.5854 174.156 17.5254C182.053 31.9849 184.378 48.9544 194 62.5569C196.686 66.3547 199.736 69.9816 201.592 74.2919C203.298 78.2576 203.97 82.6073 203.903 86.9073V86.9088Z" fill="#B6B6B6"/>
<path d="M192.566 62.9C190.187 59.6206 188.172 56.1367 186.468 52.4601C183.145 45.2982 180.912 37.6939 178.038 30.351C175.166 23.0124 171.631 15.7819 166.135 10.0364C160.927 4.59158 154.153 0.732485 146.936 -1.32044C139.655 -3.39089 131.837 -3.64787 124.46 -1.91617C120.131 -0.899929 115.96 0.771908 111.838 2.41892C107.501 4.15062 103.167 5.85751 98.6769 7.15701C94.8349 8.26962 90.9258 9.12963 86.979 9.76332C86.8436 9.75894 86.7067 9.76624 86.5699 9.78815C86.2394 9.84217 85.9133 9.90349 85.5901 9.97358C85.4532 9.99402 85.3164 10.0159 85.1795 10.0349C85.0528 10.0524 84.9349 10.0962 84.8272 10.1546C77.293 12.1185 71.9165 18.5124 67.5969 24.6989C65.0331 28.3711 62.6076 32.1703 59.4862 35.403C56.5192 38.4751 53.0484 40.9894 49.6897 43.6016C46.2247 46.297 42.9431 49.1457 40.2949 52.6762C37.7457 56.0739 35.8705 59.9608 34.5864 64.0053C31.8406 72.6477 31.8421 82.0144 33.5819 90.8554C36.6567 106.479 45.4676 120.911 57.5892 131.137C71.0284 142.475 88.0738 147.686 103.298 155.991C105.199 157.028 107.073 158.114 108.906 159.266C110.867 160.497 112.786 161.807 114.852 162.858C118.898 164.916 123.39 165.668 127.893 165.152C137.062 164.101 144.608 158.723 151.84 153.388C164.934 143.726 178.152 133.694 188.153 120.687C193.047 114.324 197.126 107.229 199.595 99.5577C202.198 91.4716 202.92 82.302 199.681 74.2845C197.978 70.0677 195.213 66.5459 192.566 62.8985V62.9ZM198.806 86.7043C198.658 94.6941 195.848 102.436 192.019 109.361C184.362 123.21 172.27 133.951 159.934 143.531C156.833 145.94 153.684 148.285 150.525 150.617C147.06 153.175 143.586 155.755 139.837 157.885C136.072 160.023 131.944 161.708 127.607 162.155C123.28 162.6 119.165 161.822 115.358 159.7C113.423 158.622 111.595 157.365 109.71 156.205C107.945 155.118 106.146 154.092 104.324 153.108C100.504 151.044 96.5819 149.177 92.6438 147.355C84.9582 143.799 77.1649 140.416 69.8652 136.093C62.941 131.991 56.7259 126.941 51.492 120.804C46.5624 115.025 42.5399 108.381 39.7766 101.295C36.8882 93.8881 35.259 85.9465 35.409 77.9786C35.5706 69.4442 37.8374 60.6587 43.1703 53.8604C48.3546 47.249 56.0722 43.384 61.8142 37.3479C67.6653 31.1964 71.1886 23.1307 77.6381 17.5136C80.1888 15.2913 83.1471 13.6151 86.4417 12.8909C90.9448 12.228 95.4026 11.2745 99.7717 9.99402C104.064 8.7354 108.216 7.11029 112.366 5.45013C116.433 3.82502 120.537 2.17362 124.795 1.11796C128.333 0.241884 131.971 -0.118766 135.612 -0.0209377C142.714 0.171798 149.766 2.1561 155.891 5.77428C162.313 9.56621 167.176 15.1088 170.751 21.6195C178.198 35.1825 180.439 51.0978 189.534 63.8374C192.064 67.3825 194.915 70.7802 196.653 74.8175C198.26 78.5525 198.882 82.6539 198.808 86.7029L198.806 86.7043Z" fill="#B6B6B6"/>
<path d="M187.988 64.1671C185.721 61.0672 183.794 57.7805 182.167 54.301C179.072 47.675 176.973 40.6416 174.292 33.8477C171.577 26.9647 168.243 20.1751 163.06 14.799C158.192 9.74841 151.887 6.17112 145.168 4.25399C138.309 2.29597 130.945 2.04482 123.988 3.64219C115.755 5.53159 108.127 9.45639 99.9847 11.6816C96.2722 12.6964 92.4928 13.4688 88.6813 13.9974C88.5867 13.9988 88.4906 14.0076 88.3945 14.0222C88.2911 14.0382 88.1892 14.0587 88.0858 14.0762C87.8791 14.1039 87.6724 14.1332 87.4656 14.1594C87.2487 14.1872 87.0391 14.2456 86.8498 14.3346C79.7524 16.1014 74.667 22.0514 70.5804 27.8364C68.2321 31.1611 66.009 34.5996 63.1787 37.5447C60.4519 40.3803 57.2548 42.6814 54.1494 45.0702C50.8839 47.583 47.7552 50.2054 45.2409 53.4994C42.8446 56.6372 41.0713 60.2189 39.8571 63.9729C37.2555 72.0094 37.2642 80.7379 38.9006 88.9672C41.8021 103.552 50.1123 116.978 61.4259 126.517C73.993 137.113 89.9115 142.043 104.165 149.775C105.954 150.746 107.72 151.763 109.448 152.839C111.292 153.988 113.085 155.229 114.999 156.26C118.761 158.285 122.934 159.152 127.192 158.792C135.799 158.062 142.971 153.161 149.767 148.225C162.014 139.33 174.445 130.075 183.802 118.013C188.442 112.031 192.319 105.372 194.628 98.1265C197.025 90.6098 197.624 82.1163 194.593 74.6872C193.005 70.7931 190.445 67.5341 187.985 64.17L187.988 64.1671ZM187.561 107.048C180.48 119.932 169.179 129.897 157.663 138.718C154.704 140.984 151.702 143.195 148.688 145.388C145.388 147.79 142.073 150.205 138.484 152.158C134.994 154.058 131.18 155.505 127.196 155.842C123.124 156.188 119.322 155.344 115.775 153.318C113.97 152.285 112.255 151.101 110.483 150.012C108.823 148.993 107.132 148.026 105.418 147.102C101.864 145.183 98.2187 143.443 94.5557 141.745C87.2924 138.378 79.9242 135.176 73.0234 131.087C66.5884 127.275 60.8042 122.592 55.9125 116.912C51.2944 111.549 47.5004 105.383 44.8857 98.7953C42.137 91.8655 40.5719 84.4218 40.7204 76.9475C40.8762 69.0672 43.0018 60.892 48.0289 54.6807C52.9396 48.6139 60.12 45.0629 65.447 39.4326C70.809 33.7659 74.1167 26.3938 80.08 21.2673C82.5957 19.1049 85.5337 17.5177 88.8007 16.9278C92.6966 16.3934 96.559 15.6502 100.36 14.631C104.434 13.5389 108.384 12.0919 112.326 10.6026C116.196 9.141 120.09 7.63562 124.111 6.63836C127.364 5.83237 130.704 5.48194 134.052 5.54327C140.721 5.66446 147.373 7.45311 153.16 10.7924C159.146 14.2456 163.732 19.2991 167.112 25.3001C174.226 37.9214 176.316 52.8541 184.817 64.7759C187.158 68.0597 189.799 71.18 191.499 74.8712C193.072 78.282 193.724 82.0813 193.717 85.8206C193.704 93.3008 191.128 100.561 187.563 107.048H187.561Z" fill="#B6B6B6"/>
<path d="M183.203 65.1497C181.128 62.3229 179.368 59.318 177.872 56.1452C174.966 49.9835 172.992 43.4378 170.463 37.1213C167.919 30.7669 164.799 24.5132 159.989 19.5575C155.413 14.8428 149.482 11.5269 143.185 9.76011C136.809 7.97147 129.985 7.75245 123.518 9.19505C115.832 10.9092 108.642 14.3697 101.006 16.2854C97.1769 17.2461 93.2824 17.9222 89.3574 18.3325C89.0851 18.3602 88.8274 18.4464 88.6062 18.5792C82.1523 20.216 77.4542 25.5615 73.6791 30.8194C71.4531 33.9192 69.3595 37.1373 66.688 39.8824C64.1242 42.5164 61.1164 44.638 58.2031 46.8559C55.1939 49.1468 52.317 51.5473 50.0066 54.5683C47.7573 57.5119 46.1005 60.8745 44.9867 64.4065C42.6151 71.9189 42.7228 80.0722 44.3622 87.7217C47.2462 101.181 55.0963 113.506 65.6601 122.226C77.4134 131.93 92.1206 136.544 105.35 143.72C107.017 144.624 108.662 145.57 110.272 146.573C111.926 147.603 113.529 148.715 115.224 149.675C118.712 151.65 122.562 152.614 126.572 152.398C134.596 151.966 141.377 147.55 147.735 143.024C159.175 134.878 170.824 126.359 179.559 115.204C183.861 109.71 187.451 103.593 189.599 96.919C191.852 89.9148 192.376 81.9922 189.516 75.0815C187.993 71.402 185.541 68.3343 183.206 65.1512L183.203 65.1497ZM182.988 104.947C176.406 116.873 165.85 126.025 155.121 134.108C152.338 136.204 149.518 138.246 146.684 140.271C143.597 142.478 140.483 144.684 137.107 146.427C133.874 148.098 130.346 149.31 126.695 149.527C122.927 149.752 119.469 148.853 116.221 146.949C112.976 145.045 109.885 142.92 106.569 141.13C103.293 139.362 99.9358 137.754 96.5611 136.187C89.832 133.063 83.0054 130.099 76.5952 126.34C70.5795 122.813 65.1302 118.51 60.5151 113.261C56.2217 108.378 52.6694 102.77 50.1711 96.7555C47.5476 90.4405 45.9971 83.6086 46.0146 76.7533C46.0335 69.406 47.897 61.7564 52.5413 55.9262C57.0938 50.2113 63.8679 46.961 68.8791 41.725C73.8654 36.5153 76.9664 29.7199 82.5177 25.0213C84.9548 22.9581 87.8142 21.4834 90.9851 21.0118C90.9851 21.0118 90.9865 21.0118 90.988 21.0118C94.4428 20.5942 97.8743 19.997 101.256 19.172C105.015 18.2551 108.668 17.0154 112.315 15.732C115.987 14.4383 119.67 13.0892 123.451 12.1518C126.494 11.3969 129.617 11.0655 132.75 11.1122C138.985 11.2071 145.212 12.841 150.639 15.935C156.175 19.0917 160.443 23.7116 163.604 29.222C170.285 40.8723 172.261 54.7201 180.135 65.7615C182.354 68.873 184.882 71.8108 186.514 75.299C187.994 78.4616 188.622 81.9908 188.622 85.4688C188.623 92.3357 186.272 98.9982 182.988 104.948V104.947Z" fill="#B6B6B6"/>
<path d="M178.329 66.0126C176.428 63.4165 174.823 60.6423 173.452 57.7308C170.774 52.0451 168.931 46.0148 166.552 40.205C164.157 34.3573 161.212 28.6044 156.7 24.0985C152.393 19.7955 146.869 16.7906 141.012 15.218C135.107 13.6323 128.819 13.4644 122.85 14.7931C115.777 16.3671 109.079 19.3093 102.003 20.895C98.4568 21.6907 94.8652 22.212 91.2444 22.5055C90.9372 22.5303 90.6504 22.6369 90.416 22.8062C84.4804 24.3204 80.1332 29.1972 76.6172 34.0185C74.5237 36.8906 72.5495 39.8692 70.0221 42.3864C67.6083 44.7898 64.7941 46.7142 62.0847 48.7599C59.2923 50.8668 56.663 53.0993 54.552 55.9145C52.5167 58.6288 51.0361 61.752 50.0621 64.9993C47.9715 71.9641 48.1942 79.4983 49.8393 86.5302C52.7394 98.9208 60.2052 110.162 70.0833 118.079C81.0606 126.876 94.6293 131.15 106.832 137.829C109.965 139.544 112.87 141.618 115.97 143.381C119.2 145.218 122.77 146.129 126.488 145.963C133.893 145.633 140.195 141.645 146.1 137.525C156.692 130.137 167.49 122.362 175.531 112.104C183.452 101.999 189.743 87.7363 184.249 75.0464C182.803 71.7086 180.459 68.9183 178.329 66.0097V66.0126ZM178.511 102.67C172.514 113.592 162.796 121.916 152.933 129.228C150.35 131.144 147.728 133.007 145.096 134.854C142.239 136.858 139.354 138.854 136.234 140.428C133.204 141.955 129.896 143.037 126.49 143.186C122.996 143.339 119.819 142.448 116.824 140.666C113.867 138.905 111.044 136.961 108.018 135.314C104.998 133.67 101.9 132.175 98.7858 130.722C92.5722 127.824 86.2639 125.091 80.3152 121.662C74.7697 118.466 69.7077 114.605 65.3823 109.864C61.2388 105.322 57.8379 100.102 55.376 94.4601C50.3504 82.9456 48.9367 67.7327 57.0168 57.2256C61.1326 51.8728 67.4627 48.9351 72.1535 44.1824C76.856 39.418 79.7532 33.1147 84.9361 28.7927C87.2029 26.9019 89.8628 25.5732 92.7949 25.1585C92.8386 25.1527 92.8823 25.1424 92.923 25.1308C96.0532 24.8198 99.1673 24.3511 102.242 23.6838C105.739 22.9245 109.147 21.863 112.55 20.7635C115.967 19.6597 119.384 18.4931 122.873 17.6389C125.66 16.9555 128.515 16.6475 131.383 16.6752C137.119 16.7336 142.861 18.1674 147.894 20.9446C153.104 23.821 157.145 28.0758 160.135 33.2038C166.322 43.8144 168.192 56.4751 175.346 66.5879C177.391 69.4775 179.763 72.1729 181.354 75.3603C182.782 78.2192 183.455 81.4169 183.526 84.6014C183.666 90.9646 181.545 97.1541 178.515 102.672L178.511 102.67Z" fill="#B6B6B6"/>
<path d="M173.46 66.8844C171.758 64.5555 170.328 62.0557 169.094 59.448C166.635 54.2529 164.918 48.7482 162.705 43.4494C160.473 38.1069 157.72 32.8665 153.545 28.7782C149.546 24.8607 144.435 22.1434 139.043 20.7315C133.559 19.2962 127.738 19.1618 122.201 20.3854C115.708 21.8207 109.476 24.2606 102.936 25.5177C99.6979 26.1397 96.4251 26.5033 93.1334 26.6814C92.7534 26.7019 92.4564 26.8494 92.2438 27.0669C86.9066 28.5066 82.9932 32.6139 79.7073 37.0205C77.7623 39.6298 75.9395 42.3485 73.6116 44.6409C71.3724 46.8486 68.7533 48.5949 66.239 50.4624C63.6534 52.381 61.2352 54.4252 59.2916 57.014C57.4281 59.4976 56.0828 62.3755 55.2181 65.3556C53.3705 71.7174 53.6574 78.5755 55.2428 84.9592C58.0599 96.3028 65.0845 106.516 74.2216 113.693C84.4403 121.719 96.9681 125.679 108.232 131.893C111.144 133.499 113.837 135.444 116.719 137.091C119.62 138.75 122.817 139.607 126.163 139.538C132.946 139.401 138.81 135.874 144.262 132.172C154.081 125.504 164.119 118.428 171.516 108.999C178.794 99.7224 184.385 86.577 178.985 75.0494C177.58 72.0503 175.396 69.5345 173.458 66.8829L173.46 66.8844ZM174.147 100.187C168.743 110.205 159.809 117.761 150.747 124.352C148.36 126.086 145.939 127.774 143.507 129.44C140.898 131.226 138.261 133.004 135.419 134.402C132.687 135.745 129.709 136.688 126.653 136.831C123.455 136.98 120.502 136.204 117.749 134.578C114.996 132.955 112.39 131.115 109.588 129.569C106.846 128.056 104.033 126.681 101.2 125.349C95.5108 122.674 89.7237 120.177 84.2351 117.095C79.0493 114.183 74.2754 110.698 70.1728 106.367C66.29 102.27 63.0696 97.5542 60.7009 92.4233C55.8907 82.0083 54.2834 68.1809 61.5409 58.4697C65.1879 53.59 70.9197 50.9545 75.2523 46.799C79.735 42.5004 82.4283 36.6497 87.2385 32.6577C89.2273 31.0078 91.6557 29.7039 94.2398 29.3593C94.3534 29.3447 94.464 29.3184 94.5703 29.2863C97.4879 29.0804 100.394 28.7256 103.269 28.1897C106.431 27.5999 109.525 26.7428 112.613 25.8492C118.291 24.2065 123.929 22.2368 129.903 22.2456C135.204 22.2529 140.534 23.5028 145.219 26.0112C149.955 28.5475 153.69 32.3 156.471 36.8848C162.295 46.4894 164.04 58.0609 170.49 67.337C172.326 69.9784 174.493 72.3978 176.058 75.2231C177.481 77.7915 178.245 80.6898 178.402 83.6173C178.713 89.4315 176.878 95.1216 174.145 100.187H174.147Z" fill="#B6B6B6"/>
<path d="M168.906 68.1901C167.312 66.0422 165.967 63.7396 164.809 61.3275C162.523 56.5661 160.906 51.5184 158.84 46.6621C156.79 41.8408 154.209 37.1085 150.386 33.4597C146.711 29.9539 142.07 27.5345 137.172 26.2715C132.182 24.9851 126.904 24.8596 121.859 25.9109C115.909 27.1505 110.135 29.1436 104.118 30.0956C101.109 30.5716 98.0646 30.7891 95.0218 30.8563C94.604 30.865 94.291 31.0344 94.0813 31.2841C89.3352 32.5602 85.7829 36.1258 82.7983 40.0244C81.0018 42.3708 79.3261 44.8252 77.2019 46.8957C75.1725 48.8741 72.7936 50.4233 70.5078 52.0791C68.1566 53.7831 65.9393 55.6024 64.1704 57.9269C62.4816 60.1448 61.2601 62.7015 60.474 65.3735C58.7837 71.1147 59.0865 77.3275 60.57 83.0774C63.2299 93.3917 69.7479 102.593 78.09 109.095C87.4324 116.375 98.8348 120.037 109.121 125.675C111.738 127.11 114.183 128.788 116.72 130.355C119.331 131.967 122.143 132.955 125.22 133.089C131.408 133.36 136.979 130.382 142.004 127.088C151.051 121.157 160.332 114.853 167.168 106.327C173.857 97.9838 178.877 86.1641 174.023 75.7111C172.736 72.9398 170.714 70.6226 168.909 68.1901H168.906ZM169.471 98.2773C164.522 107.323 156.298 114.047 148.007 119.881C145.835 121.41 143.632 122.892 141.418 124.356C139.008 125.951 136.561 127.519 133.914 128.694C131.337 129.838 128.539 130.534 125.713 130.495C122.814 130.455 120.256 129.496 117.821 127.97C115.4 126.453 113.048 124.862 110.541 123.482C108.011 122.09 105.417 120.822 102.805 119.594C97.6308 117.16 92.3751 114.879 87.38 112.084C82.6498 109.438 78.2793 106.287 74.5071 102.374C70.9693 98.7036 68.0096 94.4897 65.8083 89.8845C61.3781 80.6215 59.6776 68.1273 66.2771 59.4308C69.6343 55.0066 74.9119 52.6865 78.8718 48.9063C82.8667 45.0939 85.3359 39.9324 89.6555 36.4281C91.4826 34.9461 93.7057 33.797 96.0599 33.5064C96.1894 33.4903 96.3147 33.4611 96.434 33.4217C99.0692 33.3166 101.694 33.0815 104.304 32.6902C107.173 32.2609 109.99 31.5878 112.801 30.8855C118.057 29.5714 123.275 27.8032 128.744 27.8105C133.54 27.8163 138.372 28.9026 142.639 31.1235C147.005 33.3969 150.469 36.7844 153.053 40.9661C158.406 49.6319 160.064 60.1083 165.933 68.5011C167.607 70.8942 169.581 73.08 171.043 75.6192C172.377 77.9349 173.131 80.5544 173.304 83.2205C173.648 88.5091 171.984 93.6837 169.471 98.2773Z" fill="#B6B6B6"/>
<path d="M163.81 68.7608C162.423 66.8524 161.271 64.7849 160.259 62.6546C158.225 58.3706 156.746 53.8486 154.816 49.5194C152.914 45.2529 150.493 41.0842 146.993 37.9333C143.552 34.8349 139.277 32.7353 134.784 31.6855C130.201 30.6137 125.387 30.5743 120.79 31.5891C115.586 32.7382 110.39 34.1355 105.077 34.7035C102.365 34.9926 99.6366 35.0759 96.9112 35.032C96.4599 35.0247 96.1338 35.216 95.9344 35.4964C91.7138 36.6221 88.4817 39.7205 85.784 43.1693C84.1359 45.2762 82.5811 47.4796 80.6215 49.3164C78.7463 51.0744 76.5552 52.4338 74.4689 53.9187C72.3288 55.4416 70.3488 57.093 68.7692 59.2116C67.2493 61.25 66.1792 63.6343 65.5328 66.0902C64.1614 71.2985 64.6112 76.8791 66.121 82.0041C68.8609 91.3124 75.0542 99.3664 82.7631 105.116C91.3454 111.516 101.717 114.79 110.979 119.995C113.364 121.335 115.574 122.931 117.917 124.337C120.319 125.78 122.955 126.596 125.762 126.666C131.206 126.801 136.108 124.27 140.589 121.435C148.756 116.267 157.165 110.728 163.261 103.087C169.307 95.5087 173.596 84.6338 168.569 75.3897C167.265 72.9908 165.409 70.9583 163.812 68.7608H163.81ZM165.215 95.5847C160.933 103.744 153.533 109.716 146.07 114.826C144.116 116.164 142.132 117.457 140.136 118.732C137.961 120.122 135.76 121.505 133.387 122.534C131.136 123.511 128.708 124.131 126.247 124.146C123.605 124.162 121.211 123.398 118.966 122.025C116.745 120.664 114.629 119.158 112.357 117.876C110.091 116.599 107.763 115.435 105.416 114.317C100.766 112.099 96.029 110.054 91.4896 107.607C87.1627 105.274 83.0979 102.547 79.563 99.1065C76.2626 95.8942 73.4513 92.2016 71.3068 88.1176C66.9916 79.8986 64.9854 68.6951 70.8016 60.6747C73.7206 56.6506 78.5177 54.621 82.1356 51.3474C85.8335 47.9994 88.0872 43.3138 92.0413 40.2199C93.7258 38.9028 95.732 37.8968 97.8736 37.6573C98.0104 37.6413 98.1444 37.6106 98.2696 37.5654C103.138 37.5376 107.896 36.9463 112.684 35.9797C115.265 35.4584 117.838 34.886 120.4 34.2757C122.559 33.7617 124.716 33.4288 126.937 33.385C131.299 33.2974 135.732 34.1531 139.675 36.0585C143.645 37.9771 146.893 40.8798 149.314 44.5681C154.327 52.2016 155.889 61.5522 161 69.1346C162.45 71.2868 164.208 73.2127 165.624 75.3897C166.952 77.4295 167.834 79.7073 168.133 82.1326C168.709 86.8064 167.371 91.4788 165.214 95.5905L165.215 95.5847Z" fill="#B6B6B6"/>
<path d="M159.103 69.8675C157.863 68.1708 156.832 66.3311 155.921 64.4373C154.085 60.6206 152.728 56.595 150.945 52.7549C149.189 48.9732 146.941 45.2893 143.744 42.5574C140.591 39.8606 136.74 38.0603 132.7 37.1784C128.569 36.2775 124.263 36.2775 120.131 37.1725C115.531 38.1698 110.828 39.0444 106.118 39.2897C103.678 39.4167 101.234 39.3583 98.7968 39.205C98.312 39.1743 97.9786 39.389 97.7937 39.7014C94.0608 40.6812 91.1549 43.3547 88.7105 46.3756C87.2197 48.2169 85.8089 50.1442 84.0357 51.7299C82.3512 53.2338 80.3916 54.3844 78.5412 55.6649C76.6704 56.9601 74.9452 58.3822 73.5723 60.2132C72.2154 62.0223 71.2691 64.1468 70.7231 66.3384C69.5788 70.9363 70.0753 75.8379 71.5093 80.3132C74.1546 88.5673 79.8558 95.6109 86.8076 100.65C94.5514 106.264 103.799 109.229 112.082 113.892C114.165 115.064 116.111 116.42 118.122 117.708C120.255 119.075 122.532 119.954 125.062 120.182C129.954 120.624 134.525 118.555 138.628 116.111C145.974 111.734 153.571 106.938 159.041 100.234C164.503 93.536 168.152 83.8365 163.424 75.7226C162.199 73.6186 160.533 71.8241 159.102 69.866L159.103 69.8675ZM160.639 93.4864C156.879 100.664 150.239 105.792 143.598 110.138C141.832 111.294 140.039 112.408 138.235 113.503C136.286 114.687 134.298 115.86 132.157 116.663C130.078 117.443 127.903 117.891 125.677 117.786C123.305 117.675 121.219 116.81 119.243 115.533C117.308 114.283 115.426 112.98 113.418 111.846C111.402 110.707 109.331 109.666 107.245 108.666C103.112 106.684 98.903 104.861 94.8513 102.711C90.9714 100.653 87.2939 98.2741 84.075 95.2663C81.0788 92.4658 78.4873 89.2462 76.4855 85.6602C72.5459 78.6034 70.3912 68.7885 75.4708 61.7259C78.0127 58.1909 82.2624 56.468 85.493 53.6894C88.8167 50.8319 90.855 46.7319 94.3593 44.0628C95.9127 42.8787 97.734 41.9953 99.6936 41.804C99.8261 41.7909 99.9542 41.7617 100.075 41.7179C102.088 41.8142 104.106 41.8376 106.12 41.7325C108.368 41.6157 110.594 41.3105 112.82 40.9863C115.104 40.6534 117.381 40.265 119.639 39.7803C121.607 39.3583 123.539 39.0108 125.557 38.9509C133.374 38.7202 141.147 41.8318 145.699 48.3804C150.342 55.059 151.814 63.3612 156.317 70.1186C157.605 72.0518 159.181 73.7689 160.503 75.6759C161.776 77.5141 162.643 79.5014 163.01 81.7149C163.679 85.7624 162.512 89.9193 160.641 93.4878L160.639 93.4864Z" fill="#B6B6B6"/>
<path d="M154.404 70.9892C153.308 69.4984 152.392 67.8835 151.579 66.2219C149.939 62.8738 148.703 59.3433 147.064 55.9952C145.436 52.672 143.343 49.4656 140.422 47.1425C137.575 44.8779 134.179 43.3885 130.621 42.6789C126.966 41.9503 123.225 41.9912 119.576 42.7315C115.514 43.5564 111.261 43.9536 107.115 43.8762C104.964 43.8368 102.821 43.6368 100.687 43.3798C100.304 43.333 99.9533 43.5637 99.7364 43.8821C96.5335 44.6778 93.9668 46.8549 91.8004 49.3925C90.4581 50.9665 89.2002 52.6296 87.6264 53.9861C86.1152 55.29 84.3464 56.2566 82.6896 57.3575C80.9949 58.4847 79.4546 59.7477 78.2433 61.3976C77.067 62.9994 76.2735 64.9063 75.8644 66.8483C75.0098 70.9001 75.6199 75.152 77.0495 78.9994C79.7298 86.2124 85.0394 92.2441 91.3491 96.5194C98.2703 101.209 106.311 103.849 113.54 107.987C115.381 109.041 117.104 110.259 118.878 111.418C120.721 112.623 122.69 113.435 124.879 113.709C129.142 114.244 133.198 112.668 136.87 110.646C143.391 107.051 150.201 102.994 154.998 97.1691C157.286 94.392 159.17 91.152 159.996 87.6185C160.914 83.6995 160.441 79.4944 158.27 76.0587C157.131 74.2555 155.662 72.7004 154.402 70.9877L154.404 70.9892ZM156.125 91.2761C152.925 97.4743 147.079 101.76 141.286 105.337C138.093 107.31 134.778 109.478 131.201 110.666C129.314 111.293 127.351 111.595 125.366 111.408C123.37 111.221 121.618 110.407 119.961 109.316C118.294 108.219 116.671 107.076 114.942 106.077C113.164 105.051 111.337 104.113 109.491 103.215C105.949 101.494 102.334 99.9214 98.825 98.1284C95.3557 96.3558 91.9941 94.3584 89.0343 91.8046C86.2725 89.4217 83.8281 86.665 81.9005 83.5608C78.223 77.6371 75.7494 69.1144 80.0734 62.868C82.2688 59.6966 86.1225 58.273 89.0183 55.8828C91.9067 53.4984 93.7222 50.016 96.781 47.8215C98.1859 46.814 99.7728 46.0868 101.511 45.9496C101.645 45.9394 101.766 45.9102 101.877 45.8678C105.567 46.2416 109.208 46.284 112.925 45.9934C114.91 45.8386 116.891 45.6137 118.852 45.2648C120.688 44.9377 122.47 44.5741 124.342 44.5114C131.094 44.2836 137.997 46.7337 142.126 52.2894C146.381 58.016 147.761 65.2786 151.688 71.1936C153.87 74.4818 156.957 77.1144 157.834 81.1209C158.594 84.5843 157.722 88.1762 156.124 91.2731L156.125 91.2761Z" fill="#B6B6B6"/>
<path d="M149.513 71.8547C148.588 70.5697 147.811 69.1841 147.11 67.7663C145.697 64.9059 144.585 61.9025 143.086 59.083C141.568 56.2255 139.623 53.6119 137.007 51.6816C134.501 49.8331 131.473 48.6884 128.421 48.1628C125.135 47.5977 121.956 47.789 118.689 48.3409C115.333 48.9074 111.733 48.8373 108.355 48.484C106.515 48.2912 104.695 47.9496 102.88 47.5977C102.367 47.4984 101.961 47.7189 101.716 48.0532C98.921 48.6869 96.644 50.4946 94.6932 52.6482C93.463 54.0061 92.3026 55.4794 90.8133 56.5672C89.436 57.5732 87.9103 58.3456 86.4835 59.2743C83.5019 61.2162 81.5161 64.0226 81.0065 67.5896C80.5028 71.1071 81.3064 74.6143 82.7142 77.8324C85.3785 83.9182 90.3692 88.9045 95.9438 92.3737C102.073 96.189 108.975 98.5252 115.186 102.193C118.339 104.056 121.113 106.708 124.862 107.252C128.528 107.785 132.001 106.695 135.26 105.08C140.897 102.288 146.866 99.0143 150.96 94.1098C152.893 91.794 154.479 89.033 155.052 86.0397C155.716 82.5807 155.013 79.0589 152.957 76.1868C151.883 74.6844 150.593 73.3527 149.514 71.8547H149.513ZM151.782 88.7117C149.274 93.9871 144.271 97.4768 139.359 100.304C136.571 101.908 133.66 103.64 130.563 104.561C128.964 105.037 127.311 105.249 125.647 105.08C123.897 104.902 122.34 104.201 120.886 103.238C119.433 102.278 118.035 101.251 116.537 100.358C115.055 99.4743 113.529 98.6639 111.986 97.8944C108.895 96.354 105.729 94.9713 102.631 93.444C96.8013 90.569 91.3461 86.9654 87.4968 81.6082C84.1031 76.8862 81.1536 69.682 84.5632 64.2007C86.2942 61.4177 89.5219 60.3328 92.0478 58.4624C94.7194 56.4854 96.4271 53.4674 99.1773 51.5999C100.426 50.7515 101.814 50.185 103.331 50.1003C103.443 50.0945 103.546 50.0726 103.641 50.0434C106.591 50.5676 109.529 50.9195 112.541 50.9676C114.17 50.9939 115.8 50.9691 117.422 50.791C119.057 50.6114 120.662 50.2361 122.304 50.1179C128.094 49.7032 134.262 51.3429 138.193 55.8313C142.213 60.4219 143.53 66.6435 146.716 71.7466C148.488 74.5851 151.36 76.8556 152.474 80.0722C153.467 82.9384 153.068 86.0061 151.782 88.7117Z" fill="#B6B6B6"/>
<path d="M144.561 72.6475C143.831 71.5948 143.207 70.4719 142.632 69.3287C141.42 66.9239 140.413 64.4139 139.021 62.1025C137.607 59.7547 135.799 57.655 133.464 56.1949C131.184 54.7698 128.564 53.9697 125.914 53.6193C124.538 53.4382 123.152 53.3754 121.766 53.4426C120.364 53.5112 118.993 53.8032 117.596 53.9011C114.841 54.0953 111.967 53.6777 109.289 53.0337C107.764 52.6673 106.263 52.2088 104.757 51.7693C104.21 51.6101 103.79 51.8613 103.574 52.2424C101.299 52.7213 99.3806 54.0806 97.7063 55.7612C96.6421 56.8286 95.6448 57.9835 94.3768 58.8173C93.1407 59.6306 91.7751 60.219 90.5187 61.0002C87.9549 62.5946 86.451 65.0797 86.2268 68.1007C86.0201 70.8852 86.9227 73.6813 88.1951 76.1241C90.8157 81.1542 95.3012 85.1447 100.154 87.9496C105.449 91.01 111.262 93.0542 116.503 96.2139C119.147 97.8068 121.475 100.076 124.572 100.743C127.556 101.387 130.551 100.778 133.33 99.6232C138.177 97.6097 143.472 95.1217 146.934 91.0319C148.586 89.0797 149.802 86.7479 150.111 84.1825C150.473 81.1644 149.303 78.4457 147.438 76.1416C146.488 74.9691 145.423 73.8886 144.562 72.6475H144.561ZM147.309 86.358C145.497 90.7808 141.042 93.4805 136.977 95.5364C134.555 96.7614 132.023 98.0522 129.348 98.6026C126.517 99.1852 123.861 98.5822 121.495 96.9498C119.106 95.2998 116.738 93.7375 114.146 92.4132C111.578 91.0991 108.938 89.931 106.337 88.6899C101.311 86.2923 96.5518 83.4933 92.902 79.1933C91.4053 77.4294 90.095 75.4174 89.2739 73.2433C88.3495 70.7961 87.8734 67.851 89.1487 65.4345C90.4663 62.9392 93.2616 62.1639 95.4759 60.7067C97.7922 59.1838 99.3165 56.7293 101.688 55.294C102.751 54.6516 103.904 54.2763 105.149 54.2471C105.224 54.2456 105.294 54.2369 105.361 54.2223C107.665 54.8808 109.96 55.4736 112.348 55.7978C113.68 55.9773 115.015 56.135 116.362 56.1336C117.748 56.1307 119.087 55.8766 120.46 55.732C125.243 55.2254 130.662 56.135 134.272 59.5546C137.99 63.0765 139.309 68.2073 141.872 72.4971C142.565 73.6579 143.368 74.7311 144.246 75.7561C145.195 76.8658 146.228 77.9375 146.954 79.2137C148.221 81.4374 148.272 84.0131 147.311 86.3595L147.309 86.358Z" fill="#B6B6B6"/>
<path d="M139.836 73.7953C139.223 72.9222 138.695 71.9936 138.194 71.0518C137.163 69.1127 136.245 67.1022 134.965 65.3077C133.66 63.4781 132.05 61.9144 130.037 60.8894C128.052 59.8789 125.885 59.3489 123.677 59.1372C122.533 59.0262 121.38 59.0146 120.234 59.0905C119.035 59.1693 117.86 59.3796 116.653 59.3051C114.492 59.1708 112.272 58.4101 110.295 57.5632C109.151 57.0726 108.027 56.5397 106.883 56.0505C106.361 55.8286 105.773 55.8972 105.454 56.417C103.64 56.7485 102.058 57.7209 100.627 58.9649C99.6963 59.7738 98.8243 60.6017 97.7236 61.177C96.6492 61.7377 95.483 62.1217 94.4464 62.7569C90.0468 65.4522 91.4677 71.0459 93.8874 74.6057C96.5182 78.475 100.373 81.3938 104.473 83.5489C108.817 85.8326 113.447 87.5541 117.643 90.1224C119.824 91.457 121.728 93.3376 124.188 94.1509C126.487 94.9101 128.975 94.7554 131.282 94.1144C133.48 93.504 135.665 92.6469 137.721 91.6599C139.532 90.7911 141.32 89.7033 142.691 88.2126C143.996 86.7948 144.92 85.0047 145.056 83.0598C145.233 80.5236 143.879 78.4108 142.257 76.6046C141.432 75.6847 140.548 74.8116 139.836 73.7968V73.7953ZM142.738 84.1257C141.659 87.6183 137.823 89.458 134.696 90.6992C132.681 91.4993 130.539 92.3622 128.36 92.5301C126.074 92.7068 124.062 92.0673 122.209 90.7342C120.313 89.3719 118.433 88.0753 116.369 86.9758C114.318 85.8822 112.199 84.9215 110.091 83.9446C105.992 82.045 101.931 80.0447 98.6161 76.9025C97.2344 75.5942 95.9882 74.1385 95.0346 72.4842C94.0606 70.7948 93.2497 68.6878 93.8161 66.7298C94.4464 64.5513 96.7686 63.9994 98.568 63.1014C100.611 62.0823 101.991 60.187 103.984 59.1095C104.916 58.6057 105.909 58.3736 106.965 58.3955C106.989 58.3955 107.011 58.3955 107.032 58.394C110.634 59.9885 114.398 61.7625 118.41 61.38C122.487 60.9901 126.709 61.0777 130.242 63.4475C133.678 65.753 135.062 69.8997 137.054 73.3281C138.201 75.3022 139.728 76.8689 141.209 78.5845C142.556 80.1439 143.371 82.0728 142.736 84.1257H142.738Z" fill="#B6B6B6"/>
<path d="M136.357 76.4176C133.91 73.9792 132.809 70.5493 130.35 68.1095C127.574 65.3528 123.313 63.8445 119.436 64.4811C118.427 64.6461 117.525 65.0929 116.489 64.8461C115.604 64.6359 114.835 64.1555 114.05 63.7131C112.195 62.6676 110.549 61.3477 108.749 60.219C108.211 59.8802 107.694 60.127 107.433 60.5461C106.017 60.714 104.728 61.3316 103.505 62.1537C102.802 62.6267 102.118 63.0735 101.307 63.3393C100.388 63.6415 99.3896 63.8226 98.554 64.3365C95.1356 66.4406 97.6353 70.7026 99.6284 72.8461C104.961 78.5829 112.9 80.173 119.275 84.3314C121.052 85.4893 122.567 87.0166 124.578 87.7758C126.393 88.4621 128.359 88.5146 130.261 88.2489C131.987 88.0065 133.74 87.6546 135.382 87.0647C136.702 86.5902 138.052 85.9405 138.959 84.8308C139.861 83.724 140.252 82.2712 139.835 80.8782C139.278 79.0151 137.679 77.736 136.356 76.4176H136.357ZM133.061 85.6499C131.416 86.0616 129.701 86.4252 127.998 86.3873C126.194 86.3464 124.576 85.7492 123.131 84.676C121.656 83.5794 120.226 82.4873 118.625 81.5747C117.064 80.6855 115.442 79.9102 113.81 79.1626C110.546 77.6674 107.219 76.2876 104.273 74.2026C102.862 73.2038 101.531 72.0503 100.432 70.7085C99.6328 69.7331 98.404 68.0073 99.0096 66.6932C99.3765 65.8989 100.42 65.7134 101.167 65.4929C102.077 65.2243 102.951 64.9118 103.76 64.4066C104.519 63.9321 105.226 63.3714 106.042 62.9918C106.858 62.6107 107.706 62.4807 108.594 62.5333C109.758 63.3363 110.872 64.2153 112.092 64.9323C113.356 65.674 114.713 66.5515 116.164 66.8406C117.846 67.175 119.332 66.3865 120.996 66.353C122.572 66.3208 124.16 66.6815 125.6 67.3152C127.042 67.9503 128.332 68.8541 129.391 70.0266C130.439 71.1889 131.206 72.5643 132.004 73.9018C132.802 75.2392 133.651 76.5504 134.748 77.6645C135.852 78.783 137.579 79.9671 137.943 81.5908C138.518 84.162 134.856 85.2031 133.063 85.6514L133.061 85.6499Z" fill="#B6B6B6"/>
<path d="M132.721 78.367C132.125 77.9436 131.511 77.5012 130.984 76.9916C130.094 76.1316 129.405 75.0964 128.618 74.1473C127.771 73.1267 126.789 72.2345 125.639 71.5687C124.313 70.8007 122.832 70.294 121.315 70.0925C120.525 69.9874 119.744 69.9713 118.954 70.0735C118.304 70.1568 117.625 70.4561 116.968 70.3291C115.84 70.1101 114.89 69.0427 114.107 68.2674C113.14 67.311 112.357 66.1955 111.444 65.1924C111.388 65.0916 111.309 65.004 111.204 64.9325C111.076 64.7981 110.946 64.6653 110.811 64.5382C110.334 64.0841 109.725 64.255 109.393 64.6434C108.527 64.6448 107.681 64.8025 106.806 65.0653C106.095 65.2785 105.464 65.3632 104.723 65.3588C104.053 65.3544 103.332 65.3486 102.767 65.7618C101.59 66.6233 102.285 68.0396 103.076 68.885C103.8 69.6603 104.704 70.2882 105.589 70.862C110.419 73.9881 116.23 75.1927 120.916 78.5744C122.174 79.4826 123.249 80.6156 124.654 81.3092C125.881 81.9166 127.198 82.2685 128.547 82.4758C129.854 82.6758 131.206 82.8905 132.534 82.8569C133.38 82.835 134.401 82.6904 134.861 81.8757C135.337 81.0317 134.866 80.0213 134.243 79.4037C133.793 78.9569 133.226 78.7277 132.721 78.367ZM133.253 80.8259C133.246 80.8244 133.237 80.8244 133.229 80.8244C133.214 80.8215 133.214 80.8186 133.253 80.8259ZM131.387 80.8799C128.995 80.6988 126.437 80.3572 124.437 78.9277C123.359 78.1582 122.406 77.234 121.302 76.4922C120.239 75.7782 119.115 75.1577 117.968 74.5912C115.642 73.445 113.202 72.5704 110.845 71.4942C108.691 70.5101 106.334 69.3815 104.622 67.7009C104.539 67.6191 104.437 67.457 104.335 67.3212C104.951 67.3986 105.716 67.3008 106.301 67.1971C107.658 66.9577 108.767 66.4043 110.154 66.6233C111.507 68.0732 112.644 69.7027 114.205 70.9686C115.046 71.6505 115.987 72.2097 117.09 72.29C117.674 72.3324 118.213 72.1717 118.778 72.052C119.347 71.9308 119.935 71.9148 120.514 71.9469C122.837 72.0798 125.112 73.1734 126.693 74.8715C127.452 75.6862 128.082 76.6047 128.794 77.4574C129.58 78.3977 130.509 79.0474 131.452 79.8125C131.896 80.1717 132.477 80.3601 132.881 80.7704C132.92 80.8098 132.951 80.8478 132.978 80.8872C132.962 80.8916 132.946 80.8945 132.933 80.8974C132.429 80.9675 131.894 80.9179 131.39 80.8784L131.387 80.8799ZM133.118 81.0945C133.125 81.1077 133.118 81.1106 133.118 81.0945ZM133.281 80.8259C133.294 80.8069 133.304 80.7952 133.304 80.7967C133.307 80.8142 133.296 80.8229 133.281 80.8259Z" fill="#B6B6B6"/>
</g>
<defs>
<clipPath id="clip0_171_2010">
<rect width="232.94" height="241" fill="white" transform="translate(0 -37)"/>
</clipPath>
</defs>
</svg>
