<svg width="21" height="20" viewBox="0 0 21 20" fill="none" xmlns="http://www.w3.org/2000/svg">
<g clip-path="url(#clip0_122_477)">
<path d="M15.7897 2.1882H17.094C17.2136 2.1882 17.3114 2.09037 17.3114 1.97081C17.3114 1.85124 17.2136 1.75342 17.094 1.75342H15.7897C15.6701 1.75342 15.5723 1.85124 15.5723 1.97081C15.5723 2.09037 15.6701 2.1882 15.7897 2.1882Z" fill="#333333"/>
<path d="M17.7623 4.37829C17.8819 4.37829 17.9797 4.28046 17.9797 4.1609V2.85655C17.9797 2.73699 17.8819 2.63916 17.7623 2.63916C17.6427 2.63916 17.5449 2.73699 17.5449 2.85655V4.1609C17.5449 4.28046 17.6427 4.37829 17.7623 4.37829Z" fill="#333333"/>
<path d="M4.05006 1.75342H2.74571C2.62615 1.75342 2.52832 1.85124 2.52832 1.97081C2.52832 2.09037 2.62615 2.1882 2.74571 2.1882H4.05006C4.16962 2.1882 4.26745 2.09037 4.26745 1.97081C4.26745 1.85124 4.16962 1.75342 4.05006 1.75342Z" fill="#333333"/>
<path d="M6.65943 1.75342H5.35509C5.23552 1.75342 5.1377 1.85124 5.1377 1.97081C5.1377 2.09037 5.23552 2.1882 5.35509 2.1882H6.65943C6.779 2.1882 6.87683 2.09037 6.87683 1.97081C6.87683 1.85124 6.779 1.75342 6.65943 1.75342Z" fill="#333333"/>
<path d="M11.8762 1.75342H10.5719C10.4523 1.75342 10.3545 1.85124 10.3545 1.97081C10.3545 2.09037 10.4523 2.1882 10.5719 2.1882H11.8762C11.9958 2.1882 12.0936 2.09037 12.0936 1.97081C12.0936 1.85124 11.9958 1.75342 11.8762 1.75342Z" fill="#333333"/>
<path d="M9.26783 1.75342H7.96349C7.84392 1.75342 7.74609 1.85124 7.74609 1.97081C7.74609 2.09037 7.84392 2.1882 7.96349 2.1882H9.26783C9.3874 2.1882 9.48522 2.09037 9.48522 1.97081C9.48522 1.85124 9.3874 1.75342 9.26783 1.75342Z" fill="#333333"/>
<path d="M14.703 1.97081C14.703 1.85124 14.6052 1.75342 14.4856 1.75342H13.1813C13.0617 1.75342 12.9639 1.85124 12.9639 1.97081C12.9639 2.09037 13.0617 2.1882 13.1813 2.1882H14.4856C14.6052 2.1882 14.703 2.09037 14.703 1.97081Z" fill="#333333"/>
<path d="M3.21419 14.5229H2.74571C2.62615 14.5229 2.52832 14.6208 2.52832 14.7403C2.52832 14.8599 2.62615 14.9577 2.74571 14.9577H3.21419C3.33376 14.9577 3.43158 14.8599 3.43158 14.7403C3.43158 14.6208 3.33376 14.5229 3.21419 14.5229Z" fill="#333333"/>
<path d="M17.7623 13.0411C17.6427 13.0411 17.5449 13.139 17.5449 13.2585V14.1553C17.5449 14.2422 17.5156 14.3237 17.4591 14.39C17.3406 14.5324 17.4427 14.7466 17.6254 14.7466C17.6873 14.7466 17.7493 14.7205 17.7927 14.6683C17.9134 14.5248 17.9797 14.3422 17.9797 14.1542V13.2574C17.9797 13.1379 17.8819 13.04 17.7623 13.04V13.0411Z" fill="#333333"/>
<path d="M19.733 5.86304V1.38587C19.733 0.621739 19.1113 0 18.3471 0H2.16126C1.39713 0 0.775391 0.621739 0.775391 1.38587V15.3239C0.775391 16.088 1.39713 16.7098 2.16126 16.7098H4.71126C4.78517 16.7098 4.85365 16.6717 4.89387 16.6098L6.008 14.8804C6.03409 14.8391 6.04604 14.7913 6.0417 14.7424L5.86561 12.825L9.10583 11.2848C9.21235 11.2337 9.25909 11.1065 9.21017 10.9989L8.1993 8.7587L10.7754 5.65L10.0439 8.45217C10.0189 8.54674 10.0613 8.64565 10.145 8.69565L11.9884 9.76304L11.795 11.4239C11.7884 11.4837 11.8058 11.5435 11.845 11.5891L14.6015 14.8413V16.4913C14.6015 16.6109 14.6993 16.7087 14.8189 16.7087H18.346C19.1102 16.7087 19.7319 16.087 19.7319 15.3228V10.8457C20.3232 10.7424 20.7743 10.2261 20.7743 9.60543V7.10109C20.7743 6.47065 20.3178 5.96304 19.7319 5.86087L19.733 5.86304ZM19.2982 15.3239C19.2982 15.8489 18.871 16.275 18.3471 16.275H15.0373V14.9522C15.0721 14.9598 16.3493 14.9565 16.3852 14.9565C16.5047 14.9565 16.6026 14.8587 16.6026 14.7391C16.6026 14.6196 16.5047 14.5217 16.3852 14.5217H15.0808C15.0287 14.5217 14.9808 14.5413 14.9439 14.5717L12.2395 11.3804L12.4384 9.67174C12.4482 9.58587 12.4069 9.50217 12.3319 9.4587L10.508 8.40217L11.445 4.81196C11.5037 4.58696 11.2145 4.44022 11.0667 4.61848L7.77865 8.58587C7.72539 8.65 7.71343 8.73804 7.74822 8.81413L8.72756 10.9837L5.54387 12.4978C5.46126 12.537 5.41235 12.6228 5.42104 12.7141L5.58735 14.5217H4.52104C4.40148 14.5217 4.30365 14.6196 4.30365 14.7391C4.30365 14.8587 4.40148 14.9565 4.52104 14.9565H5.44387L4.59496 16.275H2.16126C1.63626 16.275 1.21017 15.8478 1.21017 15.3239V1.38587C1.21017 0.86087 1.63735 0.434783 2.16126 0.434783H18.3471C18.8721 0.434783 19.2982 0.861956 19.2982 1.38587V5.84348H17.9797V5.46522C17.9797 5.34565 17.8819 5.24783 17.7623 5.24783C17.6428 5.24783 17.545 5.34565 17.545 5.46522V5.84348C16.4971 5.84348 16.2645 5.8163 15.8189 5.95109C15.4286 6.06956 15.071 6.28261 14.7743 6.57935C14.3004 7.05326 14.0384 7.68478 14.0384 8.35543C14.0384 9.7413 15.1645 10.8685 16.5493 10.8685H17.5439V11.9554C17.5439 12.075 17.6417 12.1728 17.7613 12.1728C17.8808 12.1728 17.9787 12.075 17.9787 11.9554V10.8685H19.2971V15.3261L19.2982 15.3239ZM20.3406 9.60652C20.3406 10.062 19.97 10.4315 19.5156 10.4315H16.5504C15.4058 10.4315 14.4743 9.49891 14.4743 8.35326C14.4743 7.20761 15.4037 6.27717 16.5504 6.27717H19.5156C19.9667 6.27717 20.3406 6.64239 20.3406 7.10217V9.60652Z" fill="#333333"/>
<path d="M16.5515 7.01172C15.8102 7.01172 15.208 7.61389 15.208 8.3552C15.208 9.0965 15.8102 9.69868 16.5515 9.69868C17.2928 9.69868 17.895 9.0965 17.895 8.3552C17.895 7.61389 17.2928 7.01172 16.5515 7.01172ZM16.5515 9.26389C16.0504 9.26389 15.6428 8.85628 15.6428 8.3552C15.6428 7.85411 16.0504 7.4465 16.5515 7.4465C17.0526 7.4465 17.4602 7.85411 17.4602 8.3552C17.4602 8.85628 17.0526 9.26389 16.5515 9.26389Z" fill="#333333"/>
<path d="M10.0378 13.0063C8.10949 13.0063 6.54102 14.5748 6.54102 16.5031C6.54102 18.4313 8.10949 19.9998 10.0378 19.9998C11.966 19.9998 13.5345 18.4313 13.5345 16.5031C13.5345 14.5748 11.966 13.0063 10.0378 13.0063ZM10.0378 19.565C8.34971 19.565 6.9758 18.1911 6.9758 16.5031C6.9758 14.815 8.34971 13.4411 10.0378 13.4411C11.7258 13.4411 13.0997 14.815 13.0997 16.5031C13.0997 18.1911 11.7258 19.565 10.0378 19.565Z" fill="#333333"/>
<path d="M10.2543 16.1422V15.0118C10.5956 15.0802 10.8543 15.302 10.8543 15.5585C10.8543 15.6781 10.9521 15.7759 11.0717 15.7759C11.1913 15.7759 11.2891 15.6781 11.2891 15.5585C11.2891 15.065 10.8413 14.6541 10.2543 14.5715V14.2096C10.2543 14.09 10.1565 13.9922 10.0369 13.9922C9.91737 13.9922 9.81954 14.09 9.81954 14.2096V14.5715C9.23258 14.6541 8.78476 15.065 8.78476 15.5585C8.78476 16.052 9.23258 16.4628 9.81954 16.5454V17.9965C9.35867 17.9259 9.01193 17.6346 9.01193 17.2868C9.01193 17.1672 8.9141 17.0694 8.79454 17.0694C8.67497 17.0694 8.57715 17.1672 8.57715 17.2868C8.57715 17.8683 9.11737 18.3498 9.81954 18.4335V18.7933C9.81954 18.9128 9.91737 19.0107 10.0369 19.0107C10.1565 19.0107 10.2543 18.9128 10.2543 18.7933V18.4335C10.9565 18.3498 11.4967 17.8683 11.4967 17.2868C11.4967 16.7052 10.9565 16.2237 10.2543 16.14V16.1422ZM9.21954 15.5596C9.21954 15.3031 9.47824 15.0813 9.81954 15.0128V16.1063C9.47824 16.0378 9.21954 15.815 9.21954 15.5596ZM10.2543 17.9987V16.5802C10.7152 16.6509 11.0619 16.9422 11.0619 17.2889C11.0619 17.6357 10.7152 17.927 10.2543 17.9976V17.9987Z" fill="#333333"/>
</g>
<defs>
<clipPath id="clip0_122_477">
<rect width="20" height="20" fill="white" transform="translate(0.775391)"/>
</clipPath>
</defs>
</svg>
