<svg width="21" height="20" viewBox="0 0 21 20" fill="none" xmlns="http://www.w3.org/2000/svg">
<g clip-path="url(#clip0_119_423)">
<path d="M10.5006 20.0002C10.3077 20.0002 10.1533 19.8458 10.1533 19.6528V14.5202C10.1533 14.3272 10.3077 14.1729 10.5006 14.1729C10.6936 14.1729 10.848 14.3272 10.848 14.5202V19.6528C10.848 19.8458 10.6936 20.0002 10.5006 20.0002Z" fill="#2E2E2E"/>
<path d="M10.5009 4.66003C9.21775 4.66003 8.17578 3.61806 8.17578 2.3349C8.17578 1.05173 9.21775 0.00976562 10.5009 0.00976562C11.7841 0.00976562 12.826 1.05173 12.826 2.3349C12.826 3.61806 11.7841 4.66003 10.5009 4.66003ZM10.5009 0.694763C9.59402 0.694763 8.86078 1.428 8.86078 2.3349C8.86078 3.2418 9.59402 3.97503 10.5009 3.97503C11.4078 3.97503 12.141 3.2418 12.141 2.3349C12.141 1.428 11.4078 0.694763 10.5009 0.694763Z" fill="#2E2E2E"/>
<path d="M10.5003 20H7.99185C7.7989 20 7.64453 19.8457 7.64453 19.6527V10.6706C7.64453 10.4776 7.7989 10.3232 7.99185 10.3232C8.18481 10.3232 8.33918 10.4776 8.33918 10.6706V19.315H10.1626V13.0343C10.1626 12.8413 10.317 12.687 10.5099 12.687C10.7029 12.687 10.8573 12.8413 10.8573 13.0343V19.6527C10.8573 19.8457 10.7029 20 10.5099 20H10.5003Z" fill="#2E2E2E"/>
<path d="M10.5489 11.2591C10.5489 11.2591 10.4717 11.2591 10.4427 11.2591L7.59661 10.9889C6.59324 10.8925 5.83105 10.0531 5.83105 9.04972V7.8148C5.83105 6.32903 7.03704 5.12305 8.52281 5.12305H12.4881C13.9738 5.12305 15.1798 6.32903 15.1798 7.8148V9.04972C15.1798 10.0627 14.4176 10.8925 13.4143 10.9889L10.9348 11.2301C10.9348 11.2301 10.8865 11.2301 10.8576 11.2301C10.7611 11.2591 10.655 11.2687 10.5585 11.2687L10.5489 11.2591ZM8.52281 5.7984C7.4133 5.7984 6.51605 6.69565 6.51605 7.80515V9.04008C6.51605 9.69613 7.00809 10.2364 7.66415 10.3039L10.5103 10.5741C10.7611 10.5934 10.983 10.4197 11.012 10.1689C11.0409 9.91803 10.8672 9.69613 10.6164 9.65754L7.94393 9.25233C7.76063 9.22338 7.6352 9.05937 7.6545 8.86641L7.86675 7.17804C7.88605 6.98508 8.05971 6.85966 8.25267 6.87896C8.43598 6.89825 8.57105 7.07191 8.55175 7.26487L8.38774 8.61557L10.7322 8.97254C11.3496 9.06902 11.7741 9.62859 11.7066 10.2461C11.7066 10.3232 11.6777 10.3908 11.6584 10.468L13.3564 10.3039C14.0124 10.2364 14.5045 9.69613 14.5045 9.04008V7.80515C14.5045 6.69565 13.6072 5.7984 12.4977 5.7984H8.53245H8.52281Z" fill="#2E2E2E"/>
<path d="M10.5 9.62866C10.336 9.62866 10.1913 9.50324 10.1623 9.33923C10.1334 9.15592 10.2588 8.97261 10.4518 8.95331L12.6322 8.62529L12.4682 7.27459C12.4489 7.08163 12.5743 6.91762 12.7673 6.88867C12.9602 6.85973 13.1242 6.9948 13.1532 7.18776L13.3654 8.87613C13.3847 9.05944 13.2593 9.2331 13.076 9.26205L10.5676 9.63831C10.5676 9.63831 10.529 9.63831 10.5193 9.63831L10.5 9.62866Z" fill="#2E2E2E"/>
<path d="M13.0091 20H10.5006C10.3077 20 10.1533 19.8457 10.1533 19.6527V13.0343C10.1533 12.8413 10.3077 12.687 10.5006 12.687C10.6936 12.687 10.848 12.8413 10.848 13.0343V19.315H12.6714V10.6706C12.6714 10.4776 12.8258 10.3232 13.0187 10.3232C13.2117 10.3232 13.3661 10.4776 13.3661 10.6706V19.6527C13.3661 19.8457 13.2117 20 13.0187 20H13.0091Z" fill="#2E2E2E"/>
<path d="M14.8324 19.9998H6.16861C5.97565 19.9998 5.82129 19.8455 5.82129 19.6525C5.82129 19.4595 5.97565 19.3052 6.16861 19.3052H14.8324C15.0253 19.3052 15.1797 19.4595 15.1797 19.6525C15.1797 19.8455 15.0253 19.9998 14.8324 19.9998Z" fill="#2E2E2E"/>
<path d="M9.94109 3.60834C9.94109 3.60834 9.8832 3.60834 9.84461 3.59869C9.6613 3.55045 9.55518 3.3575 9.60342 3.17419C9.69025 2.85581 10.0472 2.64355 10.491 2.64355C10.9348 2.64355 11.2918 2.85581 11.3786 3.17419C11.4269 3.3575 11.3207 3.55045 11.1374 3.59869C10.9638 3.64693 10.7901 3.55045 10.7226 3.38644C10.6936 3.36714 10.6068 3.32855 10.491 3.32855C10.3752 3.32855 10.2884 3.36714 10.2595 3.38644C10.2112 3.52151 10.0762 3.60834 9.94109 3.60834Z" fill="#2E2E2E"/>
<path opacity="0.5" d="M19.0096 7.80495C18.9034 7.80495 18.7973 7.75671 18.7298 7.66023C17.5527 5.95256 17.9869 3.61778 19.6946 2.44074C19.8489 2.33461 20.0612 2.37321 20.1673 2.52757C20.2734 2.68194 20.2348 2.89419 20.0805 3.00032C18.6912 3.95545 18.3342 5.87538 19.299 7.26467C19.4051 7.41903 19.3665 7.63129 19.2122 7.73741C19.1543 7.776 19.0867 7.7953 19.0192 7.7953L19.0096 7.80495Z" fill="#2E2E2E"/>
<path opacity="0.5" d="M17.9584 8.52888C17.8523 8.52888 17.7461 8.48064 17.6786 8.38416C16.106 6.09762 16.6849 2.96207 18.9618 1.38947C19.1161 1.28334 19.3284 1.32194 19.4345 1.4763C19.5406 1.63067 19.502 1.84292 19.3477 1.94905C17.3795 3.30939 16.8778 6.02044 18.2382 7.9886C18.3443 8.14297 18.3057 8.35522 18.1513 8.46135C18.0935 8.49994 18.0259 8.51923 17.9584 8.51923V8.52888Z" fill="#2E2E2E"/>
<path opacity="0.5" d="M16.9067 9.25233C16.8006 9.25233 16.6944 9.20409 16.6269 9.10761C14.6491 6.2422 15.3727 2.30588 18.2381 0.337713C18.3924 0.231587 18.6047 0.270178 18.7108 0.424544C18.817 0.578909 18.7784 0.791162 18.624 0.897289C16.0673 2.6532 15.4306 6.16502 17.1865 8.71205C17.2926 8.86642 17.254 9.07867 17.0996 9.1848C17.0417 9.22339 16.9742 9.24268 16.9067 9.24268V9.25233Z" fill="#2E2E2E"/>
<path opacity="0.5" d="M1.99118 7.80507C1.92364 7.80507 1.85611 7.78577 1.79822 7.74718C1.64386 7.64105 1.60526 7.4288 1.71139 7.27443C2.66653 5.88514 2.31921 3.96522 0.929915 3.01008C0.775549 2.90396 0.736958 2.6917 0.843084 2.53734C0.949211 2.38297 1.16146 2.34438 1.31583 2.45051C3.0235 3.62754 3.448 5.97197 2.28061 7.66999C2.21308 7.76647 2.10695 7.81471 2.00083 7.81471L1.99118 7.80507Z" fill="#2E2E2E"/>
<path opacity="0.5" d="M3.04284 8.52851C2.9753 8.52851 2.90777 8.50922 2.84988 8.47062C2.69552 8.3645 2.65692 8.15225 2.76305 7.99788C3.4191 7.04274 3.66995 5.885 3.4577 4.74655C3.24544 3.60811 2.60869 2.61438 1.65355 1.95832C1.49918 1.8522 1.46059 1.63994 1.56672 1.48558C1.67284 1.33121 1.8851 1.29262 2.03946 1.39875C3.14897 2.16093 3.89185 3.30902 4.13305 4.63078C4.37424 5.95254 4.09445 7.29359 3.33227 8.39344C3.26474 8.48992 3.15861 8.53816 3.05249 8.53816L3.04284 8.52851Z" fill="#2E2E2E"/>
<path opacity="0.5" d="M4.0945 9.25245C4.02696 9.25245 3.95943 9.23315 3.90154 9.19456C3.74718 9.08843 3.70858 8.87618 3.81471 8.72182C5.57062 6.16513 4.92421 2.66296 2.37718 0.907054C2.22281 0.800928 2.18422 0.588675 2.29035 0.434309C2.39648 0.279944 2.60873 0.241352 2.76309 0.347479C5.62851 2.32529 6.3521 6.26161 4.37429 9.11738C4.30675 9.21386 4.20063 9.2621 4.0945 9.2621V9.25245Z" fill="#2E2E2E"/>
</g>
<defs>
<clipPath id="clip0_119_423">
<rect width="19.4501" height="20" fill="white" transform="translate(0.775391)"/>
</clipPath>
</defs>
</svg>
