<svg width="666" height="666" viewBox="0 0 666 666" fill="none" xmlns="http://www.w3.org/2000/svg">
<g opacity="0.1">
<path d="M332.993 664.11C405.267 664.11 463.857 515.867 463.857 333C463.857 150.133 405.267 1.89038 332.993 1.89038C260.719 1.89038 202.13 150.133 202.13 333C202.13 515.867 260.719 664.11 332.993 664.11Z" stroke="#5A5A5A" stroke-miterlimit="10"/>
<path d="M459.585 366.207C413.183 543.091 318.891 671.621 248.986 653.272C179.08 634.936 160.013 476.678 206.415 299.793C252.817 122.909 347.108 -5.608 417.014 12.7282C486.919 31.0644 505.987 189.323 459.585 366.207Z" stroke="#5A5A5A" stroke-miterlimit="10"/>
<path d="M425.975 425.084C297.279 555.013 151.33 619.095 99.9878 568.245C48.6456 517.382 111.33 370.832 240.026 240.903C368.722 110.975 514.67 46.8927 566.013 97.7425C617.368 148.605 554.671 295.156 425.975 425.084Z" stroke="#5A5A5A" stroke-miterlimit="10"/>
<path d="M398.501 446.294C240.189 537.823 82.5202 561.314 46.3512 498.744C10.1697 436.174 109.174 311.249 267.486 219.719C425.797 128.177 583.466 104.699 619.635 167.269C655.817 229.839 556.8 354.764 398.501 446.294Z" stroke="#5A5A5A" stroke-miterlimit="10"/>
<path d="M367.789 459.148C191.494 507.754 33.0062 490.679 13.8001 421.001C-5.40599 351.324 121.929 255.434 298.212 206.827C474.507 158.22 632.995 175.296 652.201 244.974C671.407 314.651 544.072 410.529 367.789 459.148Z" stroke="#5A5A5A" stroke-miterlimit="10"/>
<path d="M332.162 463.861C149.301 462.702 1.437 403.169 1.89069 330.895C2.35698 258.622 150.965 200.979 333.826 202.139C516.7 203.298 664.564 262.831 664.097 335.104C663.644 407.378 515.023 465.02 332.162 463.861Z" stroke="#5A5A5A" stroke-miterlimit="10"/>
<path d="M446.592 397.977C355.792 556.714 231.33 656.296 168.595 620.418C105.86 584.527 128.608 426.76 219.408 268.036C310.209 109.286 434.67 9.70372 497.405 45.5821C560.14 81.4731 537.393 239.24 446.605 397.964L446.592 397.977Z" stroke="#5A5A5A" stroke-miterlimit="10"/>
<path d="M206.415 366.207C252.817 543.091 347.108 671.621 417.014 653.272C486.919 634.936 505.987 476.678 459.585 299.793C413.183 122.909 318.891 -5.608 248.986 12.7282C179.08 31.0644 160.013 189.323 206.415 366.207Z" stroke="#5A5A5A" stroke-miterlimit="10"/>
<path d="M240.025 425.084C368.721 555.013 514.67 619.095 566.012 568.245C617.354 517.383 554.67 370.832 425.974 240.903C297.291 110.987 151.342 46.8927 99.9872 97.7551C48.6323 148.618 111.329 295.168 240.025 425.097V425.084Z" stroke="#5A5A5A" stroke-miterlimit="10"/>
<path d="M267.486 446.294C425.798 537.823 583.467 561.314 619.636 498.744C655.817 436.174 556.8 311.249 398.501 219.719C240.189 128.177 82.5331 104.686 46.3516 167.256C10.17 229.826 109.187 354.751 267.486 446.281V446.294Z" stroke="#5A5A5A" stroke-miterlimit="10"/>
<path d="M298.212 459.148C474.507 507.754 632.982 490.678 652.201 421.001C671.407 351.324 544.072 255.434 367.789 206.827C191.494 158.233 33.0062 175.309 13.8001 244.986C-5.40599 314.664 121.929 410.554 298.212 459.16V459.148Z" stroke="#5A5A5A" stroke-miterlimit="10"/>
<path d="M219.408 397.977C310.208 556.714 434.67 656.296 497.405 620.418C560.14 584.527 537.392 426.76 446.592 268.036C355.791 109.286 231.33 9.70372 168.595 45.5821C105.86 81.4731 128.608 239.24 219.395 397.964L219.408 397.977Z" stroke="#5A5A5A" stroke-miterlimit="10"/>
</g>
</svg>
