<svg width="125" height="100" viewBox="0 0 125 100" fill="none" xmlns="http://www.w3.org/2000/svg">
<g clip-path="url(#clip0_62_440)">
<path d="M56.1705 69.0476H2.37305V2.38098H106.803V21.4286" stroke="#FEE0AB" stroke-width="3" stroke-linecap="round" stroke-linejoin="round"/>
<path d="M66.3612 93.0793L62.5637 93.873C61.2979 92.6032 60.9182 92.2222 59.6523 90.9524L60.4435 87.1428C61.5511 81.873 64.146 77.0159 67.9435 73.2063L107.406 33.619C110.792 30.2222 116.298 30.2222 119.684 33.619C121.393 35.3333 122.216 37.5555 122.216 39.7778C122.216 42 121.361 44.254 119.684 45.9365L80.222 85.5238C76.4245 89.3333 71.5827 91.9682 66.3296 93.0476L66.3612 93.0793Z" stroke="#FEE0AB" stroke-width="3" stroke-linecap="round" stroke-linejoin="round"/>
<path d="M105.189 35.873L117.5 48.1905" stroke="#FEE0AB" stroke-width="3" stroke-linecap="round" stroke-linejoin="round"/>
<path d="M83.5439 57.619L95.8224 69.9365" stroke="#FEE0AB" stroke-width="3" stroke-linecap="round" stroke-linejoin="round"/>
<path d="M109.969 55.746L115.032 50.6666C116.772 48.9206 119.589 48.9206 121.298 50.6666C123.038 52.4127 123.038 55.2381 121.298 56.9524L102.722 75.5873" stroke="#FEE0AB" stroke-width="3" stroke-linecap="round" stroke-linejoin="round"/>
<path d="M61.1074 92.4445L55.9492 97.6191" stroke="#FEE0AB" stroke-width="3" stroke-linecap="round" stroke-linejoin="round"/>
<path d="M34.0186 18.254H19.7781C17.1515 18.254 15.0312 20.381 15.0312 23.0159C15.0312 25.6508 17.1515 27.7778 19.7781 27.7778H29.2718C31.8983 27.7778 34.0186 29.9048 34.0186 32.5397C34.0186 35.1746 31.8983 37.3016 29.2718 37.3016H15.0312" stroke="#FEE0AB" stroke-width="3" stroke-linecap="round" stroke-linejoin="round"/>
<path d="M24.5254 43.6508V37.3016" stroke="#FEE0AB" stroke-width="3" stroke-linecap="round" stroke-linejoin="round"/>
<path d="M24.5254 18.254V11.9048" stroke="#FEE0AB" stroke-width="3" stroke-linecap="round" stroke-linejoin="round"/>
<path d="M46.6768 30.9524H94.1451" stroke="#FEE0AB" stroke-width="3" stroke-linecap="round" stroke-linejoin="round"/>
<path d="M46.6768 18.254H75.1578" stroke="#FEE0AB" stroke-width="3" stroke-linecap="round" stroke-linejoin="round"/>
<path d="M46.6768 43.6508H78.3223" stroke="#FEE0AB" stroke-width="3" stroke-linecap="round" stroke-linejoin="round"/>
</g>
<defs>
<clipPath id="clip0_62_440">
<rect width="125" height="100" fill="white"/>
</clipPath>
</defs>
</svg>
