<svg width="80" height="100" viewBox="0 0 80 100" fill="none" xmlns="http://www.w3.org/2000/svg">
<g clip-path="url(#clip0_62_764)">
<path d="M24.6832 60.1266H1.89844V17.0886H29.7465" stroke="#FEE0AB" stroke-width="3" stroke-linecap="round" stroke-linejoin="round"/>
<path d="M70.5312 30.1519C66.1009 30.1519 62.5312 26.557 62.5312 22.1519" stroke="#FEE0AB" stroke-width="3" stroke-linecap="round" stroke-linejoin="round"/>
<path d="M8.70898 46.8101C13.2659 46.8101 16.9621 50.5063 16.9621 55.0633" stroke="#FEE0AB" stroke-width="3" stroke-linecap="round" stroke-linejoin="round"/>
<path d="M8.70898 30.1519C13.1394 30.1519 16.709 26.557 16.709 22.1519" stroke="#FEE0AB" stroke-width="3" stroke-linecap="round" stroke-linejoin="round"/>
<path d="M70.5315 46.8101C65.9745 46.8101 62.2783 50.5063 62.2783 55.0633" stroke="#FEE0AB" stroke-width="3" stroke-linecap="round" stroke-linejoin="round"/>
<path d="M32.2785 44.9367V80.3798H24.6836L42.4051 98.1013L60.1266 80.3798H52.5317V22.3291C52.5317 19.4177 54.8861 17.0886 57.7722 17.0886H77.8482V60.1266H52.5317" stroke="#FEE0AB" stroke-width="3" stroke-linecap="round" stroke-linejoin="round"/>
<path d="M42.4053 65.1899V47.4684" stroke="#FFD17E" stroke-width="3" stroke-linecap="round" stroke-linejoin="round"/>
<path d="M42.4053 39.8734V29.7468" stroke="#FFD17E" stroke-width="3" stroke-linecap="round" stroke-linejoin="round"/>
<path d="M42.4053 22.1519V14.5569" stroke="#FFD17E" stroke-width="3" stroke-linecap="round" stroke-linejoin="round"/>
<path d="M42.4053 6.96203V1.89874" stroke="#FFD17E" stroke-width="3" stroke-linecap="round" stroke-linejoin="round"/>
</g>
<defs>
<clipPath id="clip0_62_764">
<rect width="79.7468" height="100" fill="white"/>
</clipPath>
</defs>
</svg>
