<svg width="74" height="100" viewBox="0 0 74 100" fill="none" xmlns="http://www.w3.org/2000/svg">
<g clip-path="url(#clip0_63_1159)">
<path d="M31.968 60.9276C25.6998 60.9276 20.6016 55.8294 20.6016 49.5612C20.6016 48.0359 20.8941 46.5733 21.4791 45.1734C21.6672 44.7137 22.0642 44.3794 22.5447 44.2331C23.0253 44.1078 23.5477 44.2122 23.9238 44.5047C24.3207 44.8182 24.9685 45.1734 25.846 45.1734C27.5803 45.1734 29.0011 43.7526 29.0011 42.0183C29.0011 41.5587 28.8966 41.099 28.6668 40.6393C28.4578 40.2005 28.4578 39.6573 28.6668 39.2185C28.8966 38.7797 29.3145 38.4663 29.795 38.3618C32.7829 37.7768 35.7499 38.4036 38.1945 40.0334C38.5706 40.2841 38.8214 40.6602 38.8841 41.099C38.9676 41.5378 38.8632 41.9765 38.5915 42.3317C37.6095 43.6481 37.108 45.1943 37.108 46.8031V58.6084C37.108 59.277 36.7111 59.862 36.0842 60.0919C34.747 60.6142 33.368 60.8859 31.9472 60.8859L31.968 60.9276ZM23.9238 48.0986C23.8402 48.5791 23.7984 49.0597 23.7984 49.5612C23.7984 54.0534 27.4549 57.7308 31.968 57.7308C32.6158 57.7308 33.2844 57.6472 33.9112 57.4801V46.824C33.9112 45.1316 34.3082 43.4809 35.0604 41.9974C34.1411 41.6213 33.159 41.4124 32.1561 41.3915C32.177 41.6004 32.1979 41.8303 32.1979 42.0392C32.1979 45.5495 29.3563 48.3911 25.846 48.3911C25.1983 48.3911 24.5506 48.2866 23.9238 48.0986Z" fill="#FEE0AB"/>
<path d="M52.3188 100C51.4413 100 50.71 99.2896 50.71 98.3911V72.921C50.71 72.0434 51.4204 71.3121 52.3188 71.3121C53.2173 71.3121 53.9277 72.0225 53.9277 72.921V98.3911C53.9277 99.2687 53.2173 100 52.3188 100Z" fill="#FFD17E"/>
<path d="M42.603 69.7451C41.7254 69.7451 40.9941 69.0347 40.9941 68.1362V49.1433C40.9941 48.2658 41.7045 47.5345 42.603 47.5345C43.5015 47.5345 44.2119 48.2449 44.2119 49.1433V68.1362C44.2119 69.0138 43.5015 69.7451 42.603 69.7451Z" fill="#FFD17E"/>
<path d="M62.0561 69.7451C61.1786 69.7451 60.4473 69.0347 60.4473 68.1362V49.1433C60.4473 48.2658 61.1577 47.5345 62.0561 47.5345C62.9546 47.5345 63.665 48.2449 63.665 49.1433V68.1362C63.665 69.0138 62.9546 69.7451 62.0561 69.7451Z" fill="#FFD17E"/>
<path d="M69.1393 64.7932H62.0561C61.1786 64.7932 60.4473 64.0828 60.4473 63.1843C60.4473 62.2858 61.1577 61.5754 62.0561 61.5754H69.1393C70.0168 61.5754 70.7481 62.2858 70.7481 63.1843C70.7481 64.0828 70.0377 64.7932 69.1393 64.7932Z" fill="#FFD17E"/>
<path d="M42.6032 64.7932H35.52C34.6424 64.7932 33.9111 64.0828 33.9111 63.1843C33.9111 62.2858 34.6215 61.5754 35.52 61.5754H42.6032C43.4807 61.5754 44.212 62.2858 44.212 63.1843C44.212 64.0828 43.5016 64.7932 42.6032 64.7932Z" fill="#FFD17E"/>
<path d="M52.3194 35.4158C47.2003 35.4158 43.0215 31.2369 43.0215 26.1178C43.0215 20.9987 47.2003 16.8199 52.3194 16.8199C57.4385 16.8199 61.6174 20.9987 61.6174 26.1178C61.6174 31.2369 57.4385 35.4158 52.3194 35.4158ZM52.3194 20.0167C48.9555 20.0167 46.2183 22.7539 46.2183 26.1178C46.2183 29.4818 48.9555 32.219 52.3194 32.219C55.6834 32.219 58.4206 29.4818 58.4206 26.1178C58.4206 22.7539 55.6834 20.0167 52.3194 20.0167Z" fill="#FFD17E"/>
<path d="M31.9681 100C31.6338 100 31.2995 99.8955 31.007 99.6866C16.0885 88.6126 7.1875 70.0376 7.1875 50C7.1875 29.9624 16.1094 11.3874 31.0279 0.313423C31.7383 -0.208934 32.7412 -0.0626737 33.2636 0.647732C33.7859 1.35814 33.6397 2.36106 32.9292 2.88342C18.8256 13.3723 10.4052 30.9862 10.4052 50C10.4052 69.0138 18.8256 86.6277 32.9292 97.1166C33.6397 97.639 33.7859 98.6419 33.2636 99.3523C32.9501 99.7702 32.4696 100 31.9681 100Z" fill="#FEE0AB"/>
<path d="M31.9682 100C31.6966 100 31.425 99.9373 31.1743 99.7911C11.659 88.7171 0 70.1003 0 50C0 29.8997 11.659 11.2829 31.1952 0.208938C31.6757 -0.0626879 32.2817 -0.0626879 32.7831 0.208938C38.6962 3.57292 43.9824 7.66819 48.4538 12.4112C49.0598 13.0589 49.0389 14.0618 48.3911 14.6678C47.7434 15.2737 46.7405 15.2528 46.1346 14.6051C42.0811 10.3009 37.3172 6.5608 31.9891 3.44755C13.9365 13.9783 3.19682 31.3205 3.19682 50C3.19682 68.6795 13.9365 86.0008 31.9682 96.5524C35.3949 94.5466 38.6126 92.2691 41.5587 89.7409C42.2273 89.1559 43.2511 89.2394 43.8153 89.9081C44.4003 90.5767 44.3168 91.5796 43.6481 92.1646C40.326 95.0063 36.6695 97.5763 32.7622 99.7911C32.5115 99.9373 32.2399 100 31.9682 100Z" fill="#FEE0AB"/>
<path d="M31.9681 77.664C18.3033 77.664 7.1875 65.2528 7.1875 49.9791C7.1875 34.7054 18.3033 22.2942 31.9681 22.2942C34.5799 22.2942 37.1499 22.7539 39.5945 23.6314C40.4303 23.9239 40.8482 24.8433 40.5557 25.6791C40.2631 26.5148 39.3438 26.9536 38.508 26.6402C36.3977 25.888 34.2038 25.491 31.9681 25.491C20.0793 25.491 10.4052 36.4605 10.4052 49.9582C10.4052 63.4559 20.0793 74.4254 31.9681 74.4254C35.3948 74.4254 38.6752 73.527 41.7257 71.7927C42.4988 71.3539 43.46 71.6047 43.9196 72.3778C44.3584 73.1509 44.1077 74.112 43.3346 74.5717C39.8452 76.5775 35.938 77.6431 31.989 77.6431L31.9681 77.664Z" fill="#FEE0AB"/>
<path d="M71.5002 100H1.60886C0.7313 100 0 99.2896 0 98.3911C0 97.4927 0.710405 96.7823 1.60886 96.7823H71.5002C72.3778 96.7823 73.1091 97.4927 73.1091 98.3911C73.1091 99.2896 72.3987 100 71.5002 100Z" fill="#FEE0AB"/>
<path d="M62.0557 100H42.6032C41.7256 100 40.9943 99.2896 40.9943 98.3912V69.7451H35.52C34.6424 69.7451 33.9111 69.0347 33.9111 68.1362V46.8241C33.9111 40.911 38.7168 36.1262 44.609 36.1262H59.9872C65.9003 36.1262 70.706 40.9319 70.706 46.8241V68.1362C70.706 69.0138 69.9955 69.7451 69.0971 69.7451H63.6228V98.3912C63.6228 99.2687 62.9124 100 62.0139 100H62.0557ZM44.212 96.8032H60.4678V68.1571C60.4678 67.2796 61.1782 66.5483 62.0766 66.5483H67.5509V46.845C67.5509 42.7079 64.1869 39.3439 60.0499 39.3439H44.6717C40.5346 39.3439 37.1706 42.7079 37.1706 46.845V66.5483H42.6449C43.5225 66.5483 44.2538 67.2587 44.2538 68.1571V96.8032H44.212Z" fill="#FFD17E"/>
</g>
<defs>
<clipPath id="clip0_63_1159">
<rect width="73.1091" height="100" fill="white"/>
</clipPath>
</defs>
</svg>
