<svg width="124" height="112" viewBox="0 0 124 112" fill="none" xmlns="http://www.w3.org/2000/svg">
<g clip-path="url(#clip0_63_1459)">
<path opacity="0.5" d="M93.6218 97.6298C93.109 97.6298 92.5707 97.4256 92.1862 97.0173C91.4427 96.226 91.494 95.0009 92.2887 94.2607C93.0321 93.5715 93.7499 92.8823 94.4165 92.1421C95.1599 91.3509 96.416 91.3254 97.1851 92.0656C97.9798 92.8058 98.0055 94.0309 97.262 94.8222C96.5186 95.6134 95.7495 96.3792 94.9548 97.1194C94.5703 97.4767 94.0832 97.6554 93.6218 97.6554V97.6298Z" fill="#FEE0AB"/>
<path opacity="0.5" d="M103.645 84.536C103.337 84.536 103.03 84.4594 102.748 84.3063C101.774 83.7958 101.415 82.6217 101.928 81.6773C102.927 79.7885 103.799 77.7976 104.517 75.7812C104.876 74.7602 106.004 74.2498 107.029 74.6071C108.054 74.9644 108.593 76.0875 108.208 77.1085C107.414 79.3035 106.491 81.4476 105.414 83.4895C105.055 84.1531 104.389 84.536 103.671 84.536H103.645Z" fill="#FEE0AB"/>
<path opacity="0.5" d="M109.028 65.2908C107.824 65.2142 107.003 64.2953 107.08 63.2233C107.131 62.2279 107.183 61.2324 107.183 60.2115C107.183 59.1394 108.054 58.2461 109.157 58.2461C110.259 58.2461 111.131 59.1139 111.131 60.2115C111.131 61.309 111.105 62.381 111.028 63.453C110.951 64.4995 110.105 65.2908 109.08 65.2908H109.028Z" fill="#FEE0AB"/>
<path d="M57.3215 13.8086C56.296 13.8086 55.4244 13.0173 55.3732 11.9708C55.2963 10.8988 56.1166 9.95441 57.1933 9.90337C58.2444 9.82679 59.3467 9.80127 60.449 9.80127C61.5514 9.80127 62.423 10.6691 62.423 11.7666C62.423 12.8642 61.5514 13.732 60.449 13.732C59.4492 13.732 58.4238 13.7575 57.424 13.8341C57.3727 13.8341 57.3471 13.8341 57.2958 13.8341L57.3215 13.8086Z" fill="#FEE0AB"/>
<path opacity="0.5" d="M17.407 84.8933C16.7149 84.8933 16.0227 84.5104 15.6638 83.8468C14.6127 81.8814 13.6898 79.814 12.9208 77.721C12.5362 76.7001 13.0746 75.577 14.1 75.2196C15.1254 74.8623 16.2534 75.3728 16.6123 76.3938C17.3301 78.3081 18.1761 80.2224 19.1502 82.0346C19.663 82.979 19.3041 84.1786 18.3299 84.6891C18.0479 84.8423 17.7146 84.9188 17.407 84.9188V84.8933ZM11.9979 66.4649C10.9981 66.4649 10.1265 65.6991 10.0496 64.6782C9.92139 63.1978 9.87012 61.6918 9.87012 60.2114C9.87012 59.4712 9.87012 58.731 9.92139 57.9908C9.97266 56.9188 10.8955 56.0765 11.9722 56.1276C13.0489 56.1786 13.8949 57.0975 13.8437 58.1695C13.818 58.8587 13.7924 59.5223 13.7924 60.2114C13.7924 61.5897 13.8437 62.9936 13.9718 64.3464C14.0744 65.4184 13.254 66.3628 12.1773 66.4649C12.1261 66.4649 12.0748 66.4649 11.9979 66.4649ZM14.1256 47.3983C13.9206 47.3983 13.7155 47.3728 13.536 47.2962C12.5106 46.9644 11.9466 45.8669 12.2542 44.8459C12.9464 42.7274 13.7667 40.6344 14.7153 38.618C15.1767 37.6481 16.356 37.2397 17.3301 37.6991C18.3043 38.1586 18.7144 39.3327 18.253 40.3026C17.3814 42.1659 16.6123 44.0802 15.9714 46.0455C15.7151 46.8623 14.9204 47.3983 14.1 47.3983H14.1256ZM23.534 30.6545C23.0725 30.6545 22.6367 30.5013 22.2522 30.195C21.4318 29.4804 21.3293 28.2552 22.0471 27.4384C23.5083 25.7538 25.0977 24.1458 26.7384 22.6654C27.5588 21.9507 28.7893 22.0273 29.5071 22.8185C30.2249 23.6353 30.1736 24.8605 29.3533 25.5752C27.8151 26.9535 26.3539 28.4339 25.0208 29.9908C24.6363 30.4503 24.0723 30.68 23.534 30.68V30.6545ZM38.7359 18.8368C38.0181 18.8368 37.326 18.4539 36.9671 17.7648C36.48 16.7948 36.8645 15.6207 37.8387 15.1358C39.8383 14.1403 41.9404 13.2725 44.0425 12.5323C45.068 12.175 46.1959 12.7365 46.5292 13.7575C46.8881 14.7784 46.3241 15.9015 45.2987 16.2333C43.3504 16.8969 41.4277 17.7137 39.5819 18.6326C39.2999 18.7857 38.9923 18.8368 38.7103 18.8368H38.7359Z" fill="#FEE0AB"/>
<path opacity="0.5" d="M27.2254 97.5278C26.7383 97.5278 26.2769 97.3491 25.8924 97.0173C25.0976 96.3026 24.3286 95.5369 23.5595 94.7456C22.8161 93.9544 22.8417 92.7292 23.6364 91.989C24.4311 91.2488 25.6616 91.2744 26.4051 92.0656C27.0972 92.7803 27.815 93.495 28.5585 94.1841C29.3532 94.9243 29.4044 96.1495 28.661 96.9407C28.2765 97.3491 27.7381 97.5788 27.2254 97.5788V97.5278Z" fill="#FEE0AB"/>
<path d="M105.209 43.0592C104.44 43.0592 103.722 42.6253 103.415 41.8851C96.0314 24.7839 79.1888 13.732 60.5003 13.732C59.4236 13.732 58.5264 12.8642 58.5264 11.7666C58.5264 10.6691 59.398 9.80127 60.5003 9.80127C80.7525 9.80127 99.0308 21.7721 107.029 40.3026C107.465 41.2981 107.004 42.4467 106.004 42.8806C105.747 42.9827 105.491 43.0337 105.235 43.0337L105.209 43.0592Z" fill="#FEE0AB"/>
<path d="M118.873 58.9607C118.283 58.9607 117.719 58.7055 117.335 58.2205L112.977 52.8094C112.31 51.9671 112.439 50.742 113.285 50.0528C114.13 49.3892 115.361 49.5168 116.053 50.3591L118.489 53.3965L120.257 49.9252C120.745 48.9553 121.924 48.5724 122.898 49.0574C123.872 49.5423 124.257 50.7164 123.77 51.6864L120.616 57.8632C120.309 58.4503 119.719 58.8586 119.078 58.9352C119.001 58.9352 118.95 58.9352 118.873 58.9352V58.9607Z" fill="#FEE0AB"/>
<path d="M105.184 43.0593C104.799 43.0593 104.415 42.9572 104.081 42.7275L98.3389 38.8478C97.4417 38.2352 97.211 37.0356 97.8262 36.1422C98.4415 35.2489 99.672 35.0192 100.544 35.6317L103.774 37.8268L104.44 33.9982C104.62 32.9262 105.671 32.2115 106.696 32.4157C107.773 32.5944 108.491 33.6153 108.286 34.6618L107.106 41.4768C107.004 42.1404 106.542 42.6764 105.953 42.9572C105.696 43.0593 105.44 43.1103 105.184 43.1103V43.0593Z" fill="#FEE0AB"/>
<path opacity="0.5" d="M106.901 97.6299C106.491 97.6299 106.055 97.5023 105.696 97.2216C104.824 96.5579 104.671 95.3328 105.337 94.4905C105.952 93.6992 106.542 92.8824 107.132 92.0402C107.747 91.1468 108.977 90.9171 109.849 91.5297C110.746 92.1422 110.977 93.3674 110.362 94.2352C109.746 95.103 109.106 95.9964 108.465 96.8642C108.08 97.3747 107.491 97.6299 106.901 97.6299Z" fill="#FEE0AB"/>
<path opacity="0.5" d="M112.413 89.0283C112.105 89.0283 111.797 88.9517 111.515 88.7986C110.541 88.3136 110.182 87.114 110.669 86.1696C111.182 85.1741 111.695 84.1276 112.156 83.0811C112.592 82.0857 113.771 81.6518 114.745 82.0857C115.745 82.5196 116.181 83.6937 115.745 84.6636C115.232 85.7867 114.694 86.8842 114.156 87.9563C113.797 88.6199 113.13 89.0027 112.413 89.0027V89.0283Z" fill="#FEE0AB"/>
<path opacity="0.5" d="M116.437 79.2015C116.258 79.2015 116.053 79.176 115.873 79.1249C114.848 78.8186 114.258 77.7211 114.566 76.6746C114.848 75.7047 115.13 74.7348 115.386 73.7648C115.643 72.7184 116.719 72.0803 117.77 72.3355C118.822 72.5907 119.462 73.6628 119.206 74.7092C118.95 75.7557 118.668 76.8022 118.334 77.8232C118.078 78.6655 117.309 79.2015 116.463 79.2015H116.437Z" fill="#FEE0AB"/>
<path d="M20.2265 19.8833C19.7138 19.8833 19.1755 19.6791 18.7909 19.2707C18.0475 18.4795 18.0731 17.2543 18.8679 16.5141C19.6626 15.7739 20.4573 15.0592 21.2776 14.3446C22.098 13.6554 23.3541 13.732 24.0463 14.5743C24.7384 15.3911 24.6359 16.6417 23.8155 17.3309C23.0465 17.9945 22.303 18.6582 21.5596 19.3473C21.1751 19.7046 20.688 19.8833 20.2009 19.8833H20.2265Z" fill="#FEE0AB"/>
<path opacity="0.5" d="M6.3833 84.587C5.61422 84.587 4.89642 84.1276 4.56316 83.3874C3.79409 81.5241 3.10192 79.6098 2.5123 77.67C2.20467 76.6235 2.79429 75.5515 3.81972 75.2452C4.87079 74.9389 5.94749 75.526 6.25512 76.5469C6.79347 78.3336 7.43436 80.1458 8.1778 81.8815C8.58797 82.8769 8.12652 84.0255 7.12673 84.4339C6.87037 84.536 6.61402 84.587 6.3833 84.587ZM2.20467 67.5879C1.20488 67.5879 0.333264 66.8222 0.256357 65.8013C0.102543 63.9635 0 62.1003 0 60.2115V59.752C0 58.68 0.89725 57.8122 1.97395 57.8122C3.07629 57.8122 3.9479 58.7055 3.9479 59.7775V60.2115C3.9479 61.9726 4.02481 63.7338 4.17862 65.4439C4.28117 66.5159 3.48646 67.4603 2.38412 67.5624C2.33285 67.5624 2.25594 67.5624 2.20467 67.5624V67.5879ZM3.2301 50.1039C3.10192 50.1039 2.94811 50.1039 2.81993 50.0528C1.76887 49.8231 1.0767 48.8022 1.30742 47.7302C1.71759 45.7648 2.25594 43.7994 2.8712 41.8851C3.20447 40.8641 4.3068 40.2771 5.33223 40.6089C6.35766 40.9407 6.94728 42.0383 6.61402 43.0592C6.05003 44.8459 5.53732 46.6837 5.15278 48.5214C4.9477 49.4403 4.15299 50.0784 3.2301 50.0784V50.1039ZM9.40831 33.7174C9.07505 33.7174 8.74178 33.6408 8.45979 33.4621C7.51127 32.9261 7.178 31.752 7.71635 30.8076C8.71615 29.0465 9.79285 27.3363 10.9465 25.6773C11.5617 24.7839 12.7922 24.5797 13.6895 25.1923C14.5867 25.8049 14.7918 27.0301 14.1766 27.9234C13.0999 29.4549 12.0744 31.0629 11.1515 32.7219C10.7926 33.36 10.1261 33.7174 9.43395 33.7174H9.40831Z" fill="#FEE0AB"/>
<path opacity="0.5" d="M13.8942 97.4002C13.3045 97.4002 12.7149 97.145 12.3304 96.6345C11.6638 95.7922 11.023 94.8988 10.4077 94.031C9.79244 93.1377 10.0232 91.938 10.8948 91.2999C11.792 90.6873 13.0225 90.9171 13.6378 91.8104C14.2018 92.6272 14.817 93.444 15.4323 94.2607C16.0988 95.103 15.945 96.3537 15.0734 96.9918C14.7145 97.2726 14.3043 97.4002 13.8685 97.4002H13.8942Z" fill="#FEE0AB"/>
<path d="M118.873 58.8077C117.848 58.8077 116.976 58.0164 116.925 56.9699C115.233 27.2087 90.4429 3.9052 60.4748 3.9052C47.0417 3.9052 34.0444 8.67821 23.8413 17.3309C23.021 18.0201 21.7648 17.918 21.0727 17.1012C20.3805 16.2844 20.4574 15.0337 21.3034 14.3446C32.1986 5.10483 46.1188 0 60.4748 0C92.5194 0 119.027 24.9371 120.847 56.7402C120.898 57.8122 120.078 58.7311 119.001 58.8077C118.976 58.8077 118.924 58.8077 118.899 58.8077H118.873Z" fill="#FEE0AB"/>
<path d="M60.4747 44.5397C55.7321 44.5397 51.8867 40.7621 51.8867 36.0912C51.8867 31.4203 55.7321 27.6427 60.4747 27.6427C65.2173 27.6427 69.0627 31.4203 69.0627 36.0912C69.0627 40.7621 65.2173 44.5397 60.4747 44.5397ZM60.4747 31.5479C57.9111 31.5479 55.809 33.5898 55.809 36.0912C55.809 38.5926 57.9111 40.6345 60.4747 40.6345C63.0383 40.6345 65.1404 38.5926 65.1404 36.0912C65.1404 33.5898 63.0383 31.5479 60.4747 31.5479Z" fill="#FEE0AB"/>
<path d="M60.4749 97.6298C59.3982 97.6298 58.501 96.762 58.501 95.6645V77.3892C58.501 76.3172 59.3726 75.4238 60.4749 75.4238C61.5773 75.4238 62.4489 76.2917 62.4489 77.3892V95.6645C62.4489 96.7365 61.5773 97.6298 60.4749 97.6298Z" fill="#FEE0AB"/>
<path d="M67.8835 97.6299H53.066C51.9893 97.6299 51.0921 96.7621 51.0921 95.6646V58.1951C40.3763 56 32.9932 49.3638 29.5837 43.7229C28.0968 41.2471 28.6864 38.031 30.968 36.2443C33.2496 34.4832 36.5053 34.6618 38.5049 36.6783C45.1702 43.3145 51.938 46.0711 53.3736 46.6072H67.4989C68.9089 46.0711 75.7024 43.3145 82.3677 36.6783C84.3929 34.6618 87.623 34.4832 89.9046 36.2443C92.2118 38.031 92.8014 41.2471 91.3145 43.7229C87.905 49.3893 80.5219 56 69.8061 58.1951V95.6646C69.8061 96.7366 68.9345 97.6299 67.8322 97.6299H67.8835ZM55.04 93.7247H65.9095V56.5871C65.9095 55.6172 66.6017 54.8004 67.5758 54.6473C77.8558 53.0137 84.8543 46.9134 87.9819 41.7065C88.469 40.9153 88.2639 39.8943 87.5461 39.3328C86.8283 38.7712 85.8028 38.8223 85.1876 39.4349C77.0354 47.5515 68.832 50.2826 68.4987 50.4102C68.2936 50.4868 68.0886 50.5123 67.8835 50.5123H53.066C52.8609 50.5123 52.6558 50.4868 52.4508 50.4102C52.1175 50.3082 43.9141 47.5771 35.7619 39.4349C35.1466 38.8223 34.1212 38.7712 33.4034 39.3328C32.6856 39.8943 32.4805 40.9153 32.9676 41.7065C36.0952 46.8879 43.1194 53.0137 53.3736 54.6473C54.3222 54.8004 55.04 55.6172 55.04 56.5871V93.7247Z" fill="#FEE0AB"/>
<path d="M82.7776 104.802H38.0433C36.9666 104.802 36.0693 103.934 36.0693 102.837V95.6646C36.0693 94.5926 36.941 93.6992 38.0433 93.6992H82.7776C83.8543 93.6992 84.7516 94.567 84.7516 95.6646V102.837C84.7516 103.909 83.88 104.802 82.7776 104.802ZM40.0172 100.897H80.8037V97.6299H40.0172V100.897Z" fill="#FEE0AB"/>
<path d="M92.0325 112H28.8148C27.7381 112 26.8408 111.132 26.8408 110.035V102.862C26.8408 101.79 27.7124 100.897 28.8148 100.897H92.0325C93.1092 100.897 94.0064 101.765 94.0064 102.862V110.035C94.0064 111.107 93.1348 112 92.0325 112ZM30.7887 108.095H90.0841V104.828H30.7631V108.095H30.7887Z" fill="#FEE0AB"/>
<path d="M102.722 112H18.099C17.0223 112 16.125 111.132 16.125 110.035C16.125 108.937 16.9966 108.069 18.099 108.069H102.722C103.799 108.069 104.696 108.937 104.696 110.035C104.696 111.132 103.825 112 102.722 112Z" fill="#FEE0AB"/>
<path d="M85.1615 69.6299C84.0848 69.6299 83.1875 68.762 83.1875 67.6645V65.3929C83.1875 64.3208 84.0591 63.4275 85.1615 63.4275C86.2638 63.4275 87.1354 64.2953 87.1354 65.3929V67.6645C87.1354 68.7365 86.2638 69.6299 85.1615 69.6299Z" fill="#FEE0AB"/>
<path d="M85.1615 78.3081C84.0848 78.3081 83.1875 77.4403 83.1875 76.3427V74.0711C83.1875 72.9991 84.0591 72.1057 85.1615 72.1057C86.2638 72.1057 87.1354 72.9735 87.1354 74.0711V76.3427C87.1354 77.4147 86.2638 78.3081 85.1615 78.3081Z" fill="#FEE0AB"/>
<path d="M90.6735 72.8204H88.3919C87.3152 72.8204 86.418 71.9525 86.418 70.855C86.418 69.7575 87.2896 68.8896 88.3919 68.8896H90.6735C91.7502 68.8896 92.6475 69.7575 92.6475 70.855C92.6475 71.9525 91.7758 72.8204 90.6735 72.8204Z" fill="#FEE0AB"/>
<path d="M81.9577 72.8204H79.6761C78.5994 72.8204 77.7021 71.9525 77.7021 70.855C77.7021 69.7575 78.5738 68.8896 79.6761 68.8896H81.9577C83.0344 68.8896 83.9316 69.7575 83.9316 70.855C83.9316 71.9525 83.06 72.8204 81.9577 72.8204Z" fill="#FEE0AB"/>
<path d="M35.6595 69.6299C34.5828 69.6299 33.6855 68.762 33.6855 67.6645V65.3929C33.6855 64.3208 34.5572 63.4275 35.6595 63.4275C36.7618 63.4275 37.6334 64.2953 37.6334 65.3929V67.6645C37.6334 68.7365 36.7618 69.6299 35.6595 69.6299Z" fill="#FEE0AB"/>
<path d="M35.6595 78.3081C34.5828 78.3081 33.6855 77.4403 33.6855 76.3427V74.0711C33.6855 72.9991 34.5572 72.1057 35.6595 72.1057C36.7618 72.1057 37.6334 72.9735 37.6334 74.0711V76.3427C37.6334 77.4147 36.7618 78.3081 35.6595 78.3081Z" fill="#FEE0AB"/>
<path d="M32.4294 72.8204H30.1478C29.0711 72.8204 28.1738 71.9525 28.1738 70.855C28.1738 69.7575 29.0454 68.8896 30.1478 68.8896H32.4294C33.5061 68.8896 34.4033 69.7575 34.4033 70.855C34.4033 71.9525 33.5317 72.8204 32.4294 72.8204Z" fill="#FEE0AB"/>
<path d="M41.1452 72.8204H38.8636C37.7869 72.8204 36.8896 71.9525 36.8896 70.855C36.8896 69.7575 37.7613 68.8896 38.8636 68.8896H41.1452C42.2219 68.8896 43.1191 69.7575 43.1191 70.855C43.1191 71.9525 42.2475 72.8204 41.1452 72.8204Z" fill="#FEE0AB"/>
</g>
<defs>
<clipPath id="clip0_63_1459">
<rect width="124" height="112" fill="white"/>
</clipPath>
</defs>
</svg>
