<svg width="129" height="96" viewBox="0 0 129 96" fill="none" xmlns="http://www.w3.org/2000/svg">
<g opacity="0.2" clip-path="url(#clip0_129_335)">
<path d="M97.5097 88.15C91.0997 88.15 84.9497 86.21 79.7297 82.53C76.8397 80.5 74.3397 78 72.2897 75.09C65.6497 65.7 64.8197 53.27 70.0497 43.1L65.3397 36.43C64.7297 35.56 64.9297 34.36 65.7997 33.75L85.9497 19.51C86.3697 19.21 86.8897 19.1 87.3897 19.18C87.8897 19.27 88.3397 19.55 88.6397 19.97L93.3597 26.64C101.01 25.6 109.06 27.57 115.33 31.99C118.21 34.02 120.72 36.52 122.77 39.43C127.53 46.17 129.39 54.36 127.99 62.5C126.59 70.63 122.11 77.74 115.37 82.5C110.13 86.2 103.96 88.16 97.5197 88.16L97.5097 88.15ZM69.5897 35.78L73.8797 41.85C74.3097 42.46 74.3497 43.26 73.9797 43.91C68.8397 52.99 69.4097 64.35 75.4297 72.87C77.2297 75.41 79.4197 77.6 81.9397 79.38C86.5097 82.6 91.8897 84.3 97.5097 84.3C103.13 84.3 108.55 82.59 113.13 79.35C119.03 75.18 122.95 68.96 124.17 61.84C125.39 54.72 123.77 47.55 119.6 41.65C117.8 39.11 115.61 36.91 113.09 35.14C107.31 31.07 99.7697 29.39 92.7797 30.62C92.0497 30.75 91.2997 30.44 90.8697 29.84L86.5797 23.77L69.5797 35.79L69.5897 35.78ZM97.5097 78.31C93.1397 78.31 88.9497 76.99 85.3897 74.48C83.4297 73.1 81.7197 71.39 80.3197 69.41C73.6197 59.93 75.8797 46.76 85.3597 40.05C88.9297 37.53 93.1397 36.19 97.5297 36.19C101.92 36.19 106.09 37.51 109.65 40.02C111.61 41.4 113.32 43.11 114.72 45.09C121.42 54.57 119.16 67.74 109.68 74.45C106.11 76.97 101.9 78.31 97.5097 78.31ZM97.5197 40.05C93.9297 40.05 90.4897 41.14 87.5797 43.2C79.8297 48.68 77.9797 59.44 83.4597 67.19C84.6097 68.81 85.9997 70.2 87.5997 71.33C90.5097 73.38 93.9297 74.46 97.5097 74.46C101.09 74.46 104.54 73.37 107.45 71.31C115.2 65.83 117.05 55.07 111.57 47.32C110.42 45.7 109.03 44.31 107.43 43.18C104.52 41.13 101.1 40.05 97.5197 40.05Z" fill="#FEE0AB"/>
<path d="M2.12964 76.18C-0.200355 70.21 -0.630355 63.77 0.889645 57.57C1.72964 54.14 3.14964 50.9 5.10964 47.93C11.4396 38.33 22.7096 33.03 34.0896 34.2L38.5896 27.38C39.1696 26.49 40.3696 26.25 41.2596 26.83L61.8596 40.41C62.2896 40.69 62.5796 41.14 62.6896 41.63C62.7896 42.13 62.6896 42.65 62.4096 43.08L57.9096 49.9C61.6596 56.65 62.7596 64.86 60.9296 72.31C60.0896 75.73 58.6696 78.97 56.7096 81.95C52.1696 88.84 45.2096 93.55 37.1296 95.21C29.0496 96.87 20.7996 95.28 13.9096 90.74C8.55964 87.21 4.48965 82.17 2.13964 76.18H2.12964ZM40.7396 31.11L36.6496 37.32C36.2396 37.94 35.5096 38.27 34.7696 38.17C24.4496 36.69 14.0696 41.35 8.31964 50.06C6.60964 52.66 5.35964 55.5 4.62964 58.49C3.29964 63.92 3.66964 69.55 5.71964 74.78C7.76964 80.03 11.3296 84.44 16.0196 87.53C22.0496 91.51 29.2696 92.9 36.3496 91.44C43.4296 89.99 49.5196 85.87 53.4896 79.83C55.1996 77.23 56.4496 74.39 57.1796 71.39C58.8696 64.52 57.6896 56.89 53.9896 50.83C53.5996 50.2 53.6196 49.39 54.0296 48.77L58.1196 42.56L40.7396 31.1V31.11ZM11.2896 72.6C9.69964 68.53 9.40964 64.14 10.4396 59.91C11.0096 57.58 11.9796 55.37 13.3096 53.34C19.6996 43.64 32.7896 40.95 42.4896 47.35C46.1396 49.76 48.9096 53.19 50.5096 57.28C52.0996 61.35 52.3896 65.74 51.3596 69.97C50.7896 72.3 49.8196 74.51 48.4896 76.54C42.0996 86.24 29.0096 88.92 19.3096 82.53C15.6596 80.12 12.8896 76.69 11.2896 72.6ZM46.9296 58.68C45.6196 55.34 43.3596 52.53 40.3796 50.57C32.4596 45.35 21.7596 47.54 16.5296 55.47C15.4396 57.13 14.6496 58.93 14.1796 60.84C13.3296 64.29 13.5696 67.88 14.8696 71.21C16.1796 74.55 18.4396 77.36 21.4296 79.32C29.3496 84.54 40.0496 82.35 45.2696 74.42C46.3596 72.76 47.1496 70.96 47.6196 69.05C48.4696 65.6 48.2296 62.01 46.9296 58.68Z" fill="#FEE0AB"/>
<path d="M49.4803 34.24C49.0903 34.24 48.7003 34.12 48.3503 33.88C47.4903 33.26 47.2903 32.05 47.9203 31.19C49.3403 29.22 54.0203 22.12 54.3703 20.44C54.4503 19.45 55.2803 18.67 56.2903 18.67C57.3503 18.67 58.2103 19.53 58.2103 20.6C58.2103 20.68 58.2103 20.8 58.1903 20.89C58.1903 20.96 58.1703 21.03 58.1603 21.11C57.7103 23.35 52.8103 31 51.0403 33.45C50.6603 33.97 50.0803 34.25 49.4803 34.25V34.24Z" fill="#FEE0AB"/>
<path d="M54.1297 37.5C53.7397 37.5 53.3497 37.38 53.0097 37.14C52.1497 36.52 51.9497 35.32 52.5697 34.45C54.2097 32.16 59.1097 24.57 59.6797 22.25C59.9297 21.22 60.9797 20.59 62.0097 20.84C63.0397 21.09 63.6697 22.14 63.4197 23.17C62.7297 25.96 57.6297 34 55.6997 36.69C55.3197 37.22 54.7297 37.49 54.1297 37.49V37.5Z" fill="#FEE0AB"/>
<path d="M74.9399 31.55C74.0999 31.55 73.3799 31.01 73.1199 30.26C72.8599 29.66 72.5699 28.88 72.2399 27.98C71.3199 25.5 69.9299 21.72 67.9999 19.05C67.3799 18.19 67.5699 16.98 68.4299 16.36C69.2899 15.74 70.4899 15.93 71.1199 16.79C73.3599 19.89 74.8599 23.96 75.8599 26.66C76.1799 27.55 76.4599 28.29 76.6999 28.86C76.8099 29.1 76.8599 29.36 76.8599 29.63C76.8599 30.69 75.9999 31.56 74.9399 31.56V31.55Z" fill="#FEE0AB"/>
<path d="M79.66 28.21C78.86 28.21 78.12 27.71 77.84 26.91L77.54 26.05C76.67 23.58 75.05 18.99 70.75 13.91C70.06 13.1 70.16 11.88 70.98 11.2C71.79 10.51 73.01 10.61 73.69 11.43C78.45 17.05 80.22 22.07 81.17 24.76L81.48 25.66C81.83 26.66 81.3 27.76 80.29 28.11C80.08 28.18 79.87 28.22 79.66 28.22V28.21Z" fill="#FEE0AB"/>
<path d="M60.8902 24.68C59.2502 24.68 57.6702 24.18 56.3302 23.24C52.7502 20.72 51.8902 15.76 54.4102 12.19C55.8902 10.08 58.3202 8.83 60.9102 8.83C62.5502 8.83 64.1302 9.33 65.4702 10.27C69.0502 12.79 69.9102 17.75 67.3902 21.32C65.9102 23.43 63.4802 24.68 60.9002 24.68H60.8902ZM60.9102 12.67C59.5802 12.67 58.3302 13.32 57.5602 14.4C56.2602 16.24 56.7102 18.79 58.5502 20.09C59.2402 20.58 60.0502 20.83 60.8902 20.83C62.2202 20.83 63.4702 20.18 64.2402 19.1C65.5402 17.26 65.0902 14.71 63.2502 13.41C62.5602 12.92 61.7502 12.67 60.9102 12.67Z" fill="#FEE0AB"/>
<path d="M66.5001 20.86C65.4701 20.86 64.6101 20.04 64.5801 19C64.5401 17.94 65.3701 17.05 66.4401 17.01C67.1601 16.98 67.8701 16.75 68.5001 16.33C68.5401 16.31 68.5701 16.28 68.6101 16.26C68.7301 16.19 68.8601 16.1 68.9601 16C69.0901 15.88 69.2101 15.77 69.3101 15.63C69.4101 15.51 69.5101 15.38 69.6101 15.24C69.7801 14.99 69.9501 14.68 70.0701 14.34C70.0701 14.3 70.0901 14.27 70.1001 14.23C70.2401 13.82 70.3101 13.4 70.3201 12.95C70.3201 12.89 70.3201 12.81 70.3101 12.75C70.2601 11.5 69.6201 10.32 68.6001 9.6C66.7601 8.3 64.2001 8.74 62.9001 10.59C62.7301 10.83 62.5801 11.12 62.4401 11.48C62.0501 12.47 60.9301 12.95 59.9401 12.55C58.9501 12.16 58.4701 11.04 58.8601 10.05C59.1201 9.41 59.4101 8.86 59.7601 8.37C62.2901 4.79 67.2501 3.94 70.8201 6.46C72.7901 7.85 74.0401 10.11 74.1601 12.53C74.1701 12.68 74.1801 12.85 74.1801 13C74.1601 13.84 74.0301 14.62 73.8001 15.36C73.7901 15.4 73.7801 15.44 73.7601 15.48C73.5201 16.2 73.1801 16.88 72.7401 17.5C72.5701 17.72 72.4401 17.9 72.3101 18.06C72.0901 18.34 71.8401 18.58 71.6001 18.8C71.3101 19.08 70.9601 19.34 70.6101 19.55C69.4001 20.36 68.0101 20.81 66.5801 20.86C66.5601 20.86 66.5301 20.86 66.5101 20.86H66.5001Z" fill="#FEE0AB"/>
</g>
<g clip-path="url(#clip1_129_335)">
<path d="M31.9995 46.1539C44.2348 46.1539 54.1534 36.2352 54.1534 24C54.1534 11.7648 44.2348 1.84616 31.9995 1.84616C19.7643 1.84616 9.8457 11.7648 9.8457 24C9.8457 36.2352 19.7643 46.1539 31.9995 46.1539Z" stroke="#FFD17E" stroke-width="3" stroke-linecap="round" stroke-linejoin="round"/>
<path d="M24.6152 33.8461H34.4614C37.1691 33.8461 39.3845 31.6308 39.3845 28.9231C39.3845 26.2154 37.1691 24 34.4614 24H29.5383C26.8306 24 24.6152 21.7846 24.6152 19.0769C24.6152 16.3692 26.8306 14.1538 29.5383 14.1538H39.3845" stroke="#FFD17E" stroke-width="3" stroke-linecap="round" stroke-linejoin="round"/>
<path d="M32 9.23077V14.1539" stroke="#FFD17E" stroke-width="3" stroke-linecap="round" stroke-linejoin="round"/>
<path d="M32 33.8462V38.7692" stroke="#FFD17E" stroke-width="3" stroke-linecap="round" stroke-linejoin="round"/>
</g>
<defs>
<clipPath id="clip0_129_335">
<rect width="128.42" height="90.85" fill="white" transform="translate(0 5)"/>
</clipPath>
<clipPath id="clip1_129_335">
<rect width="48" height="48" fill="white" transform="translate(8)"/>
</clipPath>
</defs>
</svg>
