<svg width="100" height="100" viewBox="0 0 100 100" fill="none" xmlns="http://www.w3.org/2000/svg">
<g clip-path="url(#clip0_63_1192)">
<path opacity="0.5" d="M63.7733 36.675C60.0399 32.9416 55.0756 30.8852 49.7959 30.8852C44.5162 30.8852 39.5525 32.9416 35.8191 36.675C32.0856 40.4091 30.0293 45.3728 30.0293 50.6525C30.0293 55.9321 32.0856 60.8958 35.8191 64.6293C36.1306 64.9408 36.4511 65.2415 36.771 65.5218C37.5811 66.2342 38.4538 66.8835 39.3648 67.4511C42.4784 69.3925 46.0854 70.4191 49.7959 70.4191C53.5064 70.4191 57.114 69.3925 60.2276 67.4511C61.138 66.8835 62.0113 66.2342 62.8215 65.5211C63.1451 65.237 63.4656 64.937 63.7733 64.6293C67.5068 60.8958 69.5631 55.9321 69.5631 50.6525C69.5631 45.3728 67.5068 40.4091 63.7733 36.675ZM66.7081 50.6525C66.7081 56.2296 63.9508 61.4481 59.3325 64.612C57.8655 65.6182 56.2586 66.3824 54.5572 66.8822C53.0161 67.3349 51.4136 67.5641 49.7959 67.5641C48.1782 67.5641 46.5757 67.3349 45.0352 66.8816C43.3339 66.3817 41.727 65.6175 40.2599 64.6114C35.6416 61.4474 32.8843 56.229 32.8843 50.6518C32.8843 41.3265 40.4712 33.7396 49.7959 33.7396C59.1206 33.7396 66.7081 41.3265 66.7081 50.6518V50.6525Z" fill="#FEE0AB"/>
<path d="M98.357 47.1622C97.6541 46.2927 96.692 45.6467 95.6278 45.3262C95.6501 45.1219 95.6616 44.915 95.6616 44.7082C95.6616 41.6425 93.168 39.1489 90.1023 39.1489C88.0696 39.1489 86.199 40.2603 85.221 42.0498C84.9828 42.4852 84.9918 42.9998 85.244 43.4262C85.4955 43.8502 85.9398 44.103 86.4333 44.103C86.9268 44.103 87.4069 43.8246 87.6508 43.3764C88.1417 42.4763 89.0808 41.917 90.1023 41.917C91.6415 41.917 92.8934 43.169 92.8934 44.7082C92.8934 45.1219 92.8047 45.5196 92.6304 45.8918C92.4236 46.3323 92.4606 46.8373 92.7281 47.2427C92.9847 47.6321 93.4163 47.8645 93.8817 47.8645C93.8983 47.8645 93.9149 47.8645 93.9321 47.8639L93.9615 47.8626C93.9851 47.8613 94.0088 47.8607 94.0317 47.8607C95.5703 47.8607 96.8229 49.1126 96.8229 50.6512C96.8229 52.1898 95.571 53.4423 94.0317 53.4423C94.0081 53.4423 93.9851 53.4417 93.9621 53.4404L93.9321 53.4391C93.9149 53.4391 93.8977 53.4385 93.8811 53.4385C93.4157 53.4385 92.9847 53.6709 92.7275 54.0603C92.4593 54.4663 92.4229 54.9713 92.6298 55.4112C92.8047 55.7834 92.8928 56.1818 92.8928 56.5948C92.8928 58.134 91.6409 59.386 90.1017 59.386C88.9602 59.386 87.9144 58.6697 87.4995 57.6035C87.2882 57.0602 86.7806 56.7091 86.2067 56.7091H86.2003C85.7445 56.7091 85.3174 56.9338 85.0588 57.3098C84.799 57.6872 84.7434 58.1481 84.9062 58.5739C85.7247 60.7158 87.8123 62.1548 90.1017 62.1548C93.1673 62.1548 95.661 59.6611 95.661 56.5955C95.661 56.3893 95.6495 56.1824 95.6271 55.9775C96.6907 55.657 97.6535 55.0109 98.3564 54.1414C99.1525 53.1563 99.5904 51.9172 99.5904 50.6518C99.5904 49.3865 99.1518 48.1473 98.3564 47.1622H98.357Z" fill="#FEE0AB"/>
<path d="M89.0798 45.2994C89.0204 45.2994 88.9598 45.3032 88.9004 45.3109L75.3717 47.0097C74.591 47.108 74.0355 47.823 74.1332 48.6038C74.2226 49.3163 74.831 49.8532 75.5479 49.8532C75.608 49.8532 75.6686 49.8494 75.728 49.8417L89.256 48.1435C89.6346 48.0963 89.9716 47.9041 90.2053 47.6028C90.439 47.3014 90.5417 46.9273 90.4945 46.5494C90.4051 45.8369 89.7967 45.3 89.0798 45.3V45.2994Z" fill="#FEE0AB"/>
<path d="M89.2564 53.1614L75.7278 51.4626C75.6684 51.4549 75.6084 51.4511 75.549 51.4511C74.8321 51.4511 74.2237 51.988 74.1343 52.7005C74.0871 53.0784 74.1892 53.4525 74.4235 53.7539C74.6572 54.0552 74.9943 54.2467 75.3728 54.2946L88.9015 55.9934C88.9602 56.0011 89.0209 56.0049 89.0809 56.0049C89.7978 56.0049 90.4062 55.468 90.4956 54.7555C90.5429 54.3776 90.4407 54.0029 90.2064 53.7022C89.9728 53.4008 89.6357 53.2093 89.2571 53.1614H89.2564Z" fill="#FEE0AB"/>
<path d="M13.3898 56.7091H13.3834C12.8095 56.7091 12.3019 57.0602 12.0906 57.6035C11.6756 58.6697 10.6305 59.386 9.48842 59.386C7.9492 59.386 6.69727 58.134 6.69727 56.5948C6.69727 56.1818 6.78601 55.7834 6.9603 55.4112C7.16714 54.9713 7.13012 54.4663 6.86262 54.0603C6.60598 53.6709 6.17441 53.4385 5.70964 53.4385C5.69241 53.4385 5.67581 53.4385 5.65857 53.4391L5.6292 53.4404C5.60494 53.4417 5.58196 53.4423 5.55834 53.4423C4.01976 53.4423 2.76719 52.1904 2.76719 50.6512C2.76719 49.112 4.01912 47.8607 5.55834 47.8607C5.58196 47.8607 5.60494 47.8613 5.62793 47.8626L5.65729 47.8639C5.67453 47.8639 5.69113 47.8645 5.70837 47.8645C6.17377 47.8645 6.60534 47.6321 6.86198 47.2427C7.13012 46.8367 7.16651 46.3317 6.95966 45.8918C6.78473 45.5196 6.69663 45.1212 6.69663 44.7082C6.69663 43.169 7.94856 41.917 9.48778 41.917C10.5086 41.917 11.4484 42.4763 11.9393 43.3764C12.1838 43.8246 12.6505 44.103 13.1567 44.103C13.663 44.103 14.0946 43.8502 14.3461 43.4262C14.5989 43.0004 14.6072 42.4859 14.3691 42.0498C13.391 40.2603 11.5205 39.1489 9.48778 39.1489C6.42211 39.1489 3.92847 41.6425 3.92847 44.7082C3.92847 44.9144 3.93996 45.1212 3.9623 45.3262C2.8987 45.6467 1.93597 46.2927 1.23308 47.1622C0.436976 48.1473 -0.000976562 49.3865 -0.000976562 50.6518C-0.000976562 51.9172 0.437614 53.157 1.23308 54.1414C1.93597 55.0109 2.89806 55.657 3.9623 55.9775C3.93996 56.1818 3.92847 56.3886 3.92847 56.5955C3.92847 59.6611 6.42211 62.1548 9.48778 62.1548C11.7771 62.1548 13.8648 60.7158 14.6832 58.5739C14.846 58.1481 14.7905 57.6872 14.5306 57.3098C14.2721 56.9338 13.845 56.7091 13.3891 56.7091H13.3898Z" fill="#FEE0AB"/>
<path d="M24.22 47.009L10.6913 45.3102C10.632 45.3025 10.5719 45.2987 10.5119 45.2987C9.795 45.2987 9.18659 45.8356 9.09721 46.5481C9.04997 46.9267 9.15212 47.3008 9.38641 47.6015C9.62007 47.9028 9.95716 48.0943 10.3357 48.1422L23.8644 49.841C23.9231 49.8487 23.9838 49.8525 24.0438 49.8525C24.7607 49.8525 25.3691 49.3156 25.4585 48.6031C25.5568 47.8224 25.0008 47.1073 24.22 47.009Z" fill="#FEE0AB"/>
<path d="M24.0431 51.4518C23.9837 51.4518 23.9237 51.4556 23.8643 51.4633L10.3357 53.1621C9.95711 53.2093 9.62003 53.4015 9.38637 53.7028C9.15271 54.0042 9.04993 54.3783 9.09717 54.7562C9.18655 55.4687 9.79496 56.0056 10.5119 56.0056C10.5719 56.0056 10.6319 56.0018 10.6913 55.9941L24.2193 54.2959C25.0001 54.1976 25.5555 53.4826 25.4578 52.7018C25.3684 51.9893 24.76 51.4524 24.0431 51.4524V51.4518Z" fill="#FEE0AB"/>
<path d="M12.7509 17.3885L13.6868 17.7971C14.0864 17.9714 14.5091 18.0595 14.9445 18.0595C16.3222 18.0595 17.5275 17.1772 17.9431 15.8646C18.0848 15.4177 18.4098 14.8923 18.7724 14.5252C18.9518 14.3535 19.0865 14.2641 19.1688 14.2188C19.1778 14.2271 19.1874 14.2367 19.1976 14.2469C19.5679 14.6172 19.767 15.4816 19.8832 17.2295C19.8832 17.2295 19.8832 17.2327 19.8832 17.2334L19.8845 17.2538C20.0001 18.7745 20.3448 20.1484 20.9104 21.3371C21.478 22.5309 22.2632 23.5364 23.2451 24.3262L23.4532 24.5036C24.0221 24.9888 24.7473 25.2563 25.4949 25.2563C26.335 25.2563 27.1254 24.9288 27.7198 24.3351L28.747 23.3085C29.349 22.7065 29.6848 21.8727 29.6676 21.0211C29.651 20.1701 29.2826 19.3504 28.657 18.7726L28.4744 18.6041C28.461 18.5919 28.4469 18.5792 28.4329 18.567C27.8423 18.0442 27.4536 17.3923 27.3425 15.7637C27.3425 15.7637 27.3425 15.7606 27.3425 15.7599C27.2525 14.4837 27.1439 13.2388 26.8139 12.0214C26.4046 10.5147 25.7107 9.28639 24.6905 8.2662C23.3339 6.90957 21.5738 6.16263 19.7345 6.16263C18.2974 6.16263 16.123 6.6242 13.9224 8.82482C12.5491 10.198 11.4498 11.9997 10.9825 13.6442C10.775 14.3746 10.8375 15.1553 11.1599 15.8429C11.4849 16.5356 12.0492 17.0859 12.7509 17.3911V17.3885ZM26.7289 21.2879L25.7017 22.3152C25.6468 22.3701 25.5734 22.4007 25.4955 22.4007C25.4266 22.4007 25.3589 22.3758 25.3066 22.3311L25.0672 22.1268C25.0672 22.1268 25.0627 22.123 25.0601 22.1211C23.6882 21.0313 22.9048 19.3204 22.7312 17.0367C22.5824 14.8023 22.2869 13.2982 21.2156 12.2276C20.6251 11.637 19.9337 11.3248 19.2148 11.3248C18.3893 11.3248 17.5664 11.7168 16.7697 12.4893C16.769 12.49 16.7678 12.4912 16.7671 12.4919C16.0789 13.1801 15.5012 14.1186 15.2209 15.0021C15.1826 15.1234 15.0709 15.2051 14.9438 15.2051C14.9042 15.2051 14.8647 15.1968 14.8276 15.1802L13.8917 14.7723C13.7583 14.7142 13.6881 14.5635 13.7283 14.4224C14.0634 13.2426 14.9113 11.8701 15.941 10.8409C17.1361 9.64646 18.4474 9.01443 19.7345 9.01443C20.8108 9.01443 21.854 9.46451 22.6718 10.2823C24.0923 11.7022 24.3234 13.5299 24.4945 15.9565C24.6439 18.1438 25.2555 19.5623 26.5393 20.7006L26.72 20.8679C26.7787 20.9221 26.8119 20.9962 26.8139 21.0766C26.8151 21.1564 26.7851 21.2318 26.7283 21.2886L26.7289 21.2879Z" fill="#FEE0AB"/>
<path d="M27.284 28.4069C27.2936 29.5963 27.7845 30.7371 28.6668 31.6194C29.5484 32.5011 30.695 32.9869 31.8959 32.9869C33.0967 32.9869 34.2076 32.5106 35.072 31.6462C36.903 29.8146 36.9017 27.0516 35.0682 25.218C34.1686 24.3185 33.0125 23.8231 31.8123 23.8231C30.612 23.8231 29.5089 24.3013 28.6406 25.1695C27.7558 26.0543 27.2738 27.2041 27.2833 28.4069H27.284ZM31.8129 26.6774C32.2502 26.6774 32.6894 26.876 33.0501 27.2361C33.7664 27.9524 33.7677 28.9132 33.0533 29.6269C32.7233 29.957 32.323 30.1313 31.8953 30.1313C31.4675 30.1313 31.0276 29.9429 30.6848 29.6001C30.3305 29.2458 30.1415 28.8251 30.1377 28.3839C30.1345 27.9453 30.3145 27.5316 30.6593 27.1869C30.9932 26.853 31.3915 26.6768 31.8123 26.6768L31.8129 26.6774Z" fill="#FEE0AB"/>
<path d="M72.5977 24.9729C73.1576 25.5328 73.902 25.8411 74.6936 25.8411C75.4853 25.8411 76.1735 25.5551 76.7257 25.0348L87.1823 15.1885C87.7626 14.642 88.1022 13.8715 88.1144 13.0747C88.1265 12.278 87.8098 11.4979 87.2468 10.9341L85.5799 9.26723C85.02 8.70734 84.2756 8.39899 83.484 8.39899C82.6923 8.39899 81.8834 8.73862 81.3261 9.33107L71.4798 19.7877C70.9487 20.352 70.6627 21.0894 70.6742 21.8644C70.6857 22.6395 70.994 23.3679 71.5418 23.9157L72.5983 24.9722L72.5977 24.9729ZM73.5572 21.745L83.4035 11.2885C83.4316 11.2584 83.4654 11.254 83.4833 11.254C83.5012 11.254 83.5331 11.2584 83.5606 11.2859L85.2275 12.9528C85.2562 12.9815 85.26 13.0147 85.2594 13.032C85.2594 13.0492 85.2543 13.0824 85.2249 13.1098L74.7683 22.9561C74.7421 22.981 74.7128 22.9861 74.693 22.9861C74.6757 22.9861 74.6432 22.9823 74.6157 22.9542L73.5585 21.8976C73.5164 21.8555 73.5151 21.7885 73.556 21.745H73.5572Z" fill="#FEE0AB"/>
<path d="M67.173 33.8654C68.3687 33.8654 69.5153 33.377 70.4027 32.4896C71.2716 31.6213 71.7625 30.5054 71.7862 29.3486C71.8104 28.1432 71.3284 26.9839 70.4295 26.0844C69.5651 25.2199 68.4358 24.7443 67.2496 24.7443C66.0634 24.7443 64.906 25.2295 64.0243 26.1112C63.1663 26.9692 62.6811 28.0851 62.6581 29.2534C62.6338 30.4696 63.1101 31.6283 63.9981 32.5164C64.8683 33.3865 65.9957 33.866 67.1736 33.866L67.173 33.8654ZM66.0423 28.1292C66.3845 27.787 66.8129 27.5987 67.249 27.5987C67.685 27.5987 68.0853 27.7774 68.4102 28.103C68.7601 28.4529 68.9401 28.8634 68.9318 29.2911C68.9235 29.7131 68.7339 30.1211 68.3841 30.4709C68.0361 30.8188 67.6058 31.011 67.1723 31.011C66.7389 31.011 66.3513 30.8335 66.0155 30.4977C65.3369 29.8191 65.3484 28.8232 66.0417 28.1292H66.0423Z" fill="#FEE0AB"/>
<path d="M44.2013 16.7443H47.8818L46.0846 22.1051C45.7444 23.1208 45.9142 24.2463 46.5398 25.1159C47.1655 25.9854 48.1786 26.5044 49.2499 26.5044C49.8711 26.5044 50.4789 26.3314 51.0068 26.0045C51.5348 25.6777 51.9606 25.211 52.2377 24.6549L56.946 15.2083L57.6636 13.7687L57.7638 13.5669C57.9585 13.1973 58.0613 12.7791 58.0613 12.3584C58.0613 10.9271 56.8968 9.76072 55.4655 9.75944H51.7691L53.5579 4.36739C53.8931 3.35742 53.7214 2.23956 53.0983 1.37706C52.4758 0.51456 51.4684 -0.000640869 50.4042 -0.000640869C49.7855 -0.000640869 49.181 0.171093 48.6555 0.496684C48.1301 0.822276 47.7062 1.2864 47.4304 1.83991L42.7183 11.2955L42.0007 12.7351L41.8756 12.986C41.4715 13.7974 41.5149 14.7423 41.9918 15.5128C42.4687 16.284 43.2948 16.7443 44.202 16.7443H44.2013ZM49.9847 3.11355C50.0645 2.95394 50.2248 2.85435 50.4035 2.85435C50.5555 2.85435 50.694 2.92521 50.7827 3.04843C50.8715 3.17164 50.8951 3.3255 50.8472 3.46978L47.9246 12.2793C47.899 12.3572 47.9118 12.4427 47.9597 12.5091C48.0076 12.5755 48.0848 12.6151 48.1665 12.6151H55.048L54.3898 13.936L49.6821 23.3826C49.5998 23.5479 49.4338 23.6507 49.2493 23.6507C49.0916 23.6507 48.9486 23.5773 48.8566 23.4496C48.7647 23.3219 48.7405 23.163 48.7909 23.0129L51.7365 14.2271C51.7627 14.1492 51.7499 14.0636 51.7014 13.9966C51.6535 13.9302 51.5763 13.8906 51.4939 13.8906H44.6131L45.2713 12.5697L49.9834 3.11418L49.9847 3.11355Z" fill="#FEE0AB"/>
<path opacity="0.5" d="M34.5521 71.3077C34.6581 70.7868 34.4755 70.2729 34.0637 69.9332L34.0394 69.9134C33.7873 69.7047 33.4674 69.5904 33.1393 69.5904C33.0026 69.5904 32.8673 69.6102 32.7364 69.6485C29.8521 70.5008 27.2039 72.1064 25.0786 74.2917C23.473 75.9426 22.2217 77.8745 21.358 80.0336C20.5018 82.1742 20.0684 84.4374 20.0684 86.7593V98.5712C20.0684 99.1152 20.371 99.6048 20.8574 99.8481C21.0592 99.9489 21.2737 100 21.4952 100C22.2824 100 22.9227 99.359 22.9227 98.5712V86.6373C22.9227 80.107 27.2965 74.2476 33.5593 72.3886C34.0745 72.236 34.4455 71.8319 34.5521 71.3077Z" fill="#FEE0AB"/>
<path opacity="0.5" d="M74.3241 74.0995C73.2746 73.0512 72.1031 72.1402 70.8435 71.3907C69.5922 70.6463 68.2509 70.0603 66.856 69.6485C66.7251 69.6095 66.5891 69.5904 66.4531 69.5904C66.125 69.5904 65.8051 69.7053 65.5536 69.9134L65.5281 69.9345C65.1169 70.2735 64.9343 70.7874 65.0403 71.3084C65.1469 71.8325 65.5178 72.2366 66.033 72.3892C72.2959 74.2483 76.6697 80.1076 76.6697 86.638V98.5719C76.6697 99.3597 77.31 100.001 78.0972 100.001C78.3187 100.001 78.5332 99.9496 78.7349 99.8487C79.2214 99.6055 79.524 99.1164 79.524 98.5719V86.7625C79.524 84.394 79.0727 82.0886 78.1827 79.911C77.2857 77.7155 75.9872 75.7607 74.3241 74.1001V74.0995Z" fill="#FEE0AB"/>
<path opacity="0.5" d="M33.5359 87.6531C32.7487 87.6531 32.1084 88.2934 32.1084 89.0806V98.5732C32.1084 99.3603 32.7487 100.001 33.5359 100.001C34.3231 100.001 34.9634 99.3603 34.9634 98.5732V89.0806C34.9634 88.2934 34.3231 87.6531 33.5359 87.6531Z" fill="#FEE0AB"/>
<path opacity="0.5" d="M66.0564 87.6531C65.2692 87.6531 64.6289 88.2934 64.6289 89.0806V98.5732C64.6289 99.3603 65.2692 100.001 66.0564 100.001C66.8436 100.001 67.4839 99.3603 67.4839 98.5732V89.0806C67.4839 88.2934 66.8436 87.6531 66.0564 87.6531Z" fill="#FEE0AB"/>
</g>
<defs>
<clipPath id="clip0_63_1192">
<rect width="99.592" height="100" fill="white"/>
</clipPath>
</defs>
</svg>
