<svg width="123" height="79" viewBox="0 0 123 79" fill="none" xmlns="http://www.w3.org/2000/svg">
<g clip-path="url(#clip0_62_787)">
<path d="M35.2173 42.3307C28.2178 42.3307 22.5225 36.6565 22.5225 29.6831C22.5225 22.7096 28.2178 17.0354 35.2173 17.0354C42.2167 17.0354 47.9121 22.7096 47.9121 29.6831C47.9121 31.3907 47.5764 33.0473 46.9129 34.6068C46.5004 35.5819 45.3731 36.0362 44.3944 35.6253C43.4183 35.2143 42.9597 34.0912 43.3722 33.1162C43.8333 32.0314 44.0665 30.8751 44.0665 29.6831C44.0665 24.8205 40.0954 20.8642 35.2147 20.8642C30.3341 20.8642 26.3629 24.8205 26.3629 29.6831C26.3629 34.5456 30.3341 38.502 35.2147 38.502C36.7365 38.502 38.2379 38.1114 39.5573 37.3712C40.4822 36.8505 41.6531 37.1772 42.1757 38.0987C42.6958 39.0201 42.3704 40.1866 41.4455 40.7073C39.5522 41.7717 37.4001 42.3333 35.2173 42.3333V42.3307Z" fill="#FFD17E"/>
<path d="M47.0999 49.7049H26.5986C23.4986 49.7049 20.9775 47.1932 20.9775 44.1047C20.9775 41.0162 23.4986 38.502 26.5986 38.502H40.7051C41.7658 38.502 42.6266 39.3596 42.6266 40.4163C42.6266 41.4731 41.7658 42.3307 40.7051 42.3307H26.5986C25.6174 42.3307 24.8206 43.1271 24.8206 44.1047C24.8206 45.0823 25.6199 45.8761 26.5986 45.8761H47.0999C48.0811 45.8761 48.8779 45.0798 48.8779 44.1047C48.8779 43.048 49.7388 42.1903 50.7994 42.1903C51.8601 42.1903 52.721 43.048 52.721 44.1047C52.721 47.1932 50.1999 49.7049 47.0999 49.7049Z" fill="#FFD17E"/>
<path d="M62.3465 43.6478H44.4073C41.2662 43.6478 38.7119 41.1464 38.7119 38.0706V38.0451C38.7119 34.9412 41.2662 32.4168 44.4073 32.4168H50.7534C51.8141 32.4168 52.6749 33.2744 52.6749 34.3312C52.6749 35.3879 51.8141 36.2456 50.7534 36.2456H44.4073C43.4209 36.2456 42.5549 37.0853 42.5549 38.0451V38.0706C42.5549 39.0176 43.403 39.8191 44.4073 39.8191H62.3465C63.2971 39.8191 64.0759 39.0788 64.122 38.1497C64.122 38.1293 64.122 38.1063 64.122 38.0859C64.122 37.4427 63.7582 37.1032 62.5899 36.3502C62.4567 36.2634 62.3235 36.1792 62.1979 36.095L52.6391 30.9874C51.7039 30.4871 51.3529 29.3283 51.8551 28.3966C52.3572 27.4649 53.5229 27.1152 54.4555 27.6155L64.1015 32.7716C64.1605 32.8022 64.2194 32.838 64.2757 32.8762C64.4038 32.963 64.5396 33.0498 64.678 33.1417C65.8821 33.9177 67.8831 35.2092 67.9599 37.9251C67.9625 37.9736 67.9651 38.0221 67.9651 38.0706C67.9651 41.1489 65.444 43.6529 62.3465 43.6529V43.6478Z" fill="#FFD17E"/>
<path d="M82.7989 36.0184C81.7382 36.0184 80.8773 35.1607 80.8773 34.104C80.8773 29.3129 77.0318 25.7011 71.9308 25.7011H44.8502C43.7895 25.7011 42.9287 24.8435 42.9287 23.7868C42.9287 22.73 43.7895 21.8724 44.8502 21.8724H71.9308C79.1044 21.8724 84.7204 27.2454 84.7204 34.104C84.7204 35.1607 83.8595 36.0184 82.7989 36.0184Z" fill="#FFD17E"/>
<path d="M96.8827 43.6963H70.8629C67.6322 43.6963 65.001 41.0774 65.001 37.8562C65.001 35.8218 66.036 33.9687 67.7705 32.8941L72.1029 30.214C73.0047 29.655 74.1884 29.9332 74.7495 30.8317C75.308 31.7302 75.0313 32.9094 74.1294 33.4684L69.7996 36.146C69.2027 36.5161 68.8466 37.1542 68.8466 37.8536C68.8466 38.9614 69.751 39.865 70.8654 39.865H96.8853C97.8461 39.865 98.6275 39.0865 98.6275 38.1293C98.6275 37.1721 97.8461 36.3936 96.8853 36.3936H77.7957C76.735 36.3936 75.8742 35.536 75.8742 34.4792C75.8742 33.4225 76.735 32.5648 77.7957 32.5648H96.8853C99.9649 32.5648 102.471 35.0612 102.471 38.1293C102.471 41.1974 99.9649 43.6938 96.8853 43.6938L96.8827 43.6963Z" fill="#FFD17E"/>
<path d="M63.8014 49.7075C61.8825 49.7075 60.0583 48.957 58.6569 47.5838C57.1991 46.1569 56.3613 44.1813 56.3613 42.1597C56.3613 41.103 57.2222 40.2453 58.2828 40.2453C59.3435 40.2453 60.2044 41.103 60.2044 42.1597C60.2044 43.1577 60.622 44.1405 61.3496 44.8526C62.0439 45.5316 62.938 45.9042 63.8655 45.8787C63.8783 45.8787 63.8885 45.8787 63.9013 45.8787H84.0798C85.6273 45.8404 87.144 44.0026 87.144 42.1623C87.144 41.1055 88.0048 40.2479 89.0655 40.2479C90.1262 40.2479 90.987 41.1055 90.987 42.1623C90.987 46.1161 87.7845 49.6411 84.1362 49.7075C84.1234 49.7075 84.1131 49.7075 84.1003 49.7075H63.9167C63.8783 49.7075 63.8399 49.7075 63.8014 49.7075Z" fill="#FFD17E"/>
<path d="M109.805 40.3296H105.834C104.773 40.3296 103.913 39.4719 103.913 38.4152C103.913 37.3584 104.773 36.5008 105.834 36.5008H107.884V7.72388C107.884 5.57722 106.129 3.82876 103.974 3.82876H18.9816C17.0037 3.82876 15.3948 5.43173 15.3948 7.40226V36.2456H19.494C20.5547 36.2456 21.4155 37.1032 21.4155 38.1599C21.4155 39.2167 20.5547 40.0743 19.494 40.0743H13.4733C12.4126 40.0743 11.5518 39.2167 11.5518 38.1599V7.40226C11.5518 3.32081 14.8849 0 18.9816 0H103.974C108.25 0 111.727 3.46375 111.727 7.72388V38.4152C111.727 39.4719 110.866 40.3296 109.805 40.3296Z" fill="#FEE0AB"/>
<path d="M120.95 60.4944H1.92124C1.23718 60.4944 0.606923 60.1319 0.26105 59.5448C-0.0822605 58.9578 -0.0873845 58.2303 0.24824 57.6381L11.8439 37.2257C12.3666 36.3043 13.54 35.9827 14.4623 36.5034C15.3847 37.0241 15.71 38.1931 15.1874 39.112L5.216 56.6682H117.704L108.122 39.2882C107.612 38.3616 107.95 37.1977 108.88 36.6897C109.81 36.1818 110.979 36.5187 111.489 37.4453L122.633 57.6611C122.961 58.2533 122.948 58.9756 122.603 59.5576C122.257 60.1396 121.629 60.4969 120.95 60.4969V60.4944Z" fill="#FEE0AB"/>
<path d="M1.94495 79C0.884276 79 0.0234375 78.1423 0.0234375 77.0856V43.5483C0.0234375 39.6097 1.99363 35.9622 5.29095 33.7926L12.4134 29.1062C13.2998 28.5242 14.4912 28.7667 15.0753 29.6473C15.6594 30.5305 15.4161 31.7174 14.5322 32.2994L7.40974 36.9858C5.19103 38.4458 3.86647 40.8988 3.86647 43.5483V77.0856C3.86647 78.1423 3.00563 79 1.94495 79Z" fill="#FEE0AB"/>
<path d="M121.078 79C120.017 79 119.156 78.1424 119.156 77.0856V42.5936C119.156 39.6991 117.568 37.0471 115.009 35.6713L108.893 32.3862C107.958 31.8833 107.609 30.7245 108.114 29.7928C108.619 28.8612 109.782 28.514 110.717 29.0169L116.833 32.302C120.637 34.344 123 38.2876 123 42.5936V77.0856C123 78.1424 122.139 79 121.078 79Z" fill="#FEE0AB"/>
</g>
<defs>
<clipPath id="clip0_62_787">
<rect width="123" height="79" fill="white"/>
</clipPath>
</defs>
</svg>
