<svg width="76" height="110" viewBox="0 0 76 110" fill="none" xmlns="http://www.w3.org/2000/svg">
<g clip-path="url(#clip0_65_1524)">
<path d="M33.7496 61.81C28.4096 61.81 23.0696 59.81 19.0096 55.8C15.0696 51.91 12.8896 46.75 12.8896 41.25C12.8896 35.75 15.0596 30.58 19.0096 26.69C27.1396 18.69 40.3697 18.68 48.4897 26.69C52.4397 30.58 54.6096 35.75 54.6096 41.25C54.6096 46.75 52.4397 51.91 48.4897 55.8C44.4297 59.8 39.0896 61.81 33.7496 61.81ZM33.7496 23.36C29.0896 23.36 24.4296 25.11 20.8796 28.6C17.4496 31.98 15.5596 36.48 15.5596 41.25C15.5596 46.03 17.4496 50.52 20.8796 53.9C27.9696 60.89 39.5196 60.89 46.6196 53.9C50.0496 50.52 51.9396 46.03 51.9396 41.25C51.9396 36.47 50.0496 31.98 46.6196 28.6C43.0696 25.11 38.4096 23.36 33.7496 23.36Z" fill="#FFD17E"/>
<path d="M47.5594 28.98C47.2194 28.98 46.8694 28.85 46.6094 28.58C46.0894 28.05 46.0994 27.21 46.6294 26.69L73.3494 0.380038C73.8694 -0.129962 74.7194 -0.129962 75.2294 0.390038C75.7494 0.920038 75.7394 1.76004 75.2094 2.28004L48.4894 28.6C48.2294 28.86 47.8894 28.98 47.5594 28.98Z" fill="#FFD17E"/>
<path d="M69.9595 17.92C69.8395 17.92 69.7195 17.9 69.5995 17.87C68.8895 17.67 68.4795 16.93 68.6795 16.22L72.2995 3.43999L59.3095 7.99999C58.6095 8.22999 57.8495 7.87999 57.6095 7.17999C57.3695 6.48999 57.7295 5.71999 58.4195 5.47999L73.8395 0.0699902C74.3095 -0.0900098 74.8295 0.0199902 75.1995 0.35999C75.5595 0.69999 75.6995 1.21999 75.5695 1.68999L71.2495 16.95C71.0795 17.54 70.5495 17.92 69.9695 17.92H69.9595Z" fill="#FFD17E"/>
<path d="M20.15 74.49C9.04 74.49 0 65.58 0 54.62C0 43.66 9.04 34.76 20.15 34.76C31.26 34.76 40.3 43.67 40.3 54.62C40.3 65.57 31.26 74.49 20.15 74.49ZM20.15 37.42C10.51 37.42 2.67 45.13 2.67 54.62C2.67 64.11 10.51 71.82 20.15 71.82C29.79 71.82 37.63 64.1 37.63 54.62C37.63 45.14 29.79 37.42 20.15 37.42Z" fill="#FEE0AB"/>
<path d="M20.1503 109.33C19.4103 109.33 18.8203 108.73 18.8203 108V73.1501C18.8203 72.4101 19.4203 71.8201 20.1503 71.8201C20.8803 71.8201 21.4803 72.4201 21.4803 73.1501V108C21.4803 108.74 20.8803 109.33 20.1503 109.33Z" fill="#FEE0AB"/>
<path d="M27.3801 101.5H12.9101C12.1701 101.5 11.5801 100.9 11.5801 100.17C11.5801 99.44 12.1801 98.84 12.9101 98.84H27.3801C28.1201 98.84 28.7101 99.44 28.7101 100.17C28.7101 100.9 28.1101 101.5 27.3801 101.5Z" fill="#FEE0AB"/>
</g>
<defs>
<clipPath id="clip0_65_1524">
<rect width="75.62" height="109.33" fill="white"/>
</clipPath>
</defs>
</svg>
