<svg width="95" height="107" viewBox="0 0 95 107" fill="none" xmlns="http://www.w3.org/2000/svg">
<g clip-path="url(#clip0_63_1288)">
<path d="M78.6154 55.214C78.6154 55.214 78.4684 55.214 78.3215 55.214C78.3215 55.214 72.4437 54.3388 68.5497 53.7553C71.0477 49.9625 72.5172 45.2945 72.5172 40.1888C72.5172 27.9352 63.9209 17.8698 53.4143 17.8698C42.9077 17.8698 34.3114 27.8623 34.3114 40.1888C34.3114 44.2733 35.2666 48.0661 36.883 51.4213C36.8095 51.713 36.6626 51.9318 36.5891 52.2236C36.4422 52.5883 36.3687 52.88 36.2952 53.2447H33.1359C24.4661 53.2447 16.5311 57.9127 12.3432 65.4983L0.29366 89.0573C-0.000229793 89.5678 -0.0737024 90.2243 0.146715 90.7348C0.367133 91.3183 0.734496 91.756 1.2488 92.0477C1.32228 92.0477 1.39575 92.0477 1.46922 92.1207C2.49784 92.4853 3.74687 92.0477 4.26118 91.0266L16.3841 67.3947C19.6169 61.4867 25.7886 57.7669 32.5481 57.5481C32.7685 57.5481 32.9889 57.5481 33.2094 57.5481H34.3849L23.0702 70.8957L14.7678 80.6694C14.4004 81.107 14.18 81.6905 14.2534 82.274C14.2534 82.8575 14.6208 83.3681 15.0616 83.8057C15.9433 84.5351 17.4128 84.4622 18.221 83.514L22.8497 78.0436L25.1274 75.4179L27.405 72.7921L39.6749 58.3504C39.9688 57.9127 40.1158 57.4751 40.1892 57.0375C40.1892 56.7457 40.1893 56.454 40.2627 56.2352C40.2627 56.0164 40.2627 55.7975 40.3362 55.6517C40.4831 54.9223 40.6301 54.2659 40.8505 53.5365C40.8505 53.3906 40.9974 53.1718 41.0709 53.0259C41.2913 52.3695 41.5852 51.713 41.9526 51.1295C43.7159 47.9932 46.3609 46.0968 48.2712 46.0968C48.6386 46.0968 49.0794 46.0968 49.4468 46.2427C50.9897 46.6803 52.5326 48.7955 52.5326 52.5153C52.5326 52.5883 52.5326 52.6612 52.5326 52.7342C52.5326 53.4635 52.4592 54.1929 52.3122 54.9952C52.1653 55.7246 52.0183 56.454 51.7979 57.1834C51.7979 57.4022 51.651 57.5481 51.5775 57.6939C51.2836 58.4233 50.9897 59.1527 50.5489 59.8091C50.108 60.5385 49.6672 61.195 49.1529 61.7785C48.7855 62.1432 48.4916 62.5078 48.1243 62.8725L27.3316 87.3068L25.0539 89.9325L22.7763 92.5583L17.4862 98.758C16.3841 100.071 13.5922 101.019 11.0941 101.019H10.9472C10.5063 101.019 10.0655 101.019 9.69815 101.019C8.52259 100.873 7.49397 101.676 7.27355 102.77C7.27355 102.77 7.27355 102.915 7.27355 102.988C7.12661 104.228 8.00828 105.322 9.25731 105.468C9.84509 105.468 10.4329 105.541 11.0207 105.541C13.4452 105.541 17.9271 105.031 20.9394 101.748L22.8497 99.4874V104.666C22.8497 105.906 23.8783 106.927 25.1274 106.927C26.3764 106.927 27.405 105.906 27.405 104.666V94.1629L51.2836 66.0089C52.4592 64.9877 53.4143 63.7478 54.296 62.289C58.4104 62.0702 62.231 60.3926 65.2434 57.5481C67.8149 57.9857 76.4112 59.2256 77.5868 59.3715C80.8196 60.2468 90.5179 63.7478 90.5179 73.0109V104.593C90.5179 105.833 91.5466 106.854 92.7956 106.854C94.0446 106.854 95.0732 105.833 95.0732 104.593V73.0109C95.0732 63.0913 86.6239 57.2563 78.6889 55.0682L78.6154 55.214ZM57.0879 57.4022C57.0879 57.4022 56.5736 57.5481 56.2797 57.621C56.2797 57.5481 56.2797 57.4751 56.3532 57.4022C56.5736 56.6728 56.7206 55.9434 56.794 55.214C56.8675 54.4847 56.941 53.7553 57.0145 52.953C57.0145 52.8071 57.0145 52.7342 57.0145 52.5883C57.0145 47.4097 54.6633 43.3981 50.8428 42.0852C50.0346 41.7935 49.2264 41.6476 48.3447 41.6476C45.1119 41.7205 42.0995 43.471 39.7484 46.3885C39.1606 44.4192 38.7933 42.304 38.7933 40.1159C38.7933 30.2693 45.3323 22.319 53.4143 22.319C61.4963 22.319 68.0353 30.3422 68.0353 40.1159C68.0353 45.2215 66.272 49.8166 63.4066 53.0988C62.6718 53.9012 61.9371 54.6305 61.1289 55.287C59.8799 56.2352 58.5574 56.9646 57.0879 57.4022ZM81.4808 75.7826V104.739C81.4808 105.979 80.4522 107 79.2032 107C77.9541 107 76.9255 105.979 76.9255 104.739V75.7826C76.9255 74.5426 77.9541 73.5215 79.2032 73.5215C80.4522 73.5215 81.4808 74.5426 81.4808 75.7826ZM81.4808 40.1159V31.2175C81.4808 29.9775 82.5094 28.9564 83.7585 28.9564C85.0075 28.9564 86.0361 29.9775 86.0361 31.2175V40.1159C86.0361 41.3558 85.0075 42.377 83.7585 42.377C82.5094 42.377 81.4808 41.3558 81.4808 40.1159ZM81.4808 49.0143C81.4808 47.7744 82.5094 46.7532 83.7585 46.7532C85.0075 46.7532 86.0361 47.7744 86.0361 49.0143C86.0361 50.2543 85.0075 51.2754 83.7585 51.2754C82.5094 51.2754 81.4808 50.2543 81.4808 49.0143ZM29.8296 26.6953C29.8296 25.4554 30.7848 24.4342 32.1073 24.4342C33.4298 24.4342 34.3849 25.4554 34.3849 26.6953C34.3849 27.9352 33.3563 28.9564 32.1073 28.9564C30.8582 28.9564 29.8296 27.9352 29.8296 26.6953ZM29.8296 17.7969V8.89843C29.8296 7.65849 30.7848 6.63736 32.1073 6.63736C33.4298 6.63736 34.3849 7.65849 34.3849 8.89843V17.7969C34.3849 19.0368 33.3563 20.0579 32.1073 20.0579C30.8582 20.0579 29.8296 19.0368 29.8296 17.7969ZM20.866 44.5651C20.866 43.3252 21.8211 42.304 23.1436 42.304C24.4661 42.304 25.4213 43.3252 25.4213 44.5651C25.4213 45.805 24.3927 46.8262 23.1436 46.8262C21.8946 46.8262 20.866 45.805 20.866 44.5651ZM20.866 35.6667V26.7682C20.866 25.5283 21.8211 24.5072 23.1436 24.5072C24.4661 24.5072 25.4213 25.5283 25.4213 26.7682V35.6667C25.4213 36.9066 24.3927 37.9277 23.1436 37.9277C21.8946 37.9277 20.866 36.9066 20.866 35.6667ZM70.2395 24.5072C70.2395 23.2672 71.2681 22.2461 72.5172 22.2461C73.7662 22.2461 74.7948 23.2672 74.7948 24.5072C74.7948 25.7471 73.7662 26.7682 72.5172 26.7682C71.2681 26.7682 70.2395 25.7471 70.2395 24.5072ZM70.2395 15.6087V6.71029C70.2395 5.47035 71.2681 4.44922 72.5172 4.44922C73.7662 4.44922 74.7948 5.47035 74.7948 6.71029V15.6087C74.7948 16.8487 73.7662 17.8698 72.5172 17.8698C71.2681 17.8698 70.2395 16.8487 70.2395 15.6087ZM11.9023 20.0579C11.9023 18.818 12.9309 17.7969 14.18 17.7969C15.429 17.7969 16.4576 18.818 16.4576 20.0579C16.4576 21.2979 15.429 22.319 14.18 22.319C12.9309 22.319 11.9023 21.2979 11.9023 20.0579ZM11.9023 11.1595V2.26108C11.9023 1.02113 12.9309 0 14.18 0C15.429 0 16.4576 1.02113 16.4576 2.26108V11.1595C16.4576 12.3995 15.429 13.4206 14.18 13.4206C12.9309 13.4206 11.9023 12.3995 11.9023 11.1595ZM4.33465 97.5181C4.84896 98.5392 4.55507 99.7062 3.6734 100.363C3.59992 100.363 3.52645 100.509 3.45298 100.509C3.08562 100.654 2.79173 100.8 2.35089 100.8C1.54269 100.8 0.807968 100.363 0.367133 99.6333C-0.220647 98.5392 0.220188 97.2263 1.2488 96.6428C1.32228 96.6428 1.39575 96.5699 1.54269 96.4969C2.57131 96.1322 3.82034 96.4969 4.33465 97.4451V97.5181Z" fill="#FEE0AB"/>
</g>
<defs>
<clipPath id="clip0_63_1288">
<rect width="95" height="107" fill="white"/>
</clipPath>
</defs>
</svg>
