<svg width="289" height="299" viewBox="0 0 289 299" fill="none" xmlns="http://www.w3.org/2000/svg">
<g opacity="0.1" clip-path="url(#clip0_88_272)">
<path d="M286.873 138.983C284.662 131.288 280.383 124.775 275.746 118.354C271.433 112.377 267.549 106.265 264.39 99.5916C258.44 87.0197 254.631 73.58 249.872 60.5407C245.154 47.6138 239.435 34.8335 230.301 24.3883C221.671 14.5191 210.116 7.36727 197.665 3.44715C185.19 -0.480225 171.627 -1.14505 158.892 1.92366C151.371 3.73699 144.3 7.00678 137.38 10.4034C130 14.0264 122.654 17.6259 114.936 20.4845C108.334 22.93 101.586 24.9517 94.7363 26.5657C94.4473 26.4987 94.1294 26.4896 93.7862 26.5531C79.0436 29.2884 69.176 41.8513 61.3387 53.6425C57.0308 60.1259 52.9216 66.8086 47.6112 72.5366C42.4815 78.0708 36.4576 82.6467 30.6162 87.382C24.8236 92.0774 19.2802 97.0102 14.77 102.992C10.5325 108.611 7.31197 114.941 4.95662 121.569C0.209797 134.943 -0.892015 149.573 0.654135 163.627C3.69586 191.256 16.5184 217.576 36.2752 237.068C46.7894 247.44 59.2344 255.369 72.3442 262.025C86.1169 269.017 100.469 274.782 114.229 281.798C117.625 283.529 120.983 285.336 124.278 287.252C127.679 289.23 130.953 291.417 134.358 293.39C141.323 297.422 148.832 299.498 156.906 298.898C173.151 297.69 186.51 287.942 198.959 278.278C221.499 260.779 244.391 242.906 262.141 220.309C270.902 209.158 278.287 196.953 283.309 183.648C288.605 169.618 291.079 153.636 286.871 138.985L286.873 138.983ZM284.311 160.873C282.986 175.132 277.31 188.818 270.103 201.053C256 224.996 234.983 243.932 213.593 261.203C208.142 265.605 202.622 269.92 197.093 274.22C190.975 278.977 184.809 283.738 178.044 287.547C171.397 291.29 164.066 294.069 156.398 294.545C152.632 294.779 148.864 294.484 145.225 293.46C141.48 292.408 138.081 290.547 134.774 288.535C128.307 284.6 121.873 280.74 115.105 277.336C108.424 273.976 101.611 270.891 94.8049 267.798C81.2635 261.648 67.6389 255.44 55.2986 247.046C33.0005 231.878 16.4913 208.799 8.92495 182.891C1.47598 157.383 1.9438 126.273 19.0472 104.566C28.1904 92.9615 41.5657 85.835 51.3809 74.9006C61.1978 63.9663 67.1007 49.9488 77.9454 39.8894C81.9769 36.1505 86.6154 33.1379 91.8373 31.5456C92.1028 31.5891 92.3918 31.5854 92.7025 31.5184C100.65 29.8011 108.473 27.5367 116.101 24.7144C123.672 21.9119 130.934 18.4664 138.166 14.8941C144.97 11.5338 151.854 8.24042 159.236 6.35825C165.344 4.80035 171.645 4.19349 177.939 4.42899C190.543 4.89998 202.985 8.85271 213.582 15.7093C224.633 22.8594 232.689 33.1488 238.554 44.8439C244.561 56.8271 248.38 69.7451 252.819 82.3532C255.09 88.8022 257.523 95.2059 260.425 101.398C263.435 107.816 267.078 113.774 271.216 119.518C275.665 125.696 280.105 131.857 282.38 139.219C284.544 146.22 284.99 153.602 284.315 160.873H284.311Z" fill="#B6B6B6"/>
<path d="M268.57 117.845C264.592 112.312 261.177 106.503 258.33 100.305C252.834 88.335 249.239 75.6054 244.641 63.2835C240.087 51.0847 234.489 39.0363 225.637 29.3357C217.343 20.2473 206.418 13.6896 194.694 10.1245C182.809 6.50873 169.93 5.9689 157.847 8.93617C150.641 10.7042 143.848 13.8327 137.183 17.0336C130.251 20.3632 123.335 23.6366 116.09 26.2398C109.824 28.4915 103.424 30.3447 96.9344 31.812C96.6653 31.7558 96.3727 31.7486 96.0566 31.8048C82.1773 34.3373 72.7632 46.0252 65.3304 57.108C61.2086 63.2527 57.3107 69.6075 52.2947 75.0801C47.4486 80.3661 41.7209 84.7174 36.1541 89.1954C30.5493 93.7043 25.1576 98.4179 20.7901 104.179C16.5563 109.763 13.37 116.084 11.1014 122.71C6.19201 137.059 5.71877 152.673 8.11747 167.556C12.2935 193.456 25.7645 217.833 45.2702 235.287C66.8477 254.594 94.8807 263.065 119.959 276.517C123.141 278.225 126.279 280.019 129.349 281.923C132.521 283.89 135.644 285.962 139.018 287.573C145.79 290.806 153.125 291.587 160.505 290.493C175.528 288.267 187.796 278.53 199.461 269.503C220.807 252.984 242.263 235.952 258.778 214.357C266.951 203.669 273.797 191.825 278.164 179.052C282.767 165.596 284.544 150.265 279.651 136.626C277.149 129.652 272.847 123.797 268.566 117.843L268.57 117.845ZM278.19 157.729C277.447 171.221 272.439 184.244 265.88 195.919C253.002 218.844 233.297 236.974 213.105 253.348C208.01 257.48 202.844 261.521 197.658 265.538C191.898 269.996 186.161 274.534 179.946 278.349C167.848 285.778 152.915 290.098 139.623 283.098C136.336 281.367 133.254 279.276 130.079 277.352C127.064 275.526 123.987 273.804 120.869 272.159C114.688 268.896 108.355 265.936 102.001 263.032C89.2651 257.212 76.3648 251.6 64.4309 244.207C42.5085 230.628 25.6236 209.924 17.0801 185.488C12.6042 172.686 10.3663 159.044 11.1122 145.472C11.8907 131.33 16.0577 116.854 25.0023 105.669C33.7175 94.7731 46.3359 88.0487 55.6399 77.7485C65.0974 67.2761 70.7654 53.7893 81.3031 44.2444C85.0854 40.8171 89.4276 38.0817 94.2828 36.6325C94.5158 36.6614 94.7651 36.6524 95.0288 36.598C102.646 35.0238 110.149 32.9243 117.468 30.2795C124.653 27.6836 131.551 24.479 138.428 21.1657C144.827 18.0825 151.301 15.0482 158.199 13.2603C163.986 11.7603 169.954 11.1462 175.927 11.3256C187.745 11.6824 199.435 15.2258 209.484 21.4682C220.059 28.0386 227.911 37.5618 233.624 48.5522C239.476 59.8108 243.179 72.0168 247.361 83.9547C251.64 96.177 256.502 108.184 264.025 118.801C268.212 124.71 272.834 130.46 275.381 137.329C277.798 143.851 278.573 150.805 278.192 157.727L278.19 157.729Z" fill="#B6B6B6"/>
<path d="M262.48 118.845C258.734 113.627 255.535 108.122 252.859 102.278C247.675 90.9654 244.257 78.9478 239.882 67.3178C235.542 55.7821 230.21 44.3985 221.816 35.2286C213.862 26.5406 203.38 20.2981 192.145 16.9305C180.865 13.5502 168.669 13.0593 157.21 15.8418C150.341 17.5102 143.842 20.443 137.459 23.4248C130.821 26.5243 124.199 29.5694 117.274 31.9788C111.355 34.0367 105.315 35.7177 99.1919 37.0401C98.9119 36.9985 98.6193 37.0003 98.3267 37.0528C85.0399 39.4332 76.0394 50.603 68.9101 61.1859C64.9959 66.9954 61.2787 72.9915 56.4939 78.1398C51.8681 83.1197 46.4205 87.2174 41.1354 91.4509C35.8088 95.717 30.7205 100.193 26.5806 105.66C22.4443 111.126 19.3773 117.366 17.2477 123.873C12.7881 137.5 12.4955 152.26 14.9141 166.31C19.1497 190.909 32.2432 213.976 50.9831 230.372C71.6574 248.462 98.2815 256.478 122.057 269.347C125.072 270.979 128.039 272.697 130.948 274.514C133.933 276.38 136.887 278.327 140.08 279.825C146.597 282.883 153.663 283.564 160.733 282.47C174.953 280.267 186.587 271.041 197.676 262.518C217.984 246.91 238.371 230.769 253.998 210.238C261.68 200.144 268.105 188.932 272.149 176.864C276.398 164.194 277.946 149.8 273.305 137.009C270.856 130.257 266.626 124.618 262.48 118.845ZM271.904 156.387C271.382 169.221 266.705 181.635 260.517 192.755C248.426 214.476 229.793 231.626 210.675 247.067C205.806 251 200.866 254.842 195.906 258.658C190.445 262.855 185.009 267.13 179.138 270.744C167.584 277.858 153.271 282.086 140.542 275.403C137.558 273.836 134.757 271.952 131.889 270.19C128.975 268.4 125.998 266.717 122.98 265.11C117.126 261.994 111.126 259.168 105.102 256.406C93.0217 250.866 80.7735 245.562 69.396 238.635C48.2863 225.782 31.8982 206.169 23.557 182.784C19.3141 170.888 17.1177 158.222 17.6415 145.577C18.2032 132.009 22.0487 118.12 30.5273 107.322C38.7891 96.7985 50.9686 90.4437 59.9005 80.5963C68.7963 70.7869 74.1861 58.186 84.0212 49.1846C87.7186 45.8025 91.9723 43.1033 96.7498 41.7139C96.9431 41.7284 97.1454 41.7193 97.3603 41.6776C104.49 40.2773 111.518 38.3952 118.381 36.0094C125.189 33.6436 131.74 30.7016 138.259 27.6438C144.525 24.7055 150.854 21.7817 157.579 20.0572C163.057 18.6532 168.704 18.0754 174.354 18.2384C185.588 18.5645 196.719 21.8941 206.292 27.8032C216.242 33.9443 223.686 42.8189 229.124 53.1101C234.789 63.8289 238.358 75.4805 242.366 86.8804C246.475 98.5683 251.128 110.05 258.341 120.196C262.267 125.721 266.626 131.107 269.062 137.512C271.355 143.539 272.166 149.967 271.905 156.39L271.904 156.387Z" fill="#B6B6B6"/>
<path d="M256.621 120.165C253.061 115.222 250.026 110.001 247.481 104.461C242.561 93.7496 239.304 82.3751 235.13 71.3701C231.001 60.4883 225.933 49.7569 217.989 41.1141C210.381 32.8391 200.354 26.9173 189.62 23.7471C178.833 20.5607 167.181 20.1386 156.244 22.8305C149.776 24.4228 143.633 27.1473 137.582 29.8864C131.325 32.7196 125.079 35.4948 118.562 37.6813C112.937 39.5689 107.199 41.096 101.39 42.2844C101.133 42.2518 100.864 42.2572 100.597 42.3043C88.0706 44.4999 79.5108 54.9342 72.7464 64.8867C69.0273 70.3575 65.5105 76.0166 60.9949 80.8824C56.6256 85.5905 51.4724 89.4545 46.4618 93.4362C41.4134 97.4469 36.5708 101.648 32.6368 106.798C28.7479 111.89 25.8489 117.689 23.8205 123.761C19.4873 136.735 19.2218 150.838 21.5699 164.228C25.643 187.441 38.0826 209.149 55.7568 224.639C75.4106 241.865 100.736 249.529 123.363 261.757C126.215 263.299 129.024 264.916 131.775 266.632C134.618 268.405 137.417 270.277 140.436 271.746C146.673 274.782 153.446 275.546 160.27 274.553C173.835 272.581 184.956 263.875 195.55 255.799C214.835 241.097 234.196 225.865 248.991 206.417C256.279 196.838 262.363 186.17 266.127 174.692C270.061 162.694 271.385 149.073 266.835 137.048C264.467 130.79 260.499 125.545 256.626 120.167L256.621 120.165ZM265.601 155.33C265.231 167.444 260.9 179.175 255.098 189.684C243.699 210.332 225.972 226.572 207.794 241.153C203.187 244.85 198.508 248.459 193.812 252.04C188.635 255.989 183.475 260.005 177.91 263.398C166.921 270.097 153.363 273.983 141.319 267.634C138.358 266.072 135.586 264.184 132.734 262.438C130.093 260.822 127.398 259.297 124.669 257.837C119.071 254.844 113.329 252.134 107.564 249.484C96.0669 244.202 84.4111 239.151 73.57 232.573C53.6308 220.476 38.0483 202.062 30.0231 180.041C25.9067 168.746 23.7482 156.693 24.2179 144.653C24.7164 131.873 28.3217 118.754 36.3378 108.602C44.1697 98.6824 55.6845 92.708 64.1595 83.4384C72.6597 74.1399 77.8003 62.1459 87.2415 53.6625C90.7258 50.5304 94.7357 48.0595 99.2134 46.7914C99.3705 46.7914 99.5313 46.7788 99.6902 46.7498C106.451 45.498 113.121 43.7934 119.642 41.6051C126.063 39.4512 132.251 36.7538 138.414 33.9532C144.335 31.2631 150.314 28.5712 156.625 26.9318C161.82 25.584 167.17 25.0116 172.531 25.1384C183.244 25.392 193.874 28.4987 203.029 34.0873C212.516 39.8787 219.625 48.2751 224.824 58.041C235.659 78.3988 238.865 102.104 252.362 121.16C256.048 126.364 260.192 131.393 262.619 137.358C264.933 143.05 265.793 149.206 265.605 155.325L265.601 155.33Z" fill="#B6B6B6"/>
<path d="M250.823 121.571C247.488 116.959 244.633 112.093 242.236 106.928C237.554 96.8419 234.453 86.1159 230.499 75.7396C226.561 65.4031 221.735 55.206 214.167 47.0071C206.947 39.1868 197.441 33.6019 187.273 30.6147C177.151 27.6402 166.241 27.2235 155.962 29.651C149.702 31.1292 143.741 33.7051 137.863 36.2721C131.935 38.8607 126.013 41.3968 119.848 43.3804C114.512 45.0978 109.074 46.4727 103.57 47.527C103.339 47.5035 103.1 47.5107 102.862 47.5506C91.013 49.5795 82.8794 59.387 76.4492 68.7725C72.9306 73.9081 69.6035 79.2159 65.3407 83.7809C61.1213 88.297 56.1307 91.9762 51.3026 95.7967C46.5377 99.5665 41.9968 103.539 38.3211 108.414C34.6905 113.227 31.9992 118.707 30.1297 124.433C26.1379 136.655 25.9862 149.925 28.2891 162.495C32.308 184.434 44.2799 204.87 61.1087 219.402C79.742 235.492 103.599 242.749 124.922 254.297C127.658 255.779 130.353 257.335 132.992 258.987C135.689 260.676 138.34 262.454 141.201 263.857C146.918 266.659 153.182 267.505 159.468 266.673C172.287 264.98 182.785 257.1 192.826 249.522C211.089 235.736 229.475 221.473 243.524 203.189C250.451 194.171 256.243 184.139 259.836 173.308C263.58 162.02 264.855 149.207 260.643 137.857C258.396 131.801 254.567 126.752 250.823 121.571ZM259.272 155.102C258.877 166.582 254.701 177.688 249.128 187.606C238.269 206.939 221.491 222.09 204.326 235.706C199.975 239.158 195.557 242.526 191.124 245.874C186.168 249.616 181.217 253.41 175.849 256.549C170.672 259.574 165.048 261.962 159.069 262.761C153.016 263.569 147.102 262.59 141.729 259.672C139.061 258.223 136.547 256.514 133.96 254.926C131.37 253.335 128.724 251.835 126.043 250.402C120.785 247.593 115.394 245.042 109.98 242.55C99.1845 237.581 88.2422 232.834 78.0351 226.697C68.3608 220.88 59.7197 213.667 52.5037 204.953C45.6924 196.727 40.2068 187.295 36.4769 177.275C32.5465 166.721 30.4295 155.45 30.7763 144.17C31.1502 132.029 34.5044 119.522 42.1449 109.892C49.5415 100.568 60.4079 94.9906 68.4132 86.2899C76.4492 77.5565 81.3315 66.2726 90.2634 58.3237C93.6031 55.351 97.4468 53.025 101.733 51.8638C101.827 51.8583 101.919 51.8475 102.013 51.833C108.476 50.7189 114.859 49.1664 121.101 47.1466C127.248 45.1575 133.171 42.6305 139.085 40.0418C144.7 37.5836 150.386 35.129 156.349 33.6435C161.245 32.4226 166.285 31.9226 171.326 32.0657C181.398 32.3537 191.381 35.283 199.995 40.5291C209.037 46.0379 215.783 54.0575 220.716 63.3669C225.765 72.8937 228.982 83.2374 232.592 93.3584C236.293 103.731 240.482 113.915 246.923 122.913C250.416 127.794 254.314 132.551 256.547 138.192C258.676 143.572 259.467 149.342 259.269 155.106L259.272 155.102Z" fill="#B6B6B6"/>
<path d="M244.573 122.352C241.425 117.975 238.779 113.314 236.535 108.41C232.206 98.9397 229.289 88.9039 225.521 79.2105C221.764 69.5442 217.127 60.0247 209.919 52.4435C203.066 45.2391 194.139 40.1179 184.62 37.3934C175.029 34.6489 164.719 34.3084 155.007 36.6326C149.315 37.9948 143.859 40.2628 138.474 42.52C132.765 44.913 127.06 47.2662 121.136 49.0831C116.087 50.632 110.949 51.8529 105.752 52.7714C105.55 52.7569 105.342 52.7659 105.134 52.8003C93.9627 54.6608 86.2554 63.8415 80.1575 72.6618C76.7726 77.5602 73.5701 82.6288 69.4392 86.9456C65.5214 91.0397 60.9372 94.3982 56.4956 97.8836C52.0035 101.407 47.7208 105.126 44.2583 109.702C40.8119 114.258 38.2633 119.453 36.5131 124.888C32.8211 136.358 32.7434 148.791 34.9723 160.558C38.9009 181.288 50.4122 200.515 66.4264 214.134C84.1294 229.188 106.67 236.03 126.78 247.002C129.298 248.375 131.778 249.819 134.208 251.344C136.756 252.948 139.263 254.636 141.967 255.971C147.538 258.721 153.632 259.495 159.757 258.65C171.727 256.998 181.589 249.605 191.009 242.564C208.282 229.655 225.638 216.246 238.822 198.963C245.283 190.494 250.662 181.021 253.902 170.833C257.327 160.071 258.261 147.907 253.912 137.264C251.659 131.754 248.016 127.143 244.571 122.354L244.573 122.352ZM252.974 153.729C252.806 164.493 249.017 174.929 243.865 184.26C233.777 202.533 217.949 216.792 201.756 229.543C197.622 232.8 193.42 235.97 189.206 239.122C184.593 242.571 179.982 246.066 175.002 248.975C170.094 251.841 164.775 254.103 159.11 254.871C153.323 255.658 147.659 254.716 142.525 251.911C140.006 250.535 137.629 248.913 135.185 247.406C132.748 245.903 130.261 244.486 127.74 243.133C122.794 240.477 117.722 238.066 112.627 235.715C102.353 230.972 91.9306 226.46 82.204 220.634C73.0987 215.181 64.9543 208.439 58.1248 200.287C51.7018 192.622 46.4944 183.827 42.9289 174.471C39.1394 164.529 37.0586 153.883 37.3584 143.22C37.6763 131.875 40.7867 120.156 47.9593 111.175C54.8447 102.554 64.8965 97.3836 72.4141 89.4129C80.1467 81.214 84.7761 70.4808 93.2943 62.9756C96.5131 60.1406 100.223 57.9487 104.358 56.9016C110.512 55.927 116.593 54.534 122.545 52.688C128.207 50.9309 133.675 48.6882 139.137 46.3948C144.447 44.1667 149.816 41.9186 155.413 40.5092C160.082 39.3317 164.885 38.8426 169.697 38.9676C179.084 39.2122 188.41 41.8642 196.491 46.6684C204.959 51.7026 211.367 59.0374 216.069 67.6475C225.866 85.587 228.75 106.64 240.688 123.517C244.021 128.228 247.805 132.728 250.108 138.076C252.225 142.996 253.057 148.392 252.974 153.727V153.729Z" fill="#B6B6B6"/>
<path d="M238.909 123.942C235.958 119.874 233.458 115.551 231.343 110.99C227.221 102.104 224.45 92.67 220.884 83.5599C217.321 74.4552 212.935 65.4846 206.117 58.3563C199.656 51.6011 191.251 46.8133 182.298 44.2663C173.264 41.6976 163.565 41.3787 154.413 43.5272C149.041 44.788 143.866 46.8622 138.752 48.9056C133.372 51.054 127.994 53.1717 122.424 54.784C117.657 56.1643 112.807 57.2313 107.911 58.0175C107.743 58.0121 107.573 58.0211 107.403 58.0483C106.993 58.1153 106.589 58.1914 106.188 58.2784C106.018 58.3037 105.848 58.3309 105.678 58.3545C105.521 58.3762 105.375 58.4305 105.241 58.503C95.8938 60.9395 89.2233 68.8721 83.8641 76.5475C80.6833 81.1035 77.6741 85.8171 73.8015 89.8278C70.1204 93.6392 65.8143 96.7586 61.6473 99.9994C57.3484 103.343 53.2771 106.878 49.9915 111.258C46.8288 115.473 44.5023 120.296 42.9092 125.314C39.5026 136.036 39.5044 147.657 41.6629 158.626C45.4777 178.009 56.4091 195.914 71.448 208.602C88.1215 222.668 109.269 229.133 128.157 239.437C130.516 240.724 132.841 242.071 135.115 243.501C137.548 245.028 139.928 246.653 142.491 247.957C147.511 250.509 153.085 251.442 158.672 250.803C170.048 249.499 179.409 242.827 188.381 236.207C204.626 224.221 221.025 211.774 233.434 195.637C239.505 187.742 244.566 178.94 247.63 169.422C250.859 159.39 251.755 148.014 247.736 138.067C245.623 132.835 242.193 128.466 238.909 123.94V123.942ZM246.651 153.475C246.466 163.388 242.98 172.993 238.23 181.585C228.731 198.767 213.728 212.093 198.424 223.978C194.576 226.967 190.669 229.876 186.75 232.769C182.451 235.943 178.141 239.144 173.49 241.787C168.819 244.439 163.697 246.529 158.316 247.084C152.948 247.636 147.843 246.671 143.12 244.039C140.719 242.702 138.451 241.142 136.112 239.702C133.923 238.354 131.69 237.081 129.43 235.86C124.691 233.3 119.825 230.983 114.939 228.722C105.404 224.311 95.7348 220.114 86.6783 214.75C78.0877 209.661 70.3769 203.395 63.8834 195.782C57.7674 188.612 52.7768 180.369 49.3485 171.578C45.7649 162.388 43.7437 152.535 43.9298 142.65C44.1302 132.061 46.9426 121.162 53.5589 112.727C59.9909 104.525 69.5659 99.7295 76.6897 92.2407C83.949 84.6088 88.3202 74.602 96.3218 67.6331C99.4864 64.8759 103.157 62.7963 107.244 61.8978C112.831 61.0754 118.362 59.8924 123.782 58.3037C129.107 56.7422 134.258 54.726 139.408 52.6663C144.453 50.6501 149.545 48.6013 154.828 47.2915C159.217 46.2046 163.731 45.7572 168.249 45.8785C177.059 46.1177 185.809 48.5795 193.408 53.0685C201.375 57.773 207.408 64.6495 211.844 72.727C221.083 89.5542 223.863 109.3 235.147 125.105C238.286 129.504 241.822 133.719 243.979 138.728C245.973 143.362 246.745 148.45 246.652 153.474L246.651 153.475Z" fill="#B6B6B6"/>
<path d="M233.23 125.515C230.418 121.669 228.026 117.591 226.008 113.274C222.168 105.054 219.564 96.3274 216.238 87.8984C212.87 79.359 208.734 70.9354 202.303 64.2654C196.263 57.9994 188.44 53.5611 180.104 51.1826C171.595 48.7534 162.459 48.4418 153.827 50.4236C143.613 52.7677 134.15 57.637 124.047 60.3978C119.442 61.6568 114.753 62.6151 110.024 63.2709C109.906 63.2727 109.787 63.2835 109.668 63.3017C109.54 63.3216 109.413 63.3469 109.285 63.3687C109.028 63.4031 108.772 63.4393 108.516 63.4719C108.246 63.5064 107.986 63.5788 107.751 63.6893C98.946 65.8813 92.6368 73.2632 87.5666 80.4404C84.6532 84.5653 81.895 88.8314 78.3837 92.4852C75.0006 96.0032 71.034 98.8581 67.1813 101.822C63.1299 104.939 59.2483 108.193 56.1289 112.28C53.1558 116.173 50.9558 120.616 49.4493 125.274C46.2216 135.244 46.2324 146.074 48.2626 156.283C51.8625 174.378 62.1726 191.035 76.2089 202.87C91.8005 216.016 111.55 222.132 129.233 231.726C131.453 232.93 133.644 234.191 135.788 235.526C138.077 236.952 140.3 238.492 142.675 239.771C147.343 242.283 152.519 243.359 157.803 242.912C168.481 242.006 177.379 235.927 185.81 229.802C201.005 218.766 216.428 207.285 228.037 192.32C233.793 184.898 238.603 176.636 241.468 167.647C244.441 158.321 245.185 147.784 241.425 138.567C239.454 133.735 236.279 129.692 233.226 125.518L233.23 125.515ZM232.701 178.715C223.915 194.7 209.895 207.064 195.607 218.007C191.935 220.819 188.211 223.561 184.472 226.282C180.377 229.262 176.264 232.258 171.812 234.682C167.482 237.039 162.75 238.834 157.808 239.253C152.756 239.682 148.038 238.635 143.638 236.12C141.398 234.84 139.271 233.371 137.072 232.019C135.013 230.755 132.914 229.555 130.788 228.409C126.379 226.028 121.856 223.869 117.312 221.762C108.301 217.585 99.1592 213.612 90.5975 208.54C82.6139 203.81 75.4377 198.001 69.3687 190.954C63.6392 184.3 58.9322 176.65 55.6881 168.477C52.2779 159.879 50.3362 150.644 50.5205 141.371C50.7137 131.594 53.3508 121.451 59.5878 113.745C65.6803 106.218 74.5887 101.813 81.1978 94.8275C87.8502 87.797 91.954 78.6506 99.3524 72.2904C102.474 69.6076 106.119 67.6384 110.172 66.9066C115.005 66.2436 119.797 65.3215 124.513 64.0571C129.567 62.702 134.468 60.9068 139.359 59.0591C144.16 57.2458 148.992 55.3781 153.981 54.1408C158.016 53.1409 162.159 52.7061 166.314 52.7822C174.588 52.9325 182.841 55.1516 190.021 59.2946C197.446 63.5788 203.136 69.8485 207.33 77.2938C216.155 92.9526 218.749 111.479 229.296 126.27C232.2 130.344 235.477 134.215 237.587 138.795C239.537 143.027 240.346 147.74 240.337 152.379C240.321 161.66 237.126 170.667 232.702 178.715H232.701Z" fill="#B6B6B6"/>
<path d="M227.293 126.734C224.719 123.227 222.535 119.499 220.679 115.562C217.073 107.918 214.624 99.7966 211.487 91.9599C208.331 84.0762 204.46 76.3175 198.492 70.1692C192.815 64.3198 185.457 60.2058 177.645 58.0139C169.733 55.7948 161.267 55.5231 153.244 57.3128C143.709 59.4396 134.788 63.7329 125.314 66.1096C120.564 67.3016 115.732 68.1403 110.862 68.6493C110.524 68.6837 110.205 68.7906 109.93 68.9555C101.923 70.9862 96.0942 77.6182 91.4106 84.1414C88.6489 87.9873 86.0515 91.9799 82.737 95.3855C79.5562 98.6535 75.8245 101.286 72.2102 104.037C68.4767 106.88 64.9075 109.858 62.041 113.606C59.2504 117.258 57.1948 121.43 55.8131 125.812C52.8707 135.132 53.0043 145.248 55.0382 154.738C58.6164 171.437 68.3557 186.728 81.4618 197.546C96.0437 209.585 114.29 215.31 130.704 224.213C132.772 225.335 134.813 226.509 136.811 227.753C138.863 229.03 140.851 230.411 142.954 231.601C147.282 234.052 152.057 235.247 157.034 234.979C166.988 234.443 175.401 228.965 183.289 223.349C197.483 213.243 211.934 202.674 222.772 188.834C228.109 182.018 232.564 174.429 235.228 166.149C238.024 157.459 238.674 147.63 235.125 139.056C233.236 134.491 230.194 130.685 227.297 126.736L227.293 126.734ZM227.026 176.109C218.86 190.905 205.764 202.26 192.452 212.288C189.001 214.888 185.502 217.422 181.985 219.935C178.156 222.672 174.292 225.409 170.104 227.572C166.092 229.644 161.715 231.148 157.185 231.418C152.511 231.697 148.221 230.581 144.191 228.219C140.165 225.856 136.33 223.221 132.216 221C128.152 218.806 123.986 216.812 119.799 214.868C111.451 210.991 102.981 207.314 95.0286 202.651C87.5651 198.274 80.8043 192.936 75.0785 186.423C69.7519 180.366 65.3446 173.408 62.2451 165.946C58.9903 158.111 57.0666 149.635 57.0883 141.13C57.1118 132.014 59.4238 122.524 65.1857 115.29C70.8338 108.2 79.2383 104.168 85.4554 97.6716C91.6418 91.2081 95.4891 82.7773 102.376 76.9479C105.4 74.3882 108.948 72.5586 112.882 71.9735C112.882 71.9735 112.883 71.9735 112.885 71.9735C117.171 71.4554 121.429 70.7145 125.625 69.6909C130.288 68.5533 134.82 67.0153 139.345 65.423C143.9 63.818 148.47 62.1442 153.161 60.9812C156.936 60.0446 160.81 59.6334 164.697 59.6914C172.434 59.8091 180.159 61.8362 186.893 65.6748C193.76 69.5913 199.056 75.323 202.977 82.1596C211.266 96.6137 213.717 113.794 223.487 127.493C226.24 131.353 229.376 134.998 231.4 139.326C233.237 143.249 234.016 147.628 234.016 151.943C234.018 160.462 231.101 168.728 227.026 176.11V176.109Z" fill="#B6B6B6"/>
<path d="M221.246 127.804C218.887 124.583 216.896 121.142 215.195 117.529C211.873 110.475 209.586 102.994 206.635 95.7857C203.664 88.5306 200.01 81.3932 194.412 75.8029C189.067 70.4644 182.214 66.7362 174.948 64.7852C167.622 62.8179 159.821 62.6096 152.415 64.2581C143.64 66.2109 135.33 69.8611 126.551 71.8284C122.151 72.8157 117.695 73.4624 113.203 73.8265C112.822 73.8573 112.466 73.9896 112.175 74.1997C104.811 76.0782 99.4177 82.1287 95.0556 88.1103C92.4583 91.6736 90.009 95.3691 86.8733 98.4921C83.8786 101.474 80.3871 103.861 77.0257 106.399C73.5613 109.013 70.2992 111.783 67.6801 115.276C65.155 118.643 63.318 122.518 62.1096 126.547C59.5159 135.188 59.7922 144.535 61.8333 153.26C65.4313 168.632 74.6938 182.579 86.9492 192.401C100.568 203.316 117.403 208.618 132.543 216.904C136.43 219.032 140.033 221.605 143.879 223.793C147.887 226.072 152.316 227.202 156.929 226.996C166.115 226.586 173.935 221.639 181.261 216.527C194.401 207.361 207.798 197.714 217.774 184.988C227.602 172.451 235.407 154.756 228.59 139.012C226.796 134.871 223.888 131.409 221.246 127.801V127.804ZM221.471 173.284C214.032 186.834 201.975 197.162 189.737 206.234C186.533 208.611 183.28 210.922 180.014 213.214C176.471 215.699 172.891 218.175 169.02 220.128C165.261 222.023 161.157 223.365 156.931 223.55C152.596 223.74 148.654 222.635 144.939 220.424C141.27 218.239 137.768 215.828 134.013 213.784C130.267 211.745 126.423 209.89 122.559 208.087C114.85 204.491 107.024 201.1 99.6435 196.847C92.7635 192.881 86.4832 188.092 81.1168 182.21C75.9762 176.574 71.7568 170.098 68.7025 163.098C62.4673 148.812 60.7134 129.938 70.7381 116.903C75.8444 110.262 83.6979 106.617 89.5177 100.72C95.3519 94.8093 98.9463 86.989 105.377 81.6269C108.189 79.281 111.489 77.6325 115.127 77.1181C115.181 77.1108 115.235 77.0981 115.286 77.0836C119.169 76.6978 123.033 76.1163 126.847 75.2884C131.186 74.3464 135.415 73.0295 139.636 71.6654C143.875 70.2959 148.114 68.8485 152.444 67.7887C155.901 66.9409 159.443 66.5587 163.001 66.5931C170.118 66.6656 177.242 68.4445 183.486 71.89C189.951 75.4587 194.963 80.7375 198.673 87.0995C206.35 100.264 208.669 115.971 217.545 128.518C220.082 132.103 223.025 135.447 224.999 139.402C226.771 142.949 227.606 146.916 227.694 150.867C227.867 158.761 225.236 166.44 221.477 173.286L221.471 173.284Z" fill="#B6B6B6"/>
<path d="M215.205 128.886C213.094 125.996 211.32 122.895 209.788 119.66C206.737 113.214 204.608 106.385 201.862 99.811C199.093 93.1827 195.678 86.6811 190.497 81.6089C185.536 76.7486 179.196 73.3774 172.505 71.6256C165.701 69.8449 158.48 69.6782 151.611 71.1963C143.555 72.977 135.822 76.0041 127.709 77.5638C123.692 78.3355 119.631 78.7865 115.547 79.0075C115.076 79.0329 114.707 79.2159 114.444 79.4858C107.822 81.2719 102.967 86.3677 98.8899 91.8349C96.4768 95.0721 94.2153 98.4451 91.3271 101.289C88.5491 104.028 85.2997 106.195 82.1803 108.512C78.9724 110.892 75.9722 113.428 73.5609 116.64C71.2489 119.721 69.5799 123.292 68.507 126.989C66.2148 134.882 66.5707 143.391 68.5377 151.311C72.0328 165.384 80.7479 178.056 92.084 186.959C104.762 196.917 120.305 201.83 134.28 209.54C137.892 211.533 141.234 213.946 144.808 215.989C148.408 218.047 152.375 219.11 156.526 219.025C164.941 218.855 172.216 214.478 178.981 209.886C191.162 201.613 203.616 192.834 212.794 181.135C221.823 169.627 228.759 153.318 222.06 139.016C220.317 135.295 217.607 132.174 215.203 128.884L215.205 128.886ZM216.058 170.203C209.353 182.632 198.27 192.006 187.026 200.184C184.065 202.336 181.062 204.43 178.043 206.497C174.807 208.712 171.535 210.919 168.01 212.652C164.619 214.319 160.926 215.489 157.134 215.667C153.166 215.851 149.503 214.888 146.087 212.871C142.672 210.857 139.438 208.575 135.961 206.656C132.56 204.779 129.071 203.073 125.556 201.421C118.497 198.102 111.317 195.004 104.507 191.18C98.0735 187.568 92.1508 183.244 87.0608 177.871C82.2435 172.788 78.2481 166.937 75.3093 160.571C69.3415 147.65 67.3474 130.494 76.3515 118.446C80.8762 112.392 87.9874 109.122 93.3628 103.967C98.9242 98.6335 102.266 91.3748 108.234 86.4221C110.701 84.3751 113.714 82.7574 116.92 82.3299C117.061 82.3118 117.198 82.2791 117.33 82.2393C120.95 81.9839 124.555 81.5437 128.122 80.8788C132.045 80.147 135.884 79.0836 139.715 77.975C146.759 75.937 153.755 73.4933 161.166 73.5042C167.742 73.5132 174.355 75.0639 180.168 78.1761C186.043 81.3227 190.678 85.9783 194.128 91.6664C201.353 103.583 203.519 117.939 211.52 129.447C213.798 132.724 216.488 135.726 218.429 139.231C220.194 142.418 221.142 146.014 221.337 149.646C221.722 156.859 219.446 163.919 216.056 170.203H216.058Z" fill="#B6B6B6"/>
<path d="M209.556 130.505C207.578 127.841 205.909 124.984 204.473 121.991C201.637 116.084 199.631 109.821 197.068 103.796C194.524 97.8147 191.322 91.9436 186.579 87.4166C182.02 83.0671 176.261 80.0654 170.185 78.4985C163.993 76.9025 157.446 76.7467 151.187 78.051C143.805 79.589 136.641 82.0617 129.176 83.2429C125.443 83.8334 121.666 84.1033 117.891 84.1867C117.372 84.1975 116.984 84.4077 116.724 84.7174C110.835 86.3007 106.428 90.7244 102.725 95.5612C100.496 98.4723 98.4174 101.517 95.7821 104.086C93.2642 106.541 90.3128 108.463 87.4769 110.517C84.5598 112.631 81.8089 114.888 79.6143 117.772C77.5191 120.524 76.0036 123.696 75.0283 127.011C72.9312 134.134 73.3069 141.842 75.1475 148.976C78.4475 161.772 86.5341 173.188 96.8839 181.255C108.475 190.287 122.621 194.83 135.382 201.825C138.63 203.605 141.663 205.687 144.811 207.631C148.05 209.631 151.539 210.857 155.356 211.024C163.034 211.359 169.945 207.665 176.18 203.578C187.404 196.22 198.919 188.398 207.399 177.82C215.699 167.469 221.927 152.805 215.905 139.836C214.308 136.398 211.799 133.523 209.56 130.505H209.556ZM210.257 167.833C204.117 179.056 193.914 187.398 183.627 194.637C180.932 196.533 178.199 198.372 175.452 200.189C172.463 202.167 169.426 204.113 166.143 205.571C162.946 206.989 159.474 207.854 155.968 207.805C152.372 207.756 149.198 206.566 146.176 204.672C143.173 202.79 140.256 200.816 137.145 199.104C134.006 197.377 130.787 195.803 127.547 194.28C121.127 191.26 114.607 188.43 108.41 184.963C102.541 181.681 97.1187 177.771 92.4387 172.917C88.0495 168.362 84.3774 163.134 81.6464 157.421C76.15 145.929 74.0403 130.427 82.228 119.638C86.3932 114.149 92.9408 111.271 97.8538 106.581C102.81 101.851 105.874 95.447 111.233 91.0994C113.5 89.2607 116.258 87.835 119.178 87.4746C119.339 87.4546 119.495 87.4184 119.643 87.3695C122.912 87.2391 126.169 86.9474 129.407 86.4619C132.966 85.9293 136.461 85.0942 139.948 84.2229C146.469 82.5925 152.943 80.3988 159.729 80.4078C165.679 80.4151 171.673 81.7628 176.968 84.5182C182.385 87.3387 186.682 91.5414 189.888 96.7296C196.529 107.481 198.587 120.479 205.868 130.891C207.945 133.86 210.394 136.572 212.208 139.722C213.862 142.595 214.798 145.845 215.013 149.153C215.439 155.714 213.374 162.134 210.257 167.833Z" fill="#B6B6B6"/>
<path d="M203.234 131.214C201.512 128.846 200.084 126.281 198.828 123.638C196.305 118.323 194.47 112.713 192.075 107.342C189.716 102.048 186.712 96.8764 182.37 92.9671C178.1 89.1231 172.797 86.5181 167.222 85.2156C161.536 83.886 155.563 83.8371 149.861 85.0961C143.403 86.5217 136.957 88.2554 130.366 88.96C127.001 89.3187 123.616 89.422 120.235 89.3676C119.675 89.3586 119.27 89.5959 119.023 89.9437C113.786 91.3404 109.776 95.1844 106.429 99.4632C104.385 102.077 102.456 104.811 100.025 107.09C97.6981 109.271 94.9797 110.957 92.3913 112.8C89.7361 114.689 87.2796 116.738 85.3199 119.366C83.4341 121.895 82.1065 124.853 81.3046 127.9C79.6031 134.362 80.1612 141.286 82.0343 147.644C85.4337 159.193 93.1174 169.185 102.682 176.319C113.329 184.259 126.197 188.32 137.688 194.778C140.647 196.441 143.389 198.421 146.295 200.165C149.276 201.955 152.547 202.968 156.029 203.055C162.783 203.222 168.864 200.082 174.424 196.564C184.557 190.153 194.99 183.28 202.553 173.801C210.054 164.399 215.375 150.907 209.138 139.438C207.52 136.462 205.217 133.94 203.235 131.214H203.234ZM204.977 164.493C199.665 174.616 190.483 182.025 181.225 188.365C178.801 190.025 176.339 191.63 173.862 193.211C171.164 194.936 168.433 196.651 165.488 197.928C162.696 199.14 159.683 199.91 156.631 199.928C153.352 199.948 150.383 199.001 147.598 197.296C144.841 195.608 142.217 193.74 139.397 192.149C136.587 190.564 133.698 189.121 130.787 187.733C125.018 184.981 119.14 182.445 113.508 179.409C108.14 176.514 103.097 173.13 98.7114 168.862C94.6166 164.877 91.1288 160.296 88.4682 155.229C83.1144 145.032 80.6254 131.132 87.8414 121.182C91.4629 116.189 97.4145 113.671 101.903 109.61C106.491 105.456 109.287 99.6426 114.193 95.804C116.283 94.17 118.772 92.9218 121.429 92.6247C121.598 92.6048 121.765 92.5668 121.92 92.5106C127.96 92.4762 133.863 91.7425 139.804 90.5433C143.006 89.8966 146.198 89.1865 149.377 88.4293C152.055 87.7916 154.73 87.3786 157.487 87.3242C162.898 87.2155 168.398 88.2771 173.29 90.6411C178.215 93.0215 182.245 96.6228 185.249 101.199C191.468 110.669 193.406 122.27 199.748 131.677C201.547 134.348 203.727 136.737 205.484 139.438C207.132 141.969 208.226 144.795 208.596 147.804C209.312 153.602 207.652 159.399 204.975 164.5L204.977 164.493Z" fill="#B6B6B6"/>
<path d="M197.395 132.587C195.856 130.482 194.577 128.199 193.446 125.85C191.169 121.114 189.485 116.12 187.272 111.356C185.094 106.664 182.305 102.093 178.339 98.7041C174.426 95.3582 169.649 93.1246 164.637 92.0305C159.512 90.9128 154.169 90.9128 149.043 92.0232C143.335 93.2605 137.501 94.3456 131.658 94.6499C128.631 94.8075 125.598 94.7351 122.574 94.5449C121.973 94.5068 121.559 94.7731 121.33 95.1608C116.699 96.3763 113.093 99.6932 110.061 103.441C108.211 105.726 106.461 108.117 104.261 110.084C102.171 111.95 99.7398 113.377 97.444 114.966C95.123 116.573 92.9826 118.337 91.2793 120.609C89.5959 122.853 88.4218 125.489 87.7445 128.208C86.3248 133.913 86.9407 139.994 88.7198 145.546C92.0018 155.787 99.0751 164.526 107.7 170.777C117.307 177.742 128.781 181.422 139.056 187.206C141.641 188.66 144.056 190.343 146.551 191.941C149.197 193.637 152.022 194.727 155.161 195.01C161.23 195.559 166.902 192.992 171.992 189.959C181.106 184.528 190.531 178.579 197.317 170.261C204.094 161.951 208.621 149.918 202.756 139.851C201.235 137.241 199.168 135.014 197.393 132.585L197.395 132.587ZM199.3 161.89C194.635 170.795 186.396 177.157 178.158 182.548C175.967 183.983 173.742 185.365 171.504 186.724C169.085 188.193 166.62 189.648 163.963 190.644C161.383 191.611 158.685 192.168 155.923 192.037C152.981 191.899 150.392 190.827 147.941 189.242C145.541 187.691 143.205 186.075 140.715 184.668C138.213 183.255 135.644 181.963 133.056 180.722C127.928 178.264 122.706 176.002 117.679 173.335C112.866 170.781 108.303 167.83 104.31 164.098C100.592 160.624 97.3772 156.629 94.8936 152.18C90.0059 143.425 87.3326 131.248 93.6346 122.486C96.7884 118.1 102.061 115.962 106.069 112.515C110.193 108.97 112.721 103.883 117.069 100.572C118.996 99.1026 121.256 98.0067 123.687 97.7694C123.851 97.7531 124.01 97.7168 124.16 97.6625C126.658 97.782 129.162 97.811 131.66 97.6806C134.449 97.5357 137.21 97.1571 139.972 96.7549C142.806 96.3419 145.631 95.86 148.433 95.2586C150.875 94.7351 153.272 94.3039 155.775 94.2297C165.473 93.9434 175.116 97.8038 180.765 105.928C186.525 114.214 188.351 124.515 193.938 132.898C195.536 135.297 197.49 137.427 199.13 139.793C200.711 142.074 201.786 144.539 202.241 147.285C203.072 152.307 201.623 157.464 199.302 161.892L199.3 161.89Z" fill="#B6B6B6"/>
<path d="M191.564 133.978C190.203 132.128 189.067 130.125 188.058 128.063C186.024 123.91 184.49 119.529 182.456 115.376C180.437 111.253 177.84 107.274 174.216 104.392C170.683 101.583 166.471 99.7349 162.057 98.8545C157.521 97.9505 152.881 98.0013 148.353 98.9197C143.313 99.9432 138.037 100.436 132.893 100.34C130.225 100.291 127.566 100.043 124.918 99.724C124.443 99.666 124.008 99.9523 123.739 100.347C119.765 101.334 116.581 104.035 113.893 107.184C112.228 109.137 110.667 111.2 108.715 112.883C106.84 114.501 104.645 115.7 102.59 117.066C100.487 118.464 98.576 120.031 97.0732 122.078C95.6138 124.065 94.6294 126.431 94.1218 128.841C93.0616 133.867 93.8184 139.143 95.5921 143.916C98.9174 152.865 105.505 160.348 113.333 165.652C121.92 171.471 131.896 174.746 140.864 179.88C143.149 181.188 145.286 182.699 147.487 184.137C149.774 185.632 152.216 186.639 154.933 186.979C160.222 187.642 165.254 185.688 169.809 183.179C177.899 178.719 186.349 173.685 192.301 166.458C195.138 163.013 197.475 158.993 198.501 154.609C199.639 149.747 199.052 144.53 196.359 140.268C194.947 138.03 193.124 136.101 191.56 133.976L191.564 133.978ZM193.699 159.147C189.728 166.837 182.475 172.154 175.287 176.592C171.326 179.039 167.214 181.73 162.776 183.204C160.435 183.981 158 184.356 155.536 184.124C153.06 183.893 150.887 182.882 148.831 181.529C146.763 180.168 144.749 178.75 142.603 177.511C140.398 176.237 138.131 175.074 135.841 173.96C131.446 171.824 126.961 169.873 122.608 167.649C118.304 165.449 114.133 162.971 110.461 159.803C107.035 156.847 104.002 153.426 101.611 149.575C97.0479 142.226 93.9791 131.652 99.3437 123.902C102.068 119.968 106.849 118.201 110.441 115.236C114.025 112.278 116.277 107.957 120.072 105.235C121.815 103.985 123.784 103.083 125.941 102.912C126.107 102.9 126.257 102.863 126.394 102.811C130.973 103.275 135.49 103.327 140.102 102.967C142.564 102.775 145.022 102.496 147.455 102.063C149.733 101.657 151.943 101.206 154.266 101.128C162.644 100.845 171.207 103.885 176.33 110.778C181.609 117.883 183.322 126.893 188.193 134.232C190.901 138.311 194.73 141.577 195.819 146.548C196.762 150.845 195.68 155.301 193.697 159.144L193.699 159.147Z" fill="#B6B6B6"/>
<path d="M185.495 135.052C184.348 133.458 183.383 131.739 182.515 129.98C180.761 126.431 179.381 122.705 177.522 119.207C175.638 115.662 173.225 112.419 169.979 110.024C166.871 107.731 163.114 106.311 159.328 105.659C155.251 104.957 151.306 105.195 147.253 105.88C143.09 106.582 138.623 106.495 134.432 106.057C132.149 105.818 129.891 105.394 127.639 104.957C127.003 104.834 126.499 105.108 126.196 105.523C122.728 106.309 119.903 108.552 117.482 111.223C115.956 112.908 114.517 114.736 112.669 116.086C110.96 117.334 109.067 118.292 107.297 119.444C103.598 121.853 101.134 125.335 100.502 129.761C99.8769 134.125 100.874 138.476 102.621 142.469C105.926 150.019 112.118 156.205 119.034 160.509C126.638 165.243 135.202 168.141 142.907 172.692C146.82 175.003 150.26 178.293 154.912 178.969C159.46 179.63 163.769 178.277 167.812 176.273C174.806 172.81 182.211 168.748 187.29 162.663C189.689 159.79 191.656 156.365 192.368 152.651C193.191 148.36 192.319 143.99 189.769 140.427C188.436 138.563 186.835 136.911 185.497 135.052H185.495ZM188.311 155.966C185.199 162.511 178.992 166.841 172.898 170.348C169.439 172.339 165.827 174.487 161.985 175.63C160.002 176.221 157.95 176.483 155.885 176.273C153.714 176.052 151.783 175.183 149.979 173.989C148.176 172.797 146.442 171.523 144.583 170.415C142.745 169.319 140.852 168.313 138.937 167.359C135.102 165.448 131.174 163.732 127.33 161.837C120.098 158.27 113.33 153.8 108.554 147.153C104.344 141.295 100.684 132.357 104.915 125.556C107.062 122.103 111.067 120.758 114.2 118.437C117.515 115.984 119.634 112.24 123.046 109.923C124.595 108.87 126.317 108.167 128.199 108.062C128.338 108.055 128.466 108.028 128.584 107.992C132.243 108.642 135.888 109.079 139.625 109.138C141.646 109.171 143.669 109.14 145.682 108.919C147.71 108.696 149.7 108.231 151.738 108.084C158.921 107.57 166.574 109.604 171.451 115.173C176.438 120.868 178.073 128.587 182.025 134.918C184.223 138.44 187.787 141.257 189.169 145.247C190.401 148.803 189.906 152.609 188.311 155.966Z" fill="#B6B6B6"/>
<path d="M179.352 136.036C178.447 134.73 177.672 133.337 176.959 131.918C175.456 128.935 174.206 125.821 172.479 122.953C170.725 120.04 168.482 117.435 165.585 115.624C162.756 113.856 159.505 112.863 156.217 112.428C154.51 112.204 152.791 112.126 151.071 112.209C149.332 112.294 147.63 112.656 145.898 112.778C142.479 113.019 138.914 112.501 135.592 111.702C133.699 111.247 131.837 110.678 129.969 110.133C129.29 109.936 128.77 110.247 128.5 110.72C125.679 111.314 123.298 113.001 121.221 115.086C119.901 116.41 118.664 117.843 117.09 118.877C115.557 119.886 113.863 120.616 112.304 121.585C109.123 123.564 107.257 126.647 106.979 130.395C106.723 133.849 107.842 137.318 109.421 140.349C112.672 146.59 118.237 151.541 124.258 155.021C130.827 158.818 138.039 161.354 144.542 165.274C147.822 167.25 150.71 170.065 154.552 170.893C158.255 171.692 161.97 170.937 165.418 169.504C171.431 167.006 178.001 163.919 182.296 158.845C184.346 156.423 185.854 153.53 186.237 150.347C186.687 146.602 185.235 143.229 182.921 140.371C181.743 138.916 180.421 137.576 179.354 136.036H179.352ZM182.762 153.046C180.513 158.533 174.986 161.883 169.943 164.433C166.937 165.953 163.796 167.555 160.478 168.237C156.965 168.96 153.671 168.212 150.735 166.187C147.771 164.14 144.833 162.201 141.617 160.558C138.431 158.928 135.157 157.479 131.929 155.939C125.694 152.965 119.789 149.492 115.261 144.157C113.404 141.969 111.778 139.472 110.759 136.775C109.613 133.739 109.022 130.085 110.604 127.087C112.239 123.991 115.707 123.029 118.454 121.221C121.328 119.332 123.219 116.287 126.161 114.506C127.48 113.709 128.91 113.243 130.455 113.207C130.549 113.205 130.635 113.194 130.719 113.176C133.576 113.993 136.424 114.729 139.387 115.131C141.039 115.354 142.696 115.549 144.367 115.548C146.086 115.544 147.748 115.229 149.451 115.049C155.385 114.421 162.108 115.549 166.587 119.792C171.2 124.161 172.837 130.527 176.016 135.849C176.875 137.289 177.873 138.621 178.962 139.893C180.139 141.269 181.42 142.599 182.321 144.182C183.893 146.941 183.956 150.137 182.764 153.048L182.762 153.046Z" fill="#B6B6B6"/>
<path d="M173.49 137.46C172.73 136.377 172.074 135.224 171.452 134.056C170.174 131.65 169.034 129.156 167.446 126.929C165.828 124.66 163.83 122.72 161.332 121.448C158.87 120.194 156.181 119.537 153.442 119.274C152.023 119.136 150.592 119.122 149.171 119.216C147.682 119.314 146.225 119.575 144.727 119.482C142.047 119.316 139.292 118.372 136.839 117.321C135.42 116.713 134.025 116.051 132.605 115.444C131.959 115.169 131.229 115.254 130.834 115.899C128.583 116.31 126.62 117.517 124.844 119.06C123.69 120.064 122.608 121.091 121.242 121.805C119.909 122.5 118.463 122.977 117.176 123.765C111.718 127.109 113.481 134.049 116.483 138.465C119.747 143.266 124.53 146.887 129.616 149.561C135.006 152.394 140.75 154.53 145.955 157.716C148.661 159.372 151.024 161.705 154.076 162.714C156.928 163.656 160.015 163.464 162.876 162.669C165.604 161.912 168.315 160.848 170.865 159.624C173.112 158.546 175.331 157.196 177.032 155.347C178.65 153.588 179.797 151.367 179.965 148.954C180.186 145.807 178.506 143.186 176.494 140.945C175.47 139.804 174.373 138.721 173.49 137.462V137.46ZM177.09 150.276C175.751 154.609 170.992 156.892 167.112 158.432C164.612 159.424 161.955 160.495 159.251 160.703C156.415 160.923 153.919 160.129 151.62 158.475C149.268 156.785 146.936 155.176 144.375 153.812C141.83 152.456 139.202 151.264 136.586 150.052C131.5 147.695 126.462 145.213 122.35 141.315C120.635 139.692 119.089 137.886 117.906 135.833C116.698 133.737 115.692 131.123 116.394 128.694C117.177 125.991 120.057 125.306 122.29 124.192C124.824 122.928 126.536 120.577 129.009 119.24C130.165 118.615 131.397 118.327 132.708 118.354C132.737 118.354 132.764 118.354 132.792 118.352C137.26 120.33 141.929 122.531 146.907 122.057C151.965 121.573 157.203 121.682 161.587 124.622C165.85 127.482 167.567 132.627 170.038 136.88C171.462 139.329 173.356 141.273 175.193 143.402C176.864 145.336 177.876 147.729 177.088 150.276H177.09Z" fill="#B6B6B6"/>
<path d="M169.173 140.713C166.137 137.688 164.772 133.433 161.721 130.406C158.276 126.985 152.989 125.114 148.179 125.904C146.928 126.109 145.81 126.663 144.524 126.357C143.425 126.096 142.472 125.5 141.498 124.951C139.197 123.654 137.154 122.016 134.922 120.616C134.253 120.196 133.612 120.502 133.289 121.022C131.531 121.23 129.933 121.997 128.415 123.016C127.543 123.603 126.694 124.158 125.688 124.487C124.548 124.862 123.309 125.087 122.272 125.725C118.031 128.335 121.133 133.623 123.605 136.282C130.222 143.4 140.071 145.372 147.981 150.532C150.184 151.968 152.065 153.863 154.559 154.805C156.811 155.656 159.25 155.722 161.611 155.392C163.751 155.091 165.926 154.655 167.963 153.923C169.602 153.334 171.276 152.528 172.401 151.151C173.521 149.778 174.005 147.975 173.489 146.247C172.797 143.936 170.814 142.349 169.172 140.713H169.173ZM165.084 152.167C163.043 152.678 160.915 153.129 158.802 153.082C156.564 153.031 154.557 152.291 152.764 150.959C150.934 149.599 149.16 148.244 147.173 147.111C145.237 146.008 143.225 145.046 141.2 144.119C137.15 142.264 133.023 140.552 129.367 137.965C127.617 136.726 125.966 135.295 124.602 133.63C123.611 132.42 122.086 130.279 122.838 128.648C123.293 127.663 124.588 127.433 125.515 127.159C126.643 126.826 127.727 126.438 128.732 125.812C129.673 125.223 130.55 124.527 131.562 124.056C132.575 123.583 133.626 123.422 134.728 123.487C136.173 124.484 137.555 125.574 139.069 126.464C140.637 127.384 142.32 128.473 144.121 128.831C146.207 129.246 148.051 128.268 150.116 128.226C152.07 128.186 154.041 128.634 155.827 129.42C157.617 130.208 159.217 131.329 160.531 132.784C161.831 134.226 162.783 135.933 163.773 137.592C164.763 139.251 165.816 140.878 167.178 142.26C168.547 143.648 170.689 145.117 171.14 147.131C171.854 150.321 167.311 151.613 165.086 152.169L165.084 152.167Z" fill="#B6B6B6"/>
<path d="M164.662 143.132C163.923 142.606 163.161 142.057 162.507 141.425C161.403 140.358 160.549 139.074 159.571 137.896C158.52 136.63 157.303 135.523 155.876 134.697C154.23 133.744 152.393 133.116 150.511 132.866C149.531 132.735 148.562 132.715 147.582 132.842C146.776 132.945 145.933 133.317 145.118 133.159C143.718 132.887 142.54 131.563 141.569 130.601C140.369 129.415 139.397 128.031 138.265 126.786C138.195 126.661 138.097 126.553 137.967 126.464C137.808 126.297 137.647 126.132 137.479 125.975C136.887 125.411 136.132 125.623 135.72 126.105C134.645 126.107 133.596 126.303 132.51 126.629C131.629 126.893 130.845 126.998 129.926 126.993C129.095 126.987 128.201 126.98 127.5 127.493C126.038 128.562 126.902 130.319 127.883 131.368C128.78 132.33 129.902 133.108 131 133.82C136.993 137.699 144.202 139.193 150.016 143.389C151.577 144.516 152.91 145.921 154.653 146.782C156.176 147.535 157.81 147.972 159.483 148.229C161.105 148.477 162.783 148.744 164.43 148.702C165.48 148.675 166.746 148.495 167.317 147.485C167.907 146.438 167.324 145.184 166.551 144.418C165.993 143.863 165.288 143.579 164.662 143.132ZM165.323 146.182C165.314 146.18 165.303 146.18 165.292 146.18C165.274 146.177 165.274 146.173 165.323 146.182ZM163.007 146.249C160.039 146.025 156.866 145.601 154.384 143.827C153.047 142.873 151.864 141.726 150.495 140.806C149.177 139.92 147.782 139.15 146.359 138.447C143.472 137.025 140.445 135.94 137.521 134.605C134.849 133.384 131.925 131.984 129.801 129.898C129.698 129.797 129.571 129.596 129.445 129.427C130.209 129.523 131.157 129.402 131.883 129.273C133.567 128.976 134.943 128.29 136.665 128.562C138.343 130.36 139.753 132.382 141.69 133.953C142.734 134.799 143.9 135.492 145.27 135.592C145.994 135.645 146.662 135.445 147.363 135.297C148.069 135.146 148.799 135.126 149.518 135.166C152.399 135.331 155.222 136.688 157.184 138.795C158.125 139.806 158.907 140.945 159.79 142.003C160.765 143.17 161.918 143.976 163.088 144.925C163.639 145.371 164.36 145.604 164.86 146.113C164.909 146.162 164.947 146.209 164.981 146.258C164.961 146.264 164.941 146.267 164.925 146.271C164.3 146.358 163.636 146.296 163.011 146.247L163.007 146.249ZM165.155 146.515C165.155 146.535 165.164 146.532 165.155 146.515V146.515ZM165.357 146.182C165.373 146.159 165.386 146.144 165.386 146.146C165.389 146.168 165.375 146.179 165.357 146.182Z" fill="#B6B6B6"/>
</g>
<defs>
<clipPath id="clip0_88_272">
<rect width="289" height="299" fill="white"/>
</clipPath>
</defs>
</svg>
