<svg width="158" height="164" viewBox="0 0 158 164" fill="none" xmlns="http://www.w3.org/2000/svg">
<g opacity="0.1" clip-path="url(#clip0_89_328)">
<path d="M156.837 76.2313C155.628 72.0105 153.289 68.4384 150.754 64.9161C148.396 61.6382 146.273 58.2858 144.545 54.6253C141.293 47.7297 139.21 40.3581 136.608 33.2061C134.029 26.1157 130.902 19.1058 125.908 13.3766C121.19 7.96347 114.873 4.04071 108.066 1.89054C101.246 -0.263605 93.8304 -0.62826 86.8686 1.05491C82.7566 2.04951 78.8905 3.84298 75.1074 5.70599C71.0725 7.69321 67.0563 9.66751 62.8368 11.2354C59.2274 12.5768 55.5381 13.6857 51.7935 14.571C51.6355 14.5342 51.4617 14.5292 51.2741 14.564C43.2141 16.0644 37.8194 22.955 33.5347 29.4224C31.1795 32.9785 28.9329 36.644 26.0297 39.7858C23.2252 42.8212 19.9319 45.3311 16.7383 47.9284C13.5714 50.5038 10.5407 53.2094 8.07494 56.4903C5.75826 59.5725 3.99755 63.0441 2.70985 66.6798C0.114699 74.0156 -0.487676 82.0399 0.357624 89.7484C2.02057 104.903 9.03084 119.339 19.8321 130.03C25.5804 135.72 32.3842 140.069 39.5515 143.719C47.0812 147.554 54.9279 150.716 62.4506 154.564C64.3071 155.514 66.1429 156.505 67.9441 157.556C69.8036 158.641 71.5939 159.84 73.4553 160.923C77.2631 163.134 81.3682 164.273 85.7823 163.944C94.6639 163.281 101.967 157.935 108.773 152.634C121.096 143.036 133.612 133.233 143.316 120.838C148.105 114.722 152.143 108.028 154.889 100.73C157.784 93.0342 159.137 84.2686 156.836 76.2323L156.837 76.2313ZM155.437 88.2381C154.712 96.0588 151.609 103.565 147.669 110.276C139.959 123.409 128.468 133.795 116.774 143.268C113.794 145.683 110.776 148.049 107.753 150.408C104.409 153.017 101.037 155.629 97.339 157.718C93.705 159.771 89.6968 161.295 85.5048 161.556C83.4459 161.685 81.386 161.523 79.3961 160.961C77.3491 160.384 75.4906 159.364 73.6825 158.26C70.1472 156.102 66.6297 153.984 62.9296 152.117C59.2768 150.274 55.552 148.582 51.8311 146.886C44.4278 143.513 36.9791 140.107 30.2325 135.503C18.0418 127.184 9.01602 114.525 4.87939 100.314C0.806936 86.3234 1.0627 69.2602 10.4133 57.3537C15.4121 50.9887 22.7245 47.0798 28.0906 41.0824C33.4576 35.085 36.6848 27.3965 42.6137 21.879C44.8178 19.8281 47.3537 18.1758 50.2086 17.3024C50.3538 17.3262 50.5118 17.3243 50.6816 17.2875C55.0266 16.3456 59.3035 15.1035 63.4737 13.5555C67.6133 12.0184 71.583 10.1285 75.537 8.16915C79.2569 6.326 83.0203 4.51962 87.0562 3.48727C90.3959 2.63276 93.8403 2.2999 97.2817 2.42907C104.173 2.68741 110.974 4.85546 116.768 8.61627C122.81 12.538 127.214 18.1817 130.42 24.5965C133.705 31.1692 135.792 38.2546 138.22 45.1701C139.461 48.7074 140.791 52.2198 142.378 55.6159C144.023 59.1363 146.015 62.4043 148.277 65.555C150.709 68.9432 153.137 72.3225 154.381 76.3605C155.564 80.2008 155.808 84.2497 155.439 88.2381H155.437Z" fill="#B6B6B6"/>
<path d="M146.83 64.6372C144.656 61.6027 142.789 58.4162 141.232 55.0171C138.227 48.4513 136.262 41.4693 133.748 34.7107C131.259 28.0198 128.198 21.4113 123.358 16.0905C118.824 11.1056 112.852 7.50872 106.442 5.5533C99.9439 3.57006 92.903 3.27397 86.2966 4.9015C82.3575 5.87126 78.6435 7.58722 74.9996 9.34292C71.2096 11.1692 67.4285 12.9646 63.4676 14.3924C60.042 15.6275 56.5433 16.644 52.9952 17.4488C52.848 17.418 52.6881 17.414 52.5152 17.4448C44.9273 18.8339 39.7804 25.2446 35.7169 31.3235C33.4634 34.6938 31.3324 38.1794 28.5901 41.1811C25.9406 44.0805 22.8093 46.4671 19.7658 48.9233C16.7016 51.3964 13.7539 53.9818 11.3661 57.1414C9.05143 60.2047 7.30948 63.6714 6.06918 67.306C3.38515 75.1764 3.12643 83.7403 4.43783 91.9038C6.72093 106.109 14.0857 119.48 24.7497 129.054C36.5464 139.644 51.8724 144.29 65.5828 151.668C67.3228 152.605 69.0381 153.589 70.7169 154.633C72.4509 155.712 74.1583 156.849 76.0029 157.732C79.7051 159.506 83.7153 159.934 87.7502 159.334C95.9633 158.113 102.67 152.772 109.048 147.821C120.718 138.76 132.448 129.418 141.477 117.574C145.946 111.711 149.688 105.215 152.076 98.2092C154.592 90.8287 155.564 82.4198 152.889 74.9389C151.521 71.1136 149.169 67.9022 146.828 64.6362L146.83 64.6372ZM152.09 86.5135C151.684 93.9139 148.946 101.057 145.36 107.461C138.319 120.035 127.546 129.979 116.507 138.96C113.721 141.227 110.897 143.443 108.062 145.646C104.913 148.091 101.777 150.58 98.3787 152.673C91.7644 156.748 83.6008 159.117 76.3337 155.278C74.5365 154.328 72.8518 153.182 71.1158 152.126C69.4677 151.125 67.785 150.18 66.0805 149.278C62.7013 147.488 59.2391 145.865 55.7651 144.272C48.8022 141.079 41.7495 138.001 35.2251 133.946C23.2398 126.498 14.0087 115.142 9.3378 101.74C6.89078 94.7177 5.66726 87.2348 6.0751 79.7907C6.50071 72.0336 8.77888 64.0937 13.669 57.9592C18.4337 51.9826 25.3323 48.2943 30.419 42.6447C35.5895 36.9006 38.6883 29.5032 44.4493 24.2679C46.5172 22.388 48.8911 20.8877 51.5455 20.0928C51.6729 20.1087 51.8092 20.1037 51.9534 20.0739C56.1176 19.2104 60.2197 18.0589 64.2211 16.6082C68.1494 15.1843 71.9206 13.4267 75.68 11.6093C79.1787 9.91822 82.7179 8.25393 86.4892 7.27324C89.6532 6.45053 92.9158 6.1137 96.1815 6.21207C102.643 6.40781 109.034 8.3513 114.527 11.7753C120.309 15.3791 124.602 20.6025 127.725 26.6307C130.925 32.806 132.949 39.5009 135.235 46.0488C137.575 52.7527 140.233 59.3383 144.346 65.1618C146.635 68.403 149.162 71.5567 150.554 75.3245C151.876 78.9015 152.299 82.7159 152.091 86.5125L152.09 86.5135Z" fill="#B6B6B6"/>
<path d="M143.501 65.1857C141.453 62.3241 139.704 59.3045 138.241 56.0991C135.407 49.894 133.538 43.3025 131.147 36.9235C128.774 30.5962 125.859 24.3524 121.27 19.3227C116.921 14.5574 111.19 11.1334 105.048 9.28628C98.881 7.43221 92.2134 7.16294 85.9487 8.68912C82.1932 9.60424 78.6402 11.2129 75.1504 12.8484C71.5213 14.5484 67.9011 16.2187 64.1151 17.5402C60.879 18.6689 57.5768 19.591 54.2292 20.3163C54.0761 20.2935 53.9162 20.2945 53.7562 20.3233C46.4921 21.6289 41.5714 27.7555 37.6738 33.5601C35.5339 36.7466 33.5016 40.0355 30.8857 42.8593C28.3567 45.5907 25.3784 47.8383 22.489 50.1603C19.5768 52.5003 16.7951 54.9555 14.5317 57.9542C12.2703 60.9519 10.5936 64.3749 9.42929 67.9439C6.99115 75.4179 6.83118 83.5138 8.15344 91.2202C10.4691 104.712 17.6275 117.365 27.8728 126.358C39.1758 136.28 53.7315 140.677 66.73 147.736C68.3781 148.631 70.0006 149.573 71.5904 150.569C73.2228 151.593 74.8373 152.661 76.5832 153.483C80.1461 155.16 84.0092 155.533 87.8743 154.933C95.6489 153.725 102.009 148.665 108.072 143.99C119.174 135.429 130.32 126.576 138.864 115.314C143.064 109.778 146.576 103.628 148.787 97.009C151.11 90.0597 151.956 82.1645 149.419 75.1486C148.08 71.4454 145.768 68.3523 143.501 65.1857ZM148.653 85.7772C148.368 92.8169 145.811 99.6261 142.428 105.725C135.817 117.639 125.63 127.046 115.179 135.515C112.516 137.672 109.816 139.78 107.104 141.872C104.119 144.175 101.146 146.519 97.9369 148.502C91.6199 152.404 83.795 154.723 76.836 151.057C75.2047 150.198 73.6731 149.164 72.1049 148.198C70.5121 147.216 68.8847 146.293 67.2346 145.412C64.0341 143.703 60.7536 142.153 57.4603 140.637C50.8559 137.599 44.1597 134.69 37.9394 130.89C26.3985 123.84 17.4389 113.083 12.8786 100.256C10.559 93.731 9.35819 86.7837 9.64456 79.8484C9.95168 72.4062 12.0541 64.7882 16.6894 58.8653C21.2062 53.0935 27.8649 49.6079 32.7481 44.2066C37.6116 38.8262 40.5583 31.9147 45.9352 26.9775C47.9566 25.1224 50.2822 23.6419 52.8941 22.8798C52.9998 22.8878 53.1104 22.8828 53.2279 22.86C57.1255 22.0919 60.9679 21.0595 64.7204 19.751C68.4423 18.4533 72.024 16.8397 75.5878 15.1625C79.0135 13.5508 82.4737 11.9472 86.1501 11.0012C89.1452 10.2312 92.2322 9.91424 95.3211 10.0037C101.463 10.1825 107.548 12.0088 112.782 15.2499C118.222 18.6182 122.292 23.4859 125.265 29.1306C128.362 35.0098 130.313 41.4007 132.504 47.6535C134.751 54.0642 137.295 60.3617 141.238 65.9269C143.385 68.9574 145.767 71.9114 147.1 75.4248C148.353 78.7305 148.796 82.2559 148.654 85.7792L148.653 85.7772Z" fill="#B6B6B6"/>
<path d="M140.298 65.91C138.352 63.1984 136.693 60.3349 135.302 57.2964C132.612 51.4212 130.831 45.1823 128.549 39.1462C126.292 33.1776 123.521 27.2914 119.178 22.5509C115.018 18.0121 109.537 14.764 103.668 13.0252C97.7708 11.2774 91.4004 11.0459 85.4211 12.5224C81.8848 13.3958 78.5264 14.8902 75.2182 16.3925C71.7975 17.9465 68.3828 19.4687 64.8199 20.668C61.7448 21.7034 58.6075 22.541 55.4317 23.1928C55.2915 23.1749 55.1443 23.1779 54.9982 23.2037C48.1499 24.408 43.4701 30.1312 39.7719 35.59C37.7387 38.5907 35.816 41.6948 33.3472 44.3636C30.9585 46.946 28.1411 49.0653 25.4018 51.2493C22.6418 53.4491 19.9943 55.7533 17.8435 58.5781C15.7174 61.3712 14.1325 64.5517 13.0235 67.8823C10.6545 74.9985 10.5093 82.7338 11.7931 90.0785C14.0199 102.811 20.8208 114.717 30.4835 123.213C41.2285 132.662 55.0742 136.866 67.4446 143.572C69.0039 144.418 70.5395 145.305 72.0434 146.246C73.5977 147.219 75.1284 148.245 76.7785 149.051C80.1883 150.716 83.8914 151.136 87.6222 150.591C95.0383 149.509 101.118 144.734 106.91 140.304C117.454 132.24 128.039 123.886 136.127 113.219C140.112 107.964 143.438 102.113 145.496 95.8176C147.646 89.2369 148.37 81.766 145.883 75.1704C144.588 71.7375 142.419 68.861 140.301 65.911L140.298 65.91ZM145.208 85.1979C145.006 91.8422 142.638 98.2768 139.466 104.041C133.234 115.366 123.543 124.274 113.604 132.271C111.085 134.299 108.528 136.278 105.96 138.243C103.13 140.409 100.309 142.612 97.2661 144.473C91.2582 148.147 83.846 150.278 77.2614 146.796C75.6429 145.939 74.127 144.904 72.5678 143.946C71.1241 143.06 69.6507 142.223 68.1586 141.422C65.0983 139.781 61.9591 138.294 58.807 136.841C52.5215 133.943 46.1492 131.173 40.2222 127.565C29.3212 120.93 20.802 110.83 16.4146 98.7517C14.1641 92.5566 12.984 85.9451 13.2408 79.3416C13.5133 72.3317 15.4844 65.136 19.8669 59.5678C24.1487 54.1268 30.444 50.8499 35.0773 45.7656C39.7245 40.6654 42.5349 34.0867 47.6966 29.4336C49.6015 27.7157 51.7937 26.3604 54.2418 25.6649C54.3277 25.6649 54.4156 25.6579 54.5025 25.642C58.1987 24.9554 61.8455 24.0205 65.4104 22.8202C68.9209 21.6388 72.3041 20.1593 75.6735 18.6232C78.9105 17.1477 82.1791 15.6712 85.6294 14.772C88.4695 14.0327 91.3945 13.7187 94.3254 13.7883C100.182 13.9274 105.994 15.6314 110.999 18.6967C116.186 21.8733 120.072 26.4786 122.914 31.8352C128.838 43.0014 130.591 56.0037 137.97 66.4555C139.985 69.3101 142.251 72.0684 143.578 75.3403C144.843 78.4622 145.313 81.8385 145.21 85.1949L145.208 85.1979Z" fill="#B6B6B6"/>
<path d="M137.129 66.681C135.306 64.1513 133.744 61.4824 132.434 58.6497C129.874 53.1173 128.179 47.2341 126.017 41.5427C123.864 35.8732 121.226 30.2802 117.088 25.7831C113.141 21.4937 107.944 18.4304 102.385 16.7919C96.8514 15.1604 90.8869 14.9319 85.2671 16.2633C81.8444 17.0741 78.5856 18.487 75.3723 19.895C72.1313 21.3148 68.8933 22.7059 65.523 23.7939C62.6059 24.7358 59.6325 25.49 56.6236 26.0683C56.4972 26.0553 56.3669 26.0593 56.2365 26.0812C49.7585 27.194 45.3118 32.5734 41.7963 37.7213C39.8727 40.5382 38.0537 43.4494 35.7232 45.9533C33.4164 48.4304 30.6879 50.4484 28.0483 52.5439C25.4433 54.6116 22.9607 56.7906 20.9512 59.4644C18.9663 62.1044 17.4949 65.1101 16.4729 68.2509C14.2905 74.9548 14.2075 82.233 15.4666 89.1276C17.6638 101.161 24.2089 112.37 33.4095 120.341C43.5965 129.166 56.6394 133.146 68.2969 139.481C69.7929 140.293 71.2663 141.147 72.709 142.053C74.1833 142.979 75.633 143.955 77.1972 144.724C80.3226 146.261 83.7473 146.725 87.1838 146.269C94.1921 145.34 99.9314 141.018 105.421 136.862C115.406 129.3 125.457 121.477 133.138 111.448C136.925 106.502 140.092 100.999 142.056 95.0585C144.103 88.8673 144.8 81.8395 142.498 75.6135C141.269 72.2919 139.176 69.5227 137.129 66.681ZM141.748 85.0727C141.532 91.3692 139.249 97.461 136.202 102.901C130.265 113.505 121.093 121.815 111.708 129.283C109.329 131.177 106.914 133.024 104.491 134.86C101.781 136.913 99.0743 138.994 96.1394 140.716C93.3092 142.375 90.2342 143.685 86.9655 144.123C83.6564 144.566 80.4234 144.029 77.4855 142.429C76.027 141.634 74.6524 140.697 73.2383 139.825C71.8222 138.953 70.3755 138.13 68.9101 137.344C66.0355 135.803 63.0878 134.404 60.1283 133.037C54.226 130.312 48.2437 127.708 42.6633 124.342C37.3743 121.152 32.6501 117.195 28.705 112.416C24.9812 107.904 21.9821 102.73 19.9429 97.2345C17.7941 91.4457 16.6368 85.2635 16.8264 79.0763C17.0308 72.4171 18.8646 65.5572 23.0417 60.2752C27.0855 55.1611 33.0263 52.1018 37.4029 47.3295C41.7963 42.5393 44.4655 36.3501 49.3487 31.9902C51.1746 30.3597 53.276 29.0839 55.6193 28.447C55.6707 28.444 55.7211 28.438 55.7724 28.4301C59.3057 27.819 62.7955 26.9675 66.2083 25.8596C69.5688 24.7686 72.8068 23.3825 76.0399 21.9627C79.11 20.6143 82.2186 19.268 85.4784 18.4533C88.1555 17.7836 90.9106 17.5093 93.6667 17.5878C99.173 17.7458 104.631 19.3525 109.34 22.23C114.284 25.2515 117.972 29.6502 120.669 34.7564C123.429 39.9818 125.188 45.6553 127.162 51.2065C129.185 56.8959 131.475 62.482 134.997 67.4173C136.906 70.0941 139.037 72.7033 140.258 75.7974C141.422 78.7484 141.855 81.913 141.746 85.0747L141.748 85.0727Z" fill="#B6B6B6"/>
<path d="M133.712 67.1093C131.991 64.7087 130.544 62.1522 129.317 59.4625C126.95 54.2679 125.356 48.7633 123.296 43.4465C121.242 38.1446 118.707 32.9232 114.766 28.765C111.019 24.8134 106.139 22.0045 100.935 20.5101C95.6911 19.0048 90.0544 18.818 84.7446 20.0928C81.633 20.8399 78.6498 22.0839 75.706 23.322C72.5846 24.6345 69.466 25.9252 66.227 26.9218C63.467 27.7714 60.6575 28.441 57.8165 28.9448C57.7059 28.9369 57.5923 28.9418 57.4788 28.9607C51.3711 29.9811 47.1574 35.0167 43.8236 39.8546C41.973 42.5413 40.2222 45.3215 37.9638 47.6892C35.8219 49.9348 33.3156 51.7769 30.8874 53.6886C28.4314 55.6212 26.0901 57.6611 24.197 60.1709C22.3129 62.6699 20.9195 65.5195 19.9626 68.5004C17.9442 74.7919 17.9017 81.611 19.1203 88.0655C21.2681 99.4353 27.5615 109.982 36.3166 117.451C45.9951 125.708 58.3181 129.461 69.313 135.479C70.6895 136.233 72.0454 137.025 73.3736 137.861C74.7669 138.741 76.1376 139.667 77.6159 140.399C80.6613 141.907 83.9931 142.331 87.3418 141.868C93.8859 140.962 99.2777 136.907 104.427 133.045C113.871 125.965 123.36 118.61 130.568 109.13C134.1 104.485 137.041 99.2893 138.812 93.7012C140.685 87.7982 141.195 81.1261 138.817 75.2887C137.586 72.2661 135.594 69.7374 133.711 67.1103L133.712 67.1093ZM138.305 84.3196C138.213 90.2236 136.141 95.9478 133.325 101.066C127.81 111.088 119.156 118.909 110.303 125.903C108.043 127.69 105.746 129.428 103.442 131.157C100.92 133.049 98.3988 134.966 95.6763 136.562C92.9932 138.133 90.085 139.374 86.9882 139.796C83.8243 140.227 80.7275 139.71 77.921 138.172C76.5434 137.417 75.2439 136.528 73.9078 135.701C72.5757 134.876 71.2159 134.099 69.8373 133.357C67.1336 131.901 64.3606 130.578 61.5749 129.288C55.958 126.687 50.2601 124.212 44.9424 121.017C39.9645 118.026 35.5118 114.328 31.7781 109.856C28.2665 105.652 25.4196 100.828 23.4702 95.6964C21.3985 90.2435 20.2609 84.404 20.4248 78.5557C20.5986 72.3327 22.2991 65.9051 26.2204 60.9787C29.9848 56.2502 35.4802 53.4144 39.5902 49.0425C43.8177 44.5455 46.3487 38.6583 51.0057 34.5418C52.7654 32.9868 54.7938 31.7845 57.0541 31.2102C60.4186 30.6757 63.7435 29.9116 66.9973 28.8991C70.0931 27.9353 73.0823 26.7052 76.0685 25.4473C78.9717 24.2252 81.9066 22.9921 84.9668 22.2191C87.5195 21.5732 90.1453 21.305 92.776 21.3735C97.908 21.5076 103.006 22.9623 107.425 25.5973C112.054 28.3586 115.558 32.3817 118.128 37.1043C123.484 46.944 125.061 58.4917 131.588 67.7482C133.41 70.3326 135.478 72.8007 136.738 75.7338C137.895 78.4325 138.35 81.3924 138.305 84.3186V84.3196Z" fill="#B6B6B6"/>
<path d="M130.615 67.9817C129.001 65.7501 127.634 63.3793 126.478 60.8774C124.224 56.0038 122.71 50.8291 120.76 45.8322C118.812 40.8383 116.414 35.918 112.686 32.0081C109.154 28.303 104.559 25.6769 99.6643 24.2799C94.7258 22.8709 89.4229 22.696 84.4192 23.8745C81.4824 24.566 78.6532 25.7037 75.8576 26.8245C72.9159 28.0029 69.9761 29.1644 66.9306 30.0488C64.3246 30.8059 61.6732 31.3911 58.9961 31.8223C58.9042 31.8194 58.8114 31.8243 58.7186 31.8392C58.4944 31.876 58.2732 31.9177 58.054 31.9654C57.9612 31.9793 57.8683 31.9942 57.7755 32.0072C57.6896 32.0191 57.6096 32.0489 57.5365 32.0886C52.4262 33.425 48.7794 37.776 45.8495 41.986C44.1105 44.4849 42.4653 47.0702 40.3481 49.2701C38.3356 51.3606 35.9814 53.0716 33.7032 54.8492C31.353 56.6834 29.1271 58.6219 27.3309 61.0245C25.6018 63.3366 24.3299 65.9816 23.4589 68.7339C21.5965 74.6151 21.5975 80.9891 22.7775 87.0054C24.8631 97.637 30.8395 107.458 39.0614 114.417C48.177 122.132 59.7387 125.679 70.065 131.33C71.3546 132.036 72.6255 132.775 73.8688 133.559C75.199 134.396 76.5005 135.288 77.9017 136.003C80.646 137.403 83.6934 137.915 86.7478 137.564C92.967 136.849 98.0853 133.189 102.99 129.559C111.872 122.984 120.837 116.157 127.621 107.306C130.94 102.976 133.707 98.1477 135.382 92.9273C137.148 87.4247 137.638 81.1848 135.44 75.7289C134.285 72.8593 132.41 70.4628 130.615 67.9807V67.9817ZM134.847 84.1805C134.746 89.6175 132.84 94.8857 130.243 99.5983C125.05 109.023 116.848 116.332 108.481 122.851C106.377 124.49 104.241 126.086 102.098 127.673C99.7482 129.414 97.392 131.169 94.8492 132.619C92.2955 134.074 89.495 135.22 86.5532 135.524C83.6184 135.827 80.8277 135.298 78.2454 133.854C76.933 133.121 75.6927 132.265 74.4139 131.475C73.217 130.736 71.9965 130.038 70.7611 129.368C68.1699 127.964 65.5096 126.693 62.8384 125.453C57.6254 123.034 52.3393 120.731 47.388 117.789C42.6915 114.998 38.4758 111.561 34.9257 107.385C31.5821 103.453 28.8536 98.9316 26.9793 94.1096C25.0201 89.0691 23.9151 83.6648 24.0168 78.2427C24.1264 72.4351 25.664 66.4565 29.2812 61.8303C32.7977 57.3312 38.0324 54.7012 41.9271 50.5936C45.8959 46.4075 48.2856 40.9188 52.6603 37.0964C54.3904 35.5841 56.397 34.4435 58.6317 33.9506C61.686 33.4996 64.7097 32.8507 67.6732 31.9793C70.5844 31.1228 73.4007 30.017 76.2161 28.8872C78.9742 27.7813 81.7579 26.6576 84.6464 25.9392C87.046 25.343 89.5138 25.0976 91.9835 25.1642C96.8005 25.2953 101.584 26.6456 105.738 29.1078C110.094 31.6882 113.392 35.4599 115.818 39.8904C120.869 49.1201 122.389 59.9504 128.558 68.6196C130.274 71.0321 132.207 73.3442 133.386 76.0916C134.477 78.6332 134.898 81.4243 134.848 84.1795L134.847 84.1805Z" fill="#B6B6B6"/>
<path d="M127.51 68.8441C125.973 66.7347 124.665 64.4981 123.562 62.1303C121.463 57.6213 120.039 52.8351 118.221 48.2118C116.379 43.528 114.118 38.9077 110.602 35.2492C107.3 31.8123 103.023 29.378 98.4659 28.0734C93.8138 26.7409 88.819 26.57 84.0998 27.657C78.5155 28.9428 73.342 31.6136 67.8189 33.1279C65.3007 33.8184 62.7372 34.344 60.1519 34.7037C60.0877 34.7047 60.0225 34.7107 59.9574 34.7206C59.8873 34.7315 59.8181 34.7454 59.748 34.7574C59.6078 34.7763 59.4676 34.7961 59.3274 34.814C59.1802 34.8329 59.038 34.8726 58.9096 34.9332C54.0956 36.1355 50.6462 40.1845 47.8743 44.1211C46.2815 46.3836 44.7736 48.7235 42.8539 50.7276C41.0043 52.6572 38.8357 54.2232 36.7294 55.8487C34.5144 57.5587 32.3923 59.3432 30.6869 61.5848C29.0615 63.7201 27.8587 66.1574 27.0351 68.7119C25.2704 74.1808 25.2764 80.1206 26.3863 85.7205C28.3544 95.6457 33.9911 104.782 41.6649 111.273C50.189 118.484 60.9864 121.838 70.654 127.1C71.8676 127.761 73.0655 128.453 74.2376 129.185C75.4888 129.967 76.7044 130.811 78.003 131.513C80.5547 132.891 83.3848 133.481 86.2733 133.236C92.1114 132.739 96.9758 129.405 101.585 126.045C109.892 119.992 118.325 113.695 124.671 105.486C127.818 101.416 130.448 96.8837 132.014 91.9534C133.64 86.8383 134.047 81.0585 131.991 76.003C130.913 73.3531 129.177 71.1354 127.508 68.8461L127.51 68.8441ZM127.221 98.0244C122.418 106.792 114.753 113.573 106.942 119.576C104.934 121.118 102.898 122.622 100.854 124.115C98.615 125.749 96.3665 127.392 93.9323 128.722C91.5653 130.015 88.978 130.999 86.2762 131.229C83.5142 131.464 80.9348 130.89 78.5293 129.511C77.3048 128.808 76.1415 128.003 74.9397 127.261C73.814 126.568 72.6665 125.91 71.5042 125.281C69.0937 123.975 66.621 122.791 64.1365 121.636C59.2098 119.344 54.2121 117.165 49.5313 114.383C45.1666 111.789 41.2433 108.602 37.9253 104.737C34.7929 101.088 32.2195 96.8917 30.4459 92.4085C28.5815 87.6929 27.52 82.6274 27.6207 77.5412C27.7264 72.1786 29.1681 66.6154 32.5779 62.3886C35.9088 58.2602 40.7791 55.8437 44.3924 52.0124C48.0294 48.1562 50.273 43.1395 54.3178 39.6509C56.0242 38.1794 58.0169 37.0993 60.2329 36.6979C62.8754 36.3342 65.4953 35.8285 68.0736 35.1349C70.8367 34.3917 73.5157 33.4071 76.1899 32.3936C78.8147 31.399 81.4562 30.3746 84.1837 29.6959C86.3898 29.1475 88.6551 28.909 90.9264 28.9507C95.4501 29.0332 99.962 30.2504 103.887 32.5227C107.947 34.8726 111.058 38.3115 113.351 42.3952C118.175 50.984 119.593 61.1456 125.36 69.2584C126.947 71.4931 128.739 73.6164 129.892 76.1282C130.959 78.4493 131.401 81.0347 131.396 83.5793C131.387 88.6696 129.64 93.6098 127.222 98.0244H127.221Z" fill="#B6B6B6"/>
<path d="M124.264 69.5129C122.857 67.5892 121.663 65.5444 120.648 63.3853C118.677 59.1923 117.338 54.7379 115.622 50.4396C113.897 46.1154 111.781 41.8598 108.518 38.4875C105.415 35.2791 101.391 33.0226 97.1205 31.8203C92.7952 30.6032 88.1668 30.4541 83.7804 31.4358C78.5673 32.6023 73.6901 34.9572 68.5107 36.2608C65.9135 36.9146 63.272 37.3746 60.6097 37.6538C60.425 37.6727 60.2502 37.7313 60.1001 37.8217C55.7225 38.9356 52.5359 42.5732 49.9753 46.1512C48.4654 48.2606 47.0454 50.4505 45.2333 52.3185C43.4943 54.1109 41.4541 55.5547 39.4782 57.064C37.437 58.6229 35.4857 60.2564 33.9185 62.3122C32.3928 64.3153 31.2691 66.6036 30.5136 69.0071C28.905 74.1192 28.9781 79.6675 30.09 84.8731C32.0462 94.0321 37.3708 102.419 44.5361 108.353C52.5082 114.957 62.4839 118.096 71.4574 122.98C72.588 123.595 73.7039 124.239 74.7961 124.921C75.9179 125.622 77.0051 126.379 78.1546 127.032C80.5206 128.376 83.1316 129.032 85.8521 128.885C91.2943 128.591 95.894 125.586 100.206 122.506C107.966 116.963 115.867 111.166 121.792 103.575C124.71 99.8358 127.145 95.6736 128.602 91.1318C130.131 86.3655 130.486 80.9741 128.546 76.2714C127.513 73.7675 125.85 71.6799 124.266 69.5139L124.264 69.5129ZM124.118 96.5947C119.653 104.71 112.494 110.938 105.216 116.439C103.329 117.865 101.416 119.255 99.4935 120.633C97.4 122.134 95.2877 123.636 92.9977 124.822C90.8045 125.959 88.4117 126.783 85.9351 126.931C83.3794 127.085 81.0341 126.472 78.831 125.177C76.6299 123.881 74.5334 122.435 72.2839 121.217C70.062 120.014 67.7848 118.92 65.4958 117.854C60.9316 115.728 56.3012 113.711 51.9532 111.153C47.8729 108.752 44.1767 105.824 41.0463 102.252C38.1342 98.9296 35.7247 95.1132 34.0301 91.0205C32.2506 86.7232 31.199 82.0741 31.2108 77.4091C31.2236 72.4092 32.4876 67.2037 35.6378 63.2362C38.7257 59.3473 43.3205 57.1355 46.7195 53.5724C50.1017 50.0272 52.2051 45.403 55.9704 42.2055C57.6235 40.8016 59.5629 39.798 61.7137 39.4771C61.7137 39.4771 61.7147 39.4771 61.7157 39.4771C64.059 39.1929 66.3865 38.7865 68.6805 38.2251C71.2302 37.6012 73.7079 36.7576 76.1816 35.8842C78.672 35.0039 81.1704 34.0858 83.7349 33.4479C85.7988 32.9342 87.917 32.7086 90.0421 32.7404C94.2716 32.805 98.4951 33.9169 102.176 36.0223C105.931 38.1705 108.826 41.3143 110.97 45.0641C115.502 52.9921 116.842 62.4155 122.183 69.9292C123.688 72.0466 125.402 74.0457 126.509 76.4194C127.514 78.5716 127.939 80.9731 127.939 83.3399C127.94 88.0129 126.346 92.5467 124.118 96.5956V96.5947Z" fill="#B6B6B6"/>
<path d="M120.958 70.1C119.668 68.3334 118.58 66.4456 117.65 64.4643C115.834 60.5952 114.584 56.4916 112.97 52.538C111.346 48.5586 109.348 44.6438 106.288 41.5775C103.366 38.6494 99.6193 36.6045 95.6465 35.5344C91.6412 34.4553 87.3762 34.3411 83.3275 35.2453C78.5302 36.3164 73.9867 38.3185 69.1875 39.3975C66.7819 39.9391 64.3458 40.2938 61.8898 40.4935C61.6815 40.5104 61.4869 40.5829 61.328 40.6982C57.3019 41.7286 54.3532 45.0472 51.9684 48.3281C50.5484 50.2825 49.2094 52.3095 47.4951 54.0225C45.8578 55.6579 43.9489 56.9675 42.1112 58.3596C40.2172 59.7933 38.4338 61.3126 37.0019 63.2282C35.6214 65.0754 34.6171 67.2007 33.9564 69.4105C32.5384 74.15 32.6895 79.277 33.8053 84.0622C35.7724 92.494 40.8363 100.144 47.5365 105.531C54.9823 111.518 64.1858 114.426 72.463 118.971C74.5881 120.138 76.5582 121.549 78.6606 122.749C80.8518 123.999 83.2732 124.619 85.7952 124.506C90.8177 124.282 95.0926 121.568 99.0979 118.764C106.282 113.736 113.606 108.445 119.06 101.465C124.433 94.5885 128.7 84.8829 124.973 76.2475C123.993 73.9761 122.403 72.0773 120.958 70.0981V70.1ZM121.082 95.0456C117.014 102.478 110.423 108.142 103.732 113.118C101.98 114.422 100.202 115.69 98.4165 116.947C96.479 118.31 94.5218 119.668 92.4056 120.739C90.3506 121.779 88.107 122.515 85.7962 122.616C83.4262 122.721 81.2715 122.114 79.2402 120.901C77.2346 119.703 75.3198 118.38 73.2668 117.26C71.2188 116.141 69.1174 115.123 67.0051 114.135C62.7904 112.162 58.5116 110.302 54.4767 107.969C50.7153 105.794 47.2818 103.167 44.3479 99.9411C41.5375 96.85 39.2307 93.2978 37.5608 89.4585C34.152 81.6229 33.1931 71.2705 38.6737 64.1205C41.4654 60.4779 45.759 58.4788 48.9408 55.2446C52.1304 52.0025 54.0955 47.7131 57.611 44.772C59.1485 43.4853 60.9527 42.5811 62.9415 42.2989C62.9712 42.2949 63.0008 42.288 63.0284 42.28C65.1516 42.0684 67.2638 41.7494 69.3494 41.2953C71.7214 40.7787 74.0331 40.0563 76.3409 39.3081C78.6586 38.557 80.9762 37.7631 83.3433 37.1818C85.2334 36.7168 87.1698 36.5071 89.1152 36.526C93.006 36.5658 96.9007 37.5415 100.314 39.4313C103.849 41.3887 106.589 44.2841 108.617 47.7737C112.814 54.9942 114.082 63.6098 118.935 70.4915C120.322 72.4579 121.931 74.2921 123.01 76.4611C123.979 78.4066 124.435 80.5826 124.484 82.7497C124.578 87.0798 123.14 91.2917 121.085 95.0466L121.082 95.0456Z" fill="#B6B6B6"/>
<path d="M117.655 70.6932C116.501 69.1084 115.531 67.4074 114.694 65.6328C113.026 62.0975 111.862 58.3516 110.361 54.7458C108.847 51.1102 106.979 47.5442 104.147 44.7621C101.435 42.0962 97.9685 40.2471 94.3108 39.2863C90.5909 38.3096 86.6429 38.2182 82.8874 39.0508C78.4831 40.0275 74.2557 41.6878 69.8198 42.5433C67.6236 42.9666 65.4037 43.214 63.171 43.3352C62.9132 43.3491 62.7118 43.4495 62.5676 43.5975C58.9474 44.5772 56.293 47.3723 54.0642 50.371C52.7449 52.1466 51.5086 53.9967 49.9296 55.5566C48.4108 57.059 46.6343 58.2473 44.9289 59.5181C43.1751 60.8237 41.5348 62.2148 40.2165 63.9765C38.9525 65.6666 38.0401 67.625 37.4535 69.6529C36.2004 73.9821 36.3949 78.6491 37.4703 82.9931C39.3811 90.7125 44.1458 97.6628 50.3433 102.546C57.2746 108.008 65.772 110.703 73.4123 114.932C75.3873 116.025 77.2142 117.348 79.1685 118.469C81.1366 119.598 83.3051 120.181 85.5744 120.134C90.1751 120.041 94.1528 117.64 97.851 115.121C104.511 110.584 111.319 105.769 116.337 99.3519C121.273 93.0395 125.065 84.094 121.403 76.2495C120.45 74.2086 118.969 72.4966 117.654 70.6922L117.655 70.6932ZM118.121 93.3555C114.456 100.173 108.396 105.315 102.249 109.8C100.631 110.98 98.9886 112.129 97.3385 113.262C95.5689 114.478 93.7805 115.688 91.8529 116.639C89.9994 117.553 87.9799 118.195 85.9072 118.292C83.7376 118.393 81.735 117.865 79.8676 116.759C78.0003 115.654 76.2326 114.402 74.3317 113.35C72.4722 112.32 70.5644 111.384 68.6427 110.478C64.7836 108.658 60.8582 106.959 57.1354 104.861C53.6179 102.88 50.3799 100.508 47.5971 97.5614C44.9634 94.7733 42.7791 91.564 41.1724 88.0724C37.9097 80.985 36.8195 71.5756 41.7422 64.9671C44.2159 61.6464 48.1037 59.853 51.0425 57.0252C54.083 54.1 55.9099 50.1186 59.1726 47.4021C60.5215 46.2793 62.1687 45.392 63.9215 45.1575C63.9985 45.1476 64.0735 45.1297 64.1456 45.1078C66.1246 44.9677 68.0956 44.7263 70.0459 44.3616C72.1908 43.9602 74.2892 43.377 76.3837 42.7689C80.235 41.6511 84.0596 40.3107 88.1113 40.3167C91.7068 40.3216 95.322 41.1722 98.4998 42.8792C101.712 44.6051 104.246 47.1586 106.132 50.2786C110.082 56.8145 111.266 64.6889 115.641 71.0013C116.886 72.7987 118.356 74.4451 119.418 76.3677C120.383 78.1155 120.901 80.0878 121.008 82.08C121.218 86.0365 119.974 89.9086 118.12 93.3555H118.121Z" fill="#B6B6B6"/>
<path d="M114.567 71.5815C113.486 70.1199 112.573 68.553 111.788 66.9116C110.238 63.6714 109.141 60.2365 107.74 56.9318C106.349 53.6509 104.598 50.4306 102.005 47.9476C99.5126 45.5619 96.3645 43.9155 93.0425 43.056C89.6574 42.1807 86.0777 42.0952 82.656 42.8106C78.6201 43.6542 74.7037 45.0104 70.6223 45.6583C68.5812 45.9822 66.5163 46.1302 64.4524 46.176C64.169 46.1819 63.9567 46.2972 63.8145 46.4671C60.5953 47.3355 58.1858 49.7619 56.1614 52.4148C54.9428 54.0115 53.8062 55.6818 52.3655 57.0907C50.9889 58.4371 49.3753 59.4913 47.8249 60.618C46.2301 61.7776 44.7261 63.0156 43.5263 64.5974C42.3808 66.1067 41.5523 67.8465 41.0191 69.6648C39.8726 73.5717 40.078 77.7995 41.0843 81.7123C42.8884 88.7312 47.3094 94.9929 52.9678 99.4174C59.3046 104.372 67.0387 106.864 74.0154 110.7C75.7909 111.677 77.4489 112.818 79.1701 113.884C80.9407 114.981 82.8486 115.654 84.9352 115.745C89.133 115.929 92.9112 113.903 96.3201 111.662C102.456 107.626 108.752 103.335 113.388 97.5336C117.926 91.8561 121.33 83.8128 118.038 76.6996C117.165 74.8137 115.794 73.2369 114.569 71.5815H114.567ZM114.95 92.0558C111.594 98.2112 106.015 102.787 100.392 106.757C98.9182 107.798 97.4241 108.806 95.9221 109.803C94.2878 110.888 92.6278 111.955 90.8325 112.755C89.0846 113.533 87.1867 114.007 85.2699 113.98C83.3038 113.953 81.5688 113.3 79.9167 112.262C78.2745 111.229 76.6797 110.146 74.9792 109.207C73.2629 108.261 71.5032 107.397 69.7316 106.561C66.222 104.905 62.6572 103.353 59.2691 101.451C56.0607 99.6509 53.0962 97.5067 50.5376 94.8439C48.138 92.3459 46.1304 89.4784 44.6373 86.3445C41.6323 80.0411 40.4789 71.5388 44.9552 65.6209C47.2324 62.6102 50.8121 61.0314 53.4981 58.4589C56.2078 55.8646 57.8826 52.3522 60.8125 49.9676C62.0518 48.959 63.5597 48.1771 65.1565 47.9794C65.2444 47.9684 65.3293 47.9485 65.4103 47.9217C67.1977 47.8502 68.9782 47.6902 70.7487 47.4239C72.6941 47.1318 74.6049 46.6737 76.5118 46.1958C80.0767 45.3016 83.6159 44.0983 87.3259 44.1033C90.5787 44.1073 93.8562 44.8465 96.7506 46.3578C99.7121 47.9048 102.061 50.21 103.814 53.0557C107.445 58.9528 108.57 66.0819 112.551 71.7932C113.686 73.4217 115.025 74.9091 116.017 76.637C116.921 78.2129 117.433 79.9954 117.55 81.8097C117.783 85.4086 116.655 88.9299 114.95 92.0558Z" fill="#B6B6B6"/>
<path d="M111.111 71.9701C110.169 70.6714 109.388 69.2645 108.702 67.8148C107.323 64.8995 106.319 61.8223 105.01 58.8763C103.72 55.973 102.078 53.1362 99.7039 50.992C97.3695 48.8836 94.4702 47.4548 91.4228 46.7404C88.3141 46.0111 85.0485 45.9842 81.9309 46.6748C78.4006 47.4568 74.8762 48.4076 71.2728 48.7941C69.4331 48.9909 67.5825 49.0475 65.7339 49.0177C65.4278 49.0127 65.2066 49.1429 65.0713 49.3337C62.2086 50.0998 60.0163 52.2082 58.1865 54.5551C57.0686 55.9889 56.014 57.4882 54.6848 58.7382C53.4129 59.9345 51.9267 60.8595 50.5116 61.87C49.06 62.9064 47.717 64.0301 46.6456 65.4719C45.6146 66.8589 44.8888 68.4815 44.4503 70.1528C43.5201 73.697 43.8253 77.4945 44.8493 80.9821C46.7078 87.3163 50.9086 92.7971 56.1374 96.7099C61.9587 101.065 68.9937 103.293 75.2761 106.835C76.8937 107.747 78.3927 108.833 79.9816 109.79C81.611 110.771 83.3993 111.327 85.3032 111.375C88.9955 111.466 92.3204 109.744 95.3599 107.814C100.9 104.298 106.604 100.528 110.738 95.3288C114.839 90.172 117.749 82.7716 114.339 76.481C113.454 74.8485 112.195 73.4654 111.112 71.9701H111.111ZM112.063 90.2236C109.159 95.7759 104.14 99.8398 99.0779 103.317C97.7526 104.228 96.4067 105.108 95.0528 105.975C93.5775 106.921 92.0844 107.862 90.4748 108.563C88.9481 109.227 87.3009 109.65 85.6321 109.66C83.8397 109.671 82.2163 109.151 80.6936 108.216C79.1867 107.29 77.7518 106.265 76.2103 105.393C74.6738 104.524 73.0948 103.732 71.5029 102.971C68.3488 101.461 65.1355 100.07 62.0565 98.405C59.1216 96.8172 56.3645 94.9612 53.9669 92.6202C51.7282 90.4343 49.8214 87.9214 48.3668 85.1423C45.4398 79.5493 44.079 71.9254 48.0241 66.4675C50.004 63.7291 53.2579 62.348 55.7118 60.1203C58.22 57.8419 59.7487 54.6535 62.4307 52.548C63.5733 51.6518 64.9341 50.9672 66.3867 50.8042C66.4795 50.7933 66.5703 50.7724 66.6553 50.7416C69.9575 50.7227 73.1846 50.3203 76.4325 49.6626C78.1833 49.3078 79.9283 48.9184 81.6663 48.503C83.1307 48.1533 84.5932 47.9267 86.1001 47.8969C89.0587 47.8373 92.0656 48.4196 94.7398 49.7162C97.4327 51.0218 99.6358 52.9971 101.278 55.507C104.678 60.7016 105.738 67.0646 109.205 72.2244C110.188 73.689 111.38 74.9996 112.341 76.481C113.242 77.8691 113.84 79.4191 114.042 81.0695C114.433 84.2501 113.526 87.4296 112.063 90.2276L112.063 90.2236Z" fill="#B6B6B6"/>
<path d="M107.918 72.7231C107.077 71.5686 106.378 70.3166 105.759 69.0279C104.514 66.4306 103.594 63.6912 102.384 61.078C101.193 58.5046 99.6685 55.9977 97.4999 54.1387C95.361 52.3035 92.7491 51.0784 90.0088 50.4782C87.2072 49.8652 84.2862 49.8652 81.4837 50.4743C78.3632 51.1529 75.1736 51.7481 71.979 51.915C70.3239 52.0014 68.6659 51.9617 67.0129 51.8574C66.684 51.8365 66.4579 51.9826 66.3325 52.1952C63.8005 52.8619 61.8295 54.6812 60.1715 56.737C59.1603 57.9899 58.2034 59.3015 57.0006 60.3805C55.8581 61.404 54.5289 62.1869 53.2738 63.0583C52.0048 63.9396 50.8346 64.9074 49.9034 66.1534C48.9831 67.3845 48.3412 68.8302 47.9709 70.3216C47.1947 73.4505 47.5315 76.786 48.5041 79.8314C50.2984 85.4483 54.1655 90.2414 58.8808 93.6704C64.1333 97.4908 70.4059 99.5088 76.0238 102.681C77.4369 103.479 78.7572 104.402 80.1209 105.279C81.5676 106.209 83.1121 106.807 84.8283 106.962C88.1463 107.263 91.2471 105.855 94.0299 104.192C99.0128 101.213 104.166 97.9499 107.876 93.3872C111.581 88.8295 114.055 82.229 110.849 76.7075C110.017 75.2757 108.888 74.0546 107.917 72.7221L107.918 72.7231ZM108.96 88.7957C106.409 93.6803 101.905 97.1699 97.4012 100.127C96.2034 100.914 94.9868 101.672 93.7632 102.417C92.441 103.223 91.093 104.021 89.6404 104.567C88.2303 105.098 86.755 105.403 85.2451 105.331C83.6364 105.256 82.2213 104.668 80.8813 103.798C79.5689 102.948 78.2921 102.061 76.9303 101.289C75.5626 100.514 74.1584 99.8059 72.7433 99.1253C69.9398 97.777 67.0849 96.5359 64.3367 95.0734C61.705 93.6724 59.2106 92.0538 57.0273 90.0069C54.995 88.1012 53.2372 85.9103 51.8794 83.47C49.2072 78.6679 47.7457 71.9889 51.1911 67.1828C52.9153 64.7773 55.7978 63.6048 57.9891 61.714C60.2435 59.7695 61.626 56.9794 64.003 55.1631C65.0566 54.3573 66.292 53.7562 67.6212 53.626C67.711 53.617 67.7979 53.5972 67.8799 53.5674C69.2456 53.6329 70.6143 53.6488 71.98 53.5773C73.5047 53.4978 75.0146 53.2901 76.5245 53.0696C78.0738 52.843 79.6183 52.5787 81.1499 52.2488C82.485 51.9617 83.7954 51.7252 85.1641 51.6845C90.466 51.5275 95.7382 53.6449 98.8262 58.1012C101.975 62.646 102.974 68.2956 106.028 72.894C106.902 74.2096 107.97 75.3781 108.867 76.6757C109.731 77.9267 110.319 79.279 110.568 80.7853C111.022 83.5396 110.23 86.3684 108.961 88.7967L108.96 88.7957Z" fill="#B6B6B6"/>
<path d="M104.73 73.4863C103.986 72.4718 103.365 71.3729 102.813 70.2422C101.701 67.9638 100.863 65.5613 99.7508 63.2829C98.6468 61.0215 97.2268 58.8395 95.2459 57.2587C93.3143 55.7176 91.0115 54.7041 88.598 54.2212C86.1184 53.7254 83.5815 53.7532 81.1058 54.257C78.3507 54.8184 75.4662 55.0886 72.6538 55.036C71.1953 55.0092 69.7417 54.873 68.294 54.6982C68.0343 54.6664 67.7963 54.8234 67.6492 55.04C65.4767 55.5815 63.7357 57.0629 62.2663 58.7898C61.3558 59.8609 60.5026 60.9927 59.4352 61.9157C58.4101 62.803 57.2103 63.4608 56.0865 64.21C54.9371 64.977 53.8923 65.8365 53.0707 66.9593C52.2728 68.0493 51.7346 69.3469 51.4572 70.6684C50.8775 73.4257 51.2912 76.3191 52.261 78.9372C54.079 83.8457 57.6804 87.9502 61.9602 90.8595C66.6548 94.051 72.1087 95.8474 77.0117 98.6633C78.2609 99.3807 79.4291 100.209 80.6328 100.998C81.883 101.818 83.2181 102.37 84.7033 102.557C87.5947 102.921 90.3459 101.849 92.8364 100.473C97.2594 98.0264 101.879 95.2652 105.133 91.3017C106.684 89.4118 107.962 87.207 108.523 84.8025C109.145 82.1357 108.824 79.2741 107.352 76.9361C106.579 75.709 105.583 74.6508 104.728 73.4853L104.73 73.4863ZM105.897 87.2915C103.727 91.5094 99.7607 94.4256 95.8314 96.8599C93.6659 98.2023 91.4173 99.6778 88.991 100.487C87.7112 100.913 86.3801 101.119 85.0331 100.991C83.6793 100.864 82.4913 100.31 81.3675 99.5675C80.2368 98.8213 79.1358 98.0433 77.9626 97.3637C76.7569 96.6652 75.5176 96.0273 74.2654 95.4162C71.8628 94.2448 69.4109 93.1746 67.031 91.9545C64.6778 90.7483 62.3977 89.389 60.3901 87.6512C58.5168 86.0296 56.8588 84.1537 55.5513 82.0413C53.0569 78.0102 51.3791 72.2105 54.312 67.9598C55.8012 65.8017 58.4151 64.833 60.3792 63.2064C62.3384 61.5839 63.5698 59.2141 65.6446 57.7207C66.5975 57.0351 67.6739 56.5403 68.8529 56.4469C68.9438 56.4399 69.0258 56.4201 69.1008 56.3913C71.6041 56.6456 74.0739 56.6744 76.5949 56.4767C77.9409 56.3714 79.2849 56.2184 80.6151 55.9809C81.8603 55.7583 83.069 55.5109 84.3389 55.4682C88.9189 55.3132 93.6007 56.9805 96.4012 60.7612C99.2877 64.6581 100.224 69.6003 102.887 73.6254C104.367 75.863 106.461 77.6545 107.056 80.3809C107.572 82.7378 106.98 85.1821 105.896 87.2895L105.897 87.2915Z" fill="#B6B6B6"/>
<path d="M101.412 74.0755C100.785 73.2011 100.258 72.2582 99.7827 71.2934C98.8238 69.3469 98.0693 67.303 97.0532 65.3844C96.0232 63.4399 94.7039 61.6613 92.9294 60.3478C91.2299 59.0899 89.1759 58.3109 87.1061 57.9532C84.8773 57.5687 82.7206 57.6988 80.5047 58.0744C78.2285 58.4599 75.7864 58.4122 73.4954 58.1718C72.2472 58.0406 71.0128 57.8081 69.7814 57.5687C69.4338 57.5011 69.1583 57.6511 68.9924 57.8787C67.0964 58.3099 65.552 59.54 64.2287 61.0056C63.3943 61.9296 62.6072 62.9322 61.597 63.6724C60.6628 64.357 59.6279 64.8826 58.6602 65.5146C56.6378 66.8361 55.2908 68.7458 54.9452 71.1732C54.6035 73.5668 55.1486 75.9534 56.1036 78.1433C57.9107 82.2847 61.2958 85.6778 65.077 88.0387C69.2343 90.635 73.9161 92.2247 78.1288 94.7207C80.2677 95.9885 82.1489 97.7929 84.6917 98.1635C87.1782 98.5262 89.5344 97.784 91.7444 96.685C95.568 94.7853 99.6168 92.5576 102.394 89.2201C103.705 87.6442 104.78 85.7653 105.169 83.7284C105.62 81.3745 105.143 78.9779 103.748 77.0235C103.02 76.0011 102.145 75.0949 101.413 74.0755H101.412ZM102.952 85.5467C101.25 89.1366 97.857 91.5113 94.5252 93.4349C92.6341 94.5269 90.6591 95.7053 88.5587 96.3323C87.4745 96.6562 86.3527 96.8003 85.2239 96.685C84.037 96.5638 82.9813 96.0869 81.9948 95.4321C81.0093 94.7783 80.0613 94.0798 79.0452 93.4717C78.0399 92.8706 77.005 92.3191 75.9582 91.7955C73.8618 90.7472 71.714 89.8063 69.6126 88.767C65.6586 86.8106 61.9584 84.3583 59.3475 80.7128C57.0456 77.4995 55.045 72.597 57.3577 68.867C58.5318 66.9732 60.7211 66.2349 62.4344 64.9621C64.2465 63.6168 65.4048 61.563 67.2702 60.2921C68.1175 59.7149 69.0586 59.3293 70.0875 59.2717C70.1636 59.2677 70.2337 59.2528 70.2979 59.233C72.2986 59.5897 74.2913 59.8291 76.3345 59.8619C77.4395 59.8798 78.5455 59.8629 79.6456 59.7417C80.7545 59.6195 81.8427 59.3641 82.9566 59.2836C86.8839 59.0015 91.068 60.1173 93.7342 63.1716C96.4607 66.2955 97.3544 70.5293 99.515 74.002C100.717 75.9335 102.665 77.4786 103.421 79.6675C104.094 81.618 103.824 83.7055 102.952 85.5467Z" fill="#B6B6B6"/>
<path d="M98.054 74.6151C97.5592 73.8987 97.1356 73.1346 96.7455 72.3566C95.9239 70.7201 95.2406 69.0121 94.2965 67.4392C93.3377 65.8415 92.1112 64.4127 90.5272 63.4191C88.9808 62.4493 87.2033 61.9048 85.4061 61.6663C84.4729 61.5431 83.5328 61.5004 82.5927 61.5461C81.6417 61.5928 80.7115 61.7915 79.7645 61.8581C77.8951 61.9903 75.9458 61.7061 74.1298 61.2679C73.0949 61.0185 72.0768 60.7065 71.0557 60.4074C70.6844 60.2991 70.4 60.47 70.2529 60.7294C68.7104 61.0553 67.4089 61.9803 66.2733 63.124C65.5514 63.8503 64.875 64.6362 64.0148 65.2036C63.1765 65.757 62.2502 66.1575 61.398 66.689C59.659 67.7741 58.6389 69.4652 58.4868 71.521C58.3466 73.4158 58.9588 75.3185 59.8219 76.9808C61.5994 80.4038 64.6419 83.1193 67.9332 85.0281C71.5248 87.1107 75.4679 88.5017 79.0229 90.6519C80.8162 91.7359 82.3952 93.28 84.4956 93.7341C86.52 94.1722 88.5513 93.7579 90.4364 92.972C93.7238 91.6018 97.3153 89.9087 99.6636 87.1256C100.784 85.7971 101.609 84.2103 101.818 82.4646C102.064 80.4108 101.27 78.5607 100.005 76.9928C99.3614 76.1949 98.6386 75.4596 98.055 74.6151H98.054ZM99.9184 83.945C98.6889 86.9547 95.6672 88.7919 92.9101 90.1909C91.2669 91.0245 89.5496 91.9028 87.7356 92.2774C85.8149 92.6739 84.0137 92.2635 82.409 91.1527C80.7885 90.0299 79.1819 88.9667 77.4241 88.0655C75.6822 87.1713 73.8918 86.3764 72.1272 85.5318C68.7183 83.9003 65.4902 81.9956 63.0145 79.0694C61.9994 77.8691 61.1106 76.4999 60.5537 75.0204C59.9266 73.3552 59.6037 71.351 60.4687 69.7066C61.3624 68.0085 63.2584 67.4809 64.7604 66.4893C66.3315 65.453 67.3654 63.7827 68.9741 62.806C69.6949 62.3688 70.477 62.1135 71.3214 62.0936C71.3727 62.0926 71.4201 62.0866 71.4655 62.0767C73.0278 62.5248 74.585 62.9282 76.2045 63.1488C77.1081 63.271 78.0136 63.3783 78.9271 63.3773C79.8672 63.3754 80.7757 63.2025 81.7069 63.1041C84.9508 62.7593 88.6263 63.3783 91.0753 65.7054C93.5974 68.102 94.4921 71.5935 96.2301 74.5127C96.7001 75.3026 97.2452 76.0329 97.8407 76.7304C98.4845 77.4856 99.1847 78.2149 99.6774 79.0833C100.537 80.5966 100.571 82.3493 99.9194 83.946L99.9184 83.945Z" fill="#B6B6B6"/>
<path d="M94.8491 75.3959C94.4334 74.8017 94.0749 74.1698 93.7352 73.5289C93.0361 72.2094 92.413 70.8412 91.5449 69.6201C90.6601 68.3751 89.568 67.3109 88.2023 66.6134C86.8563 65.9258 85.3859 65.5652 83.8889 65.4211C83.1127 65.3456 82.3306 65.3376 81.5534 65.3893C80.7397 65.443 79.9428 65.586 79.1242 65.5354C77.6587 65.4439 76.1528 64.9263 74.8118 64.35C74.0356 64.0161 73.2732 63.6535 72.4971 63.3206C72.1435 63.1696 71.7446 63.2163 71.5283 63.57C70.2979 63.7956 69.2245 64.4573 68.2538 65.3038C67.6228 65.8543 67.0312 66.4177 66.2847 66.8092C65.5559 67.1907 64.7649 67.452 64.0618 67.8843C61.0776 69.7185 62.0414 73.525 63.6826 75.9474C65.467 78.5804 68.0819 80.5667 70.8627 82.0332C73.8094 83.5872 76.9497 84.7587 79.7957 86.5065C81.2749 87.4146 82.5666 88.6944 84.2355 89.2478C85.7947 89.7645 87.4824 89.6592 89.0466 89.223C90.5377 88.8076 92.0199 88.2244 93.4143 87.5527C94.6427 86.9615 95.8554 86.2213 96.7856 85.2068C97.6704 84.242 98.2975 83.0239 98.3893 81.7004C98.5098 79.9745 97.5914 78.5367 96.4913 77.3076C95.9314 76.6817 95.332 76.0875 94.8491 75.3969V75.3959ZM96.8172 82.4257C96.0855 84.8024 93.4834 86.0544 91.3623 86.8989C89.9956 87.4434 88.5429 88.0306 87.0647 88.1449C85.5143 88.2651 84.1496 87.8299 82.8925 86.9228C81.6067 85.9957 80.3319 85.1134 78.9316 84.3652C77.5402 83.621 76.1034 82.9672 74.6735 82.3025C71.8927 81.0098 69.1386 79.6486 66.89 77.5103C65.9529 76.6201 65.1076 75.6294 64.4608 74.5037C63.8001 73.3541 63.2501 71.9203 63.6342 70.5879C64.0618 69.1054 65.6369 68.7298 66.8574 68.1187C68.2429 67.4252 69.1791 66.1355 70.5309 65.4022C71.1629 65.0594 71.8364 64.9014 72.5533 64.9163C72.5691 64.9163 72.584 64.9163 72.5988 64.9154C75.0418 66.0004 77.5945 67.2076 80.3161 66.9473C83.0811 66.682 85.9448 66.7416 88.3415 68.3542C90.672 69.9231 91.6111 72.745 92.962 75.078C93.7402 76.4213 94.776 77.4875 95.7803 78.655C96.6938 79.7161 97.2468 81.0287 96.8162 82.4257H96.8172Z" fill="#B6B6B6"/>
<path d="M92.4894 77.1806C90.8294 75.5212 90.0828 73.1872 88.4149 71.5269C86.5318 69.651 83.6414 68.6246 81.0116 69.0578C80.3273 69.1701 79.716 69.4741 79.0129 69.3062C78.4125 69.1631 77.8911 68.8362 77.3589 68.5352C76.1008 67.8238 74.9839 66.9255 73.7634 66.1575C73.398 65.927 73.0475 66.0949 72.8707 66.38C71.9099 66.4943 71.0359 66.9146 70.2064 67.474C69.7295 67.7959 69.2653 68.1 68.7153 68.2808C68.0922 68.4865 67.4148 68.6097 66.8479 68.9594C64.5293 70.3912 66.2248 73.2916 67.5767 74.7502C71.1939 78.6541 76.5788 79.7361 80.903 82.5659C82.1078 83.3538 83.1358 84.3932 84.4995 84.9098C85.7309 85.3768 87.064 85.4126 88.3547 85.2318C89.5249 85.0668 90.7138 84.8274 91.8277 84.426C92.7234 84.103 93.6388 83.6609 94.254 82.9057C94.8663 82.1526 95.1309 81.1639 94.8485 80.216C94.4703 78.9482 93.386 78.0778 92.4884 77.1806H92.4894ZM90.2537 83.4631C89.1378 83.7433 87.9745 83.9907 86.8191 83.9649C85.5956 83.9371 84.4985 83.5307 83.5179 82.8004C82.5176 82.0542 81.5479 81.311 80.4616 80.69C79.403 80.0849 78.3029 79.5573 77.1959 79.0485C74.982 78.0311 72.7255 77.0921 70.7268 75.6733C69.7699 74.9936 68.8674 74.2087 68.1218 73.2956C67.5797 72.6318 66.7462 71.4574 67.157 70.5631C67.4059 70.0226 68.1139 69.8964 68.6205 69.7464C69.2377 69.5636 69.8302 69.3509 70.3792 69.0071C70.8937 68.6842 71.3736 68.3027 71.9266 68.0443C72.4806 67.785 73.0554 67.6966 73.6577 67.7323C74.4477 68.2788 75.2032 68.877 76.0307 69.3648C76.8878 69.8696 77.8082 70.4667 78.7927 70.6635C79.9333 70.891 80.9415 70.3545 82.0702 70.3316C83.1387 70.3098 84.2161 70.5552 85.1927 70.9864C86.1713 71.4186 87.0463 72.0337 87.7642 72.8315C88.4752 73.6224 88.9956 74.5584 89.5367 75.4686C90.0779 76.3787 90.6536 77.271 91.3982 78.0291C92.1467 78.7902 93.3179 79.596 93.5647 80.7009C93.9548 82.4507 91.4712 83.1591 90.2546 83.4641L90.2537 83.4631Z" fill="#B6B6B6"/>
<path d="M90.0226 78.5069C89.6187 78.2188 89.2019 77.9177 88.8445 77.571C88.2411 76.9857 87.774 76.2812 87.2398 75.6354C86.6651 74.9409 85.9995 74.3338 85.2194 73.8807C84.3197 73.3581 83.3155 73.0133 82.2865 72.8762C81.7503 72.8046 81.221 72.7937 80.6848 72.8632C80.2443 72.9199 79.7832 73.1236 79.3378 73.0371C78.5725 72.8881 77.9286 72.1617 77.3974 71.6341C76.7417 70.9833 76.2104 70.2242 75.5912 69.5416C75.5527 69.473 75.4994 69.4134 75.4283 69.3647C75.3414 69.2733 75.2535 69.1829 75.1617 69.0965C74.8378 68.7875 74.425 68.9037 74.1998 69.168C73.6123 69.169 73.0385 69.2763 72.4451 69.4552C71.9632 69.6002 71.5346 69.6579 71.0319 69.6549C70.5777 69.6519 70.0889 69.6479 69.7057 69.9291C68.9068 70.5153 69.3789 71.4791 69.9151 72.0544C70.4059 72.582 71.0191 73.0093 71.6195 73.3998C74.896 75.5271 78.8371 76.3468 82.0159 78.648C82.8691 79.266 83.5979 80.0371 84.5508 80.5091C85.3833 80.9224 86.277 81.1619 87.1914 81.3029C88.0782 81.4391 88.9956 81.5851 89.8962 81.5623C90.4699 81.5474 91.1621 81.449 91.4742 80.8946C91.7971 80.3203 91.4781 79.6327 91.0555 79.2124C90.7503 78.9083 90.3652 78.7524 90.0226 78.5069ZM90.384 80.1802C90.379 80.1792 90.3731 80.1792 90.3672 80.1792C90.3573 80.1772 90.3573 80.1752 90.384 80.1802ZM89.118 80.2169C87.4955 80.0937 85.7605 79.8612 84.4037 78.8885C83.6729 78.3648 83.0261 77.7359 82.2776 77.2311C81.5567 76.7453 80.7944 76.323 80.0162 75.9375C78.4382 75.1575 76.7831 74.5623 75.1844 73.83C73.7239 73.1603 72.1251 72.3923 70.9638 71.2486C70.9075 71.193 70.8384 71.0827 70.7693 70.9903C71.187 71.0429 71.7054 70.9764 72.1024 70.9058C73.0227 70.7429 73.7752 70.3663 74.7163 70.5153C75.6337 71.502 76.4049 72.6109 77.4635 73.4723C78.0343 73.9363 78.6722 74.3169 79.4208 74.3715C79.8167 74.4003 80.1821 74.291 80.5653 74.2096C80.9514 74.1271 81.3503 74.1162 81.7434 74.138C83.3184 74.2285 84.8619 74.9727 85.9343 76.1282C86.4488 76.6827 86.8764 77.3076 87.3593 77.8879C87.8925 78.5278 88.5225 78.97 89.1624 79.4906C89.4636 79.735 89.8576 79.8632 90.1312 80.1424C90.1578 80.1692 90.1786 80.1951 90.1973 80.2219C90.1865 80.2249 90.1756 80.2269 90.1667 80.2289C89.8251 80.2765 89.4617 80.2428 89.12 80.2159L89.118 80.2169ZM90.2921 80.363C90.2921 80.3739 90.2971 80.3719 90.2921 80.363V80.363ZM90.4027 80.1802C90.4116 80.1673 90.4185 80.1593 90.4185 80.1603C90.4205 80.1722 90.4126 80.1782 90.4027 80.1802Z" fill="#B6B6B6"/>
</g>
<defs>
<clipPath id="clip0_89_328">
<rect width="158" height="164" fill="white"/>
</clipPath>
</defs>
</svg>
