<svg width="89" height="97" viewBox="0 0 89 97" fill="none" xmlns="http://www.w3.org/2000/svg">
<path d="M1.34056 97C1.18975 97 1.03559 96.9733 0.884772 96.9198C0.351898 96.7292 0 96.2245 0 95.6628V9.26643C0 4.15518 4.1658 0 9.2901 0H79.7099C84.8308 0 89 4.15518 89 9.26643V65.7141C89 70.822 84.8342 74.9805 79.7099 74.9805H20.2526L2.3728 96.5153C2.11474 96.8295 1.73268 97 1.34056 97ZM9.2901 2.67429C5.64712 2.67429 2.68113 5.63273 2.68113 9.26643V91.9523L18.5903 72.7876C18.845 72.4801 19.2237 72.3029 19.6225 72.3029H79.7099C83.3529 72.3029 86.3189 69.3445 86.3189 65.7108V9.26643C86.3189 5.63273 83.3529 2.67429 79.7099 2.67429H9.2901ZM42.8846 57.7313C41.2056 57.7313 39.8281 57.2332 38.7859 56.2471C37.7235 55.2442 37.1872 53.9639 37.1872 52.4463C37.1872 51.5504 37.3749 50.484 37.7637 49.187L42.0267 34.5653C42.4892 32.9707 42.5863 32.1584 42.5863 31.7539C42.5863 31.7338 42.5863 31.677 42.4489 31.5567C42.2847 31.4096 41.9764 31.3795 41.7485 31.3795C41.4703 31.3795 41.1184 31.3895 40.7062 31.4096C40.2705 31.433 39.8449 31.2324 39.5768 30.8848C39.3087 30.5338 39.2316 30.0791 39.369 29.6613L39.7678 28.4378C39.922 27.9597 40.3308 27.6121 40.8269 27.5319L51.2296 25.8471C51.3 25.837 51.3737 25.8303 51.4441 25.8303H53.284C53.7063 25.8303 54.1018 26.0276 54.3565 26.3619C54.6112 26.6961 54.6916 27.1341 54.5743 27.5352L48.2837 49.3006C48.0123 50.2734 47.8983 50.8116 47.8481 51.0957C48.3508 51.3398 49.2456 51.7242 49.5372 51.8178C49.9728 51.898 50.3449 52.1889 50.5225 52.6034C50.7336 53.0948 50.6331 53.6631 50.2678 54.0508C47.9553 56.4978 45.4719 57.738 42.8813 57.738L42.8846 57.7313ZM44.3492 29.6646C45.1066 30.4 45.2708 31.199 45.2708 31.7539C45.2708 32.603 45.053 33.7663 44.6039 35.3107L40.3376 49.9424C40.0259 50.9854 39.8684 51.8245 39.8684 52.4463C39.8684 53.2251 40.1097 53.8135 40.6325 54.3082C41.1653 54.813 41.9027 55.0604 42.888 55.0604C44.2285 55.0604 45.5322 54.569 46.8393 53.5695C46.3433 53.3254 45.9311 53.0847 45.7802 52.9243C45.3613 52.483 45.1368 51.9482 45.1368 51.3765C45.1368 51.0188 45.2004 50.377 45.7065 48.5685L51.5044 28.508L44.3492 29.6646ZM51.3871 23.4168C49.7952 23.4168 48.4144 22.8418 47.2783 21.7086C46.1422 20.5754 45.5658 19.1881 45.5658 17.5801C45.5658 15.9722 46.1355 14.5883 47.2582 13.455C48.3843 12.3185 49.7751 11.7435 51.3871 11.7435C52.9992 11.7435 54.4202 12.3185 55.5462 13.455C56.669 14.5883 57.2387 15.9756 57.2387 17.5801C57.2387 19.1847 56.6623 20.5754 55.5261 21.7086C54.39 22.8418 52.9958 23.4168 51.3871 23.4168ZM51.3871 14.4178C50.4923 14.4178 49.7852 14.7086 49.1652 15.3371C48.5485 15.9589 48.2469 16.6943 48.2469 17.5801C48.2469 18.466 48.5418 19.1881 49.1752 19.8165C49.8086 20.4483 50.5124 20.7425 51.3871 20.7425C52.2619 20.7425 52.9992 20.4483 53.6292 19.8165C54.2627 19.1847 54.5576 18.476 54.5576 17.5801C54.5576 16.6843 54.256 15.9589 53.6393 15.3371C53.0193 14.7086 52.3021 14.4178 51.3871 14.4178Z" fill="#FFD17E"/>
</svg>
