<svg width="65" height="46" viewBox="0 0 65 46" fill="none" xmlns="http://www.w3.org/2000/svg">
<g clip-path="url(#clip0_55_6)">
<path d="M1.01714 45.0861C0.664378 45.0861 0.322814 44.8889 0.160432 44.5452C-0.0691437 44.0663 0.132435 43.4973 0.602784 43.2663C7.19328 40.0717 13.0279 35.2939 17.4906 29.4625C19.5792 26.7299 21.4046 23.7156 23.1684 20.7971C25.0218 17.7377 26.9368 14.5769 29.1765 11.6866C32.2954 7.66374 38.8299 0.908336 47.5538 0.868896H47.6209C55.3817 0.868896 62.7281 7.10596 64.0216 14.8079C64.8783 19.9181 63.2041 25.1241 59.6485 28.3976C55.8689 31.8739 50.0063 32.7359 45.7004 30.4485C41.0641 27.9863 38.7739 22.138 40.5937 17.4109C41.428 15.253 43.2366 13.4106 45.4372 12.4866C47.3354 11.6866 49.3176 11.6584 51.0254 12.4077C53.1196 13.3205 54.5306 15.5798 54.6258 18.1659C54.7042 20.4421 53.7019 22.3521 51.9437 23.2705C50.6054 23.9691 49.0712 23.986 47.9457 23.3099C47.2402 22.8874 46.697 22.138 46.5011 21.3098C46.3219 20.5548 46.4339 19.8055 46.8146 19.197C47.0946 18.7519 47.6825 18.6166 48.1305 18.8983C48.5728 19.1801 48.7072 19.7716 48.4273 20.2224C48.2873 20.4477 48.3209 20.7238 48.3545 20.8647C48.4329 21.1971 48.6512 21.507 48.92 21.6647C49.4799 21.9972 50.3199 21.9634 51.0702 21.5746C52.1621 20.9999 52.778 19.7547 52.7276 18.2335C52.6716 16.7179 51.8933 14.8755 50.2751 14.1656C49.0488 13.6304 47.593 13.6642 46.1763 14.2558C44.4461 14.9826 43.0238 16.4193 42.3743 18.1039C40.9185 21.8845 42.8503 26.7637 46.5963 28.7526C50.2135 30.6738 55.1633 29.9301 58.3662 26.9778C61.4011 24.1832 62.8849 19.5294 62.1458 15.1234C60.9979 8.30604 54.4914 2.77889 47.6209 2.77889C47.5986 2.77889 47.5818 2.77889 47.5594 2.77889C39.6362 2.8127 33.5777 9.1061 30.6716 12.8528C28.499 15.653 26.612 18.7688 24.7922 21.7831C23.0004 24.7466 21.147 27.806 18.9968 30.6175C14.3605 36.6855 8.28516 41.6549 1.4259 44.9791C1.29151 45.041 1.15153 45.0748 1.01154 45.0748L1.01714 45.0861Z" fill="#FEE0AB"/>
<path d="M61.648 36.6968C58.0364 36.6968 54.8447 34.1446 54.1056 30.4823C53.9992 29.964 54.3352 29.4569 54.8503 29.3555C55.3655 29.2541 55.8694 29.5865 55.9702 30.1048C56.5861 33.1529 59.4586 35.1812 62.5215 34.7192C63.0367 34.6404 63.5238 35.0009 63.6022 35.5249C63.6806 36.0489 63.3222 36.5335 62.8015 36.6123C62.4151 36.6687 62.0288 36.6968 61.648 36.6968Z" fill="#FEE0AB"/>
<path d="M58.0807 41.4634C55.7066 41.4634 53.394 40.5562 51.6302 38.8829C49.3904 36.7532 48.3265 33.6544 48.7857 30.5893C48.8641 30.0654 49.3456 29.7048 49.872 29.7837C50.3927 29.8625 50.7511 30.3527 50.6727 30.8767C50.3031 33.3219 51.1542 35.7953 52.9405 37.4912C54.7267 39.1871 57.2296 39.897 59.6317 39.3843C60.1469 39.2717 60.6508 39.6041 60.7572 40.1224C60.8636 40.6408 60.5388 41.1478 60.0237 41.2549C59.3798 41.3901 58.7302 41.4577 58.0807 41.4577V41.4634Z" fill="#FEE0AB"/>
<path d="M53.0469 45.1312C53.0469 45.1312 53.0245 45.1312 53.0077 45.1312C49.0265 44.9791 45.4317 42.8324 43.3991 39.3843C41.3665 35.9362 41.2041 31.7331 42.9791 28.1441C43.2143 27.6708 43.7855 27.4792 44.2558 27.7102C44.7262 27.9469 44.9165 28.5216 44.687 28.9948C43.2031 32.0035 43.3375 35.5192 45.0397 38.4039C46.7419 41.2887 49.7488 43.086 53.0861 43.2156C53.6124 43.2381 54.0212 43.6776 53.9988 44.2072C53.9764 44.7255 53.5564 45.1312 53.0469 45.1312Z" fill="#FEE0AB"/>
</g>
<defs>
<clipPath id="clip0_55_6">
<rect width="64.1803" height="44.2623" fill="white" transform="translate(0.0654297 0.868896)"/>
</clipPath>
</defs>
</svg>
