<svg width="35" height="35" viewBox="0 0 35 35" fill="none" xmlns="http://www.w3.org/2000/svg">
<g clip-path="url(#clip0_55_35)">
<path d="M0.58636 18.0863C0.908414 18.0863 1.16979 17.8256 1.16979 17.5029C1.16979 8.49533 8.49826 1.16686 17.5058 1.16686C21.1972 1.16686 24.7276 2.40082 27.6004 4.66744H24.507C24.185 4.66744 23.9236 4.92824 23.9236 5.25088C23.9236 5.57351 24.185 5.83431 24.507 5.83431H29.1249C29.1634 5.83781 29.1995 5.83839 29.2375 5.83431H29.7573V0.583431C29.7573 0.260793 29.4959 0 29.1739 0C28.8518 0 28.5904 0.260793 28.5904 0.583431V3.97316C25.4656 1.4049 21.5788 0 17.5058 0C7.85474 0 0.00292969 7.85181 0.00292969 17.5029C0.00292969 17.8256 0.264307 18.0863 0.58636 18.0863Z" fill="#FEE0AB"/>
<path d="M17.5054 4.66748C10.4278 4.66748 4.66992 10.4254 4.66992 17.503C4.66992 24.5805 10.4278 30.3384 17.5054 30.3384C24.583 30.3384 30.3409 24.5805 30.3409 17.503C30.3409 10.4254 24.583 4.66748 17.5054 4.66748ZM17.5054 29.1716C11.0713 29.1716 5.83678 23.937 5.83678 17.503C5.83678 11.0689 11.0713 5.83434 17.5054 5.83434C23.9395 5.83434 29.174 11.0689 29.174 17.503C29.174 23.937 23.9395 29.1716 17.5054 29.1716Z" fill="#FEE0AB"/>
<path d="M17.5062 8.75106C17.8282 8.75106 18.0895 8.49031 18.0895 8.16772V7.00106C18.0895 6.67847 17.8282 6.41772 17.5062 6.41772C17.1842 6.41772 16.9229 6.67847 16.9229 7.00106V8.16772C16.9229 8.49031 17.1842 8.75106 17.5062 8.75106Z" fill="#FEE0AB"/>
<path d="M17.5062 26.2544C17.1842 26.2544 16.9229 26.5151 16.9229 26.8377V28.0044C16.9229 28.327 17.1842 28.5877 17.5062 28.5877C17.8282 28.5877 18.0895 28.327 18.0895 28.0044V26.8377C18.0895 26.5151 17.8282 26.2544 17.5062 26.2544Z" fill="#FEE0AB"/>
<path d="M26.8402 18.0861H28.0068C28.3288 18.0861 28.5902 17.8254 28.5902 17.5028C28.5902 17.1802 28.3288 16.9194 28.0068 16.9194H26.8402C26.5182 16.9194 26.2568 17.1802 26.2568 17.5028C26.2568 17.8254 26.5182 18.0861 26.8402 18.0861Z" fill="#FEE0AB"/>
<path d="M8.1709 16.9194H7.00423C6.68223 16.9194 6.4209 17.1802 6.4209 17.5028C6.4209 17.8254 6.68223 18.0861 7.00423 18.0861H8.1709C8.4929 18.0861 8.75423 17.8254 8.75423 17.5028C8.75423 17.1802 8.4929 16.9194 8.1709 16.9194Z" fill="#FEE0AB"/>
<path d="M18.0896 14.6686V11.6686C18.0896 11.346 17.8282 11.0852 17.5062 11.0852C17.1841 11.0852 16.9228 11.346 16.9228 11.6686V14.6686C15.9193 14.9294 15.1725 15.8349 15.1725 16.9195C15.1725 17.3512 15.2979 17.7503 15.5033 18.0975L10.676 22.9248C10.4479 23.1529 10.4479 23.5216 10.676 23.7497C10.7897 23.8635 10.9391 23.9207 11.0885 23.9207C11.2378 23.9207 11.3872 23.8635 11.5009 23.7497L16.3282 18.9224C16.6754 19.1278 17.0745 19.2532 17.5062 19.2532C18.7932 19.2532 19.8399 18.2066 19.8399 16.9195C19.8399 15.8349 19.0931 14.9294 18.0896 14.6686ZM17.5062 18.0864C16.8627 18.0864 16.3393 17.563 16.3393 16.9195C16.3393 16.276 16.8627 15.7526 17.5062 15.7526C18.1497 15.7526 18.6731 16.276 18.6731 16.9195C18.6731 17.563 18.1497 18.0864 17.5062 18.0864Z" fill="#FEE0AB"/>
<path d="M6.9389 30.7234C6.7464 30.9795 6.7989 31.347 7.0614 31.5395C7.16056 31.6153 7.28306 31.6503 7.40556 31.6503C7.5864 31.6503 7.7614 31.5745 7.87806 31.417C8.06473 31.1609 8.01223 30.7934 7.75556 30.6009C7.4989 30.4084 7.13198 30.4609 6.9389 30.7234Z" fill="#FEE0AB"/>
<path d="M4.22101 26.9953C4.03434 26.7392 3.66684 26.6745 3.40434 26.8617C3.14184 27.0542 3.08351 27.4159 3.27017 27.6778C3.38684 27.8359 3.56184 27.9228 3.74851 27.9228C3.86517 27.9228 3.98184 27.8878 4.08684 27.8126C4.34876 27.6253 4.40767 27.2578 4.22101 26.9953Z" fill="#FEE0AB"/>
<path d="M4.4479 28.2672C4.20873 28.4825 4.1854 28.8505 4.40123 29.0891C4.51206 29.2233 4.6754 29.288 4.83873 29.288C4.9729 29.288 5.1129 29.2414 5.22373 29.1422C5.4629 28.9264 5.48623 28.5589 5.2704 28.3197C5.06098 28.0747 4.69348 28.0572 4.4479 28.2672Z" fill="#FEE0AB"/>
<path d="M6.45591 29.5216C6.22258 29.3057 5.84925 29.3232 5.63341 29.5572C5.41175 29.7957 5.42925 30.1638 5.66841 30.3855C5.77925 30.4847 5.91925 30.5372 6.05925 30.5372C6.21675 30.5372 6.37425 30.473 6.49091 30.3505C6.70675 30.1113 6.69508 29.7438 6.45591 29.528C6.45591 29.5216 6.45591 29.5216 6.45591 29.5216Z" fill="#FEE0AB"/>
<path d="M3.31068 25.5775C3.30484 25.5775 3.30484 25.5775 3.30484 25.5775C3.14734 25.2975 2.79151 25.1984 2.51151 25.3617C2.23151 25.5198 2.13234 25.8751 2.29568 26.1551C2.40068 26.3411 2.59901 26.4467 2.80318 26.4467C2.89651 26.4467 3.00151 26.4234 3.08901 26.3709C3.36901 26.2134 3.46818 25.857 3.31068 25.5775Z" fill="#FEE0AB"/>
<path d="M34.3905 18.7396C34.4021 18.7396 34.408 18.7396 34.4138 18.7396C34.7288 18.7396 34.9855 18.4882 34.9971 18.1796C35.0088 17.8524 34.758 17.584 34.4371 17.5729C34.1163 17.5607 33.8421 17.8121 33.8305 18.1329C33.8188 18.4538 34.0691 18.7279 34.3905 18.7396Z" fill="#FEE0AB"/>
<path d="M0.737916 19.8307C1.05875 19.7951 1.29208 19.5092 1.25708 19.1884C1.22208 18.8676 0.936249 18.6342 0.615416 18.6692C0.294583 18.6984 0.0612492 18.9901 0.0962492 19.3051C0.125416 19.6084 0.382083 19.8301 0.673749 19.8301C0.697083 19.8307 0.714583 19.8307 0.737916 19.8307Z" fill="#FEE0AB"/>
<path d="M1.0644 21.5459C1.3794 21.4817 1.58357 21.1725 1.51357 20.8575C1.4494 20.5425 1.14024 20.3378 0.825236 20.4078C0.510236 20.4719 0.30607 20.7817 0.37607 21.0967C0.42857 21.3709 0.67357 21.5575 0.941903 21.5575C0.982153 21.5575 1.02357 21.5575 1.0644 21.5459Z" fill="#FEE0AB"/>
<path d="M2.54688 24.0664C2.41854 23.7748 2.07438 23.6406 1.77688 23.7689C1.48521 23.8973 1.35104 24.2414 1.47938 24.5383C1.57854 24.7542 1.78854 24.8889 2.01604 24.8889C2.09188 24.8889 2.17354 24.8714 2.24938 24.8358C2.54046 24.7081 2.67463 24.3639 2.54688 24.0664Z" fill="#FEE0AB"/>
<path d="M1.94528 22.4911C1.85195 22.182 1.51945 22.0128 1.21612 22.112C0.906949 22.2111 0.737782 22.5378 0.836949 22.8476C0.918615 23.0926 1.14612 23.2495 1.39112 23.2495C1.44945 23.2495 1.51362 23.2436 1.57195 23.2261C1.87587 23.127 2.04503 22.7939 1.94528 22.4911Z" fill="#FEE0AB"/>
<path d="M17.1908 33.8331C16.87 33.8267 16.6016 34.084 16.5958 34.4042C16.59 34.7315 16.8466 34.9934 17.1675 34.9998C17.1733 34.9998 17.1791 34.9998 17.1791 34.9998C17.5 34.9998 17.7566 34.7484 17.7625 34.4281C17.7677 34.1073 17.5116 33.839 17.1908 33.8331Z" fill="#FEE0AB"/>
<path d="M30.4172 27.5029C30.2189 27.7537 30.2656 28.1218 30.5164 28.3195C30.6272 28.4012 30.7497 28.442 30.8781 28.442C31.0472 28.442 31.2222 28.3662 31.3389 28.2139C31.5372 27.9631 31.4906 27.5956 31.2339 27.3979C30.9772 27.2001 30.6155 27.2462 30.4172 27.5029Z" fill="#FEE0AB"/>
<path d="M26.7412 30.9685C26.4787 31.1493 26.4087 31.5162 26.5954 31.7793C26.7062 31.9426 26.887 32.0301 27.0737 32.0301C27.1904 32.0301 27.3012 32.001 27.4062 31.931C27.6687 31.7501 27.7387 31.3832 27.552 31.1201C27.3712 30.8518 27.0101 30.7876 26.7412 30.9685Z" fill="#FEE0AB"/>
<path d="M28.0834 29.941C27.8384 30.151 27.8092 30.5185 28.0192 30.7635C28.1359 30.8977 28.2992 30.9682 28.4626 30.9682C28.5967 30.9682 28.7309 30.9216 28.8417 30.8282C29.0867 30.6182 29.1159 30.2507 28.9059 30.0057C28.6953 29.7607 28.3284 29.7316 28.0834 29.941Z" fill="#FEE0AB"/>
<path d="M32.184 25.927C31.9098 25.7578 31.5481 25.8453 31.379 26.1137C31.2098 26.3878 31.2915 26.7495 31.5656 26.9187C31.6648 26.9776 31.7698 27.0062 31.8748 27.0062C32.0673 27.0062 32.2598 26.9128 32.3706 26.7314C32.5404 26.4584 32.4587 26.0962 32.184 25.927Z" fill="#FEE0AB"/>
<path d="M29.3146 28.7806C29.0871 29.0134 29.0988 29.3809 29.3321 29.6031C29.443 29.7134 29.5888 29.7659 29.7346 29.7659C29.8863 29.7659 30.0438 29.7075 30.1546 29.585C30.3763 29.3517 30.3705 28.9842 30.1371 28.7625C29.9038 28.5409 29.5357 28.5473 29.3146 28.7806Z" fill="#FEE0AB"/>
<path d="M34.3372 19.3169C34.0222 19.2708 33.7247 19.4983 33.6781 19.8133C33.6314 20.1341 33.8531 20.4258 34.1739 20.4724C34.2031 20.4783 34.2322 20.4783 34.2556 20.4783C34.5414 20.4783 34.7922 20.2689 34.8331 19.9772C34.8803 19.6616 34.6587 19.3635 34.3372 19.3169Z" fill="#FEE0AB"/>
<path d="M34.0632 21.0438C33.7482 20.9679 33.4332 21.1604 33.3515 21.4696C33.2757 21.7846 33.4682 22.0996 33.7773 22.1813C33.824 22.1935 33.8707 22.1988 33.9173 22.1988C34.1798 22.1988 34.419 22.0179 34.4832 21.7554C34.5648 21.441 34.3717 21.126 34.0632 21.0438Z" fill="#FEE0AB"/>
<path d="M9.16221 31.5402C8.88221 31.3775 8.52638 31.4644 8.36305 31.745C8.19388 32.0192 8.28721 32.3808 8.56138 32.5442C8.65471 32.6025 8.75971 32.6258 8.85888 32.6258C9.05721 32.6258 9.24971 32.5267 9.36055 32.34C9.52971 32.0652 9.43696 31.7094 9.16221 31.5402Z" fill="#FEE0AB"/>
<path d="M33.6081 22.7363C33.3047 22.6261 32.9664 22.783 32.8614 23.0863C32.7506 23.3902 32.9022 23.7227 33.2056 23.833C33.2697 23.8563 33.3397 23.8686 33.4039 23.8686C33.6431 23.8686 33.8706 23.7227 33.9522 23.4836C34.0637 23.1791 33.9114 22.8471 33.6081 22.7363Z" fill="#FEE0AB"/>
<path d="M32.9784 24.3698C32.6925 24.2304 32.3367 24.3465 32.1967 24.6382C32.0567 24.9298 32.1792 25.2804 32.465 25.4198C32.5467 25.4607 32.6342 25.4787 32.7217 25.4787C32.9375 25.4787 33.1475 25.3562 33.2467 25.1515C33.3867 24.8592 33.27 24.5098 32.9784 24.3698Z" fill="#FEE0AB"/>
<path d="M15.5048 33.7164C15.1839 33.6756 14.8981 33.9025 14.8573 34.2239C14.8164 34.5448 15.0439 34.8364 15.3648 34.8708V34.8773C15.3881 34.8773 15.4114 34.8773 15.4348 34.8773C15.7264 34.8773 15.9773 34.6614 16.0123 34.3633C16.0531 34.0431 15.825 33.7567 15.5048 33.7164Z" fill="#FEE0AB"/>
<path d="M12.22 32.9638C11.9166 32.8582 11.5841 33.0163 11.4791 33.3255C11.3741 33.6288 11.5375 33.9613 11.8408 34.0663C11.905 34.0838 11.9691 34.0955 12.0333 34.0955C12.2725 34.0955 12.5 33.9438 12.5816 33.7047C12.6866 33.3955 12.5233 33.063 12.22 32.9638Z" fill="#FEE0AB"/>
<path d="M13.842 33.4248C13.527 33.3548 13.2178 33.5473 13.142 33.8623C13.072 34.1773 13.2703 34.4923 13.5795 34.5623C13.6262 34.5739 13.667 34.5739 13.7137 34.5739C13.9762 34.5739 14.2212 34.3931 14.2795 34.1248C14.3547 33.8098 14.157 33.4948 13.842 33.4248Z" fill="#FEE0AB"/>
<path d="M10.6563 32.3338C10.3588 32.1938 10.0146 32.3215 9.88045 32.6132C9.74628 32.9049 9.86878 33.2554 10.1604 33.389C10.2421 33.4246 10.3238 33.4415 10.4054 33.4415C10.6271 33.4415 10.8371 33.319 10.9363 33.1038C11.0704 32.8121 10.9479 32.4674 10.6563 32.3338Z" fill="#FEE0AB"/>
<path d="M20.5516 33.5531C20.2366 33.6115 20.0266 33.9206 20.0849 34.2356C20.1374 34.5156 20.3883 34.7087 20.6624 34.7087C20.6974 34.7087 20.7324 34.7087 20.7674 34.7023C21.0824 34.6387 21.2924 34.3348 21.2341 34.0198C21.1758 33.699 20.8666 33.4948 20.5516 33.5531Z" fill="#FEE0AB"/>
<path d="M22.1904 33.1564C21.8812 33.2433 21.7062 33.5705 21.7995 33.8791C21.8754 34.1305 22.1087 34.2939 22.3595 34.2939C22.412 34.2939 22.4704 34.2874 22.5287 34.2705C22.8379 34.1772 23.0129 33.8499 22.9195 33.5414C22.8256 33.238 22.4995 33.063 22.1904 33.1564Z" fill="#FEE0AB"/>
<path d="M23.7831 32.5846C23.4856 32.7071 23.3456 33.0513 23.4681 33.3493C23.5615 33.571 23.7773 33.7046 24.0048 33.7046C24.0806 33.7046 24.1565 33.6929 24.2323 33.6643C24.5298 33.5354 24.6698 33.1971 24.5473 32.8996C24.4184 32.6021 24.0806 32.4621 23.7831 32.5846Z" fill="#FEE0AB"/>
<path d="M18.876 33.78C18.5552 33.8098 18.316 34.0892 18.3452 34.41C18.3685 34.7139 18.6252 34.9467 18.9285 34.9467C18.9402 34.9467 18.9577 34.9467 18.9752 34.9467V34.9408C19.296 34.9175 19.5352 34.6375 19.506 34.3167C19.4827 33.9964 19.1974 33.7567 18.876 33.78Z" fill="#FEE0AB"/>
<path d="M25.3056 31.8554C25.0198 32.007 24.9148 32.3629 25.0723 32.6434C25.1773 32.8418 25.3756 32.952 25.5856 32.952C25.6789 32.952 25.7723 32.9287 25.8598 32.8762C26.1456 32.7245 26.2506 32.3687 26.0931 32.0887C25.942 31.8029 25.5856 31.6979 25.3056 31.8554Z" fill="#FEE0AB"/>
</g>
<defs>
<clipPath id="clip0_55_35">
<rect width="35" height="35" fill="white"/>
</clipPath>
</defs>
</svg>
