<svg width="60" height="60" viewBox="0 0 60 60" fill="none" xmlns="http://www.w3.org/2000/svg">
<path opacity="0.5" d="M33.6926 3.50768H48.4618C48.831 3.50768 49.2003 3.23076 49.2003 2.76922C49.2003 2.30768 48.9233 2.03076 48.4618 2.03076H33.6926C33.3233 2.03076 32.9541 2.30768 32.9541 2.76922C32.9541 3.23076 33.3233 3.50768 33.6926 3.50768Z" fill="#F9F9F9"/>
<path d="M52.1545 3.50768H54.0006C54.3699 3.50768 54.7391 3.23076 54.7391 2.76922C54.7391 2.30768 54.4622 2.03076 54.0006 2.03076H52.1545C51.7852 2.03076 51.416 2.30768 51.416 2.76922C51.416 3.23076 51.7852 3.50768 52.1545 3.50768Z" fill="#F9F9F9"/>
<path opacity="0.5" d="M55.8469 42.7385C55.4776 42.7385 55.1084 43.0154 55.1084 43.477V49.9385C55.1084 50.3078 55.3853 50.677 55.8469 50.677C56.3084 50.677 56.5853 50.4001 56.5853 49.9385V43.477C56.5853 43.0154 56.2161 42.7385 55.8469 42.7385Z" fill="#F9F9F9"/>
<path d="M55.8469 52.8923C55.4776 52.8923 55.1084 53.1693 55.1084 53.6308V54.5539C55.1084 54.9231 55.3853 55.2923 55.8469 55.2923C56.3084 55.2923 56.5853 55.0154 56.5853 54.5539V53.6308C56.5853 53.1693 56.2161 52.8923 55.8469 52.8923Z" fill="#F9F9F9"/>
<path d="M42.923 54.7385H41.723V53.5385C41.723 53.1693 41.4461 52.8 40.9845 52.8C40.523 52.8 40.2461 53.077 40.2461 53.5385V54.7385H39.0461C38.6768 54.7385 38.3076 55.0154 38.3076 55.477C38.3076 55.9385 38.5845 56.2154 39.0461 56.2154H40.2461V57.2308C40.2461 57.6 40.523 57.9693 40.9845 57.9693C41.4461 57.9693 41.723 57.6924 41.723 57.2308V56.0308H42.923C43.2922 56.0308 43.6615 55.7539 43.6615 55.2924C43.6615 54.8308 43.2922 54.7385 42.923 54.7385Z" fill="#F9F9F9"/>
<path opacity="0.5" d="M1.38495 10.8924H2.58495V12.0001C2.58495 12.3693 2.86187 12.7386 3.32341 12.7386C3.78495 12.7386 4.06187 12.4616 4.06187 12.0001V10.8001H5.26187C5.6311 10.8001 6.00033 10.5232 6.00033 10.0616C6.00033 9.6001 5.72341 9.32318 5.26187 9.32318H3.96956V8.3078C3.96956 7.93857 3.69264 7.56934 3.2311 7.56934C2.76956 7.56934 2.58495 7.93857 2.58495 8.3078V9.5078H1.38495C1.01572 9.5078 0.646484 9.78472 0.646484 10.2463C0.646484 10.7078 1.01572 10.8924 1.38495 10.8924Z" fill="#F9F9F9"/>
<path d="M54.9237 6.73853H19.8468C17.4468 6.73853 15.416 8.67699 15.416 11.1693V35.1693C15.416 37.5693 17.3545 39.6001 19.8468 39.6001H36.2776L47.0776 47.6308C47.1699 47.7231 47.3545 47.8154 47.5391 47.8154C47.6314 47.8154 47.7237 47.8154 47.816 47.7231C48.0929 47.6308 48.1852 47.3539 48.1852 47.077V39.4155H54.9237C57.3237 39.4155 59.3545 37.477 59.3545 34.9847V11.077C59.3545 8.67699 57.3237 6.73853 54.9237 6.73853ZM57.9699 35.077C57.9699 36.7385 56.5852 38.1231 54.9237 38.1231H47.5391C47.1699 38.1231 46.8006 38.4001 46.8006 38.8616V45.7847L36.9237 38.2155C36.8314 38.1231 36.6468 38.0308 36.4622 38.0308H19.8468C18.1852 38.0308 16.8006 36.6462 16.8006 34.9847V11.077C16.8006 9.41545 18.1852 8.03083 19.8468 8.03083H54.9237C56.5852 8.03083 57.9699 9.41545 57.9699 11.077V35.077Z" fill="#F9F9F9"/>
<path d="M48.4618 19.6616C46.5233 19.6616 44.9541 21.2309 44.9541 23.1693C44.9541 25.1078 46.5233 26.677 48.4618 26.677C50.4003 26.677 51.9695 25.1078 51.9695 23.1693C51.9695 21.2309 50.4003 19.6616 48.4618 19.6616ZM48.4618 25.2001C47.3541 25.2001 46.3387 24.277 46.3387 23.077C46.3387 21.877 47.2618 20.9539 48.4618 20.9539C49.6618 20.9539 50.5849 21.877 50.5849 23.077C50.5849 24.277 49.5695 25.2001 48.4618 25.2001Z" fill="#F9F9F9"/>
<path d="M37.3846 19.6616C35.4462 19.6616 33.877 21.2309 33.877 23.1693C33.877 25.1078 35.4462 26.677 37.3846 26.677C39.3231 26.677 40.8923 25.1078 40.8923 23.1693C40.8923 21.2309 39.3231 19.6616 37.3846 19.6616ZM37.3846 25.2001C36.277 25.2001 35.2616 24.277 35.2616 23.077C35.2616 21.877 36.1846 20.9539 37.3846 20.9539C38.5846 20.9539 39.5077 21.877 39.5077 23.077C39.5077 24.277 38.4923 25.2001 37.3846 25.2001Z" fill="#F9F9F9"/>
<path d="M26.3085 19.6616C24.37 19.6616 22.8008 21.2309 22.8008 23.1693C22.8008 25.1078 24.37 26.677 26.3085 26.677C28.2469 26.677 29.8162 25.1078 29.8162 23.1693C29.8162 21.2309 28.2469 19.6616 26.3085 19.6616ZM26.3085 25.2001C25.2008 25.2001 24.1854 24.277 24.1854 23.077C24.1854 21.877 25.1085 20.9539 26.3085 20.9539C27.5085 20.9539 28.4315 21.877 28.4315 23.077C28.4315 24.277 27.4162 25.2001 26.3085 25.2001Z" fill="#F9F9F9"/>
<path d="M40.7081 46.2461C40.8004 45.8768 40.5235 45.5076 40.1542 45.4153C39.785 45.323 39.4158 45.5999 39.3235 45.9691C39.0465 47.3537 37.8465 48.2768 36.3696 48.2768H23.4465C23.2619 48.2768 23.1696 48.3691 22.985 48.4614L13.0158 55.9384V48.923C13.0158 48.5537 12.7388 48.1845 12.2773 48.1845H4.89268C3.23115 48.1845 1.84653 46.7999 1.84653 45.1384V24.923C1.84653 23.2614 3.23115 21.8768 4.89268 21.8768H12.2773C12.6465 21.8768 13.0158 21.5999 13.0158 21.1384C13.0158 20.6768 12.7388 20.3999 12.2773 20.3999H4.89268C2.49268 20.3999 0.461914 22.3384 0.461914 24.8307V45.1384C0.461914 47.5384 2.40038 49.5691 4.89268 49.5691H11.6311V57.2307C11.6311 57.5076 11.8158 57.6922 12.0004 57.8768C12.0927 57.9691 12.185 57.9691 12.2773 57.9691C12.4619 57.9691 12.5542 57.8768 12.7388 57.7845L23.6311 49.6614H36.3696C38.4927 49.6614 40.2465 48.1845 40.7081 46.2461Z" fill="#F9F9F9"/>
</svg>
