<svg width="60" height="60" viewBox="0 0 60 60" fill="none" xmlns="http://www.w3.org/2000/svg">
<g clip-path="url(#clip0_48_468)">
<path d="M30.0004 60C28.3179 60 26.7373 59.3469 25.551 58.1601L21.8409 54.45L17.9734 58.3179L17.3151 57.6596L21.1826 53.7917L17.799 50.4086L9.30729 58.9003L8.649 58.242L17.1407 49.7499L13.7576 46.3671L9.89014 50.2341L9.23186 49.5759L13.0993 45.7084L9.71529 42.3249L1.22357 50.8166L0.565286 50.1583L9.057 41.6666L5.67386 38.2834L1.80643 42.1504L1.14771 41.4921L5.01514 37.6247L1.84029 34.4494C0.653571 33.2627 0 31.683 0 30C0 28.3174 0.653571 26.7381 1.83986 25.5514L5.01471 22.3766L1.14643 18.5083L1.80557 17.8491L5.67386 21.7174L9.05743 18.3339L0.564429 9.84129L1.22357 9.18257L9.71614 17.6751L13.0989 14.2924L9.23057 10.4241L9.88843 9.76586L13.7567 13.6341L17.1411 10.2497L8.64857 1.75714L9.30643 1.09929L17.799 9.59186L21.1817 6.20957L17.3134 2.34129L17.9721 1.68214L21.8404 5.55043L25.5501 1.84071C26.7373 0.653571 28.3179 0 30.0009 0C31.6839 0 33.2636 0.653571 34.4494 1.83943L38.1591 5.54914L42.027 1.68171L42.6853 2.34L38.8174 6.20743L42.2014 9.59143L50.6931 1.09971L51.3514 1.758L42.8597 10.2497L46.2429 13.6329L50.1099 9.76543L50.7681 10.4241L46.9007 14.2916L50.2839 17.6747L58.7756 9.183L59.4343 9.84171L50.9426 18.3334L54.3257 21.717L58.1936 17.8496L58.8519 18.5079L54.9844 22.3753L58.1593 25.5506C59.3456 26.7373 59.9987 28.3174 59.9987 29.9996C59.9987 31.6817 59.3451 33.2627 58.1589 34.4494L54.9836 37.6243L58.8519 41.4926L58.1936 42.1504L54.3257 38.2826L50.9421 41.6657L59.4343 50.1583L58.7764 50.8161L50.2843 42.324L46.9007 45.7071L50.769 49.5754L50.1099 50.2341L46.242 46.3663L42.8584 49.7499L51.3506 58.242L50.6927 58.8999L42.2001 50.4077L38.817 53.7913L42.6849 57.6591L42.027 58.3174L38.1587 54.4491L34.4481 58.1601C33.2619 59.3464 31.6817 59.9996 30 59.9996H29.9996L30.0004 60ZM22.4991 53.7921L26.2093 57.5023C27.2181 58.5111 28.5626 59.067 29.9936 59.067C31.0971 59.067 32.157 58.7357 33.0574 58.1091L33.3051 57.9373L27.573 52.2056L28.2313 51.5473L33.9883 57.3043L37.5013 53.7913L33.5126 49.8026L53.3151 30L33.5126 10.197L37.5009 6.20871L33.7911 2.499C32.7819 1.48929 31.4374 0.933429 30.0064 0.933429C28.9029 0.933429 27.8434 1.26471 26.9426 1.89129L26.6953 2.06357L32.427 7.79486L31.7687 8.45314L26.0121 2.69657L22.4996 6.20914L26.4883 10.1974L6.68443 30.0013L26.4874 49.8043L22.4991 53.7926V53.7921ZM18.4573 49.7503L21.8409 53.1339L25.1709 49.8034L21.7873 46.4203L18.4569 49.7503H18.4573ZM34.8291 49.803L38.1596 53.1334L41.5427 49.7499L38.2127 46.4194L34.8291 49.803ZM38.8706 45.7616L42.201 49.092L45.5846 45.7084L42.2541 42.378L38.8706 45.7616ZM14.4154 45.7089L17.7986 49.092L21.129 45.762L17.7459 42.3789L14.4154 45.7089ZM10.3731 41.6666L13.7571 45.0506L17.0876 41.7201L13.7036 38.3366L10.3731 41.6666ZM42.9129 41.7193L46.2433 45.0493L49.6269 41.6661L46.2964 38.3357L42.9129 41.7193ZM6.33171 37.6251L9.71486 41.0083L13.0453 37.6783L9.66214 34.2951L6.33214 37.6251H6.33171ZM46.9543 37.6779L50.2847 41.0079L53.6683 37.6247L50.3379 34.2943L46.9543 37.6779ZM0.948 30.4659L0.988714 30.7534C1.15329 31.9179 1.67529 32.9687 2.49814 33.7916L5.67343 36.9664L9.00343 33.6364L5.83243 30.465L0.948429 30.4659H0.948ZM50.9961 33.6351L54.3261 36.9656L57.5014 33.7907C58.3251 32.967 58.8467 31.9166 59.01 30.7526L59.0503 30.4654H54.1654L50.9961 33.6347V33.6351ZM2.49814 26.2097C1.67443 27.033 1.15286 28.0839 0.989143 29.2479L0.948857 29.535H5.83329L9.003 26.3649L5.673 23.0349L2.49814 26.2097ZM50.9961 26.3644L54.1663 29.5341H59.0507L59.0104 29.247C58.848 28.0843 58.326 27.0339 57.5019 26.2093L54.3266 23.034L50.9966 26.3644H50.9961ZM46.9543 22.3226L50.3379 25.7061L53.6679 22.3757L50.2843 18.9921L46.9543 22.3226ZM6.33214 22.3757L9.66171 25.7057L13.0453 22.3221L9.71571 18.9926L6.33214 22.3761V22.3757ZM42.912 18.2807L46.2951 21.6639L49.6251 18.3339L46.2424 14.9507L42.912 18.2811V18.2807ZM10.3744 18.3334L13.7044 21.6634L17.0871 18.2807L13.7571 14.9511L10.3744 18.3334ZM14.415 14.2929L17.745 17.6229L21.1294 14.2384L17.7994 10.9089L14.415 14.2929ZM38.8706 14.2393L42.2537 17.6224L45.5837 14.292L42.201 10.9093L38.8706 14.2393ZM34.8283 10.197L38.2123 13.581L41.5423 10.251L38.1587 6.867L34.8283 10.197ZM18.4577 10.2506L21.7877 13.5806L25.17 10.1979L21.8404 6.86829L18.4577 10.2506ZM30 41.3391C21.7573 41.3391 14.8401 32.8723 12.9167 30.2773L12.711 30L12.9167 29.7231C14.8406 27.1281 21.7581 18.6621 30 18.6621C38.2419 18.6621 45.1599 27.129 47.0829 29.724L47.2881 30.0009L47.0829 30.2786C45.1616 32.8731 38.2509 41.3396 30 41.3396V41.3391ZM30 19.5926C22.4961 19.5926 15.8499 27.4406 13.9916 29.8457L13.8724 30L13.9916 30.1543C15.849 32.5599 22.494 40.4087 30 40.4087C37.506 40.4087 44.1527 32.5607 46.0084 30.1551L46.1276 30.0009L46.0084 29.8466C44.1501 27.4414 37.5034 19.5926 30 19.5926ZM30 38.3554C25.3924 38.3554 21.6441 34.6067 21.6441 29.9996C21.6441 25.3924 25.3924 21.6441 30 21.6441C34.6076 21.6441 38.355 25.3924 38.355 29.9996C38.355 34.6067 34.6071 38.3554 30 38.3554ZM30 22.575C25.9059 22.575 22.575 25.9059 22.575 29.9996C22.575 34.0933 25.9059 37.4246 30 37.4246C34.0941 37.4246 37.4246 34.0937 37.4246 29.9996C37.4246 25.9054 34.0941 22.575 30 22.575ZM30 34.6474C27.4376 34.6474 25.3526 32.5629 25.3526 30C25.3526 27.4371 27.4371 25.3534 30 25.3534C32.5629 25.3534 34.647 27.4376 34.647 30C34.647 32.5624 32.5624 34.6474 30 34.6474ZM30 26.2839C27.9506 26.2839 26.2834 27.951 26.2834 30C26.2834 32.049 27.9506 33.717 30 33.717C32.0494 33.717 33.7161 32.0499 33.7161 30C33.7161 27.9501 32.049 26.2839 30 26.2839Z" fill="#F9F9F9"/>
</g>
<defs>
<clipPath id="clip0_48_468">
<rect width="60" height="60" fill="white"/>
</clipPath>
</defs>
</svg>
