<svg width="60" height="60" viewBox="0 0 60 60" fill="none" xmlns="http://www.w3.org/2000/svg">
<path d="M57.1875 11.25C57.705 11.25 58.125 10.83 58.125 10.3125V8.4375C58.125 5.85188 56.0231 3.75 53.4375 3.75H51.5625C51.045 3.75 50.625 4.17 50.625 4.6875C50.625 5.205 51.045 5.625 51.5625 5.625H53.4375C54.9881 5.625 56.25 6.88687 56.25 8.4375V10.3125C56.25 10.83 56.67 11.25 57.1875 11.25Z" fill="#F9F9F9"/>
<path d="M1.875 51.5625V49.6875C1.875 49.17 2.295 48.75 2.8125 48.75H42.1875C42.705 48.75 43.125 49.17 43.125 49.6875V51.5625C43.125 53.1131 44.3869 54.375 45.9375 54.375C46.455 54.375 46.875 54.795 46.875 55.3125C46.875 55.83 46.455 56.25 45.9375 56.25H6.5625C3.97688 56.25 1.875 54.1481 1.875 51.5625ZM41.25 51.5625V50.625H3.75V51.5625C3.75 53.1131 5.01187 54.375 6.5625 54.375H42.1894C41.6006 53.5912 41.25 52.6181 41.25 51.5625Z" fill="#F9F9F9"/>
<path d="M41.2703 33.7688C40.9047 34.1363 40.9047 34.7288 41.2703 35.0963L43.9216 37.7475C44.2872 38.1132 44.8816 38.1132 45.2472 37.7475C45.6128 37.3819 45.6128 36.7875 45.2472 36.4219L42.5959 33.7688C42.2284 33.4013 41.6359 33.4013 41.2703 33.7688Z" fill="#F9F9F9"/>
<path d="M31.875 39.375C23.6044 39.375 16.875 32.6456 16.875 24.375C16.875 16.1044 23.6044 9.375 31.875 9.375C34.9875 9.375 37.9725 10.32 40.5094 12.1088C40.9331 12.405 41.0344 12.9919 40.7362 13.4137C40.4381 13.8375 39.8512 13.9406 39.4294 13.6388C37.2112 12.075 34.5994 11.25 31.875 11.25C24.6375 11.25 18.75 17.1394 18.75 24.375C18.75 31.6106 24.6375 37.5 31.875 37.5C39.1125 37.5 45 31.6106 45 24.375C45 23.0269 44.7975 21.6994 44.3962 20.4281C44.2406 19.9331 44.5144 19.4062 45.0094 19.2525C45.5044 19.1006 46.0294 19.3706 46.185 19.8637C46.6425 21.3187 46.875 22.8375 46.875 24.375C46.875 32.6456 40.1456 39.375 31.875 39.375Z" fill="#F9F9F9"/>
<path d="M46.875 37.5C47.355 37.5 47.835 37.6837 48.2006 38.0494L55.7006 45.5494C56.4338 46.2825 56.4338 47.4675 55.7006 48.2006C55.335 48.5663 54.855 48.75 54.375 48.75C53.895 48.75 53.415 48.5663 53.0494 48.2006L45.5494 40.7006C44.8162 39.9675 44.8162 38.7825 45.5494 38.0494C45.915 37.6837 46.395 37.5 46.875 37.5ZM46.875 35.625C45.8737 35.625 44.9325 36.015 44.2238 36.7238C43.515 37.4325 43.125 38.3737 43.125 39.375C43.125 40.3762 43.515 41.3175 44.2238 42.0262L51.7238 49.5262C52.4325 50.235 53.3737 50.625 54.375 50.625C55.3763 50.625 56.3175 50.235 57.0262 49.5262C57.735 48.8175 58.125 47.8763 58.125 46.875C58.125 45.8737 57.735 44.9325 57.0262 44.2238L49.5262 36.7238C48.8175 36.015 47.8762 35.625 46.875 35.625Z" fill="#F9F9F9"/>
<path opacity="0.5" d="M30.9379 29.9999C30.9304 29.9999 30.9229 29.9999 30.9154 29.9999C30.6435 29.9924 30.3904 29.8705 30.216 29.6624L25.5285 24.0374C25.1985 23.638 25.2529 23.0474 25.6485 22.7155C26.0479 22.3855 26.6367 22.4399 26.9704 22.8355L30.9698 27.6374L44.3085 13.4287C44.661 13.0462 45.2535 13.0237 45.6323 13.3705C46.0129 13.7212 46.0392 14.3137 45.6885 14.6962L31.6279 29.6962C31.4498 29.8893 31.2023 29.9999 30.9379 29.9999Z" fill="#F9F9F9"/>
<path d="M53.4375 5.625C53.955 5.625 54.375 5.205 54.375 4.6875C54.375 4.17 53.955 3.75 53.4375 3.75H15.9375C13.3519 3.75 11.25 5.85188 11.25 8.4375V45.9375C11.25 46.455 11.67 46.875 12.1875 46.875C12.705 46.875 13.125 46.455 13.125 45.9375V8.4375C13.125 6.88687 14.3869 5.625 15.9375 5.625H49.6894C49.1006 6.40875 48.75 7.38375 48.75 8.4375V32.8125C48.75 33.33 49.17 33.75 49.6875 33.75C50.205 33.75 50.625 33.33 50.625 32.8125V8.4375C50.625 6.88687 51.8869 5.625 53.4375 5.625Z" fill="#F9F9F9"/>
<path d="M45.9375 54.375H42.6562V56.25H45.9375C48.5231 56.25 50.625 54.1481 50.625 51.5625C50.625 51.045 50.205 50.625 49.6875 50.625C49.17 50.625 48.75 51.045 48.75 51.5625C48.75 53.1131 47.4881 54.375 45.9375 54.375Z" fill="#F9F9F9"/>
</svg>
